#N canvas 529 50 453 353 12;
#X obj 31 12 inlet;
#X obj 31 40 route list float;
#X obj 181 87 pack f f f f;
#X obj 256 8 inlet;
#X obj 306 8 inlet;
#X obj 356 7 inlet;
#X obj 31 75 list trim;
#X obj 31 319 s \$1;
#X msg 31 259 vis 0 \, relocate \$1x\$2+0+0 0x0+\$3+\$4 \, vis 1,
f 16;
#X text 300 160 dynamically relocate a patch on screen, f 13;
#X text 225 295 \$1 == pd-patchname or pd-abstraction.pd, f 21;
#X obj 44 140 int;
#X obj 44 172 sel 0;
#X msg 103 143 1;
#X msg 103 166 0;
#X obj 44 197 del 300;
#X obj 98 109 t b a;
#X obj 116 226 list;
#X text 165 156 <-limit;
#X msg 247 266 450 250 100 100;
#X connect 0 0 1 0;
#X connect 1 0 6 0;
#X connect 1 1 2 0;
#X connect 2 0 16 0;
#X connect 3 0 2 1;
#X connect 4 0 2 2;
#X connect 5 0 2 3;
#X connect 6 0 16 0;
#X connect 8 0 7 0;
#X connect 11 0 12 0;
#X connect 12 0 13 0;
#X connect 12 0 15 0;
#X connect 13 0 11 1;
#X connect 14 0 11 1;
#X connect 15 0 14 0;
#X connect 15 0 17 0;
#X connect 16 0 11 0;
#X connect 16 1 17 1;
#X connect 17 0 8 0;
#X connect 19 0 1 0;
