#N canvas 500 50 530 480 12;
#X declare -path fd_lib;
#X obj 4 4 cnv 15 522 30 empty empty "fd_relocate" 20 15 0 15 -228856
-1 0;
#X obj 4 254 cnv 15 522 20 empty empty arguments: 10 10 0 14 -228856
-1 0;
#X obj 4 294 cnv 15 522 20 empty empty inlets: 10 10 0 14 -228856 -1
0;
#X obj 4 388 cnv 15 522 20 empty empty outlets: 10 10 0 14 -228856
-1 0;
#X obj 4 453 cnv 15 522 20 empty empty version 10 10 0 14 -228856 -1
0;
#X obj 380 8 declare -path fd_lib;
#N canvas 0 22 450 300 meta 0;
#X text 10 10 fd_lib - metadata file - Sat Sep 28 23:15:48 EDT 2019
;
#X text 10 25 patch_name : fd_relocate;
#X text 10 40 inlet : 4;
#X text 10 55 outlet : 0;
#X text 10 70 inlet~ : 0;
#X text 10 85 outlet~ : 0;
#X text 10 100 arguments : 1;
#X text 10 115 classes used : 11;
#X text 10 130 total objects: 16;
#X text 10 145 connections : 20;
#X text 10 160 dependencies : 0 [0];
#X text 10 175 externals : 1 [0fd_calm];
#X text 10 190 internals : 10/233 [0inlet:list:>:unpack:t:spigot:s:route:pack:&&]
;
#X restore 438 423 pd meta;
#X text 440 452 fd_lib v0.1;
#X text 60 412 0 outlets;
#N canvas 140 305 450 250 whatever 0;
#X restore 375 97 pd whatever;
#X obj 180 211 fd_relocate pd-whatever;
#X obj 64 148 + 20;
#X msg 64 175 450 250 \$1 \$1;
#X msg 64 98 bang;
#X obj 64 123 random 200;
#X text 188 159 xsize ysize xpos ypos;
#X floatatom 232 185 5 0 0 0 - - -;
#X floatatom 285 185 5 0 0 0 - - -;
#X floatatom 338 185 5 0 0 0 - - -;
#X floatatom 180 185 5 0 0 0 - - -;
#X text 60 274 1: symbol: pd-subpatch or pd-abstraction.pd names;
#X text 60 314 1: list: xsize ysize xpos ypos \; 1: float: xsize (>100)
\; 2: float: ysize (>100) \; 3: float: xpos \; 4: float: ypos \;;
#X text 23 57 Dynamically relocate a patch on screen.;
#X connect 11 0 12 0;
#X connect 12 0 10 0;
#X connect 13 0 14 0;
#X connect 14 0 11 0;
#X connect 16 0 10 1;
#X connect 17 0 10 2;
#X connect 18 0 10 3;
#X connect 19 0 10 0;
