#N canvas 464 63 382 491 12;
#X obj 33 363 *~;
#X obj 294 161 *~;
#X obj 33 448 outlet~;
#X obj 294 185 *~;
#X obj 33 47 abs~;
#X obj 33 70 *~ -1;
#X obj 33 18 inlet~;
#X obj 33 100 phasor~ -1;
#X obj 159 177 cos~;
#X obj 33 241 *~;
#X obj 159 199 *~ 0.5;
#X obj 159 221 +~ 0.5;
#X obj 33 330 *~;
#X obj 214 177 cos~;
#X obj 214 199 *~ 0.5;
#X obj 214 221 +~ 0.5;
#X obj 205 17 inlet;
#X obj 214 155 -~;
#X obj 33 422 biquad~ 0.4 0.5 1 1 1;
#X text 114 356 see fd_impulse-help.pd;
#X obj 33 388 clip~ 0 1;
#X obj 33 210 fd_shift \$1 \$1;
#X obj 33 268 fd_shift \$1 \$1;
#X connect 0 0 20 0;
#X connect 1 0 3 0;
#X connect 1 0 3 1;
#X connect 3 0 0 1;
#X connect 4 0 5 0;
#X connect 5 0 7 0;
#X connect 6 0 4 0;
#X connect 7 0 1 0;
#X connect 7 0 1 1;
#X connect 7 0 8 0;
#X connect 7 0 17 0;
#X connect 7 0 21 0;
#X connect 8 0 10 0;
#X connect 9 0 22 0;
#X connect 10 0 11 0;
#X connect 11 0 9 1;
#X connect 12 0 0 0;
#X connect 13 0 14 0;
#X connect 14 0 15 0;
#X connect 15 0 12 1;
#X connect 16 0 17 1;
#X connect 17 0 13 0;
#X connect 18 0 2 0;
#X connect 20 0 18 0;
#X connect 21 0 9 0;
#X connect 22 0 12 0;
