#N canvas 500 50 530 480 12;
#X declare -path fd_lib;
#X declare -lib iemmatrix;
#X obj 4 4 cnv 15 522 30 empty empty "fd_markfour" 20 15 0 15 -228856
-1 0;
#X obj 4 254 cnv 15 522 20 empty empty arguments: 10 10 0 14 -228856
-1 0;
#X obj 4 314 cnv 15 522 20 empty empty inlets: 10 10 0 14 -228856 -1
0;
#X obj 4 374 cnv 15 522 20 empty empty outlets: 10 10 0 14 -228856
-1 0;
#X obj 4 453 cnv 15 522 20 empty empty version 10 10 0 14 -228856 -1
0;
#X obj 380 8 declare -path fd_lib;
#N canvas 0 22 450 300 meta 0;
#X text 10 10 fd_lib - metadata file - Fri Sep 13 18:19:59 EDT 2019
;
#X text 10 25 patch_name : fd_markfour;
#X text 10 40 inlet : 2;
#X text 10 55 outlet : 1;
#X text 10 70 inlet~ : 0;
#X text 10 85 outlet~ : 0;
#X text 10 100 arguments : 1;
#X text 10 115 classes used : 4;
#X text 10 130 total objects: 29;
#X text 10 145 connections : 81;
#X text 10 160 dependencies : 0 [0];
#X text 10 175 externals : 1 [0fd_markov];
#X text 10 190 internals : 3/233 [0list:inlet:outlet];
#X restore 438 423 pd meta;
#X text 440 452 fd_lib v0.1;
#X text 33 51 A fourth-order markov chain;
#X msg 166 88 bang;
#X obj 166 145 fd_markfour 0;
#X obj 166 172 route 0;
#X obj 166 216 print;
#X text 60 284 1: instance number;
#X text 60 340 1: bang: calculate next state \; 2: list: new probabilities
;
#X msg 254 121 30 22 25 60 45 3;
#N canvas 0 22 1222 697 long 0;
#X msg 3 49 2;
#X obj 62 121 list split 1;
#X obj 96 143 route 1 2 3;
#X obj 53 219 route 1 2 3;
#X obj 32 254 bng 15 250 50 0 empty empty empty 17 7 0 10 -262144 -1
-1;
#X obj 82 254 bng 15 250 50 0 empty empty empty 17 7 0 10 -262144 -1
-1;
#X obj 132 254 bng 15 250 50 0 empty empty empty 17 7 0 10 -262144
-1 -1;
#X obj 106 179 route 1 2 3;
#X msg 104 19 1;
#X msg 348 133 0;
#X obj 27 332 f;
#X obj 55 331 + 1;
#X obj 42 310 r clear;
#X obj 27 354 / 1;
#X obj 59 355 r tot;
#X floatatom 27 376 5 0 0 0 - - -;
#X obj 30 67 t f b b;
#X obj 134 82 f;
#X obj 163 82 + 1;
#X obj 134 104 s tot;
#X obj 148 48 r clear;
#X obj 224 9 bng 15 250 50 0 empty empty empty 17 7 0 10 -262144 -1
-1;
#X obj 216 49 s clear;
#N canvas 0 22 450 278 (subpatch) 0;
#X array testing 27 float 3;
#A 0 0.00770504 0.0334937 0.0110048 0.0219133 0.0259205 0.0717288 0.0955167
0.00688401 0.00623439 0.0118143 0.0217752 0.0149663 0.0191636 0.0211321
0.0191076 0.0667607 0.0446296 0.0131402 0.0448954 0.0578629 0.0793622
0.0550099 0.0654159 0.0369478 0.122937 0.0120665 0.0127678;
#X coords 0 1 27 -1 200 140 1 0 0;
#X restore 945 24 graph;
#X msg 27 395 0 \$1;
#X obj 27 417 s testing;
#X obj 107 332 f;
#X obj 135 331 + 1;
#X obj 122 310 r clear;
#X obj 107 354 / 1;
#X obj 139 355 r tot;
#X floatatom 107 376 5 0 0 0 - - -;
#X obj 107 417 s testing;
#X obj 187 332 f;
#X obj 215 331 + 1;
#X obj 202 310 r clear;
#X obj 187 354 / 1;
#X obj 219 355 r tot;
#X floatatom 187 376 5 0 0 0 - - -;
#X obj 187 417 s testing;
#X msg 107 395 1 \$1;
#X msg 187 395 2 \$1;
#X obj 290 213 route 1 2 3;
#X obj 269 248 bng 15 250 50 0 empty empty empty 17 7 0 10 -262144
-1 -1;
#X obj 319 248 bng 15 250 50 0 empty empty empty 17 7 0 10 -262144
-1 -1;
#X obj 369 248 bng 15 250 50 0 empty empty empty 17 7 0 10 -262144
-1 -1;
#X obj 264 326 f;
#X obj 292 325 + 1;
#X obj 279 304 r clear;
#X obj 264 348 / 1;
#X obj 296 349 r tot;
#X floatatom 264 370 5 0 0 0 - - -;
#X obj 264 411 s testing;
#X obj 344 326 f;
#X obj 372 325 + 1;
#X obj 359 304 r clear;
#X obj 344 348 / 1;
#X obj 376 349 r tot;
#X floatatom 344 370 5 0 0 0 - - -;
#X obj 344 411 s testing;
#X obj 424 326 f;
#X obj 452 325 + 1;
#X obj 439 304 r clear;
#X obj 424 348 / 1;
#X obj 456 349 r tot;
#X floatatom 424 370 5 0 0 0 - - -;
#X obj 424 411 s testing;
#X msg 264 389 3 \$1;
#X msg 344 389 4 \$1;
#X msg 424 389 5 \$1;
#X obj 529 215 route 1 2 3;
#X obj 508 250 bng 15 250 50 0 empty empty empty 17 7 0 10 -262144
-1 -1;
#X obj 558 250 bng 15 250 50 0 empty empty empty 17 7 0 10 -262144
-1 -1;
#X obj 608 250 bng 15 250 50 0 empty empty empty 17 7 0 10 -262144
-1 -1;
#X obj 503 328 f;
#X obj 531 327 + 1;
#X obj 518 306 r clear;
#X obj 503 350 / 1;
#X obj 535 351 r tot;
#X floatatom 503 372 5 0 0 0 - - -;
#X obj 503 413 s testing;
#X obj 583 328 f;
#X obj 611 327 + 1;
#X obj 598 306 r clear;
#X obj 583 350 / 1;
#X obj 615 351 r tot;
#X floatatom 583 372 5 0 0 0 - - -;
#X obj 583 413 s testing;
#X obj 663 328 f;
#X obj 691 327 + 1;
#X obj 678 306 r clear;
#X obj 663 350 / 1;
#X obj 695 351 r tot;
#X floatatom 663 372 5 0 0 0 - - -;
#X obj 663 413 s testing;
#X msg 503 391 6 \$1;
#X msg 583 391 7 \$1;
#X msg 663 391 8 \$1;
#X obj 82 491 route 1 2 3;
#X obj 61 526 bng 15 250 50 0 empty empty empty 17 7 0 10 -262144 -1
-1;
#X obj 111 526 bng 15 250 50 0 empty empty empty 17 7 0 10 -262144
-1 -1;
#X obj 161 526 bng 15 250 50 0 empty empty empty 17 7 0 10 -262144
-1 -1;
#X obj 135 451 route 1 2 3;
#X obj 56 604 f;
#X obj 84 603 + 1;
#X obj 71 582 r clear;
#X obj 56 626 / 1;
#X obj 88 627 r tot;
#X floatatom 56 648 5 0 0 0 - - -;
#X obj 56 689 s testing;
#X obj 136 604 f;
#X obj 164 603 + 1;
#X obj 151 582 r clear;
#X obj 136 626 / 1;
#X obj 168 627 r tot;
#X floatatom 136 648 5 0 0 0 - - -;
#X obj 136 689 s testing;
#X obj 216 604 f;
#X obj 244 603 + 1;
#X obj 231 582 r clear;
#X obj 216 626 / 1;
#X obj 248 627 r tot;
#X floatatom 216 648 5 0 0 0 - - -;
#X obj 216 689 s testing;
#X obj 319 485 route 1 2 3;
#X obj 298 520 bng 15 250 50 0 empty empty empty 17 7 0 10 -262144
-1 -1;
#X obj 348 520 bng 15 250 50 0 empty empty empty 17 7 0 10 -262144
-1 -1;
#X obj 398 520 bng 15 250 50 0 empty empty empty 17 7 0 10 -262144
-1 -1;
#X obj 293 598 f;
#X obj 321 597 + 1;
#X obj 308 576 r clear;
#X obj 293 620 / 1;
#X obj 325 621 r tot;
#X floatatom 293 642 5 0 0 0 - - -;
#X obj 293 683 s testing;
#X obj 373 598 f;
#X obj 401 597 + 1;
#X obj 388 576 r clear;
#X obj 373 620 / 1;
#X obj 405 621 r tot;
#X floatatom 373 642 5 0 0 0 - - -;
#X obj 373 683 s testing;
#X obj 453 598 f;
#X obj 481 597 + 1;
#X obj 468 576 r clear;
#X obj 453 620 / 1;
#X obj 485 621 r tot;
#X floatatom 453 642 5 0 0 0 - - -;
#X obj 453 683 s testing;
#X obj 558 487 route 1 2 3;
#X obj 537 522 bng 15 250 50 0 empty empty empty 17 7 0 10 -262144
-1 -1;
#X obj 587 522 bng 15 250 50 0 empty empty empty 17 7 0 10 -262144
-1 -1;
#X obj 637 522 bng 15 250 50 0 empty empty empty 17 7 0 10 -262144
-1 -1;
#X obj 532 600 f;
#X obj 560 599 + 1;
#X obj 547 578 r clear;
#X obj 532 622 / 1;
#X obj 564 623 r tot;
#X floatatom 532 644 5 0 0 0 - - -;
#X obj 532 685 s testing;
#X obj 612 600 f;
#X obj 640 599 + 1;
#X obj 627 578 r clear;
#X obj 612 622 / 1;
#X obj 644 623 r tot;
#X floatatom 612 644 5 0 0 0 - - -;
#X obj 612 685 s testing;
#X obj 692 600 f;
#X obj 720 599 + 1;
#X obj 707 578 r clear;
#X obj 692 622 / 1;
#X obj 724 623 r tot;
#X floatatom 692 644 5 0 0 0 - - -;
#X obj 692 685 s testing;
#X obj 148 799 route 1 2 3;
#X obj 127 834 bng 15 250 50 0 empty empty empty 17 7 0 10 -262144
-1 -1;
#X obj 177 834 bng 15 250 50 0 empty empty empty 17 7 0 10 -262144
-1 -1;
#X obj 227 834 bng 15 250 50 0 empty empty empty 17 7 0 10 -262144
-1 -1;
#X obj 201 759 route 1 2 3;
#X obj 122 912 f;
#X obj 150 911 + 1;
#X obj 137 890 r clear;
#X obj 122 934 / 1;
#X obj 154 935 r tot;
#X floatatom 122 956 5 0 0 0 - - -;
#X obj 122 997 s testing;
#X obj 202 912 f;
#X obj 230 911 + 1;
#X obj 217 890 r clear;
#X obj 202 934 / 1;
#X obj 234 935 r tot;
#X floatatom 202 956 5 0 0 0 - - -;
#X obj 202 997 s testing;
#X obj 282 912 f;
#X obj 310 911 + 1;
#X obj 297 890 r clear;
#X obj 282 934 / 1;
#X obj 314 935 r tot;
#X floatatom 282 956 5 0 0 0 - - -;
#X obj 282 997 s testing;
#X obj 385 793 route 1 2 3;
#X obj 364 828 bng 15 250 50 0 empty empty empty 17 7 0 10 -262144
-1 -1;
#X obj 414 828 bng 15 250 50 0 empty empty empty 17 7 0 10 -262144
-1 -1;
#X obj 464 828 bng 15 250 50 0 empty empty empty 17 7 0 10 -262144
-1 -1;
#X obj 359 906 f;
#X obj 387 905 + 1;
#X obj 374 884 r clear;
#X obj 359 928 / 1;
#X obj 391 929 r tot;
#X floatatom 359 950 5 0 0 0 - - -;
#X obj 359 991 s testing;
#X obj 439 906 f;
#X obj 467 905 + 1;
#X obj 454 884 r clear;
#X obj 439 928 / 1;
#X obj 471 929 r tot;
#X floatatom 439 950 5 0 0 0 - - -;
#X obj 439 991 s testing;
#X obj 519 906 f;
#X obj 547 905 + 1;
#X obj 534 884 r clear;
#X obj 519 928 / 1;
#X obj 551 929 r tot;
#X floatatom 519 950 5 0 0 0 - - -;
#X obj 519 991 s testing;
#X obj 624 795 route 1 2 3;
#X obj 603 830 bng 15 250 50 0 empty empty empty 17 7 0 10 -262144
-1 -1;
#X obj 653 830 bng 15 250 50 0 empty empty empty 17 7 0 10 -262144
-1 -1;
#X obj 703 830 bng 15 250 50 0 empty empty empty 17 7 0 10 -262144
-1 -1;
#X obj 598 908 f;
#X obj 626 907 + 1;
#X obj 613 886 r clear;
#X obj 598 930 / 1;
#X obj 630 931 r tot;
#X floatatom 598 952 5 0 0 0 - - -;
#X obj 598 993 s testing;
#X obj 678 908 f;
#X obj 706 907 + 1;
#X obj 693 886 r clear;
#X obj 678 930 / 1;
#X obj 710 931 r tot;
#X floatatom 678 952 5 0 0 0 - - -;
#X obj 678 993 s testing;
#X obj 758 908 f;
#X obj 786 907 + 1;
#X obj 773 886 r clear;
#X obj 758 930 / 1;
#X obj 790 931 r tot;
#X floatatom 758 952 5 0 0 0 - - -;
#X obj 758 993 s testing;
#X msg 56 667 9 \$1;
#X msg 136 667 10 \$1;
#X msg 216 667 11 \$1;
#X msg 293 661 12 \$1;
#X msg 373 661 13 \$1;
#X msg 453 661 14 \$1;
#X msg 532 663 15 \$1;
#X msg 612 663 16 \$1;
#X msg 692 663 17 \$1;
#X msg 122 975 18 \$1;
#X msg 202 975 19 \$1;
#X msg 282 975 20 \$1;
#X msg 359 969 21 \$1;
#X msg 439 969 22 \$1;
#X msg 519 969 23 \$1;
#X msg 598 971 24 \$1;
#X msg 678 971 25 \$1;
#X msg 758 971 26 \$1;
#X msg 30 8 1000;
#X obj 30 30 until;
#X obj 380 95 f;
#X obj 413 93 + 1;
#X obj 741 62 array max testing;
#X obj 775 117 array min testing;
#X msg 701 31 bang;
#X floatatom 681 121 5 0 0 0 - - -;
#X floatatom 775 139 5 0 0 0 - - -;
#X floatatom 880 141 5 0 0 0 - - -;
#X floatatom 837 81 5 0 0 0 - - -;
#X obj 752 190 array sum testing;
#X floatatom 752 212 5 0 0 0 - - -;
#X msg 764 166 bang;
#X obj 817 282 until;
#X obj 817 304 f;
#X obj 842 301 + 1;
#X obj 845 443 tabread4 testing;
#X obj 824 410 + 1;
#N canvas 0 22 450 278 (subpatch) 0;
#X array interpolate 27 float 1;
#A 0 0.0174479 0.0172442 0.0222059 0.040929 0.0860644 0.0734126 0.00688401
0.00559662 0.0111822 0.0210484 0.0179246 0.0168087 0.020577 0.0189872
0.0284869 0.0663391 0.0489706 0.015815 0.0374223 0.0550024 0.0704661
0.0695292 0.0591247 0.0610298 0.0437392 0.120229 0.0401267;
#X coords 0 1 26 -1 200 140 1;
#X restore 941 198 graph;
#X obj 845 465 tabwrite interpolate;
#X obj 866 313 + 1;
#X msg 817 260 100;
#X obj 817 326 / 100;
#X obj 817 348 t f f;
#X obj 861 367 * 27;
#X msg 862 259 0;
#X obj 817 370 * 24;
#X obj 380 117 sel 99;
#X obj 380 139 bng 15 250 50 0 empty empty empty 17 7 0 10 -262144
-1 -1;
#X obj 157 8 bng 15 250 50 0 empty empty empty 17 7 0 10 -262144 -1
-1;
#X obj 393 62 r clear;
#X obj 1041 407 r clear;
#X obj 846 227 r clear;
#X msg 224 29 0;
#X msg 1041 429 \; testing const \$1 \; interpolate const \$1 \;;
#X floatatom 144 30 5 0 0 0 - - -;
#X obj 426 138 * 1000;
#X floatatom 426 182 10 0 0 1 iterations - -;
#X obj 426 160 + 2000;
#X obj 82 46 metro 100;
#X msg 288 44 11 23 24 3 40 33;
#X msg 296 17 1 80 2 80 3 90;
#X msg 322 36 80 2 39 2 2 33;
#X obj 62 99 fd_markfour;
#X obj 491 10 declare -lib iemmatrix;
#X connect 0 0 16 0;
#X connect 1 1 2 0;
#X connect 2 0 7 0;
#X connect 2 1 102 0;
#X connect 2 2 178 0;
#X connect 3 0 4 0;
#X connect 3 1 5 0;
#X connect 3 2 6 0;
#X connect 4 0 10 0;
#X connect 5 0 26 0;
#X connect 6 0 33 0;
#X connect 7 0 3 0;
#X connect 7 1 42 0;
#X connect 7 2 70 0;
#X connect 8 0 308 0;
#X connect 9 0 308 0;
#X connect 10 0 11 0;
#X connect 10 0 13 0;
#X connect 11 0 10 1;
#X connect 12 0 10 1;
#X connect 13 0 15 0;
#X connect 14 0 13 1;
#X connect 15 0 24 0;
#X connect 16 1 312 0;
#X connect 16 2 17 0;
#X connect 17 0 18 0;
#X connect 17 0 19 0;
#X connect 18 0 17 1;
#X connect 20 0 17 1;
#X connect 21 0 302 0;
#X connect 24 0 25 0;
#X connect 26 0 27 0;
#X connect 26 0 29 0;
#X connect 27 0 26 1;
#X connect 28 0 26 1;
#X connect 29 0 31 0;
#X connect 30 0 29 1;
#X connect 31 0 40 0;
#X connect 33 0 34 0;
#X connect 33 0 36 0;
#X connect 34 0 33 1;
#X connect 35 0 33 1;
#X connect 36 0 38 0;
#X connect 37 0 36 1;
#X connect 38 0 41 0;
#X connect 40 0 32 0;
#X connect 41 0 39 0;
#X connect 42 0 43 0;
#X connect 42 1 44 0;
#X connect 42 2 45 0;
#X connect 43 0 46 0;
#X connect 44 0 53 0;
#X connect 45 0 60 0;
#X connect 46 0 47 0;
#X connect 46 0 49 0;
#X connect 47 0 46 1;
#X connect 48 0 46 1;
#X connect 49 0 51 0;
#X connect 50 0 49 1;
#X connect 51 0 67 0;
#X connect 53 0 54 0;
#X connect 53 0 56 0;
#X connect 54 0 53 1;
#X connect 55 0 53 1;
#X connect 56 0 58 0;
#X connect 57 0 56 1;
#X connect 58 0 68 0;
#X connect 60 0 61 0;
#X connect 60 0 63 0;
#X connect 61 0 60 1;
#X connect 62 0 60 1;
#X connect 63 0 65 0;
#X connect 64 0 63 1;
#X connect 65 0 69 0;
#X connect 67 0 52 0;
#X connect 68 0 59 0;
#X connect 69 0 66 0;
#X connect 70 0 71 0;
#X connect 70 1 72 0;
#X connect 70 2 73 0;
#X connect 71 0 74 0;
#X connect 72 0 81 0;
#X connect 73 0 88 0;
#X connect 74 0 75 0;
#X connect 74 0 77 0;
#X connect 75 0 74 1;
#X connect 76 0 74 1;
#X connect 77 0 79 0;
#X connect 78 0 77 1;
#X connect 79 0 95 0;
#X connect 81 0 82 0;
#X connect 81 0 84 0;
#X connect 82 0 81 1;
#X connect 83 0 81 1;
#X connect 84 0 86 0;
#X connect 85 0 84 1;
#X connect 86 0 96 0;
#X connect 88 0 89 0;
#X connect 88 0 91 0;
#X connect 89 0 88 1;
#X connect 90 0 88 1;
#X connect 91 0 93 0;
#X connect 92 0 91 1;
#X connect 93 0 97 0;
#X connect 95 0 80 0;
#X connect 96 0 87 0;
#X connect 97 0 94 0;
#X connect 98 0 99 0;
#X connect 98 1 100 0;
#X connect 98 2 101 0;
#X connect 99 0 103 0;
#X connect 100 0 110 0;
#X connect 101 0 117 0;
#X connect 102 0 98 0;
#X connect 102 1 124 0;
#X connect 102 2 149 0;
#X connect 103 0 104 0;
#X connect 103 0 106 0;
#X connect 104 0 103 1;
#X connect 105 0 103 1;
#X connect 106 0 108 0;
#X connect 107 0 106 1;
#X connect 108 0 250 0;
#X connect 110 0 111 0;
#X connect 110 0 113 0;
#X connect 111 0 110 1;
#X connect 112 0 110 1;
#X connect 113 0 115 0;
#X connect 114 0 113 1;
#X connect 115 0 251 0;
#X connect 117 0 118 0;
#X connect 117 0 120 0;
#X connect 118 0 117 1;
#X connect 119 0 117 1;
#X connect 120 0 122 0;
#X connect 121 0 120 1;
#X connect 122 0 252 0;
#X connect 124 0 125 0;
#X connect 124 1 126 0;
#X connect 124 2 127 0;
#X connect 125 0 128 0;
#X connect 126 0 135 0;
#X connect 127 0 142 0;
#X connect 128 0 129 0;
#X connect 128 0 131 0;
#X connect 129 0 128 1;
#X connect 130 0 128 1;
#X connect 131 0 133 0;
#X connect 132 0 131 1;
#X connect 133 0 253 0;
#X connect 135 0 136 0;
#X connect 135 0 138 0;
#X connect 136 0 135 1;
#X connect 137 0 135 1;
#X connect 138 0 140 0;
#X connect 139 0 138 1;
#X connect 140 0 254 0;
#X connect 142 0 143 0;
#X connect 142 0 145 0;
#X connect 143 0 142 1;
#X connect 144 0 142 1;
#X connect 145 0 147 0;
#X connect 146 0 145 1;
#X connect 147 0 255 0;
#X connect 149 0 150 0;
#X connect 149 1 151 0;
#X connect 149 2 152 0;
#X connect 150 0 153 0;
#X connect 151 0 160 0;
#X connect 152 0 167 0;
#X connect 153 0 154 0;
#X connect 153 0 156 0;
#X connect 154 0 153 1;
#X connect 155 0 153 1;
#X connect 156 0 158 0;
#X connect 157 0 156 1;
#X connect 158 0 256 0;
#X connect 160 0 161 0;
#X connect 160 0 163 0;
#X connect 161 0 160 1;
#X connect 162 0 160 1;
#X connect 163 0 165 0;
#X connect 164 0 163 1;
#X connect 165 0 257 0;
#X connect 167 0 168 0;
#X connect 167 0 170 0;
#X connect 168 0 167 1;
#X connect 169 0 167 1;
#X connect 170 0 172 0;
#X connect 171 0 170 1;
#X connect 172 0 258 0;
#X connect 174 0 175 0;
#X connect 174 1 176 0;
#X connect 174 2 177 0;
#X connect 175 0 179 0;
#X connect 176 0 186 0;
#X connect 177 0 193 0;
#X connect 178 0 174 0;
#X connect 178 1 200 0;
#X connect 178 2 225 0;
#X connect 179 0 180 0;
#X connect 179 0 182 0;
#X connect 180 0 179 1;
#X connect 181 0 179 1;
#X connect 182 0 184 0;
#X connect 183 0 182 1;
#X connect 184 0 259 0;
#X connect 186 0 187 0;
#X connect 186 0 189 0;
#X connect 187 0 186 1;
#X connect 188 0 186 1;
#X connect 189 0 191 0;
#X connect 190 0 189 1;
#X connect 191 0 260 0;
#X connect 193 0 194 0;
#X connect 193 0 196 0;
#X connect 194 0 193 1;
#X connect 195 0 193 1;
#X connect 196 0 198 0;
#X connect 197 0 196 1;
#X connect 198 0 261 0;
#X connect 200 0 201 0;
#X connect 200 1 202 0;
#X connect 200 2 203 0;
#X connect 201 0 204 0;
#X connect 202 0 211 0;
#X connect 203 0 218 0;
#X connect 204 0 205 0;
#X connect 204 0 207 0;
#X connect 205 0 204 1;
#X connect 206 0 204 1;
#X connect 207 0 209 0;
#X connect 208 0 207 1;
#X connect 209 0 262 0;
#X connect 211 0 212 0;
#X connect 211 0 214 0;
#X connect 212 0 211 1;
#X connect 213 0 211 1;
#X connect 214 0 216 0;
#X connect 215 0 214 1;
#X connect 216 0 263 0;
#X connect 218 0 219 0;
#X connect 218 0 221 0;
#X connect 219 0 218 1;
#X connect 220 0 218 1;
#X connect 221 0 223 0;
#X connect 222 0 221 1;
#X connect 223 0 264 0;
#X connect 225 0 226 0;
#X connect 225 1 227 0;
#X connect 225 2 228 0;
#X connect 226 0 229 0;
#X connect 227 0 236 0;
#X connect 228 0 243 0;
#X connect 229 0 230 0;
#X connect 229 0 232 0;
#X connect 230 0 229 1;
#X connect 231 0 229 1;
#X connect 232 0 234 0;
#X connect 233 0 232 1;
#X connect 234 0 265 0;
#X connect 236 0 237 0;
#X connect 236 0 239 0;
#X connect 237 0 236 1;
#X connect 238 0 236 1;
#X connect 239 0 241 0;
#X connect 240 0 239 1;
#X connect 241 0 266 0;
#X connect 243 0 244 0;
#X connect 243 0 246 0;
#X connect 244 0 243 1;
#X connect 245 0 243 1;
#X connect 246 0 248 0;
#X connect 247 0 246 1;
#X connect 248 0 267 0;
#X connect 250 0 109 0;
#X connect 251 0 116 0;
#X connect 252 0 123 0;
#X connect 253 0 134 0;
#X connect 254 0 141 0;
#X connect 255 0 148 0;
#X connect 256 0 159 0;
#X connect 257 0 166 0;
#X connect 258 0 173 0;
#X connect 259 0 185 0;
#X connect 260 0 192 0;
#X connect 261 0 199 0;
#X connect 262 0 210 0;
#X connect 263 0 217 0;
#X connect 264 0 224 0;
#X connect 265 0 235 0;
#X connect 266 0 242 0;
#X connect 267 0 249 0;
#X connect 268 0 269 0;
#X connect 269 0 16 0;
#X connect 270 0 271 0;
#X connect 270 0 296 0;
#X connect 271 0 270 1;
#X connect 272 0 275 0;
#X connect 272 1 278 0;
#X connect 273 0 276 0;
#X connect 273 1 277 0;
#X connect 274 0 273 0;
#X connect 274 0 272 0;
#X connect 274 0 281 0;
#X connect 279 0 280 0;
#X connect 281 0 279 0;
#X connect 281 0 290 0;
#X connect 282 0 283 0;
#X connect 283 0 284 0;
#X connect 283 0 291 0;
#X connect 284 0 283 1;
#X connect 285 0 288 0;
#X connect 286 0 285 0;
#X connect 290 0 282 0;
#X connect 291 0 292 0;
#X connect 292 0 295 0;
#X connect 292 1 293 0;
#X connect 293 0 288 1;
#X connect 294 0 283 1;
#X connect 295 0 286 0;
#X connect 296 0 297 0;
#X connect 296 1 305 0;
#X connect 297 0 9 0;
#X connect 297 0 274 0;
#X connect 298 0 8 0;
#X connect 298 0 302 0;
#X connect 299 0 270 1;
#X connect 300 0 303 0;
#X connect 301 0 294 0;
#X connect 302 0 22 0;
#X connect 304 0 308 1;
#X connect 305 0 307 0;
#X connect 307 0 306 0;
#X connect 308 0 268 0;
#X connect 308 0 270 0;
#X connect 309 0 312 1;
#X connect 310 0 312 1;
#X connect 311 0 312 1;
#X connect 312 0 1 0;
#X restore 391 205 pd long example;
#X text 60 410 1: list: state;
#X connect 9 0 10 0;
#X connect 10 0 11 0;
#X connect 11 0 12 0;
#X connect 15 0 10 1;
