#N canvas 0 22 1114 564 10;
#X obj 37 31 inlet;
#X msg 37 315 1;
#X msg 67 315 2;
#X msg 97 315 3;
#X obj 40 380 list prepend 1;
#X obj 140 360 list prepend 2;
#X obj 259 340 list prepend 3;
#X msg 194 277 1;
#X msg 224 277 2;
#X msg 254 277 3;
#X msg 276 222 1;
#X msg 306 222 2;
#X msg 336 222 3;
#X obj 161 422 list prepend 1;
#X obj 508 476 list prepend;
#X obj 924 28 loadbang;
#X obj 924 50 f \$1;
#X obj 508 498 outlet;
#X msg 377 315 1;
#X msg 407 315 2;
#X msg 437 315 3;
#X obj 380 380 list prepend 1;
#X obj 480 360 list prepend 2;
#X obj 599 340 list prepend 3;
#X msg 534 277 1;
#X msg 564 277 2;
#X msg 594 277 3;
#X msg 616 222 1;
#X msg 646 222 2;
#X msg 676 222 3;
#X obj 501 422 list prepend 2;
#X msg 707 315 1;
#X msg 737 315 2;
#X msg 767 315 3;
#X obj 710 380 list prepend 1;
#X obj 810 360 list prepend 2;
#X obj 929 340 list prepend 3;
#X msg 864 277 1;
#X msg 894 277 2;
#X msg 924 277 3;
#X msg 946 222 1;
#X msg 976 222 2;
#X msg 1006 222 3;
#X obj 831 422 list prepend 3;
#X obj 642 22 inlet;
#X obj 37 88 fd_markov 30 22 25 60 45 3, f 111;
#X obj 37 159 fd_markov 10 80 20 44 22 23;
#X obj 178 191 fd_markov 90 5 80 5 70 20;
#X obj 368 159 fd_markov 40 34 23 31 13 20;
#X obj 701 159 fd_markov 30 40 50 44 34 10;
#X obj 509 191 fd_markov 80 34 23 55 23 50;
#X obj 438 233 fd_markov 20 40 54 34 23 31;
#X obj 107 233 fd_markov 40 30 22 33 10 15;
#X obj 37 278 fd_markov 20 30 10 80 24 39;
#X obj 368 278 fd_markov 15 30 30 44 23 56;
#X obj 700 276 fd_markov 30 45 24 10 22 40;
#X obj 770 233 fd_markov 38 49 20 39 59 33;
#X obj 841 191 fd_markov 93 2 41 30 30 45;
#X connect 0 0 45 0;
#X connect 1 0 4 0;
#X connect 2 0 4 0;
#X connect 3 0 4 0;
#X connect 4 0 13 0;
#X connect 5 0 13 0;
#X connect 6 0 13 0;
#X connect 7 0 5 0;
#X connect 8 0 5 0;
#X connect 9 0 5 0;
#X connect 10 0 6 0;
#X connect 11 0 6 0;
#X connect 12 0 6 0;
#X connect 13 0 14 0;
#X connect 14 0 17 0;
#X connect 15 0 16 0;
#X connect 16 0 14 1;
#X connect 18 0 21 0;
#X connect 19 0 21 0;
#X connect 20 0 21 0;
#X connect 21 0 30 0;
#X connect 22 0 30 0;
#X connect 23 0 30 0;
#X connect 24 0 22 0;
#X connect 25 0 22 0;
#X connect 26 0 22 0;
#X connect 27 0 23 0;
#X connect 28 0 23 0;
#X connect 29 0 23 0;
#X connect 30 0 14 0;
#X connect 31 0 34 0;
#X connect 32 0 34 0;
#X connect 33 0 34 0;
#X connect 34 0 43 0;
#X connect 35 0 43 0;
#X connect 36 0 43 0;
#X connect 37 0 35 0;
#X connect 38 0 35 0;
#X connect 39 0 35 0;
#X connect 40 0 36 0;
#X connect 41 0 36 0;
#X connect 42 0 36 0;
#X connect 43 0 14 0;
#X connect 44 0 45 1;
#X connect 45 0 46 0;
#X connect 45 1 48 0;
#X connect 45 2 49 0;
#X connect 46 0 53 0;
#X connect 46 1 52 0;
#X connect 46 2 47 0;
#X connect 47 0 10 0;
#X connect 47 1 11 0;
#X connect 47 2 12 0;
#X connect 48 0 54 0;
#X connect 48 1 51 0;
#X connect 48 2 50 0;
#X connect 49 0 55 0;
#X connect 49 1 56 0;
#X connect 49 2 57 0;
#X connect 50 0 27 0;
#X connect 50 1 28 0;
#X connect 50 2 29 0;
#X connect 51 0 24 0;
#X connect 51 1 25 0;
#X connect 51 2 26 0;
#X connect 52 0 7 0;
#X connect 52 1 8 0;
#X connect 52 2 9 0;
#X connect 53 0 1 0;
#X connect 53 1 2 0;
#X connect 53 2 3 0;
#X connect 54 0 18 0;
#X connect 54 1 19 0;
#X connect 54 2 20 0;
#X connect 55 0 31 0;
#X connect 55 1 32 0;
#X connect 55 2 33 0;
#X connect 56 0 37 0;
#X connect 56 1 38 0;
#X connect 56 2 39 0;
#X connect 57 0 40 0;
#X connect 57 1 41 0;
#X connect 57 2 42 0;
