#N canvas 0 22 180 299 10;
#X obj 42 140 ==;
#X obj 62 110 f 0;
#X obj 42 178 sel 1;
#X obj 95 245 f;
#X obj 69 209 t b;
#X obj 35 32 t f f b f, f 13;
#X obj 34 11 inlet;
#X obj 39 265 outlet;
#X obj 95 267 outlet;
#X connect 0 0 2 0;
#X connect 1 0 0 1;
#X connect 2 0 7 0;
#X connect 2 1 4 0;
#X connect 3 0 8 0;
#X connect 4 0 3 0;
#X connect 5 0 1 1;
#X connect 5 1 0 0;
#X connect 5 2 1 0;
#X connect 5 3 3 1;
#X connect 6 0 5 0;
