#N canvas 0 22 513 455 12;
#X obj 201 129 t f f, f 6;
#X obj 201 180 spigot;
#X obj 201 156 sel 1;
#X obj 201 204 del 1;
#X msg 222 235 0;
#X obj 166 160 b;
#X obj 113 215 t b b;
#X obj 113 160 spigot;
#X obj 201 319 t f f;
#X obj 284 393 outlet;
#X obj 77 26 inlet;
#X obj 121 109 t f f;
#X msg 77 109 1;
#X obj 77 80 route bang;
#X obj 295 165 - 1;
#X obj 274 24 inlet;
#X obj 201 264 f;
#X obj 257 266 + 1;
#X obj 201 289 t f f;
#X obj 274 105 sel;
#X obj 257 289 mod 1000;
#X obj 113 185 sel 999;
#X obj 284 339 / 1000;
#X obj 274 79 f \$1;
#X obj 285 50 loadbang;
#X obj 295 135 t f f f, f 8;
#X connect 0 0 2 0;
#X connect 0 1 1 1;
#X connect 1 0 3 0;
#X connect 2 0 1 0;
#X connect 3 0 16 0;
#X connect 4 0 16 1;
#X connect 5 0 1 0;
#X connect 6 0 7 0;
#X connect 6 1 4 0;
#X connect 7 0 5 0;
#X connect 8 0 21 0;
#X connect 8 1 22 0;
#X connect 10 0 13 0;
#X connect 11 0 0 0;
#X connect 11 1 7 1;
#X connect 12 0 0 0;
#X connect 13 0 12 0;
#X connect 13 1 11 0;
#X connect 14 0 21 1;
#X connect 15 0 23 0;
#X connect 16 0 18 0;
#X connect 17 0 20 0;
#X connect 18 0 8 0;
#X connect 18 1 17 0;
#X connect 19 1 25 0;
#X connect 20 0 16 1;
#X connect 21 0 6 0;
#X connect 21 1 5 0;
#X connect 22 0 9 0;
#X connect 23 0 19 0;
#X connect 24 0 23 0;
#X connect 25 0 14 0;
#X connect 25 1 20 1;
#X connect 25 2 22 1;
