#N canvas 0 22 421 405 12;
#X obj 201 82 t f f;
#X obj 201 152 spigot;
#X obj 201 128 sel 1;
#X obj 201 179 del 1;
#X msg 116 212 0;
#X obj 133 132 b;
#X obj 79 187 t b b;
#X obj 79 132 spigot;
#X obj 201 250 t f f;
#X obj 238 348 outlet;
#X obj 77 31 inlet;
#X obj 154 82 t f f;
#X msg 77 80 1;
#X obj 77 56 route bang;
#X obj 268 40 loadbang;
#X obj 268 65 f \$1;
#X obj 268 115 - 1;
#X obj 201 221 counter -m \$1;
#X obj 268 90 t f f;
#X obj 238 281 / \$1;
#X obj 95 157 sel;
#X obj 340 42 inlet;
#X connect 0 0 2 0;
#X connect 0 1 1 1;
#X connect 1 0 3 0;
#X connect 2 0 1 0;
#X connect 3 0 17 0;
#X connect 4 0 17 0;
#X connect 5 0 1 0;
#X connect 6 0 7 0;
#X connect 6 1 4 0;
#X connect 7 0 5 0;
#X connect 8 0 20 0;
#X connect 8 1 19 0;
#X connect 10 0 13 0;
#X connect 11 0 0 0;
#X connect 11 1 7 1;
#X connect 12 0 0 0;
#X connect 13 0 12 0;
#X connect 13 1 11 0;
#X connect 14 0 15 0;
#X connect 15 0 18 0;
#X connect 16 0 20 1;
#X connect 17 0 8 0;
#X connect 18 0 16 0;
#X connect 18 1 19 1;
#X connect 19 0 9 0;
#X connect 20 0 6 0;
#X connect 20 1 5 0;
#X connect 21 0 15 0;
