#N canvas 523 50 555 398 12;
#X declare -lib Gem;
#X obj 100 179 t f f;
#X obj 165 133 sel 1;
#X obj 49 22 inlet;
#X obj 118 126 del;
#X msg 118 151 0;
#X msg 210 132 30;
#N canvas 38 277 584 416 s 0;
#X obj 58 261 f;
#X obj 89 261 + 1;
#X obj 76 206 loadbang;
#X msg 115 236 set \$1;
#X msg 211 197 set \$1;
#X obj 211 224 makefilename;
#X obj 211 140 symbol;
#X obj 211 169 makefilename %s/%%s;
#X obj 58 302 makefilename id-%d.mov;
#X msg 211 250 set \$1-%d.mov;
#X msg 76 234 4;
#X obj 58 50 t b b b;
#X obj 58 17 inlet;
#X obj 58 357 outlet;
#X obj 175 13 inlet;
#X obj 175 40 route filename filepath;
#X obj 175 65 symbol;
#X obj 265 65 symbol;
#X msg 82 81 args;
#X obj 82 105 pdcontrol;
#X obj 82 129 route symbol;
#X obj 136 172 symbol;
#X obj 58 329 t a a;
#X obj 211 340 list prepend filename;
#X obj 211 364 s \$0-printer;
#X obj 434 18 inlet;
#X obj 435 48 symbol;
#X obj 420 184 s \$0-rec;
#X connect 0 0 1 0;
#X connect 0 0 8 0;
#X connect 1 0 0 1;
#X connect 1 0 3 0;
#X connect 2 0 10 0;
#X connect 3 0 10 0;
#X connect 4 0 5 0;
#X connect 5 0 9 0;
#X connect 6 0 7 0;
#X connect 7 0 4 0;
#X connect 8 0 22 0;
#X connect 9 0 8 0;
#X connect 10 0 0 1;
#X connect 11 0 0 0;
#X connect 11 1 18 0;
#X connect 11 2 6 0;
#X connect 12 0 11 0;
#X connect 14 0 15 0;
#X connect 15 0 16 0;
#X connect 15 1 17 0;
#X connect 15 2 27 0;
#X connect 16 0 21 1;
#X connect 17 0 6 1;
#X connect 18 0 19 0;
#X connect 19 0 20 0;
#X connect 20 0 21 0;
#X connect 21 0 5 0;
#X connect 22 0 13 0;
#X connect 22 1 23 0;
#X connect 23 0 24 0;
#X connect 25 0 26 0;
#X connect 26 0 22 0;
#X restore 165 239 pd s filename;
#X obj 165 158 t b b;
#X obj 165 204 spigot 1;
#X obj 322 188 t b a;
#X msg 242 207 0;
#N canvas 0 22 450 300 s 0;
#X obj 45 184 * 60000;
#X obj 63 148 spigot 1;
#X msg 124 120 0;
#X obj 133 27 inlet;
#X obj 45 28 inlet;
#X obj 45 209 outlet;
#X obj 45 66 t f b f;
#X obj 219 116 list prepend length;
#X obj 219 140 s \$0-printer;
#X connect 0 0 5 0;
#X connect 1 0 0 0;
#X connect 2 0 1 1;
#X connect 3 0 1 0;
#X connect 4 0 6 0;
#X connect 6 0 0 0;
#X connect 6 1 2 0;
#X connect 6 2 7 0;
#X connect 7 0 8 0;
#X restore 136 101 pd s length;
#X obj 49 344 outlet;
#N canvas 158 46 479 373 s 0;
#X msg 134 200 auto \$1;
#X msg 244 202 record \$1;
#X obj 39 255 pix_record;
#X obj 177 73 t f f;
#X obj 108 108 pipe 100;
#X obj 177 47 pipe 100;
#X obj 108 132 t f f b;
#X obj 214 258 outlet;
#N canvas 0 22 450 300 s 0;
#X obj 32 65 t a b;
#X obj 32 160 pix_texture;
#X obj 64 91 spigot;
#X obj 109 21 inlet;
#X obj 32 21 inlet;
#X obj 32 192 outlet;
#X obj 189 92 r \$0-dimen;
#X obj 32 121 pix_snap 0 0 \$2 \$3;
#X connect 0 0 7 0;
#X connect 0 1 2 0;
#X connect 1 0 5 0;
#X connect 2 0 7 0;
#X connect 3 0 2 1;
#X connect 4 0 0 0;
#X connect 6 0 7 2;
#X connect 7 0 1 0;
#X restore 39 169 pd s snap;
#X obj 177 22 inlet;
#X obj 39 19 inlet;
#X obj 281 19 inlet;
#X obj 360 259 outlet;
#X obj 39 52 gemhead -100;
#X obj 281 71 list trim;
#X obj 281 47 list prepend file;
#X obj 49 210 r \$0-rec;
#X obj 106 293 list prepend pix_record;
#X obj 106 317 s \$0-printer;
#X obj 72 341 s \$0-frames;
#X connect 0 0 2 0;
#X connect 1 0 2 0;
#X connect 2 1 19 0;
#X connect 2 2 17 0;
#X connect 3 0 4 0;
#X connect 3 1 1 0;
#X connect 3 1 7 0;
#X connect 4 0 6 0;
#X connect 5 0 3 0;
#X connect 6 0 8 1;
#X connect 6 1 0 0;
#X connect 6 1 7 0;
#X connect 6 2 12 0;
#X connect 8 0 2 0;
#X connect 9 0 5 0;
#X connect 10 0 13 0;
#X connect 11 0 15 0;
#X connect 13 0 8 0;
#X connect 14 0 2 0;
#X connect 15 0 14 0;
#X connect 16 0 2 0;
#X connect 17 0 18 0;
#X restore 49 214 pd s pixrecord;
#X obj 49 50 route bang float length dimen, f 30;
#X obj 204 73 s \$0-dimen;
#X text 336 340 see fd_pixrecord-help.pd;
#X text 325 362 this abstraction needs Gem;
#N canvas 0 22 450 300 s 0;
#X obj 189 58 sel 1;
#X obj 119 104 metro 1;
#X obj 119 129 f;
#X obj 152 129 + 1;
#X obj 119 179 sel 0;
#X obj 119 204 f;
#X obj 150 204 + 1;
#X obj 119 229 outlet;
#X obj 119 17 inlet;
#X obj 119 57 t f f;
#X obj 119 154 mod 1000;
#X floatatom 206 184 5 0 0 0 - - -;
#X floatatom 212 153 5 0 0 0 - - -;
#X connect 0 1 2 1;
#X connect 0 1 5 1;
#X connect 1 0 2 0;
#X connect 2 0 3 0;
#X connect 2 0 10 0;
#X connect 3 0 2 1;
#X connect 4 0 5 0;
#X connect 4 1 12 0;
#X connect 5 0 6 0;
#X connect 5 0 7 0;
#X connect 6 0 5 1;
#X connect 6 0 11 0;
#X connect 8 0 9 0;
#X connect 9 0 1 0;
#X connect 9 1 0 0;
#X connect 10 0 4 0;
#X restore 117 301 pd s timer;
#X obj 49 239 t f f;
#X obj 117 345 outlet;
#X obj 392 316 declare -lib Gem;
#N canvas 0 22 627 476 arg-check 0;
#X obj 87 14 loadbang;
#X msg 89 58 args;
#X obj 89 82 pdcontrol;
#X obj 89 106 t a a;
#X obj 133 105 list length;
#X obj 89 132 list prepend;
#X obj 289 215 list split 1;
#X obj 89 156 route 0 1 2 3;
#X obj 329 246 list split 2;
#X obj 45 377 list prepend ignoring extra args ...;
#X obj 431 406 s \$0-dimen;
#X msg 395 376 \$1 \$1;
#X obj 161 218 unpack s f;
#X obj 115 314 s \$0-filename;
#X obj 447 305 unpack f f;
#X obj 456 378 pack f f;
#X obj 110 251 symbol;
#X obj 88 36 t b b;
#X msg 372 63 \; pd-s vis 0;
#X obj 373 323 sel;
#X msg 400 350 500;
#X obj 450 327 sel;
#X obj 112 282 t a b;
#X obj 430 122 r \$0-dimen;
#X obj 30 405 s \$0-printer;
#X obj 430 146 list prepend dimen;
#X obj 430 170 s \$0-printer;
#X msg 30 345 list warning: no arguments found...;
#X connect 0 0 17 0;
#X connect 1 0 2 0;
#X connect 2 0 3 0;
#X connect 3 0 5 0;
#X connect 3 1 4 0;
#X connect 4 0 5 1;
#X connect 5 0 7 0;
#X connect 6 1 8 0;
#X connect 7 0 27 0;
#X connect 7 1 16 0;
#X connect 7 2 12 0;
#X connect 7 3 6 0;
#X connect 7 4 6 0;
#X connect 8 0 14 0;
#X connect 8 1 9 0;
#X connect 9 0 24 0;
#X connect 11 0 10 0;
#X connect 12 0 16 0;
#X connect 12 1 19 0;
#X connect 14 0 21 0;
#X connect 14 1 15 1;
#X connect 15 0 10 0;
#X connect 16 0 22 0;
#X connect 17 0 1 0;
#X connect 17 1 18 0;
#X connect 19 0 20 0;
#X connect 19 1 11 0;
#X connect 20 0 11 0;
#X connect 21 0 20 0;
#X connect 21 1 15 0;
#X connect 22 0 13 0;
#X connect 22 1 20 0;
#X connect 23 0 25 0;
#X connect 25 0 26 0;
#X connect 27 0 24 0;
#X restore 400 107 pd arg-check;
#X obj 338 57 namecanvas fd_pixrecord-\$0;
#N canvas 0 22 450 300 printer 0;
#X obj 55 37 r \$0-printer;
#X obj 54 88 print fd_pixrecord-\$0;
#X obj 54 62 list trim;
#X connect 0 0 2 0;
#X connect 2 0 1 0;
#X restore 400 131 pd printer;
#X floatatom 135 274 5 0 0 0 - - -;
#X obj 238 302 r \$0-frames;
#X obj 238 344 outlet;
#X obj 322 24 inlet;
#X connect 0 0 13 1;
#X connect 0 1 1 0;
#X connect 1 0 7 0;
#X connect 2 0 14 0;
#X connect 3 0 4 0;
#X connect 4 0 0 0;
#X connect 5 0 11 1;
#X connect 6 0 13 2;
#X connect 7 0 8 0;
#X connect 7 1 5 0;
#X connect 8 0 6 0;
#X connect 9 0 10 0;
#X connect 9 1 6 2;
#X connect 10 0 8 1;
#X connect 11 0 3 1;
#X connect 13 0 19 0;
#X connect 13 1 3 0;
#X connect 14 0 13 0;
#X connect 14 1 0 0;
#X connect 14 2 11 0;
#X connect 14 3 15 0;
#X connect 14 4 6 1;
#X connect 18 0 20 0;
#X connect 18 0 25 0;
#X connect 19 0 12 0;
#X connect 19 1 18 0;
#X connect 26 0 27 0;
#X connect 28 0 9 0;
