#N canvas 641 43 555 464 10;
#X declare -stdlib Gem;
#X obj 19 138 t a b;
#X obj 19 290 pix_texture;
#X obj 46 160 spigot;
#X msg 98 365 auto \$1;
#X msg 160 365 record \$1;
#X obj 19 382 pix_record;
#X obj 19 260 pix_flip;
#X msg 190 243 vertical;
#X obj 234 69 t f f;
#X obj 261 162 sel 1;
#X obj 261 279 f;
#X obj 287 279 + 1;
#X obj 276 226 loadbang;
#X msg 308 258 set \$1;
#X obj 234 11 inlet;
#X obj 19 82 gemhead -100;
#X msg 388 239 set \$1;
#X obj 361 269 makefilename;
#X obj 361 159 symbol \$1;
#X obj 388 194 symbol;
#X obj 388 216 makefilename %s/%%s;
#X obj 261 385 print fd_pixrecord;
#X obj 133 106 t f f;
#X obj 79 106 pipe 100;
#X obj 261 321 makefilename id-%d.mov;
#X obj 261 343 list prepend file;
#X obj 261 365 list trim;
#X obj 135 74 pipe 100;
#X msg 361 291 set \$1-%d.mov;
#X obj 19 193 pix_snap 0 0 500 500;
#X obj 445 106 r filename;
#X msg 276 257 1;
#X obj 136 147 r gemwin;
#X obj 136 169 route dimen;
#X obj 445 128 t b a;
#X obj 287 53 r length;
#X obj 290 73 * 60000;
#X obj 288 96 del;
#X msg 298 117 0;
#X msg 310 145 1;
#X obj 79 126 t f f b;
#X obj 361 51 inlet fullpath;
#X obj 429 157 r full-path;
#X obj 20 46 declare -stdlib Gem;
#X obj 361 73 symbol;
#X obj 361 97 t b b a;
#X obj 261 183 t b b b;
#X obj 125 423 outlet;
#X msg 228 139 30;
#X text 175 31 if you dont send a length \, it will stop at 30 min
;
#X connect 0 0 29 0;
#X connect 0 1 2 0;
#X connect 1 0 5 0;
#X connect 2 0 29 0;
#X connect 3 0 5 0;
#X connect 4 0 5 0;
#X connect 6 0 1 0;
#X connect 7 0 6 0;
#X connect 8 0 27 0;
#X connect 8 1 9 0;
#X connect 9 0 46 0;
#X connect 10 0 11 0;
#X connect 10 0 24 0;
#X connect 11 0 10 1;
#X connect 11 0 13 0;
#X connect 12 0 31 0;
#X connect 12 0 7 0;
#X connect 13 0 31 0;
#X connect 14 0 8 0;
#X connect 15 0 0 0;
#X connect 16 0 17 0;
#X connect 17 0 28 0;
#X connect 18 0 17 0;
#X connect 19 0 20 0;
#X connect 20 0 16 0;
#X connect 22 0 23 0;
#X connect 22 1 4 0;
#X connect 22 1 47 0;
#X connect 23 0 40 0;
#X connect 24 0 25 0;
#X connect 25 0 26 0;
#X connect 26 0 21 0;
#X connect 26 0 5 0;
#X connect 27 0 22 0;
#X connect 28 0 24 0;
#X connect 29 0 6 0;
#X connect 30 0 34 0;
#X connect 31 0 10 1;
#X connect 32 0 33 0;
#X connect 33 0 29 2;
#X connect 34 0 39 0;
#X connect 34 1 18 0;
#X connect 35 0 36 0;
#X connect 36 0 37 1;
#X connect 37 0 38 0;
#X connect 38 0 8 0;
#X connect 39 0 8 0;
#X connect 40 0 2 1;
#X connect 40 1 3 0;
#X connect 40 1 47 0;
#X connect 40 2 37 0;
#X connect 41 0 44 0;
#X connect 42 0 19 0;
#X connect 44 0 45 0;
#X connect 45 0 18 0;
#X connect 45 1 19 0;
#X connect 45 2 19 1;
#X connect 46 0 10 0;
#X connect 46 1 18 0;
#X connect 46 2 19 0;
#X connect 46 2 48 0;
#X connect 48 0 36 0;
