#N canvas 563 40 371 255 12;
#X declare -stdlib Gem;
#X obj 185 23 declare -stdlib Gem;
#X obj 29 118 gemwin;
#N canvas 0 22 450 300 controls 0;
#X msg 105 215 reset;
#X obj 57 249 clifford;
#X msg 95 189 inita -1.4 \, initb 1.6 \, initc 1 \, initd 0.7;
#X obj 57 286 unpack;
#X obj 102 391 * 1;
#X obj 57 391 * 1;
#X floatatom 151 151 5 0 0 0 span - -, f 5;
#X obj 102 336 line;
#X obj 57 336 line;
#X obj 57 311 pack;
#X obj 102 311 pack;
#X floatatom 151 128 5 0 0 0 smooth - -, f 5;
#X obj 21 138 gemhead;
#X obj 21 206 t a b;
#X obj 20 429 translateXYZ;
#X obj 20 454 pix_texture;
#X obj 20 479 circle 0.1;
#X obj 224 360 gemhead;
#X obj 224 385 color 1 0 0;
#X obj 224 410 pix_texture;
#X obj 224 435 circle;
#X obj 285 436 loadbang;
#X msg 285 461 draw line;
#X obj 167 371 / 10;
#X obj 155 105 bng 15 250 50 0 empty empty empty 17 7 0 10 -262144
-1 -1;
#X obj 175 105 bng 15 250 50 0 empty empty empty 17 7 0 10 -262144
-1 -1;
#X obj 248 59 loadbang;
#X obj 248 84 random 100;
#X obj 248 109 / 100;
#X obj 248 134 + 1;
#X msg 248 159 initb \$1;
#X connect 0 0 1 0;
#X connect 1 0 3 0;
#X connect 2 0 1 0;
#X connect 3 0 9 0;
#X connect 3 1 10 0;
#X connect 4 0 14 2;
#X connect 5 0 14 1;
#X connect 6 0 5 1;
#X connect 6 0 4 1;
#X connect 6 0 20 1;
#X connect 6 0 23 0;
#X connect 7 0 4 0;
#X connect 8 0 5 0;
#X connect 9 0 8 0;
#X connect 10 0 7 0;
#X connect 11 0 9 1;
#X connect 11 0 10 1;
#X connect 12 0 13 0;
#X connect 13 0 14 0;
#X connect 13 1 1 0;
#X connect 14 0 15 0;
#X connect 15 0 16 0;
#X connect 17 0 18 0;
#X connect 18 0 19 0;
#X connect 19 0 20 0;
#X connect 21 0 22 0;
#X connect 22 0 20 0;
#X connect 23 0 16 1;
#X connect 24 0 0 0;
#X connect 25 0 2 0;
#X connect 26 0 27 0;
#X connect 27 0 28 0;
#X connect 28 0 29 0;
#X connect 29 0 30 0;
#X connect 30 0 1 0;
#X coords 0 -1 1 1 95 70 2 100 100;
#X restore 28 170 pd controls;
#N canvas 0 22 450 300 controls 0;
#X msg 105 215 reset;
#X obj 57 249 clifford;
#X msg 95 189 inita -1.4 \, initb 1.6 \, initc 1 \, initd 0.7;
#X obj 57 286 unpack;
#X obj 102 391 * 1;
#X obj 57 391 * 1;
#X floatatom 151 151 5 0 0 0 span - -, f 5;
#X obj 102 336 line;
#X obj 57 336 line;
#X obj 57 311 pack;
#X obj 102 311 pack;
#X floatatom 151 128 5 0 0 0 smooth - -, f 5;
#X obj 21 138 gemhead;
#X obj 21 206 t a b;
#X obj 20 429 translateXYZ;
#X obj 20 454 pix_texture;
#X obj 20 479 circle 0.1;
#X obj 224 360 gemhead;
#X obj 224 385 color 1 0 0;
#X obj 224 410 pix_texture;
#X obj 224 435 circle;
#X obj 285 436 loadbang;
#X msg 285 461 draw line;
#X obj 167 371 / 10;
#X obj 155 105 bng 15 250 50 0 empty empty empty 17 7 0 10 -262144
-1 -1;
#X obj 175 105 bng 15 250 50 0 empty empty empty 17 7 0 10 -262144
-1 -1;
#X obj 248 59 loadbang;
#X obj 248 84 random 100;
#X obj 248 109 / 100;
#X obj 248 134 + 1;
#X msg 248 159 initb \$1;
#X connect 0 0 1 0;
#X connect 1 0 3 0;
#X connect 2 0 1 0;
#X connect 3 0 9 0;
#X connect 3 1 10 0;
#X connect 4 0 14 2;
#X connect 5 0 14 1;
#X connect 6 0 5 1;
#X connect 6 0 4 1;
#X connect 6 0 20 1;
#X connect 6 0 23 0;
#X connect 7 0 4 0;
#X connect 8 0 5 0;
#X connect 9 0 8 0;
#X connect 10 0 7 0;
#X connect 11 0 9 1;
#X connect 11 0 10 1;
#X connect 12 0 13 0;
#X connect 13 0 14 0;
#X connect 13 1 1 0;
#X connect 14 0 15 0;
#X connect 15 0 16 0;
#X connect 17 0 18 0;
#X connect 18 0 19 0;
#X connect 19 0 20 0;
#X connect 21 0 22 0;
#X connect 22 0 20 0;
#X connect 23 0 16 1;
#X connect 24 0 0 0;
#X connect 25 0 2 0;
#X connect 26 0 27 0;
#X connect 27 0 28 0;
#X connect 28 0 29 0;
#X connect 29 0 30 0;
#X connect 30 0 1 0;
#X coords 0 -1 1 1 95 70 2 100 100;
#X restore 134 169 pd controls;
#N canvas 0 22 450 300 controls 0;
#X msg 105 215 reset;
#X obj 57 249 clifford;
#X msg 95 189 inita -1.4 \, initb 1.6 \, initc 1 \, initd 0.7;
#X obj 57 286 unpack;
#X obj 102 391 * 1;
#X obj 57 391 * 1;
#X floatatom 151 151 5 0 0 0 span - -, f 5;
#X obj 102 336 line;
#X obj 57 336 line;
#X obj 57 311 pack;
#X obj 102 311 pack;
#X floatatom 151 128 5 0 0 0 smooth - -, f 5;
#X obj 21 138 gemhead;
#X obj 21 206 t a b;
#X obj 20 429 translateXYZ;
#X obj 20 454 pix_texture;
#X obj 20 479 circle 0.1;
#X obj 224 360 gemhead;
#X obj 224 385 color 1 0 0;
#X obj 224 410 pix_texture;
#X obj 224 435 circle;
#X obj 285 436 loadbang;
#X msg 285 461 draw line;
#X obj 167 371 / 10;
#X obj 155 105 bng 15 250 50 0 empty empty empty 17 7 0 10 -262144
-1 -1;
#X obj 175 105 bng 15 250 50 0 empty empty empty 17 7 0 10 -262144
-1 -1;
#X obj 248 59 loadbang;
#X obj 248 84 random 100;
#X obj 248 109 / 100;
#X obj 248 134 + 1;
#X msg 248 159 initb \$1;
#X connect 0 0 1 0;
#X connect 1 0 3 0;
#X connect 2 0 1 0;
#X connect 3 0 9 0;
#X connect 3 1 10 0;
#X connect 4 0 14 2;
#X connect 5 0 14 1;
#X connect 6 0 5 1;
#X connect 6 0 4 1;
#X connect 6 0 20 1;
#X connect 6 0 23 0;
#X connect 7 0 4 0;
#X connect 8 0 5 0;
#X connect 9 0 8 0;
#X connect 10 0 7 0;
#X connect 11 0 9 1;
#X connect 11 0 10 1;
#X connect 12 0 13 0;
#X connect 13 0 14 0;
#X connect 13 1 1 0;
#X connect 14 0 15 0;
#X connect 15 0 16 0;
#X connect 17 0 18 0;
#X connect 18 0 19 0;
#X connect 19 0 20 0;
#X connect 21 0 22 0;
#X connect 22 0 20 0;
#X connect 23 0 16 1;
#X connect 24 0 0 0;
#X connect 25 0 2 0;
#X connect 26 0 27 0;
#X connect 27 0 28 0;
#X connect 28 0 29 0;
#X connect 29 0 30 0;
#X connect 30 0 1 0;
#X coords 0 -1 1 1 95 70 2 100 100;
#X restore 245 168 pd controls;
#X msg 29 63 dimen 400 400 \, FSAA 4 \, create \, 1;
#X msg 40 88 0 \, destroy \,;
#X text 20 19 Clifford in Gem;
#X text 41 147 comment;
#X connect 5 0 1 0;
#X connect 6 0 1 0;
