#N struct 1025-xyz_plotter float x float y float z float rgb;
#N canvas 672 66 556 711 10;
#X obj 54 25 tgl 15 0 empty empty empty 17 7 0 10 -262144 -1 -1 0 1
;
#X obj 54 47 metro 1;
#X obj 54 101 unpack;
#X obj 46 130 fd_norm;
#X obj 90 127 fd_norm;
#X msg 112 59 reset;
#X obj 54 79 clifford;
#X msg 120 93 flush;
#X floatatom 201 117 5 0 0 0 - - -, f 5;
#X floatatom 95 22 5 0 0 0 - - -, f 5;
#X msg 144 20 tempo 1 samp;
#X obj 327 30 gemset;
#X obj 23 222 gemhead;
#X obj 23 274 translateXYZ 0 0 0;
#X obj 23 296 circle 0.1;
#X obj 53 159 * 1;
#X obj 90 163 * 1;
#X floatatom 136 242 5 0 0 0 - - -, f 5;
#X msg 201 158 inita -1.4 \, initb 1.6 \, initc 1 \, initd 0.7;
#X obj 53 181 pack f 100;
#X obj 102 206 pack f 100;
#X obj 64 250 line;
#X obj 94 245 line;
#X floatatom 215 187 5 0 0 0 - - -, f 5;
#X obj 237 70 loadbang;
#X msg 237 92 2;
#X msg 260 114 440;
#X obj 269 250 *;
#X obj 297 252 *;
#X obj 269 272 +;
#X obj 269 294 sqrt;
#X obj 269 357 pack f 100;
#X obj 269 379 line;
#X obj 269 316 fd_norm;
#X obj 269 338 * 1;
#X floatatom 371 271 5 0 0 0 - - -, f 5;
#X obj -10 249 color 1 1 1;
#X obj 131 505 list prepend 0 0;
#X obj 131 527 list trim;
#X msg 314 93 initd -0.9;
#X msg 138 473 1;
#X obj 371 290 / 1000;
#X obj 250 511 xyz_plot2 cliff;
#X msg 5 29 100;
#X obj 5 51 until;
#X floatatom 346 388 5 0 0 0 - - -, f 5;
#X floatatom 419 434 5 0 0 0 - - -, f 5;
#X obj 391 338 * 9;
#X obj 189 397 * 0.5;
#X floatatom 208 319 5 0 0 0 - - -, f 5;
#X obj 230 421 +;
#X floatatom 136 395 5 0 0 0 - - -, f 5;
#X obj 230 453 pack f f 0.01;
#X obj 249 486 list append;
#X obj 391 360 int;
#X msg 419 453 1\$1\$1;
#X obj 189 419 + 0.5;
#X obj 29 511 loadbang;
#X obj 38 559 tgl 15 0 empty empty empty 17 7 0 10 -262144 -1 -1 0
1;
#X msg 29 593 \; xyz_plot autoclear \$1 \;;
#X msg 29 533 0;
#X obj 230 399 * -0.5;
#X msg 374 241 100;
#X obj 208 338 * -1;
#X connect 0 0 1 0;
#X connect 1 0 6 0;
#X connect 2 0 15 0;
#X connect 2 1 16 0;
#X connect 3 0 15 0;
#X connect 4 0 16 0;
#X connect 5 0 6 0;
#X connect 6 0 2 0;
#X connect 7 0 3 0;
#X connect 7 0 4 0;
#X connect 8 0 15 1;
#X connect 8 0 16 1;
#X connect 9 0 1 1;
#X connect 10 0 1 0;
#X connect 12 0 36 0;
#X connect 13 0 14 0;
#X connect 15 0 19 0;
#X connect 15 0 27 0;
#X connect 15 0 27 1;
#X connect 16 0 20 0;
#X connect 16 0 28 0;
#X connect 16 0 28 1;
#X connect 17 0 14 1;
#X connect 18 0 6 0;
#X connect 19 0 21 0;
#X connect 20 0 22 0;
#X connect 21 0 13 1;
#X connect 21 0 48 0;
#X connect 22 0 13 2;
#X connect 22 0 61 0;
#X connect 23 0 19 1;
#X connect 23 0 20 1;
#X connect 23 0 9 0;
#X connect 23 0 31 1;
#X connect 24 0 25 0;
#X connect 24 0 26 0;
#X connect 24 0 18 0;
#X connect 24 0 62 0;
#X connect 24 0 43 0;
#X connect 25 0 8 0;
#X connect 26 0 23 0;
#X connect 27 0 29 0;
#X connect 28 0 29 1;
#X connect 29 0 30 0;
#X connect 30 0 33 0;
#X connect 31 0 32 0;
#X connect 32 0 14 1;
#X connect 33 0 34 0;
#X connect 33 0 47 0;
#X connect 34 0 31 0;
#X connect 35 0 41 0;
#X connect 36 0 13 0;
#X connect 37 0 38 0;
#X connect 38 0 36 1;
#X connect 39 0 6 0;
#X connect 40 0 37 0;
#X connect 41 0 34 1;
#X connect 41 0 49 0;
#X connect 43 0 44 0;
#X connect 44 0 6 0;
#X connect 45 0 52 2;
#X connect 46 0 55 0;
#X connect 47 0 54 0;
#X connect 48 0 56 0;
#X connect 49 0 48 1;
#X connect 49 0 63 0;
#X connect 50 0 52 1;
#X connect 51 0 56 1;
#X connect 52 0 53 0;
#X connect 53 0 42 0;
#X connect 54 0 46 0;
#X connect 55 0 53 1;
#X connect 56 0 52 0;
#X connect 57 0 60 0;
#X connect 58 0 59 0;
#X connect 60 0 58 0;
#X connect 61 0 50 0;
#X connect 62 0 35 0;
#X connect 63 0 61 1;
