#N canvas 569 76 345 383 12;
#X obj 198 17 inlet;
#X obj 29 180 pix_dump;
#X msg 29 295 0;
#X obj 29 75 t a b;
#X obj 66 108 spigot 1;
#X msg 115 133 0;
#X obj 29 236 spigot 1;
#X obj 29 261 t b b;
#X msg 77 262 0;
#X obj 29 18 inlet;
#X obj 138 336 outlet;
#X msg 198 67 1;
#X obj 198 148 t f f;
#X obj 66 133 t b b;
#X obj 29 207 t b b a, f 14;
#X msg 101 236 1;
#X obj 29 336 outlet;
#X obj 221 332 outlet;
#X obj 198 42 b;
#X connect 0 0 18 0;
#X connect 1 0 14 0;
#X connect 1 1 17 0;
#X connect 2 0 16 0;
#X connect 3 0 1 0;
#X connect 3 1 4 0;
#X connect 4 0 13 0;
#X connect 5 0 4 1;
#X connect 6 0 7 0;
#X connect 7 0 2 0;
#X connect 7 1 8 0;
#X connect 8 0 6 1;
#X connect 9 0 3 0;
#X connect 11 0 12 0;
#X connect 12 0 4 1;
#X connect 12 1 16 0;
#X connect 13 0 1 0;
#X connect 13 1 5 0;
#X connect 14 0 6 0;
#X connect 14 1 15 0;
#X connect 14 2 10 0;
#X connect 15 0 6 1;
#X connect 18 0 11 0;
