#N canvas 0 23 450 300 12;
#X obj 121 183 outlet;
#X obj 121 127 t b b;
#X msg 191 112 0;
#X obj 121 23 inlet;
#X msg 121 68 1;
#X obj 121 100 gemhead;
#X connect 1 0 0 0;
#X connect 1 1 2 0;
#X connect 2 0 5 0;
#X connect 3 0 4 0;
#X connect 4 0 5 0;
#X connect 5 0 1 0;
