#N canvas 496 167 784 562 12;
#X obj 73 109 samplerate~;
#X msg 114 131 0;
#X obj 108 12 inlet;
#X msg 343 83 resize \$1;
#X msg 223 195 set \$1;
#X obj 357 239 array define \$1 \$2;
#X obj 73 131 / \$2;
#X obj 72 332 tabsend~ \$1;
#X obj 230 253 switch~ \$2;
#X obj 73 153 phasor~;
#X obj 73 202 abs~;
#X text 283 19 see fd_windows.pd;
#X obj 230 85 del 1 1 samp;
#X obj 73 246 +~ 1;
#X obj 73 224 *~ -2;
#X obj 73 178 -~ 0.5;
#X obj 73 271 clip~ 0 1;
#X obj 144 203 * -2;
#X msg 151 146 1 \$1;
#X obj 151 171 /;
#X obj 329 293 fd_smooth_brute \$1;
#X obj 56 21 bng 15 250 50 0 empty empty empty 17 7 0 10 -262144 -1
-1;
#X obj 74 301 lop~ 512;
#X msg 367 193 normalize 1;
#X obj 303 154 t b b;
#X obj 134 44 route bang float q;
#X connect 0 0 6 0;
#X connect 1 0 9 1;
#X connect 2 0 25 0;
#X connect 3 0 5 0;
#X connect 4 0 8 0;
#X connect 6 0 9 0;
#X connect 9 0 15 0;
#X connect 10 0 14 0;
#X connect 12 0 24 0;
#X connect 13 0 16 0;
#X connect 14 0 13 0;
#X connect 15 0 10 0;
#X connect 16 0 22 0;
#X connect 17 0 14 1;
#X connect 18 0 19 0;
#X connect 19 0 17 0;
#X connect 21 0 25 0;
#X connect 22 0 7 0;
#X connect 23 0 5 0;
#X connect 24 0 20 0;
#X connect 24 1 23 0;
#X connect 25 0 0 0;
#X connect 25 0 8 0;
#X connect 25 0 1 0;
#X connect 25 0 12 0;
#X connect 25 1 3 0;
#X connect 25 1 4 0;
#X connect 25 1 6 1;
#X connect 25 1 12 1;
#X connect 25 2 18 0;
#X connect 25 3 5 0;
