#N canvas 512 50 530 480 12;
#X declare -path fd_lib;
#X obj 4 4 cnv 15 522 30 empty empty "fd_cauchy~" 20 15 0 15 -228856
-1 0;
#X obj 4 254 cnv 15 522 20 empty empty arguments: 10 10 0 14 -228856
-1 0;
#X obj 4 309 cnv 15 522 20 empty empty inlets: 10 10 0 14 -228856 -1
0;
#X obj 4 403 cnv 15 522 20 empty empty outlets: 10 10 0 14 -228856
-1 0;
#X obj 4 453 cnv 15 522 20 empty empty version 10 10 0 14 -228856 -1
0;
#X obj 380 8 declare -path fd_lib;
#X text 440 452 fd_lib v0.1;
#X obj 38 88 bng 15 250 50 0 empty empty empty 17 7 0 10 -262144 -1
-1;
#X msg 403 50 \; pd dsp 1;
#X text 212 7 used in [fd_windows];
#X obj 87 184 fd_cauchy~ cauchy-tilde 128, f 28;
#X text 20 45 Same as [fd_cauchy] \, but stored via dsp into array
;
#X msg 114 150 q \$1 \, bang;
#X floatatom 114 126 5 0 0 0 - - -;
#X text 60 423 no outlets;
#X text 61 272 1: symbol : array-name \; 2: float : array-size;
#X text 62 328 1: bang : load table (DSP must be on) \; 1: float :
new array size \; 1: q : power coefficient for arcsin anything \; 1:
all other messages are routed to [array];
#X msg 87 100 open;
#X text 194 79 t(PI(t^2+x^2)^-1;
#N canvas 0 22 450 300 meta 0;
#X text 10 10 fd_lib - metadata file - Fri Sep 13 18:18:27 EDT 2019
;
#X text 10 25 patch_name : fd_cauchy~;
#X text 10 40 inlet : 1;
#X text 10 55 outlet : 0;
#X text 10 70 inlet~ : 0;
#X text 10 85 outlet~ : 0;
#X text 10 100 arguments : 2;
#X text 10 115 classes used : 20;
#X text 10 130 total objects: 29;
#X text 10 145 connections : 43;
#X text 10 160 dependencies : 0 [0];
#X text 10 175 externals : 2 [0switch~:fd_smooth_brute];
#X text 10 190 internals : 18/233 [0t:*~:route:inlet:array:tabsend~:samplerate~:pow~:phasor~:outlet:lop~:f:del:abs~:*:/:-:+~]
;
#X restore 438 423 pd meta;
#X connect 7 0 10 0;
#X connect 12 0 10 0;
#X connect 13 0 12 0;
#X connect 17 0 10 0;
