#N canvas 575 85 705 634 12;
#X obj 73 109 samplerate~;
#X msg 114 131 0;
#X obj 108 12 inlet;
#X msg 373 119 resize \$1;
#X msg 223 195 set \$1;
#X obj 373 295 array define \$1 \$2;
#X obj 73 131 / \$2;
#X obj 75 407 tabsend~ \$1;
#X obj 230 253 switch~ \$2;
#X obj 73 153 phasor~;
#X text 283 19 see fd_windows.pd;
#X obj 225 123 del 1 1 samp;
#X obj 73 178 *~;
#X obj 162 222 *;
#X obj 73 228 *~ 3.14159;
#X obj 73 280 pow~ -1;
#X obj 73 253 abs~;
#X obj 73 203 +~ 0.125;
#X obj 73 302 *~ 0.25;
#X text 208 315 cauchy:;
#X text 226 338 t(PI(t^2+x^2)^-1;
#X text 224 362 see fd_cauchy.pd;
#X obj 385 344 fd_smooth_brute \$1;
#X obj 39 15 bng 15 250 50 0 empty empty empty 17 7 0 10 -262144 -1
-1;
#X floatatom 470 41 5 0 0 0 - - -;
#X msg 470 64 q \$1 \, bang;
#X obj 291 165 t b b;
#X obj 160 193 t f f f;
#X obj 129 37 route bang float q;
#X obj 74 354 lop~ 512;
#X msg 401 253 0 0 \, \$1 0 \, normalize 1;
#X obj 413 197 f;
#X obj 303 79 t f f;
#X obj 428 154 - 1;
#X connect 0 0 6 0;
#X connect 1 0 9 1;
#X connect 2 0 28 0;
#X connect 3 0 5 0;
#X connect 4 0 8 0;
#X connect 6 0 9 0;
#X connect 9 0 12 0;
#X connect 9 0 12 1;
#X connect 11 0 26 0;
#X connect 12 0 17 0;
#X connect 13 0 17 1;
#X connect 14 0 16 0;
#X connect 15 0 18 0;
#X connect 16 0 15 0;
#X connect 17 0 14 0;
#X connect 18 0 29 0;
#X connect 23 0 28 0;
#X connect 24 0 25 0;
#X connect 25 0 28 0;
#X connect 26 0 22 0;
#X connect 26 1 31 0;
#X connect 27 0 13 0;
#X connect 27 1 13 1;
#X connect 27 2 18 1;
#X connect 28 0 0 0;
#X connect 28 0 8 0;
#X connect 28 0 1 0;
#X connect 28 0 11 0;
#X connect 28 1 3 0;
#X connect 28 1 4 0;
#X connect 28 1 6 1;
#X connect 28 1 32 0;
#X connect 28 2 27 0;
#X connect 28 3 5 0;
#X connect 29 0 7 0;
#X connect 30 0 5 0;
#X connect 31 0 30 0;
#X connect 32 0 11 1;
#X connect 32 1 33 0;
#X connect 33 0 31 1;
