#N canvas 58 38 445 458 12;
#X obj 45 23 tgl 15 0 empty empty empty 17 7 0 10 -262144 -1 -1 0 1
;
#X msg 69 131 reset;
#X obj 45 168 clifford;
#X floatatom 141 19 5 0 0 0 - - -, f 5;
#X obj 45 205 unpack;
#X floatatom 167 293 5 0 0 0 - - -, f 5;
#N canvas 505 40 540 457 here 1;
#X obj 264 218 fd_plot 2;
#X restore 230 211 pd here;
#X msg 231 245 \; pd-here vis 1 \; pd-2-graph clear \; pd-here map
0 \, map 1;
#X obj 130 255 line;
#X obj 45 255 line;
#X floatatom 181 193 5 0 0 0 - - -, f 5;
#X msg 70 101 a -1.4 \, b 1.6 \, c 1 \, d 0.7;
#X obj 45 385 s fd_plot-2;
#X msg 45 360 append \$1 \$2 \$3 \$4;
#X obj 45 335 pack f f 7 0;
#X obj 45 63 metro 10;
#X obj 45 230 pack f 10;
#X obj 130 230 pack f 10;
#X obj 45 310 * 100;
#X obj 90 310 * 100;
#X connect 0 0 15 0;
#X connect 1 0 2 0;
#X connect 2 0 4 0;
#X connect 3 0 10 0;
#X connect 3 0 15 1;
#X connect 4 0 16 0;
#X connect 4 1 17 0;
#X connect 5 0 18 1;
#X connect 5 0 19 1;
#X connect 8 0 19 0;
#X connect 9 0 18 0;
#X connect 10 0 16 1;
#X connect 10 0 17 1;
#X connect 11 0 2 0;
#X connect 13 0 12 0;
#X connect 14 0 13 0;
#X connect 15 0 2 0;
#X connect 16 0 9 0;
#X connect 17 0 8 0;
#X connect 18 0 14 0;
#X connect 19 0 14 1;
