#N canvas 500 50 530 480 12;
#X declare -path fd_lib;
#X obj 4 4 cnv 15 522 30 empty empty "fd_GEMbuffsize" 20 15 0 15 -228856
-1 0;
#X obj 4 254 cnv 15 522 20 empty empty arguments: 10 10 0 14 -228856
-1 0;
#X obj 4 314 cnv 15 522 20 empty empty inlets: 10 10 0 14 -228856 -1
0;
#X obj 4 374 cnv 15 522 20 empty empty outlets: 10 10 0 14 -228856
-1 0;
#X obj 4 453 cnv 15 522 20 empty empty version 10 10 0 14 -228856 -1
0;
#X obj 380 8 declare -path fd_lib;
#X text 60 340 anything;
#X obj 176 153 fd_GEMbuffsize 128;
#X msg 176 207 gemvertexbuffer;
#X msg 176 100 gemlist;
#X text 24 61 Helps get a good size to gemvertexbuffer.;
#X text 59 409 [gemlist] - connect [gemvertexbuffer] to this outlet
;
#X text 61 285 \$1 == SIZE of the gembvertexbuffer. Sizes 2^n work
better;
#X text 440 452 fd_lib v0.1;
#N canvas 0 22 450 300 meta 0;
#X text 10 10 fd_lib - metadata file - Fri Sep 13 18:17:27 EDT 2019
;
#X text 10 25 patch_name : fd_GEMbuffsize;
#X text 10 40 inlet : 2;
#X text 10 55 outlet : 1;
#X text 10 70 inlet~ : 0;
#X text 10 85 outlet~ : 0;
#X text 10 100 arguments : 1;
#X text 10 115 classes used : 6;
#X text 10 130 total objects: 8;
#X text 10 145 connections : 11;
#X text 10 160 dependencies : 0 [0];
#X text 10 175 externals : 0 [0];
#X text 10 190 internals : 6/233 [0t:inlet:spigot:outlet:f:change]
;
#X restore 438 423 pd meta;
#X connect 7 0 8 0;
#X connect 9 0 7 0;
