#N canvas 579 47 675 607 12;
#X obj 138 21 inlet~;
#X obj 138 108 expr~ tan($v1);
#X obj 138 46 clip~ 0 1;
#X obj 246 48 sig~ 0.667;
#X obj 246 73 *~ 1.5708;
#X obj 138 166 *~;
#X obj 90 215 -~;
#X obj 90 166 sig~ 1;
#X obj 120 300 /~;
#X obj 138 266 +~ 1;
#X obj 173 166 *~;
#X obj 173 213 *~ 2;
#X obj 211 166 *~;
#X obj 211 213 *~ 2;
#X obj 246 108 expr~ cos($v1);
#X obj 354 108 expr~ sin($v1);
#X obj 160 300 /~;
#X obj 533 481 *~ -1;
#X obj 250 166 *~;
#X obj 250 213 *~ 2;
#X obj 250 266 +~ 1;
#X obj 224 300 /~;
#X obj 23 490 abs~;
#X obj 79 411 -~;
#X obj 24 350 sig~ 1;
#X obj 24 375 -~;
#X obj 75 377 *~ 2;
#X obj 75 349 sig~;
#X obj 23 515 outlet~ norm1;
#X obj 120 454 -~;
#X obj 120 479 *~;
#X obj 120 515 outlet~ norm2;
#X obj 160 480 *~;
#X obj 224 515 outlet~ real1;
#X obj 323 515 outlet~ real2;
#X obj 423 515 outlet~ imag2a;
#X obj 533 515 outlet~ imag2b;
#X obj 465 108 expr~ cos($v1);
#X obj 138 71 *~ 1.5708;
#X obj 586 181 inlet;
#X obj 465 72 inlet~;
#X connect 0 0 2 0;
#X connect 1 0 5 0;
#X connect 1 0 5 1;
#X connect 1 0 10 0;
#X connect 1 0 12 0;
#X connect 1 0 18 0;
#X connect 2 0 38 0;
#X connect 3 0 4 0;
#X connect 4 0 14 0;
#X connect 4 0 15 0;
#X connect 5 0 6 1;
#X connect 5 0 9 0;
#X connect 5 0 20 0;
#X connect 6 0 8 0;
#X connect 6 0 21 0;
#X connect 7 0 6 0;
#X connect 8 0 29 0;
#X connect 8 0 34 0;
#X connect 9 0 8 1;
#X connect 9 0 16 1;
#X connect 10 0 11 0;
#X connect 11 0 9 0;
#X connect 12 0 13 0;
#X connect 13 0 16 0;
#X connect 14 0 10 1;
#X connect 15 0 12 1;
#X connect 16 0 17 0;
#X connect 16 0 32 0;
#X connect 16 0 32 1;
#X connect 16 0 35 0;
#X connect 17 0 36 0;
#X connect 18 0 19 0;
#X connect 19 0 20 0;
#X connect 20 0 21 1;
#X connect 21 0 23 1;
#X connect 21 0 33 0;
#X connect 22 0 28 0;
#X connect 23 0 22 0;
#X connect 23 0 29 1;
#X connect 24 0 25 0;
#X connect 25 0 23 0;
#X connect 26 0 25 1;
#X connect 27 0 26 0;
#X connect 29 0 30 0;
#X connect 29 0 30 1;
#X connect 30 0 31 0;
#X connect 32 0 31 0;
#X connect 37 0 18 1;
#X connect 38 0 1 0;
#X connect 39 0 27 0;
#X connect 40 0 37 0;
