#N canvas 248 32 757 702 12;
#X obj 152 346 rpole~;
#X obj 151 412 cpole~;
#X obj 175 443 cpole~;
#X obj 151 384 *~;
#X msg 268 283 clear;
#X obj 356 339 rzero~;
#X obj 356 390 czero~;
#X obj 381 416 czero~;
#X obj 356 368 /~;
#X obj 76 290 *~;
#X obj 356 317 /~;
#X obj 45 48 inlet~;
#X obj 700 61 inlet;
#X obj 378 476 outlet~;
#X text 45 27 audio;
#X text 702 38 clear;
#X obj 173 223 _butter;
#X obj 531 267 tgl 15 0 empty empty empty 17 7 0 10 -262144 -1 -1 0
1;
#X obj 421 255 _butter;
#X obj 410 79 line~;
#X obj 378 121 line~;
#X obj 329 53 bng 15 250 50 0 empty empty empty 17 7 0 10 -262144 -1
-1;
#X obj 274 205 /~ 22050;
#X obj 700 86 t b b;
#X obj 509 145 f;
#X floatatom 554 35 5 0 0 0 - - -, f 5;
#X obj 554 57 t b f;
#X obj 554 82 samplerate~;
#X obj 554 107 *;
#X obj 421 197 /~ 22050;
#X floatatom 489 68 5 0 0 0 - - -, f 5;
#X msg 389 35 0 \, \$1 123;
#X connect 0 0 3 0;
#X connect 1 0 2 0;
#X connect 1 1 2 1;
#X connect 2 0 10 0;
#X connect 3 0 1 0;
#X connect 4 0 0 0;
#X connect 4 0 1 0;
#X connect 4 0 2 0;
#X connect 4 0 5 0;
#X connect 4 0 6 0;
#X connect 4 0 7 0;
#X connect 5 0 8 0;
#X connect 6 0 7 0;
#X connect 6 1 7 1;
#X connect 7 0 13 0;
#X connect 8 0 6 0;
#X connect 9 0 0 0;
#X connect 10 0 5 0;
#X connect 11 0 9 0;
#X connect 12 0 23 0;
#X connect 16 0 9 1;
#X connect 16 1 3 1;
#X connect 16 2 0 1;
#X connect 16 3 1 2;
#X connect 16 3 2 2;
#X connect 16 4 1 3;
#X connect 16 5 2 3;
#X connect 17 0 16 2;
#X connect 17 0 18 2;
#X connect 18 0 10 1;
#X connect 18 1 8 1;
#X connect 18 2 5 1;
#X connect 18 3 6 2;
#X connect 18 3 7 2;
#X connect 18 4 6 3;
#X connect 18 5 7 3;
#X connect 20 0 22 0;
#X connect 20 0 29 0;
#X connect 22 0 16 0;
#X connect 23 0 24 0;
#X connect 23 1 4 0;
#X connect 24 0 31 0;
#X connect 25 0 26 0;
#X connect 26 0 27 0;
#X connect 26 1 28 1;
#X connect 27 0 28 0;
#X connect 28 0 24 1;
#X connect 29 0 18 0;
#X connect 30 0 24 1;
#X connect 31 0 20 0;
