#N canvas 500 50 530 480 12;
#X declare -path fd_lib;
#X obj 4 4 cnv 15 522 30 empty empty "fd_butterworth" 20 15 0 15 -228856
-1 0;
#X obj 4 254 cnv 15 522 20 empty empty arguments: 10 10 0 14 -228856
-1 0;
#X obj 4 314 cnv 15 522 20 empty empty inlets: 10 10 0 14 -228856 -1
0;
#X obj 4 374 cnv 15 522 20 empty empty outlets: 10 10 0 14 -228856
-1 0;
#X obj 4 453 cnv 15 522 20 empty empty version 10 10 0 14 -228856 -1
0;
#X obj 380 8 declare -path fd_lib;
#X text 440 452 fd_lib v0.1;
#X text 60 284 no arguments;
#X text 60 340 anything;
#X text 60 410 no outlets;
#X obj 57 194 env~;
#X floatatom 57 219 5 0 0 0 - - -;
#X obj 98 194 env~;
#X floatatom 98 219 5 0 0 0 - - -;
#X floatatom 300 168 5 0 1000 0 - - -;
#X obj 263 137 bng 15 250 50 0 empty empty empty 17 7 0 10 -262144
-1 -1;
#X obj 57 43 tgl 15 0 empty empty empty 17 7 0 10 -262144 -1 -1 0 1
;
#X obj 57 69 metro 100;
#X obj 57 143 vline~;
#X floatatom 117 45 5 0 0 0 - - -;
#X msg 57 118 1 \, 0 0 1;
#X obj 57 94 t b b;
#N canvas 0 22 450 300 explanation 0;
#X text 13 17 3-pole \, 3-zero butterworth lp/hp/shelving filter. Args:
lp freq \, hp freq \, normalize-hi. Inlets: input signal \, lo freq
\, hi freq \, hi norm \, reset.;
#X text 15 103 For high-pass: set LP freq =0 and hi/lo to 1;
#X text 16 79 For low-pass: set HP freq >= SR/2 and hi/lo to 0;
#X text 14 134 Shelving: HP and LP specify shelving band. Gain difference
is about HP/LP cubed (so HP=2LP should give about 18 dB \, for example.)
;
#X text 41 210 lp freq;
#X text 87 227 hp freq;
#X text 199 208 hi/lo norm;
#X text 103 251 clear;
#X obj 207 246 tgl 15 0 empty empty empty 17 7 0 10 -262144 -1 -1 0
1;
#X text 236 232 1 to normalize at Nyquist;
#X text 237 248 0 to normalize at DC;
#X restore 398 213 pd explanation;
#X msg 409 59 \; pd dsp 1;
#X msg 410 102 \; pd dsp 0;
#X text 285 149 WARNING LOUD VOLUME!!!!;
#X obj 98 168 fd_butterworth 440 22050;
#X floatatom 227 64 5 0 0 0 - - -;
#X obj 227 89 t b f;
#X obj 192 118 pack;
#X floatatom 181 65 5 0 0 0 - - -;
#N canvas 0 22 450 300 dac 0;
#X obj 80 240 dac~;
#X obj 80 215 *~;
#X obj 173 132 / 1000;
#X obj 76 120 clip~ -1 1;
#X obj 77 144 hip~ 5;
#X obj 78 179 lop~ 20;
#X obj 169 157 pack f 10;
#X obj 171 184 line~;
#X obj 83 46 inlet~;
#X obj 237 39 inlet;
#X connect 1 0 0 0;
#X connect 1 0 0 1;
#X connect 2 0 6 0;
#X connect 3 0 4 0;
#X connect 4 0 5 0;
#X connect 5 0 1 0;
#X connect 6 0 7 0;
#X connect 7 0 1 1;
#X connect 8 0 3 0;
#X connect 9 0 2 0;
#X restore 262 208 pd dac;
#N canvas 0 22 450 300 meta 0;
#X text 10 10 fd_lib - metadata file - Fri Sep 13 18:18:24 EDT 2019
;
#X text 10 25 patch_name : fd_butterworth;
#X text 10 40 inlet : 3;
#X text 10 55 outlet : 1;
#X text 10 70 inlet~ : 1;
#X text 10 85 outlet~ : 1;
#X text 10 100 arguments : 2;
#X text 10 115 classes used : 18;
#X text 10 130 total objects: 26;
#X text 10 145 connections : 52;
#X text 10 160 dependencies : 0 [0];
#X text 10 175 externals : 1 [0_butter];
#X text 10 190 internals : 17/233 [0/~:t:inlet:czero~:cpole~:*~:unpack:tgl:samplerate~:rzero~:rpole~:outlet~:loadbang:line~:inlet~:f:*]
;
#X restore 438 423 pd meta;
#X connect 10 0 11 0;
#X connect 12 0 13 0;
#X connect 14 0 31 1;
#X connect 15 0 26 2;
#X connect 16 0 17 0;
#X connect 17 0 21 0;
#X connect 18 0 10 0;
#X connect 18 0 26 0;
#X connect 19 0 17 1;
#X connect 20 0 18 0;
#X connect 21 0 20 0;
#X connect 21 1 26 2;
#X connect 26 0 12 0;
#X connect 26 0 31 0;
#X connect 27 0 28 0;
#X connect 28 0 29 0;
#X connect 28 1 29 1;
#X connect 29 0 26 1;
#X connect 30 0 29 0;
