#N canvas 525 52 536 395 12;
#X declare -lib timid2json;
#X obj 50 189 timid2json;
#X obj 50 257 print;
#X obj 341 25 declare -lib timid2json;
#X text 117 26 "timid2json";
#X text 43 60 convert timid to json files;
#X msg 115 140 list one two threee;
#X obj 25 106 tgl 15 0 empty empty empty 17 7 0 10 -262144 -1 -1 1
1;
#X connect 0 0 1 0;
#X connect 5 0 0 0;
#X connect 6 0 0 0;
#X obj 372 15 declare -path fd_lib;
#X text 436 365 fd_lib v0.1;
