#N canvas 544 86 654 658 12;
#X obj 105 105 tgl 15 0 \$0-fd-0 \$0-fd-0-r empty 17 7 0 10 -25360
-25360 -25360 0 1;
#X obj 123 195 bng 15 250 50 0 \$0-fd-b-\$1 \$0-fd-b-\$1-r empty 17
7 0 10 -40953 -1 -40953;
#X obj 141 195 bng 15 250 50 0 \$0-fd-b-\$2 \$0-fd-b-\$2-r empty 17
7 0 10 -39336 -1 -39336;
#X obj 123 177 bng 15 250 50 0 \$0-fd-b-\$1 \$0-fd-b-\$1-r empty 17
7 0 10 -40953 -1 -40953;
#X obj 141 177 bng 15 250 50 0 \$0-fd-b-\$2 \$0-fd-b-\$2-r empty 17
7 0 10 -39336 -1 -39336;
#X obj 123 159 bng 15 250 50 0 \$0-fd-b-\$1 \$0-fd-b-\$1-r empty 17
7 0 10 -40953 -1 -40953;
#X obj 141 159 bng 15 250 50 0 \$0-fd-b-\$2 \$0-fd-b-\$2-r empty 17
7 0 10 -39336 -1 -39336;
#X obj 123 123 bng 15 250 50 0 \$0-fd-b-\$1 \$0-fd-b-\$1-r empty 17
7 0 10 -40953 -1 -40953;
#X obj 141 123 bng 15 250 50 0 \$0-fd-b-\$2 \$0-fd-b-\$2-r empty 17
7 0 10 -39336 -1 -39336;
#X obj 159 105 bng 15 250 50 0 \$0-fd-b-\$3 \$0-fd-b-\$3-r empty 17
7 0 10 -54761 -1 -54761;
#X obj 177 105 bng 15 250 50 0 \$0-fd-b-\$4 \$0-fd-b-\$4-r empty 17
7 0 10 -12712 -1 -12712;
#X obj 159 123 bng 15 250 50 0 \$0-fd-b-\$3 \$0-fd-b-\$3-r empty 17
7 0 10 -54761 -1 -54761;
#X obj 177 123 bng 15 250 50 0 \$0-fd-b-\$4 \$0-fd-b-\$4-r empty 17
7 0 10 -12712 -1 -12712;
#X obj 159 141 bng 15 250 50 0 \$0-fd-b-\$3 \$0-fd-b-\$3-r empty 17
7 0 10 -54761 -1 -54761;
#X obj 177 141 bng 15 250 50 0 \$0-fd-b-\$4 \$0-fd-b-\$4-r empty 17
7 0 10 -12712 -1 -12712;
#X obj 105 123 tgl 15 0 2970-fd-1 2970-fd-1-r empty 17 7 0 10 -25360
-25360 -25360 0 1;
#X obj 105 141 tgl 15 0 2970-fd-2 2970-fd-2-r empty 17 7 0 10 -25360
-25360 -25360 0 1;
#X obj 105 159 tgl 15 0 2970-fd-3 2970-fd-3-r empty 17 7 0 10 -25360
-25360 -25360 0 1;
#X obj 105 177 tgl 15 0 2970-fd-4 2970-fd-4-r empty 17 7 0 10 -25360
-25360 -25360 0 1;
#X obj 105 195 tgl 15 0 2970-fd-5 2970-fd-5-r empty 17 7 0 10 -25360
-25360 -25360 0 1;
#X obj 123 105 tgl 15 0 2970-fd-6 2970-fd-6-r empty 17 7 0 10 -25360
-25360 -25360 0 1;
#X obj 141 105 tgl 15 0 2970-fd-7 2970-fd-7-r empty 17 7 0 10 -25360
-25360 -25360 0 1;
#X obj 123 141 tgl 15 0 2970-fd-8 2970-fd-8-r empty 17 7 0 10 -25360
-25360 -25360 0 1;
#X obj 141 141 tgl 15 0 2970-fd-9 2970-fd-9-r empty 17 7 0 10 -25360
-25360 -25360 0 1;
#X obj 195 105 tgl 15 0 2970-fd-10 2970-fd-10-r empty 17 7 0 10 -25360
-25360 -25360 0 1;
#X obj 195 123 tgl 15 0 2970-fd-11 2970-fd-11-r empty 17 7 0 10 -25360
-25360 -25360 0 1;
#X obj 195 141 tgl 15 0 2970-fd-12 2970-fd-12-r empty 17 7 0 10 -25360
-25360 -25360 0 1;
#X obj 195 159 tgl 15 0 2970-fd-13 2970-fd-13-r empty 17 7 0 10 -25360
-25360 -25360 0 1;
#X obj 177 159 tgl 15 0 2970-fd-14 2970-fd-14-r empty 17 7 0 10 -25360
-25360 -25360 0 1;
#X obj 159 159 tgl 15 0 2970-fd-15 2970-fd-15-r empty 17 7 0 10 -25360
-25360 -25360 0 1;
#X obj 159 177 tgl 15 0 2970-fd-16 2970-fd-16-r empty 17 7 0 10 -25360
-25360 -25360 0 1;
#X obj 159 195 tgl 15 0 2970-fd-17 2970-fd-17-r empty 17 7 0 10 -25360
-25360 -25360 0 1;
#X obj 177 195 tgl 15 0 2970-fd-18 2970-fd-18-r empty 17 7 0 10 -25360
-25360 -25360 0 1;
#X obj 195 195 tgl 15 0 2970-fd-19 2970-fd-19-r empty 17 7 0 10 -25360
-25360 -25360 0 1;
#X obj 195 177 tgl 15 0 2970-fd-20 2970-fd-20-r empty 17 7 0 10 -25360
-25360 -25360 0 1;
#X obj 177 177 bng 15 250 50 0 \$0-fd-b-\$4 \$0-fd-b-\$4-r empty 17
7 0 10 -12712 -1 -12712;
#X obj 307 44 loadbang;
#X obj 307 97 metro 100;
#X obj 419 119 counter -m 16;
#X msg 307 66 1;
#X obj 286 333 fd_rgb;
#X obj 319 225 t b b b;
#X obj 286 263 random 256;
#X obj 307 122 t b b;
#X obj 307 147 counter -m 30;
#X obj 296 283 random 256;
#X obj 306 303 random 256;
#X obj 319 200 sel;
#X obj 241 501 list prepend;
#X obj 301 443 random 4;
#X obj 301 468 + \$1;
#X obj 240 418 * 0.5;
#X obj 407 394 fd_delit 21 20;
#X obj 445 544 s;
#X msg 442 519 color \$1 \$1 \$1;
#X obj 510 409 counter -m 21;
#X obj 447 478 f;
#X obj 398 441 t b b;
#X obj 286 358 t f b b f;
#X obj 419 144 sel \$1 \$2 \$3 \$4;
#X obj 419 169 s \$0-fd-b-\$1-r;
#X obj 429 189 s \$0-fd-b-\$2-r;
#X obj 439 209 s \$0-fd-b-\$3-r;
#X obj 449 229 s \$0-fd-b-\$4-r;
#X obj 241 526 list append \$0;
#X msg 236 550 \; \$3-fd-b-\$1-r color \$2 22 \$2;
#X obj 509 438 pack f \$0;
#X msg 496 491 symbol \$2-fd-\$1-r;
#X connect 36 0 39 0;
#X connect 37 0 43 0;
#X connect 38 0 59 0;
#X connect 39 0 37 0;
#X connect 40 0 58 0;
#X connect 41 0 42 0;
#X connect 41 1 45 0;
#X connect 41 2 46 0;
#X connect 42 0 40 0;
#X connect 43 0 44 0;
#X connect 43 1 38 0;
#X connect 44 0 47 0;
#X connect 45 0 40 1;
#X connect 46 0 40 2;
#X connect 47 0 41 0;
#X connect 48 0 64 0;
#X connect 49 0 50 0;
#X connect 50 0 48 1;
#X connect 51 0 48 0;
#X connect 52 0 57 0;
#X connect 54 0 53 0;
#X connect 55 0 66 0;
#X connect 56 0 54 0;
#X connect 57 0 56 0;
#X connect 57 1 55 0;
#X connect 58 0 51 0;
#X connect 58 1 49 0;
#X connect 58 2 52 0;
#X connect 58 3 56 1;
#X connect 59 0 60 0;
#X connect 59 1 61 0;
#X connect 59 2 62 0;
#X connect 59 3 63 0;
#X connect 64 0 65 0;
#X connect 66 0 67 0;
#X connect 67 0 53 1;
#X coords 0 -1 1 1 116 116 2 100 100;
