#N struct fd_list-point-tmpl1 float x float y float color;
#N canvas 500 50 530 480 12;
#X declare -path fd_lib;
#X obj 4 4 cnv 15 522 30 empty empty "fd_list-pointer" 20 15 0 15 -228856
-1 0;
#X obj 4 254 cnv 15 522 20 empty empty arguments: 10 10 0 14 -228856
-1 0;
#X obj 4 305 cnv 15 522 20 empty empty inlets: 10 10 0 14 -228856 -1
0;
#X obj 4 374 cnv 15 522 20 empty empty outlets: 10 10 0 14 -228856
-1 0;
#X obj 4 453 cnv 15 522 20 empty empty version 10 10 0 14 -228856 -1
0;
#X obj 380 8 declare -path fd_lib;
#N canvas 0 22 450 300 meta 0;
#X text 10 0 fd_lib - metadata file - Fri Sep 13 18:19:47 EDT 2019
;
#X text 10 15 patch_name : fd_list-pointer;
#X text 10 30 inlet : 1;
#X text 10 45 outlet : 1;
#X text 10 60 inlet~ : 0;
#X text 10 75 outlet~ : 0;
#X text 10 90 arguments : 0;
#X text 10 105 classes used : 5;
#X text 10 120 total objects: 10;
#X text 10 135 connections : 16;
#X text 10 150 dependencies : 0 [0];
#X text 10 165 externals : 0 [0];
#X text 10 180 internals : 5/233 [0list:t:route:outlet:inlet];
#X restore 438 423 pd meta;
#X text 440 452 fd_lib v0.1;
#X text 17 45 Mainatins an ordered list of pointers;
#X text 60 284 1: symbol: canvas name \, e.g.: pd-this_canvas;
#X text 60 324 1: pointer: appends a pointer to the pointer list \;
1: float: recalls the pointer by index number \; 1: 'clear': empties
the list;
#X obj 200 139 fd_list-pointer;
#X floatatom 120 190 5 0 0 0 change_color #0-color -;
#X obj 121 215 set fd_list-point-tmpl1 color;
#X obj 225 107 r \$0-list-pointer;
#X floatatom 87 117 5 0 0 0 index - #0-index;
#X msg 200 79 clear;
#X obj 36 93 bng 15 250 50 0 \$0-init empty 1.initialize_first 17 7
0 10 -262144 -1 -1;
#X msg 385 187 \; pd-this3 sort;
#N canvas 0 22 696 456 stuff 0;
#X obj 275 256 pointer;
#X msg 71 228 100 10 \, 100 50 \, 100 80 \, 100 100 \, 200 100 \, 130
20 \, 130 240, f 22;
#X obj 38 70 filledpolygon color color 2 0 0 0 10 10 10 10 0 0 0;
#X obj 66 284 append fd_list-point-tmpl1 x y;
#X obj 34 20 struct fd_list-point-tmpl1 float x float y float color
;
#X msg 272 207 traverse pd-this3 \, bang;
#X msg 156 123 \; pd-this3 clear \, vis 1;
#X obj 69 182 t b b;
#X obj 47 340 fd_itpoint pd-this3;
#X obj 47 382 s \$0-size;
#X obj 48 141 t b b b;
#X text 216 340 see fd_itpoint-help.pd;
#X obj 482 102 mod;
#X obj 483 126 t b f f;
#X obj 533 152 sel;
#X obj 486 192 f;
#X obj 533 175 tgl 15 0 empty empty empty 17 7 0 10 -262144 -1 -1 1
1;
#X obj 521 192 * 9;
#X obj 503 73 r \$0-size;
#X obj 486 216 s \$0-color;
#X obj 516 244 s \$0-list-pointer;
#X obj 483 31 r \$0-index;
#X obj 48 108 r \$0-init;
#X obj 181 378 s \$0-list-pointer;
#X connect 0 0 3 2;
#X connect 1 0 3 0;
#X connect 5 0 0 0;
#X connect 7 0 1 0;
#X connect 7 1 5 0;
#X connect 8 0 9 0;
#X connect 8 1 23 0;
#X connect 10 0 8 0;
#X connect 10 1 7 0;
#X connect 10 2 6 0;
#X connect 12 0 13 0;
#X connect 13 0 15 0;
#X connect 13 1 20 0;
#X connect 13 2 14 0;
#X connect 14 0 16 0;
#X connect 15 0 19 0;
#X connect 16 0 17 0;
#X connect 17 0 15 1;
#X connect 18 0 12 1;
#X connect 21 0 12 0;
#X connect 22 0 10 0;
#X restore 379 123 pd stuff;
#N canvas 31 386 450 300 this3 1;
#X scalar fd_list-point-tmpl1 100 10 0 \;;
#X scalar fd_list-point-tmpl1 100 50 0 \;;
#X scalar fd_list-point-tmpl1 100 80 0 \;;
#X scalar fd_list-point-tmpl1 100 100 0 \;;
#X scalar fd_list-point-tmpl1 200 100 0 \;;
#X scalar fd_list-point-tmpl1 130 20 0 \;;
#X scalar fd_list-point-tmpl1 130 240 0 \;;
#X restore 379 149 pd this3;
#X obj 271 187 pointer;
#X text 60 410 1: pointer: to the scalar;
#X connect 11 0 21 0;
#X connect 12 0 13 0;
#X connect 14 0 11 0;
#X connect 16 0 11 0;
#X connect 21 0 13 1;
