#N canvas 522 50 496 355 12;
#X obj 81 55 inlet;
#X obj 135 297 outlet;
#X obj 254 174 list append;
#X obj 254 199 t a a;
#X obj 97 194 list;
#X obj 97 229 list split;
#X obj 135 262 list split 1;
#X obj 97 148 t b f;
#X msg 81 105 0;
#X obj 81 80 route bang float clear;
#X obj 196 132 t b b;
#X text 212 298 see fd_list-pointer-help.pd;
#X connect 0 0 9 0;
#X connect 2 0 3 0;
#X connect 3 0 4 1;
#X connect 3 1 2 1;
#X connect 4 0 5 0;
#X connect 5 1 6 0;
#X connect 6 0 1 0;
#X connect 7 0 4 0;
#X connect 7 1 5 1;
#X connect 8 0 7 0;
#X connect 9 0 8 0;
#X connect 9 1 7 0;
#X connect 9 2 10 0;
#X connect 9 3 2 0;
#X connect 10 0 4 1;
#X connect 10 1 2 1;
