#N canvas 0 22 450 300 12;
#X obj 149 103 samplerate~;
#X msg 203 155 3.14159;
#X obj 203 180 * 2;
#X obj 149 128 swap;
#X obj 149 153 /;
#X obj 149 67 t b f b;
#X obj 149 178 *;
#X obj 149 29 inlet;
#X obj 149 203 outlet;
#X connect 0 0 3 0;
#X connect 1 0 2 0;
#X connect 2 0 6 1;
#X connect 3 0 4 0;
#X connect 3 1 4 1;
#X connect 4 0 6 0;
#X connect 5 0 0 0;
#X connect 5 1 3 1;
#X connect 5 2 1 0;
#X connect 6 0 8 0;
#X connect 7 0 5 0;
