#N canvas 0 0 566 578 12;
#X obj 300 102 vsl 32 80 0 127 0 0 \$0-slider \$0-slider-set \$1-master 0 -9 0 12 #fcfcfc #000000 #000000 0 1;
#X obj 45 165 r \$0-slider;
#X obj 45 67 s \$0-slider-set;
#X obj 45 197 clip 0 127;
#X text 193 9 Arguments;
#X text 329 485 see dispatch~ bus~;
#X text 187 30 \$1: symbol name for the bus;
#X obj 45 40 inlet;
#X msg 45 248 slider \$1;
#X obj 45 273 s \$1-master;
#X obj 332 100 tgl 20 0 \$0-toggle \$0-toggle-set vu 3 9 0 12 #fcfcfc #000000 #000000 0 1;
#X obj 163 163 r \$0-toggle;
#X msg 163 188 vu \$1;
#X connect 1 0 3 0;
#X connect 3 0 8 0;
#X connect 7 0 2 0;
#X connect 8 0 9 0;
#X connect 11 0 12 0;
#X connect 12 0 9 0;
#X coords 0 -1 1 1 52 86 2 300 100;
