#N canvas 0 0 566 578 12;
#X obj 300 102 vsl 20 80 0 127 0 0 \$0-slider \$0-slider-set \$2 0 -9 0 12 #fcfcfc #000000 #000000 0 1;
#X obj 27 25 inlet~;
#X obj 321 102 vu 10 80 \$0-vu \$2 -18 40 0 12 #404040 #000000 0 0;
#N canvas 329 161 625 417 vu 0;
#X obj 59 149 env~ 1024;
#X obj 161 141 abs~;
#X obj 161 213 snapshot~;
#X obj 161 256 rmstodb;
#X obj 161 288 - 100;
#X obj 59 287 - 100;
#X text 344 307 Check the help file of env~ and slop~ for more details., f 31;
#X obj 239 109 expr 1000 / $f1;
#X floatatom 239 137 5 0 0 0 - - - 0;
#X obj 161 166 slop~ 0 0 0 0 1e+09;
#X floatatom 239 77 5 0 0 0 - - - 0;
#X text 353 104 convert to hz;
#X text 282 138 hz;
#X text 284 77 peak decay time in ms;
#X obj 59 171 t f b;
#X text 345 132 The env~ object is dedicated to RMS analysis. Its output is in dB (0-100 range \, pd style) but needs to be converted to dBFS (and we do that by simply subtracting 100)., f 31;
#X text 345 225 The slop~ object is used here for peak detection. We need to convert the output to dB with rmstodb and also subtract by 100 to convert it to dBFS., f 31;
#X obj 468 39 switch~;
#X obj 33 15 r~ \$0-input;
#X obj 131 11 r~ \$0-output;
#X obj 155 34 r \$0-pre;
#X obj 97 108 +~;
#X obj 313 8 loadbang;
#X msg 314 33 500;
#X obj 464 9 r \$0-toggle;
#X obj 94 333 pack;
#X obj 94 358 s \$0-vu;
#X obj 118 74 *~ 1;
#X obj 65 60 *~ 0;
#X obj 163 73 ==;
#X connect 0 0 14 0;
#X connect 1 0 9 0;
#X connect 2 0 3 0;
#X connect 3 0 4 0;
#X connect 4 0 25 1;
#X connect 5 0 25 0;
#X connect 7 0 8 0;
#X connect 8 0 9 3;
#X connect 9 0 2 0;
#X connect 10 0 7 0;
#X connect 14 0 5 0;
#X connect 14 1 2 0;
#X connect 18 0 28 0;
#X connect 19 0 27 0;
#X connect 20 0 29 0;
#X connect 20 0 28 1;
#X connect 21 0 1 0;
#X connect 21 0 0 0;
#X connect 22 0 23 0;
#X connect 23 0 10 0;
#X connect 24 0 17 0;
#X connect 25 0 26 0;
#X connect 27 0 21 1;
#X connect 28 0 21 0;
#X connect 29 0 27 1;
#X restore 347 123 pd vu;
#X obj 66 103 s \$0-slider-set;
#X text 263 11 Arguments;
#X text 132 326 NOTE:;
#X text 130 343 must create a single dispatch~ \$1;
#X text 128 360 on the parent canvas;
#X text 399 489 see dispatch~.pd;
#X text 127 393 the \$1-bus from this patch;
#X text 128 376 which is an abstraction that catches;
#X text 125 409 and sends out the wet signal to the \$1 symbol;
#X obj 28 521 outlet~;
#X obj 96 22 r \$1-master;
#X text 257 32 \$1: (symbol) name for the reverb bus;
#X text 255 53 \$2: (float) channel name;
#X obj 290 515 throw~ \$1-\$2-bus;
#X obj 321 102 tgl 10 0 \$0-toggle \$0-toggle-set empty 0 -10 0 12 #fcfcfc #000000 #000000 0 1;
#X obj 117 78 s \$0-toggle-set;
#N canvas 621 120 439 416 mute 0;
#X msg 86 307 0;
#X msg 223 86 set \$1;
#X obj 86 249 != 0;
#X obj 86 223 f;
#X obj 165 267 float;
#X obj 72 162 sel 1 0;
#X msg 193 307 set 0;
#X obj 190 224 moses 1e-30;
#X obj 86 278 sel 1 0;
#X obj 193 338 s \$0-tgl;
#X obj 71 104 r \$0-mute;
#X obj 71 129 tgl 20 0 empty empty empty 0 -10 0 12 #fcfcfc #000000 #000000 0 1;
#X obj 190 25 r \$0-slider;
#X obj 190 58 clip 0 127;
#X obj 88 366 s \$0-slider-set;
#X obj 223 112 s \$0-slider-set;
#X connect 0 0 14 0;
#X connect 1 0 15 0;
#X connect 2 0 8 0;
#X connect 3 0 2 0;
#X connect 4 0 14 0;
#X connect 5 0 3 0;
#X connect 5 1 4 0;
#X connect 6 0 9 0;
#X connect 7 1 4 1;
#X connect 7 1 6 0;
#X connect 8 0 0 0;
#X connect 8 1 6 0;
#X connect 10 0 11 0;
#X connect 11 0 5 0;
#X connect 12 0 13 0;
#X connect 13 0 1 0;
#X connect 13 0 3 1;
#X connect 13 0 7 0;
#X restore 347 150 pd mute;
#X obj 321 114 bng 10 250 50 0 \$0-mute \$0-mute-set empty 0 -10 0 12 #fcfcfc #000000 #000000;
#X obj 132 182 sel 0 1;
#X obj 199 220 symbol \$1-\$2-bus;
#X msg 199 245 label \$1;
#X msg 130 231 label;
#X obj 147 290 s \$0-slider-set;
#X obj 28 159 s~ \$0-input;
#X obj 29 487 r~ \$0-output;
#X obj 291 479 r~ \$0-output;
#N canvas 0 0 445 358 volume 0;
#X obj 60 220 line~;
#X obj 60 196 pack f 30;
#X obj 42 246 *~;
#X obj 60 41 r \$0-slider;
#X obj 178 90 !=;
#X obj 178 115 change;
#X obj 178 140 switch~;
#X obj 172 230 s \$0-vu;
#X obj 172 178 sel;
#X msg 172 204 -100 -100;
#X obj 60 70 t a a a;
#X obj 60 126 / 127;
#X obj 60 149 * 100;
#X obj 60 172 dbtorms;
#X obj 60 100 clip 0 127;
#X obj 41 16 r~ \$0-input;
#X obj 42 276 s~ \$0-output;
#X connect 0 0 2 1;
#X connect 1 0 0 0;
#X connect 2 0 16 0;
#X connect 3 0 10 0;
#X connect 4 0 5 0;
#X connect 5 0 6 0;
#X connect 8 0 9 0;
#X connect 9 0 7 0;
#X connect 10 0 14 0;
#X connect 10 1 8 0;
#X connect 10 2 4 0;
#X connect 11 0 12 0;
#X connect 12 0 13 0;
#X connect 13 0 1 0;
#X connect 14 0 11 0;
#X connect 15 0 2 0;
#X restore 347 96 pd volume;
#X obj 321 127 tgl 10 0 \$0-pre \$0-pre-set empty 0 -10 0 12 #fcfcfc #000000 #000000 0 1;
#X obj 66 55 route slider vu label pre;
#X obj 198 119 s \$0-pre-set;
#X connect 1 0 27 0;
#X connect 1 1 32 0;
#X connect 14 0 32 0;
#X connect 22 0 25 0;
#X connect 22 1 23 0;
#X connect 23 0 24 0;
#X connect 24 0 26 0;
#X connect 25 0 26 0;
#X connect 28 0 13 0;
#X connect 29 0 17 0;
#X connect 32 0 4 0;
#X connect 32 1 19 0;
#X connect 32 2 22 0;
#X connect 32 3 33 0;
#X coords 0 -1 1 1 32 86 2 300 100;
