#N canvas 0 22 1267 682 12;
#X obj 161 141 spigot 1;
#X obj 161 166 delay;
#X obj 288 534 t a a;
#X obj 288 154 f;
#X obj 324 154 + 1;
#X obj 549 293 f;
#X obj 584 293 + 1;
#X obj 548 318 moses 7;
#X obj 288 179 moses 8;
#X obj 341 271 t b b;
#X obj 168 275 unpack;
#X obj 185 28 tgl 15 0 empty empty empty 17 7 0 10 -262144 -1 -1 0
1;
#X obj 185 52 t f f;
#X obj 174 88 sel 1;
#X obj 22 174 t b b;
#X msg 69 174 0;
#X obj 614 319 + 1;
#X obj 288 317 / 150;
#X obj 548 381 / 150;
#X obj 359 178 + 1;
#X obj 359 99 t b b;
#X obj 211 114 s \$0-reset;
#X obj 309 126 r \$0-reset;
#X obj 568 270 r \$0-reset;
#X obj 22 589 bng 15 250 50 0 empty empty empty 17 7 0 10 -262144 -1
-1;
#X obj 614 240 t b b;
#X obj 320 17 inlet;
#X obj 320 42 t b b;
#X obj 378 554 outlet;
#X obj 1044 604 outlet;
#X msg 313 71 1;
#X obj 359 153 fd_getsize \$1;
#X obj 288 238 fd_get-element \$1;
#X obj 413 119 fd_dataID \$1 fd_env1 id;
#X obj 548 355 fd_get-element \$2;
#X obj 668 260 fd_dataID \$2 fd_env1 id;
#X obj 614 294 fd_getsize \$2;
#X obj 804 113 print fd_dataRead;
#X obj 548 407 * \$3;
#X obj 1148 20 inlet;
#X obj 793 27 spigot 1;
#X obj 793 52 t b b;
#X msg 840 52 0;
#X obj 586 406 max 1;
#X obj 548 431 + 1;
#X msg 378 300 0 1;
#X obj 22 149 del 1;
#X obj 801 78 pack \$1 \$2 \$3;
#X obj 884 298 f;
#X obj 919 298 + 1;
#X obj 883 323 moses 7;
#X obj 949 324 + 1;
#X obj 883 386 / 150;
#X obj 903 275 r \$0-reset;
#X obj 949 245 t b b;
#X obj 883 412 * \$3;
#X obj 921 411 max 1;
#X obj 883 436 + 1;
#X obj 288 488 pack f f f, f 70;
#X obj 288 209 t f b b, f 71;
#X obj 1003 265 fd_dataID \$3 fd_env1 id;
#X obj 949 299 fd_getsize \$3;
#X obj 883 360 fd_get-element \$3;
#X obj 683 86 t b b b;
#X connect 0 0 1 0;
#X connect 1 0 3 0;
#X connect 2 0 10 0;
#X connect 2 1 28 0;
#X connect 3 0 4 0;
#X connect 3 0 8 0;
#X connect 4 0 3 1;
#X connect 5 0 6 0;
#X connect 5 0 7 0;
#X connect 6 0 5 1;
#X connect 7 0 34 0;
#X connect 8 0 59 0;
#X connect 8 1 9 0;
#X connect 9 0 46 0;
#X connect 9 1 45 0;
#X connect 10 1 0 0;
#X connect 11 0 12 0;
#X connect 12 0 13 0;
#X connect 12 1 0 1;
#X connect 13 0 0 0;
#X connect 13 1 21 0;
#X connect 14 0 24 0;
#X connect 14 1 15 0;
#X connect 15 0 11 0;
#X connect 16 0 7 1;
#X connect 17 0 58 0;
#X connect 18 0 38 0;
#X connect 19 0 8 1;
#X connect 20 0 31 0;
#X connect 20 1 33 0;
#X connect 22 0 3 1;
#X connect 23 0 5 1;
#X connect 24 0 29 0;
#X connect 25 0 36 0;
#X connect 25 1 35 0;
#X connect 26 0 27 0;
#X connect 27 0 30 0;
#X connect 27 1 40 0;
#X connect 30 0 11 0;
#X connect 31 0 19 0;
#X connect 32 0 17 0;
#X connect 33 0 31 1;
#X connect 33 0 32 1;
#X connect 34 0 18 0;
#X connect 35 0 34 1;
#X connect 35 0 36 1;
#X connect 36 0 16 0;
#X connect 38 0 44 0;
#X connect 39 0 43 0;
#X connect 39 0 56 0;
#X connect 40 0 41 0;
#X connect 41 0 47 0;
#X connect 41 0 63 0;
#X connect 41 1 42 0;
#X connect 42 0 40 1;
#X connect 43 0 38 1;
#X connect 44 0 58 1;
#X connect 45 0 28 0;
#X connect 46 0 14 0;
#X connect 47 0 37 0;
#X connect 48 0 49 0;
#X connect 48 0 50 0;
#X connect 49 0 48 1;
#X connect 50 0 62 0;
#X connect 51 0 50 1;
#X connect 52 0 55 0;
#X connect 53 0 48 1;
#X connect 54 0 61 0;
#X connect 54 1 60 0;
#X connect 55 0 57 0;
#X connect 56 0 55 1;
#X connect 57 0 58 2;
#X connect 58 0 2 0;
#X connect 59 0 32 0;
#X connect 59 1 5 0;
#X connect 59 2 48 0;
#X connect 60 0 61 1;
#X connect 60 0 62 1;
#X connect 61 0 51 0;
#X connect 62 0 52 0;
#X connect 63 0 20 0;
#X connect 63 1 25 0;
#X connect 63 2 54 0;
