#N canvas 523 50 452 301 12;
#X obj 38 204 *~;
#X obj 126 137 dbtorms;
#X obj 126 161 pack f 20;
#X obj 126 185 line~;
#X obj 48 55 catch~ dacout-\$1;
#X obj 54 236 dac~ \$1;
#X obj 126 113 r \$2;
#X obj 38 267 outlet~;
#X obj 38 81 hip~ 3;
#X obj 38 23 inlet~;
#X text 178 55 <-- send audio here;
#X text 168 112 <-- send volume control here (0-127);
#X text 93 22 <-- input for mono;
#X obj 38 142 lop~;
#X obj 245 162 loadbang;
#X obj 245 186 f \$3;
#X obj 245 210 sel;
#X obj 245 234 samplerate~;
#X obj 245 258 / 2;
#X connect 0 0 5 0;
#X connect 0 0 7 0;
#X connect 1 0 2 0;
#X connect 2 0 3 0;
#X connect 3 0 0 1;
#X connect 4 0 8 0;
#X connect 6 0 1 0;
#X connect 8 0 13 0;
#X connect 9 0 8 0;
#X connect 13 0 0 0;
#X connect 14 0 15 0;
#X connect 15 0 16 0;
#X connect 16 0 17 0;
#X connect 16 1 13 1;
#X connect 17 0 18 0;
#X connect 18 0 13 1;
