#N canvas 393 50 584 516 12;
#X obj 36 266 *~;
#X obj 178 156 dbtorms;
#X obj 178 180 pack f 20;
#X obj 178 204 line~;
#X obj 36 28 catch~ dacout-\$1;
#X obj 36 418 dac~ \$1;
#X obj 178 132 r \$2;
#X obj 54 83 inlet~;
#X text 162 29 <-- send audio here;
#X obj 36 320 hip~ 3;
#X obj 36 117 +~;
#X obj 157 440 outlet;
#X text 95 320 get rid of DC offset;
#X text 211 440 Reports channel dB;
#X text 220 131 <-- send volume control here (dB);
#X text 109 82 mono input;
#X obj 271 305 loadbang;
#X msg 271 329 1;
#X obj 157 376 fd_env~ vu-\$1;
#X text 260 374 <-- receives vu-\$1-switch;
#X connect 0 0 9 0;
#X connect 1 0 2 0;
#X connect 2 0 3 0;
#X connect 3 0 0 1;
#X connect 4 0 10 0;
#X connect 6 0 1 0;
#X connect 7 0 10 1;
#X connect 9 0 5 0;
#X connect 9 0 18 0;
#X connect 10 0 0 0;
#X connect 16 0 17 0;
#X connect 17 0 18 1;
#X connect 18 0 11 0;
