#N canvas 1 0 979 727 12;
#X obj 12 12 cnv 15 96 96 empty empty dataMorphGui 13 8 0 10 -228856
-1 0;
#X obj 20 90 tgl 13 0 \$0-all \$0-all-set all 17 7 0 10 -262144 -1
-1 0 1;
#X obj 87 90 bng 13 250 50 0 \$0-graph \$0-graph-set graph -33 7 0
10 -262144 -1 -1;
#X obj 22 37 nbx 4 14 0 1e+37 0 0 \$0-t-time \$0-t-time-set t-time
0 -6 0 10 -262144 -1 -1 375 256;
#X obj 445 514 list;
#X obj 474 467 list prepend 7, f 9;
#X msg 286 628;
#X obj 119 386 del;
#X msg 444 545 add2 \$1 \$2 \$3 \, addcomma;
#X msg 662 571 set;
#X obj 489 58 t b f f;
#X obj 489 94 random;
#X obj 490 121 +;
#X obj 20 73 tgl 15 0 \$0-invert \$0-invert-set d-7 17 7 0 10 -262144
-1 -1 0 1;
#X obj 744 468 sel;
#X msg 780 425 7;
#X msg 818 426 symbol invert;
#X obj 52 224 list prepend, f 7;
#X obj 52 266 route 1 0;
#X obj 524 250 sel;
#X obj 47 298 t b b;
#X obj 29 359 del;
#X obj 28 509 list prepend 7, f 9;
#X obj 26 554 list prepend all, f 9;
#X obj 98 14 bng 8 250 50 0 \$0-clear \$0-clear-set empty 17 7 0 8
-262144 -1 -1;
#X obj 308 10 loadbang;
#X msg 308 36 100;
#X obj 30 483 f;
#X msg 26 381 0;
#X obj 61 79 hradio 8 1 0 5 \$0-quickdraw \$0-quickdraw-set quickdraw
-2 -4 0 8 -262144 -1 -1 4;
#X msg 255 80 Hann;
#X obj 362 117 makefilename data%s, f 12;
#X obj 362 93 symbol;
#X msg 271 102 Exp;
#X msg 282 123 Rand;
#X msg 293 147 Line;
#X msg 302 172 Walk;
#X msg 362 157 \; \$1 7 \;;
#X obj 179 142 sel 0 1 2 3 4;
#X obj 88 38 tgl 13 0 random-morphing random-morphing-set RND -18 7
0 10 -262144 -1 -1 0 1;
#X obj 14 14 bng 8 250 50 0 \$0-menu-open \$0-menu-open-set empty 17
7 0 8 -262144 -1 -1;
#X obj 94 26 bng 10 250 50 0 empty empty empty 17 7 0 10 -258113 -1
-1;
#X obj 140 20 s panic;
#X obj 285 686 s dataMorph;
#X obj 284 661 list trim;
#X obj 126 44 r toggle-1;
#X msg 613 48 \; pd-dataModifiers menu-open;
#X obj 21 55 sradio 13 1 6 \$0-which \$0-which-set empty 0 -8 0 10
-262144 -1 -1;
#X obj 613 23 r \$0-menu-open;
#X msg 269 200 6;
#X obj 269 225 until;
#X obj 269 250 counter -m 6;
#X obj 269 275 t f f;
#X obj 268 386 list prepend;
#X obj 268 411 *;
#X obj 268 436 sel;
#X obj 295 461 + 1;
#X obj 268 352 route float;
#X obj 269 330 r \$0-which;
#X obj 269 300 s \$0-which-set;
#X obj 26 406 s \$0-all-set, f 10;
#X obj 84 193 r \$0-all;
#X obj 471 221 r \$0-all;
#X obj 471 333 s \$0-which-set;
#X obj 308 61 s \$0-t-time-set;
#X obj 495 31 r \$0-t-time;
#X obj 300 488 t b f;
#X obj 670 172 r \$0-invert;
#X msg 744 501 label d-7;
#X msg 841 504 label inv;
#X obj 750 544 s \$0-invert-set;
#X obj 788 392 sel;
#X obj 51 168 r \$0-graph;
#X obj 50 334 r \$0-t;
#X obj 55 453 r \$0-t;
#X obj 137 358 r \$0-t;
#X obj 472 436 r \$0-t;
#X obj 300 530 s \$0-t-time-set;
#X obj 488 158 s \$0-t;
#X obj 119 411 s \$0-clear-set;
#X obj 624 359 r \$0-clear;
#X obj 544 274 s \$0-clear-set;
#X obj 16 643 s dataMorph;
#X obj 15 618 list trim;
#X obj 780 450 s \$0-source;
#X obj 542 435 r \$0-source;
#X obj 91 484 r \$0-source;
#X obj 133 305 t b b b;
#X obj 471 246 t f f;
#X obj 161 114 r \$0-quickdraw;
#X obj 670 197 t f f f;
#X obj 798 234 sel;
#X obj 790 338 s \$0-quickdraw-set;
#X msg 790 308 color 0 22 22;
#X msg 763 267 color 10 10 10;
#X msg 471 308 set \$1 \$1 \$1 \$1 \$1 \$1;
#X msg 624 384 0;
#X connect 4 0 8 0;
#X connect 5 0 4 1;
#X connect 6 0 44 0;
#X connect 7 0 79 0;
#X connect 8 0 6 0;
#X connect 9 0 6 0;
#X connect 10 0 11 0;
#X connect 10 1 11 1;
#X connect 10 2 12 1;
#X connect 11 0 12 0;
#X connect 12 0 78 0;
#X connect 14 0 68 0;
#X connect 14 1 69 0;
#X connect 15 0 84 0;
#X connect 16 0 84 0;
#X connect 17 0 18 0;
#X connect 18 0 20 0;
#X connect 18 1 87 0;
#X connect 19 1 81 0;
#X connect 20 0 21 0;
#X connect 20 1 27 0;
#X connect 21 0 28 0;
#X connect 22 0 23 0;
#X connect 23 0 83 0;
#X connect 25 0 26 0;
#X connect 26 0 64 0;
#X connect 27 0 22 0;
#X connect 28 0 60 0;
#X connect 30 0 32 0;
#X connect 31 0 37 0;
#X connect 32 0 31 0;
#X connect 33 0 32 0;
#X connect 34 0 32 0;
#X connect 35 0 32 0;
#X connect 36 0 32 0;
#X connect 38 0 30 0;
#X connect 38 1 33 0;
#X connect 38 2 34 0;
#X connect 38 3 35 0;
#X connect 38 4 36 0;
#X connect 41 0 42 0;
#X connect 44 0 43 0;
#X connect 45 0 39 0;
#X connect 48 0 46 0;
#X connect 49 0 50 0;
#X connect 50 0 51 0;
#X connect 51 0 52 0;
#X connect 52 0 59 0;
#X connect 52 1 53 1;
#X connect 53 0 54 0;
#X connect 54 0 55 0;
#X connect 55 1 56 0;
#X connect 56 0 66 0;
#X connect 57 0 53 0;
#X connect 58 0 57 0;
#X connect 61 0 17 1;
#X connect 62 0 88 0;
#X connect 65 0 10 0;
#X connect 66 0 77 0;
#X connect 66 1 4 0;
#X connect 67 0 90 0;
#X connect 68 0 70 0;
#X connect 69 0 70 0;
#X connect 71 0 15 0;
#X connect 71 1 16 0;
#X connect 72 0 17 0;
#X connect 73 0 21 1;
#X connect 74 0 27 1;
#X connect 75 0 7 1;
#X connect 76 0 5 0;
#X connect 80 0 9 0;
#X connect 80 0 96 0;
#X connect 83 0 82 0;
#X connect 85 0 5 1;
#X connect 86 0 22 1;
#X connect 87 0 7 0;
#X connect 87 1 6 0;
#X connect 87 2 49 0;
#X connect 88 0 95 0;
#X connect 88 1 19 0;
#X connect 89 0 38 0;
#X connect 90 0 14 0;
#X connect 90 1 71 0;
#X connect 90 2 91 0;
#X connect 91 0 93 0;
#X connect 91 1 94 0;
#X connect 93 0 92 0;
#X connect 94 0 92 0;
#X connect 95 0 63 0;
#X connect 96 0 95 0;
#X coords 0 -1 1 1 100 100 2 10 10;
