#N canvas 523 52 340 228 12;
#X obj 48 127 int;
#X obj 48 149 - 1;
#X obj 34 99 until;
#X obj 25 43 t f f;
#X obj 93 98 - 1;
#X obj 25 11 inlet;
#X obj 23 178 outlet;
#X obj 16 68 sel 0;
#X text 91 11 inversed iterative counter;
#X connect 0 0 1 0;
#X connect 0 0 6 0;
#X connect 1 0 0 1;
#X connect 2 0 0 0;
#X connect 3 0 7 0;
#X connect 3 1 4 0;
#X connect 4 0 0 1;
#X connect 5 0 3 0;
#X connect 7 1 2 0;
