#N canvas 32 41 635 608 12;
#X obj 58 88 samplerate~;
#X obj 58 271 phasor~;
#X obj 40 390 /~;
#X obj 58 365 exp~;
#X obj 40 29 sig~ 1;
#X obj 191 25 inlet;
#X msg 255 312 set \$1;
#X obj 460 359 array define \$1 \$2;
#X obj 58 199 / \$2;
#X obj 40 522 tabsend~ \$1;
#X obj 214 418 switch~ \$2;
#X text 301 29 see fd_windows.pd;
#X obj 428 237 del 1 1 samp;
#X obj 191 63 route bang float q;
#X obj 428 262 t b b;
#X obj 287 289 array size \$1;
#X msg 104 198 1 \$1;
#X obj 104 221 /;
#X obj 104 243 / \$2;
#X obj 255 259 t f f;
#X obj 191 180 t b b b;
#X obj 232 96 t f f f;
#X obj 58 152 t f f;
#X obj 40 450 lop~ 512;
#X obj 58 333 *~ 24;
#X msg 460 331 0 0 \, normalize 1;
#N canvas 0 22 450 300 open 0;
#X obj 118 71 route open;
#X msg 118 95 click 0 0 0 0 0;
#X obj 119 49 inlet;
#X obj 118 119 outlet;
#X connect 0 0 1 0;
#X connect 0 1 3 0;
#X connect 1 0 3 0;
#X connect 2 0 0 0;
#X restore 460 133 pd open;
#X obj 456 15 r \$1-range;
#X obj 456 40 array-rerange \$1;
#X obj 376 512 fd_smooth_brute \$1;
#X obj 382 483 r \$1-smooth;
#X connect 0 0 22 0;
#X connect 1 0 24 0;
#X connect 2 0 23 0;
#X connect 3 0 2 1;
#X connect 4 0 2 0;
#X connect 5 0 13 0;
#X connect 6 0 10 0;
#X connect 8 0 1 0;
#X connect 12 0 14 0;
#X connect 13 0 20 0;
#X connect 13 1 21 0;
#X connect 13 2 24 1;
#X connect 13 3 26 0;
#X connect 14 1 25 0;
#X connect 16 0 17 0;
#X connect 17 0 18 0;
#X connect 18 0 1 1;
#X connect 19 0 6 0;
#X connect 19 1 15 0;
#X connect 20 0 12 0;
#X connect 20 1 10 0;
#X connect 20 2 0 0;
#X connect 21 0 8 1;
#X connect 21 1 19 0;
#X connect 21 2 12 1;
#X connect 22 0 8 0;
#X connect 22 1 16 0;
#X connect 23 0 9 0;
#X connect 24 0 3 0;
#X connect 25 0 7 0;
#X connect 26 0 7 0;
#X connect 27 0 28 0;
#X connect 30 0 29 0;
