#N canvas 370 69 779 576 12;
#X obj 156 72 / 10;
#X obj 78 74 abs~;
#X obj 102 208 metro 22;
#X obj 78 264 snapshot~;
#X obj 78 289 rmstodb;
#X obj 124 364 - 88;
#X obj 78 320 moses 1;
#X msg 78 364 -100;
#X obj 78 101 slop~ 0 0 0 0 1e+09;
#X obj 155 21 loadbang;
#X msg 155 47 20;
#X obj 78 412 t a a;
#X obj 78 438 outlet;
#X obj 129 436 s \$1;
#X obj 340 32 inlet;
#X obj 78 43 inlet~;
#X obj 363 278 switch~;
#X obj 218 262 sel;
#X obj 340 125 t f f f;
#X obj 350 92 r \$1-switch-\$2;
#X text 469 95 <-- turn vu meter on/off for this channel, f 17;
#X obj 218 287 del 5;
#X connect 0 0 8 3;
#X connect 1 0 8 0;
#X connect 2 0 3 0;
#X connect 3 0 4 0;
#X connect 4 0 6 0;
#X connect 5 0 11 0;
#X connect 6 0 7 0;
#X connect 6 1 5 0;
#X connect 7 0 11 0;
#X connect 8 0 3 0;
#X connect 9 0 10 0;
#X connect 10 0 0 0;
#X connect 11 0 12 0;
#X connect 11 1 13 0;
#X connect 14 0 18 0;
#X connect 15 0 1 0;
#X connect 17 0 21 0;
#X connect 18 0 17 0;
#X connect 18 1 16 0;
#X connect 18 2 2 0;
#X connect 19 0 18 0;
#X connect 21 0 7 0;
