#N canvas 349 30 478 670 12;
#X msg 89 196 1 \, 0 0 1;
#X obj 89 225 vline~;
#X obj 183 198 fd_filt;
#X obj 134 502 *~;
#X obj 134 429 *~;
#X obj 134 357 *~;
#X obj 308 340 osc~ 1;
#X obj 134 296 *~;
#X obj 89 80 mtof;
#X obj 171 110 fd_map 127 100;
#X obj 238 161 fd_map 127 100;
#X obj 134 80 t f f;
#X obj 89 111 spigot;
#X obj 89 578 clip~ 0 1;
#X obj 89 322 rpole~;
#X obj 89 384 rzero~;
#X obj 89 458 rpole~;
#X obj 89 528 rzero~;
#X obj 89 156 t b f;
#X obj 183 243 unpack f f f f f;
#X obj 308 303 * 10000;
#X obj 89 250 biquad~;
#X obj 89 45 unpack;
#X obj 89 21 inlet;
#X obj 238 14 inlet;
#X obj 89 627 outlet~;
#X connect 0 0 1 0;
#X connect 1 0 21 0;
#X connect 2 0 19 0;
#X connect 2 0 21 0;
#X connect 3 0 17 1;
#X connect 4 0 16 1;
#X connect 5 0 15 1;
#X connect 6 0 7 0;
#X connect 6 0 5 0;
#X connect 6 0 4 0;
#X connect 6 0 3 0;
#X connect 7 0 14 1;
#X connect 8 0 12 0;
#X connect 9 0 2 1;
#X connect 10 0 2 2;
#X connect 11 0 12 1;
#X connect 11 1 9 0;
#X connect 12 0 18 0;
#X connect 13 0 25 0;
#X connect 14 0 15 0;
#X connect 15 0 16 0;
#X connect 16 0 17 0;
#X connect 17 0 13 0;
#X connect 18 0 0 0;
#X connect 18 1 2 0;
#X connect 19 0 7 1;
#X connect 19 1 4 1;
#X connect 19 2 5 1;
#X connect 19 3 3 1;
#X connect 19 4 20 0;
#X connect 20 0 6 0;
#X connect 21 0 14 0;
#X connect 22 0 8 0;
#X connect 22 1 11 0;
#X connect 23 0 22 0;
#X connect 24 0 10 0;
