#N canvas 523 49 368 310 12;
#X obj 47 150 t b b;
#X msg 97 150 0;
#X obj 47 128 spigot 1;
#X obj 26 101 t a b;
#X obj 47 172 f \$1;
#X obj 47 194 change;
#X msg 47 216 resize \$1;
#X obj 26 50 inlet gemlist;
#X obj 173 52 inlet float;
#X obj 26 252 outlet gemlist;
#X connect 0 0 4 0;
#X connect 0 1 1 0;
#X connect 1 0 2 1;
#X connect 2 0 0 0;
#X connect 3 0 9 0;
#X connect 3 1 2 0;
#X connect 4 0 5 0;
#X connect 5 0 6 0;
#X connect 6 0 9 0;
#X connect 7 0 3 0;
#X connect 8 0 4 0;
