#N canvas 371 69 505 494 12;
#X obj 35 199 samplerate~;
#X msg 76 221 0;
#X obj 35 243 phasor~;
#X obj 202 9 inlet;
#X msg 245 304 set \$1;
#X obj 306 270 array define \$1 \$2;
#X obj 20 457 tabsend~ \$1;
#X obj 235 336 switch~ \$2;
#X obj 35 287 *~;
#X obj 35 331 *~ -1;
#X obj 35 353 exp~;
#X obj 35 44 sig~ 3.14159;
#X obj 35 88 *~ 2;
#X obj 35 110 sqrt~;
#X obj 20 21 sig~ 1;
#X obj 20 174 /~;
#X obj 20 376 *~;
#X obj 168 204 t f f;
#X obj 115 66 pow 2;
#X obj 121 310 * 2;
#X msg 109 285 0;
#X obj 35 132 +~ 0;
#X obj 35 66 *~ 0.0004;
#X obj 35 309 /~ 0.04;
#X obj 35 265 -~ 0.5;
#X text 327 442 see fd_windows.pd;
#X obj 202 33 route bang float q w;
#X obj 255 182 t b b;
#X obj 363 132 array size \$1;
#X obj 162 252 sel;
#X obj 195 69 t b b b b;
#X obj 303 102 t f f f f;
#X text 51 376 the area below the curve this needs to be normalized;
#X obj 35 221 / \$2;
#X obj 255 151 del 1 \$2 samp;
#N canvas 0 22 450 300 open 0;
#X obj 118 71 route open;
#X msg 118 95 click 0 0 0 0 0;
#X obj 119 49 inlet;
#X obj 118 119 outlet;
#X connect 0 0 1 0;
#X connect 0 1 3 0;
#X connect 1 0 3 0;
#X connect 2 0 0 0;
#X restore 340 182 pd open;
#X msg 255 206 normalize;
#X obj 361 8 r \$1-range;
#X obj 361 33 array-rerange \$1;
#X obj 323 331 fd_smooth_brute \$1;
#X obj 329 302 r \$1-smooth;
#X connect 0 0 33 0;
#X connect 1 0 2 1;
#X connect 2 0 24 0;
#X connect 3 0 26 0;
#X connect 4 0 7 0;
#X connect 8 0 23 0;
#X connect 9 0 10 0;
#X connect 10 0 16 1;
#X connect 11 0 22 0;
#X connect 12 0 13 0;
#X connect 13 0 21 0;
#X connect 14 0 15 0;
#X connect 15 0 16 0;
#X connect 16 0 6 0;
#X connect 17 0 18 0;
#X connect 17 1 29 0;
#X connect 18 0 22 1;
#X connect 19 0 23 1;
#X connect 20 0 23 1;
#X connect 21 0 15 1;
#X connect 22 0 12 0;
#X connect 23 0 9 0;
#X connect 24 0 8 0;
#X connect 24 0 8 1;
#X connect 26 0 30 0;
#X connect 26 1 31 0;
#X connect 26 2 24 1;
#X connect 26 3 17 0;
#X connect 26 4 35 0;
#X connect 27 0 36 0;
#X connect 29 0 20 0;
#X connect 29 1 19 0;
#X connect 30 0 34 0;
#X connect 30 1 1 0;
#X connect 30 2 7 0;
#X connect 30 3 0 0;
#X connect 31 0 33 1;
#X connect 31 1 4 0;
#X connect 31 2 34 1;
#X connect 31 3 28 0;
#X connect 33 0 2 0;
#X connect 34 0 27 0;
#X connect 35 0 5 0;
#X connect 36 0 5 0;
#X connect 37 0 38 0;
#X connect 40 0 39 0;
