#N canvas 0 22 450 300 12;
#X obj 31 25 inlet;
#X obj 31 205 *~;
#X obj 190 123 noise~;
#X obj 31 230 outlet~;
#X obj 190 148 bp~ 8000 2;
#X obj 31 152 *~;
#X obj 31 178 *~;
#X obj 31 120 line~;
#X obj 31 60 f 100;
#X msg 31 95 1 \, 0 \$1;
#X obj 249 18 inlet;
#X obj 249 42 t f f;
#X obj 284 100 / 100;
#X obj 284 124 + 2;
#X obj 284 148 max 2;
#X connect 0 0 8 0;
#X connect 1 0 3 0;
#X connect 2 0 4 0;
#X connect 4 0 1 1;
#X connect 5 0 6 0;
#X connect 5 0 6 1;
#X connect 6 0 1 0;
#X connect 7 0 5 0;
#X connect 7 0 5 1;
#X connect 8 0 9 0;
#X connect 9 0 7 0;
#X connect 10 0 11 0;
#X connect 11 0 8 1;
#X connect 11 1 12 0;
#X connect 12 0 13 0;
#X connect 13 0 14 0;
#X connect 14 0 4 2;
