#N canvas 518 38 584 662 12;
#X obj 185 342 pointer;
#X msg 200 275 next;
#X msg 282 410 0;
#X obj 173 380 t b b p;
#X msg 325 410 1;
#X obj 134 310 del;
#X obj 108 74 inlet;
#X msg 185 222 traverse \$1 \, bang;
#X obj 108 167 fd_arg1 \$1;
#X obj 199 469 spigot 1;
#X obj 369 550 outlet;
#X obj 108 109 route bang symbol;
#X obj 200 144 t b a;
#X obj 237 169 symbol;
#X obj 199 527 f;
#X obj 231 526 + 1;
#X obj 200 300 t a b;
#X obj 200 253 t b b;
#X obj 164 527 f;
#X obj 164 552 outlet;
#X msg 367 410 1;
#X text 214 49 see fd_itpoint-help.pd;
#X obj 338 76 inlet pointer;
#X obj 250 300 t b a;
#X connect 0 0 3 0;
#X connect 0 1 2 0;
#X connect 0 1 18 0;
#X connect 1 0 16 0;
#X connect 2 0 9 1;
#X connect 3 0 5 0;
#X connect 3 1 9 0;
#X connect 3 2 10 0;
#X connect 4 0 9 1;
#X connect 5 0 1 0;
#X connect 6 0 11 0;
#X connect 7 0 0 0;
#X connect 8 0 17 0;
#X connect 8 2 7 0;
#X connect 9 0 14 0;
#X connect 11 0 8 0;
#X connect 11 1 12 0;
#X connect 12 0 17 0;
#X connect 12 1 13 0;
#X connect 13 0 7 0;
#X connect 14 0 15 0;
#X connect 14 0 18 1;
#X connect 15 0 14 1;
#X connect 16 0 0 0;
#X connect 16 1 4 0;
#X connect 17 0 1 0;
#X connect 17 1 20 0;
#X connect 18 0 19 0;
#X connect 20 0 14 1;
#X connect 22 0 23 0;
#X connect 23 0 0 0;
#X connect 23 1 0 0;
