#N canvas 377 22 563 452 12;
#X obj 236 91 siginfo;
#X obj 202 197 t f f;
#X obj 236 274 f;
#X obj 279 275 f;
#X obj 202 164 list split 1;
#X obj 305 165 list split 1;
#X obj 305 191 change;
#X obj 236 347 -;
#X obj 236 374 abs;
#X obj 279 311 t b f;
#X obj 236 311 f;
#X obj 236 28 inlet;
#X obj 236 400 outlet;
#X obj 196 129 list split 1;
#X msg 236 53 0 \$1;
#X obj 305 217 sel 0 1;
#X connect 0 0 13 0;
#X connect 0 1 5 0;
#X connect 1 0 2 1;
#X connect 1 1 3 1;
#X connect 2 0 10 0;
#X connect 3 0 9 0;
#X connect 4 0 1 0;
#X connect 5 0 6 0;
#X connect 6 0 15 0;
#X connect 7 0 8 0;
#X connect 8 0 12 0;
#X connect 9 0 10 0;
#X connect 9 1 7 1;
#X connect 10 0 7 0;
#X connect 11 0 14 0;
#X connect 13 1 4 0;
#X connect 14 0 0 0;
#X connect 15 0 3 0;
#X connect 15 1 2 0;
