#N canvas 45 310 451 317 12;
#X obj 33 181 log;
#X obj 33 157 wrap;
#X obj 33 203 abs;
#X obj 33 97 -;
#X obj 33 226 / 5;
#X obj 33 17 inlet;
#X obj 33 287 outlet;
#X obj 242 17 inlet;
#X obj 242 121 f \$1;
#X obj 242 143 sel 0;
#X msg 206 143 5;
#X obj 33 49 t f b;
#X msg 33 74 1 \$1;
#X obj 33 134 clip 1e-05 0.999999;
#X obj 33 256 clip -1 1;
#X connect 0 0 2 0;
#X connect 1 0 0 0;
#X connect 2 0 4 0;
#X connect 3 0 13 0;
#X connect 4 0 14 0;
#X connect 5 0 11 0;
#X connect 7 0 8 0;
#X connect 8 0 9 0;
#X connect 9 0 10 0;
#X connect 9 1 4 1;
#X connect 10 0 4 1;
#X connect 11 0 12 0;
#X connect 11 1 8 0;
#X connect 12 0 3 0;
#X connect 13 0 1 0;
#X connect 14 0 6 0;
