#N canvas 0 23 450 300 12;
#X obj 100 52 lorenz;
#X obj 100 77 unpack f f f;
#X obj 99 106 cos;
#X obj 138 105 cos;
#X obj 181 104 cos;
#X obj 99 131 *;
#X obj 99 156 *;
#X obj 243 104 * 0.5;
#X obj 243 129 + 0.5;
#X obj 243 179 + 20;
#X obj 243 154 * 20000;
#X obj 100 27 inlet;
#X obj 243 204 outlet;
#X connect 0 0 1 0;
#X connect 1 0 2 0;
#X connect 1 1 3 0;
#X connect 1 2 4 0;
#X connect 2 0 5 0;
#X connect 3 0 5 1;
#X connect 4 0 6 1;
#X connect 5 0 6 0;
#X connect 6 0 7 0;
#X connect 7 0 8 0;
#X connect 8 0 10 0;
#X connect 9 0 12 0;
#X connect 10 0 9 0;
#X connect 11 0 0 0;
