#N canvas 467 49 418 467 12;
#X obj 32 130 samplerate~;
#X msg 73 152 0;
#X obj 31 12 inlet;
#X msg 154 125 set \$1;
#X obj 229 332 array define \$1 \$2;
#X obj 32 152 / \$2;
#X obj 32 410 tabsend~ \$1;
#X obj 154 151 switch~ \$2;
#X obj 32 174 phasor~;
#X text 202 401 see fd_windows.pd;
#X obj 32 199 *~ 3.3;
#X obj 32 223 -~ 1.3;
#X obj 32 248 *~ -1;
#X obj 32 273 exp~;
#X obj 95 282 exp~;
#X obj 95 307 +~ 1;
#X obj 32 295 *~ 3.3;
#X obj 32 327 *~;
#X obj 32 352 abs~;
#X obj 32 382 pow~ -1;
#X obj 178 360 fd_smooth_brute \$1;
#X obj 178 257 t b b;
#X msg 210 284 normalize;
#X obj 98 203 t f f;
#X obj 31 34 route bang float q;
#N canvas 0 22 450 300 open 0;
#X obj 118 71 route open;
#X msg 118 95 click 0 0 0 0 0;
#X obj 119 49 inlet;
#X obj 118 119 outlet;
#X connect 0 0 1 0;
#X connect 0 1 3 0;
#X connect 1 0 3 0;
#X connect 2 0 0 0;
#X restore 229 244 pd open;
#X obj 31 63 t b b b b;
#X obj 178 204 del 1 \$2 samp;
#X obj 114 63 t f f f f;
#X obj 174 87 array size \$1;
#X connect 0 0 5 0;
#X connect 1 0 8 1;
#X connect 2 0 24 0;
#X connect 3 0 7 0;
#X connect 5 0 8 0;
#X connect 8 0 10 0;
#X connect 10 0 11 0;
#X connect 11 0 12 0;
#X connect 12 0 13 0;
#X connect 12 0 14 0;
#X connect 13 0 16 0;
#X connect 14 0 15 0;
#X connect 15 0 17 1;
#X connect 16 0 17 0;
#X connect 17 0 18 0;
#X connect 18 0 19 0;
#X connect 19 0 6 0;
#X connect 21 0 20 0;
#X connect 21 1 22 0;
#X connect 22 0 4 0;
#X connect 23 0 10 1;
#X connect 23 1 16 1;
#X connect 24 0 26 0;
#X connect 24 1 28 0;
#X connect 24 2 23 0;
#X connect 24 3 25 0;
#X connect 25 0 4 0;
#X connect 26 0 27 0;
#X connect 26 1 1 0;
#X connect 26 2 7 0;
#X connect 26 3 0 0;
#X connect 27 0 21 0;
#X connect 28 0 27 1;
#X connect 28 1 5 1;
#X connect 28 2 3 0;
#X connect 28 3 29 0;
