#N canvas 0 22 536 312 12;
#X obj 99 189 list split 1;
#X obj 82 155 list;
#X obj 82 129 t b a;
#X obj 82 66 inlet;
#X obj 126 237 outlet;
#X obj 99 212 t b a;
#X obj 82 105 list;
#X obj 383 60 inlet;
#X obj 216 109 loadbang;
#X obj 216 131 f \$1;
#X obj 216 153 sel 0;
#X msg 161 156 1;
#X obj 37 189 del \$1;
#X obj 331 242 outlet;
#X connect 0 0 5 0;
#X connect 0 1 1 1;
#X connect 0 2 13 0;
#X connect 1 0 0 0;
#X connect 2 0 1 0;
#X connect 2 1 1 1;
#X connect 3 0 6 0;
#X connect 5 0 12 0;
#X connect 5 1 4 0;
#X connect 6 0 2 0;
#X connect 7 0 6 1;
#X connect 8 0 9 0;
#X connect 9 0 10 0;
#X connect 10 0 11 0;
#X connect 10 1 12 1;
#X connect 11 0 0 1;
#X connect 11 0 12 1;
#X connect 12 0 1 0;
