#N canvas 634 56 537 391 12;
#X obj 113 278 *;
#X obj 222 258 -;
#X obj 113 228 - \$1;
#X obj 176 117 list split 2;
#X obj 176 183 -;
#X obj 113 303 + \$3;
#X msg 176 208 1 \$1;
#X obj 176 233 /;
#X obj 113 253 *;
#X obj 176 21 inlet;
#X obj 176 65 route reload;
#X obj 176 142 t a a;
#X obj 222 142 t a a;
#X obj 260 259 list split 1;
#X obj 213 166 list split 1;
#X obj 176 92 pack \$2 \$1 \$4 \$3;
#X obj 113 21 inlet;
#X obj 113 328 outlet;
#X obj 305 37 loadbang;
#X text 327 330 see fd_map2-help.pd;
#X connect 0 0 5 0;
#X connect 1 0 0 1;
#X connect 2 0 8 0;
#X connect 3 0 11 0;
#X connect 3 1 12 0;
#X connect 4 0 6 0;
#X connect 5 0 17 0;
#X connect 6 0 7 0;
#X connect 7 0 8 1;
#X connect 8 0 0 0;
#X connect 9 0 10 0;
#X connect 10 0 15 0;
#X connect 10 1 3 0;
#X connect 11 0 4 0;
#X connect 11 1 14 0;
#X connect 12 0 1 0;
#X connect 12 1 13 0;
#X connect 13 1 5 1;
#X connect 14 1 2 1;
#X connect 15 0 3 0;
#X connect 16 0 2 0;
#X connect 18 0 15 0;
