#N canvas 517 50 495 608 12;
#X obj 58 67 bang;
#X obj 72 155 f;
#X text 110 156 state;
#X obj 283 160 unpack;
#X msg 72 418 0;
#X msg 104 443 1;
#X msg 140 443 2;
#X obj 234 221 * 100;
#X obj 296 247 * 100;
#X obj 364 65 +;
#X obj 301 62 t a a;
#X obj 364 91 <= 1;
#X obj 283 113 spigot;
#X obj 352 152 spigot;
#X obj 364 118 == 0;
#X obj 263 188 t f f;
#X obj 295 220 +;
#X msg 198 416 0;
#X msg 230 442 1;
#X msg 266 442 2;
#X msg 311 418 0;
#X msg 343 443 1;
#X msg 379 443 2;
#X obj 311 391 moses 80;
#X obj 73 215 random 100;
#X obj 72 181 t b a;
#X obj 73 241 list prepend;
#X obj 73 268 route 0 1 2;
#X text 144 82 override;
#X obj 299 35 inlet probs;
#X obj 148 38 inlet state;
#X obj 50 37 inlet bang;
#X obj 131 557 outlet state;
#X obj 72 391 moses 50;
#X obj 198 390 moses 30;
#X obj 104 416 moses 90;
#X obj 230 415 moses 65;
#X obj 343 416 moses 90;
#X msg 158 107 1;
#X connect 0 0 1 0;
#X connect 1 0 25 0;
#X connect 3 0 15 0;
#X connect 3 1 16 1;
#X connect 4 0 32 0;
#X connect 5 0 32 0;
#X connect 6 0 32 0;
#X connect 7 0 33 1;
#X connect 7 0 36 1;
#X connect 8 0 34 1;
#X connect 8 0 35 1;
#X connect 9 0 11 0;
#X connect 10 0 12 0;
#X connect 10 0 13 0;
#X connect 10 1 9 0;
#X connect 11 0 12 1;
#X connect 11 0 14 0;
#X connect 12 0 3 0;
#X connect 13 0 38 0;
#X connect 14 0 13 1;
#X connect 15 0 7 0;
#X connect 15 1 16 0;
#X connect 16 0 8 0;
#X connect 17 0 32 0;
#X connect 18 0 32 0;
#X connect 19 0 32 0;
#X connect 20 0 32 0;
#X connect 21 0 32 0;
#X connect 22 0 32 0;
#X connect 23 0 20 0;
#X connect 23 1 37 0;
#X connect 24 0 26 0;
#X connect 25 0 24 0;
#X connect 25 1 26 1;
#X connect 26 0 27 0;
#X connect 27 0 33 0;
#X connect 27 1 34 0;
#X connect 27 2 23 0;
#X connect 29 0 10 0;
#X connect 30 0 1 1;
#X connect 31 0 0 0;
#X connect 33 0 4 0;
#X connect 33 1 35 0;
#X connect 34 0 17 0;
#X connect 34 1 36 0;
#X connect 35 0 5 0;
#X connect 35 1 6 0;
#X connect 36 0 18 0;
#X connect 36 1 19 0;
#X connect 37 0 21 0;
#X connect 37 1 22 0;
#X connect 38 0 1 1;
