#N canvas 574 32 432 730 12;
#X obj 73 461 until;
#X obj 73 485 f;
#X obj 110 483 + 1;
#X obj 55 345 until;
#X obj 58 373 f;
#X obj 95 371 + 1;
#X obj 50 239 until;
#X obj 53 267 f;
#X obj 90 265 + 1;
#X obj 53 289 t b f;
#X obj 58 395 t b f;
#X obj 181 605 pack f f f;
#X obj 45 108 pack \$1 \$2 \$3;
#X obj 45 163 unpack f f f;
#X obj 53 314 i 1;
#X obj 116 202 t f f;
#X obj 68 435 i 1;
#X obj 183 697 outlet;
#X msg 220 313 0;
#X obj 45 15 inlet bang or list;
#X obj 161 559 mod;
#X obj 191 561 mod;
#X obj 218 562 mod;
#X obj 50 213 t f f;
#X msg 185 667 \$3 \$2 \$1;
#X obj 45 40 route bang list;
#N canvas 0 22 434 352 check 0;
#X obj 42 29 loadbang;
#X obj 42 54 pack \$1;
#X obj 41 291 print fd_mtxout;
#X obj 84 102 bang;
#X obj 84 127 pack \$2;
#X obj 127 183 bang;
#X obj 127 208 pack \$3;
#X obj 42 79 sel;
#X obj 84 152 sel;
#X obj 127 233 sel;
#X msg 41 267 needs 3 arguments > 1 ... or send in a list;
#X obj 153 28 inlet;
#X obj 153 53 list prepend ignoring extra args;
#X connect 0 0 1 0;
#X connect 1 0 7 0;
#X connect 3 0 4 0;
#X connect 4 0 8 0;
#X connect 5 0 6 0;
#X connect 6 0 9 0;
#X connect 7 0 10 0;
#X connect 7 1 3 0;
#X connect 8 0 10 0;
#X connect 8 1 5 0;
#X connect 9 0 10 0;
#X connect 10 0 2 0;
#X connect 11 0 12 0;
#X connect 12 0 2 0;
#X restore 254 126 pd check;
#X obj 103 71 list split 3;
#X obj 176 99 route bang;
#X obj 184 636 spigot;
#X msg 337 598 1;
#X obj 45 137 t a b b b, f 19;
#X msg 378 599 0;
#X text 229 28 see fd_mtxout-help.pd;
#X obj 44 187 sel;
#X connect 0 0 1 0;
#X connect 1 0 2 0;
#X connect 1 0 20 0;
#X connect 2 0 1 1;
#X connect 3 0 4 0;
#X connect 4 0 5 0;
#X connect 4 0 10 0;
#X connect 5 0 4 1;
#X connect 6 0 7 0;
#X connect 7 0 8 0;
#X connect 7 0 9 0;
#X connect 8 0 7 1;
#X connect 9 0 14 0;
#X connect 9 1 22 0;
#X connect 10 0 16 0;
#X connect 10 1 21 0;
#X connect 11 0 29 0;
#X connect 12 0 31 0;
#X connect 13 0 34 0;
#X connect 13 1 15 0;
#X connect 13 2 16 1;
#X connect 13 2 20 1;
#X connect 14 0 3 0;
#X connect 15 0 14 1;
#X connect 15 1 21 1;
#X connect 16 0 0 0;
#X connect 18 0 7 1;
#X connect 18 0 4 1;
#X connect 18 0 1 1;
#X connect 18 0 11 2;
#X connect 18 0 11 1;
#X connect 18 0 11 0;
#X connect 18 0 22 0;
#X connect 18 0 21 0;
#X connect 18 0 20 0;
#X connect 19 0 25 0;
#X connect 20 0 11 0;
#X connect 21 0 11 1;
#X connect 22 0 11 2;
#X connect 23 0 6 0;
#X connect 23 1 22 1;
#X connect 24 0 17 0;
#X connect 25 0 12 0;
#X connect 25 1 27 0;
#X connect 27 0 31 0;
#X connect 27 1 28 0;
#X connect 28 1 26 0;
#X connect 29 0 24 0;
#X connect 30 0 29 1;
#X connect 31 0 13 0;
#X connect 31 1 30 0;
#X connect 31 2 18 0;
#X connect 31 3 32 0;
#X connect 32 0 29 1;
#X connect 34 1 23 0;
