#N canvas 0 22 269 315 12;
#X obj 17 156 /;
#X obj 50 130 +;
#X obj 50 102 abs;
#X obj 17 23 inlet;
#X obj 100 276 outlet;
#X obj 16 275 outlet;
#X obj 17 178 t f f;
#X obj 84 21 inlet;
#X obj 17 64 fd_minimax;
#X obj 99 63 r fd_norm-abs;
#X obj 100 199 * 2;
#X obj 100 223 - 1;
#X connect 0 0 6 0;
#X connect 1 0 0 1;
#X connect 2 0 1 0;
#X connect 3 0 8 0;
#X connect 6 0 5 0;
#X connect 6 1 10 0;
#X connect 7 0 8 1;
#X connect 8 0 0 0;
#X connect 8 1 2 0;
#X connect 8 2 1 1;
#X connect 9 0 8 1;
#X connect 10 0 11 0;
#X connect 11 0 4 0;
