#N canvas 0 22 450 300 12;
#X obj 10 10 cnv 4 304 21 BG0 BG0-set empty 0 0 0 4 -99865 -262144
0;
#N canvas 0 22 611 608 fd_netreceive_(main_video) 1;
#X obj 12 12 cnv 13 296 13 BG BG-set fd_netreceive_(video) 4 7 0 11
-233017 -1 0;
#X obj 168 13 nbx 4 11 0 9999 0 0 \$0-port \$0-port-set empty 0 -8
0 10 -261689 -1 -1 3001 256;
#X obj 214 13 bng 11 250 50 0 \$0-connect \$0-connect-set 1 4 6 0 8
-261689 -1 -1;
#X obj 228 13 cnv 11 70 11 \$0-cnv \$0-cnv-set disconnected 2 6 1 10
-261689 -1 0;
#X obj 133 438 s from-audio-pd;
#X obj 16 375 netreceive;
#N canvas 0 22 208 157 to-audio-pd 0;
#X obj 31 46 list prepend send;
#X obj 31 68 list trim;
#X obj 31 90 outlet;
#X obj 31 24 r to-audio-pd;
#X connect 0 0 1 0;
#X connect 1 0 2 0;
#X connect 3 0 0 0;
#X restore 26 343 pd to-audio-pd;
#X obj 196 106 r \$0-port;
#X obj 16 200 f;
#X msg 196 180 3001;
#X obj 309 113 loadbang;
#X obj 16 110 r \$0-listen;
#X msg 16 279 listen \$1;
#X obj 24 228 r \$0-listen-0;
#X obj 16 407 route connected;
#N canvas 403 350 689 371 status 0;
#X obj 317 54 sel 0 1;
#X obj 114 311 s \$0-cnv-set;
#X obj 320 16 inlet;
#X obj 242 313 s \$0-connect-set;
#X obj 383 312 s \$0-port-set;
#X msg 282 214 color 6 22 22;
#X obj 503 314 s \$0-fd_netsend;
#X msg 476 231 color 22 22 16;
#X msg 455 269 color 22 22 0;
#X msg 171 188 color 3 22 22;
#X obj 485 171 s video-loadbang;
#X msg 83 146 label disconnected;
#X msg 98 112 label connected;
#X connect 0 0 11 0;
#X connect 0 0 9 0;
#X connect 0 0 8 0;
#X connect 0 1 12 0;
#X connect 0 1 5 0;
#X connect 0 1 7 0;
#X connect 0 1 10 0;
#X connect 2 0 0 0;
#X connect 5 0 3 0;
#X connect 5 0 4 0;
#X connect 5 0 1 0;
#X connect 7 0 6 0;
#X connect 8 0 6 0;
#X connect 9 0 3 0;
#X connect 9 0 4 0;
#X connect 9 0 1 0;
#X connect 11 0 1 0;
#X connect 12 0 1 0;
#X restore 16 547 pd status;
#X msg 362 319 0;
#X obj 209 211 s \$0-port-set;
#X obj 276 281 del 200;
#X obj 116 505 sel 1;
#X obj 116 527 symbol gemwin;
#X obj 116 549 fd_visera 1;
#X msg 24 253 0;
#X text 361 265 auto listen after 200msec, f 13;
#X obj 196 138 sel;
#X text 28 77 change port number if there is no connection;
#X obj 309 135 t b b b;
#X obj 299 15 bng 8 50 10 0 empty empty empty 0 0 0 4 -262144 -1 -1
;
#X msg 316 23 menu-open;
#X obj 316 47 s pd-fd_netreceive_(main_video);
#X connect 5 0 14 0;
#X connect 6 0 5 0;
#X connect 7 0 24 0;
#X connect 8 0 12 0;
#X connect 9 0 8 1;
#X connect 9 0 17 0;
#X connect 10 0 26 0;
#X connect 11 0 8 0;
#X connect 12 0 5 0;
#X connect 13 0 22 0;
#X connect 14 0 15 0;
#X connect 14 0 19 0;
#X connect 14 1 4 0;
#X connect 16 0 15 0;
#X connect 18 0 8 0;
#X connect 19 0 20 0;
#X connect 20 0 21 0;
#X connect 22 0 12 0;
#X connect 24 0 9 0;
#X connect 24 1 8 1;
#X connect 26 0 9 0;
#X connect 26 1 18 0;
#X connect 26 2 16 0;
#X connect 27 0 28 0;
#X connect 28 0 29 0;
#X coords 0 0 300 17 300 17 2 10 10;
#X restore 12 12 pd fd_netreceive_(main_video);
#X coords 0 0 304 21 304 21 2 10 10;
