#N canvas 0 22 629 441 12;
#X obj 98 150 vline~;
#X obj 98 255 cos~;
#X obj 181 210 *~;
#X msg 98 105 0 3 \, 1 3 10 \, 0 100 20;
#X obj 98 215 *~ -0.25;
#X obj 98 298 +~;
#X obj 98 30 inlet;
#X obj 299 146 osc~ \$1;
#X obj 98 398 outlet~;
#X obj 299 31 inlet;
#X obj 98 335 *~ 0.3;
#X obj 299 106 line~;
#X msg 299 70 \$1 3;
#X connect 0 0 4 0;
#X connect 0 0 2 0;
#X connect 1 0 5 0;
#X connect 2 0 5 1;
#X connect 3 0 0 0;
#X connect 4 0 1 0;
#X connect 5 0 10 0;
#X connect 6 0 3 0;
#X connect 7 0 2 1;
#X connect 9 0 12 0;
#X connect 10 0 8 0;
#X connect 11 0 7 0;
#X connect 12 0 11 0;
