#N canvas 492 108 418 355 12;
#X obj 208 82 +~ 0.5;
#X obj 20 143 *~ 100;
#X obj 208 142 *~ 100;
#X obj 336 188 cos~;
#X obj 208 209 *~;
#X obj 149 190 cos~;
#X obj 20 210 *~;
#X obj 208 108 wrap~;
#X obj 149 142 -~ 0.5;
#X obj 149 166 *~ 0.5;
#X obj 336 140 -~ 0.5;
#X obj 336 164 *~ 0.5;
#X obj 20 308 outlet~;
#X obj 20 167 delread4~ \$1;
#X obj 208 166 delread4~ \$1;
#X obj 20 61 phasor~ 5;
#X obj 20 14 inlet;
#X connect 0 0 7 0;
#X connect 1 0 13 0;
#X connect 2 0 14 0;
#X connect 3 0 4 1;
#X connect 4 0 12 0;
#X connect 5 0 6 1;
#X connect 6 0 12 0;
#X connect 7 0 2 0;
#X connect 7 0 10 0;
#X connect 8 0 9 0;
#X connect 9 0 5 0;
#X connect 10 0 11 0;
#X connect 11 0 3 0;
#X connect 13 0 6 0;
#X connect 14 0 4 0;
#X connect 15 0 0 0;
#X connect 15 0 1 0;
#X connect 15 0 8 0;
#X connect 16 0 15 0;
