#N canvas 634 96 450 302 12;
#X obj 10 10 cnv 250 250 250 empty empty empty 20 12 0 14 -204786 -66577
0;
#X obj 228 93 cnv 10 10 10 \$0-cnv-point \$0-cnv-point-set empty 20
12 0 14 -1 -66577 0;
#N canvas 198 36 622 742 right_click_to_open 0;
#X obj 58 57 iemguts/receivecanvas 1;
#X obj 58 83 route motion mouseup mouse;
#X obj 49 134 unpack;
#X obj 49 166 t f f;
#X obj 75 259 &&;
#X obj 70 199 t f f;
#X obj 20 305 spigot;
#X obj 75 285 t f f;
#X obj 200 191 t f f;
#X obj 237 277 &&;
#X obj 232 217 t f f;
#X obj 187 323 spigot;
#X obj 237 303 t f f;
#X obj 127 457 pack;
#X obj 185 349 t b f;
#X obj 237 251 >= 10;
#X obj 75 233 >= 10;
#X obj 129 485 t a a;
#X msg 376 517 pos \$1 \$2;
#X obj 376 543 s \$0-cnv-point-set;
#X obj 137 110 bang;
#X obj 113 115 tgl 15 0 empty empty empty 17 7 0 10 -262144 -1 -1 0
1;
#X obj 53 108 spigot;
#X obj 131 515 unpack;
#X obj 131 652 pack;
#X obj 202 552 - 10;
#X obj 127 551 - 10;
#X obj 214 656 clip 0 1;
#X obj 127 608 clip 0 1;
#X obj 123 575 / 240;
#X obj 202 578 / 240;
#X obj 210 607 * -1;
#X obj 212 631 + 1;
#X obj 131 685 s \$1;
#X obj 366 425 unpack;
#X obj 366 477 pack;
#X obj 402 454 - 5;
#X obj 366 451 - 5;
#X obj 283 255 <= 260;
#X obj 121 237 <= 260;
#X obj 216 398 clip 10 260;
#X obj 25 372 clip 10 260;
#X connect 0 0 1 0;
#X connect 1 0 22 0;
#X connect 1 2 20 0;
#X connect 2 0 3 0;
#X connect 2 1 8 0;
#X connect 3 0 6 0;
#X connect 3 1 5 0;
#X connect 4 0 7 0;
#X connect 5 0 16 0;
#X connect 5 1 39 0;
#X connect 6 0 41 0;
#X connect 7 0 6 1;
#X connect 8 0 11 0;
#X connect 8 1 10 0;
#X connect 9 0 12 0;
#X connect 10 0 15 0;
#X connect 10 1 38 0;
#X connect 11 0 14 0;
#X connect 12 0 11 1;
#X connect 13 0 17 0;
#X connect 14 0 13 0;
#X connect 14 1 40 0;
#X connect 15 0 9 0;
#X connect 16 0 4 0;
#X connect 17 0 23 0;
#X connect 17 1 34 0;
#X connect 18 0 19 0;
#X connect 20 0 21 0;
#X connect 21 0 22 1;
#X connect 22 0 2 0;
#X connect 23 0 26 0;
#X connect 23 1 25 0;
#X connect 24 0 33 0;
#X connect 25 0 30 0;
#X connect 26 0 29 0;
#X connect 27 0 24 1;
#X connect 28 0 24 0;
#X connect 29 0 28 0;
#X connect 30 0 31 0;
#X connect 31 0 32 0;
#X connect 32 0 27 0;
#X connect 34 0 37 0;
#X connect 34 1 36 0;
#X connect 35 0 18 0;
#X connect 36 0 35 1;
#X connect 37 0 35 0;
#X connect 38 0 9 1;
#X connect 39 0 4 1;
#X connect 40 0 13 1;
#X connect 41 0 13 0;
#X coords 0 -1 1 1 250 18 1 10 10;
#X restore 10 263 pd right_click_to_open ____________;
#X coords 0 302 1 301 250 250 0;
