#N canvas 0 22 450 300 12;
#X obj 30 28 inlet;
#X obj 193 41 inlet;
#X obj 259 42 inlet;
#X text 35 3 red;
#X text 191 16 green;
#X text 263 16 blue;
#X obj 259 88 t b f;
#X obj 148 152 +;
#X obj 148 177 t b f;
#X obj 148 208 +;
#X obj 60 134 * -65536;
#X obj 193 66 * -256;
#X obj 259 66 * -1;
#X obj 148 239 - 1;
#X obj 148 261 outlet;
#X obj 24 55 route float list;
#X obj 62 97 unpack f f f;
#X connect 0 0 15 0;
#X connect 1 0 11 0;
#X connect 2 0 12 0;
#X connect 6 0 7 0;
#X connect 6 1 7 1;
#X connect 7 0 8 0;
#X connect 8 0 9 0;
#X connect 8 1 9 1;
#X connect 9 0 13 0;
#X connect 10 0 9 0;
#X connect 11 0 7 0;
#X connect 12 0 6 0;
#X connect 13 0 14 0;
#X connect 15 0 10 0;
#X connect 15 1 16 0;
#X connect 16 0 10 0;
#X connect 16 1 11 0;
#X connect 16 2 12 0;
