#N canvas 0 22 450 300 12;
#X obj 112 56 noise~;
#X obj 105 84 snapshot~;
#X obj 105 24 inlet;
#X obj 105 252 outlet;
#X obj 105 221 int;
#X obj 105 110 * 0.5;
#X obj 105 136 + 0.5;
#X obj 105 162 * 100000;
#X obj 248 37 loadbang;
#X msg 248 61 args;
#X obj 248 85 pdcontrol;
#X obj 248 109 t a a;
#X obj 280 132 list length;
#X obj 248 158 list prepend;
#X obj 248 182 route 1 2;
#X obj 105 191 +;
#X msg 277 228 \$2 \$1;
#X obj 277 252 -;
#X obj 277 205 t a a;
#X msg 325 232 \$1;
#X connect 0 0 1 0;
#X connect 1 0 5 0;
#X connect 2 0 1 0;
#X connect 4 0 3 0;
#X connect 5 0 6 0;
#X connect 6 0 7 0;
#X connect 7 0 15 0;
#X connect 8 0 9 0;
#X connect 9 0 10 0;
#X connect 10 0 11 0;
#X connect 11 0 13 0;
#X connect 11 1 12 0;
#X connect 12 0 13 1;
#X connect 13 0 14 0;
#X connect 14 0 7 1;
#X connect 14 1 18 0;
#X connect 15 0 4 0;
#X connect 16 0 17 0;
#X connect 17 0 7 1;
#X connect 18 0 16 0;
#X connect 18 1 19 0;
#X connect 19 0 15 1;
