#N canvas 525 50 443 395 12;
#X obj 160 127 abs;
#X obj 160 180 * -1;
#X obj 160 233 abs;
#X obj 160 286 * -1;
#X obj 207 260 * -1;
#X obj 288 136 loadbang;
#X obj 288 163 f \$1;
#X obj 160 33 inlet;
#X obj 197 346 outlet;
#X obj 106 209 f;
#X obj 181 61 t f f f f f;
#X obj 288 188 sel;
#X obj 160 101 +;
#X obj 160 154 -;
#X obj 160 207 +;
#X obj 160 259 -;
#X obj 160 313 moses;
#X connect 0 0 13 0;
#X connect 1 0 14 0;
#X connect 2 0 15 0;
#X connect 3 0 16 0;
#X connect 4 0 16 1;
#X connect 5 0 6 0;
#X connect 6 0 11 0;
#X connect 7 0 12 0;
#X connect 9 0 12 0;
#X connect 10 0 12 1;
#X connect 10 1 13 1;
#X connect 10 2 14 1;
#X connect 10 3 15 1;
#X connect 10 4 4 0;
#X connect 11 1 10 0;
#X connect 12 0 0 0;
#X connect 13 0 1 0;
#X connect 14 0 2 0;
#X connect 15 0 3 0;
#X connect 16 0 9 0;
#X connect 16 1 8 0;
