#N canvas 694 386 450 300 12;
#X obj 33 38 inlet;
#X obj 33 60 t f f;
#X obj 33 193 outlet;
#X obj 33 112 exp;
#X obj 33 134 -;
#X obj 70 92 * -1;
#X obj 70 114 exp;
#X obj 164 38 inlet;
#X obj 33 156 / 2;
#X connect 0 0 1 0;
#X connect 1 0 3 0;
#X connect 1 1 5 0;
#X connect 3 0 4 0;
#X connect 4 0 8 0;
#X connect 5 0 6 0;
#X connect 6 0 4 1;
#X connect 7 0 8 1;
#X connect 8 0 2 0;
