#N canvas 629 111 415 351 12;
#X obj 24 306 outlet~;
#X obj 228 31 fd_windows \$0 64;
#X obj 24 14 inlet;
#X obj 118 201 +~ 1;
#X obj 118 176 *~ 61;
#X obj 118 236 tabread4~;
#X obj 24 256 *~;
#X obj 258 124 fd_seltab \$0;
#X msg 258 151 set \$1;
#X obj 258 66 loadbang;
#X obj 258 91 f \$1;
#X obj 24 46 route list type;
#X obj 24 77 t a a;
#X msg 118 122 0 \, \$1 \$2;
#X obj 118 151 line~;
#X obj 24 116 unpack;
#X obj 32 144 del;
#X msg 32 169 0;
#X obj 24 201 line~;
#X connect 2 0 11 0;
#X connect 3 0 5 0;
#X connect 4 0 3 0;
#X connect 5 0 6 1;
#X connect 6 0 0 0;
#X connect 7 0 8 0;
#X connect 8 0 5 0;
#X connect 9 0 10 0;
#X connect 10 0 7 0;
#X connect 11 0 12 0;
#X connect 11 1 7 0;
#X connect 12 0 15 0;
#X connect 12 1 13 0;
#X connect 13 0 14 0;
#X connect 14 0 4 0;
#X connect 15 0 18 0;
#X connect 15 1 16 0;
#X connect 16 0 17 0;
#X connect 17 0 18 0;
#X connect 18 0 6 0;
