#N canvas 0 23 450 300 12;
#X obj 39 184 *~;
#X obj 54 135 line~;
#X obj 54 157 sqrt~;
#X obj 39 78 r~ \$2-sig;
#X obj 39 206 throw~ \$2-\$4-\$1;
#X obj 54 113 r \$2-\$3;
#X text 182 94 1: float: instance number \; 2: float: \$0 from parent
\; 3: float: signal id \; 4: float: speaker id \;;
#X connect 0 0 4 0;
#X connect 1 0 2 0;
#X connect 2 0 0 1;
#X connect 3 0 0 0;
#X connect 5 0 1 0;
