#N canvas 403 317 450 300 12;
#X obj 34 171 osc~;
#X obj 34 195 *~ -0.5;
#X obj 34 220 +~ 0.5;
#X obj 105 172 osc~;
#X obj 105 195 *~ -0.5;
#X obj 105 220 +~ 0.5;
#X obj 34 246 *~;
#X obj 99 124 t b b;
#X msg 99 147 0;
#X msg 130 147 0.5;
#X obj 34 123 / 2;
#X obj 34 146 t f f;
#X obj 34 271 outlet~;
#X obj 34 98 t f b;
#X obj 219 22 inlet;
#X obj 34 22 inlet;
#X text 76 25 blocksize;
#X text 222 54 overlap;
#X obj 34 49 route float list;
#X obj 44 73 unpack;
#X connect 0 0 1 0;
#X connect 1 0 2 0;
#X connect 2 0 6 0;
#X connect 3 0 4 0;
#X connect 4 0 5 0;
#X connect 5 0 6 1;
#X connect 6 0 12 0;
#X connect 7 0 8 0;
#X connect 7 1 9 0;
#X connect 8 0 0 1;
#X connect 9 0 3 1;
#X connect 10 0 11 0;
#X connect 11 0 0 0;
#X connect 11 1 3 0;
#X connect 13 0 10 0;
#X connect 13 1 7 0;
#X connect 14 0 10 1;
#X connect 15 0 18 0;
#X connect 18 0 13 0;
#X connect 18 1 19 0;
#X connect 19 0 13 0;
#X connect 19 1 10 1;
