#N canvas 173 189 977 532 12;
#X obj 12 51 inlet~;
#N canvas 257 281 450 278 (subpatch) 0;
#X array \$0-spectrum 256 float 0;
#X coords 0 1 255 0 202 100 2 0 0;
#X restore 108 137 graph;
#X obj 12 247 rfft~;
#X obj 12 271 *~;
#X obj 45 271 *~;
#X obj 12 295 q8_sqrt~;
#X obj 12 490 tabwrite~ \$0-spectrum;
#X obj 570 61 array size \$0-spectrum;
#X msg 563 117 set \$1;
#X obj 103 405 bang~;
#X obj 103 429 spigot;
#X obj 145 405 r \$0-graphing;
#X obj 284 119 tgl 15 0 \$0-graphing \$0-graphing-set GRAPH 17 7 0
10 #fcfcfc #000000 #000000 0 1;
#X obj 652 118 r \$0-graphing;
#X obj 507 350 bng 15 250 50 0 empty empty empty 17 7 0 10 #fcfcfc
#000000 #000000;
#X obj 507 374 f \$0;
#X obj 12 357 biquad~ 0 0 0 0 1;
#X text 241 239 |;
#X text 258 239 |;
#X text 224 239 |;
#X text 241 254 4;
#X text 206 239 |;
#X text 206 254 3;
#X text 189 239 |;
#X text 171 239 |;
#X text 153 239 |;
#X text 138 239 |;
#X text 123 239 |;
#X text 138 254 1;
#X text 171 254 2;
#X text 277 239 |;
#X text 277 254 5;
#X text 295 239 |;
#X text 307 255 kHz;
#X obj 570 39 r \$0-size;
#X floatatom 618 281 5 0 0 0 - - - 0;
#X obj 79 317 r \$0-atten;
#X obj 513 238 t f f f;
#X obj 618 304 s \$0-size;
#X obj 513 319 s \$0-blocksize;
#X obj 563 84 r \$0-blocksize;
#X obj 536 289 s \$0-atten;
#X obj 12 322 /~ 2048;
#X obj 536 265 / 2;
#X msg 504 399 \; \$1-spectrum ylabel -1 0.5 1;
#X obj 313 137 vradio 15 1 0 8 \$0-resolution \$0-resolution-set empty
0 -8 0 10 #fcfcfc #000000 #000000 0;
#X obj 366 265 r \$0-resolution;
#X msg 366 343 2 \$1;
#X obj 366 367 pow;
#X floatatom 513 214 5 0 0 0 - - - 0;
#X obj 366 316 * 1;
#X obj 366 289 + 7;
#X obj 360 94 loadbang;
#X obj 360 142 s \$0-resolution-set;
#X obj 360 118 int 5;
#X obj 281 102 nbx 5 14 -1e+37 1e+37 0 0 empty \$0-blocksize empty
0 -8 0 10 #fcfcfc #000000 #000000 0 256;
#X obj 431 110 s \$0-graphing-set;
#X obj 688 187 switch~ 2048 1;
#X text 115 239 |;
#X obj 221 118 bng 15 250 50 0 \$0-oneshot \$0-oneshot-set ONESHOT
17 7 0 10 #fcfcfc #000000 #000000;
#X obj 75 461 r \$0-oneshot;
#X obj 721 152 r \$0-oneshot;
#X obj 431 86 int 0;
#X obj 224 102 nbx 5 14 -1e+37 1e+37 0 0 \$0-amp \$0-amp-set empty
0 -8 0 10 #fcfcfc #000000 #000000 0 256;
#X obj 12 391 *~;
#X obj 248 329 r \$0-amp;
#X obj 248 372 sig~ 1;
#X obj 369 191 s \$0-amp-set;
#X obj 248 351 / 100;
#X obj 369 167 int 100;
#X obj 12 416 clip~ 0 1;
#X obj 19 75 outlet~;
#X obj 323 37 inlet;
#N canvas 68 74 1046 458 params 0;
#X obj 37 37 inlet;
#X obj 49 220 s \$0-graphing-set;
#X obj 137 178 s \$0-oneshot-set;
#X obj 297 192 s \$0-resolution-set;
#X floatatom 643 167 13 0 0 0 - - - 0;
#X msg 784 194 2 7;
#X obj 784 218 pow;
#X floatatom 784 242 5 0 0 0 - - - 0;
#X msg 643 80 128;
#X floatatom 784 289 5 0 0 0 - - - 0;
#X obj 784 265 log 2;
#X obj 643 143 log 2;
#X obj 643 190 - 7;
#X floatatom 643 214 5 0 0 0 - - - 0;
#X obj 207 112 log 2;
#X obj 207 136 - 7;
#X obj 37 80 route graph float oneshot block res amp;
#X connect 0 0 16 0;
#X connect 4 0 12 0;
#X connect 5 0 6 0;
#X connect 6 0 7 0;
#X connect 7 0 10 0;
#X connect 8 0 11 0;
#X connect 10 0 9 0;
#X connect 11 0 4 0;
#X connect 12 0 13 0;
#X connect 14 0 15 0;
#X connect 15 0 3 0;
#X connect 16 0 1 0;
#X connect 16 1 1 0;
#X connect 16 2 2 0;
#X connect 16 3 14 0;
#X connect 16 4 3 0;
#X restore 323 61 pd params;
#X obj 737 412 outlet;
#X obj 700 239 r \$0-blocksize;
#X msg 707 296 block \$1;
#X obj 786 295 r \$0-graphing;
#X obj 806 347 r \$0-oneshot;
#X obj 619 257 / 16;
#X connect 0 0 2 0;
#X connect 0 0 71 0;
#X connect 2 0 3 0;
#X connect 2 0 3 1;
#X connect 2 1 4 0;
#X connect 2 1 4 1;
#X connect 3 0 5 0;
#X connect 4 0 5 0;
#X connect 5 0 42 0;
#X connect 8 0 57 0;
#X connect 9 0 10 0;
#X connect 10 0 6 0;
#X connect 11 0 10 1;
#X connect 13 0 57 0;
#X connect 14 0 15 0;
#X connect 15 0 44 0;
#X connect 16 0 64 0;
#X connect 34 0 7 0;
#X connect 35 0 38 0;
#X connect 36 0 42 1;
#X connect 37 0 39 0;
#X connect 37 1 43 0;
#X connect 37 1 79 0;
#X connect 40 0 8 0;
#X connect 42 0 16 0;
#X connect 43 0 41 0;
#X connect 46 0 51 0;
#X connect 47 0 48 0;
#X connect 48 0 49 0;
#X connect 49 0 37 0;
#X connect 50 0 47 0;
#X connect 51 0 50 0;
#X connect 52 0 54 0;
#X connect 52 0 62 0;
#X connect 52 0 69 0;
#X connect 54 0 53 0;
#X connect 60 0 6 0;
#X connect 61 0 57 0;
#X connect 62 0 56 0;
#X connect 64 0 70 0;
#X connect 65 0 68 0;
#X connect 66 0 64 1;
#X connect 68 0 66 0;
#X connect 69 0 67 0;
#X connect 70 0 6 0;
#X connect 72 0 73 0;
#X connect 75 0 76 0;
#X connect 76 0 74 0;
#X connect 77 0 74 0;
#X connect 78 0 74 0;
#X connect 79 0 35 0;
#X coords 0 -1 1 1 237 174 1 100 100;
