#N canvas 0 22 450 300 12;
#X obj 40 199 sin;
#X obj 40 164 * 6.28318;
#X obj 109 127 * 3.14159;
#X obj 40 16 inlet;
#X obj 40 243 outlet;
#X obj 218 21 inlet;
#X obj 109 75 f \$1;
#X obj 40 43 t f b;
#X connect 0 0 4 0;
#X connect 1 0 0 0;
#X connect 2 0 1 1;
#X connect 3 0 7 0;
#X connect 5 0 6 1;
#X connect 6 0 2 0;
#X connect 7 0 1 0;
#X connect 7 1 6 0;
