#N canvas 0 22 686 575 12;
#X obj 44 48 delwrite~ \$0-pvib 200;
#X obj 59 315 +~ 10;
#X obj 59 339 delread4~ \$0-pvib;
#X obj 59 267 cos~;
#X obj 59 242 phasor~;
#X obj 59 290 *~ 1;
#X obj 190 383 cos~;
#X obj 190 334 phasor~;
#X obj 320 301 osc~ 1;
#X obj 254 210 /;
#X obj 254 315 phasor~;
#X obj 254 339 cos~;
#X obj 254 234 pack f 100;
#X obj 254 155 t f f;
#X obj 254 259 line~;
#X obj 190 358 -~;
#X obj 417 187 / 127;
#X obj 417 211 * 5;
#X obj 417 235 pack f 10;
#X obj 417 259 line~;
#X obj 320 278 *~;
#X obj 44 22 inlet~;
#X obj 494 26 inlet;
#X obj 494 154 t f f;
#X obj 586 459 switch~;
#X obj 59 455 *~;
#X obj 59 482 outlet~;
#X obj 526 436 fd_switch;
#X obj 254 38 inlet;
#X msg 254 187 1 \$1;
#X obj 526 413 !=;
#X obj 320 325 *~ 2;
#X obj 59 216 delread~ \$0-s;
#X obj 320 402 delwrite~ \$0-s;
#X connect 1 0 2 0;
#X connect 1 0 7 0;
#X connect 2 0 25 0;
#X connect 3 0 5 0;
#X connect 4 0 3 0;
#X connect 5 0 1 0;
#X connect 6 0 33 0;
#X connect 7 0 15 0;
#X connect 8 0 31 0;
#X connect 9 0 12 0;
#X connect 10 0 11 0;
#X connect 11 0 15 1;
#X connect 12 0 14 0;
#X connect 13 0 29 0;
#X connect 13 1 12 1;
#X connect 14 0 10 0;
#X connect 14 0 20 0;
#X connect 15 0 6 0;
#X connect 16 0 17 0;
#X connect 17 0 18 0;
#X connect 18 0 19 0;
#X connect 19 0 20 1;
#X connect 19 0 33 0;
#X connect 20 0 8 0;
#X connect 21 0 0 0;
#X connect 22 0 23 0;
#X connect 23 0 16 0;
#X connect 23 1 30 0;
#X connect 25 0 26 0;
#X connect 27 0 25 1;
#X connect 27 1 24 0;
#X connect 28 0 13 0;
#X connect 29 0 9 0;
#X connect 30 0 27 0;
#X connect 31 0 33 0;
#X connect 32 0 4 0;
