#N canvas 0 22 506 552 12;
#X obj 34 407 * 2048;
#X obj 29 299 iterate;
#X obj 34 377 / 100;
#X obj 23 233 * 44100;
#X obj 28 266 t f f;
#X obj 147 432 +;
#X msg 179 301 set \$1;
#X msg 303 290 0;
#X obj 25 87 list split 2;
#X obj 23 195 -;
#X obj 24 119 swap;
#X obj 57 163 t f f;
#X obj 92 233 * 44100;
#X obj 43 335 t f f;
#X obj 34 443 + 1;
#X obj 34 516 array set \$1;
#X obj 159 165 array size \$1;
#X obj 22 7 inlet;
#X obj 222 53 inlet;
#X obj 159 189 t f f;
#X obj 34 479 tabread;
#X text 226 427 \$1 --> name of target array;
#X text 224 445 \$2 --> index of [fd_windows];
#X obj 235 104 loadbang;
#X obj 179 275 fd_seltab \$2;
#X obj 355 387 - 3;
#X obj 369 266 f \$2;
#X msg 371 289 symbol \$1-exp;
#X obj 355 363 array size;
#X obj 371 313 t b a;
#X obj 228 133 t b b;
#X obj 224 77 t b b;
#X obj 24 47 route list set;
#X msg 217 469 symbol \$1;
#X obj 216 497 t a a;
#X obj 156 95 t b a;
#X obj 160 68 symbol;
#X connect 0 0 14 0;
#X connect 1 0 13 0;
#X connect 2 0 0 0;
#X connect 3 0 4 0;
#X connect 4 0 1 0;
#X connect 4 1 2 1;
#X connect 5 0 15 1;
#X connect 6 0 20 0;
#X connect 7 0 5 1;
#X connect 8 0 10 0;
#X connect 8 1 24 0;
#X connect 9 0 3 0;
#X connect 10 0 9 0;
#X connect 10 1 11 0;
#X connect 11 0 9 1;
#X connect 11 1 12 0;
#X connect 12 0 5 1;
#X connect 13 0 2 0;
#X connect 13 1 5 0;
#X connect 14 0 20 0;
#X connect 16 0 19 0;
#X connect 17 0 32 0;
#X connect 18 0 31 0;
#X connect 19 0 3 1;
#X connect 19 1 12 1;
#X connect 20 0 15 0;
#X connect 23 0 30 0;
#X connect 24 0 6 0;
#X connect 25 0 0 1;
#X connect 26 0 27 0;
#X connect 27 0 29 0;
#X connect 28 0 25 0;
#X connect 29 0 28 0;
#X connect 29 1 28 1;
#X connect 30 0 16 0;
#X connect 30 1 26 0;
#X connect 31 0 30 0;
#X connect 31 1 7 0;
#X connect 32 0 8 0;
#X connect 32 1 36 0;
#X connect 33 0 34 0;
#X connect 34 0 15 2;
#X connect 34 1 16 1;
#X connect 35 0 30 0;
#X connect 35 1 33 0;
#X connect 36 0 35 0;
