#N canvas 125 118 456 540 12;
#X declare -path array-abs;
#X obj 156 120 t b b;
#X obj 23 9 r fd_windows-\$1;
#X obj 156 181 fd_sinc~ \$1-sin \$2 ______;
#X obj 156 201 fd_expo~ \$1-exp \$2 ______;
#X obj 156 221 fd_hann~ \$1-han \$2 ______;
#X obj 156 241 fd_rexpo~ \$1-rex \$2 _____;
#X obj 156 261 fd_gauss~ \$1-gau \$2 _____;
#X obj 156 281 fd_trapezoid~ \$1-tra \$2 _;
#X obj 156 301 fd_blackman~ \$1-bla \$2 __;
#X obj 156 321 fd_triangle~ \$1-tri \$2 __;
#X obj 156 341 fd_cauchy~ \$1-cau \$2 ____;
#X obj 156 381 fd_poisson~ \$1-poi \$2 ___;
#X obj 156 361 fd_logistic~ \$1-log \$2 __;
#X obj 156 401 fd_arcsin~ \$1-arc \$2 ____;
#N canvas 314 406 450 300 turn-dspon 0;
#X obj 45 62 fd_dspon;
#X obj 23 131 switch~;
#X obj 35 23 inlet, f 11;
#X obj 126 100 tgl 15 0 empty empty empty 17 7 0 10 #fcfcfc #000000 #000000 0 1;
#X connect 0 0 1 0;
#X connect 0 1 3 0;
#X connect 2 0 0 0;
#X restore 196 147 pd turn-dspon ______;
#X obj 156 421 fd_welch~ \$1-wel \$2 _____;
#X obj 156 3 inlet;
#X obj 156 441 fd_noise~ \$1-noi \$2 _____;
#X obj 23 53 route sin exp han rex gau tra bla tri cau log poi arc wel noi, f 15;
#X obj 156 47 fd_dsp-bang;
#X obj 165 145 bng 15 250 50 0 empty empty empty 17 7 0 10 #fcfcfc #000000 #000000;
#X obj 25 432 route float bang;
#X text 36 478 use [fd_seltab] on parent patch;
#X obj 156 25 route bang;
#X obj 199 3 bng 15 250 50 0 empty empty empty 17 7 0 10 #fcfcfc #000000 #000000;
#X obj 156 84 t b b;
#X obj 260 29 declare -path array-abs;
#N canvas 598 169 450 300 range 0;
#X obj 15 7 inlet;
#X obj 15 32 f \$3;
#X obj 16 133 list prepend \$1;
#X msg 14 155 \; \$1-\$2-range -1 1;
#X obj 15 57 sel 1 0;
#X obj 255 18 text define -k \$0-tables;
#A set sin \; exp \; han \; rex \; gau \; tra \; bla \; tri \; cau \; log \; poi \; arc \; wel \; noi \;;
#X msg 15 82 line 0 \, auto;
#X obj 15 107 text sequence \$0-tables;
#X obj 225 129 list prepend \$1;
#X msg 224 78 line 0 \, auto;
#X obj 224 103 text sequence \$0-tables;
#X msg 223 151 \; \$1-\$2-smooth bang;
#X connect 0 0 1 0;
#X connect 1 0 4 0;
#X connect 2 0 3 0;
#X connect 4 0 6 0;
#X connect 4 1 9 0;
#X connect 6 0 7 0;
#X connect 7 0 2 0;
#X connect 8 0 11 0;
#X connect 9 0 10 0;
#X connect 10 0 8 0;
#X restore 222 78 pd range - smooth;
#X connect 0 0 2 0;
#X connect 0 0 3 0;
#X connect 0 0 4 0;
#X connect 0 0 5 0;
#X connect 0 0 6 0;
#X connect 0 0 7 0;
#X connect 0 0 8 0;
#X connect 0 0 9 0;
#X connect 0 0 10 0;
#X connect 0 0 11 0;
#X connect 0 0 12 0;
#X connect 0 0 13 0;
#X connect 0 0 15 0;
#X connect 0 0 17 0;
#X connect 0 0 20 0;
#X connect 0 1 14 0;
#X connect 1 0 18 0;
#X connect 16 0 23 0;
#X connect 18 0 2 0;
#X connect 18 1 3 0;
#X connect 18 2 4 0;
#X connect 18 3 5 0;
#X connect 18 4 6 0;
#X connect 18 5 7 0;
#X connect 18 6 8 0;
#X connect 18 7 9 0;
#X connect 18 8 10 0;
#X connect 18 9 12 0;
#X connect 18 10 11 0;
#X connect 18 11 13 0;
#X connect 18 12 15 0;
#X connect 18 13 17 0;
#X connect 18 14 21 0;
#X connect 19 0 25 0;
#X connect 21 0 2 0;
#X connect 21 0 17 0;
#X connect 21 0 15 0;
#X connect 21 0 13 0;
#X connect 21 0 12 0;
#X connect 21 0 11 0;
#X connect 21 0 10 0;
#X connect 21 0 9 0;
#X connect 21 0 8 0;
#X connect 21 0 7 0;
#X connect 21 0 6 0;
#X connect 21 0 5 0;
#X connect 21 0 4 0;
#X connect 21 0 3 0;
#X connect 21 1 0 0;
#X connect 23 0 19 0;
#X connect 23 1 18 0;
#X connect 24 0 23 0;
#X connect 25 0 27 0;
#X connect 25 1 0 0;
