#N canvas 528 60 522 415 12;
#X obj 14 18 inlet;
#X obj 91 183 t f f f;
#X obj 91 345 outlet;
#X obj 117 275 - 1;
#X obj 198 64 t b b;
#X msg 198 91 0 \, 1 \, 2 \, 3 \, 4 \, 5 \, 6 \, 7 \, 8 \, 9 \, 10
\, 11, f 18;
#X obj 198 145 t f f;
#X obj 198 339 +;
#X obj 250 258 /;
#X obj 271 177 max 1e-06;
#X obj 14 44 t b b;
#X obj 357 13 inlet;
#X obj 357 39 route bang input;
#N canvas 0 22 941 509 init 0;
#X obj 25 75 t b b b b b b b b b b b b;
#X obj 25 133 f \$1;
#X obj 25 233 t f b;
#X msg 317 326 0;
#X obj 73 233 t f b;
#X obj 121 233 t f b;
#X obj 169 233 t f b;
#X obj 217 233 t f b;
#X obj 265 233 t f b;
#X msg 365 326 1;
#X msg 413 326 2;
#X msg 461 326 3;
#X msg 509 326 4;
#X msg 557 326 5;
#X obj 313 233 t f b;
#X obj 361 233 t f b;
#X obj 409 233 t f b;
#X obj 457 233 t f b;
#X obj 505 233 t f b;
#X obj 553 233 t f b;
#X msg 605 326 6;
#X msg 653 326 7;
#X msg 701 326 8;
#X msg 749 326 9;
#X msg 797 326 10;
#X msg 845 326 11;
#X obj 25 9 inlet;
#X obj 25 209 / 100;
#X obj 73 209 / 100;
#X obj 121 209 / 100;
#X obj 169 209 / 100;
#X obj 217 209 / 100;
#X obj 265 209 / 100;
#X obj 313 209 / 100;
#X obj 361 209 / 100;
#X obj 409 209 / 100;
#X obj 457 209 / 100;
#X obj 505 209 / 100;
#X obj 553 209 / 100;
#X obj 73 133 f \$2;
#X obj 121 133 f \$3;
#X obj 169 133 f \$4;
#X obj 217 133 f \$5;
#X obj 265 133 f \$6;
#X obj 313 133 f \$7;
#X obj 361 133 f \$8;
#X obj 409 133 f \$9;
#X obj 457 133 f \$10;
#X obj 505 133 f \$11;
#X obj 553 133 f \$12;
#X obj 632 9 inlet;
#X obj 632 63 unpack f f f f f f f f f f f f;
#X obj 34 46 loadbang;
#X obj 25 437 array set \$0-probs;
#X connect 0 0 1 0;
#X connect 0 1 39 0;
#X connect 0 2 40 0;
#X connect 0 3 41 0;
#X connect 0 4 42 0;
#X connect 0 5 43 0;
#X connect 0 6 44 0;
#X connect 0 7 45 0;
#X connect 0 8 46 0;
#X connect 0 9 47 0;
#X connect 0 10 48 0;
#X connect 0 11 49 0;
#X connect 1 0 27 0;
#X connect 2 0 53 0;
#X connect 2 1 3 0;
#X connect 3 0 53 1;
#X connect 4 0 53 0;
#X connect 4 1 9 0;
#X connect 5 0 53 0;
#X connect 5 1 10 0;
#X connect 6 0 53 0;
#X connect 6 1 11 0;
#X connect 7 0 53 0;
#X connect 7 1 12 0;
#X connect 8 0 53 0;
#X connect 8 1 13 0;
#X connect 9 0 53 1;
#X connect 10 0 53 1;
#X connect 11 0 53 1;
#X connect 12 0 53 1;
#X connect 13 0 53 1;
#X connect 14 0 53 0;
#X connect 14 1 20 0;
#X connect 15 0 53 0;
#X connect 15 1 21 0;
#X connect 16 0 53 0;
#X connect 16 1 22 0;
#X connect 17 0 53 0;
#X connect 17 1 23 0;
#X connect 18 0 53 0;
#X connect 18 1 24 0;
#X connect 19 0 53 0;
#X connect 19 1 25 0;
#X connect 20 0 53 1;
#X connect 21 0 53 1;
#X connect 22 0 53 1;
#X connect 23 0 53 1;
#X connect 24 0 53 1;
#X connect 25 0 53 1;
#X connect 26 0 0 0;
#X connect 27 0 2 0;
#X connect 28 0 4 0;
#X connect 29 0 5 0;
#X connect 30 0 6 0;
#X connect 31 0 7 0;
#X connect 32 0 8 0;
#X connect 33 0 14 0;
#X connect 34 0 15 0;
#X connect 35 0 16 0;
#X connect 36 0 17 0;
#X connect 37 0 18 0;
#X connect 38 0 19 0;
#X connect 39 0 28 0;
#X connect 40 0 29 0;
#X connect 41 0 30 0;
#X connect 42 0 31 0;
#X connect 43 0 32 0;
#X connect 44 0 33 0;
#X connect 45 0 34 0;
#X connect 46 0 35 0;
#X connect 47 0 36 0;
#X connect 48 0 37 0;
#X connect 49 0 38 0;
#X connect 50 0 51 0;
#X connect 51 0 27 0;
#X connect 51 1 28 0;
#X connect 51 2 29 0;
#X connect 51 3 30 0;
#X connect 51 4 31 0;
#X connect 51 5 32 0;
#X connect 51 6 33 0;
#X connect 51 7 34 0;
#X connect 51 8 35 0;
#X connect 51 9 36 0;
#X connect 51 10 37 0;
#X connect 51 11 38 0;
#X connect 52 0 0 0;
#X restore 357 65 pd init;
#X obj 380 296 array define \$0-probs 12;
#X f 12;
#X obj 380 337 array define \$0-dearth 12;
#X f 12;
#X obj 198 365 array set \$0-dearth, f 9;
#X obj 117 302 array set \$0-dearth, f 9;
#X obj 271 135 array sum \$0-probs, f 9;
#X obj 14 122 array max \$0-dearth, f 10;
#X obj 117 219 array get \$0-dearth 0 1, f 9;
#X obj 198 282 array get \$0-dearth 0 1, f 9;
#X obj 250 203 array get \$0-probs 0 1, f 9;
#X connect 0 0 10 0;
#X connect 1 0 2 0;
#X connect 1 1 20 0;
#X connect 1 2 17 1;
#X connect 3 0 17 0;
#X connect 4 0 5 0;
#X connect 4 1 18 0;
#X connect 5 0 6 0;
#X connect 6 0 21 0;
#X connect 6 1 16 1;
#X connect 6 1 22 0;
#X connect 7 0 16 0;
#X connect 8 0 7 1;
#X connect 9 0 8 1;
#X connect 10 0 19 0;
#X connect 10 1 4 0;
#X connect 11 0 12 0;
#X connect 12 0 13 0;
#X connect 12 1 13 1;
#X connect 18 0 9 0;
#X connect 19 1 1 0;
#X connect 20 0 3 0;
#X connect 21 0 7 0;
#X connect 22 0 8 0;
