#N canvas -163 38 1201 634 12;
#X obj 199 407 pack;
#X obj 298 319 t b f;
#X obj 160 241 / 127;
#X obj 303 257 / 127;
#X obj 552 22 inlet;
#X obj 170 494 outlet;
#X obj 189 432 t a a;
#X obj 100 100 cnv 20 175 40 empty \$0-cnv offset-range-shape\ 0..14 5 -10 0 12 #bbbbbb #000000 0;
#X obj 103 100 hsl 170 20 0 127 0 0 \$0-selector-range \$0-selector-range-set range -2 10 0 12 #fcfcfc #000000 #000000 0 1;
#X obj 103 120 hsl 170 20 0 127 0 0 \$0-selector-offset \$0-selector-offset-set offset -2 10 0 12 #fcfcfc #000000 #000000 0 1;
#X obj 657 93 loadbang;
#X msg 657 118 args;
#X obj 657 143 pdcontrol;
#X obj 594 290 swap;
#X obj 595 318 -;
#X obj 600 479 moses;
#X msg 608 534 WARNING: max cant be less than min;
#X obj 722 453 s \$0-max;
#X obj 347 292 r \$0-max;
#X obj 179 266 r \$0-max;
#X obj 157 345 +;
#X obj 302 359 +;
#X obj 740 388 s \$0-min;
#X obj 733 323 unpack;
#X obj 190 324 r \$0-min;
#X obj 344 350 r \$0-min;
#X obj 303 294 * 1;
#X obj 159 292 * 1;
#X obj 595 346 sel;
#X msg 662 396 1;
#X msg 673 327 0;
#X floatatom 672 506 5 0 0 0 - - - 0;
#X floatatom 347 317 5 0 0 0 - - - 0;
#X floatatom 344 375 5 0 0 0 - - - 0;
#X obj 659 169 list split 1;
#X obj 585 371 t b b;
#X obj 866 364 s \$0-cnv;
#X obj 866 309 list prepend \$1;
#X obj 590 232 t a a a, f 16;
#X obj 552 47 route range default;
#X msg 629 16 range 0 100;
#X msg 866 339 label offset-range-\$1\\\ \$2..\$3;
#X obj 324 199 r \$0-selector-range;
#X obj 159 201 r \$0-selector-offset;
#X obj 608 559 print offset-range-\$1;
#X obj 265 472 s range-selector-\$1;
#X connect 0 0 6 0;
#X connect 1 0 0 0;
#X connect 1 1 21 0;
#X connect 2 0 27 0;
#X connect 3 0 26 0;
#X connect 4 0 39 0;
#X connect 6 0 5 0;
#X connect 6 1 45 0;
#X connect 10 0 11 0;
#X connect 11 0 12 0;
#X connect 12 0 34 0;
#X connect 13 0 14 0;
#X connect 13 1 14 1;
#X connect 14 0 28 0;
#X connect 15 0 16 0;
#X connect 15 1 17 0;
#X connect 15 1 31 0;
#X connect 16 0 44 0;
#X connect 18 0 26 1;
#X connect 18 0 32 0;
#X connect 19 0 27 1;
#X connect 20 0 0 0;
#X connect 21 0 0 1;
#X connect 23 0 22 0;
#X connect 24 0 20 1;
#X connect 25 0 21 1;
#X connect 25 0 33 0;
#X connect 26 0 1 0;
#X connect 27 0 20 0;
#X connect 28 0 35 0;
#X connect 28 1 15 0;
#X connect 29 0 17 0;
#X connect 30 0 22 0;
#X connect 34 0 37 1;
#X connect 34 1 38 0;
#X connect 35 0 30 0;
#X connect 35 1 29 0;
#X connect 37 0 41 0;
#X connect 38 0 13 0;
#X connect 38 1 23 0;
#X connect 38 2 37 0;
#X connect 39 0 38 0;
#X connect 39 1 11 0;
#X connect 40 0 39 0;
#X connect 41 0 36 0;
#X connect 42 0 3 0;
#X connect 43 0 2 0;
#X coords 0 -1 1 1 175 40 2 100 100;
