#N canvas -163 38 1578 634 12;
#X obj 199 407 pack;
#X obj 298 319 t b f;
#X obj 552 22 inlet;
#X obj 234 546 outlet;
#X obj 101 101 cnv 20 100 40 empty \$0-cnv offset-range-\$1\ \$2..\$3 5 -10 0 12 #ffffff #000000 0;
#X obj 657 93 loadbang;
#X msg 657 118 args;
#X obj 657 143 pdcontrol;
#X obj 302 359 +;
#X obj 733 323 unpack;
#X obj 659 169 list split 1;
#X obj 866 364 s \$0-cnv;
#X obj 866 309 list prepend \$1;
#X obj 590 232 t a a a, f 16;
#X msg 629 16 range 0 100;
#X obj 1053 530 s preset-manager;
#X obj 1087 219 pack f 1;
#X obj 910 212 pack f 1;
#X obj 928 242 line;
#X obj 1110 245 line;
#X obj 936 57 unpack f f f;
#X obj 1041 481 list append 1;
#X obj 1151 173 t f f f;
#X obj 215 446 t a a a;
#X floatatom 204 117 6 0 0 2 speed \$0-packed-pair-\$1-speed-set \$0-packed-pair-\$1-speed 12;
#X obj 1152 3 loadbang;
#X msg 1152 28 1;
#X floatatom 105 117 6 0 0 2 first \$0-packed-pair-\$1-first-num-set \$0-packed-pair-\$1-first-num 0;
#X floatatom 153 117 6 0 0 2 second \$0-packed-pair-\$1-second-num-set \$0-packed-pair-\$1-second-num 0;
#X obj 552 47 route pair default;
#X obj 1053 505 list prepend packed-pair-\$1-preset;
#X obj 911 20 r packed-pair-\$1-preset;
#X obj 931 271 s \$0-packed-pair-\$1-first-num-set;
#X obj 1169 251 s \$0-packed-pair-\$1-second-num-set;
#X obj 112 181 r \$0-packed-pair-\$1-first-num;
#X obj 300 271 r \$0-packed-pair-\$1-second-num;
#X obj 295 515 s packed-pair-\$1;
#X obj 1152 62 s \$0-packed-pair-\$1-speed-set;
#X obj 1150 145 r \$0-packed-pair-\$1-speed-set;
#X msg 866 339 label \$1\\\ \$2..\$3;
#X connect 0 0 23 0;
#X connect 1 0 0 0;
#X connect 1 1 8 0;
#X connect 2 0 29 0;
#X connect 5 0 6 0;
#X connect 6 0 7 0;
#X connect 7 0 10 0;
#X connect 8 0 0 1;
#X connect 10 0 12 1;
#X connect 10 1 13 0;
#X connect 12 0 39 0;
#X connect 13 1 9 0;
#X connect 13 2 12 0;
#X connect 14 0 29 0;
#X connect 16 0 19 0;
#X connect 17 0 18 0;
#X connect 18 0 32 0;
#X connect 19 0 33 0;
#X connect 20 0 17 0;
#X connect 20 1 16 0;
#X connect 20 2 37 0;
#X connect 21 0 30 0;
#X connect 22 0 17 1;
#X connect 22 1 16 1;
#X connect 22 2 21 1;
#X connect 23 0 21 0;
#X connect 23 1 3 0;
#X connect 23 2 36 0;
#X connect 25 0 26 0;
#X connect 26 0 37 0;
#X connect 29 0 13 0;
#X connect 29 1 6 0;
#X connect 30 0 15 0;
#X connect 31 0 20 0;
#X connect 34 0 0 0;
#X connect 35 0 1 0;
#X connect 38 0 22 0;
#X connect 39 0 11 0;
#X coords 0 -1 1 1 153 43 2 100 100;
