#N canvas -163 38 1457 634 12;
#N canvas 115 331 1920 998 selector-logic 0;
#X obj 570 12 r \$0-selector-right;
#X floatatom 590 37 5 0 0 0 - - - 0;
#X obj 538 261 f;
#X obj 501 363 spigot;
#X floatatom 311 88 5 0 0 0 - - - 0;
#X obj 213 260 f;
#X obj 151 348 spigot;
#X obj 291 63 r \$0-selector-left;
#X obj 549 330 t f f;
#X obj 598 353 ==;
#X obj 563 375 spigot;
#X obj 496 320 t f f;
#X obj 563 400 s \$0-selector-left-set;
#X obj 212 312 t f f;
#X obj 264 349 ==;
#X obj 234 389 spigot;
#X obj 158 308 t f f;
#X obj 234 414 s \$0-selector-right-set;
#X obj 755 277 -;
#X obj 755 302 / 2;
#X obj 849 409 +;
#X obj 771 181 t b f f;
#X msg 849 434 set \$1;
#X obj 849 459 s \$0-selector-mid-set;
#X obj 974 57 r \$0-selector-mid;
#X obj 971 314 -;
#X obj 1011 401 s \$0-selector-left-set;
#X obj 1011 363 moses 127;
#X obj 1169 313 +;
#X obj 1192 370 moses 127;
#X obj 1192 395 s \$0-selector-right-set;
#X obj 782 334 t f f;
#X obj 1065 258 t f f;
#X obj 1174 338 moses;
#X obj 971 339 moses;
#X obj 980 274 t f f;
#X obj 551 160 t f b f f f;
#X obj 285 120 t a b f f f, f 63;
#X obj 1051 207 f;
#X obj 972 182 t f b;
#X obj 215 281 >=;
#X obj 559 296 <=;
#X obj 150 446 s \$0-selector-left-out;
#X obj 505 449 s \$0-selector-right-out;
#X obj 503 406 change;
#X obj 150 397 change;
#X connect 0 0 1 0;
#X connect 0 0 36 0;
#X connect 2 0 41 0;
#X connect 3 0 44 0;
#X connect 5 0 40 0;
#X connect 6 0 45 0;
#X connect 7 0 4 0;
#X connect 7 0 37 0;
#X connect 8 0 3 1;
#X connect 8 1 9 0;
#X connect 9 0 10 1;
#X connect 10 0 12 0;
#X connect 11 0 3 0;
#X connect 11 1 10 0;
#X connect 13 0 6 1;
#X connect 13 1 14 0;
#X connect 14 0 15 1;
#X connect 15 0 17 0;
#X connect 16 0 6 0;
#X connect 16 1 15 0;
#X connect 18 0 19 0;
#X connect 19 0 31 0;
#X connect 20 0 22 0;
#X connect 21 0 18 0;
#X connect 21 1 18 1;
#X connect 21 2 20 1;
#X connect 22 0 23 0;
#X connect 24 0 39 0;
#X connect 25 0 34 0;
#X connect 27 0 26 0;
#X connect 28 0 33 0;
#X connect 29 0 30 0;
#X connect 31 0 20 0;
#X connect 31 1 38 1;
#X connect 32 0 25 1;
#X connect 32 1 28 1;
#X connect 33 1 29 0;
#X connect 34 1 27 0;
#X connect 35 0 25 0;
#X connect 35 1 28 0;
#X connect 36 0 11 0;
#X connect 36 1 2 0;
#X connect 36 2 5 1;
#X connect 36 3 41 1;
#X connect 36 4 18 0;
#X connect 37 0 16 0;
#X connect 37 1 5 0;
#X connect 37 2 40 1;
#X connect 37 3 2 1;
#X connect 37 4 21 0;
#X connect 38 0 32 0;
#X connect 39 0 35 0;
#X connect 39 1 38 0;
#X connect 40 0 13 0;
#X connect 41 0 8 0;
#X connect 44 0 43 0;
#X connect 45 0 42 0;
#X restore 356 100 pd selector-logic;
#X obj 192 208 r \$0-selector-left-out;
#X obj 199 407 pack;
#X obj 304 231 r \$0-selector-right-out;
#X obj 298 319 t b f;
#X obj 265 473 s range-selector-\$1;
#X obj 193 243 / 127;
#X obj 303 257 / 127;
#X obj 552 22 inlet;
#X obj 170 494 outlet;
#X obj 189 432 t a a;
#X obj 100 100 cnv 20 175 60 empty \$0-cnv speed-1\ 0..4000 5 -10 0 12 #bbbbbb #000000 0;
#X obj 103 100 hsl 170 20 0 127 0 0 \$0-selector-left \$0-selector-left-set left -2 10 0 12 #fcfcfc #000000 #000000 0 1;
#X obj 103 120 hsl 170 20 0 127 0 0 \$0-selector-right \$0-selector-right-set right -2 10 0 12 #fcfcfc #000000 #000000 0 1;
#X obj 103 140 hsl 170 20 0 127 0 0 \$0-selector-mid \$0-selector-mid-set mid -2 10 0 12 #fcfcfc #0400ff #000000 0 1;
#X obj 657 93 loadbang;
#X msg 657 118 args;
#X obj 657 143 pdcontrol;
#X obj 594 290 swap;
#X obj 595 318 -;
#X obj 600 479 moses;
#X obj 608 559 print range-selector;
#X msg 608 534 WARNING: max cant be less than min;
#X obj 722 453 s \$0-max;
#X obj 347 292 r \$0-max;
#X obj 223 275 r \$0-max;
#X obj 190 347 +;
#X obj 302 359 +;
#X obj 740 388 s \$0-min;
#X obj 733 323 unpack;
#X obj 223 326 r \$0-min;
#X obj 344 350 r \$0-min;
#X obj 303 294 * 1;
#X obj 192 294 * 1;
#X obj 595 346 sel;
#X msg 662 396 1;
#X msg 673 327 0;
#X floatatom 672 506 5 0 0 0 - - - 0;
#X floatatom 347 317 5 0 0 0 - - - 0;
#X floatatom 344 375 5 0 0 0 - - - 0;
#X obj 659 169 list split 1;
#X obj 585 371 t b b;
#X obj 866 364 s \$0-cnv;
#X obj 866 309 list prepend \$1;
#X obj 590 232 t a a a, f 16;
#X obj 552 47 route range default;
#X msg 629 16 range 0 100;
#X obj 947 272 s \$0-selector-left-set;
#X obj 911 20 r range-selector-\$1-preset;
#X obj 1133 270 s \$0-selector-right-set;
#X obj 941 89 r \$0-min;
#X obj 939 128 r \$0-max;
#X obj 908 147 / 1;
#X obj 909 179 * 127;
#X obj 908 110 -;
#X obj 1074 77 r \$0-min;
#X obj 1072 116 r \$0-max;
#X obj 1041 135 / 1;
#X obj 1042 167 * 127;
#X obj 1041 98 -;
#X obj 1087 219 pack f 1;
#X obj 910 212 pack f 1;
#X obj 928 242 line;
#X obj 1110 245 line;
#X obj 1089 461 s preset-manager;
#X obj 1089 436 list prepend range-selector-\$1-preset;
#X obj 1077 412 list append 1;
#X obj 936 57 unpack f f f;
#X floatatom 280 117 6 0 0 2 speed range-selector-\$1-speed-set range-selector-\$1-speed 12;
#X obj 1212 131 r range-selector-\$1-speed;
#X obj 1055 57 s range-selector-\$1-speed-set;
#X obj 1305 28 loadbang;
#X msg 1305 53 1;
#X obj 1193 160 t b f f f;
#X msg 866 339 label \$1\\\ \$2..\$3;
#X obj 307 24 r range-selector-\$1-range;
#X obj 700 193 list split 2;
#X connect 1 0 6 0;
#X connect 2 0 10 0;
#X connect 3 0 7 0;
#X connect 4 0 2 0;
#X connect 4 1 27 0;
#X connect 6 0 33 0;
#X connect 7 0 32 0;
#X connect 8 0 45 0;
#X connect 10 0 9 0;
#X connect 10 0 66 0;
#X connect 10 1 5 0;
#X connect 15 0 16 0;
#X connect 16 0 17 0;
#X connect 17 0 40 0;
#X connect 18 0 19 0;
#X connect 18 1 19 1;
#X connect 19 0 34 0;
#X connect 20 0 22 0;
#X connect 20 1 23 0;
#X connect 20 1 37 0;
#X connect 22 0 21 0;
#X connect 24 0 32 1;
#X connect 24 0 38 0;
#X connect 25 0 33 1;
#X connect 26 0 2 0;
#X connect 27 0 2 1;
#X connect 29 0 28 0;
#X connect 30 0 26 1;
#X connect 31 0 27 1;
#X connect 31 0 39 0;
#X connect 32 0 4 0;
#X connect 33 0 26 0;
#X connect 34 0 41 0;
#X connect 34 1 20 0;
#X connect 35 0 23 0;
#X connect 36 0 28 0;
#X connect 40 0 43 1;
#X connect 40 1 76 0;
#X connect 41 0 36 0;
#X connect 41 1 35 0;
#X connect 43 0 74 0;
#X connect 44 0 18 0;
#X connect 44 1 29 0;
#X connect 44 2 43 0;
#X connect 45 0 44 0;
#X connect 45 1 16 0;
#X connect 46 0 45 0;
#X connect 48 0 67 0;
#X connect 50 0 54 1;
#X connect 51 0 52 1;
#X connect 52 0 53 0;
#X connect 53 0 61 0;
#X connect 54 0 52 0;
#X connect 55 0 59 1;
#X connect 56 0 57 1;
#X connect 57 0 58 0;
#X connect 58 0 60 0;
#X connect 59 0 57 0;
#X connect 60 0 63 0;
#X connect 61 0 62 0;
#X connect 62 0 47 0;
#X connect 63 0 49 0;
#X connect 65 0 64 0;
#X connect 66 0 65 0;
#X connect 67 0 54 0;
#X connect 67 1 59 0;
#X connect 67 2 70 0;
#X connect 69 0 73 0;
#X connect 71 0 72 0;
#X connect 72 0 70 0;
#X connect 73 0 2 0;
#X connect 73 1 61 1;
#X connect 73 2 60 1;
#X connect 73 3 66 1;
#X connect 74 0 42 0;
#X connect 75 0 44 0;
#X connect 76 0 44 0;
#X coords 0 -1 1 1 230 60 2 100 100;
