#N canvas 526 49 234 216 12;
#X obj 16 220 inlet;
#X obj 16 292 outlet;
#X obj 79 290 outlet~;
#N canvas 155 22 1017 722 clicktrack-guts 0;
#X obj 166 347 metro 220;
#X obj 138 101 tgl 15 0 empty empty empty 17 7 0 10 -262144 -1 -1 0
1;
#X obj 137 160 sel 1 0;
#X obj 137 182 timer;
#X obj 273 658 f;
#X obj 303 658 + 1;
#X obj 273 702 mod 10;
#X obj 341 704 mod 100;
#X obj 405 704 mod 1000;
#X obj 405 748 int;
#X obj 341 748 int;
#X obj 341 726 / 10;
#X obj 405 726 / 100;
#X obj 183 544 f;
#X obj 207 545 + 1;
#X obj 183 569 mod 4;
#X msg 201 522 0;
#X obj 420 229 sel 1 0;
#X msg 408 318 13;
#X obj 314 253 f;
#X obj 345 253 + 1;
#X obj 347 207 sel 1;
#X obj 314 231 metro 1;
#X msg 314 275 60000 \$1;
#X obj 314 297 /;
#X obj 314 319 int;
#X msg 386 390 label \$1bpm;
#X obj 314 341 min 999;
#X obj 393 438 s \$0-bpm;
#X obj 314 157 t f f f;
#X obj 137 225 t f f f f, f 15;
#X obj 182 588 t f f f;
#X obj 273 614 sel 0;
#X obj 166 306 tgl 15 0 empty empty empty 17 7 0 10 -262144 -1 -1 0
1;
#X msg 386 489 color \$1 22 22;
#X obj 137 140 t f f, f 8;
#X msg 363 604 0;
#X obj 231 389 sel 0 1;
#X obj 273 680 t f f f f, f 33;
#X msg 269 485 color 14 22 22;
#X obj 201 654 * 50;
#X obj 201 676 + 10;
#X msg 399 353 color \$1 22 14;
#X msg 43 234 set \$1;
#X obj 138 36 key;
#X obj 138 58 spigot;
#X obj 138 80 sel 32;
#X msg 329 76 keyboard input \$1;
#X obj 344 20 sel 0 1;
#X msg 360 44 symbol disabled;
#X msg 429 17 symbol enabled;
#X obj 736 828 *~;
#X obj 681 738 line~;
#X msg 707 697 0 \$1;
#X obj 706 674 f;
#X obj 732 675 del;
#X obj 706 589 t f f;
#X obj 741 650 t f f;
#X msg 742 697 1 \$1;
#X obj 741 628 * 0.05;
#X obj 763 775 osc~ 220;
#X obj 705 629 * 0.1;
#X msg 820 658 stop \, 0 10;
#X msg 843 730 880;
#X obj 683 770 *~;
#X obj 683 792 *~;
#X msg 799 734 440;
#X obj 755 522 sel 0 2;
#X obj 914 859 switch~;
#X obj 749 874 *~;
#X obj 732 896 outlet~;
#X obj 472 768 s \$1-barcount;
#X obj 182 821 s \$1-beat;
#X obj 137 883 s \$1-beatmsec;
#X obj 387 117 print fd_clicktrack-\$1, f 16;
#X obj 753 495 r \$1-beat;
#X obj 372 566 r \$1-reset;
#X obj 8 7 inlet;
#X obj 861 485 r \$1-click;
#X obj 171 37 r \$1-keys;
#X obj 166 369 f;
#X obj 166 391 t f b;
#X obj 166 850 s \$1-pulse;
#X obj 706 461 r \$1-pulse;
#X msg 744 550 0.2;
#X msg 782 551 0.1;
#X obj 683 814 *~;
#X obj 39 278 r \$1-click-onoff;
#X obj 43 255 s \$1-click-onoff-set;
#X obj 8 29 route float bang;
#X obj 55 81 t f f;
#X msg 55 103 60000 \$1;
#X obj 55 125 /;
#X obj 252 179 t f b b;
#X msg 304 198 0;
#X obj 762 31 inlet pulse;
#X obj 804 113 t b b;
#X obj 804 91 spigot 1;
#X msg 841 112 0;
#X obj 830 156 pack \$1;
#X msg 830 178 \; \$1-keys-set 0 \; \$1-click-onoff 0 \;;
#X obj 762 53 t b b;
#X obj 533 135 change;
#X msg 782 364 1;
#X obj 420 173 t f b;
#X obj 597 133 timer;
#X obj 669 109 t b b;
#X obj 597 155 t f f;
#N canvas 772 84 450 300 msg 0;
#X obj 24 8 inlet;
#X obj 110 138 s \$1-reset-set;
#X obj 24 52 s \$1-keys-set;
#X obj 79 106 s \$1-click-set;
#X obj 54 79 s \$1-click-onoff-set;
#X obj 27 30 route keys onoff click reset goto;
#X obj 215 97 s \$1-goto;
#X obj 242 45 !msg fd_clicktrack-\$1;
#X connect 0 0 5 0;
#X connect 5 0 2 0;
#X connect 5 1 4 0;
#X connect 5 2 3 0;
#X connect 5 3 1 0;
#X connect 5 4 6 0;
#X connect 5 5 7 0;
#X restore 64 53 pd msg;
#X obj 318 366 f;
#X obj 166 326 t f f b;
#X obj 324 403 sel 0;
#X obj 405 768 s \$0-cen;
#X obj 341 769 s \$0-dec;
#X obj 273 769 s \$0-uni;
#X obj 201 769 s \$0-beat;
#X obj 331 658 t f f;
#X obj 331 636 r \$1-goto;
#X obj 736 850 *~ 0.1;
#X obj 47 9 r fd_clicktrack-\$1;
#X text 821 265 keys:;
#X text 822 280 spacebar = tap pulse;
#X text 822 294 click = sound;
#X text 916 617 fdch;
#X obj 59 513 outlet;
#X obj 584 229 r visguts;
#X obj 667 229 r hideguts;
#X obj 901 31 bng 80 250 50 0 hideguts hideguts-set hideguts 0 -10
0 14 -262144 -1 -1;
#X text 586 304 ps: guts are behind the canvas, f 18;
#X msg 584 254 vis 1;
#X msg 667 254 vis 0, f 16;
#X obj 483 416 s \$1-bpm;
#X obj 584 279 s pd-clicktrack-guts;
#X msg 189 704 pos \$1 65, f 10;
#X obj 780 798 r \$1-click-level;
#X obj 859 826 fd_switch;
#X msg 440 318 21;
#X msg 244 451 color 21 1 1;
#X msg 580 394 set \$1;
#X msg 602 468;
#X obj 602 415 loadbang;
#X obj 602 440 del 2;
#X connect 0 0 80 0;
#X connect 1 0 35 0;
#X connect 2 0 3 0;
#X connect 2 1 3 1;
#X connect 3 0 30 0;
#X connect 4 0 5 0;
#X connect 4 0 38 0;
#X connect 5 0 4 1;
#X connect 6 0 114 0;
#X connect 7 0 11 0;
#X connect 8 0 12 0;
#X connect 9 0 112 0;
#X connect 10 0 113 0;
#X connect 11 0 10 0;
#X connect 12 0 9 0;
#X connect 13 0 14 0;
#X connect 13 0 15 0;
#X connect 14 0 13 1;
#X connect 15 0 31 0;
#X connect 16 0 13 1;
#X connect 17 0 18 0;
#X connect 17 1 136 0;
#X connect 18 0 42 0;
#X connect 18 0 34 0;
#X connect 19 0 20 0;
#X connect 19 0 23 0;
#X connect 20 0 19 1;
#X connect 21 1 19 1;
#X connect 22 0 19 0;
#X connect 23 0 24 0;
#X connect 24 0 25 0;
#X connect 25 0 27 0;
#X connect 26 0 28 0;
#X connect 27 0 109 0;
#X connect 29 0 22 0;
#X connect 29 1 21 0;
#X connect 29 2 17 0;
#X connect 30 0 73 0;
#X connect 30 1 33 0;
#X connect 30 1 43 0;
#X connect 30 2 0 1;
#X connect 30 3 80 1;
#X connect 31 0 72 0;
#X connect 31 1 40 0;
#X connect 31 2 32 0;
#X connect 32 0 4 0;
#X connect 33 0 110 0;
#X connect 34 0 115 0;
#X connect 35 0 2 0;
#X connect 35 1 29 0;
#X connect 36 0 4 0;
#X connect 37 0 137 0;
#X connect 37 0 16 0;
#X connect 37 1 25 0;
#X connect 37 1 136 0;
#X connect 37 1 39 0;
#X connect 37 2 39 0;
#X connect 38 0 6 0;
#X connect 38 1 7 0;
#X connect 38 2 8 0;
#X connect 38 3 71 0;
#X connect 39 0 115 0;
#X connect 40 0 41 0;
#X connect 41 0 133 0;
#X connect 42 0 28 0;
#X connect 43 0 88 0;
#X connect 44 0 45 0;
#X connect 45 0 46 0;
#X connect 46 0 1 0;
#X connect 47 0 74 0;
#X connect 48 0 49 0;
#X connect 48 1 50 0;
#X connect 49 0 47 0;
#X connect 50 0 47 0;
#X connect 51 0 118 0;
#X connect 52 0 64 0;
#X connect 52 0 64 1;
#X connect 53 0 52 0;
#X connect 54 0 53 0;
#X connect 55 0 54 0;
#X connect 56 0 61 0;
#X connect 56 1 59 0;
#X connect 57 0 55 0;
#X connect 57 1 58 0;
#X connect 58 0 52 0;
#X connect 59 0 57 0;
#X connect 60 0 51 1;
#X connect 61 0 54 1;
#X connect 62 0 55 0;
#X connect 62 0 52 0;
#X connect 63 0 60 0;
#X connect 64 0 65 0;
#X connect 64 0 65 1;
#X connect 65 0 86 0;
#X connect 65 0 86 1;
#X connect 66 0 60 0;
#X connect 67 0 84 0;
#X connect 67 0 63 0;
#X connect 67 1 84 0;
#X connect 67 2 85 0;
#X connect 67 2 66 0;
#X connect 69 0 70 0;
#X connect 75 0 67 0;
#X connect 76 0 36 0;
#X connect 77 0 89 0;
#X connect 78 0 135 0;
#X connect 79 0 45 1;
#X connect 79 0 48 0;
#X connect 80 0 81 0;
#X connect 81 0 82 0;
#X connect 81 0 124 0;
#X connect 81 1 13 0;
#X connect 83 0 56 0;
#X connect 84 0 61 1;
#X connect 85 0 61 1;
#X connect 86 0 51 0;
#X connect 87 0 33 0;
#X connect 89 0 90 0;
#X connect 89 1 1 0;
#X connect 89 2 108 0;
#X connect 90 0 91 0;
#X connect 90 1 93 0;
#X connect 91 0 92 0;
#X connect 92 0 30 0;
#X connect 93 0 109 0;
#X connect 93 1 136 0;
#X connect 93 2 94 0;
#X connect 94 0 22 0;
#X connect 95 0 101 0;
#X connect 96 0 99 0;
#X connect 96 0 103 0;
#X connect 96 1 98 0;
#X connect 97 0 96 0;
#X connect 98 0 97 1;
#X connect 99 0 100 0;
#X connect 101 0 106 0;
#X connect 101 1 97 0;
#X connect 102 0 104 0;
#X connect 103 0 37 0;
#X connect 104 0 23 0;
#X connect 104 1 94 0;
#X connect 105 0 107 0;
#X connect 106 0 105 0;
#X connect 106 1 105 1;
#X connect 107 0 102 0;
#X connect 107 1 80 0;
#X connect 109 0 111 0;
#X connect 110 0 0 0;
#X connect 110 1 37 0;
#X connect 110 2 109 0;
#X connect 111 1 26 0;
#X connect 111 1 131 0;
#X connect 111 1 138 0;
#X connect 116 0 4 1;
#X connect 116 1 38 0;
#X connect 117 0 116 0;
#X connect 118 0 69 0;
#X connect 119 0 89 0;
#X connect 125 0 129 0;
#X connect 126 0 130 0;
#X connect 129 0 132 0;
#X connect 130 0 132 0;
#X connect 133 0 115 0;
#X connect 134 0 118 1;
#X connect 135 0 69 1;
#X connect 135 1 68 0;
#X connect 136 0 42 0;
#X connect 137 0 28 0;
#X connect 137 0 115 0;
#X connect 138 0 139 0;
#X connect 139 0 26 0;
#X connect 140 0 141 0;
#X connect 141 0 139 0;
#X restore 16 254 pd clicktrack-guts;
#X obj 78 222 inlet;
#X obj 10 8 cnv 15 198 170 empty empty empty 20 12 0 14 -1 -66577 0
;
#X obj 60 65 cnv 15 48 30 empty \$0-beat empty 20 12 0 14 -99865 -166441
0;
#X obj 150 104 nbx 1 40 -1e+37 1e+37 0 0 empty \$0-uni empty 0 -8 0
40 -1 -260097 -260097 0 256;
#X obj 81 103 nbx 1 40 -1e+37 1e+37 0 0 empty \$0-dec empty 0 -8 0
40 -1 -260097 -260097 0 256;
#X obj 10 102 nbx 1 40 -1e+37 1e+37 0 0 empty \$0-cen empty 0 -8 0
40 -1 -260097 -260097 0 256;
#X obj 10 8 cnv 50 198 50 empty \$0-bpm 144bpm 40 25 0 33 -99865 -166441
0;
#X obj 17 161 nbx 5 14 -1e+37 1e+37 0 0 empty \$1-beatmsec \$1-beatmsec
0 -8 0 8 -262144 -1 -262144 0 256;
#X obj 72 161 nbx 5 14 -1e+37 1e+37 0 0 empty \$1-pulse \$1-pulse 0
-8 0 8 -262144 -1 -262144 0 256;
#X obj 126 161 nbx 5 14 -1e+37 1e+37 0 0 empty \$1-barcount \$1-barcount
0 -8 0 8 -262144 -1 -262144 0 256;
#X obj 193 9 tgl 15 0 \$1-keys \$1-keys-set \$1-keys: -40 7 0 10 -1
-260097 -260097 0 1;
#X obj 10 8 tgl 15 0 \$1-click-onoff \$1-click-onoff-set 1|0 20 7 0
10 -1 -260097 -260097 0 1;
#X obj 120 8 bng 10 250 50 0 \$1-reset \$1-reset-set \$1-reset -40
5 0 8 -261234 -1 -260097;
#X obj 183 46 tgl 10 0 \$1-click \$1-click-set \$1-click: -40 5 0 8
-1 -260097 -260097 0 1;
#X obj 188 160 bng 15 250 50 0 visguts visguts-set guts 0 -7 0 8 -262144
-1 -262144;
#X obj 195 29 vsl 10 25 0.01 1 1 0 \$1-click-level \$1-click-level-set
empty 0 -9 0 10 -191407 -33289 -1 0 1;
#X connect 0 0 3 0;
#X connect 3 0 1 0;
#X connect 3 1 2 0;
#X connect 4 0 3 1;
#X coords 0 -1 1 1 198 170 1 10 8;
