#N canvas 536 51 450 300 12;
#N canvas 405 167 738 607 more 0;
#X obj 52 184 zexy/repack;
#X msg 52 39 1 2 3 4 5 6;
#X obj 52 83 fd_listout;
#X msg 83 137 set \$1;
#X obj 52 137 list;
#X obj 52 106 t b f f;
#X obj 52 163 combi;
#X msg 101 227 1e+10;
#X obj 52 205 t a b;
#N canvas 212 48 688 665 get 0;
#X obj 158 378 outlet;
#X obj 117 26 inlet;
#X obj 158 338 list;
#X obj 257 240 list append comp;
#X obj 122 88 text sequence \$0-temptext;
#X obj 229 272 list;
#X msg 119 53 line 0 \, auto;
#X obj 117 218 fd_getcomb;
#X msg 182 184 1 2 3 4 5 6;
#X obj 115 127 t a b a, f 8;
#X connect 1 0 6 0;
#X connect 2 0 0 0;
#X connect 3 0 5 1;
#X connect 4 0 9 0;
#X connect 5 0 2 0;
#X connect 6 0 4 0;
#X connect 7 0 2 1;
#X connect 7 1 5 0;
#X connect 8 0 7 1;
#X connect 9 0 7 0;
#X connect 9 1 8 0;
#X connect 9 2 3 0;
#X restore 329 123 pd get complements;
#X obj 329 98 bng 15 250 50 0 empty empty empty 17 7 0 10 -262144 -1
-1;
#X obj 329 160 t a b;
#X msg 377 158 1e+15;
#X msg 379 28 clear;
#X msg 333 301 bang;
#X obj 333 349 fd_etareti;
#X obj 333 397 print;
#X text 332 262 simpler way to get complements:;
#X text 366 93 accepts unordered list;
#X text 336 280 from ordered list;
#X obj 52 60 t a a b;
#X msg 149 69 clear;
#X msg 128 336 bang;
#X obj 128 384 / 2;
#X obj 128 408 fd_iterate;
#X obj 128 456 t a b;
#X msg 179 460 1e+10;
#X obj 350 487 bng 15 250 50 0 empty empty empty 17 7 0 10 -262144
-1 -1;
#X msg 350 511 write ../../scorify/complements.txt;
#X obj 380 52 text define \$0-complements;
#X obj 206 27 text define \$0-temptext;
#X obj 328 184 text set \$0-complements;
#X obj 333 325 text size \$0-temptext;
#X obj 333 373 text get \$0-temptext;
#X obj 128 360 text size \$0-complements;
#X obj 128 432 text get \$0-complements;
#X obj 128 480 text set \$0-mycomp;
#X obj 350 535 text define \$0-mycomp;
#X obj 52 251 text set \$0-temptext;
#X connect 0 0 8 0;
#X connect 1 0 20 0;
#X connect 2 0 5 0;
#X connect 3 0 6 0;
#X connect 4 0 6 0;
#X connect 5 0 4 0;
#X connect 5 1 3 0;
#X connect 5 2 0 1;
#X connect 6 0 0 0;
#X connect 7 0 38 1;
#X connect 8 0 38 0;
#X connect 8 1 7 0;
#X connect 9 0 11 0;
#X connect 10 0 9 0;
#X connect 11 0 31 0;
#X connect 11 1 12 0;
#X connect 12 0 31 1;
#X connect 13 0 29 0;
#X connect 14 0 32 0;
#X connect 15 0 33 0;
#X connect 20 0 2 0;
#X connect 20 1 4 1;
#X connect 20 2 21 0;
#X connect 21 0 30 0;
#X connect 22 0 34 0;
#X connect 23 0 24 0;
#X connect 24 0 35 0;
#X connect 25 0 36 0;
#X connect 25 1 26 0;
#X connect 26 0 36 1;
#X connect 27 0 28 0;
#X connect 28 0 37 0;
#X connect 32 0 15 0;
#X connect 33 0 16 0;
#X connect 34 0 23 0;
#X connect 35 0 25 0;
#X restore 323 227 pd more tests;
#X text 192 18 combi;
#X msg 75 96 1 2 3 4 5;
#X obj 75 254 print;
#X msg 105 153 set 2;
#X msg 85 118 1 2 3 4 5 6 7 8 9;
#X msg 115 176 set 5;
#X obj 75 210 combi 3;
#X text 139 212 otpional arg to set "r";
#X text 169 159 <-- set "r";
#X text 46 48 Find all possible combinations from incoming list taking
"r" elements from array of size "n", f 51;
#N canvas 0 23 450 300 example 0;
#X obj 88 180 zexy/repack;
#X msg 88 35 1 2 3 4 5 6;
#X obj 88 79 fd_listout;
#X obj 88 56 t a a;
#X msg 119 133 set \$1;
#X obj 88 133 list;
#X obj 88 102 t b f f;
#X obj 88 201 print;
#X obj 88 159 combi;
#X connect 0 0 7 0;
#X connect 1 0 3 0;
#X connect 2 0 6 0;
#X connect 3 0 2 0;
#X connect 3 1 5 1;
#X connect 4 0 8 0;
#X connect 5 0 8 0;
#X connect 6 0 5 0;
#X connect 6 1 4 0;
#X connect 6 2 0 1;
#X connect 8 0 0 0;
#X restore 323 206 pd example;
#N canvas 536 52 450 298 still 0;
#X msg 68 65 1 2 3 4 5 6;
#X msg 187 65 1 2 3 4 5 6;
#X msg 309 65 1 2 3 4 5 6;
#N canvas 0 23 468 534 groups 0;
#X obj 101 95 combi 2;
#X obj 101 119 zexy/repack 2;
#X obj 94 201 fd_getcomb;
#X obj 101 256 combi 3;
#X obj 101 280 zexy/repack 3;
#X obj 118 382 fd_getcomb;
#X obj 169 353 list;
#X obj 104 147 t a b a;
#X obj 153 176 list;
#X obj 100 64 t a a;
#X obj 179 488 print;
#X obj 120 421 list prepend;
#X obj 179 464 list prepend;
#X obj 299 413 list append -;
#X obj 215 383 list append -;
#X obj 101 227 t a a;
#X obj 108 318 t a b a;
#X obj 106 20 inlet;
#X obj 247 517 t a b;
#X obj 247 541 text set lists;
#X msg 298 515 1e+10;
#X connect 0 0 1 0;
#X connect 1 0 7 0;
#X connect 2 0 15 0;
#X connect 3 0 4 0;
#X connect 4 0 16 0;
#X connect 5 0 11 0;
#X connect 6 0 5 1;
#X connect 7 0 2 0;
#X connect 7 1 8 0;
#X connect 7 2 13 0;
#X connect 8 0 2 1;
#X connect 9 0 0 0;
#X connect 9 1 8 1;
#X connect 11 0 12 0;
#X connect 12 0 10 0;
#X connect 12 0 18 0;
#X connect 13 0 12 1;
#X connect 14 0 11 1;
#X connect 15 0 3 0;
#X connect 15 1 6 1;
#X connect 16 0 5 0;
#X connect 16 1 6 0;
#X connect 16 2 14 0;
#X connect 17 0 9 0;
#X connect 18 0 19 0;
#X connect 18 1 20 0;
#X connect 20 0 19 1;
#X restore 68 89 pd groups 2 3 1;
#N canvas 0 23 486 587 groups 0;
#X obj 92 69 combi 2;
#X obj 92 93 zexy/repack 2;
#X obj 85 175 fd_getcomb;
#X obj 109 356 fd_getcomb;
#X obj 160 327 list;
#X obj 95 121 t a b a;
#X obj 144 150 list;
#X obj 91 38 t a a;
#X obj 223 523 print;
#X obj 164 456 list prepend;
#X obj 223 499 list prepend;
#X obj 343 448 list append -;
#X obj 259 418 list append -;
#X obj 92 201 t a a;
#X obj 99 292 t a b a;
#X obj 92 230 combi 2;
#X obj 92 254 zexy/repack 2;
#X obj 140 392 combi 2;
#X obj 140 416 zexy/repack 2;
#X obj 90 15 inlet;
#X obj 288 531 t a b;
#X obj 288 555 text set lists;
#X msg 339 529 1e+10;
#X connect 0 0 1 0;
#X connect 1 0 5 0;
#X connect 2 0 13 0;
#X connect 3 0 17 0;
#X connect 4 0 3 1;
#X connect 5 0 2 0;
#X connect 5 1 6 0;
#X connect 5 2 11 0;
#X connect 6 0 2 1;
#X connect 7 0 0 0;
#X connect 7 1 6 1;
#X connect 9 0 10 0;
#X connect 10 0 8 0;
#X connect 10 0 20 0;
#X connect 11 0 10 1;
#X connect 12 0 9 1;
#X connect 13 0 15 0;
#X connect 13 1 4 1;
#X connect 14 0 3 0;
#X connect 14 1 4 0;
#X connect 14 2 12 0;
#X connect 15 0 16 0;
#X connect 16 0 14 0;
#X connect 17 0 18 0;
#X connect 18 0 9 0;
#X connect 19 0 7 0;
#X connect 20 0 21 0;
#X connect 20 1 22 0;
#X connect 22 0 21 1;
#X restore 187 89 pd groups 2 2 2;
#N canvas 0 23 473 666 groups 0;
#X obj 84 198 fd_getcomb;
#X obj 94 144 t a b a;
#X obj 143 173 list;
#X obj 90 61 t a a;
#X obj 236 631 print;
#X obj 177 564 list prepend;
#X obj 236 607 list prepend;
#X obj 316 459 list append -;
#X obj 234 406 list append -;
#X obj 91 92 combi 4;
#X obj 91 116 zexy/repack 4;
#X obj 91 347 fd_getcomb;
#X obj 150 318 list;
#X obj 91 224 t a a;
#X obj 94 284 t a b a;
#X obj 91 253 combi 1;
#X obj 97 502 fd_getcomb;
#X obj 156 473 list;
#X obj 97 379 t a a;
#X obj 100 439 t a b a;
#X obj 97 408 combi 1;
#X obj 149 534 list prepend;
#X obj 84 19 inlet;
#X obj 288 531 t a b;
#X obj 288 555 text set lists;
#X msg 339 529 1e+10;
#X connect 0 0 13 0;
#X connect 1 0 0 0;
#X connect 1 1 2 0;
#X connect 1 2 7 0;
#X connect 2 0 0 1;
#X connect 3 0 9 0;
#X connect 3 1 2 1;
#X connect 5 0 6 0;
#X connect 6 0 4 0;
#X connect 6 0 23 0;
#X connect 7 0 6 1;
#X connect 8 0 5 1;
#X connect 9 0 10 0;
#X connect 10 0 1 0;
#X connect 11 0 18 0;
#X connect 12 0 11 1;
#X connect 13 0 15 0;
#X connect 13 1 12 1;
#X connect 14 0 11 0;
#X connect 14 1 12 0;
#X connect 14 2 8 0;
#X connect 15 0 14 0;
#X connect 16 0 21 0;
#X connect 17 0 16 1;
#X connect 18 0 20 0;
#X connect 18 1 17 1;
#X connect 19 0 16 0;
#X connect 19 1 17 0;
#X connect 19 2 21 1;
#X connect 20 0 19 0;
#X connect 21 0 5 0;
#X connect 22 0 3 0;
#X connect 23 0 24 0;
#X connect 23 1 25 0;
#X connect 25 0 24 1;
#X restore 309 89 pd groups 4 1 1;
#X msg 68 135 1 2 3 4 5 6;
#N canvas 0 23 662 751 groups 0;
#X obj 94 201 fd_getcomb;
#X obj 111 345 fd_getcomb;
#X obj 162 316 list;
#X obj 104 147 t a b a;
#X obj 153 176 list;
#X obj 100 64 t a a;
#X obj 365 720 print;
#X obj 306 653 list prepend;
#X obj 365 696 list prepend;
#X obj 485 645 list append -;
#X obj 206 334 list append -;
#X obj 101 227 t a a;
#X obj 101 281 t a b a;
#X obj 106 20 inlet;
#X obj 101 95 combi 1;
#X obj 101 256 combi 1;
#X obj 141 503 fd_getcomb;
#X obj 192 474 list;
#X obj 247 495 list append -;
#X obj 128 373 t a a;
#X obj 145 456 t a b a;
#X obj 128 426 zexy/repack 2;
#X obj 128 402 combi 2;
#X obj 286 617 list prepend;
#X obj 61 652 fd_getcomb;
#X obj 112 623 list;
#X obj 48 522 t a a;
#X obj 65 599 t a b a;
#X obj 48 575 zexy/repack 2;
#X obj 48 551 combi 2;
#X obj 61 676 list prepend;
#X obj 490 697 t a b;
#X obj 490 721 text set lists;
#X msg 541 695 1e+10;
#X connect 0 0 11 0;
#X connect 1 0 19 0;
#X connect 2 0 1 1;
#X connect 3 0 0 0;
#X connect 3 1 4 0;
#X connect 3 2 9 0;
#X connect 4 0 0 1;
#X connect 5 0 14 0;
#X connect 5 1 4 1;
#X connect 7 0 8 0;
#X connect 8 0 6 0;
#X connect 8 0 31 0;
#X connect 9 0 8 1;
#X connect 10 0 7 1;
#X connect 11 0 15 0;
#X connect 11 1 2 1;
#X connect 12 0 1 0;
#X connect 12 1 2 0;
#X connect 12 2 10 0;
#X connect 13 0 5 0;
#X connect 14 0 3 0;
#X connect 15 0 12 0;
#X connect 16 0 26 0;
#X connect 17 0 16 1;
#X connect 18 0 23 1;
#X connect 19 0 22 0;
#X connect 19 1 17 1;
#X connect 20 0 16 0;
#X connect 20 1 17 0;
#X connect 20 2 18 0;
#X connect 21 0 20 0;
#X connect 22 0 21 0;
#X connect 23 0 7 0;
#X connect 24 0 30 0;
#X connect 25 0 24 1;
#X connect 26 0 29 0;
#X connect 26 1 25 1;
#X connect 27 0 24 0;
#X connect 27 1 25 0;
#X connect 27 2 30 1;
#X connect 28 0 27 0;
#X connect 29 0 28 0;
#X connect 30 0 23 0;
#X connect 31 0 32 0;
#X connect 31 1 33 0;
#X connect 33 0 32 1;
#X restore 68 159 pd groups 1 1 2 2;
#X msg 210 133 1 2 3 4 5 6;
#N canvas 0 23 662 751 groups 0;
#X obj 94 201 fd_getcomb;
#X obj 111 345 fd_getcomb;
#X obj 162 316 list;
#X obj 104 147 t a b a;
#X obj 153 176 list;
#X obj 100 64 t a a;
#X obj 365 720 print;
#X obj 306 653 list prepend;
#X obj 365 696 list prepend;
#X obj 485 645 list append -;
#X obj 206 334 list append -;
#X obj 101 227 t a a;
#X obj 101 281 t a b a;
#X obj 106 20 inlet;
#X obj 101 95 combi 1;
#X obj 101 256 combi 1;
#X obj 141 503 fd_getcomb;
#X obj 192 474 list;
#X obj 247 495 list append -;
#X obj 128 373 t a a;
#X obj 145 456 t a b a;
#X obj 286 617 list prepend;
#X obj 61 652 fd_getcomb;
#X obj 112 623 list;
#X obj 48 522 t a a;
#X obj 65 599 t a b a;
#X obj 61 676 list prepend;
#X obj 128 402 combi 1;
#X obj 48 551 combi 3;
#X obj 48 576 zexy/repack 3;
#X obj 509 693 t a b;
#X obj 509 717 text set lists;
#X msg 560 691 1e+10;
#X connect 0 0 11 0;
#X connect 1 0 19 0;
#X connect 2 0 1 1;
#X connect 3 0 0 0;
#X connect 3 1 4 0;
#X connect 3 2 9 0;
#X connect 4 0 0 1;
#X connect 5 0 14 0;
#X connect 5 1 4 1;
#X connect 7 0 8 0;
#X connect 8 0 6 0;
#X connect 8 0 30 0;
#X connect 9 0 8 1;
#X connect 10 0 7 1;
#X connect 11 0 15 0;
#X connect 11 1 2 1;
#X connect 12 0 1 0;
#X connect 12 1 2 0;
#X connect 12 2 10 0;
#X connect 13 0 5 0;
#X connect 14 0 3 0;
#X connect 15 0 12 0;
#X connect 16 0 24 0;
#X connect 17 0 16 1;
#X connect 18 0 21 1;
#X connect 19 0 27 0;
#X connect 19 1 17 1;
#X connect 20 0 16 0;
#X connect 20 1 17 0;
#X connect 20 2 18 0;
#X connect 21 0 7 0;
#X connect 22 0 26 0;
#X connect 23 0 22 1;
#X connect 24 0 28 0;
#X connect 24 1 23 1;
#X connect 25 0 22 0;
#X connect 25 1 23 0;
#X connect 25 2 26 1;
#X connect 26 0 21 0;
#X connect 27 0 20 0;
#X connect 28 0 29 0;
#X connect 29 0 25 0;
#X connect 30 0 31 0;
#X connect 30 1 32 0;
#X connect 32 0 31 1;
#X restore 210 157 pd groups 1 1 1 2;
#X msg 70 193 1 2 3 4 5 6;
#X text 8 90 3 lists;
#X text 10 158 4 lists;
#X text 10 217 5 lists;
#N canvas 0 23 662 751 groups 0;
#X obj 90 174 fd_getcomb;
#X obj 107 318 fd_getcomb;
#X obj 158 289 list;
#X obj 100 120 t a b a;
#X obj 149 149 list;
#X obj 100 64 t a a;
#X obj 365 720 print;
#X obj 306 653 list prepend;
#X obj 365 696 list prepend;
#X obj 485 645 list append -;
#X obj 202 307 list append -;
#X obj 97 200 t a a;
#X obj 97 254 t a b a;
#X obj 106 20 inlet;
#X obj 101 95 combi 1;
#X obj 97 229 combi 1;
#X obj 121 449 fd_getcomb;
#X obj 172 420 list;
#X obj 227 441 list append -;
#X obj 124 346 t a a;
#X obj 125 402 t a b a;
#X obj 302 623 list prepend;
#X obj 61 652 fd_getcomb;
#X obj 112 623 list;
#X obj 48 522 t a a;
#X obj 65 599 t a b a;
#X obj 90 689 list prepend;
#X obj 124 375 combi 1;
#X obj 156 579 fd_getcomb;
#X obj 207 550 list;
#X obj 262 571 list append -;
#X obj 159 476 t a a;
#X obj 160 532 t a b a;
#X obj 159 505 combi 1;
#X obj 48 551 combi 2;
#X obj 48 576 zexy/repack 2;
#X obj 189 616 list prepend;
#X obj 502 680 t a b;
#X obj 502 704 text set lists;
#X msg 553 678 1e+10;
#X connect 0 0 11 0;
#X connect 1 0 19 0;
#X connect 2 0 1 1;
#X connect 3 0 0 0;
#X connect 3 1 4 0;
#X connect 3 2 9 0;
#X connect 4 0 0 1;
#X connect 5 0 14 0;
#X connect 5 1 4 1;
#X connect 7 0 8 0;
#X connect 8 0 6 0;
#X connect 8 0 37 0;
#X connect 9 0 8 1;
#X connect 10 0 7 1;
#X connect 11 0 15 0;
#X connect 11 1 2 1;
#X connect 12 0 1 0;
#X connect 12 1 2 0;
#X connect 12 2 10 0;
#X connect 13 0 5 0;
#X connect 14 0 3 0;
#X connect 15 0 12 0;
#X connect 16 0 31 0;
#X connect 17 0 16 1;
#X connect 18 0 21 1;
#X connect 19 0 27 0;
#X connect 19 1 17 1;
#X connect 20 0 16 0;
#X connect 20 1 17 0;
#X connect 20 2 18 0;
#X connect 21 0 7 0;
#X connect 22 0 26 0;
#X connect 23 0 22 1;
#X connect 24 0 34 0;
#X connect 24 1 23 1;
#X connect 25 0 22 0;
#X connect 25 1 23 0;
#X connect 25 2 26 1;
#X connect 26 0 36 0;
#X connect 27 0 20 0;
#X connect 28 0 24 0;
#X connect 29 0 28 1;
#X connect 30 0 36 1;
#X connect 31 0 33 0;
#X connect 31 1 29 1;
#X connect 32 0 28 0;
#X connect 32 1 29 0;
#X connect 32 2 30 0;
#X connect 33 0 32 0;
#X connect 34 0 35 0;
#X connect 35 0 25 0;
#X connect 36 0 21 0;
#X connect 37 0 38 0;
#X connect 37 1 39 0;
#X connect 39 0 38 1;
#X restore 70 217 pd groups 1 1 1 1 2;
#X msg 68 245 1 2 3 4 5 6;
#X text 8 267 6 lists;
#N canvas 0 23 662 751 groups 0;
#X obj 52 185 fd_getcomb;
#X obj 69 329 fd_getcomb;
#X obj 120 300 list;
#X obj 62 131 t a b a;
#X obj 111 160 list;
#X obj 62 75 t a a;
#X obj 401 780 print;
#X obj 362 707 list prepend;
#X obj 391 749 list prepend;
#X obj 438 270 list append -;
#X obj 405 317 list append -;
#X obj 59 211 t a a;
#X obj 59 265 t a b a;
#X obj 68 31 inlet;
#X obj 63 106 combi 1;
#X obj 59 240 combi 1;
#X obj 83 460 fd_getcomb;
#X obj 134 431 list;
#X obj 361 361 list append -;
#X obj 86 357 t a a;
#X obj 87 413 t a b a;
#X obj 337 669 list prepend;
#X obj 86 386 combi 1;
#X obj 77 589 fd_getcomb;
#X obj 128 560 list;
#X obj 319 406 list append -;
#X obj 80 486 t a a;
#X obj 81 542 t a b a;
#X obj 80 515 combi 1;
#X obj 325 632 list prepend;
#X obj 76 723 fd_getcomb;
#X obj 127 694 list;
#X obj 273 487 list append -;
#X obj 79 620 t a a;
#X obj 80 676 t a b a;
#X obj 79 649 combi 1;
#X obj 102 880 fd_getcomb;
#X obj 153 851 list;
#X obj 106 761 t a a;
#X obj 107 817 t a b a;
#X obj 106 790 combi 1;
#X obj 307 608 list prepend;
#X obj 104 910 list prepend;
#X obj 487 817 t a b;
#X obj 487 841 text set lists;
#X msg 538 815 1e+10;
#X connect 0 0 11 0;
#X connect 1 0 19 0;
#X connect 2 0 1 1;
#X connect 3 0 0 0;
#X connect 3 1 4 0;
#X connect 3 2 9 0;
#X connect 4 0 0 1;
#X connect 5 0 14 0;
#X connect 5 1 4 1;
#X connect 7 0 8 0;
#X connect 8 0 6 0;
#X connect 8 0 43 0;
#X connect 9 0 8 1;
#X connect 10 0 7 1;
#X connect 11 0 15 0;
#X connect 11 1 2 1;
#X connect 12 0 1 0;
#X connect 12 1 2 0;
#X connect 12 2 10 0;
#X connect 13 0 5 0;
#X connect 14 0 3 0;
#X connect 15 0 12 0;
#X connect 16 0 26 0;
#X connect 17 0 16 1;
#X connect 18 0 21 1;
#X connect 19 0 22 0;
#X connect 19 1 17 1;
#X connect 20 0 16 0;
#X connect 20 1 17 0;
#X connect 20 2 18 0;
#X connect 21 0 7 0;
#X connect 22 0 20 0;
#X connect 23 0 33 0;
#X connect 24 0 23 1;
#X connect 25 0 29 1;
#X connect 26 0 28 0;
#X connect 26 1 24 1;
#X connect 27 0 23 0;
#X connect 27 1 24 0;
#X connect 27 2 25 0;
#X connect 28 0 27 0;
#X connect 29 0 21 0;
#X connect 30 0 38 0;
#X connect 31 0 30 1;
#X connect 32 0 41 1;
#X connect 33 0 35 0;
#X connect 33 1 31 1;
#X connect 34 0 30 0;
#X connect 34 1 31 0;
#X connect 34 2 32 0;
#X connect 35 0 34 0;
#X connect 36 0 42 0;
#X connect 37 0 36 1;
#X connect 38 0 40 0;
#X connect 38 1 37 1;
#X connect 39 0 36 0;
#X connect 39 1 37 0;
#X connect 39 2 42 1;
#X connect 40 0 39 0;
#X connect 41 0 29 0;
#X connect 42 0 41 0;
#X connect 43 0 44 0;
#X connect 43 1 45 0;
#X connect 45 0 44 1;
#X restore 68 269 pd groups 1 1 1 1 1 1;
#X msg 309 5 1 2 3 4 5 6;
#N canvas 0 23 510 748 groups 0;
#X obj 94 201 fd_getcomb;
#X obj 118 382 fd_getcomb;
#X obj 169 353 list;
#X obj 104 147 t a b a;
#X obj 153 176 list;
#X obj 100 64 t a a;
#X obj 179 488 print;
#X obj 120 421 list prepend;
#X obj 179 464 list prepend;
#X obj 299 413 list append -;
#X obj 101 227 t a a;
#X obj 108 318 t a b a;
#X obj 106 20 inlet;
#X obj 101 95 combi 1;
#X obj 101 256 combi 5;
#X obj 101 280 zexy/repack 5;
#X obj 247 517 t a b;
#X obj 247 541 text set lists;
#X msg 298 515 1e+10;
#X connect 0 0 10 0;
#X connect 1 0 7 0;
#X connect 2 0 1 1;
#X connect 3 0 0 0;
#X connect 3 1 4 0;
#X connect 3 2 9 0;
#X connect 4 0 0 1;
#X connect 5 0 13 0;
#X connect 5 1 4 1;
#X connect 7 0 8 0;
#X connect 8 0 6 0;
#X connect 8 0 16 0;
#X connect 9 0 8 1;
#X connect 10 0 14 0;
#X connect 10 1 2 1;
#X connect 11 0 1 0;
#X connect 11 1 2 0;
#X connect 11 2 7 1;
#X connect 12 0 5 0;
#X connect 13 0 3 0;
#X connect 14 0 15 0;
#X connect 15 0 11 0;
#X connect 16 0 17 0;
#X connect 16 1 18 0;
#X connect 18 0 17 1;
#X restore 309 29 pd groups 1 5;
#X text 11 33 2 lists;
#X msg 190 5 1 2 3 4 5 6;
#N canvas 0 23 510 748 groups 0;
#X obj 94 201 fd_getcomb;
#X obj 118 382 fd_getcomb;
#X obj 169 353 list;
#X obj 104 147 t a b a;
#X obj 153 176 list;
#X obj 100 64 t a a;
#X obj 179 488 print;
#X obj 120 421 list prepend;
#X obj 179 464 list prepend;
#X obj 299 413 list append -;
#X obj 101 227 t a a;
#X obj 108 318 t a b a;
#X obj 106 20 inlet;
#X obj 100 95 combi 4;
#X obj 100 119 zexy/repack 4;
#X obj 101 256 combi 2;
#X obj 101 280 zexy/repack 2;
#X obj 247 517 t a b;
#X obj 247 541 text set lists;
#X msg 298 515 1e+10;
#X connect 0 0 10 0;
#X connect 1 0 7 0;
#X connect 2 0 1 1;
#X connect 3 0 0 0;
#X connect 3 1 4 0;
#X connect 3 2 9 0;
#X connect 4 0 0 1;
#X connect 5 0 13 0;
#X connect 5 1 4 1;
#X connect 7 0 8 0;
#X connect 8 0 6 0;
#X connect 8 0 17 0;
#X connect 9 0 8 1;
#X connect 10 0 15 0;
#X connect 10 1 2 1;
#X connect 11 0 1 0;
#X connect 11 1 2 0;
#X connect 11 2 7 1;
#X connect 12 0 5 0;
#X connect 13 0 14 0;
#X connect 14 0 3 0;
#X connect 15 0 16 0;
#X connect 16 0 11 0;
#X connect 17 0 18 0;
#X connect 17 1 19 0;
#X connect 19 0 18 1;
#X restore 190 29 pd groups 4 2;
#X msg 75 7 1 2 3 4 5 6;
#N canvas 0 23 510 748 groups 0;
#X obj 94 201 fd_getcomb;
#X obj 118 382 fd_getcomb;
#X obj 169 353 list;
#X obj 104 147 t a b a;
#X obj 153 176 list;
#X obj 100 64 t a a;
#X obj 179 488 print;
#X obj 120 421 list prepend;
#X obj 179 464 list prepend;
#X obj 299 413 list append -;
#X obj 101 227 t a a;
#X obj 108 318 t a b a;
#X obj 106 20 inlet;
#X obj 100 95 combi 3;
#X obj 100 119 zexy/repack 3;
#X obj 101 256 combi 3;
#X obj 101 280 zexy/repack 3;
#X obj 247 517 t a b;
#X obj 247 541 text set lists;
#X msg 298 515 1e+10;
#X connect 0 0 10 0;
#X connect 1 0 7 0;
#X connect 2 0 1 1;
#X connect 3 0 0 0;
#X connect 3 1 4 0;
#X connect 3 2 9 0;
#X connect 4 0 0 1;
#X connect 5 0 13 0;
#X connect 5 1 4 1;
#X connect 7 0 8 0;
#X connect 8 0 6 0;
#X connect 8 0 17 0;
#X connect 9 0 8 1;
#X connect 10 0 15 0;
#X connect 10 1 2 1;
#X connect 11 0 1 0;
#X connect 11 1 2 0;
#X connect 11 2 7 1;
#X connect 12 0 5 0;
#X connect 13 0 14 0;
#X connect 14 0 3 0;
#X connect 15 0 16 0;
#X connect 16 0 11 0;
#X connect 17 0 18 0;
#X connect 17 1 19 0;
#X connect 19 0 18 1;
#X restore 75 31 pd groups 3 3;
#X obj 283 220 text define lists;
#X msg 229 190 write ../../scorify/complements.txt;
#X connect 0 0 3 0;
#X connect 1 0 4 0;
#X connect 2 0 5 0;
#X connect 6 0 7 0;
#X connect 8 0 9 0;
#X connect 10 0 14 0;
#X connect 15 0 17 0;
#X connect 18 0 19 0;
#X connect 21 0 22 0;
#X connect 23 0 24 0;
#X connect 26 0 25 0;
#X restore 320 251 pd still more;
#X connect 2 0 7 0;
#X connect 4 0 7 0;
#X connect 5 0 7 0;
#X connect 6 0 7 0;
#X connect 7 0 3 0;
