#N canvas 610 139 592 552 12;
#X obj 104 101 samplerate~;
#X msg 157 137 0;
#X obj 157 28 inlet;
#X msg 430 134 resize \$1;
#X msg 313 285 set \$1;
#X obj 306 221 array define \$1 \$2;
#X obj 104 131 / \$2;
#X obj 61 342 tabsend~ \$1;
#X obj 313 318 switch~ \$2;
#X obj 104 190 phasor~;
#X text 314 46 see fd_windows.pd;
#X obj 306 125 del 1 1 samp;
#X obj 157 50 route bang float;
#X obj 174 202 - 1;
#X obj 174 247 / 2;
#X obj 104 244 -~;
#X obj 104 267 /~;
#X obj 104 292 *~;
#X obj 61 63 sig~ 1;
#X obj 61 312 -~;
#X obj 104 156 t f b;
#X obj 174 176 f \$2;
#X obj 104 215 *~ \$2;
#X obj 240 357 fd_smooth_brute \$1;
#X obj 306 148 t b b;
#X msg 321 183 normalize;
#X obj 118 27 bng 15 250 50 0 empty empty empty 17 7 0 10 -262144 -1
-1;
#X connect 0 0 6 0;
#X connect 1 0 9 1;
#X connect 2 0 12 0;
#X connect 3 0 5 0;
#X connect 4 0 8 0;
#X connect 6 0 20 0;
#X connect 9 0 22 0;
#X connect 11 0 24 0;
#X connect 12 0 0 0;
#X connect 12 0 8 0;
#X connect 12 0 1 0;
#X connect 12 0 11 0;
#X connect 12 1 3 0;
#X connect 12 1 4 0;
#X connect 12 1 6 1;
#X connect 12 1 11 1;
#X connect 12 2 5 0;
#X connect 13 0 14 0;
#X connect 14 0 15 1;
#X connect 14 0 16 1;
#X connect 15 0 16 0;
#X connect 16 0 17 0;
#X connect 16 0 17 1;
#X connect 17 0 19 1;
#X connect 18 0 19 0;
#X connect 19 0 7 0;
#X connect 20 0 9 0;
#X connect 20 1 21 0;
#X connect 21 0 13 0;
#X connect 22 0 15 0;
#X connect 24 0 23 0;
#X connect 24 1 25 0;
#X connect 25 0 5 0;
#X connect 26 0 12 0;
