#N canvas 405 23 554 690 12;
#X obj 93 212 min;
#X obj 78 45 inlet;
#X obj 78 576 outlet;
#X obj 286 16 inlet;
#X obj 78 107 pix_info, f 11;
#X obj 111 157 t f f;
#X obj 163 157 t f f;
#X obj 189 211 pack;
#X obj 189 236 unpack;
#X obj 189 342 -;
#X obj 280 342 -;
#X obj 168 367 min;
#X obj 259 367 min;
#X obj 78 528 pix_crop;
#X obj 93 237 * 1;
#X obj 244 651 outlet;
#X obj 93 274 fd_trunc2n;
#X obj 168 392 max;
#X obj 168 442 t f f f;
#X obj 228 614 pack f f f f;
#X obj 168 417 change;
#X obj 276 523 +;
#X obj 93 364 t f f b;
#X obj 259 442 t f f;
#X obj 313 522 -;
#X obj 258 478 t b f f;
#X obj 323 478 t f f f;
#X obj 306 582 t f f;
#X obj 342 610 +;
#X obj 311 552 * -1;
#X obj 259 392 max;
#X obj 259 417 change;
#X obj 93 299 t f f f f f, f 45;
#X obj 461 578 outlet;
#X obj 300 48 loadbang;
#X msg 300 71 size 1 \, xpos 0 \, ypos 0;
#X obj 286 98 route size xpos ypos reset float;
#X connect 0 0 14 0;
#X connect 1 0 4 0;
#X connect 3 0 36 0;
#X connect 4 0 13 0;
#X connect 4 1 5 0;
#X connect 4 2 6 0;
#X connect 5 0 7 0;
#X connect 5 1 0 0;
#X connect 6 0 7 1;
#X connect 6 1 0 1;
#X connect 7 0 8 0;
#X connect 8 0 9 0;
#X connect 8 1 10 0;
#X connect 9 0 11 1;
#X connect 10 0 12 1;
#X connect 11 0 17 0;
#X connect 12 0 30 0;
#X connect 13 0 2 0;
#X connect 14 0 16 0;
#X connect 16 0 32 0;
#X connect 17 0 20 0;
#X connect 18 0 13 3;
#X connect 18 1 19 0;
#X connect 18 2 21 0;
#X connect 19 0 15 0;
#X connect 20 0 18 0;
#X connect 21 0 19 2;
#X connect 22 0 13 1;
#X connect 22 1 13 2;
#X connect 22 2 19 0;
#X connect 23 0 13 4;
#X connect 23 1 25 0;
#X connect 24 0 29 0;
#X connect 25 0 19 0;
#X connect 25 1 24 0;
#X connect 26 0 21 1;
#X connect 26 1 24 1;
#X connect 26 2 28 1;
#X connect 27 0 19 1;
#X connect 27 1 28 0;
#X connect 28 0 19 3;
#X connect 29 0 27 0;
#X connect 30 0 31 0;
#X connect 31 0 23 0;
#X connect 32 0 22 0;
#X connect 32 1 9 1;
#X connect 32 2 10 1;
#X connect 32 3 26 0;
#X connect 32 4 33 0;
#X connect 34 0 35 0;
#X connect 35 0 36 0;
#X connect 36 0 14 1;
#X connect 36 1 11 0;
#X connect 36 2 12 0;
#X connect 36 3 35 0;
#X connect 36 4 13 0;
