#N canvas 500 50 530 480 12;
#X declare -path fd_lib;
#X obj 4 4 cnv 15 522 30 empty empty "fd_kinetica" 20 15 0 15 -228856
-1 0;
#X obj 4 254 cnv 15 522 20 empty empty arguments: 10 10 0 14 -228856
-1 0;
#X obj 4 314 cnv 15 522 20 empty empty inlets: 10 10 0 14 -228856 -1
0;
#X obj 4 374 cnv 15 522 20 empty empty outlets: 10 10 0 14 -228856
-1 0;
#X obj 4 453 cnv 15 522 20 empty empty version 10 10 0 14 -228856 -1
0;
#X obj 380 8 declare -path fd_lib;
#N canvas 0 22 450 300 meta 0;
#X text 10 10 fd_lib - metadata file - Fri Sep 13 18:19:44 EDT 2019
;
#X text 10 25 patch_name : fd_kinetica;
#X text 10 40 inlet : 1;
#X text 10 55 outlet : 1;
#X text 10 70 inlet~ : 0;
#X text 10 85 outlet~ : 0;
#X text 10 100 arguments : 0;
#X text 10 115 classes used : 8;
#X text 10 130 total objects: 11;
#X text 10 145 connections : 15;
#X text 10 160 dependencies : 0 [0];
#X text 10 175 externals : 0 [0];
#X text 10 190 internals : 8/233 [0t:/:timer:pack:outlet:inlet:f:-]
;
#X restore 438 423 pd meta;
#X text 440 452 fd_lib v0.1;
#X obj 191 178 fd_kinetica;
#X obj 191 105 tgl 15 0 empty empty empty 17 7 0 10 -262144 -1 -1 0
1;
#X obj 191 125 metro 100;
#X floatatom 260 103 5 0 0 0 - - -;
#X obj 191 150 counter -m 10;
#X obj 191 201 unpack;
#X floatatom 191 226 5 0 0 0 - - -;
#X floatatom 236 227 5 0 0 0 - - -;
#X text 38 167 Note a jump of -90 when the counter goes back to 0,
f 19;
#X text 28 46 Input is a stream of floats (n). Output is a pair of
floats that are respectively the difference of each (n) over time \,
and the value of (n) over time: n - (n-1)/t \, n/t.;
#X text 60 410 1: list: n-1 and n;
#X text 60 284 0 arguments;
#X text 60 340 1: float: stream of floats;
#X connect 8 0 13 0;
#X connect 9 0 10 0;
#X connect 10 0 12 0;
#X connect 11 0 10 1;
#X connect 12 0 8 0;
#X connect 13 0 14 0;
#X connect 13 1 15 0;
