#N canvas 0 22 450 300 10;
#X obj 454 102 random 20;
#X obj 454 124 sel 0;
#X obj 483 147 until;
#X obj 535 124 tgl 15 0 empty empty empty 17 7 0 10 -262144 -1 -1 0
1;
#X obj 535 144 metro 1;
#X obj 535 166 int 1;
#X obj 483 169 int 0;
#X obj 504 214 sel 0 1;
#X obj 528 283 list append;
#X obj 528 305 t a a;
#X obj 507 327 list;
#X obj 507 349 list length;
#X obj 504 236 t b b;
#X msg 529 262 1;
#X msg 453 34 bang;
#X obj 470 381 f;
#X obj 470 422 sel 0;
#X obj 497 447 change;
#X obj 497 469 print;
#X floatatom 421 151 5 0 0 0 - - -, f 5;
#X connect 0 0 1 0;
#X connect 0 0 19 0;
#X connect 1 1 2 0;
#X connect 2 0 6 0;
#X connect 3 0 4 0;
#X connect 4 0 5 0;
#X connect 5 0 7 0;
#X connect 6 0 7 0;
#X connect 7 0 12 0;
#X connect 7 1 8 1;
#X connect 7 1 15 0;
#X connect 8 0 9 0;
#X connect 9 0 10 1;
#X connect 9 1 8 1;
#X connect 10 0 11 0;
#X connect 11 0 15 1;
#X connect 12 0 10 0;
#X connect 12 1 13 0;
#X connect 13 0 8 0;
#X connect 14 0 0 0;
#X connect 15 0 16 0;
#X connect 16 1 17 0;
#X connect 17 0 18 0;
