#N canvas 0 22 450 300 10;
#X obj 45 105 moses 0.5;
#X obj 45 127 t b;
#X obj 45 191 f;
#X obj 106 191 f;
#X obj 96 126 t b;
#X obj 45 213 outlet;
#X obj 106 213 outlet;
#X obj 45 37 inlet;
#X obj 45 59 t f f f;
#X obj 45 83 * 2;
#X connect 0 0 1 0;
#X connect 0 1 4 0;
#X connect 1 0 2 0;
#X connect 2 0 5 0;
#X connect 3 0 6 0;
#X connect 4 0 3 0;
#X connect 7 0 8 0;
#X connect 8 0 9 0;
#X connect 8 1 2 1;
#X connect 8 2 3 1;
#X connect 9 0 0 0;
