#N canvas 0 22 450 300 10;
#X obj 45 145 moses 0.5;
#X obj 45 167 t b;
#X obj 45 231 f;
#X obj 45 253 outlet;
#X obj 45 37 inlet;
#X obj 115 167 t b;
#X obj 115 231 f;
#X obj 176 231 f;
#X obj 166 166 t b;
#X obj 115 253 outlet;
#X obj 176 253 outlet;
#X obj 115 145 moses 1;
#X obj 35 103 * 3;
#X obj 45 59 t f f f f;
#X connect 0 0 1 0;
#X connect 0 1 11 0;
#X connect 1 0 2 0;
#X connect 2 0 3 0;
#X connect 4 0 13 0;
#X connect 5 0 6 0;
#X connect 6 0 9 0;
#X connect 7 0 10 0;
#X connect 8 0 7 0;
#X connect 11 0 5 0;
#X connect 11 1 8 0;
#X connect 12 0 0 0;
#X connect 13 0 12 0;
#X connect 13 1 2 1;
#X connect 13 2 6 1;
#X connect 13 3 7 1;
