#N canvas 0 22 450 300 10;
#X obj 45 145 moses 0.5;
#X obj 45 167 t b;
#X obj 45 201 f;
#X obj 45 223 outlet;
#X obj 45 76 inlet;
#X obj 115 167 t b;
#X obj 115 201 f;
#X obj 175 200 f;
#X obj 175 166 t b;
#X obj 115 223 outlet;
#X obj 175 222 outlet;
#X obj 115 145 moses 1;
#X obj 245 166 t b;
#X obj 245 200 f;
#X obj 245 222 outlet;
#X obj 175 144 moses 1.5;
#X obj 305 166 t b;
#X obj 305 200 f;
#X obj 305 222 outlet;
#X obj 35 122 * 5;
#X obj 245 144 moses 2;
#X obj 305 144 moses 2.5;
#X obj 45 98 t f f f f f f, f 48;
#X connect 0 0 1 0;
#X connect 0 1 11 0;
#X connect 1 0 2 0;
#X connect 2 0 3 0;
#X connect 4 0 22 0;
#X connect 5 0 6 0;
#X connect 6 0 9 0;
#X connect 7 0 10 0;
#X connect 8 0 7 0;
#X connect 11 0 5 0;
#X connect 11 1 15 0;
#X connect 12 0 13 0;
#X connect 13 0 14 0;
#X connect 15 0 8 0;
#X connect 15 1 20 0;
#X connect 16 0 17 0;
#X connect 17 0 18 0;
#X connect 19 0 0 0;
#X connect 20 0 12 0;
#X connect 20 1 21 0;
#X connect 21 0 16 0;
#X connect 22 0 19 0;
#X connect 22 1 2 1;
#X connect 22 2 6 1;
#X connect 22 3 7 1;
#X connect 22 4 13 1;
#X connect 22 5 17 1;
