#N canvas 1 37 482 345 10;
#X obj 12 25 adc~ 1;
#X obj 12 47 env~;
#X floatatom 12 69 5 0 0 0 - - -, f 5;
#X obj 62 47 env~;
#X floatatom 62 69 5 0 0 0 - - -, f 5;
#X obj 112 47 env~;
#X floatatom 112 69 5 0 0 0 - - -, f 5;
#X obj 162 47 env~;
#X floatatom 162 69 5 0 0 0 - - -, f 5;
#X obj 222 47 env~;
#X floatatom 222 69 5 0 0 0 - - -, f 5;
#X obj 282 47 env~;
#X floatatom 282 69 5 0 0 0 - - -, f 5;
#X obj 332 47 env~;
#X floatatom 332 69 5 0 0 0 - - -, f 5;
#X obj 62 25 adc~ 2;
#X obj 112 25 adc~ 3;
#X obj 162 25 adc~ 4;
#X obj 222 25 adc~ 5;
#X obj 282 25 adc~ 6;
#X obj 332 25 adc~ 7;
#X obj 382 47 env~;
#X floatatom 382 69 5 0 0 0 - - -, f 5;
#X obj 382 25 adc~ 8;
#X obj 12 117 env~;
#X floatatom 12 139 5 0 0 0 - - -, f 5;
#X obj 62 117 env~;
#X floatatom 62 139 5 0 0 0 - - -, f 5;
#X obj 112 117 env~;
#X floatatom 112 139 5 0 0 0 - - -, f 5;
#X obj 162 117 env~;
#X floatatom 162 139 5 0 0 0 - - -, f 5;
#X obj 222 117 env~;
#X floatatom 222 139 5 0 0 0 - - -, f 5;
#X obj 282 117 env~;
#X floatatom 282 139 5 0 0 0 - - -, f 5;
#X obj 332 117 env~;
#X floatatom 332 139 5 0 0 0 - - -, f 5;
#X obj 382 117 env~;
#X floatatom 382 139 5 0 0 0 - - -, f 5;
#X obj 12 95 adc~ 9;
#X obj 62 95 adc~ 10;
#X obj 112 95 adc~ 11;
#X obj 162 95 adc~ 12;
#X obj 222 95 adc~ 13;
#X obj 282 95 adc~ 14;
#X obj 332 95 adc~ 15;
#X obj 382 95 adc~ 16;
#X obj 13 189 env~;
#X floatatom 13 211 5 0 0 0 - - -, f 5;
#X obj 63 189 env~;
#X floatatom 63 211 5 0 0 0 - - -, f 5;
#X obj 113 189 env~;
#X floatatom 113 211 5 0 0 0 - - -, f 5;
#X obj 163 189 env~;
#X floatatom 163 211 5 0 0 0 - - -, f 5;
#X obj 223 189 env~;
#X floatatom 223 211 5 0 0 0 - - -, f 5;
#X obj 283 189 env~;
#X floatatom 283 211 5 0 0 0 - - -, f 5;
#X obj 333 189 env~;
#X floatatom 333 211 5 0 0 0 - - -, f 5;
#X obj 383 189 env~;
#X floatatom 383 211 5 0 0 0 - - -, f 5;
#X obj 13 167 adc~ 17;
#X obj 63 167 adc~ 18;
#X obj 114 167 adc~ 19;
#X obj 163 167 adc~ 20;
#X obj 223 167 adc~ 21;
#X obj 283 167 adc~ 22;
#X obj 333 167 adc~ 23;
#X obj 383 167 adc~ 24;
#X connect 0 0 1 0;
#X connect 1 0 2 0;
#X connect 3 0 4 0;
#X connect 5 0 6 0;
#X connect 7 0 8 0;
#X connect 9 0 10 0;
#X connect 11 0 12 0;
#X connect 13 0 14 0;
#X connect 15 0 3 0;
#X connect 16 0 5 0;
#X connect 17 0 7 0;
#X connect 18 0 9 0;
#X connect 19 0 11 0;
#X connect 20 0 13 0;
#X connect 21 0 22 0;
#X connect 23 0 21 0;
#X connect 24 0 25 0;
#X connect 26 0 27 0;
#X connect 28 0 29 0;
#X connect 30 0 31 0;
#X connect 32 0 33 0;
#X connect 34 0 35 0;
#X connect 36 0 37 0;
#X connect 38 0 39 0;
#X connect 40 0 24 0;
#X connect 41 0 26 0;
#X connect 42 0 28 0;
#X connect 43 0 30 0;
#X connect 44 0 32 0;
#X connect 45 0 34 0;
#X connect 46 0 36 0;
#X connect 47 0 38 0;
#X connect 48 0 49 0;
#X connect 50 0 51 0;
#X connect 52 0 53 0;
#X connect 54 0 55 0;
#X connect 56 0 57 0;
#X connect 58 0 59 0;
#X connect 60 0 61 0;
#X connect 62 0 63 0;
#X connect 64 0 48 0;
#X connect 65 0 50 0;
#X connect 66 0 52 0;
#X connect 67 0 54 0;
#X connect 68 0 56 0;
#X connect 69 0 58 0;
#X connect 70 0 60 0;
#X connect 71 0 62 0;
