#N canvas 339 199 570 448 10;
#X obj 44 142 t f f;
#X obj 54 301 line;
#X obj 44 108 f \$1;
#X obj 44 49 inlet;
#X msg 54 279 \$1 \, \$2 \$3;
#X text 255 80 \$1 == instance (index of array);
#X obj 44 71 t b a;
#X obj 43 178 array get \$2 \$1 1;
#X obj 88 209 array get \$2 \$1 1;
#X obj 54 349 array set \$2 \$1;
#X obj 54 257 pack f f f;
#X text 256 100 \$2 == recipient (arrayname);
#X msg 293 174 all array1 array2 1000;
#X text 64 11 morph between two arrays (array1 \, array2) of equal
size to a recipient (array3) of equal size;
#X text 281 248 name your arrays as you wish and place them outside
this abstraction, f 23;
#X text 256 155 send a similar message to the clone inlet:;
#X obj 113 73 list split 2;
#X obj 111 96 list split 1;
#X obj 106 137 symbol;
#X obj 182 183 symbol;
#X obj 111 118 list trim;
#X obj 169 160 list trim;
#X text 231 50 NOTE: NEEDS TO BE CLONED OTHERWISE WONT MAKE SENSE...
;
#X connect 0 0 7 0;
#X connect 0 1 8 0;
#X connect 1 0 9 0;
#X connect 2 0 0 0;
#X connect 3 0 6 0;
#X connect 4 0 1 0;
#X connect 6 0 2 0;
#X connect 6 1 16 0;
#X connect 7 0 10 0;
#X connect 8 0 10 1;
#X connect 10 0 4 0;
#X connect 16 0 17 0;
#X connect 16 1 10 2;
#X connect 17 0 20 0;
#X connect 17 1 21 0;
#X connect 18 0 7 2;
#X connect 19 0 8 2;
#X connect 20 0 18 0;
#X connect 21 0 19 0;
