#N canvas 350 29 474 486 10;
#X text 211 414 check the helpfile <fd_bark-help.pd>;
#X obj 102 41 inlet~;
#X obj 134 93 +~ 1960;
#X obj 65 93 *~ 26.81;
#X obj 93 131 /~;
#X obj 93 155 -~ 0.53;
#X text 231 88 this patch needs the zexy libary;
#X obj 311 69 zexy;
#X obj 34 268 <~ 2;
#X obj 39 292 *~;
#X obj 225 308 *~;
#X obj 101 350 &&~;
#X obj 233 274 <~ 20.1;
#X obj 94 318 >~ 2;
#X obj 134 320 <~ 20.1;
#X obj 18 317 sig~ 2;
#X obj 18 339 -~;
#X obj 18 361 *~ 0.15;
#X obj 18 383 +~;
#X obj 225 330 -~ 20.1;
#X obj 225 352 *~ 0.22;
#X obj 225 374 +~;
#X obj 89 451 outlet~;
#X text 183 435 https://en.wikipedia.org/wiki/Bark_scale;
#X obj 329 22 block~ \$1;
#X connect 1 0 3 0;
#X connect 1 0 2 0;
#X connect 2 0 4 1;
#X connect 3 0 4 0;
#X connect 4 0 5 0;
#X connect 5 0 8 0;
#X connect 5 0 12 0;
#X connect 5 0 9 1;
#X connect 5 0 10 0;
#X connect 5 0 13 0;
#X connect 5 0 14 0;
#X connect 8 0 9 0;
#X connect 9 0 16 1;
#X connect 9 0 18 1;
#X connect 10 0 19 0;
#X connect 10 0 21 1;
#X connect 11 0 22 0;
#X connect 12 0 10 1;
#X connect 13 0 11 0;
#X connect 14 0 11 1;
#X connect 15 0 16 0;
#X connect 16 0 17 0;
#X connect 17 0 18 0;
#X connect 18 0 22 0;
#X connect 19 0 20 0;
#X connect 20 0 21 0;
#X connect 21 0 22 0;
