#N canvas 551 53 698 552 10;
#X obj 36 26 namecanvas this;
#X msg 17 480 \; this obj 200 30 cnv 10 10 10 myCanvas myCanvasR .
20 12 2 14 111 0;
#X obj 474 410 cnv 10 10 10 myCanvas myCanvasR . 20 12 2 14 -99865
-262144 0;
#X floatatom 3 216 5 0 0 0 - - -, f 5;
#X obj 8 237 pack;
#X floatatom 47 217 5 0 0 0 - - -, f 5;
#X obj 47 236 t b f;
#X obj 15 62 tgl 15 0 empty empty empty 17 7 0 10 -262144 -1 -1 0 1
;
#X obj 15 106 lorenz;
#X obj 15 128 unpack f f f;
#X obj 15 150 fd_norm;
#X obj 49 150 fd_norm;
#X obj 16 174 * 100;
#X obj 15 84 metro 20;
#X obj 16 196 +;
#X floatatom 125 204 5 0 0 0 - - -, f 5;
#X obj 67 175 * 100;
#X obj 67 197 +;
#X floatatom 113 175 5 0 0 0 - - -, f 5;
#X floatatom 115 121 5 0 0 0 - - -, f 5;
#X floatatom 68 65 5 0 0 0 - - -, f 5;
#X msg 24 261 \; myCanvasR pos \$1 \$2;
#X connect 3 0 4 0;
#X connect 4 0 21 0;
#X connect 5 0 6 0;
#X connect 6 0 3 0;
#X connect 6 1 4 1;
#X connect 7 0 13 0;
#X connect 8 0 9 0;
#X connect 9 0 10 0;
#X connect 9 1 11 0;
#X connect 10 0 12 0;
#X connect 11 0 16 0;
#X connect 12 0 14 0;
#X connect 13 0 8 0;
#X connect 14 0 3 0;
#X connect 15 0 14 1;
#X connect 16 0 17 0;
#X connect 17 0 5 0;
#X connect 18 0 17 1;
#X connect 19 0 12 1;
#X connect 19 0 16 1;
#X connect 20 0 13 1;
