#N canvas 643 123 518 411 10;
#X text 140 170 f(x) = (x3 + 3x2 − 6x − 8)/4.;
#X obj 27 164 *;
#X obj 27 208 *;
#X obj 27 186 t f f;
#X obj 27 230 -;
#X obj 27 296 / -7.78e+06;
#X obj 27 274 - 20000;
#X obj 71 231 * 11000;
#X obj 27 252 +;
#X obj 54 208 * 1000;
#X obj 27 318 outlet;
#X obj 27 95 inlet;
#X obj 27 117 mod 100;
#X text 166 205 dont ask me about these coefficiends...;
#X obj 27 142 t f f f f;
#X text 123 67 an attempt to a pseudo cubic curve \, from 0-99 only
;
#X obj 116 114 inlet;
#X obj 118 136 * -100000;
#X connect 1 0 3 0;
#X connect 2 0 4 0;
#X connect 3 0 2 0;
#X connect 3 1 9 0;
#X connect 4 0 8 0;
#X connect 5 0 10 0;
#X connect 6 0 5 0;
#X connect 7 0 8 1;
#X connect 8 0 6 0;
#X connect 9 0 4 1;
#X connect 11 0 12 0;
#X connect 12 0 14 0;
#X connect 14 0 1 0;
#X connect 14 1 1 1;
#X connect 14 2 2 1;
#X connect 14 3 7 0;
#X connect 16 0 17 0;
#X connect 17 0 5 1;
