#N canvas 0 22 404 295 10;
#X obj 77 95 f;
#X obj 103 95 + 1;
#X obj 131 95 mod 100;
#X obj 77 117 / 100;
#X obj 77 203 cos;
#X obj 104 203 sin;
#X obj 77 225 * 2;
#X obj 104 225 * 2;
#X obj 77 183 t f f;
#X obj 77 139 * 6.2832;
#X text 256 54 an XY circle;
#X text 282 140 <-- radians;
#X obj 77 247 pack;
#X obj 77 267 outlet XY;
#X obj 77 32 inlet;
#X msg 97 74 0;
#X obj 77 54 route bang reset radius;
#X obj 197 109 t f f;
#X obj 202 208 abs;
#X obj 77 161 * 1;
#X msg 145 178 -1;
#X msg 175 180 1;
#X obj 163 134 moses;
#X obj 163 156 b;
#X obj 190 156 b;
#N canvas 0 22 271 189 META 0;
#X obj 21 17 loadbang;
#X obj 21 114 print fd_circle;
#X msg 21 40 ********[fd_circle]******** \, <bang> moves position \,
<reset> restarts the position \, <radius X> sets radius \, <radius
-X> changes direction \, ********[fd_circle]******** \,, f 37;
#X text 200 143 by [fd];
#X connect 0 0 2 0;
#X connect 2 0 1 0;
#X restore 316 263 pd META;
#X text 178 263 see help file;
#X connect 0 0 1 0;
#X connect 0 0 3 0;
#X connect 1 0 2 0;
#X connect 2 0 0 1;
#X connect 3 0 9 0;
#X connect 4 0 6 0;
#X connect 5 0 7 0;
#X connect 6 0 12 0;
#X connect 7 0 12 1;
#X connect 8 0 4 0;
#X connect 8 1 5 0;
#X connect 9 0 19 0;
#X connect 12 0 13 0;
#X connect 14 0 16 0;
#X connect 15 0 0 1;
#X connect 16 0 0 0;
#X connect 16 1 15 0;
#X connect 16 2 17 0;
#X connect 17 0 22 0;
#X connect 17 1 18 0;
#X connect 18 0 6 1;
#X connect 18 0 7 1;
#X connect 19 0 8 0;
#X connect 20 0 19 1;
#X connect 21 0 19 1;
#X connect 22 0 23 0;
#X connect 22 1 24 0;
#X connect 23 0 20 0;
#X connect 24 0 21 0;
