#N canvas 1043 498 233 169 10;
#X obj 10 10 cnv 15 198 198 empty empty empty 20 12 0 14 -33289 -66577
0;
#X obj 10 68 cnv 15 48 30 empty \$0-beat empty 20 12 0 14 -262144 -166441
0;
#X obj 146 106 nbx 1 40 -1e+37 1e+37 0 0 empty \$0-uni empty 0 -8 0
40 -1 -260097 -260097 0 256;
#X obj 80 106 nbx 1 40 -1e+37 1e+37 0 0 empty \$0-dec empty 0 -8 0
40 -1 -260097 -260097 0 256;
#X obj 14 106 nbx 1 40 -1e+37 1e+37 0 0 empty \$0-cen empty 0 -8 0
40 -1 -260097 -260097 0 256;
#X obj 10 10 cnv 50 198 50 empty \$0-bpm 99bpm 40 25 0 33 -262144 -166441
0;
#X obj 10 158 cnv 15 198 50 empty empty send/receive_these_messages:
4 7 0 8 -233017 -4160 0;
#X obj 19 188 nbx 5 14 -1e+37 1e+37 0 0 empty \$1-beatmsec \$1-beatmsec
0 -8 0 8 -262144 -1 -1 0 256;
#X obj 80 188 nbx 5 14 -1e+37 1e+37 0 0 empty \$1-pulse \$1-pulse 0
-8 0 8 -262144 -1 -1 0 256;
#X obj 142 188 nbx 5 14 -1e+37 1e+37 0 0 empty \$1-barcount \$1-barcount
0 -8 0 8 -262144 -1 -1 0 256;
#X obj 191 12 tgl 15 0 \$1-keys \$1-keys-set \$1-keys: -40 7 0 10 -1
-260097 -260097 0 1;
#X obj 12 12 tgl 15 0 \$1-click-onoff \$1-click-onoff-set 1|0 20 7
0 10 -1 -260097 -260097 0 1;
#X obj 197 159 bng 10 250 50 0 \$1-reset \$1-reset-set \$1-reset -40
5 0 8 -261234 -1 -260097;
#X obj 196 49 tgl 10 0 \$1-click \$1-click-set \$1-click: -40 5 0 8
-1 -260097 -260097 0 1;
#N canvas 17 23 1017 722 guts 1;
#X obj 166 347 metro 220;
#X obj 137 89 tgl 15 0 empty empty empty 17 7 0 10 -262144 -1 -1 0
1;
#X obj 137 160 sel 1 0;
#X obj 137 182 timer;
#X obj 273 658 f;
#X obj 303 658 + 1;
#X obj 273 702 mod 10;
#X obj 341 704 mod 100;
#X obj 405 704 mod 1000;
#X obj 405 748 int;
#X obj 341 748 int;
#X obj 341 726 / 10;
#X obj 405 726 / 100;
#X obj 183 544 f;
#X obj 207 545 + 1;
#X obj 183 569 mod 4;
#X msg 201 522 0;
#X obj 420 229 sel 1 0;
#X msg 408 318 13;
#X obj 314 253 f;
#X obj 345 253 + 1;
#X obj 347 207 sel 1;
#X obj 314 231 metro 1;
#X msg 314 275 60000 \$1;
#X obj 314 297 /;
#X obj 314 319 int;
#X msg 351 414 label \$1bpm;
#X obj 314 341 min 999;
#X obj 393 438 s \$0-bpm;
#X obj 314 157 t f f f;
#X obj 137 225 t f f f f, f 15;
#X obj 182 588 t f f f;
#X obj 273 614 sel 0;
#X obj 166 306 tgl 15 0 empty empty empty 17 7 0 10 -262144 -1 -1 0
1;
#X msg 386 489 color \$1 22 22;
#X obj 137 140 t f f, f 8;
#X msg 363 604 0;
#X obj 231 389 sel 0 1;
#X obj 273 680 t f f f f, f 33;
#X msg 269 485 color 14 22 22;
#X msg 201 712 pos \$1 68;
#X obj 201 654 * 50;
#X obj 201 676 + 10;
#X msg 399 353 color \$1 22 14;
#X msg 43 234 set \$1;
#X obj 137 24 key;
#X obj 137 46 spigot;
#X obj 137 68 sel 32;
#X msg 436 78 keyboard input \$1;
#X obj 344 20 sel 0 1;
#X msg 360 44 symbol disabled;
#X msg 429 17 symbol enabled;
#X msg 440 318 2;
#X msg 260 459 color 0 1 1;
#X obj 736 828 *~;
#X obj 681 738 line~;
#X msg 707 697 0 \$1;
#X obj 706 674 f;
#X obj 732 675 del;
#X obj 706 589 t f f;
#X obj 741 650 t f f;
#X msg 742 697 1 \$1;
#X obj 741 628 * 0.05;
#X obj 776 787 osc~ 220;
#X obj 705 629 * 0.1;
#X msg 820 658 stop \, 0 10;
#X msg 843 730 880;
#X obj 683 770 *~;
#X obj 683 792 *~;
#X msg 799 734 440;
#X obj 755 522 sel 0 2;
#X obj 859 826 fd_switch;
#X obj 914 859 switch~;
#X obj 749 874 *~;
#X obj 732 896 outlet~;
#X obj 472 768 s \$1-barcount;
#X obj 182 821 s \$1-beat;
#X obj 137 883 s \$1-beatmsec;
#X obj 461 99 print fd_clicktrack-\$1;
#X obj 753 495 r \$1-beat;
#X obj 372 566 r \$1-reset;
#X obj 8 7 inlet;
#X obj 861 485 r \$1-click;
#X obj 170 25 r \$1-keys;
#X obj 166 369 f;
#X obj 166 391 t f b;
#X obj 166 850 s \$1-pulse;
#X obj 706 461 r \$1-pulse;
#X msg 744 550 0.2;
#X msg 782 551 0.1;
#X obj 683 814 *~;
#X obj 39 278 r \$1-click-onoff;
#X obj 43 255 s \$1-click-onoff-set;
#X obj 8 29 route float bang;
#X obj 55 81 t f f;
#X msg 55 103 60000 \$1;
#X obj 55 125 /;
#X obj 252 179 t f b b;
#X msg 304 198 0;
#X obj 805 31 inlet pulse;
#X obj 847 113 t b b;
#X obj 847 91 spigot 1;
#X msg 884 112 0;
#X obj 873 156 pack \$1;
#X msg 873 178 \; \$1-keys-set 0 \; \$1-click-onoff 0 \;;
#X obj 805 53 t b b;
#X obj 533 135 change;
#X msg 851 365 1;
#X obj 420 173 t f b;
#X obj 597 133 timer;
#X obj 669 109 t b b;
#X obj 597 155 t f f;
#N canvas 772 84 450 300 msg 0;
#X obj 24 8 inlet;
#X obj 110 138 s \$1-reset-set;
#X obj 24 52 s \$1-keys-set;
#X obj 79 106 s \$1-click-set;
#X obj 54 79 s \$1-click-onoff-set;
#X obj 25 30 route keys onoff click reset goto;
#X obj 215 97 s \$1-goto;
#X connect 0 0 5 0;
#X connect 5 0 2 0;
#X connect 5 1 4 0;
#X connect 5 2 3 0;
#X connect 5 3 1 0;
#X connect 5 4 6 0;
#X restore 64 6 pd msg;
#X obj 311 363 f;
#X obj 166 326 t f f b;
#X obj 333 393 sel 0;
#X obj 405 768 s \$0-cen;
#X obj 341 769 s \$0-dec;
#X obj 273 769 s \$0-uni;
#X obj 201 769 s \$0-beat;
#X obj 331 658 t f f;
#X obj 331 636 r \$1-goto;
#X obj 736 850 *~ 0.1;
#X connect 0 0 84 0;
#X connect 1 0 35 0;
#X connect 2 0 3 0;
#X connect 2 1 3 1;
#X connect 3 0 30 0;
#X connect 4 0 5 0;
#X connect 4 0 38 0;
#X connect 5 0 4 1;
#X connect 6 0 118 0;
#X connect 7 0 11 0;
#X connect 8 0 12 0;
#X connect 9 0 116 0;
#X connect 10 0 117 0;
#X connect 11 0 10 0;
#X connect 12 0 9 0;
#X connect 13 0 14 0;
#X connect 13 0 15 0;
#X connect 14 0 13 1;
#X connect 15 0 31 0;
#X connect 16 0 13 1;
#X connect 17 0 18 0;
#X connect 17 1 52 0;
#X connect 18 0 43 0;
#X connect 18 0 34 0;
#X connect 19 0 20 0;
#X connect 19 0 23 0;
#X connect 20 0 19 1;
#X connect 21 1 19 1;
#X connect 22 0 19 0;
#X connect 23 0 24 0;
#X connect 24 0 25 0;
#X connect 25 0 27 0;
#X connect 26 0 28 0;
#X connect 27 0 113 0;
#X connect 29 0 22 0;
#X connect 29 1 21 0;
#X connect 29 2 17 0;
#X connect 30 0 77 0;
#X connect 30 1 33 0;
#X connect 30 1 44 0;
#X connect 30 2 0 1;
#X connect 30 3 84 1;
#X connect 31 0 76 0;
#X connect 31 1 41 0;
#X connect 31 2 32 0;
#X connect 32 0 4 0;
#X connect 33 0 114 0;
#X connect 34 0 119 0;
#X connect 35 0 2 0;
#X connect 35 1 29 0;
#X connect 36 0 4 0;
#X connect 37 0 53 0;
#X connect 37 0 16 0;
#X connect 37 1 25 0;
#X connect 37 1 52 0;
#X connect 37 1 39 0;
#X connect 37 2 39 0;
#X connect 38 0 6 0;
#X connect 38 1 7 0;
#X connect 38 2 8 0;
#X connect 38 3 75 0;
#X connect 39 0 119 0;
#X connect 40 0 119 0;
#X connect 41 0 42 0;
#X connect 42 0 40 0;
#X connect 43 0 28 0;
#X connect 44 0 92 0;
#X connect 45 0 46 0;
#X connect 46 0 47 0;
#X connect 47 0 1 0;
#X connect 48 0 78 0;
#X connect 49 0 50 0;
#X connect 49 1 51 0;
#X connect 50 0 48 0;
#X connect 51 0 48 0;
#X connect 52 0 43 0;
#X connect 53 0 28 0;
#X connect 53 0 119 0;
#X connect 54 0 122 0;
#X connect 55 0 67 0;
#X connect 55 0 67 1;
#X connect 56 0 55 0;
#X connect 57 0 56 0;
#X connect 58 0 57 0;
#X connect 59 0 64 0;
#X connect 59 1 62 0;
#X connect 60 0 58 0;
#X connect 60 1 61 0;
#X connect 61 0 55 0;
#X connect 62 0 60 0;
#X connect 63 0 54 1;
#X connect 64 0 57 1;
#X connect 65 0 58 0;
#X connect 65 0 55 0;
#X connect 66 0 63 0;
#X connect 67 0 68 0;
#X connect 67 0 68 1;
#X connect 68 0 90 0;
#X connect 68 0 90 1;
#X connect 69 0 63 0;
#X connect 70 0 88 0;
#X connect 70 0 66 0;
#X connect 70 1 88 0;
#X connect 70 2 89 0;
#X connect 70 2 69 0;
#X connect 71 0 73 1;
#X connect 71 1 72 0;
#X connect 73 0 74 0;
#X connect 79 0 70 0;
#X connect 80 0 36 0;
#X connect 81 0 93 0;
#X connect 82 0 71 0;
#X connect 83 0 46 1;
#X connect 83 0 49 0;
#X connect 84 0 85 0;
#X connect 85 0 86 0;
#X connect 85 1 13 0;
#X connect 87 0 59 0;
#X connect 88 0 64 1;
#X connect 89 0 64 1;
#X connect 90 0 54 0;
#X connect 91 0 33 0;
#X connect 93 0 94 0;
#X connect 93 1 1 0;
#X connect 93 2 112 0;
#X connect 94 0 95 0;
#X connect 94 1 97 0;
#X connect 95 0 96 0;
#X connect 96 0 30 0;
#X connect 97 0 113 0;
#X connect 97 1 52 0;
#X connect 97 2 98 0;
#X connect 98 0 22 0;
#X connect 99 0 105 0;
#X connect 100 0 103 0;
#X connect 100 0 107 0;
#X connect 100 1 102 0;
#X connect 101 0 100 0;
#X connect 102 0 101 1;
#X connect 103 0 104 0;
#X connect 105 0 110 0;
#X connect 105 1 101 0;
#X connect 106 0 108 0;
#X connect 107 0 37 0;
#X connect 108 0 23 0;
#X connect 108 1 98 0;
#X connect 109 0 111 0;
#X connect 110 0 109 0;
#X connect 110 1 109 1;
#X connect 111 0 106 0;
#X connect 111 1 84 0;
#X connect 113 0 115 0;
#X connect 114 0 0 0;
#X connect 114 1 37 0;
#X connect 114 2 113 0;
#X connect 115 1 26 0;
#X connect 120 0 4 1;
#X connect 120 1 38 0;
#X connect 121 0 120 0;
#X connect 122 0 73 0;
#X restore 15 234 pd guts;
#X obj 15 213 inlet;
#X obj 15 256 outlet~;
#X text 67 232 keys:;
#X text 68 247 spacebar = tap pulse;
#X text 68 261 click = sound;
#X text 175 266 fdch;
#X obj 90 213 inlet outside-metro;
#X connect 14 0 16 0;
#X connect 15 0 14 0;
#X connect 21 0 14 1;
