#N canvas 0 22 912 567 12;
#X obj 185 141 spigot 1;
#X obj 185 166 delay;
#X obj 288 387 pack;
#X obj 288 434 t a a;
#X obj 288 154 f;
#X obj 324 154 + 1;
#X obj 288 209 t f b;
#X obj 458 229 f;
#X obj 493 229 + 1;
#X obj 457 254 moses 7;
#X obj 288 179 moses 8;
#X obj 341 271 t b b;
#X obj 131 114 unpack;
#X obj 185 52 t f f;
#X obj 185 88 sel 1;
#X obj 22 174 t b b;
#X msg 185 25 0;
#X obj 523 255 + 1;
#X obj 288 317 / 150;
#X obj 457 317 / 150;
#X obj 359 178 + 1;
#X obj 222 114 s \$0-reset;
#X obj 309 126 r \$0-reset;
#X obj 477 206 r \$0-reset;
#X obj 22 479 bng 15 250 50 0 empty empty empty 17 7 0 10 -262144 -1
-1;
#X obj 320 17 inlet;
#X obj 320 42 t b b;
#X obj 378 454 outlet;
#X obj 754 494 outlet;
#X msg 223 25 1;
#X obj 359 153 fd_getsize \$1;
#X obj 523 230 fd_getsize \$2;
#X obj 539 119 pack \$1 \$2;
#X obj 539 149 print fd_dataRead;
#X obj 457 343 * \$3;
#X obj 654 15 inlet;
#X obj 486 63 spigot 1;
#X obj 486 88 t b b;
#X msg 533 88 0;
#X obj 495 342 max 1;
#X obj 457 367 + 1;
#X msg 378 300 0 1;
#X obj 22 149 del 1;
#X obj 486 119 t b b;
#X obj 288 238 fd_get-element \$1 y;
#X obj 457 291 fd_get-element \$2 y;
#X connect 0 0 1 0;
#X connect 1 0 4 0;
#X connect 2 0 3 0;
#X connect 3 0 12 0;
#X connect 3 1 27 0;
#X connect 4 0 5 0;
#X connect 4 0 10 0;
#X connect 5 0 4 1;
#X connect 6 0 44 0;
#X connect 6 1 7 0;
#X connect 7 0 8 0;
#X connect 7 0 9 0;
#X connect 8 0 7 1;
#X connect 9 0 45 0;
#X connect 10 0 6 0;
#X connect 10 1 11 0;
#X connect 11 0 42 0;
#X connect 11 1 41 0;
#X connect 12 1 0 0;
#X connect 13 0 14 0;
#X connect 13 1 0 1;
#X connect 14 0 0 0;
#X connect 14 1 21 0;
#X connect 15 0 24 0;
#X connect 15 1 16 0;
#X connect 16 0 13 0;
#X connect 17 0 9 1;
#X connect 18 0 2 0;
#X connect 19 0 34 0;
#X connect 20 0 10 1;
#X connect 22 0 4 1;
#X connect 23 0 7 1;
#X connect 24 0 28 0;
#X connect 25 0 26 0;
#X connect 26 0 29 0;
#X connect 26 1 36 0;
#X connect 29 0 13 0;
#X connect 30 0 20 0;
#X connect 31 0 17 0;
#X connect 32 0 33 0;
#X connect 34 0 40 0;
#X connect 35 0 39 0;
#X connect 36 0 37 0;
#X connect 37 0 43 0;
#X connect 37 1 38 0;
#X connect 37 1 32 0;
#X connect 38 0 36 1;
#X connect 39 0 34 1;
#X connect 40 0 2 1;
#X connect 41 0 27 0;
#X connect 42 0 15 0;
#X connect 43 0 30 0;
#X connect 43 1 31 0;
#X connect 44 0 18 0;
#X connect 45 0 19 0;
