#N canvas 156 31 564 400 12;
#X text 87 290 instance N of clone depends on size of data array;
#X obj 63 66 inlet;
#X text 53 29 cloning indexes and making a line for each value pair
;
#X text 265 74 \$1 == data id;
#X text 266 93 \$2 == size of data array;
#X text 227 57 arguments:;
#X obj 63 188 list prepend all;
#X obj 63 213 list trim;
#X msg 133 262 vis 29 1;
#X text 72 118 inlet 1 : list source (id) \, target (id) \, time (msec)
;
#X obj 63 321 clone fd_dataMorphArray \$2 \$1 \$3;
#X connect 1 0 6 0;
#X connect 6 0 7 0;
#X connect 7 0 10 0;
#X connect 8 0 10 0;
