#N canvas 0 22 452 368 12;
#X msg 41 216 dsp 1;
#X obj 41 240 s pd;
#X msg 160 209 dsp is on;
#X obj 123 83 bang~;
#X obj 123 136 t b b;
#X obj 123 111 spigot 1;
#X msg 171 137 0;
#X msg 123 190 0;
#X obj 41 193 spigot 1;
#X obj 308 58 block~ 16384;
#X obj 41 62 inlet;
#X text 44 25 bang to turn on DSP only if it's off;
#X obj 123 161 t b b b;
#X obj 318 243 outlet;
#X obj 160 234 print fd_dspon;
#X obj 318 185 loadbang;
#X msg 318 210 1;
#X msg 281 181 0;
#X text 188 162 to a switch on parent patch;
#X connect 0 0 1 0;
#X connect 2 0 14 0;
#X connect 3 0 5 0;
#X connect 4 0 12 0;
#X connect 4 1 6 0;
#X connect 5 0 4 0;
#X connect 6 0 5 1;
#X connect 7 0 8 1;
#X connect 8 0 0 0;
#X connect 10 0 8 0;
#X connect 12 0 7 0;
#X connect 12 1 2 0;
#X connect 12 2 17 0;
#X connect 15 0 16 0;
#X connect 16 0 13 0;
#X connect 17 0 13 0;
