#N canvas 0 22 450 300 12;
#X msg 159 225 data-\$1;
#X obj 159 253 fd_visera 1;
#X obj 254 253 fd_visera;
#X msg 254 224 data-\$1;
#X obj 159 200 route 1 0;
#X obj 10 10 cnv 15 100 60 empty empty dataVis 4 10 0 10 -233017 -1
0;
#X obj 13 34 bng 15 250 50 0 empty empty d1 2 8 0 10 -262144 -1 -1
;
#X obj 182 6 tgl 15 0 empty empty empty 17 7 0 10 -262144 -1 -1 0 1
;
#X msg 182 56 \$1 1;
#X obj 39 34 bng 15 250 50 0 empty empty d2 2 8 0 10 -262144 -1 -1
;
#X obj 202 6 tgl 15 0 empty empty empty 17 7 0 10 -262144 -1 -1 0 1
;
#X obj 67 34 bng 15 250 50 0 empty empty d3 2 8 0 10 -262144 -1 -1
;
#X obj 222 6 tgl 15 0 empty empty empty 17 7 0 10 -262144 -1 -1 0 1
;
#X obj 92 34 bng 15 250 50 0 empty empty d4 2 8 0 10 -262144 -1 -1
;
#X obj 242 6 tgl 15 0 empty empty empty 17 7 0 10 -262144 -1 -1 0 1
;
#X obj 13 52 bng 15 250 50 0 empty empty d5 2 8 0 10 -262144 -1 -1
;
#X obj 263 6 tgl 15 0 empty empty empty 17 7 0 10 -262144 -1 -1 0 1
;
#X obj 39 52 bng 15 250 50 0 empty empty d6 2 8 0 10 -262144 -1 -1
;
#X obj 283 6 tgl 15 0 empty empty empty 17 7 0 10 -262144 -1 -1 0 1
;
#X obj 67 52 bng 15 250 50 0 empty empty d7 2 8 0 10 -262144 -1 -1
;
#X obj 303 6 tgl 15 0 empty empty empty 17 7 0 10 -262144 -1 -1 0 1
;
#X obj 92 52 bng 15 250 50 0 empty empty d8 2 8 0 10 -262144 -1 -1
;
#X obj 323 6 tgl 15 0 empty empty empty 17 7 0 10 -262144 -1 -1 0 1
;
#X msg 202 56 \$1 2;
#X msg 222 56 \$1 3;
#X msg 242 56 \$1 4;
#X msg 263 56 \$1 5;
#X msg 283 56 \$1 6;
#X msg 303 55 \$1 7;
#X msg 323 56 \$1 8;
#X obj 57 14 bng 15 250 50 0 empty empty all 17 7 0 10 -262144 -1 -1
;
#X msg 217 174 label d\$1 \, label_pos 2 8;
#X msg 248 141 8;
#X obj 92 14 tgl 15 0 empty empty empty 17 7 0 10 -262144 -1 -1 0 1
;
#X obj 46 80 t b f;
#X obj 46 130 list prepend;
#X msg 46 105 8 \, 7 \, 6 \, 5 \, 4 \, 3 \, 2 \, 1;
#X msg 121 73 set \$1;
#X connect 0 0 1 0;
#X connect 3 0 2 0;
#X connect 4 0 0 0;
#X connect 4 1 3 0;
#X connect 6 0 7 0;
#X connect 7 0 8 0;
#X connect 8 0 4 0;
#X connect 9 0 10 0;
#X connect 10 0 23 0;
#X connect 11 0 12 0;
#X connect 12 0 24 0;
#X connect 13 0 14 0;
#X connect 14 0 25 0;
#X connect 15 0 16 0;
#X connect 16 0 26 0;
#X connect 17 0 18 0;
#X connect 18 0 27 0;
#X connect 19 0 20 0;
#X connect 20 0 28 0;
#X connect 21 0 22 0;
#X connect 22 0 29 0;
#X connect 23 0 4 0;
#X connect 24 0 4 0;
#X connect 25 0 4 0;
#X connect 26 0 4 0;
#X connect 27 0 4 0;
#X connect 28 0 4 0;
#X connect 29 0 4 0;
#X connect 30 0 33 0;
#X connect 32 0 31 0;
#X connect 33 0 34 0;
#X connect 34 0 36 0;
#X connect 34 1 35 1;
#X connect 34 1 37 0;
#X connect 35 0 4 0;
#X connect 36 0 35 0;
#X connect 37 0 7 0;
#X connect 37 0 10 0;
#X connect 37 0 12 0;
#X connect 37 0 14 0;
#X connect 37 0 16 0;
#X connect 37 0 18 0;
#X connect 37 0 20 0;
#X connect 37 0 22 0;
#X coords 0 -1 1 1 100 60 2 10 10;
