#N struct template-0 float x float y float z float s float id array
array-0 template-0-element;
#N struct template-0-element float y float s float w;
#N canvas 0 22 717 492 12;
#X obj 235 323 pointer;
#X msg 235 300 bang;
#X floatatom 15 200 0 0 0 0 - - -;
#X floatatom 17 350 0 0 0 0 - - -;
#X floatatom 235 369 0 0 0 0 - - -;
#X floatatom 476 277 0 0 0 0 - - -;
#X obj 476 230 pointer;
#X obj 318 163 pointer;
#X msg 474 195 bang;
#N canvas 512 81 726 595 stuff 0;
#X obj 382 244 pointer;
#X obj 340 115 t b b b;
#X msg 334 67 bang;
#X msg 321 388 200;
#X obj 28 354 unpack;
#X msg 415 341 set \$1;
#X msg 515 19 clear;
#X msg 382 221 traverse pd-data-\$1 \, bang;
#X obj 27 121 r \$0-list;
#X obj 187 61 r \$0-size;
#X obj 258 151 /;
#X msg 258 126 200 \$1;
#X obj 258 176 max 1;
#X obj 258 201 int;
#X obj 148 302 t p b p;
#X obj 187 86 t b f f f;
#X obj 608 72 f \$3;
#X msg 596 157 0;
#X obj 547 130 spigot 1;
#X obj 515 44 t a a b;
#X obj 474 101 spigot 1;
#X obj 563 100 spigot;
#X obj 547 155 t a b;
#X obj 511 75 == 0;
#X obj 29 513 set template-\$1-element y;
#X obj 84 429 element template-\$1 array-\$1;
#X obj 322 415 setsize template-\$1 array-\$1;
#X obj 381 198 pack \$1;
#X obj 519 180 s pd-data-\$1;
#X obj 150 231 pack 20 20 0 1 \$1;
#X obj 148 274 append template-\$1 x y z s id;
#X obj 193 366 pointer;
#X obj 447 383 pointer;
#X obj 78 385 t f b;
#X obj 621 104 r \$0-resize;
#X msg 621 129 1;
#X connect 0 0 30 5;
#X connect 1 0 29 0;
#X connect 1 1 27 0;
#X connect 1 2 6 0;
#X connect 2 0 1 0;
#X connect 3 0 26 0;
#X connect 4 0 24 0;
#X connect 4 1 33 0;
#X connect 5 0 3 0;
#X connect 6 0 19 0;
#X connect 7 0 0 0;
#X connect 8 0 4 0;
#X connect 9 0 15 0;
#X connect 10 0 12 0;
#X connect 11 0 10 0;
#X connect 12 0 13 0;
#X connect 13 0 29 3;
#X connect 14 0 31 0;
#X connect 14 1 3 0;
#X connect 14 2 32 0;
#X connect 15 0 2 0;
#X connect 15 1 29 2;
#X connect 15 2 5 0;
#X connect 15 3 11 0;
#X connect 16 0 23 0;
#X connect 16 0 21 1;
#X connect 17 0 18 1;
#X connect 18 0 22 0;
#X connect 19 0 20 0;
#X connect 19 1 21 0;
#X connect 19 2 16 0;
#X connect 20 0 28 0;
#X connect 21 0 18 0;
#X connect 22 0 28 0;
#X connect 22 1 17 0;
#X connect 23 0 20 1;
#X connect 25 0 24 1;
#X connect 27 0 7 0;
#X connect 29 0 30 0;
#X connect 30 0 14 0;
#X connect 31 0 25 1;
#X connect 32 0 26 1;
#X connect 33 0 25 0;
#X connect 33 1 31 0;
#X connect 34 0 35 0;
#X connect 35 0 18 1;
#X restore 508 383 pd stuff;
#X text 33 18 Scalars may contain arrays \, and moreover the elements
of an array can be of any scalar type (and can have sub-arrays recursively.)
The type of the element of an array is fixed in the template. In this
case \, "template5" contains the definition of the top-level scalar
and "template5-element" is the template of each array element (see
the template subpatch.);
#X text 328 121 click to get pointer;
#X text 461 173 get size;
#X text 221 158 set size;
#X text 16 133 select an individual;
#X text 16 153 element \, which is a;
#X text 14 169 scalar with template;
#X text 104 189 template5;
#X text 12 413 work as before \, but on;
#X text 12 433 array elements...;
#X text 433 424 Updated for Pd version 0.35;
#X text 17 395 normal "set" amd "get";
#N canvas 733 57 525 364 onload 0;
#X obj 18 12 loadbang;
#X obj 18 65 t b b b b b;
#X msg 203 108 clear;
#X obj 91 125 sel 0;
#X msg 91 150 50;
#X obj 93 176 s \$0-size;
#X obj 334 66 s \$0-size;
#X obj 91 100 pack \$2;
#X obj 61 322 outlet;
#X msg 152 301 \; pd-data-\$1 vis 1;
#X obj 332 104 s \$0-numbers;
#X obj 253 40 route list size numbers vis id;
#X msg 330 137 vis \$1;
#X obj 254 13 r fd_env-\$1;
#X obj 310 312 s fd_env-\$1-id;
#X obj 245 70 s \$0-list;
#X obj 152 276 pack \$1;
#X obj 64 230 list append data-\$1 template-\$1 template-\$1-element
;
#X obj 310 287 pack \$1;
#X obj 330 162 s pd-data-\$1;
#X obj 202 157 s pd-data-\$1;
#X obj 18 37 spigot \$3;
#X obj 203 133 spigot \$3;
#X connect 0 0 21 0;
#X connect 1 0 16 0;
#X connect 1 1 18 0;
#X connect 1 2 17 0;
#X connect 1 3 7 0;
#X connect 1 4 2 0;
#X connect 2 0 22 0;
#X connect 3 0 4 0;
#X connect 3 1 5 0;
#X connect 4 0 5 0;
#X connect 7 0 3 0;
#X connect 11 0 15 0;
#X connect 11 1 6 0;
#X connect 11 2 10 0;
#X connect 11 3 12 0;
#X connect 11 4 18 0;
#X connect 12 0 19 0;
#X connect 13 0 11 0;
#X connect 16 0 9 0;
#X connect 17 0 8 0;
#X connect 18 0 14 0;
#X connect 21 0 1 0;
#X connect 22 0 20 0;
#X restore 540 23 pd onload;
#X obj 540 48 outlet;
#X obj 184 115 inlet;
#X obj 235 394 outlet;
#X obj 427 309 outlet;
#X msg 318 140 traverse pd-data-\$1 \, next;
#X obj 15 223 element template-\$1 array-\$1;
#X obj 17 373 set template-\$1-element y;
#X obj 235 346 get template-\$1-element y;
#X obj 244 229 setsize template-\$1 array-\$1;
#X obj 476 253 getsize template-\$1 array-\$1;
#N canvas 146 474 252 224 data-\$1 1;
#X scalar template-0 20 20 200 1 0 \; 0 0 0 \; 0 0 0 \; 0 0 0 \; 0
0 0 \; 0 0 0 \; 0 0 0 \; 0 0 0 \; 0 0 0 \; 0 0 0 \; 0 0 0 \; 0 0 0
\; 0 0 0 \; 0 0 0 \; 0 0 0 \; 0 0 0 \; 0 0 0 \; 0 0 0 \; 0 0 0 \; 0
0 0 \; 0 0 0 \; 0 0 0 \; 0 0 0 \; 0 0 0 \; 0 0 0 \; 0 0 0 \; 0 0 0
\; 0 0 0 \; 0 0 0 \; 0 0 0 \; 0 0 0 \; 0 0 0 \; 0 0 0 \; 0 0 0 \; 0
0 0 \; 0 0 0 \; 0 0 0 \; 0 0 0 \; 0 0 0 \; 0 0 0 \; 0 0 0 \; 0 0 0
\; 0 0 0 \; 0 0 0 \; 0 0 0 \; 0 0 0 \; 0 0 0 \; 0 0 0 \; 0 0 0 \; 0
0 0 \; 0 0 0 \; 0 0 0 \; 0 0 0 \; 0 0 0 \; 0 0 0 \; 0 0 0 \; 0 0 0
\; 0 0 0 \; 0 0 0 \; 0 0 0 \; 0 0 0 \; 0 0 0 \; 0 0 0 \; 0 0 0 \; 0
0 0 \; 0 0 0 \; 0 0 0 \; 0 0 0 \; 0 0 0 \; 0 0 0 \; 0 0 0 \; 0 0 0
\; 0 0 0 \; 0 0 0 \; 0 0 0 \; 0 0 0 \; 0 0 0 \; 0 0 0 \; 0 0 0 \; 0
0 0 \; 0 0 0 \; 0 0 0 \; 0 0 0 \; 0 0 0 \; 0 0 0 \; 0 0 0 \; 0 0 0
\; 0 0 0 \; 0 0 0 \; 0 0 0 \; 0 0 0 \; 0 0 0 \; 0 0 0 \; 0 0 0 \; 0
0 0 \; 0 0 0 \; 0 0 0 \; 0 0 0 \; 0 0 0 \; 0 0 0 \; 0 0 0 \; 0 0 0
\; 0 0 0 \; 0 0 0 \; 0 0 0 \; 0 0 0 \; 0 0 0 \; 0 0 0 \; 0 0 0 \; 0
0 0 \; 0 0 0 \; 0 0 0 \; 0 0 0 \; 0 0 0 \; 0 0 0 \; 0 0 0 \; 0 0 0
\; 0 0 0 \; 0 0 0 \; 0 0 0 \; 0 0 0 \; 0 0 0 \; 0 0 0 \; 0 0 0 \; 0
0 0 \; 0 0 0 \; 0 0 0 \; 0 0 0 \; 0 0 0 \; 0 0 0 \; 0 0 0 \; 0 0 0
\; 0 0 0 \; 0 0 0 \; 0 0 0 \; 0 0 0 \; 0 0 0 \; 0 0 0 \; 0 0 0 \; 0
0 0 \; 0 0 0 \; 0 0 0 \; 0 0 0 \; 0 0 0 \; 0 0 0 \; 0 0 0 \; 0 0 0
\; 0 0 0 \; 0 0 0 \; 0 0 0 \; 0 0 0 \; 0 0 0 \; 0 0 0 \; 0 0 0 \; 0
0 0 \; 0 0 0 \; 0 0 0 \; 0 0 0 \; 0 0 0 \; 0 0 0 \; 0 0 0 \; 0 0 0
\; 0 0 0 \; 0 0 0 \; 0 0 0 \; 0 0 0 \; 0 0 0 \; 0 0 0 \; 0 0 0 \; 0
0 0 \; 0 0 0 \; 0 0 0 \; 0 0 0 \; 0 0 0 \; 0 0 0 \; 0 0 0 \; 0 0 0
\; 0 0 0 \; 0 0 0 \; 0 0 0 \; 0 0 0 \; 0 0 0 \; 0 0 0 \; 0 0 0 \; 0
0 0 \; 0 0 0 \; 0 0 0 \; 0 0 0 \; 0 0 0 \; 0 0 0 \; 0 0 0 \; 0 0 0
\; 0 0 0 \; 0 0 0 \; 0 0 0 \; 0 0 0 \; 0 0 0 \; 0 0 0 \; 0 0 0 \; 0
0 0 \; 0 0 0 \; \;;
#X coords 0 224 1 223 0 0 0;
#X restore 508 314 pd data-\$1;
#N canvas 398 494 646 260 template-\$1 0;
#X text 6 44 this declares an array named "bazoo" whose elements are
described by "template5-element." Array declarations take three arguments
while "float" declarations take only two.;
#X text 6 136 Here we ask to plot the array \, color 700 \, line width
3 \, starting location (30 \, 10) relative to the scalar \, points
spaced 4 apart.;
#X text 7 186 You can also do (x \, y) plots and/or make the line thickness
variable---see the help window for "plot".;
#X obj 265 114 drawnumber z 0 180 0 tot_size=;
#X obj 6 8 struct template-\$1 float x float y float z float s float
id array array-\$1 template-\$1-element;
#X obj 361 92 drawnumber id 165 180 0 id=;
#X obj 8 114 plot curve array-\$1 700 2 0 0 s;
#X obj 8 91 drawpolygon 0 1 0 0 0 150 200 150 200 0 0 0;
#X restore 508 337 pd template-\$1;
#N canvas 699 282 572 179 template-\$1-element 0;
#X text 12 36 This says that array elements will have a single floating-point
number named "y". The variable name "y" is automatically assumed to
control screen height \; if you don't have at least that variable you
can't plot the array..;
#X obj 24 156 filledpolygon 0 0 3 0 0 0 -2 2 -2 1 1 0 0 0;
#X obj 87 108 r \$0-numbers;
#X obj 23 132 drawnumber y 2 10 0;
#X obj 35 11 struct template-\$1-element float y float s float w;
#X connect 2 0 3 0;
#X restore 508 360 pd template-\$1-element;
#X obj 195 139 t a b;
#X obj 32 270 route float;
#X obj 256 130 f \$1;
#X obj 33 323 unpack;
#X obj 312 302 s \$0-size;
#X obj 317 271 t f b;
#X obj 367 270 s \$0-resize;
#X obj 30 277 route set resize getsize clear;
#X msg 310 413 clear;
#X obj 310 438 s pd-data-\$1;
#X connect 0 0 30 0;
#X connect 1 0 0 0;
#X connect 2 0 28 0;
#X connect 3 0 29 0;
#X connect 4 0 25 0;
#X connect 5 0 26 0;
#X connect 6 0 32 0;
#X connect 7 0 6 0;
#X connect 7 0 28 1;
#X connect 7 0 31 1;
#X connect 8 0 6 0;
#X connect 22 0 23 0;
#X connect 24 0 36 0;
#X connect 27 0 7 0;
#X connect 28 0 0 0;
#X connect 28 0 29 1;
#X connect 30 0 4 0;
#X connect 32 0 5 0;
#X connect 36 0 37 0;
#X connect 36 1 38 0;
#X connect 37 0 2 0;
#X connect 37 1 43 0;
#X connect 38 0 27 0;
#X connect 39 0 3 0;
#X connect 39 1 28 0;
#X connect 41 0 40 0;
#X connect 41 1 42 0;
#X connect 43 0 39 0;
#X connect 43 1 41 0;
#X connect 43 2 8 0;
#X connect 43 3 44 0;
#X connect 44 0 45 0;
