#N canvas 523 50 246 265 12;
#X declare -path ~/Documents/fd_lib;
#N canvas 166 215 545 588 generate 0;
#N canvas 0 22 450 300 protect 0;
#X obj 49 18 inlet;
#X obj 49 46 t b f b;
#X msg 112 113 menusave;
#X obj 171 157 s pd-test-5.pd;
#X obj 108 262 outlet;
#X obj 96 228 min 50;
#X obj 96 203 max 2;
#X connect 0 0 1 0;
#X connect 1 0 2 0;
#X connect 1 1 6 0;
#X connect 1 2 2 0;
#X connect 2 0 3 0;
#X connect 5 0 4 0;
#X connect 6 0 5 0;
#X restore 28 148 pd protect;
#X obj 122 304 pack f 0;
#X msg 122 336 size \$1 \, numbers \$2, f 10;
#X obj 333 171 t f f;
#X msg 213 352 numbers \$1;
#X obj 122 542 send;
#N canvas 0 22 450 300 single 0;
#X msg 167 213 clear;
#X obj 111 240 s pd-envelopes;
#X obj 18 22 inlet;
#X obj 18 55 pack f 0;
#X text 101 59 instance 0 only;
#X obj 18 87 t b a b b;
#X msg 314 210 0;
#X obj 314 235 outlet;
#X obj 184 184 r \$0-clear;
#X msg 35 151 obj 10 10 fd_env \$2 \$1 1;
#X connect 0 0 1 0;
#X connect 2 0 3 0;
#X connect 3 0 5 0;
#X connect 5 1 9 0;
#X connect 5 2 0 0;
#X connect 5 3 6 0;
#X connect 6 0 7 0;
#X connect 8 0 0 0;
#X connect 9 0 1 0;
#X restore 334 418 pd single;
#X obj 334 366 spigot 1;
#N canvas 692 208 525 373 next 0;
#X obj 162 287 s pd-envelopes;
#X obj 161 28 inlet;
#X obj 414 237 outlet;
#X obj 334 72 f;
#X obj 368 73 + 1;
#X obj 202 207 list append;
#X obj 353 103 t f f f;
#X obj 199 146 list;
#X obj 161 63 t b f b;
#X obj 326 174 + 10;
#X obj 326 149 * 25;
#X obj 350 17 r \$0-clear;
#X msg 350 42 0;
#X msg 188 237 obj 10 \$3 fd_env \$2 \$1 0;
#X connect 1 0 8 0;
#X connect 3 0 4 0;
#X connect 4 0 3 1;
#X connect 4 0 6 0;
#X connect 5 0 13 0;
#X connect 6 0 7 1;
#X connect 6 1 10 0;
#X connect 6 2 2 0;
#X connect 7 0 5 0;
#X connect 8 1 7 0;
#X connect 8 2 3 0;
#X connect 9 0 5 1;
#X connect 10 0 9 0;
#X connect 11 0 12 0;
#X connect 12 0 3 1;
#X connect 13 0 0 0;
#X restore 421 418 pd next;
#X obj 421 361 spigot;
#X obj 405 323 == 0;
#X obj 334 341 t f f;
#X obj 189 122 s \$0-clear;
#X msg 28 258 vis 1;
#X obj 29 124 random 50;
#N canvas 0 22 165 185 envelopes 0;
#X restore 389 12 pd envelopes;
#X obj 333 141 tgl 15 0 empty empty empty 17 7 0 10 -262144 -1 -1 0
1;
#X obj 29 57 inlet;
#X obj 29 96 route bang float next clear numbers;
#N canvas 0 22 428 292 messages 0;
#X msg 99 18 bang;
#X msg 60 20 3;
#X msg 238 21 clear;
#X msg 153 15 12;
#X obj 153 40 until;
#X msg 25 19 29;
#X msg 188 15 6;
#X obj 24 218 outlet;
#X obj 309 151 tgl 15 0 empty empty empty 17 7 0 10 -262144 -1 -1 0
1;
#X msg 309 182 numbers \$1;
#X msg 259 105 next \$1;
#X obj 262 79 tgl 15 0 empty empty empty 17 7 0 10 -262144 -1 -1 0
1;
#X connect 0 0 7 0;
#X connect 1 0 7 0;
#X connect 2 0 7 0;
#X connect 3 0 4 0;
#X connect 4 0 7 0;
#X connect 5 0 7 0;
#X connect 6 0 4 0;
#X connect 8 0 9 0;
#X connect 9 0 7 0;
#X connect 10 0 7 0;
#X connect 11 0 10 0;
#X restore 94 57 pd messages;
#X text 108 13 graph engines are created here -->;
#N canvas 0 22 398 444 randomvalues 0;
#X obj 36 81 until;
#X obj 36 113 t b b;
#X obj 36 343 list;
#X msg 91 113 0;
#X obj 35 290 random 150;
#X obj 36 7 inlet;
#X obj 71 184 t b f;
#X obj 71 209 f;
#X obj 104 209 + 1;
#X obj 71 158 random 3;
#X obj 36 368 outlet;
#X obj 36 32 t f b;
#X connect 0 0 1 0;
#X connect 1 0 4 0;
#X connect 1 1 9 0;
#X connect 2 0 10 0;
#X connect 3 0 7 1;
#X connect 4 0 2 0;
#X connect 5 0 11 0;
#X connect 6 0 7 0;
#X connect 6 1 8 1;
#X connect 7 0 8 0;
#X connect 7 0 2 1;
#X connect 8 0 7 1;
#X connect 9 0 6 0;
#X connect 11 0 0 0;
#X connect 11 1 3 0;
#X restore 80 258 pd randomvalues;
#X obj 28 175 t b f f f, f 16;
#X obj 405 288 t f f;
#X obj 204 44 loadbang;
#X msg 204 69 clear;
#X msg 334 472 symbol fd_env-\$1;
#X obj 373 517 s envelopes-max;
#X connect 0 0 22 0;
#X connect 1 0 2 0;
#X connect 2 0 5 0;
#X connect 3 0 1 1;
#X connect 3 1 4 0;
#X connect 4 0 5 0;
#X connect 6 0 26 0;
#X connect 7 0 6 0;
#X connect 8 0 26 0;
#X connect 8 0 27 0;
#X connect 9 0 8 0;
#X connect 10 0 7 1;
#X connect 11 0 7 0;
#X connect 11 1 9 0;
#X connect 13 0 5 0;
#X connect 14 0 0 0;
#X connect 16 0 3 0;
#X connect 17 0 18 0;
#X connect 18 0 14 0;
#X connect 18 1 0 0;
#X connect 18 2 23 0;
#X connect 18 3 12 0;
#X connect 18 4 16 0;
#X connect 19 0 18 0;
#X connect 21 0 5 0;
#X connect 22 0 13 0;
#X connect 22 1 21 0;
#X connect 22 2 1 0;
#X connect 22 3 11 0;
#X connect 23 0 10 0;
#X connect 23 1 9 1;
#X connect 24 0 25 0;
#X connect 25 0 18 0;
#X connect 26 0 5 1;
#X restore 5 140 pd generate;
#N canvas 91 36 409 742 modify 0;
#X msg 171 204 all bang;
#X msg 36 171 1;
#X msg 75 173 2;
#X text 247 206 walk;
#X msg 113 174 3;
#X msg 153 176 4;
#X msg 193 176 5;
#X msg 223 176 6;
#X msg 197 76 all bang;
#X msg 34 37 1;
#X msg 73 36 2;
#X msg 111 37 3;
#X msg 151 29 4;
#X msg 191 29 5;
#X msg 221 29 6;
#X text 273 78 rand;
#X obj 314 186 tgl 15 0 empty empty empty 17 7 0 10 -262144 -1 -1 0
1;
#X msg 314 206 all \$1;
#X text 333 184 type;
#X msg 157 345 all bang;
#X msg 32 305 1;
#X msg 71 304 2;
#X msg 109 305 3;
#X msg 149 297 4;
#X msg 189 297 5;
#X msg 219 297 6;
#X obj 310 327 tgl 15 0 empty empty empty 17 7 0 10 -262144 -1 -1 0
1;
#X msg 310 347 all \$1;
#X text 329 325 type;
#X msg 34 279 1 \, 3 \, 5 \,;
#X msg 125 277 2 \, 4 \, 6;
#X text 233 347 line;
#X msg 157 485 all bang;
#X msg 32 445 1;
#X msg 71 444 2;
#X msg 109 445 3;
#X msg 149 437 4;
#X msg 189 437 5;
#X msg 219 437 6;
#X obj 310 467 tgl 15 0 empty empty empty 17 7 0 10 -262144 -1 -1 0
1;
#X msg 310 487 all \$1;
#X text 329 465 type;
#X msg 34 419 1 \, 3 \, 5 \,;
#X msg 125 417 2 \, 4 \, 6;
#X text 233 487 line;
#X msg 157 662 all bang;
#X msg 32 622 1;
#X msg 71 621 2;
#X msg 109 622 3;
#X msg 149 614 4;
#X msg 189 614 5;
#X msg 219 614 6;
#X obj 310 644 tgl 15 0 empty empty empty 17 7 0 10 -262144 -1 -1 0
1;
#X msg 310 664 all \$1;
#X text 329 642 type;
#X msg 34 596 1 \, 3 \, 5 \,;
#X msg 125 594 2 \, 4 \, 6;
#X text 233 664 line;
#X msg 282 610 7;
#X msg 284 429 7;
#X msg 253 300 7;
#X msg 272 171 7;
#X msg 299 22 7;
#X floatatom 241 538 5 0 0 0 - - -, f 5;
#X floatatom 307 275 5 0 0 0 - - -, f 5;
#X msg 292 296 all const \$1;
#X obj 241 560 pack f 1;
#X msg 241 585 \$2 coeff \$1 \, \$2;
#X floatatom 316 561 5 0 0 0 - - -, f 5;
#X floatatom 330 98 5 0 0 0 - - -, f 5;
#X msg 245 134 3 range \$1 100 \, 3;
#X obj 33 109 clone -s 1 fd_dataRand 7 fd_env;
#X msg 308 247 4 const 100;
#X obj 35 236 clone -s 1 fd_dataWalk 7 fd_env 0;
#X obj 31 377 clone -s 1 fd_dataLine 7 fd_env 0;
#X obj 31 517 clone -s 1 fd_dataHann 7 fd_env 0;
#X obj 31 694 clone -s 1 fd_dataExp 7 fd_env 0;
#X connect 0 0 73 0;
#X connect 1 0 73 0;
#X connect 2 0 73 0;
#X connect 4 0 73 0;
#X connect 5 0 73 0;
#X connect 6 0 73 0;
#X connect 7 0 73 0;
#X connect 8 0 71 0;
#X connect 9 0 71 0;
#X connect 10 0 71 0;
#X connect 11 0 71 0;
#X connect 12 0 71 0;
#X connect 13 0 71 0;
#X connect 14 0 71 0;
#X connect 16 0 17 0;
#X connect 17 0 73 1;
#X connect 19 0 74 0;
#X connect 20 0 74 0;
#X connect 21 0 74 0;
#X connect 22 0 74 0;
#X connect 23 0 74 0;
#X connect 24 0 74 0;
#X connect 25 0 74 0;
#X connect 26 0 27 0;
#X connect 27 0 74 1;
#X connect 29 0 74 0;
#X connect 30 0 74 0;
#X connect 32 0 75 0;
#X connect 33 0 75 0;
#X connect 34 0 75 0;
#X connect 35 0 75 0;
#X connect 36 0 75 0;
#X connect 37 0 75 0;
#X connect 38 0 75 0;
#X connect 39 0 40 0;
#X connect 40 0 75 1;
#X connect 42 0 75 0;
#X connect 43 0 75 0;
#X connect 45 0 76 0;
#X connect 46 0 76 0;
#X connect 47 0 76 0;
#X connect 48 0 76 0;
#X connect 49 0 76 0;
#X connect 50 0 76 0;
#X connect 51 0 76 0;
#X connect 52 0 53 0;
#X connect 53 0 76 1;
#X connect 55 0 76 0;
#X connect 56 0 76 0;
#X connect 58 0 76 0;
#X connect 59 0 75 0;
#X connect 60 0 74 0;
#X connect 61 0 73 0;
#X connect 62 0 71 0;
#X connect 63 0 66 0;
#X connect 64 0 65 0;
#X connect 65 0 74 0;
#X connect 66 0 67 0;
#X connect 67 0 76 0;
#X connect 68 0 66 1;
#X connect 69 0 70 0;
#X connect 70 0 73 0;
#X connect 72 0 74 0;
#X restore 5 164 pd modify;
#N canvas 70 85 390 531 listen 0;
#X obj 111 475 dac~;
#X obj 260 294 vsl 15 128 0 127 0 0 empty empty empty 0 -9 0 10 -262144
-1 -1 0 1;
#X obj 260 430 / 127;
#X msg 260 455 \$1 10;
#X obj 260 480 line~;
#X obj 45 415 *~;
#X obj 36 155 tgl 15 0 empty empty empty 17 7 0 10 -262144 -1 -1 0
1;
#X msg 36 217 all \$1;
#X obj 36 175 t f b;
#X obj 60 330 tgl 15 0 empty empty empty 17 7 0 10 -262144 -1 -1 0
1;
#X msg 82 310 34 89 1 6;
#X msg 89 338 220 23 0.7 120;
#X msg 14 26 stoch;
#X msg 66 28 sin;
#X msg 100 29 cos;
#N canvas 0 22 508 374 tab 0;
#X obj 120 270 + 1;
#X obj 49 119 random 2000;
#X obj 44 219 - 1000;
#X obj 44 244 / 1000;
#X obj 42 268 t f b;
#X obj 87 269 f;
#X obj 49 89 until;
#X obj 87 294 mod 67;
#X obj 49 170 f;
#X obj 82 168 + 1;
#X obj 49 144 t b f;
#X obj 49 195 mod 2000;
#X obj 101 143 mod 450;
#X msg 50 62 67;
#X msg 232 90 sinesum 64 1;
#X obj 235 283 array define stoch 67;
#X obj 252 119 array define sin 67;
#X obj 218 243 array define cos 67;
#X obj 44 320 tabwrite stoch;
#X obj 135 21 loadbang;
#X msg 211 153 cosinesum 64 1 2 3 13 1 2 3 1 2 3 \, normalize, f 29
;
#X msg 228 196 cosinesum 64 1 2 3 \, normalize;
#X floatatom 143 120 5 0 0 0 - - -, f 5;
#X connect 0 0 5 1;
#X connect 1 0 10 0;
#X connect 2 0 3 0;
#X connect 3 0 4 0;
#X connect 4 0 18 0;
#X connect 4 1 5 0;
#X connect 5 0 0 0;
#X connect 5 0 7 0;
#X connect 6 0 1 0;
#X connect 7 0 18 1;
#X connect 8 0 9 0;
#X connect 8 0 11 0;
#X connect 9 0 8 1;
#X connect 10 0 8 0;
#X connect 10 1 12 0;
#X connect 11 0 2 0;
#X connect 12 0 9 1;
#X connect 13 0 6 0;
#X connect 14 0 16 0;
#X connect 19 0 14 0;
#X connect 19 0 13 0;
#X connect 19 0 20 0;
#X connect 20 0 17 0;
#X connect 21 0 17 0;
#X connect 22 0 12 1;
#X restore 141 7 pd tab;
#X text 54 288 single grain;
#X text 17 133 multiple;
#X text 4 5 pick a wavetable;
#X text 245 270 main volume;
#X text 110 53 some parameters;
#N canvas 466 190 421 551 global-line 0;
#X obj 57 148 t b b;
#X obj 55 264 f;
#X obj 88 263 + 1;
#X obj 117 264 mod;
#X obj 69 223 t b f b f, f 16;
#X obj 197 276 random;
#X obj 58 515 outlet;
#X obj 38 5 inlet;
#X obj 342 12 inlet;
#X obj 68 185 f;
#X obj 55 350 / 150;
#X obj 56 379 * 1;
#X obj 342 105 max 1;
#X obj 342 130 int;
#X obj 342 80 / 100;
#X obj 173 66 + 4;
#X obj 55 327 max 0.01;
#X obj 38 98 spigot;
#X obj 41 124 delay 200;
#X obj 38 30 t f f;
#X obj 38 55 sel 1;
#X obj 234 248 + 2;
#X msg 179 152 0;
#X obj 127 128 spigot 1;
#X obj 343 505 outlet;
#X obj 321 157 +;
#X obj 81 429 * 1.3;
#X obj 56 404 t f f f;
#X obj 213 363 *;
#X obj 198 302 t f f;
#X obj 57 461 pack f f f f;
#X msg 56 488 all \$1 \$2 \$3 \$4;
#X obj 156 430 / 10;
#X obj 186 334 / 100;
#X obj 127 153 t b b;
#X floatatom 157 360 5 0 0 0 - - -, f 5;
#X obj 217 10 r global-line;
#X obj 217 35 unpack;
#X obj 305 46 t f f;
#X obj 55 301 fd_get-element 7;
#X obj 113 186 fd_getsize 7;
#X connect 0 0 9 0;
#X connect 0 1 23 0;
#X connect 1 0 2 0;
#X connect 1 0 24 0;
#X connect 1 0 39 0;
#X connect 2 0 3 0;
#X connect 3 0 1 1;
#X connect 4 0 1 0;
#X connect 4 1 3 1;
#X connect 4 2 5 0;
#X connect 4 3 21 0;
#X connect 5 0 29 0;
#X connect 7 0 19 0;
#X connect 8 0 38 0;
#X connect 9 0 4 0;
#X connect 10 0 11 0;
#X connect 11 0 27 0;
#X connect 12 0 13 0;
#X connect 13 0 25 1;
#X connect 14 0 12 0;
#X connect 15 0 17 0;
#X connect 16 0 10 0;
#X connect 17 0 18 0;
#X connect 18 0 0 0;
#X connect 19 0 20 0;
#X connect 19 1 17 1;
#X connect 20 0 17 0;
#X connect 21 0 5 1;
#X connect 22 0 23 1;
#X connect 23 0 34 0;
#X connect 25 0 15 0;
#X connect 26 0 30 1;
#X connect 27 0 30 0;
#X connect 27 1 26 0;
#X connect 27 2 28 0;
#X connect 28 0 32 0;
#X connect 28 0 25 0;
#X connect 29 0 33 0;
#X connect 29 1 28 1;
#X connect 30 0 31 0;
#X connect 31 0 6 0;
#X connect 32 0 30 3;
#X connect 33 0 30 2;
#X connect 33 0 35 0;
#X connect 34 0 40 0;
#X connect 34 1 22 0;
#X connect 36 0 37 0;
#X connect 37 0 19 0;
#X connect 37 1 38 0;
#X connect 38 0 11 1;
#X connect 38 1 14 0;
#X connect 39 0 16 0;
#X connect 40 0 9 1;
#X restore 199 39 pd global-line;
#X obj 202 19 tgl 15 0 empty empty empty 17 7 0 10 -262144 -1 -1 0
1;
#X floatatom 279 16 5 0 0 0 - - -, f 5;
#X obj 195 415 *~;
#X floatatom 277 75 5 0 0 0 - - -, f 5;
#X msg 234 15 300;
#X obj 14 53 symbol;
#X msg 14 78 \; tab set \$1;
#X msg 112 164 all 220 23 3 120;
#X msg 121 141 all 1000 234 0.001 77;
#X msg 122 120 all 40 22 1 121;
#X msg 105 186 all 34 200 0.5 6;
#X floatatom 289 173 5 0 0 0 - - -, f 5;
#X obj 289 195 s f-range;
#X floatatom 289 223 5 0 0 0 - - -, f 5;
#X obj 289 245 s f-min;
#X msg 104 211 all 100 100 21 5000;
#X msg 126 97 all 23 1000 10 200;
#X floatatom 301 104 5 0 0 0 - - -, f 5;
#X obj 301 126 s offset;
#X msg 126 77 all 3 3 1 3;
#X msg 324 15 100;
#X floatatom 313 360 5 0 0 0 - - -, f 5;
#X obj 57 362 fd_gr;
#X obj 39 253 clone -s 1 fd_gr 50;
#X connect 1 0 2 0;
#X connect 2 0 3 0;
#X connect 3 0 4 0;
#X connect 4 0 5 1;
#X connect 4 0 24 1;
#X connect 5 0 0 0;
#X connect 6 0 8 0;
#X connect 7 0 45 0;
#X connect 8 0 7 0;
#X connect 8 1 32 0;
#X connect 9 0 44 0;
#X connect 10 0 44 1;
#X connect 11 0 44 1;
#X connect 12 0 27 0;
#X connect 13 0 27 0;
#X connect 14 0 27 0;
#X connect 21 0 45 1;
#X connect 21 1 25 0;
#X connect 22 0 21 0;
#X connect 23 0 21 1;
#X connect 24 0 0 1;
#X connect 26 0 23 0;
#X connect 27 0 28 0;
#X connect 29 0 45 1;
#X connect 30 0 45 1;
#X connect 31 0 45 1;
#X connect 32 0 45 1;
#X connect 33 0 34 0;
#X connect 35 0 36 0;
#X connect 37 0 45 1;
#X connect 38 0 45 1;
#X connect 39 0 40 0;
#X connect 41 0 45 1;
#X connect 42 0 23 0;
#X connect 43 0 1 0;
#X connect 44 0 5 0;
#X connect 44 1 24 0;
#X connect 45 0 5 0;
#X connect 45 1 24 0;
#X restore 5 188 pd listen;
#X obj 91 61 until;
#X msg 91 35 6;
#X msg 5 31 clear;
#X msg 13 87 next \$1;
#X obj 13 64 tgl 15 0 empty empty empty 17 7 0 10 -262144 -1 -1 1 1
;
#X text 31 63 2;
#X text 124 34 3;
#X text 55 32 1;
#X text 85 187 <- 5;
#X obj 18 120 bng 15 250 50 0 empty empty make_one_more 17 7 0 10 -262144
-1 -1;
#X msg 91 86 30;
#N canvas 62 563 366 236 presets 1;
#N canvas 451 150 528 354 write 0;
#X obj 159 149 f;
#X obj 201 150 + 1;
#X msg 201 175 set \$1;
#X obj 242 147 loadbang;
#X obj 30 251 list prepend;
#X msg 201 200 0;
#X obj 35 12 inlet;
#X obj 175 229 outlet;
#X obj 35 67 t b b b b;
#X floatatom 288 181 5 0 0 1 stored_presets - -, f 5;
#X msg 199 70 0;
#X obj 199 95 t b f;
#X msg 288 203 \; stored-presets number \$1 \, label \$1-presets,
f 25;
#X obj 30 113 f;
#X obj 30 138 until;
#X obj 30 163 f;
#X obj 62 163 + 1;
#X msg 29 282 \; pd-data-\$2 write preset-\$1-id-\$2.txt;
#X floatatom 65 117 5 0 0 0 - - -, f 5;
#X obj 65 92 r envelopes-max;
#X msg 78 138 1;
#X obj 35 37 route bang reset, f 24;
#X connect 0 0 1 0;
#X connect 0 0 4 1;
#X connect 1 0 0 1;
#X connect 1 0 2 0;
#X connect 1 0 7 0;
#X connect 1 0 9 0;
#X connect 2 0 5 0;
#X connect 3 0 5 0;
#X connect 4 0 17 0;
#X connect 5 0 0 1;
#X connect 5 0 7 0;
#X connect 5 0 9 0;
#X connect 6 0 21 0;
#X connect 8 1 13 0;
#X connect 8 2 20 0;
#X connect 8 3 0 0;
#X connect 9 0 12 0;
#X connect 10 0 11 0;
#X connect 11 0 5 0;
#X connect 11 1 2 0;
#X connect 13 0 14 0;
#X connect 14 0 15 0;
#X connect 15 0 16 0;
#X connect 15 0 4 0;
#X connect 16 0 15 1;
#X connect 19 0 13 1;
#X connect 19 0 18 0;
#X connect 20 0 15 1;
#X connect 21 0 8 0;
#X connect 21 1 10 0;
#X restore 41 145 pd write;
#X msg 41 103 bang;
#N canvas 0 22 538 397 read 0;
#X obj 69 214 list prepend;
#X obj 81 119 f;
#X obj 81 144 until;
#X obj 81 169 f;
#X obj 113 169 + 1;
#X msg 67 245 \; pd-data-\$2 read preset-\$1-id-\$2.txt;
#X obj 116 98 r envelopes-max;
#X msg 129 144 1;
#X obj 23 73 t b b b f;
#X obj 25 289 s reload;
#X obj 380 218 r reload;
#X obj 380 322 print;
#X obj 380 256 f;
#X msg 380 281 loaded preset \$1;
#X obj 22 7 inlet;
#X obj 22 32 route float open, f 54;
#X obj 275 63 t b f;
#X obj 275 88 openpanel;
#X obj 275 113 list append;
#X msg 275 138 \; pd-data-\$2 read \$1;
#X connect 0 0 5 0;
#X connect 1 0 2 0;
#X connect 2 0 3 0;
#X connect 3 0 4 0;
#X connect 3 0 0 0;
#X connect 4 0 3 1;
#X connect 6 0 1 1;
#X connect 7 0 3 1;
#X connect 8 0 9 0;
#X connect 8 1 1 0;
#X connect 8 2 7 0;
#X connect 8 3 0 1;
#X connect 8 3 12 1;
#X connect 10 0 12 0;
#X connect 12 0 13 0;
#X connect 13 0 11 0;
#X connect 14 0 15 0;
#X connect 15 0 8 0;
#X connect 15 1 16 0;
#X connect 16 0 17 0;
#X connect 16 1 18 1;
#X connect 17 0 18 0;
#X connect 18 0 19 0;
#X restore 177 142 pd read;
#X text 40 76 store / write;
#X text 178 78 load / read;
#X obj 177 113 hradio 15 1 0 1 empty stored-presets 0-presets 0 -8
0 10 -262144 -1 -1 7;
#X msg 90 107 reset;
#X text 22 12 Storing presets for (only) the data;
#X msg 245 112 open 1;
#X connect 1 0 0 0;
#X connect 5 0 2 0;
#X connect 6 0 0 0;
#X connect 8 0 2 0;
#X restore 5 212 pd presets;
#X text 91 210 <- 6;
#X msg 174 75 5;
#X obj 160 115 tgl 15 0 empty empty empty 17 7 0 10 -262144 -1 -1 0
1;
#X msg 149 135 numbers \$1;
#N canvas 0 22 450 300 declare 0;
#X obj 4 5 declare -path ~/Documents/fd_lib;
#X restore 7 6 pd declare;
#N canvas 82 104 450 558 TODO:morphing 0;
#X text 28 115 array morph;
#X text 24 31 droplet into array;
#X obj 340 51 tgl 15 0 empty empty empty 17 7 0 10 -262144 -1 -1 0
1;
#X msg 340 71 all \$1;
#X msg 52 51 1;
#X msg 108 53 2;
#X msg 160 57 all bang;
#N canvas 565 90 450 300 more-presets 0;
#X msg 22 26 \; offset 438 \; f-range 4 \; f-min 70 \; global-line
1 100 \; tab set stoch \;;
#X restore 26 520 pd more-presets;
#X text 30 490 presets for audio engine;
#X msg 257 48 6;
#X text 133 140 A CHANGE WAS MADE TO GET-ELEMENT...;
#X text 208 17 fd_listout needs fd_lib;
#X text 316 282 \$2 == size;
#X msg 58 237 all 8 1000;
#X text 104 178 source (id) \, target (id) \, time (msec);
#X msg 54 208 1 2 299;
#X msg 35 180 6 8 200;
#X msg 213 255 all invert 50000;
#X msg 264 219 all invert 100;
#X text 313 305 \$3 == field;
#X obj 47 415 fd_dataMorphWidth;
#X msg 138 211 6 invert 200;
#X msg 285 480 bang;
#X obj 285 505 s reload;
#X msg 47 312 invert 1200;
#X obj 47 285 clone -s 1 fd_dataMorph 7 30 y;
#X obj 33 106 print;
#X msg 299 49 7;
#X obj 33 81 clone -s 1 fd_dataDroplet 7 y;
#N canvas 0 22 450 300 width-test 0;
#X obj 117 158 fd_set-element 0 0 w;
#X msg 143 36 37;
#X obj 143 61 until;
#X obj 143 86 f;
#X obj 176 86 + 1;
#X msg 192 61 0;
#X floatatom 252 53 5 0 0 0 - - -, f 5;
#X obj 252 75 t b f;
#X obj 143 111 swap;
#X floatatom 204 121 5 0 0 0 - - -, f 5;
#X floatatom 97 95 5 0 0 0 - - -, f 5;
#X floatatom 270 121 5 0 0 0 - - -, f 5;
#X connect 1 0 5 0;
#X connect 1 0 2 0;
#X connect 2 0 3 0;
#X connect 3 0 4 0;
#X connect 3 0 8 0;
#X connect 4 0 3 1;
#X connect 5 0 3 1;
#X connect 6 0 7 0;
#X connect 7 0 1 0;
#X connect 7 1 8 1;
#X connect 8 0 0 0;
#X connect 8 1 0 1;
#X connect 9 0 0 1;
#X connect 10 0 0 0;
#X connect 11 0 0 2;
#X restore 290 380 pd width-test;
#X obj 47 337 fd_dataMorph 8 30 w;
#X connect 2 0 3 0;
#X connect 3 0 28 1;
#X connect 4 0 28 0;
#X connect 5 0 28 0;
#X connect 6 0 28 0;
#X connect 9 0 28 0;
#X connect 13 0 25 0;
#X connect 15 0 25 0;
#X connect 16 0 25 0;
#X connect 17 0 25 0;
#X connect 18 0 25 0;
#X connect 21 0 25 0;
#X connect 22 0 23 0;
#X connect 24 0 30 0;
#X connect 27 0 28 0;
#X connect 28 0 26 0;
#X restore 6 237 pd TODO:morphing;
#X text 140 240 <-- better;
#X text 82 165 <- 4 (improve this);
#X msg 156 29 40;
#X connect 3 0 13 0;
#X connect 4 0 3 0;
#X connect 5 0 0 0;
#X connect 6 0 0 0;
#X connect 7 0 6 0;
#X connect 12 0 0 0;
#X connect 13 0 0 0;
#X connect 16 0 0 0;
#X connect 17 0 18 0;
#X connect 18 0 0 0;
#X connect 23 0 0 0;
