#N canvas 609 190 368 320 10;
#X obj 65 138 samplerate~;
#X msg 106 160 0;
#X obj 65 182 phasor~;
#X obj 50 250 /~;
#X obj 65 226 exp~;
#X obj 50 19 sig~ 1;
#X obj 122 40 inlet;
#X obj 50 286 tabsend~ \$0-expo;
#X obj 65 204 *~ 13;
#X obj 65 160 / \$1;
#X obj 191 284 switch~ \$1;
#X obj 204 133 array define \$0-expo \$1;
#X obj 122 62 route bang float;
#X msg 198 104 resize \$1;
#X msg 205 203 set \$1;
#X connect 0 0 9 0;
#X connect 1 0 2 1;
#X connect 2 0 8 0;
#X connect 3 0 7 0;
#X connect 4 0 3 1;
#X connect 5 0 3 0;
#X connect 6 0 12 0;
#X connect 8 0 4 0;
#X connect 9 0 2 0;
#X connect 12 0 10 0;
#X connect 12 0 0 0;
#X connect 12 1 13 0;
#X connect 12 1 9 1;
#X connect 12 1 14 0;
#X connect 13 0 11 0;
#X connect 14 0 10 0;
