#N canvas 479 509 216 145 10;
#N canvas 536 114 425 218 (subpatch) 0;
#X obj 5 9 vradio 20 1 0 4 \$0-envChoice empty empty -10 -8 0 10 -262144
-1 -1 4;
#X obj 55 31 nbx 4 14 1 5000 0 0 \$0-sigma \$0-sigma-set sigma 50 8
0 10 -262144 -33289 -1 20 256;
#X text 27 11 TRI;
#X obj 55 52 nbx 4 14 0.001 50000 0 0 \$0-slope \$0-slope-set slope
50 8 0 10 -262144 -33289 -1 200 256;
#X text 27 49 TPZ;
#X text 26 73 HNN;
#X text 27 29 GSS;
#X obj 52 5 bng 15 250 50 0 \$0-redraw empty redraw_tables 17 7 0 10
-262144 -1 -1;
#X obj 52 74 tgl 15 0 empty empty see_envtables 17 7 0 10 -262144 -1
-1 0 1;
#X msg 52 104 \; pd-envtables vis \$1;
#N canvas 0 22 139 209 envChoice 0;
#X obj 7 6 r \$0-envChoice;
#X obj 7 28 sel 0 1 2 3, f 13;
#X obj 7 131 symbol \$1;
#X msg 7 150 \; envtype set \$1 \;;
#X msg 44 89 trapezoid;
#X msg 63 109 hann;
#X msg 7 49 triangular;
#X msg 25 69 gauss;
#X connect 0 0 1 0;
#X connect 1 0 6 0;
#X connect 1 1 7 0;
#X connect 1 2 4 0;
#X connect 1 3 5 0;
#X connect 2 0 3 0;
#X connect 4 0 2 0;
#X connect 5 0 2 0;
#X connect 6 0 2 0;
#X connect 7 0 2 0;
#X restore 154 1 pd envChoice;
#X obj 5 141 loadbang;
#X msg 5 163 0;
#N canvas 537 114 215 520 envtables 0;
#N canvas 236 102 325 522 (subpatch) 0;
#N canvas 0 50 186 118 (subpatch) 0;
#X array gauss 256 float 4;
#X coords 0 1 255 -1 150 100 1 0 0;
#X restore 7 138 graph;
#N canvas 0 50 186 118 (subpatch) 0;
#X array triangular 256 float 4;
#X coords 0 1 255 -1 150 100 1 0 0;
#X restore 7 17 graph;
#N canvas 0 50 186 118 (subpatch) 0;
#X array trapezoid 256 float 4;
#X coords 0 1 255 -1 150 100 1 0 0;
#X restore 8 258 graph;
#N canvas 0 50 186 118 (subpatch) 0;
#X array hann 256 float 4;
#X coords 0 1 255 -1 150 100 1 0 0;
#X restore 8 378 graph;
#N canvas 5 22 215 628 triangular 0;
#X obj 14 137 until;
#X obj 43 182 + 1;
#X obj 14 93 t f b f, f 22;
#X msg 78 137 0, f 2;
#X obj 90 340 abs;
#X obj 90 314 -;
#X obj 128 297 / 2;
#X obj 53 333 / 2;
#X obj 14 236 2;
#X obj 53 411 -;
#X obj 14 215 t b b f b f, f 26;
#X obj 14 428 *;
#X obj 128 236 f;
#X obj 52 276 f;
#X obj 14 315 /;
#X obj 14 32 t b;
#X obj 52 298 t f f;
#X obj 128 259 t f f;
#X obj 73 8 r \$0-envSize;
#X obj 14 63 int 256;
#X obj 14 182 int;
#X obj 73 182 % 256;
#X obj 73 30 t f f;
#X obj 14 8 r \$0-tri;
#X obj 14 462 tabwrite triangular, f 26;
#X obj 24 486 r envtype;
#X obj 24 508 route set;
#X obj 117 553 t b;
#X obj 24 553 t b;
#X msg 24 578 1;
#X msg 117 575 0;
#X obj 64 606 outlet;
#X obj 24 531 route triangular;
#X connect 0 0 20 0;
#X connect 1 0 21 0;
#X connect 2 0 0 0;
#X connect 2 1 3 0;
#X connect 2 2 12 1;
#X connect 3 0 20 1;
#X connect 4 0 9 1;
#X connect 5 0 4 0;
#X connect 6 0 5 1;
#X connect 7 0 9 0;
#X connect 8 0 14 0;
#X connect 9 0 11 1;
#X connect 10 0 8 0;
#X connect 10 1 13 0;
#X connect 10 2 5 0;
#X connect 10 3 12 0;
#X connect 10 4 24 1;
#X connect 11 0 24 0;
#X connect 12 0 17 0;
#X connect 13 0 16 0;
#X connect 14 0 11 0;
#X connect 15 0 19 0;
#X connect 16 0 14 1;
#X connect 16 1 7 0;
#X connect 17 0 13 1;
#X connect 17 1 6 0;
#X connect 18 0 22 0;
#X connect 19 0 2 0;
#X connect 20 0 10 0;
#X connect 20 0 1 0;
#X connect 21 0 20 1;
#X connect 22 0 19 1;
#X connect 22 1 21 1;
#X connect 23 0 15 0;
#X connect 25 0 26 0;
#X connect 26 0 32 0;
#X connect 27 0 30 0;
#X connect 28 0 29 0;
#X connect 29 0 31 0;
#X connect 30 0 31 0;
#X connect 32 0 28 0;
#X connect 32 1 27 0;
#X restore 204 1 pd triangular;
#N canvas 320 33 332 642 gaussian 0;
#X obj 9 160 until;
#X obj 9 136 t f b f, f 14;
#X msg 49 160 0;
#X obj 9 567 pow, f 4;
#X obj 95 520 * -1;
#X obj 95 491 *;
#X obj 42 351 /;
#X obj 42 375 - 0.5;
#X obj 42 429 *, f 5;
#X obj 9 504 2.71828;
#X obj 9 237 t b f b b f, f 23;
#X obj 9 61 t b;
#X obj 80 11 r \$0-envSize;
#X obj 164 11 r \$0-sigma;
#X obj 221 212 max 0;
#X obj 110 419 int 20, f 19;
#X obj 76 262 f;
#X obj 42 407 t f f;
#X obj 9 86 int 256;
#X obj 42 194 + 1;
#X obj 9 194 int;
#X obj 72 194 % 256;
#X obj 48 61 t f f, f 9;
#X obj 80 31 f;
#X obj 9 11 r \$0-gauss;
#X obj 221 190 min 5000;
#X obj 9 606 tabwrite gauss, f 23;
#X obj 164 31 t b b f, f 10;
#X obj 164 61 del 1;
#X obj 164 83 s \$0-gauss;
#X obj 188 480 r envtype;
#X obj 188 502 route set;
#X obj 281 547 t b;
#X obj 188 547 t b;
#X msg 188 572 1;
#X msg 281 569 0;
#X obj 228 600 outlet;
#X obj 188 525 route gauss;
#X connect 0 0 20 0;
#X connect 1 0 0 0;
#X connect 1 1 2 0;
#X connect 1 2 16 1;
#X connect 2 0 20 1;
#X connect 3 0 26 0;
#X connect 4 0 3 1;
#X connect 5 0 4 0;
#X connect 6 0 7 0;
#X connect 7 0 17 0;
#X connect 8 0 5 0;
#X connect 9 0 3 0;
#X connect 10 0 9 0;
#X connect 10 1 6 0;
#X connect 10 2 16 0;
#X connect 10 3 15 0;
#X connect 10 4 26 1;
#X connect 11 0 18 0;
#X connect 12 0 23 0;
#X connect 13 0 27 0;
#X connect 14 0 15 1;
#X connect 15 0 5 1;
#X connect 16 0 6 1;
#X connect 17 0 8 0;
#X connect 17 1 8 1;
#X connect 18 0 1 0;
#X connect 19 0 21 0;
#X connect 20 0 19 0;
#X connect 20 0 10 0;
#X connect 21 0 20 1;
#X connect 22 0 18 1;
#X connect 22 1 21 1;
#X connect 23 0 22 0;
#X connect 24 0 11 0;
#X connect 25 0 14 0;
#X connect 27 0 28 0;
#X connect 27 1 23 0;
#X connect 27 2 25 0;
#X connect 28 0 29 0;
#X connect 30 0 31 0;
#X connect 31 0 37 0;
#X connect 32 0 35 0;
#X connect 33 0 34 0;
#X connect 34 0 36 0;
#X connect 35 0 36 0;
#X connect 37 0 33 0;
#X connect 37 1 32 0;
#X restore 207 121 pd gaussian;
#N canvas 22 23 267 743 trapezoid 0;
#X obj 112 265 abs;
#X obj 112 239 -;
#X obj 137 193 / 2;
#X obj 75 269 / 2;
#X obj 12 211 2;
#X obj 75 295 -;
#X obj 12 103 t b b f b f, f 25;
#X obj 11 327 *;
#X obj 110 136 f, f 4;
#X obj 48 205 f;
#X obj 11 290 /;
#X obj 11 380 clip 0 1;
#X obj 11 351 * 2, f 35;
#X obj 71 -121 r \$0-envSize;
#X obj 151 -121 r \$0-slope;
#X obj 12 44 until;
#X obj 12 20 t f b f, f 17;
#X msg 61 44 0;
#X obj 12 -55 t b;
#X obj 12 -30 int 256;
#X obj 45 78 + 1;
#X obj 12 78 int;
#X obj 75 78 % 256;
#X obj 51 -55 t f f, f 9;
#X obj 71 -100 f;
#X obj 48 240 t f f;
#X obj 110 158 t f f;
#X obj 12 -121 r \$0-tpz;
#X obj 11 407 tabwrite trapezoid, f 25;
#X obj 151 -80 t b b f, f 11;
#X obj 151 -36 s \$0-tpz;
#X obj 151 -58 del 1;
#X obj 151 -100 / 1000;
#X obj 15 436 r envtype;
#X obj 15 458 route set;
#X obj 108 503 t b;
#X obj 15 503 t b;
#X msg 15 528 1;
#X msg 108 525 0;
#X obj 55 556 outlet;
#X obj 15 481 route trapezoid;
#X connect 0 0 5 1;
#X connect 1 0 0 0;
#X connect 2 0 1 1;
#X connect 3 0 5 0;
#X connect 4 0 10 0;
#X connect 5 0 7 1;
#X connect 6 0 4 0;
#X connect 6 1 9 0;
#X connect 6 2 1 0;
#X connect 6 3 8 0;
#X connect 6 4 28 1;
#X connect 7 0 12 0;
#X connect 8 0 26 0;
#X connect 9 0 25 0;
#X connect 10 0 7 0;
#X connect 11 0 28 0;
#X connect 12 0 11 0;
#X connect 13 0 24 0;
#X connect 14 0 32 0;
#X connect 15 0 21 0;
#X connect 16 0 15 0;
#X connect 16 1 17 0;
#X connect 16 2 8 1;
#X connect 17 0 21 1;
#X connect 18 0 19 0;
#X connect 19 0 16 0;
#X connect 20 0 22 0;
#X connect 21 0 20 0;
#X connect 21 0 6 0;
#X connect 22 0 21 1;
#X connect 23 0 19 1;
#X connect 23 1 22 1;
#X connect 24 0 23 0;
#X connect 25 0 10 1;
#X connect 25 1 3 0;
#X connect 26 0 9 1;
#X connect 26 1 2 0;
#X connect 27 0 18 0;
#X connect 29 0 31 0;
#X connect 29 1 24 0;
#X connect 29 2 12 1;
#X connect 31 0 30 0;
#X connect 32 0 29 0;
#X connect 33 0 34 0;
#X connect 34 0 40 0;
#X connect 35 0 38 0;
#X connect 36 0 37 0;
#X connect 37 0 39 0;
#X connect 38 0 39 0;
#X connect 40 0 36 0;
#X connect 40 1 35 0;
#X restore 204 241 pd trapezoid;
#N canvas 699 23 203 626 hann 0;
#X obj 9 66 f 256;
#X obj 9 140 until;
#X obj 38 185 + 1;
#X obj 9 213 t b f b b f, f 23;
#X obj 9 342 1;
#X obj 9 370 -;
#X obj 9 397 * 0.5;
#X obj 42 353 cos;
#X obj 42 327 /;
#X obj 42 291 *;
#X obj 57 267 * 3.1415;
#X obj 57 246 2;
#X obj 9 185 f 0;
#X obj 9 96 t f b f, f 20;
#X msg 56 140 0;
#X obj 9 42 t b;
#X obj 80 11 r \$0-envSize;
#X obj 110 310 int;
#X obj 9 11 r \$0-hann;
#X obj 9 435 tabwrite hann, f 23;
#X obj 29 466 r envtype;
#X obj 29 488 route set;
#X obj 122 533 t b;
#X obj 29 533 t b;
#X msg 29 558 1;
#X msg 122 555 0;
#X obj 69 586 outlet;
#X obj 29 511 route hann;
#X connect 0 0 13 0;
#X connect 1 0 12 0;
#X connect 2 0 12 1;
#X connect 3 0 4 0;
#X connect 3 1 9 0;
#X connect 3 2 11 0;
#X connect 3 3 17 0;
#X connect 3 4 19 1;
#X connect 4 0 5 0;
#X connect 5 0 6 0;
#X connect 6 0 19 0;
#X connect 7 0 5 1;
#X connect 8 0 7 0;
#X connect 9 0 8 0;
#X connect 10 0 9 1;
#X connect 11 0 10 0;
#X connect 12 0 2 0;
#X connect 12 0 3 0;
#X connect 13 0 1 0;
#X connect 13 1 14 0;
#X connect 13 2 17 1;
#X connect 14 0 12 1;
#X connect 15 0 0 0;
#X connect 16 0 0 1;
#X connect 17 0 8 1;
#X connect 18 0 15 0;
#X connect 20 0 21 0;
#X connect 21 0 27 0;
#X connect 22 0 25 0;
#X connect 23 0 24 0;
#X connect 24 0 26 0;
#X connect 25 0 26 0;
#X connect 27 0 23 0;
#X connect 27 1 22 0;
#X restore 216 361 pd hann;
#N canvas 621 25 238 440 loadbang 0;
#X obj 46 259 s \$0-envSize;
#X msg 46 123 256;
#X obj 46 149 t f f;
#X msg 112 70 20;
#X msg 79 95 200;
#X obj 13 285 t b b b b;
#X obj 64 315 s \$0-gauss;
#X obj 47 335 s \$0-tpz;
#X obj 30 355 s \$0-tri;
#X obj 13 375 s \$0-hann;
#X obj 13 16 loadbang;
#X msg 73 175 \; gauss resize \$1 \; triangular resize \$1 \; trapezoid
resize \$1 \; hann resize \$1 \;;
#X obj 112 92 s \$0-sigma-set;
#X obj 79 119 s \$0-slope-set;
#X obj 13 46 t b b b b, f 17;
#X obj 80 16 r \$0-redraw;
#X connect 1 0 2 0;
#X connect 2 0 0 0;
#X connect 2 1 11 0;
#X connect 3 0 12 0;
#X connect 4 0 13 0;
#X connect 5 0 9 0;
#X connect 5 1 8 0;
#X connect 5 2 7 0;
#X connect 5 3 6 0;
#X connect 10 0 14 0;
#X connect 14 0 5 0;
#X connect 14 1 1 0;
#X connect 14 2 4 0;
#X connect 14 3 3 0;
#X connect 15 0 14 0;
#X restore 211 54 pd loadbang;
#X obj 161 138 tgl 15 0 empty empty empty 17 7 0 10 -262144 -1 -1 0
1;
#X obj 161 18 tgl 15 0 empty empty empty 17 7 0 10 -262144 -1 -1 0
1;
#X obj 164 258 tgl 15 0 empty empty empty 17 7 0 10 -262144 -1 -1 1
1;
#X obj 162 378 tgl 15 0 empty empty empty 17 7 0 10 -262144 -1 -1 0
1;
#X connect 4 0 10 0;
#X connect 5 0 9 0;
#X connect 6 0 11 0;
#X connect 7 0 12 0;
#X coords 0 1 100 -1 190 500 1 0 0;
#X restore 8 6 graph;
#X restore 153 22 pd envtables;
#X connect 8 0 9 0;
#X connect 11 0 12 0;
#X connect 12 0 0 0;
#X coords 0 1 100 -1 150 100 1 0 0;
#X restore 13 16 graph;
