#N canvas 0 22 124 225 10;
#X obj 44 83 int;
#X obj 44 105 - 1;
#X obj 30 55 until;
#X obj 21 33 t f f;
#X obj 68 54 - 1;
#X obj 25 11 inlet;
#X obj 23 144 outlet;
#X connect 0 0 1 0;
#X connect 0 0 6 0;
#X connect 1 0 0 1;
#X connect 2 0 0 0;
#X connect 3 0 2 0;
#X connect 3 1 4 0;
#X connect 4 0 0 1;
#X connect 5 0 3 0;
