#N canvas 725 182 372 317 10;
#X declare -stdlib Gem;
#X obj 15 30 gemhead;
#X obj 35 59 tgl 15 0 empty empty empty 17 7 0 10 -262144 -1 -1 1 1
;
#X obj 15 282 polygon;
#X obj 20 5 declare -stdlib Gem;
#X obj 219 47 gemwin;
#X msg 219 11 0 \, destroy \, dimen 400 400 \, create \, 1, f 18;
#N canvas 0 22 450 300 image 0;
#X obj 188 91 gemhead;
#X obj 188 113 pix_image 88.jpg;
#X obj 188 135 pix_texture;
#X obj 243 182 outlet;
#X connect 0 0 1 0;
#X connect 1 0 2 0;
#X connect 2 1 3 0;
#X restore 175 139 pd image;
#X obj 15 149 pix_texture;
#X msg 25 257 draw fill \, -3 0 0 0 3 0 3 0 0;
#X obj 15 116 fd_flip;
#X floatatom 111 110 5 0 0 0 - - -, f 5;
#X obj 15 201 t a b;
#X obj 28 231 fd_spigot;
#X obj 69 55 hradio 15 1 0 4 empty empty empty 0 -8 0 10 -262144 -1
-1 2;
#X obj 35 79 *;
#X msg 89 84 90;
#X msg 149 85 180;
#X connect 0 0 9 0;
#X connect 1 0 14 0;
#X connect 5 0 4 0;
#X connect 6 0 7 1;
#X connect 7 0 11 0;
#X connect 8 0 2 0;
#X connect 9 0 7 0;
#X connect 10 0 9 1;
#X connect 11 0 2 0;
#X connect 11 1 12 0;
#X connect 12 0 8 0;
#X connect 13 0 14 1;
#X connect 14 0 9 0;
#X connect 15 0 10 0;
#X connect 16 0 10 0;
