#N canvas 68 246 537 335 12;
#X obj 30 17 inlet~;
#X obj 34 63 *~;
#X obj 67 61 tabreceive~ 0-han;
#X obj 34 88 rfft~;
#X obj 96 149 *~;
#X obj 139 149 *~;
#X obj 261 183 *~ 0.000325521;
#X obj 72 217 rifft~;
#X obj 60 278 *~;
#X obj 93 276 tabreceive~ 0-han;
#X obj 60 303 outlet~;
#X obj 331 9 block~ 2048 4;
#X obj 260 99 *~;
#X obj 261 124 *~;
#X obj 260 74 inlet~;
#X connect 0 0 1 0;
#X connect 1 0 3 0;
#X connect 2 0 1 1;
#X connect 3 0 4 0;
#X connect 3 1 5 0;
#X connect 4 0 7 0;
#X connect 5 0 7 1;
#X connect 6 0 5 1;
#X connect 6 0 4 1;
#X connect 7 0 8 0;
#X connect 8 0 10 0;
#X connect 9 0 8 1;
#X connect 12 0 13 0;
#X connect 12 0 13 1;
#X connect 13 0 6 0;
#X connect 14 0 12 0;
#X connect 14 0 12 1;
