#N canvas 741 446 302 283 10;
#X obj 32 17 inlet;
#X obj 209 249 outlet;
#X obj 32 122 separator;
#X obj 32 96 spigot 1;
#X obj 32 41 route float;
#X obj 209 97 spigot;
#X obj 179 97 == 0;
#X obj 217 17 inlet;
#X obj 32 185 rotate \$1 1 0 0;
#X obj 106 95 t f f f;
#N canvas 0 22 450 300 orient 0;
#X msg 241 163 0 1 0;
#X obj 192 139 sel 0 1 2;
#X obj 192 119 - 1;
#X msg 190 163 0 0 1;
#X msg 282 163 1 0 0;
#X obj 219 216 outlet;
#X obj 195 96 inlet;
#X connect 0 0 5 0;
#X connect 1 0 3 0;
#X connect 1 1 0 0;
#X connect 1 2 4 0;
#X connect 2 0 1 0;
#X connect 3 0 5 0;
#X connect 4 0 5 0;
#X connect 6 0 2 0;
#X restore 125 124 pd orient;
#X obj 32 72 t a a, f 30;
#X connect 0 0 4 0;
#X connect 2 0 8 0;
#X connect 3 0 2 0;
#X connect 4 0 9 0;
#X connect 4 1 11 0;
#X connect 5 0 1 0;
#X connect 6 0 5 1;
#X connect 7 0 8 1;
#X connect 8 0 1 0;
#X connect 9 0 3 1;
#X connect 9 1 10 0;
#X connect 9 2 6 0;
#X connect 10 0 8 2;
#X connect 11 0 3 0;
#X connect 11 1 5 0;
