#N canvas 0 22 450 300 10;
#X obj 82 25 loadbang;
#X obj 82 47 f \$1;
#X obj 82 69 osc~;
#X obj 82 91 *~;
#X obj 131 55 f \$2;
#X obj 18 81 osc~;
#X obj 18 103 outlet~;
#X obj 182 39 inlet;
#X obj 94 4 inlet;
#X obj 18 59 +~;
#X obj 18 37 inlet~;
#X connect 0 0 1 0;
#X connect 0 0 4 0;
#X connect 1 0 2 0;
#X connect 2 0 3 0;
#X connect 3 0 9 1;
#X connect 4 0 3 1;
#X connect 5 0 6 0;
#X connect 7 0 4 0;
#X connect 8 0 1 0;
#X connect 9 0 5 0;
#X connect 10 0 9 0;
