#N canvas 0 22 226 273 10;
#X obj 44 65 wrap;
#X obj 17 175 +;
#X obj 95 121 bang;
#X obj 95 143 int 1;
#X obj 44 121 bang;
#X obj 44 143 int 0;
#X obj 44 89 moses 0.5;
#X obj 17 143 int;
#X obj 17 43 t f f;
#X obj 17 215 outlet;
#X obj 17 15 inlet;
#X text 95 15 floor function;
#X connect 0 0 6 0;
#X connect 1 0 9 0;
#X connect 2 0 3 0;
#X connect 3 0 1 1;
#X connect 4 0 5 0;
#X connect 5 0 1 1;
#X connect 6 0 4 0;
#X connect 6 1 2 0;
#X connect 7 0 1 0;
#X connect 8 0 7 0;
#X connect 8 1 0 0;
#X connect 10 0 8 0;
