#N canvas 129 92 642 459 10;
#X obj 38 201 +~ 1;
#X msg 98 115 0 \, 1 \$1;
#X obj 38 142 line~;
#X obj 38 340 *~;
#X obj 38 242 tabread4~ \$0-grain;
#X obj 186 83 array define \$0-grain 64;
#X obj 320 418 fd_distributions \$0-grain 64;
#X obj 53 316 tabreceive~ \$0-hann;
#X obj 38 409 outlet~;
#X msg 352 244 cauch 0.34;
#X msg 391 291 poiss 0.04;
#X msg 486 366 gauss 3.2 0.43;
#X obj 38 11 inlet;
#X obj 38 68 moses 0;
#X msg 38 115 1 \, 0 \$1;
#X obj 38 90 abs;
#X obj 423 8 inlet;
#X obj 423 153 sel 0 1 2 3 4;
#X text 79 11 <-- ramp time;
#X text 328 8 grain type -->;
#X text 53 293 take care extremes;
#X obj 38 179 *~ 61;
#X text 153 115 ramp < 0 == reversed;
#X text 76 190 indices for interpolation;
#X text 326 153 to each its own;
#X text 184 65 grain shape;
#X msg 309 210 expon 1.5;
#X msg 457 327 poiss 3;
#X obj 87 371 *~ 0.0256;
#X obj 451 52 loadbang;
#X obj 451 95 f \$1;
#X text 497 94 hann window;
#X obj 451 74 t b b b;
#X msg 510 56 \; pd dsp 1 \;;
#X obj 495 111 fd_hann~ \$0-hann 64;
#X connect 0 0 4 0;
#X connect 1 0 2 0;
#X connect 2 0 21 0;
#X connect 3 0 8 0;
#X connect 4 0 3 0;
#X connect 7 0 3 1;
#X connect 9 0 6 0;
#X connect 10 0 6 0;
#X connect 11 0 6 0;
#X connect 12 0 13 0;
#X connect 13 0 15 0;
#X connect 13 1 1 0;
#X connect 14 0 2 0;
#X connect 15 0 14 0;
#X connect 16 0 17 0;
#X connect 17 0 26 0;
#X connect 17 1 9 0;
#X connect 17 2 10 0;
#X connect 17 3 27 0;
#X connect 17 4 11 0;
#X connect 21 0 0 0;
#X connect 26 0 6 0;
#X connect 27 0 6 0;
#X connect 29 0 32 0;
#X connect 30 0 17 0;
#X connect 32 0 30 0;
#X connect 32 1 34 0;
#X connect 32 2 33 0;
