#N canvas 0 22 450 300 10;
#X obj 76 114 t b b;
#X msg 113 114 0;
#X obj 76 92 spigot 1;
#X obj 55 65 t a b;
#X obj 55 41 inlet;
#X obj 55 216 outlet;
#X obj 76 136 f \$1;
#X obj 273 40 inlet;
#X obj 76 158 change;
#X text 194 166 \$1 == SIZE of the gembvertexbuffer;
#X text 38 237 connect [gemvertexbuffer] to this outlet;
#X msg 76 179 resize \$1;
#X text 198 199 Sizes 2^n work better;
#X connect 0 0 6 0;
#X connect 0 1 1 0;
#X connect 1 0 2 1;
#X connect 2 0 0 0;
#X connect 3 0 5 0;
#X connect 3 1 2 0;
#X connect 4 0 3 0;
#X connect 6 0 8 0;
#X connect 7 0 6 0;
#X connect 8 0 11 0;
#X connect 11 0 5 0;
