#N canvas 264 20 841 542 12;
#X obj 41 169 array random \$0-gauss;
#N canvas 0 22 450 278 (subpatch) 0;
#X array test 128 float 3;
#A 0 -1 -1 -1 -1 -1 -1 -1 -1 -1 -1 -1 -1 -1 -1 -1 -1 -1 -1 -0.8 -1
-1 -1 -1 -1 -1 -1 -0.8 -1 -1 -0.8 -1 -1 -0.8 -0.8 -1 -1 -0.8 -0.8 -0.8
-1 -0.8 -0.8 -0.8 -0.8 -0.8 -0.8 -0.8 -0.8 -0.8 -0.8 -0.8 -0.8 -0.8
-0.8 -0.8 -0.8 -0.8 -0.8 -0.8 -0.8 -0.8 -0.8 -0.8 -0.8 0.8 0.8 0.8
0.8 0.8 0.8 0.8 0.8 0.8 0.8 0.8 0.8 0.8 0.8 0.8 0.8 0.8 0.8 0.8 -1
0.8 0.8 0.8 0.8 0.8 0.8 0.8 0.8 0.8 0.8 -1 -1 0.8 0.8 -1 0.8 0.8 -1
-1 -1 -1 -1 -1 0.8 0.8 -1 -1 -1 0.8 -1 -1 0.8 -1 -1 -1 -1 -1 -1 -1
-1 -1 -1 -1 -1;
#X coords 0 1 128 -1 200 140 1 0 0;
#X restore 287 38 graph;
#X obj 41 195 t f f, f 13;
#X obj 41 254 bang;
#X msg 171 280 0.8;
#X msg 41 279 -0.8;
#X msg 102 279 0;
#X obj 41 229 moses 50;
#X obj 102 253 moses 75, f 9;
#X obj 41 18 tgl 15 0 empty empty graphing 17 7 0 10 -262144 -1 -1
0 1;
#X obj 41 142 t b b, f 25;
#X obj 317 227 array size \$0-gauss;
#X obj 317 252 t f f;
#X msg 363 252 1 \$1;
#X obj 363 277 -;
#X obj 317 290 *;
#X obj 354 305 *;
#X floatatom 317 349 5 0 0 0 - - -, f 5;
#X floatatom 354 330 5 0 0 0 - - -, f 5;
#X obj 317 201 t b f f b;
#X msg 455 405 const -1;
#X obj 41 416 f;
#X obj 72 416 + 1;
#X obj 41 436 /;
#X obj 238 393 bang;
#X obj 238 416 f;
#X obj 269 416 + 1;
#X msg 318 396 0;
#X floatatom 41 466 5 0 0 0 - - -, f 5;
#X obj 102 416 f;
#X obj 133 416 + 1;
#X obj 102 436 /;
#X floatatom 102 466 5 0 0 0 - - -, f 5;
#X obj 171 416 f;
#X obj 202 416 + 1;
#X obj 171 436 /;
#X floatatom 171 466 5 0 0 0 - - -, f 5;
#X text 561 349 with 0.5 \, the output is the inverse of the gaussian
curve \, favoring the values at the extremes., f 28;
#X msg 779 181 1;
#X msg 601 181 0;
#X msg 738 181 0.5;
#X text 561 231 with 0 or 1 \, the output should resemble the gaussian
distribution, f 28;
#X floatatom 110 45 5 0 0 0 - - -, f 5;
#X msg 693 181 0.44;
#X floatatom 504 184 5 0 0 2 shift+drag - -, f 5;
#X text 561 426 when approaching 0 \, the values tend to spread towards
the gaussian curve, f 28;
#X obj 41 117 until;
#X text 360 486 NOTE: graphing makes this patch not meant for real
time;
#X obj 41 313 tabwrite test;
#X obj 456 431 s test;
#X msg 643 181 0.15;
#X obj 41 67 metro 400;
#X obj 513 89 fd_gauss~ \$0-gauss 128, f 12;
#X text 627 92 <-- \$0-gauss curve is inside, f 15;
#X msg 513 51 bang to graph;
#X obj 455 378 t b;
#X text 364 348 <-probs;
#X text 396 329 <-probs;
#X text 659 13 1) bang this first;
#X msg 708 40 \; pd dsp 1 \;;
#X text 515 22 2) then this;
#X text 112 16 3) turn this on;
#X text 521 141 4) set probability 'q';
#X msg 41 92 50;
#X text 73 92 <- graphing 50 times...;
#X obj 41 488 * 100;
#X floatatom 41 513 5 0 0 0 - - -, f 5;
#X obj 102 488 * 100;
#X floatatom 102 513 5 0 0 0 - - -, f 5;
#X obj 171 488 * 100;
#X floatatom 171 513 5 0 0 0 - - -, f 5;
#X text 228 513 <-- probabilities in %;
#X text 563 291 around 0.44 \, the values tend to spread evenly (see
percentages), f 28;
#X obj 41 391 bng 15 250 50 0 empty empty empty 17 7 0 10 -262144 -1
-1;
#X obj 102 391 bng 15 250 50 0 empty empty empty 17 7 0 10 -262144
-1 -1;
#X obj 171 391 bng 15 250 50 0 empty empty empty 17 7 0 10 -262144
-1 -1;
#X msg 318 446 0;
#X connect 0 0 2 0;
#X connect 2 0 7 0;
#X connect 2 1 48 1;
#X connect 3 0 5 0;
#X connect 4 0 48 0;
#X connect 4 0 75 0;
#X connect 5 0 48 0;
#X connect 5 0 73 0;
#X connect 6 0 48 0;
#X connect 6 0 74 0;
#X connect 7 0 3 0;
#X connect 7 1 8 0;
#X connect 8 0 6 0;
#X connect 8 1 4 0;
#X connect 9 0 51 0;
#X connect 10 0 0 0;
#X connect 10 1 24 0;
#X connect 11 0 12 0;
#X connect 12 0 15 0;
#X connect 12 1 16 0;
#X connect 13 0 14 0;
#X connect 14 0 16 1;
#X connect 15 0 17 0;
#X connect 16 0 18 0;
#X connect 17 0 7 1;
#X connect 18 0 8 1;
#X connect 19 0 11 0;
#X connect 19 1 15 1;
#X connect 19 2 13 0;
#X connect 19 3 55 0;
#X connect 20 0 49 0;
#X connect 21 0 22 0;
#X connect 21 0 23 0;
#X connect 22 0 21 1;
#X connect 23 0 28 0;
#X connect 24 0 25 0;
#X connect 25 0 26 0;
#X connect 25 0 23 1;
#X connect 25 0 31 1;
#X connect 25 0 35 1;
#X connect 26 0 25 1;
#X connect 27 0 25 1;
#X connect 27 0 21 1;
#X connect 27 0 29 1;
#X connect 27 0 33 1;
#X connect 27 0 76 0;
#X connect 28 0 65 0;
#X connect 29 0 30 0;
#X connect 29 0 31 0;
#X connect 30 0 29 1;
#X connect 31 0 32 0;
#X connect 32 0 67 0;
#X connect 33 0 34 0;
#X connect 33 0 35 0;
#X connect 34 0 33 1;
#X connect 35 0 36 0;
#X connect 36 0 69 0;
#X connect 38 0 19 0;
#X connect 39 0 19 0;
#X connect 40 0 19 0;
#X connect 42 0 51 1;
#X connect 43 0 19 0;
#X connect 44 0 19 0;
#X connect 46 0 10 0;
#X connect 50 0 19 0;
#X connect 51 0 63 0;
#X connect 54 0 52 0;
#X connect 55 0 27 0;
#X connect 55 0 20 0;
#X connect 63 0 46 0;
#X connect 65 0 66 0;
#X connect 67 0 68 0;
#X connect 69 0 70 0;
#X connect 73 0 21 0;
#X connect 74 0 29 0;
#X connect 75 0 33 0;
#X connect 76 0 28 0;
#X connect 76 0 32 0;
#X connect 76 0 36 0;
