#N canvas 525 386 163 312 10;
#X obj 78 135 pack;
#X obj 9 229 list prepend 0;
#X obj 9 161 list prepend;
#X obj 9 126 int;
#X obj 72 51 t b f;
#X obj 51 99 t b f;
#X obj 51 78 f;
#X msg 9 261 \; grano-\$1 \$2 \$3 \$4 \;;
#X obj 9 7 inlet;
#X obj 51 7 inlet;
#X obj 51 29 f;
#X obj 91 7 inlet;
#X obj 90 185 loadbang;
#X obj 90 207 f \$1;
#X connect 0 0 2 1;
#X connect 1 0 7 0;
#X connect 2 0 1 0;
#X connect 3 0 2 0;
#X connect 4 0 6 0;
#X connect 4 1 0 1;
#X connect 5 0 3 0;
#X connect 5 1 0 0;
#X connect 6 0 5 0;
#X connect 8 0 3 0;
#X connect 9 0 10 0;
#X connect 10 0 6 0;
#X connect 11 0 4 0;
#X connect 12 0 13 0;
#X connect 13 0 1 1;
