#N canvas 387 30 522 668 10;
#X declare -path ~/Documents/fd_lib;
#X obj 13 11 declare -path ~/Documents/fd_lib;
#X obj 257 451 list prepend;
#X msg 325 241 clear;
#X obj 257 494 list trim;
#X obj 402 330 f;
#X obj 432 330 + 1;
#X msg 367 241 0;
#X obj 230 50 bng 15 250 50 0 empty empty empty 17 7 0 10 -262144 -1
-1;
#X obj 257 94 t b b b, f 8;
#X obj 257 241 ggee/shell;
#X obj 257 291 makefilename %s;
#X obj 257 265 symbol;
#X obj 257 313 t a b;
#X obj 257 426 list append 2 7 0 10 10 22 22;
#X obj 402 353 * 13;
#X obj 257 400 list prepend cnv 13 190 13 send receive;
#X msg 284 341 1e+07;
#X obj 230 549 sel 0;
#X msg 317 64 clear;
#X obj 230 571 del 100;
#X obj 402 375 + 15;
#X obj 257 473 list prepend obj 18;
#X obj 257 153 list prepend \$1;
#X msg 257 174 symbol \$2/\$1;
#X obj 257 196 list prepend ls;
#X obj 257 218 list trim;
#X msg 362 63 click;
#X obj 230 7 inlet;
#X obj 278 3 loadbang;
#X obj 230 27 t b b a;
#X obj 230 70 t b b;
#X obj 278 23 spigot \$2;
#X obj 425 44 symbol \$1;
#X obj 317 93 text define \$0-files;
#X obj 230 594 text size \$0-files;
#X obj 352 565 list prepend \$0-files;
#X obj 352 587 outlet;
#X obj 267 370 text set \$0-files;
#X obj 257 520 s pd-\$0-files;
#N canvas 0 22 252 633 \$0-files 0;
#X obj 18 15 cnv 13 190 13 send receive README.md 2 7 0 10 -233017
-1 1.04858e+06;
#X obj 18 28 cnv 13 190 13 send receive fdpd.command 2 7 0 10 -233017
-1 1.04858e+06;
#X obj 18 41 cnv 13 190 13 send receive message-routing.txt 2 7 0 10
-233017 -1 1.04858e+06;
#X coords 0 -1 1 1 200 600 2 13 10;
#X restore 13 34 pd \$0-files;
#X obj 267 548 t b f;
#X obj 257 131 ggee/getdir 1;
#X connect 1 0 21 0;
#X connect 2 0 38 0;
#X connect 3 0 38 0;
#X connect 4 0 5 0;
#X connect 4 0 14 0;
#X connect 5 0 4 1;
#X connect 6 0 4 1;
#X connect 7 0 30 0;
#X connect 8 0 41 0;
#X connect 8 1 2 0;
#X connect 8 2 6 0;
#X connect 9 0 11 0;
#X connect 10 0 12 0;
#X connect 11 0 10 0;
#X connect 12 0 15 0;
#X connect 12 0 37 0;
#X connect 12 1 4 0;
#X connect 12 1 16 0;
#X connect 13 0 1 0;
#X connect 14 0 20 0;
#X connect 15 0 13 0;
#X connect 16 0 37 1;
#X connect 17 0 19 0;
#X connect 17 1 40 0;
#X connect 18 0 33 0;
#X connect 19 0 7 0;
#X connect 20 0 1 1;
#X connect 21 0 3 0;
#X connect 22 0 23 0;
#X connect 23 0 24 0;
#X connect 24 0 25 0;
#X connect 25 0 9 0;
#X connect 26 0 33 0;
#X connect 27 0 29 0;
#X connect 28 0 31 0;
#X connect 29 0 7 0;
#X connect 29 1 18 0;
#X connect 29 2 32 0;
#X connect 30 0 34 0;
#X connect 30 1 8 0;
#X connect 31 0 29 0;
#X connect 32 0 22 1;
#X connect 34 0 17 0;
#X connect 35 0 36 0;
#X connect 40 0 26 0;
#X connect 40 1 35 0;
#X connect 41 0 22 0;
