#N canvas 0 22 540 391 10;
#X obj 35 193 pointer;
#X obj 69 310 pack f f f f f f f f f f f f f f f f f f f f f f f f
f f, f 63;
#X obj 69 332 outlet;
#X obj 29 11 inlet;
#X obj 29 33 t b b;
#X obj 67 137 list prepend traverse;
#X msg 21 71 next;
#X obj 384 206 outlet;
#X obj 67 159 list trim;
#X obj 67 65 list append \$1;
#X obj 67 87 list append \$2;
#X msg 67 109 symbol \$2-\$1;
#X obj 31 247 get \$3-\$1 a b c d e f g h i j k l m n o p q r s t u
v w x y z;
#X connect 0 0 12 0;
#X connect 0 1 7 0;
#X connect 1 0 2 0;
#X connect 3 0 4 0;
#X connect 4 0 6 0;
#X connect 4 1 9 0;
#X connect 5 0 8 0;
#X connect 6 0 0 0;
#X connect 8 0 0 0;
#X connect 9 0 10 0;
#X connect 10 0 11 0;
#X connect 11 0 5 0;
#X connect 12 0 1 0;
#X connect 12 1 1 1;
#X connect 12 2 1 2;
#X connect 12 3 1 3;
#X connect 12 4 1 4;
#X connect 12 5 1 5;
#X connect 12 6 1 6;
#X connect 12 7 1 7;
#X connect 12 8 1 8;
#X connect 12 9 1 9;
#X connect 12 10 1 10;
#X connect 12 11 1 11;
#X connect 12 12 1 12;
#X connect 12 13 1 13;
#X connect 12 14 1 14;
#X connect 12 15 1 15;
#X connect 12 16 1 16;
#X connect 12 17 1 17;
#X connect 12 18 1 18;
#X connect 12 19 1 19;
#X connect 12 20 1 20;
#X connect 12 21 1 21;
#X connect 12 22 1 22;
#X connect 12 23 1 23;
#X connect 12 24 1 24;
#X connect 12 25 1 25;
