#N canvas 60 192 741 708 12;
#X obj 77 493 *~ 0.2;
#X obj 35 513 *~;
#X obj 33 251 *~;
#X obj 33 276 *~;
#X obj 270 134 bng 15 250 50 0 empty empty empty 17 7 0 10 -262144
-1 -1;
#X obj 106 109 del 1;
#X obj 33 149 spigot;
#X obj 209 262 random 4;
#X obj 209 287 + 1;
#X obj 79 370 mtof~;
#X obj 394 149 fd_dataRead 5 6 1;
#X obj 394 350 +~ 64;
#X obj 437 186 random 20;
#X obj 474 312 t b f;
#X obj 474 387 f;
#X obj 511 386 + 1;
#X obj 531 337 mod 13;
#X obj 437 211 sel 6;
#X obj 474 410 mod 29;
#X obj 394 323 *~ 1;
#X obj 33 56 t f f;
#X obj 33 121 sel 1;
#X obj 35 546 hip~ 3;
#X obj 474 262 random 30;
#X obj 270 167 f;
#X obj 305 167 + 1;
#X obj 270 192 mod 30;
#X obj 33 25 inlet;
#X obj 166 20 inlet;
#X obj 35 652 outlet~;
#X obj 87 56 switch~;
#X obj 33 226 line~;
#X obj 394 294 line~;
#X obj 474 460 / 150;
#X obj 474 485 * 60;
#X obj 33 175 fd_dataRead 1 2 1;
#X obj 222 431 *~ 0.5;
#X obj 222 455 *~ 3.14159;
#X obj 222 480 cos~;
#X obj 137 549 sig~ 1;
#X obj 137 574 -~;
#X obj 201 647 outlet~;
#X obj 35 609 *~;
#X obj 201 611 *~;
#X obj 222 505 *~ 0.5;
#X obj 222 530 +~ 0.5;
#X obj 222 554 sqrt~;
#X obj 33 200 t a b;
#X obj 474 513 + 43;
#X obj 78 395 phasor~;
#X obj 78 445 +~ 1;
#X obj 78 420 *~ 64;
#X obj 118 445 r tab;
#X obj 77 468 tabread4~ sin;
#X obj 527 466 r f-range;
#X obj 520 512 r f-min;
#X obj 474 236 bang;
#X obj 299 307 r offset;
#X obj 248 336 * 13.3;
#X obj 207 335 +;
#X obj 166 45 unpack f f f f;
#X obj 209 312 t f b;
#X obj 261 310 f \$1;
#X text 115 212 need this?;
#X obj 472 285 fd_dataRead1 4 y;
#X obj 474 435 fd_dataRead1 3 y;
#X floatatom 580 391 5 0 0 0 - - -, f 5;
#X floatatom 647 393 5 0 0 0 - - -, f 5;
#X obj 269 239 abs;
#X obj 271 216 fd_dataRead1 4 y;
#X obj 531 362 fd_dataRead1 4 y;
#X connect 0 0 1 1;
#X connect 1 0 22 0;
#X connect 2 0 3 0;
#X connect 2 0 3 1;
#X connect 3 0 1 0;
#X connect 3 0 36 0;
#X connect 4 0 7 0;
#X connect 4 0 10 0;
#X connect 4 0 24 0;
#X connect 5 0 6 0;
#X connect 6 0 35 0;
#X connect 7 0 8 0;
#X connect 8 0 61 0;
#X connect 9 0 49 0;
#X connect 10 0 32 0;
#X connect 10 1 12 0;
#X connect 11 0 9 0;
#X connect 12 0 17 0;
#X connect 13 0 14 0;
#X connect 13 1 16 0;
#X connect 14 0 15 0;
#X connect 14 0 18 0;
#X connect 15 0 14 1;
#X connect 16 0 70 0;
#X connect 17 1 56 0;
#X connect 18 0 65 0;
#X connect 19 0 11 0;
#X connect 20 0 21 0;
#X connect 20 1 6 1;
#X connect 20 1 30 0;
#X connect 21 0 6 0;
#X connect 22 0 42 0;
#X connect 22 0 43 0;
#X connect 23 0 64 0;
#X connect 24 0 25 0;
#X connect 24 0 26 0;
#X connect 25 0 24 1;
#X connect 26 0 69 0;
#X connect 27 0 20 0;
#X connect 28 0 60 0;
#X connect 31 0 2 0;
#X connect 31 0 2 1;
#X connect 32 0 19 0;
#X connect 32 0 36 0;
#X connect 33 0 34 0;
#X connect 34 0 48 0;
#X connect 35 0 47 0;
#X connect 36 0 37 0;
#X connect 37 0 38 0;
#X connect 38 0 44 0;
#X connect 39 0 40 0;
#X connect 40 0 42 1;
#X connect 42 0 29 0;
#X connect 43 0 41 0;
#X connect 44 0 45 0;
#X connect 45 0 46 0;
#X connect 46 0 43 1;
#X connect 46 0 40 1;
#X connect 47 0 31 0;
#X connect 47 1 4 0;
#X connect 48 0 11 1;
#X connect 49 0 51 0;
#X connect 50 0 53 0;
#X connect 51 0 50 0;
#X connect 52 0 53 0;
#X connect 53 0 0 0;
#X connect 54 0 34 1;
#X connect 55 0 48 1;
#X connect 56 0 23 0;
#X connect 57 0 58 1;
#X connect 58 0 59 1;
#X connect 59 0 5 0;
#X connect 60 0 35 1;
#X connect 60 1 8 1;
#X connect 60 2 19 1;
#X connect 60 3 10 1;
#X connect 61 0 59 0;
#X connect 61 1 62 0;
#X connect 62 0 58 0;
#X connect 64 0 13 0;
#X connect 65 0 33 0;
#X connect 68 0 7 1;
#X connect 69 0 68 0;
#X connect 70 0 15 1;
#X connect 70 0 66 0;
#X connect 70 1 67 0;
