#N canvas 642 23 497 587 10;
#X obj 14 390 f;
#X obj 14 410 -;
#X obj 84 358 t b f;
#X obj 14 326 t b f;
#X obj 14 457 max 200;
#X obj 14 508 min;
#X obj 84 307 min;
#X obj 84 329 max;
#X obj 99 280 - 200;
#X obj 284 530 outlet;
#X obj 227 530 outlet;
#X obj 13 10 inlet;
#X obj 24 34 loadbang;
#X obj 126 257 r \$0minrange;
#X obj 53 433 r \$0minrange;
#X obj 362 36 loadbang;
#X obj 232 150 s \$0minrange;
#X obj 247 57 f \$3;
#X obj 362 58 f \$4;
#X obj 351 12 inlet;
#X obj 24 59 f \$1;
#X obj 13 112 *;
#X obj 123 10 inlet;
#X obj 134 34 loadbang;
#X obj 123 112 *;
#X obj 134 59 f \$2;
#X obj 233 10 inlet;
#X obj 244 34 loadbang;
#X obj 341 530 outlet;
#X obj 341 508 /;
#X obj 341 481 samplerate~;
#X obj 341 455 t b f;
#X obj 284 506 max;
#X text 240 254 output2: min (for reposition);
#X text 240 272 output3: new speed;
#X text 241 216 gate (min max minrange maxsize);
#X obj 13 149 s \$0min;
#X obj 31 83 r \$0totsize;
#X obj 141 83 r \$0totsize;
#X obj 351 83 s \$0totsize;
#X obj 99 235 r \$0totsize;
#X obj 14 211 r \$0max;
#X obj 123 150 s \$0max;
#X obj 84 212 r \$0min;
#X obj 29 483 r \$0totsize;
#X obj 284 482 r \$0min;
#X obj 227 416 r \$0size;
#X obj 14 530 s \$0size;
#X obj 227 438 t f f;
#X text 240 235 output1: size;
#X connect 0 0 1 0;
#X connect 1 0 4 0;
#X connect 2 0 0 0;
#X connect 2 1 1 1;
#X connect 3 0 0 0;
#X connect 3 1 0 1;
#X connect 4 0 5 0;
#X connect 5 0 47 0;
#X connect 6 0 7 0;
#X connect 7 0 2 0;
#X connect 8 0 6 1;
#X connect 11 0 21 0;
#X connect 12 0 20 0;
#X connect 13 0 8 1;
#X connect 14 0 4 1;
#X connect 15 0 18 0;
#X connect 17 0 16 0;
#X connect 18 0 39 0;
#X connect 19 0 39 0;
#X connect 20 0 21 0;
#X connect 21 0 36 0;
#X connect 22 0 24 0;
#X connect 23 0 25 0;
#X connect 24 0 42 0;
#X connect 25 0 24 0;
#X connect 26 0 16 0;
#X connect 27 0 17 0;
#X connect 29 0 28 0;
#X connect 30 0 29 0;
#X connect 31 0 30 0;
#X connect 31 1 29 1;
#X connect 32 0 9 0;
#X connect 37 0 21 1;
#X connect 38 0 24 1;
#X connect 40 0 8 0;
#X connect 41 0 3 0;
#X connect 43 0 6 0;
#X connect 44 0 5 1;
#X connect 45 0 32 0;
#X connect 46 0 48 0;
#X connect 48 0 10 0;
#X connect 48 1 31 0;
