#N canvas 399 35 509 482 12;
#X msg 46 168 traverse pd-data-\$1 \, next;
#X obj 51 16 inlet;
#X obj 53 426 outlet;
#X obj 131 132 t f f;
#X obj 53 274 getsize;
#X msg 110 229 set template-\$1 array-\$1;
#X obj 112 72 f \$1;
#X obj 180 18 inlet;
#X obj 46 191 pointer;
#X connect 0 0 8 0;
#X connect 1 0 6 0;
#X connect 3 0 0 0;
#X connect 3 1 5 0;
#X connect 4 0 2 0;
#X connect 5 0 4 0;
#X connect 6 0 3 0;
#X connect 7 0 6 1;
#X connect 8 0 4 0;
