#N canvas 634 241 210 173 10;
#X obj 16 80 array define \$0-hann \$1;
#N canvas 672 277 302 270 write 0;
#X obj 18 6 loadbang;
#X obj 36 104 samplerate~;
#X obj 36 126 /;
#X obj 111 82 f \$1;
#X obj 36 158 osc~;
#X obj 36 180 *~ -0.5;
#X obj 36 202 +~ 0.5;
#X msg 57 83 0;
#X obj 186 145 switch~;
#X obj 18 237 tabwrite~ \$0-hann;
#X msg 186 104 0;
#X msg 247 82 1;
#X obj 111 109 / 4;
#X obj 144 82 f \$2;
#X obj 25 28 r pd-dsp-started;
#X obj 18 50 t b b b b b b b, f 26;
#X obj 186 82 del 300;
#X connect 0 0 15 0;
#X connect 1 0 2 0;
#X connect 2 0 4 0;
#X connect 3 0 12 0;
#X connect 4 0 5 0;
#X connect 5 0 6 0;
#X connect 6 0 9 0;
#X connect 7 0 4 1;
#X connect 10 0 8 0;
#X connect 11 0 8 0;
#X connect 12 0 2 1;
#X connect 13 0 12 1;
#X connect 14 0 15 0;
#X connect 15 0 9 0;
#X connect 15 1 1 0;
#X connect 15 2 7 0;
#X connect 15 3 3 0;
#X connect 15 4 13 0;
#X connect 15 5 16 0;
#X connect 15 6 11 0;
#X connect 16 0 10 0;
#X restore 16 41 pd write;
#X obj 15 139 outlet~;
#X obj 15 117 tabreceive~ \$0-hann;
#X text 17 10 0-hann BLOCKSIZE OVERLAP;
#X text 68 141 sends every block;
#X connect 3 0 2 0;
