#N canvas 686 144 364 462 10;
#X obj 167 226 array define hann \$1;
#X msg 167 205 resize \$1;
#X obj 19 150 until;
#X obj 19 172 f;
#X obj 45 172 + 1;
#X msg 59 150 0;
#X obj 19 222 /;
#X obj 19 322 cos;
#X obj 19 344 * -0.5;
#X obj 19 366 + 0.5;
#X obj 19 388 tabwrite hann;
#X obj 72 17 r hann-size;
#X obj 171 10 inlet;
#X obj 171 41 t b f;
#X obj 19 12 inlet;
#X obj 19 34 sel 0;
#X obj 19 84 int 1024;
#X obj 213 14 r hann-overlaps;
#X obj 19 194 t f b f;
#X obj 19 108 t f b f f;
#X obj 19 265 * 3.14159;
#X obj 19 244 * 2;
#X obj 19 287 * 1;
#X obj 78 50 loadbang;
#X connect 1 0 0 0;
#X connect 2 0 3 0;
#X connect 3 0 4 0;
#X connect 3 0 18 0;
#X connect 4 0 3 1;
#X connect 5 0 3 1;
#X connect 6 0 21 0;
#X connect 7 0 8 0;
#X connect 8 0 9 0;
#X connect 9 0 10 0;
#X connect 11 0 16 0;
#X connect 12 0 13 0;
#X connect 13 0 16 0;
#X connect 13 1 22 1;
#X connect 14 0 15 0;
#X connect 15 1 16 0;
#X connect 16 0 19 0;
#X connect 17 0 13 0;
#X connect 18 0 6 0;
#X connect 18 2 10 1;
#X connect 19 0 2 0;
#X connect 19 1 5 0;
#X connect 19 2 1 0;
#X connect 19 3 6 1;
#X connect 20 0 22 0;
#X connect 21 0 20 0;
#X connect 22 0 7 0;
#X connect 23 0 16 0;
