#N canvas 464 63 332 496 10;
#X obj 33 423 *~;
#X obj 264 161 *~;
#X obj 33 448 outlet~;
#X obj 264 185 *~;
#X obj 33 47 abs~;
#X obj 33 70 *~ -1;
#X obj 33 18 inlet~;
#X obj 33 100 phasor~ -1;
#X obj 33 210 fd_shift \$1;
#X obj 119 180 cos~;
#X obj 33 241 *~;
#X obj 119 202 *~ 0.5;
#X obj 119 224 +~ 0.5;
#X obj 33 360 *~;
#X obj 164 180 cos~;
#X obj 164 202 *~ 0.5;
#X obj 164 224 +~ 0.5;
#X obj 197 18 inlet;
#X obj 164 158 -~ 0.5;
#X text 114 421 pulsetrain using lrshifting;
#X obj 33 268 fd_shift \$1;
#X obj 249 18 block~ \$1;
#X connect 0 0 2 0;
#X connect 1 0 3 0;
#X connect 1 0 3 1;
#X connect 3 0 0 1;
#X connect 4 0 5 0;
#X connect 5 0 7 0;
#X connect 6 0 4 0;
#X connect 7 0 1 0;
#X connect 7 0 1 1;
#X connect 7 0 8 0;
#X connect 7 0 9 0;
#X connect 7 0 18 0;
#X connect 8 0 10 0;
#X connect 9 0 11 0;
#X connect 10 0 20 0;
#X connect 11 0 12 0;
#X connect 12 0 10 1;
#X connect 13 0 0 0;
#X connect 14 0 15 0;
#X connect 15 0 16 0;
#X connect 16 0 13 1;
#X connect 17 0 18 1;
#X connect 18 0 14 0;
#X connect 20 0 13 0;
