#N canvas 579 81 450 300 10;
#X obj 271 64 inlet~;
#X obj 271 86 max~ 0;
#X obj 271 108 phasor~;
#X obj 112 63 inlet~;
#X obj 112 125 samphold~;
#X obj 202 169 rzero_rev~ 0;
#X obj 202 191 samphold~;
#X obj 112 272 outlet~;
#X obj 112 208 -~;
#X obj 112 238 *~;
#X obj 30 9 loadbang;
#X obj 30 31 random 65536;
#X obj 30 53 - 32768;
#X obj 30 75 / 32768;
#X msg 30 97 set \$1;
#X obj 181 26 random 65536;
#X obj 181 48 - 32768;
#X obj 181 70 / 32768;
#X msg 181 92 set \$1;
#X connect 0 0 1 0;
#X connect 1 0 2 0;
#X connect 2 0 5 1;
#X connect 2 0 9 1;
#X connect 2 0 4 1;
#X connect 3 0 4 0;
#X connect 4 0 5 0;
#X connect 4 0 8 0;
#X connect 5 0 6 0;
#X connect 6 0 7 0;
#X connect 6 0 8 1;
#X connect 8 0 9 0;
#X connect 9 0 7 0;
#X connect 10 0 11 0;
#X connect 10 0 15 0;
#X connect 11 0 12 0;
#X connect 12 0 13 0;
#X connect 13 0 14 0;
#X connect 14 0 4 0;
#X connect 15 0 16 0;
#X connect 16 0 17 0;
#X connect 17 0 18 0;
#X connect 18 0 6 0;
