#N canvas 624 29 227 316 10;
#X obj 36 114 hip~ 3;
#X obj 36 136 hip~ 10;
#X obj 36 230 *~ 1;
#X obj 36 84 *~;
#X obj 36 32 adc~ \$1;
#X obj 51 59 r \$1-adc-onoff;
#X obj 57 203 r \$1-adc-gain;
#X obj 36 265 s~ \$1-adc;
#X text 96 136 brute filter;
#X obj 36 158 lop~ 14000;
#X connect 0 0 1 0;
#X connect 1 0 9 0;
#X connect 2 0 7 0;
#X connect 3 0 0 0;
#X connect 4 0 3 0;
#X connect 5 0 3 1;
#X connect 6 0 2 1;
#X connect 9 0 2 0;
