#N canvas 620 150 540 478 10;
#N canvas 0 22 450 278 (subpatch) 0;
#X array logic 10 float 3;
#A 0 2 1.36788 1.13534 1.04979 1.01832 1.00674 1.00248 1.00091 1.00034
1.00012;
#X coords 0 -4 10 4 200 140 1 0 0;
#X restore 215 27 graph;
#X msg 226 195 2.71828;
#X obj 226 217 v euler;
#X obj 17 105 v euler;
#X obj 17 127 pow;
#X obj 17 193 int 1;
#X obj 17 259 /;
#X obj 17 171 t b f f;
#X obj 17 286 tabwrite logic;
#X obj 17 83 t b f f;
#X obj 17 59 f;
#X obj 54 58 + 1;
#X obj 17 35 until;
#X msg 17 13 10;
#X msg 104 97 \; logic resize 10;
#X obj 86 57 mod 10;
#X obj 17 215 +;
#X connect 1 0 2 0;
#X connect 3 0 4 0;
#X connect 4 0 7 0;
#X connect 5 0 16 0;
#X connect 6 0 8 0;
#X connect 7 0 5 0;
#X connect 7 1 16 1;
#X connect 7 2 6 1;
#X connect 9 0 3 0;
#X connect 9 1 4 1;
#X connect 9 2 8 1;
#X connect 10 0 11 0;
#X connect 10 0 9 0;
#X connect 11 0 15 0;
#X connect 12 0 10 0;
#X connect 13 0 12 0;
#X connect 15 0 10 1;
#X connect 16 0 6 0;
