#N canvas 0 22 450 300 10;
#X obj 32 195 log;
#X obj 33 175 wrap;
#X obj 33 131 min 0.99999;
#X obj 33 153 max 1e-05;
#X obj 32 217 abs;
#X obj 33 89 swap 1;
#X obj 33 111 -;
#X obj 31 239 / 5;
#X obj 33 47 inlet;
#X obj 32 261 outlet;
#X text 230 21 normalized log function;
#X obj 149 51 inlet;
#X obj 114 168 f \$1;
#X obj 114 190 sel 0;
#X msg 114 212 5;
#X obj 33 69 t f b, f 14;
#X text 195 98 \$1 == division factor;
#X connect 0 0 4 0;
#X connect 1 0 0 0;
#X connect 2 0 3 0;
#X connect 3 0 1 0;
#X connect 4 0 7 0;
#X connect 5 0 6 0;
#X connect 5 1 6 1;
#X connect 6 0 2 0;
#X connect 7 0 9 0;
#X connect 8 0 15 0;
#X connect 11 0 12 0;
#X connect 12 0 13 0;
#X connect 13 0 14 0;
#X connect 13 1 7 1;
#X connect 14 0 7 1;
#X connect 15 0 5 0;
#X connect 15 1 12 0;
