#N canvas 0 22 450 300 10;
#X obj 12 133 spigot;
#X obj 56 133 delay 1 60 permin;
#X obj 12 86 t f f, f 6;
#X obj 12 108 sel 1;
#X msg 56 107 tempo \$1 permin;
#X obj 12 234 outlet;
#X obj 56 13 inlet;
#X obj 56 35 change;
#X obj 56 57 abs;
#X obj 12 57 > 0;
#X obj 12 35 change;
#X obj 12 13 inlet;
#X text 136 24 a simple musical metronome;
#X obj 12 169 f;
#X obj 56 79 t f f;
#X text 157 49 that outlets its tempo at its tempo rate;
#X obj 42 205 /;
#X msg 42 183 60000 \$1;
#X connect 0 0 1 0;
#X connect 0 0 13 0;
#X connect 1 0 0 0;
#X connect 2 0 3 0;
#X connect 2 1 0 1;
#X connect 3 0 0 0;
#X connect 4 0 1 0;
#X connect 6 0 7 0;
#X connect 7 0 8 0;
#X connect 8 0 14 0;
#X connect 9 0 2 0;
#X connect 10 0 9 0;
#X connect 11 0 10 0;
#X connect 13 0 5 0;
#X connect 14 0 4 0;
#X connect 14 1 17 0;
#X connect 16 0 13 1;
#X connect 17 0 16 0;
