#N canvas 0 22 1066 640 12;
#X floatatom 54 88 0 0 0 0 - - -;
#X obj 18 62 notein;
#X floatatom 18 88 0 0 0 0 - - -;
#X floatatom 90 88 0 0 0 0 - - -;
#X obj 17 199 pgmin;
#X floatatom 15 310 0 0 0 0 - - -;
#X obj 15 282 bendin;
#X floatatom 15 360 5 0 0 0 - - -, f 5;
#X obj 15 335 sqrt;
#X obj 15 388 vsl 15 128 0 127 0 0 empty empty empty 0 -9 0 10 -262144
-1 -1 0 1;
#X obj 95 388 vsl 15 128 0 127 0 0 empty empty empty 0 -9 0 10 -262144
-1 -1 0 1;
#X obj 95 346 ctlin 1;
#X obj 17 230 nbx 5 30 0 128 0 0 empty empty empty 0 -8 0 20 -262144
-1 -1 0 256;
#X obj 168 62 vsl 15 128 0 127 0 0 empty empty empty 0 -9 0 10 -262144
-1 -1 0 1;
#X obj 248 62 vsl 15 128 0 127 0 0 empty empty empty 0 -9 0 10 -262144
-1 -1 0 1;
#X obj 328 62 vsl 15 128 0 127 0 0 empty empty empty 0 -9 0 10 -262144
-1 -1 0 1;
#X obj 408 62 vsl 15 128 0 127 0 0 empty empty empty 0 -9 0 10 -262144
-1 -1 0 1;
#X obj 488 62 vsl 15 128 0 127 0 0 empty empty empty 0 -9 0 10 -262144
-1 -1 0 1;
#X obj 568 62 vsl 15 128 0 127 0 0 empty empty empty 0 -9 0 10 -262144
-1 -1 0 1;
#X obj 640 62 vsl 15 128 0 127 0 0 empty empty empty 0 -9 0 10 -262144
-1 -1 0 1;
#X obj 708 62 vsl 15 128 0 127 0 0 empty empty empty 0 -9 0 10 -262144
-1 -1 0 1;
#X obj 168 20 ctlin 74;
#X obj 248 20 ctlin 71;
#X obj 328 20 ctlin 91;
#X obj 408 20 ctlin 93;
#X obj 488 20 ctlin 73;
#X obj 568 20 ctlin 72;
#X obj 640 20 ctlin 5;
#X obj 708 20 ctlin 84;
#X obj 785 62 vsl 15 128 0 127 0 0 empty empty empty 0 -9 0 10 -262144
-1 -1 0 1;
#X obj 785 20 ctlin 7;
#X obj 707 281 vsl 15 128 0 127 0 0 empty empty empty 0 -9 0 10 -262144
-1 -1 0 1;
#X obj 779 281 vsl 15 128 0 127 0 0 empty empty empty 0 -9 0 10 -262144
-1 -1 0 1;
#X obj 847 281 vsl 15 128 0 127 0 0 empty empty empty 0 -9 0 10 -262144
-1 -1 0 1;
#X obj 924 281 vsl 15 128 0 127 0 0 empty empty empty 0 -9 0 10 -262144
-1 -1 0 1;
#X obj 745 473 vsl 15 128 0 127 0 0 empty empty empty 0 -9 0 10 -262144
-1 -1 0 1;
#X obj 817 473 vsl 15 128 0 127 0 0 empty empty empty 0 -9 0 10 -262144
-1 -1 0 1;
#X obj 885 473 vsl 15 128 0 127 0 0 empty empty empty 0 -9 0 10 -262144
-1 -1 0 1;
#X obj 962 473 vsl 15 128 0 127 0 0 empty empty empty 0 -9 0 10 -262144
-1 -1 0 1;
#X obj 707 239 ctlin 10;
#X obj 779 239 ctlin 2;
#X obj 847 239 ctlin 12;
#X obj 924 239 ctlin 13;
#X obj 745 431 ctlin 75;
#X obj 817 431 ctlin 76;
#X obj 885 431 ctlin 91;
#X obj 962 431 ctlin 95;
#X obj 165 205 pgmin;
#X obj 165 229 route 1 2 3 4 5 6 7 8 9;
#X obj 165 265 tgl 30 0 empty empty empty 17 7 0 10 -262144 -1 -1 0
1;
#X obj 205 265 tgl 30 0 empty empty empty 17 7 0 10 -262144 -1 -1 0
1;
#X obj 245 265 tgl 30 0 empty empty empty 17 7 0 10 -262144 -1 -1 0
1;
#X obj 285 265 tgl 30 0 empty empty empty 17 7 0 10 -262144 -1 -1 0
1;
#X obj 325 265 tgl 30 0 empty empty empty 17 7 0 10 -262144 -1 -1 0
1;
#X obj 365 265 tgl 30 0 empty empty empty 17 7 0 10 -262144 -1 -1 0
1;
#X obj 405 265 tgl 30 0 empty empty empty 17 7 0 10 -262144 -1 -1 0
1;
#X obj 445 265 tgl 30 0 empty empty empty 17 7 0 10 -262144 -1 -1 0
1;
#X obj 485 265 tgl 30 0 empty empty empty 17 7 0 10 -262144 -1 -1 0
1;
#X obj 165 303 bng 30 250 50 0 empty empty empty 17 7 0 10 -262144
-1 -1;
#X obj 205 303 bng 30 250 50 0 empty empty empty 17 7 0 10 -262144
-1 -1;
#X obj 245 303 bng 30 250 50 0 empty empty empty 17 7 0 10 -262144
-1 -1;
#X obj 285 303 bng 30 250 50 0 empty empty empty 17 7 0 10 -262144
-1 -1;
#X obj 325 303 bng 30 250 50 0 empty empty empty 17 7 0 10 -262144
-1 -1;
#X obj 365 303 bng 30 250 50 0 empty empty empty 17 7 0 10 -262144
-1 -1;
#X obj 405 303 bng 30 250 50 0 empty empty empty 17 7 0 10 -262144
-1 -1;
#X obj 445 303 bng 30 250 50 0 empty empty empty 17 7 0 10 -262144
-1 -1;
#X obj 485 303 bng 30 250 50 0 empty empty empty 17 7 0 10 -262144
-1 -1;
#X obj 364 425 tgl 30 0 empty empty empty 17 7 0 10 -262144 -1 -1 0
1;
#X obj 444 425 tgl 30 0 empty empty empty 17 7 0 10 -262144 -1 -1 0
1;
#X obj 522 425 tgl 30 0 empty empty empty 17 7 0 10 -262144 -1 -1 0
1;
#X obj 602 425 tgl 30 0 empty empty empty 17 7 0 10 -262144 -1 -1 0
1;
#X obj 364 369 ctlin 113;
#X obj 444 369 ctlin 116;
#X obj 522 369 ctlin 117;
#X obj 602 369 ctlin 118;
#X connect 1 0 2 0;
#X connect 1 1 0 0;
#X connect 1 2 3 0;
#X connect 4 0 12 0;
#X connect 5 0 8 0;
#X connect 6 0 5 0;
#X connect 7 0 9 0;
#X connect 8 0 7 0;
#X connect 11 0 10 0;
#X connect 21 0 13 0;
#X connect 22 0 14 0;
#X connect 23 0 15 0;
#X connect 24 0 16 0;
#X connect 25 0 17 0;
#X connect 26 0 18 0;
#X connect 27 0 19 0;
#X connect 28 0 20 0;
#X connect 30 0 29 0;
#X connect 39 0 31 0;
#X connect 40 0 32 0;
#X connect 41 0 33 0;
#X connect 42 0 34 0;
#X connect 43 0 35 0;
#X connect 44 0 36 0;
#X connect 45 0 37 0;
#X connect 46 0 38 0;
#X connect 47 0 48 0;
#X connect 48 0 49 0;
#X connect 48 0 58 0;
#X connect 48 1 50 0;
#X connect 48 1 59 0;
#X connect 48 2 51 0;
#X connect 48 2 60 0;
#X connect 48 3 52 0;
#X connect 48 3 61 0;
#X connect 48 4 53 0;
#X connect 48 4 62 0;
#X connect 48 5 54 0;
#X connect 48 5 63 0;
#X connect 48 6 55 0;
#X connect 48 6 64 0;
#X connect 48 7 56 0;
#X connect 48 7 65 0;
#X connect 48 8 57 0;
#X connect 48 8 66 0;
#X connect 71 0 67 0;
#X connect 72 0 68 0;
#X connect 73 0 69 0;
#X connect 74 0 70 0;
