#N canvas 0 22 423 341 12;
#X obj 20 264 midifile, f 9;
#X obj 20 294 outlet;
#X obj 105 15 inlet;
#X obj 131 294 outlet;
#N canvas 0 22 462 521 file 0;
#X msg 37 355 read \$1;
#X obj 37 320 makefilename;
#X msg 258 187 /Users/nyu/Desktop/a.le-3.a-master/publish/midi, f
15;
#X obj 180 208 symbol;
#X obj 53 262 makefilename %s/%%s-0.midi;
#X msg 52 293 set \$1;
#X obj 209 84 loadbang;
#X obj 37 456 outlet;
#X obj 97 117 inlet;
#X text 191 38 make sure path is working first;
#X msg 64 427 verbose 0;
#X obj 64 399 loadbang;
#X msg 55 61 midi_file_name;
#X msg 198 61 /your/path/here;
#X obj 180 17 r full-path;
#X obj 37 21 r filename;
#X msg 208 112 /Users/federicocamarahalac/Documents/fd_work/a.le.a/publish/midi
, f 21;
#X obj 37 185 symbol \$1;
#X connect 0 0 7 0;
#X connect 1 0 0 0;
#X connect 2 0 3 0;
#X connect 3 0 4 0;
#X connect 4 0 5 0;
#X connect 5 0 1 0;
#X connect 6 0 16 0;
#X connect 8 0 17 0;
#X connect 10 0 7 0;
#X connect 11 0 10 0;
#X connect 12 0 17 0;
#X connect 13 0 3 0;
#X connect 14 0 3 0;
#X connect 15 0 17 0;
#X connect 16 0 3 0;
#X connect 17 0 1 0;
#X restore 105 98 pd file;
#X text 173 95 <<- make sure path is working first, f 12;
#N canvas 0 22 398 403 line 0;
#X msg 34 177 0 \, 1 \$1;
#X obj 34 208 line 0 1;
#X obj 161 232 t f f;
#X obj 177 129 /;
#X obj 34 323 bang;
#X obj 34 252 * 384;
#X obj 34 277 int;
#X obj 34 299 change;
#X obj 60 88 f;
#X obj 60 144 / 500;
#X msg 97 88 1000 \$1;
#X obj 97 117 /;
#X obj 177 99 / 1000;
#X obj 161 156 route ticks_per_quarternote microsec_per_quarternote
time_sig, f 24;
#X obj 233 268 list split 1;
#X obj 34 9 inlet;
#X obj 34 361 outlet;
#X obj 233 356 outlet;
#X obj 161 8 inlet;
#X obj 34 50 t f b f;
#X connect 0 0 1 0;
#X connect 1 0 5 0;
#X connect 2 0 5 1;
#X connect 2 1 3 1;
#X connect 3 0 12 0;
#X connect 4 0 16 0;
#X connect 5 0 6 0;
#X connect 6 0 7 0;
#X connect 7 0 4 0;
#X connect 8 0 9 0;
#X connect 9 0 1 2;
#X connect 10 0 11 0;
#X connect 11 0 9 1;
#X connect 12 0 8 0;
#X connect 13 0 2 0;
#X connect 13 1 3 0;
#X connect 13 2 14 0;
#X connect 14 0 17 0;
#X connect 15 0 19 0;
#X connect 18 0 13 0;
#X connect 19 0 0 0;
#X connect 19 1 8 0;
#X connect 19 2 10 0;
#X restore 20 120 pd line;
#X obj 105 46 route load;
#X obj 283 66 route goto;
#X obj 234 214 t a a;
#N canvas 0 22 404 291 tick 0;
#X text 185 87 Edit this if you need other time signatures. For now
it only works for n/4 time signatures., f 14;
#X obj 109 82 * 384;
#X obj 39 184 * 4;
#X obj 109 59 - 1;
#X obj 111 23 inlet;
#X obj 36 23 inlet;
#X obj 39 206 outlet;
#X connect 1 0 2 0;
#X connect 2 0 6 0;
#X connect 3 0 1 0;
#X connect 4 0 3 0;
#X connect 5 0 2 1;
#X restore 73 211 pd tick barnum;
#X obj 360 244 t a;
#X obj 20 17 inlet;
#X text 198 10 declare -stdpath mrpeach;
#X obj 76 294 outlet;
#X connect 0 0 1 0;
#X connect 0 1 14 0;
#X connect 0 2 9 0;
#X connect 2 0 7 0;
#X connect 4 0 0 0;
#X connect 6 0 0 0;
#X connect 6 1 10 0;
#X connect 7 0 4 0;
#X connect 7 1 8 0;
#X connect 8 0 10 1;
#X connect 8 1 11 0;
#X connect 9 0 6 1;
#X connect 9 1 3 0;
#X connect 10 0 0 0;
#X connect 11 0 0 0;
#X connect 12 0 6 0;
