#N canvas 0 22 396 370 10;
#X obj 82 166 == 1;
#X obj 134 165 == 1;
#X obj 184 166 == 1;
#X obj 120 197 &&;
#X obj 164 234 &&;
#X obj 176 261 sel 1;
#X msg 176 283 1 1 1;
#X obj 158 85 t a a, f 14;
#X msg 248 120 set \$1 \$2 \$3;
#X obj 158 107 unpack f f f;
#X obj 176 321 outlet;
#X obj 158 32 inlet;
#X obj 56 111 unpack f f f;
#X obj 56 31 inlet;
#X connect 0 0 3 0;
#X connect 1 0 3 1;
#X connect 2 0 4 1;
#X connect 3 0 4 0;
#X connect 4 0 5 0;
#X connect 5 0 6 0;
#X connect 6 0 10 0;
#X connect 7 0 9 0;
#X connect 7 1 8 0;
#X connect 8 0 6 0;
#X connect 9 0 0 1;
#X connect 9 1 1 1;
#X connect 9 2 2 1;
#X connect 11 0 7 0;
#X connect 12 0 0 0;
#X connect 12 1 1 0;
#X connect 12 2 2 0;
#X connect 13 0 12 0;
