#N canvas 0 22 500 263 10;
#X msg 94 112 0 1 1 1 \, 1 1 1 0 \, 2 1 0 0 \, 3 0 0 0 \, 4 0 0 1 \,
5 0 1 1 \, 6 1 0 1 \, 7 0 1 0 \,;
#X obj 128 48 loadbang;
#X obj 46 16 inlet;
#X obj 73 197 outlet;
#X obj 128 70 del 100;
#X obj 46 38 list prepend all;
#X obj 45 60 list trim;
#X obj 73 165 clone fd_matrix-comb \$1;
#X connect 0 0 7 1;
#X connect 1 0 4 0;
#X connect 2 0 5 0;
#X connect 4 0 0 0;
#X connect 5 0 6 0;
#X connect 6 0 7 0;
#X connect 7 0 3 0;
