#N canvas 0 22 885 441 10;
#X obj 28 223 pgmin;
#X obj 33 303 bendin;
#X obj 112 325 ctlin 1;
#X obj 15 20 ctlin 74;
#X obj 78 20 ctlin 71;
#X obj 141 20 ctlin 91;
#X obj 203 20 ctlin 93;
#X obj 263 20 ctlin 73;
#X obj 323 20 ctlin 72;
#X obj 385 20 ctlin 5;
#X obj 445 20 ctlin 84;
#X obj 508 20 ctlin 7;
#X obj 223 217 ctlin 10;
#X obj 295 217 ctlin 2;
#X obj 363 217 ctlin 12;
#X obj 440 217 ctlin 13;
#X obj 261 279 ctlin 75;
#X obj 333 279 ctlin 76;
#X obj 401 279 ctlin 91;
#X obj 478 279 ctlin 95;
#X obj 16 94 pgmin;
#X obj 16 122 route 1 2 3 4 5 6 7 8 9;
#X obj 301 332 ctlin 113;
#X obj 381 332 ctlin 116;
#X obj 459 332 ctlin 117;
#X obj 539 332 ctlin 118;
#X obj 15 62 s fader-0;
#X obj 78 62 s fader-1;
#X obj 141 62 s fader-2;
#X obj 203 62 s fader-3;
#X obj 263 62 s fader-4;
#X obj 323 62 s fader-5;
#X obj 385 62 s fader-6;
#X obj 445 62 s fader-7;
#X obj 508 62 s fader-8;
#X obj 223 239 s knob-0;
#X obj 295 239 s knob-1;
#X obj 363 239 s knob-2;
#X obj 440 239 s knob-3;
#X obj 261 301 s knob-4;
#X obj 333 301 s knob-5;
#X obj 401 301 s knob-6;
#X obj 478 301 s knob-7;
#X obj 301 354 s toggle-0;
#X obj 381 354 s toggle-1;
#X obj 459 354 s toggle-2;
#X obj 539 354 s toggle-3;
#X obj 16 149 s button-0;
#X obj 86 149 s button-1;
#X obj 155 149 s button-2;
#X obj 224 149 s button-3;
#X obj 113 172 s button-4;
#X obj 183 172 s button-5;
#X obj 252 172 s button-6;
#X obj 321 172 s button-7;
#X obj 390 172 s button-8;
#X obj 112 347 s mod;
#X obj 33 349 s bendin;
#X obj 33 325 sqrt;
#X obj 28 245 s button-pgmin;
#X obj 725 50 notein;
#X obj 619 106 route 50 45 51 49;
#X obj 619 128 s pad-0;
#X obj 643 152 s pad-1;
#X obj 625 226 route 36 38 42 46;
#X obj 744 257 outlet;
#X obj 802 258 outlet;
#X obj 665 175 s pad-2;
#X obj 689 199 s pad-3;
#X obj 625 248 s pad-4;
#X obj 649 272 s pad-5;
#X obj 671 295 s pad-6;
#X obj 695 319 s pad-7;
#X obj 168 327 ctlin 64;
#X obj 168 349 s ped;
#X floatatom 157 242 5 0 0 0 - - -, f 5;
#X connect 0 0 59 0;
#X connect 0 0 75 0;
#X connect 1 0 58 0;
#X connect 2 0 56 0;
#X connect 3 0 26 0;
#X connect 4 0 27 0;
#X connect 5 0 28 0;
#X connect 6 0 29 0;
#X connect 7 0 30 0;
#X connect 8 0 31 0;
#X connect 9 0 32 0;
#X connect 10 0 33 0;
#X connect 11 0 34 0;
#X connect 12 0 35 0;
#X connect 13 0 36 0;
#X connect 14 0 37 0;
#X connect 15 0 38 0;
#X connect 16 0 39 0;
#X connect 17 0 40 0;
#X connect 18 0 41 0;
#X connect 19 0 42 0;
#X connect 20 0 21 0;
#X connect 21 0 47 0;
#X connect 21 1 48 0;
#X connect 21 2 49 0;
#X connect 21 3 50 0;
#X connect 21 4 51 0;
#X connect 21 5 52 0;
#X connect 21 6 53 0;
#X connect 21 7 54 0;
#X connect 21 8 55 0;
#X connect 22 0 43 0;
#X connect 23 0 44 0;
#X connect 24 0 45 0;
#X connect 25 0 46 0;
#X connect 58 0 57 0;
#X connect 60 0 61 0;
#X connect 60 1 66 0;
#X connect 61 0 62 0;
#X connect 61 1 63 0;
#X connect 61 2 67 0;
#X connect 61 3 68 0;
#X connect 61 4 64 0;
#X connect 64 0 69 0;
#X connect 64 1 70 0;
#X connect 64 2 71 0;
#X connect 64 3 72 0;
#X connect 64 4 65 0;
#X connect 73 0 74 0;
