#N canvas 0 22 467 359 10;
#X obj 6 79 random 1001;
#X obj 6 98 / 1000;
#X obj 139 6 inlet;
#X obj 64 4 inlet;
#X obj 7 4 inlet;
#X obj 7 30 s \$1-do;
#X obj 6 58 r \$1-do;
#X text 67 118 U1;
#X obj 6 119 s \$1-U1;
#X floatatom 57 99 5 0 0 0 - - -, f 5;
#X obj 124 81 random 1001;
#X obj 124 100 / 1000;
#X obj 124 60 r \$1-do;
#X floatatom 175 101 5 0 0 0 - - -, f 5;
#X text 185 120 U2;
#X obj 124 121 s \$1-U2;
#X obj 228 63 r \$1-U1;
#X obj 228 87 log;
#X obj 228 110 * -2;
#X obj 228 133 sqrt;
#X obj 267 89 r \$1-U2;
#X obj 267 111 * 6.28319;
#X obj 267 134 cos;
#X obj 308 135 sin;
#X obj 227 156 *;
#X obj 291 153 *;
#X obj 227 189 s \$1-X;
#X obj 291 187 s \$1-Y;
#X obj 16 236 *;
#X obj 16 192 r \$1-X;
#X obj 16 277 +;
#X obj 144 236 *;
#X obj 144 277 +;
#X obj 144 192 r \$1-Y;
#X obj 16 304 outlet;
#X obj 144 304 outlet;
#X obj 32 213 r \$1-variance1;
#X obj 32 254 r \$1-mean1;
#X obj 160 213 r \$1-variance2;
#X obj 160 254 r \$1-mean2;
#X obj 317 5 inlet;
#X obj 243 3 inlet;
#X obj 64 30 s \$1-mean1;
#X obj 139 30 s \$1-variance1;
#X obj 243 29 s \$1-mean2;
#X obj 317 29 s \$1-variance2;
#X floatatom 75 53 5 0 0 0 - - -, f 5;
#X obj 70 137 r seed;
#X msg 69 159 seed \$1;
#X text 232 312 taken from Kerry Hagan's patches...;
#X connect 0 0 1 0;
#X connect 1 0 8 0;
#X connect 1 0 9 0;
#X connect 2 0 43 0;
#X connect 3 0 42 0;
#X connect 3 0 46 0;
#X connect 4 0 5 0;
#X connect 6 0 0 0;
#X connect 10 0 11 0;
#X connect 11 0 13 0;
#X connect 11 0 15 0;
#X connect 12 0 10 0;
#X connect 16 0 17 0;
#X connect 17 0 18 0;
#X connect 18 0 19 0;
#X connect 19 0 24 0;
#X connect 19 0 25 0;
#X connect 20 0 21 0;
#X connect 21 0 22 0;
#X connect 21 0 23 0;
#X connect 22 0 24 1;
#X connect 23 0 25 1;
#X connect 24 0 26 0;
#X connect 25 0 27 0;
#X connect 28 0 30 0;
#X connect 29 0 28 0;
#X connect 30 0 34 0;
#X connect 31 0 32 0;
#X connect 32 0 35 0;
#X connect 33 0 31 0;
#X connect 36 0 28 1;
#X connect 37 0 30 1;
#X connect 38 0 31 1;
#X connect 39 0 32 1;
#X connect 40 0 45 0;
#X connect 41 0 44 0;
#X connect 47 0 48 0;
#X connect 48 0 10 0;
#X connect 48 0 0 0;
