#N canvas 254 58 1093 687 10;
#X obj 17 19 inlet;
#X obj 34 141 bng 15 250 50 0 empty empty empty 20 8 0 8 -262144 -1
-1;
#X obj 67 33 r state;
#X obj 33 89 f 1;
#X text 339 62 puckette's markvov;
#X obj 148 102 sel 0 1 2;
#X obj 73 57 outlet state;
#X msg 17 41 bang;
#X msg 34 328 \; state 0;
#X msg 68 296 \; state 1;
#X msg 103 263 \; state 2;
#X msg 176 328 \; state 0;
#X msg 210 296 \; state 1;
#X msg 245 263 \; state 2;
#X msg 315 329 \; state 0;
#X msg 349 297 \; state 1;
#X msg 384 264 \; state 2;
#X obj 176 147 bng 15 250 50 0 empty empty empty 20 8 0 8 -262144 -1
-1;
#X obj 315 147 bng 15 250 50 0 empty empty empty 20 8 0 8 -262144 -1
-1;
#X msg 40 447 80;
#X obj 54 564 mtof;
#X obj 54 586 t b f;
#X obj 54 630 vline~;
#X obj 196 558 osc~;
#X obj 196 628 *~;
#X obj 196 668 dac~;
#X obj 196 580 *~ 0.3;
#X obj 460 153 metro 500;
#X obj 463 115 tgl 15 0 empty empty empty 17 7 0 10 -262144 -1 -1 0
1;
#X floatatom 210 433 5 0 0 0 - - -, f 5;
#X obj 380 451 f;
#X obj 380 473 + 1;
#X floatatom 318 480 5 0 0 0 - - -, f 5;
#X msg 348 396 bang;
#X msg 475 389 70;
#X obj 510 490 f;
#X obj 510 512 + 1;
#X floatatom 448 519 5 0 0 0 - - -, f 5;
#X msg 478 435 bang;
#X msg 605 428 60;
#X obj 627 590 f;
#X floatatom 565 619 5 0 0 0 - - -, f 5;
#X msg 595 535 bang;
#X obj 627 646 + 3;
#X msg 722 528 80;
#X obj 678 633 crand -5 5;
#X obj 626 612 t f b;
#X floatatom 523 116 5 0 0 0 - - -, f 5;
#X msg 54 608 0 \, 1 10 \, 0 100 90;
#X msg 732 270 set -5 10;
#X msg 652 269 3.4;
#X obj 34 236 fd_s-prob 30 60;
#X obj 176 236 fd_s-prob 10 60;
#X obj 315 237 fd_s-prob 70 80;
#X connect 0 0 7 0;
#X connect 1 0 19 0;
#X connect 1 0 34 0;
#X connect 1 0 39 0;
#X connect 1 0 42 0;
#X connect 1 0 51 0;
#X connect 2 0 3 1;
#X connect 2 0 6 0;
#X connect 3 0 5 0;
#X connect 5 0 1 0;
#X connect 5 1 17 0;
#X connect 5 2 18 0;
#X connect 7 0 3 0;
#X connect 17 0 33 0;
#X connect 17 0 39 0;
#X connect 17 0 44 0;
#X connect 17 0 52 0;
#X connect 18 0 34 0;
#X connect 18 0 38 0;
#X connect 18 0 44 0;
#X connect 18 0 53 0;
#X connect 19 0 20 0;
#X connect 20 0 21 0;
#X connect 21 0 48 0;
#X connect 21 1 29 0;
#X connect 22 0 24 1;
#X connect 23 0 26 0;
#X connect 24 0 25 0;
#X connect 24 0 25 1;
#X connect 26 0 24 0;
#X connect 27 0 7 0;
#X connect 28 0 27 0;
#X connect 29 0 23 0;
#X connect 30 0 31 0;
#X connect 30 0 32 0;
#X connect 31 0 30 1;
#X connect 32 0 20 0;
#X connect 33 0 30 0;
#X connect 34 0 30 1;
#X connect 35 0 36 0;
#X connect 35 0 37 0;
#X connect 36 0 35 1;
#X connect 37 0 20 0;
#X connect 38 0 35 0;
#X connect 39 0 35 1;
#X connect 40 0 41 0;
#X connect 40 0 46 0;
#X connect 41 0 20 0;
#X connect 42 0 40 0;
#X connect 43 0 40 1;
#X connect 44 0 40 1;
#X connect 45 0 43 1;
#X connect 46 0 43 0;
#X connect 46 1 45 0;
#X connect 47 0 27 1;
#X connect 48 0 22 0;
#X connect 49 0 45 0;
#X connect 50 0 31 1;
#X connect 50 0 36 1;
#X connect 51 0 8 0;
#X connect 51 1 9 0;
#X connect 51 2 10 0;
#X connect 52 0 11 0;
#X connect 52 1 12 0;
#X connect 52 2 13 0;
#X connect 53 0 14 0;
#X connect 53 1 15 0;
#X connect 53 2 16 0;
