#N canvas 0 22 999 270 10;
#X obj 56 20 inlet;
#X obj 56 42 int;
#X obj 325 185 symbol \$1;
#X obj 325 207 outlet;
#X obj 56 68 sel 1 2 3 4 5 6 7 8 9 10 11 12 13 14 15 16 17 18 19 20
, f 103;
#X msg 52 119 /c'/;
#X msg 82 119 /k'/;
#X msg 122 119 /g'/;
#X msg 162 119 /q'/;
#X msg 202 119 /ts/;
#X msg 242 119 /t'/;
#X msg 462 119;
#X msg 492 119;
#X msg 532 119;
#X msg 562 119;
#X msg 592 119;
#X msg 622 119;
#X msg 652 119;
#X msg 692 119;
#X msg 722 119;
#X msg 282 119 /||/;
#X msg 362 119 /r/;
#X msg 322 119 /|/;
#X msg 432 119;
#X msg 402 119 /r'/;
#X connect 0 0 1 0;
#X connect 1 0 4 0;
#X connect 2 0 3 0;
#X connect 4 0 5 0;
#X connect 4 1 6 0;
#X connect 4 2 7 0;
#X connect 4 3 8 0;
#X connect 4 4 9 0;
#X connect 4 5 10 0;
#X connect 4 6 20 0;
#X connect 4 7 22 0;
#X connect 4 8 21 0;
#X connect 4 9 24 0;
#X connect 4 10 23 0;
#X connect 4 11 11 0;
#X connect 4 12 12 0;
#X connect 4 13 13 0;
#X connect 4 14 14 0;
#X connect 4 15 15 0;
#X connect 4 16 16 0;
#X connect 4 17 17 0;
#X connect 4 18 18 0;
#X connect 4 19 19 0;
#X connect 5 0 2 0;
#X connect 6 0 2 0;
#X connect 7 0 2 0;
#X connect 8 0 2 0;
#X connect 9 0 2 0;
#X connect 10 0 2 0;
#X connect 11 0 2 0;
#X connect 12 0 2 0;
#X connect 13 0 2 0;
#X connect 14 0 2 0;
#X connect 15 0 2 0;
#X connect 16 0 2 0;
#X connect 17 0 2 0;
#X connect 18 0 2 0;
#X connect 19 0 2 0;
#X connect 20 0 2 0;
#X connect 21 0 2 0;
#X connect 22 0 2 0;
#X connect 23 0 2 0;
#X connect 24 0 2 0;
