#N canvas 0 22 325 181 10;
#X obj 10 10 cnv 15 300 30 empty \$0-fd_netsend MAIN_VIDEO_PATCH 10
15 1 14 -1 -24198 0;
#X obj 205 15 cnv 14 100 20 empty empty empty 0 7 1 8 -162280 -1 0
;
#X obj 209 18 nbx 4 14 0 9999 0 0 \$0-port \$0-port-set empty 0 -8
0 8 -225271 -1 -1 3001 256;
#X obj 250 18 bng 14 250 50 0 \$0-connect \$0-connect-set 1 5 8 0 8
-225271 -1 -1;
#X obj 269 18 cnv 14 33 14 \$0-cnv \$0-cnv-set conctd 2 7 1 9 -225271
-1 0;
#N canvas 0 22 342 370 netreceive 0;
#X msg 46 180 listen 0;
#X obj 126 286 s from-audio-pd;
#X obj 39 231 netreceive;
#N canvas 0 22 208 157 to-audio-pd 0;
#X obj 31 46 list prepend send;
#X obj 31 68 list trim;
#X obj 31 90 outlet;
#X obj 31 24 r to-audio-pd;
#X connect 0 0 1 0;
#X connect 1 0 2 0;
#X connect 3 0 0 0;
#X restore 60 205 pd to-audio-pd;
#X obj 112 53 r \$0-port;
#X obj 31 90 f;
#X obj 112 73 sel 0;
#X msg 112 97 3001;
#X obj 178 58 loadbang;
#X obj 178 80 t b b;
#X obj 31 66 r \$0-listen;
#X msg 39 135 listen \$1;
#X obj 46 158 r \$0-listen-0;
#X obj 39 253 route connected;
#N canvas 403 350 696 269 status 0;
#X obj 321 47 sel 0 1;
#X obj 162 236 s \$0-cnv-set;
#X obj 320 16 inlet;
#X obj 252 236 s \$0-connect-set;
#X obj 369 240 s \$0-port-set;
#X msg 390 124 label conctd;
#X msg 56 122 label dscnctd;
#X msg 470 127 color 6 22 22;
#X obj 459 240 s \$0-fd_netsend;
#X msg 560 127 color 22 22 16;
#X msg 236 126 color 22 22 0;
#X msg 146 125 color 3 22 22;
#X obj 400 43 s video-loadbang;
#X connect 0 0 6 0;
#X connect 0 0 11 0;
#X connect 0 0 10 0;
#X connect 0 1 5 0;
#X connect 0 1 7 0;
#X connect 0 1 9 0;
#X connect 0 1 12 0;
#X connect 2 0 0 0;
#X connect 5 0 1 0;
#X connect 6 0 1 0;
#X connect 7 0 3 0;
#X connect 7 0 4 0;
#X connect 7 0 1 0;
#X connect 9 0 8 0;
#X connect 10 0 8 0;
#X connect 11 0 3 0;
#X connect 11 0 4 0;
#X connect 11 0 1 0;
#X restore 39 285 pd status;
#X msg 162 143 0;
#X obj 171 203 s \$0-port-set;
#X text 207 116 auto listen after 100msec, f 13;
#X obj 205 99 del 200;
#X obj 139 321 sel 1;
#X obj 139 343 symbol gemwin;
#X obj 139 365 fd_visera 1;
#X connect 0 0 2 0;
#X connect 2 0 13 0;
#X connect 3 0 2 0;
#X connect 4 0 6 0;
#X connect 5 0 11 0;
#X connect 6 0 7 0;
#X connect 6 1 5 1;
#X connect 7 0 5 1;
#X connect 7 0 16 0;
#X connect 8 0 9 0;
#X connect 9 0 7 0;
#X connect 9 1 15 0;
#X connect 9 1 18 0;
#X connect 10 0 5 0;
#X connect 11 0 2 0;
#X connect 12 0 0 0;
#X connect 13 0 14 0;
#X connect 13 0 19 0;
#X connect 13 1 1 0;
#X connect 15 0 14 0;
#X connect 18 0 5 0;
#X connect 19 0 20 0;
#X connect 20 0 21 0;
#X restore 11 64 pd netreceive ___________________________________
;
#N canvas 0 22 450 300 report 0;
#X obj 38 23 r report;
#X obj 142 13 loadbang;
#X obj 142 35 t b b b b;
#X obj 197 88 until;
#X obj 176 178 print;
#X msg 197 110 .;
#X obj 219 13 bng 15 250 50 0 empty empty empty 17 7 0 10 -262144 -1
-1;
#X msg 197 66 3;
#X obj 38 219 print MAIN_VIDEO_PD;
#X msg 176 136 **** MAIN_VIDEO_PD ***;
#X obj 38 45 list trim;
#X msg 48 69 colors will change to GREEN when connected to the audio
pd, f 15;
#X connect 0 0 10 0;
#X connect 1 0 2 0;
#X connect 2 0 11 0;
#X connect 2 1 7 0;
#X connect 2 2 9 0;
#X connect 2 3 7 0;
#X connect 3 0 5 0;
#X connect 5 0 4 0;
#X connect 6 0 2 0;
#X connect 7 0 3 0;
#X connect 9 0 4 0;
#X connect 10 0 8 0;
#X connect 11 0 8 0;
#X restore 11 44 pd report _______________________________________
;
#X text 9 85 change port number if there is no connection;
#X obj 165 17 bng 15 250 50 0 empty empty gem 17 7 0 10 -204786 -1
-262144;
#X obj 181 117 symbol gemwin;
#X obj 181 139 fd_visera 1;
#X connect 8 0 9 0;
#X connect 9 0 10 0;
#X coords 0 -1 1 1 300 30 2 10 10;
