#N canvas 0 22 450 300 10;
#X obj 45 236 *~;
#X msg 112 124 0 \, 1 \$1;
#X obj 112 146 line~;
#X obj 112 168 *~ 64;
#X obj 112 190 +~ 1;
#X obj 112 212 tabread4~ expo;
#X obj 112 36 inlet;
#X obj 112 80 f \$1;
#X obj 112 234 bp~ 1000 10;
#X obj 45 258 outlet~;
#X obj 45 214 osc~ \$1;
#X obj 269 29 inlet;
#X obj 345 117 inlet;
#X obj 345 139 unpack;
#X connect 0 0 9 0;
#X connect 1 0 2 0;
#X connect 2 0 3 0;
#X connect 3 0 4 0;
#X connect 4 0 5 0;
#X connect 5 0 8 0;
#X connect 6 0 7 0;
#X connect 7 0 1 0;
#X connect 8 0 0 1;
#X connect 10 0 0 0;
#X connect 11 0 7 1;
#X connect 11 0 10 0;
#X connect 12 0 13 0;
#X connect 13 0 8 1;
#X connect 13 1 8 2;
