#N canvas 0 22 189 282 10;
#X obj 17 46 minimax, f 9;
#X obj 17 156 /;
#X obj 42 91 abs;
#X obj 17 23 inlet;
#X obj 88 232 outlet;
#X obj 16 245 outlet;
#X obj 17 178 t f f;
#X obj 20 201 + 1;
#X obj 21 221 * 0.5;
#X obj 53 123 +;
#X connect 0 0 1 0;
#X connect 0 1 2 0;
#X connect 0 2 9 1;
#X connect 1 0 6 0;
#X connect 2 0 9 0;
#X connect 3 0 0 0;
#X connect 6 0 7 0;
#X connect 6 1 4 0;
#X connect 7 0 8 0;
#X connect 8 0 5 0;
#X connect 9 0 1 1;
