#N canvas 416 93 450 300 10;
#X obj 64 90 pack f 66;
#X obj 64 132 line 0 1;
#X obj 150 53 r oxy-line;
#X obj 64 154 s \$1-set;
#X obj 64 52 ctlin \$2;
#X connect 0 0 1 0;
#X connect 1 0 3 0;
#X connect 2 0 0 1;
#X connect 4 0 0 0;
