#N canvas 0 22 789 690 12;
#X msg 356 558 clear;
#X obj 339 317 + 1;
#X obj 126 154 t a b;
#X obj 126 347 list prepend;
#X obj 242 327 + 10;
#X msg 319 154 0;
#X obj 298 317 f;
#X obj 126 389 list prepend;
#X obj 242 174 f;
#X obj 274 174 + 1;
#X obj 126 508 list trim;
#X obj 126 424 list prepend obj;
#X obj 298 369 + 10;
#X obj 242 302 * 25;
#X obj 242 239 mod 20;
#X obj 242 269 t f f;
#X obj 298 343 * 400;
#X obj 319 85 inlet;
#X obj 126 90 inlet;
#X obj 319 110 t b b;
#X obj 298 289 sel;
#X obj 126 578 s pd-\$1, f 12;
#X text 527 152 \$1 = canvas name;
#X text 464 123 ARGUMENTS;
#X text 466 152 must:;
#X text 265 422 <-- change this to 'text' \, or other type;
#X text 356 343 <-- fine-tune positioning;
#X text 469 245 \$2 = to prepend;
#X text 469 269 \$3 = to append;
#X text 467 223 optional (!=0):;
#X text 56 21 Creates objects in a canvas;
#X text 470 78 2: clears and resets;
#X text 469 49 1: object name;
#X text 468 19 INLETS;
#N canvas 0 22 450 300 warning 0;
#X obj 35 32 loadbang;
#X obj 35 57 pack \$0;
#X obj 35 82 sel;
#X obj 35 133 print fd_objcreator;
#X msg 35 107 WARNING: must have argument 1;
#X connect 0 0 1 0;
#X connect 1 0 2 0;
#X connect 2 0 4 0;
#X connect 4 0 3 0;
#X restore 467 178 pd warning;
#X obj 126 292 list prepend \$2, f 10;
#X obj 126 462 list append \$3, f 10;
#X text 145 625 used in a.le.a;
#X connect 0 0 21 0;
#X connect 1 0 6 1;
#X connect 2 0 35 0;
#X connect 2 1 8 0;
#X connect 3 0 7 0;
#X connect 4 0 3 1;
#X connect 5 0 6 1;
#X connect 5 0 8 1;
#X connect 6 0 1 0;
#X connect 6 0 16 0;
#X connect 7 0 11 0;
#X connect 8 0 9 0;
#X connect 8 0 14 0;
#X connect 9 0 8 1;
#X connect 10 0 21 0;
#X connect 11 0 36 0;
#X connect 12 0 7 1;
#X connect 13 0 4 0;
#X connect 14 0 15 0;
#X connect 15 0 13 0;
#X connect 15 1 20 0;
#X connect 16 0 12 0;
#X connect 17 0 19 0;
#X connect 18 0 2 0;
#X connect 19 0 5 0;
#X connect 19 1 0 0;
#X connect 20 0 6 0;
#X connect 35 0 3 0;
#X connect 36 0 10 0;
