#N canvas 469 67 629 226 10;
#X obj 18 52 vsl 15 128 0 127 0 0 fader-0 fader-0-set empty 0 -9 0
10 -262144 -1 -1 0 1;
#X obj 38 52 vsl 15 128 0 127 0 0 fader-1 fader-1-set empty 0 -9 0
10 -262144 -1 -1 0 1;
#X obj 58 52 vsl 15 128 0 127 0 0 fader-2 fader-2-set empty 0 -9 0
10 -262144 -1 -1 0 1;
#X obj 78 52 vsl 15 128 0 127 0 0 fader-3 fader-3-set empty 0 -9 0
10 -262144 -1 -1 0 1;
#X obj 98 52 vsl 15 128 0 127 0 0 fader-4 fader-4-set empty 0 -9 0
10 -262144 -1 -1 0 1;
#X obj 118 52 vsl 15 128 0 127 0 0 fader-5 fader-5-set empty 0 -9 0
10 -262144 -1 -1 0 1;
#X obj 138 52 vsl 15 128 0 127 0 0 fader-6 fader-6-set empty 0 -9 0
10 -262144 -1 -1 0 1;
#X obj 158 52 vsl 15 128 0 127 0 0 fader-7 fader-7-set empty 0 -9 0
10 -262144 -1 -1 0 1;
#X obj 178 52 vsl 15 128 0 127 0 0 fader-8 fader-8-set empty 0 -9 0
10 -262144 -1 -1 0 1;
#X obj 209 50 hsl 40 10 0 127 0 0 knob-0 knob-0-set empty -2 -8 0 10
-262144 -1 -1 0 1;
#X obj 229 70 hsl 40 10 0 127 0 0 knob-4 knob-4-set empty -2 -8 0 10
-262144 -1 -1 0 1;
#X obj 259 50 hsl 40 10 0 127 0 0 knob-1 knob-1-set empty -2 -8 0 10
-262144 -1 -1 0 1;
#X obj 279 70 hsl 40 10 0 127 0 0 knob-5 knob-5-set empty -2 -8 0 10
-262144 -1 -1 0 1;
#X obj 309 50 hsl 40 10 0 127 0 0 knob-2 knob-2-set empty -2 -8 0 10
-262144 -1 -1 0 1;
#X obj 329 70 hsl 40 10 0 127 0 0 knob-6 knob-6-set empty -2 -8 0 10
-262144 -1 -1 0 1;
#X obj 359 50 hsl 40 10 0 127 0 0 knob-3 knob-3-set empty -2 -8 0 10
-262144 -1 -1 0 1;
#X obj 379 70 hsl 40 10 0 127 0 0 knob-7 knob-7-set empty -2 -8 0 10
-262144 -1 -1 0 1;
#X obj 18 188 tgl 15 0 toggle-0 toggle-0-set empty 17 7 0 10 -262144
-1 -1 0 1;
#X obj 263 184 tgl 20 0 toggle-9 toggle-9-set empty 17 7 0 10 -262144
-1 -1 0 1;
#X obj 294 184 tgl 20 0 toggle-10 toggle-10-set empty 17 7 0 10 -262144
-1 -1 0 1;
#X obj 324 184 tgl 20 0 toggle-11 toggle-11-set empty 17 7 0 10 -262144
-1 -1 0 1;
#X obj 357 184 tgl 20 0 toggle-12 toggle-12-set empty 17 7 0 10 -262144
-1 -1 0 1;
#X obj 210 127 nbx 3 50 0 127 0 0 note-display note-display-set empty
0 -8 0 50 -262144 -1 -1 0 256;
#X obj 376 128 vsl 15 44 0 127 0 0 vel-display vel-display-set empty
0 -9 0 10 -262144 -1 -1 0 1;
#X obj 38 188 tgl 15 0 toggle-1 toggle-1-set empty 17 7 0 10 -262144
-1 -1 0 1;
#X obj 58 188 tgl 15 0 toggle-2 toggle-2-set empty 17 7 0 10 -262144
-1 -1 0 1;
#X obj 78 188 tgl 15 0 toggle-3 toggle-3-set empty 17 7 0 10 -262144
-1 -1 0 1;
#X obj 98 188 tgl 15 0 toggle-4 toggle-4-set empty 17 7 0 10 -262144
-1 -1 0 1;
#X obj 118 188 tgl 15 0 toggle-5 toggle-5-set empty 17 7 0 10 -262144
-1 -1 0 1;
#X obj 138 188 tgl 15 0 toggle-6 toggle-6-set empty 17 7 0 10 -262144
-1 -1 0 1;
#X obj 158 188 tgl 15 0 toggle-7 toggle-7-set empty 17 7 0 10 -262144
-1 -1 0 1;
#X obj 179 188 tgl 15 0 toggle-8 toggle-8-set empty 17 7 0 10 -262144
-1 -1 0 1;
#N canvas 0 22 255 269 oxy-toggles 0;
#X obj 30 149 pgmin;
#X obj 30 171 - 1;
#X obj 89 26 ctlin 113;
#X obj 99 46 ctlin 116;
#X obj 109 66 ctlin 117;
#X obj 130 88 ctlin 118;
#X obj 81 130 t b;
#X obj 111 130 t b;
#X obj 141 130 t b;
#X obj 171 130 t b;
#X msg 81 152 9;
#X msg 111 152 10;
#X msg 141 152 11;
#X msg 171 152 12;
#X obj 31 195 clone fd_oxy-toggle 13;
#X connect 0 0 1 0;
#X connect 1 0 14 0;
#X connect 2 0 6 0;
#X connect 3 0 7 0;
#X connect 4 0 8 0;
#X connect 5 0 9 0;
#X connect 6 0 10 0;
#X connect 7 0 11 0;
#X connect 8 0 12 0;
#X connect 9 0 13 0;
#X connect 10 0 14 0;
#X connect 11 0 14 0;
#X connect 12 0 14 0;
#X connect 13 0 14 0;
#X restore 446 11 pd oxy-toggles;
#N canvas 0 22 139 219 faders 0;
#X obj 14 13 fd_oxy fader-0 20;
#X obj 14 33 fd_oxy fader-1 21;
#X obj 14 53 fd_oxy fader-2 71;
#X obj 14 73 fd_oxy fader-3 72;
#X obj 14 93 fd_oxy fader-4 25;
#X obj 14 114 fd_oxy fader-5 73;
#X obj 13 133 fd_oxy fader-6 74;
#X obj 14 153 fd_oxy fader-7 70;
#X obj 14 173 fd_oxy fader-8 63;
#X restore 446 31 pd faders;
#N canvas 0 22 158 218 knobs 0;
#X obj 27 17 fd_oxy knob-0 22;
#X obj 27 37 fd_oxy knob-1 23;
#X obj 27 57 fd_oxy knob-2 61;
#X obj 27 77 fd_oxy knob-3 24;
#X obj 27 97 fd_oxy knob-4 26;
#X obj 27 117 fd_oxy knob-5 27;
#X obj 27 137 fd_oxy knob-6 62;
#X obj 27 157 fd_oxy knob-7 95;
#X restore 447 52 pd knobs;
#N canvas 0 22 203 235 notein 0;
#X obj 19 13 notein;
#X obj 19 122 t f f;
#X obj 46 143 pack, f 14;
#X obj 19 188 s note-dsplay-set;
#X obj 35 34 t f f, f 21;
#X msg 35 57 \$1 10;
#X obj 35 79 line;
#X obj 35 101 s vel-dsplay-set;
#X obj 46 167 s oxy-notein;
#X connect 0 0 1 0;
#X connect 0 1 4 0;
#X connect 1 0 3 0;
#X connect 1 1 2 0;
#X connect 2 0 8 0;
#X connect 4 0 5 0;
#X connect 4 1 2 1;
#X connect 5 0 6 0;
#X connect 6 0 7 0;
#X restore 447 73 pd notein;
#X text 200 188 toggles;
#X text 367 110 velocity;
#X text 15 30 faders_______________________;
#X text 205 31 knobs_______________________________;
#X text 208 90 notein______________________________;
#X text 208 109 pitch (midi);
#X coords 0 -1 1 1 430 200 1 10 10;
