#N canvas 0 22 450 300 10;
#X obj 53 22 inlet;
#X obj 53 232 outlet;
#X obj 346 21 inlet;
#X obj 172 150 f;
#X obj 206 151 + 1;
#X obj 172 172 sel 0;
#X msg 346 43 0;
#X obj 325 246 outlet;
#X obj 246 202 bang;
#X connect 0 0 3 0;
#X connect 2 0 6 0;
#X connect 3 0 4 0;
#X connect 3 0 5 0;
#X connect 4 0 3 1;
#X connect 5 0 1 0;
#X connect 5 1 8 0;
#X connect 6 0 3 1;
#X connect 8 0 7 0;
