#N canvas 30 36 350 416 10;
#X obj 21 223 *~ 0.125;
#X obj 21 254 rzero~ -1;
#X obj 21 277 rzero~ -1;
#X obj 21 300 rzero~ -1;
#X obj 21 66 phasor~;
#X obj 204 29 block~ 1024 1 16;
#X obj 21 31 inlet;
#X obj 21 372 outlet~;
#X obj 20 120 rpole~ 0.87467;
#X obj 20 97 *~ 0.12532;
#X obj 20 143 *~ 0.01668;
#X obj 20 166 cpole~ 0.9293 0.10812;
#X obj 20 192 cpole~ 0.9293 -0.10812;
#X obj 162 282 inlet~;
#X obj 21 325 -~;
#X obj 21 347 cos~;
#X obj 93 42 r coefs;
#X obj 135 105 pack f f;
#X msg 135 127 set \$1 \$2;
#X obj 176 151 pack f f;
#X msg 176 173 set \$1 \$2;
#X msg 221 114 set \$2 \$3 \$1;
#X obj 93 68 unpack f f f f f f f f f;
#X obj 221 92 pack f f f;
#X connect 0 0 1 0;
#X connect 1 0 2 0;
#X connect 2 0 3 0;
#X connect 3 0 14 0;
#X connect 4 0 9 0;
#X connect 6 0 4 0;
#X connect 8 0 10 0;
#X connect 9 0 8 0;
#X connect 10 0 11 0;
#X connect 11 0 12 0;
#X connect 11 1 12 1;
#X connect 12 0 0 0;
#X connect 13 0 14 1;
#X connect 14 0 15 0;
#X connect 15 0 7 0;
#X connect 16 0 22 0;
#X connect 17 0 18 0;
#X connect 18 0 11 0;
#X connect 19 0 20 0;
#X connect 20 0 12 0;
#X connect 21 0 5 0;
#X connect 22 0 9 1;
#X connect 22 1 10 1;
#X connect 22 2 8 1;
#X connect 22 3 17 0;
#X connect 22 3 19 0;
#X connect 22 4 17 1;
#X connect 22 5 19 1;
#X connect 22 6 23 0;
#X connect 22 7 23 1;
#X connect 22 8 23 2;
#X connect 23 0 21 0;
