#N canvas 0 22 293 378 10;
#X obj 59 199 sel 0;
#X obj 105 200 sel;
#X obj 101 288 outlet;
#X obj 154 174 - 1;
#X msg 158 251 1;
#X msg 64 250 0;
#X msg 109 250 2;
#X text 65 317 0: list start;
#X text 65 331 1: list continue;
#X text 191 181 n-1 element;
#X text 65 346 2: list stop \, end reached;
#X obj 80 34 inlet;
#X text 122 34 get a limit;
#X text 62 133 make it a list;
#X obj 54 111 fd_iterate;
#X obj 213 286 outlet;
#X obj 80 56 t f f f;
#X text 215 308 limit out;
#X connect 0 0 5 0;
#X connect 0 1 1 0;
#X connect 1 0 6 0;
#X connect 1 1 4 0;
#X connect 3 0 1 1;
#X connect 4 0 2 0;
#X connect 5 0 2 0;
#X connect 6 0 2 0;
#X connect 11 0 16 0;
#X connect 14 0 0 0;
#X connect 16 0 14 0;
#X connect 16 1 3 0;
#X connect 16 2 15 0;
