#N canvas 824 353 269 74 10;
#N canvas 831 386 428 369 template 1;
#N canvas 531 132 352 291 get-lorenz 0;
#X msg 24 115 traverse pd-data;
#X obj 24 166 pointer;
#X msg 39 141 next;
#X obj 24 189 get lorenz q color x y z;
#X obj 190 124 metro 100;
#X obj 24 233 pack f f f f f;
#X obj 24 255 s get-lorenz;
#X obj 84 11 r scan-lorenz;
#X obj 84 57 t b b;
#X msg 151 107 1;
#X obj 84 33 sel 1;
#X msg 190 70 0;
#X obj 241 90 r scan-l-speed;
#X obj 187 208 s scan-l-set;
#X msg 187 183 0;
#X obj 231 13 loadbang;
#X obj 264 34 r smpltime;
#X msg 230 63 tempo \$1 sample;
#X msg 231 35 32;
#X connect 0 0 1 0;
#X connect 1 0 3 0;
#X connect 1 1 14 0;
#X connect 2 0 1 0;
#X connect 3 0 5 0;
#X connect 3 1 5 1;
#X connect 3 2 5 2;
#X connect 3 3 5 3;
#X connect 3 4 5 4;
#X connect 4 0 2 0;
#X connect 5 0 6 0;
#X connect 7 0 10 0;
#X connect 8 0 9 0;
#X connect 8 1 0 0;
#X connect 9 0 4 0;
#X connect 10 0 8 0;
#X connect 10 1 11 0;
#X connect 11 0 4 0;
#X connect 12 0 4 1;
#X connect 14 0 13 0;
#X connect 15 0 18 0;
#X connect 16 0 17 0;
#X connect 17 0 4 0;
#X connect 18 0 17 0;
#X restore 19 314 pd get-lorenz;
#X obj 18 229 r drawnum;
#X obj 18 253 drawnumber q -10 10 0;
#X obj 18 173 filledpolygon color color 1 0 0 0 z z z z 0 0 0;
#N canvas 256 165 802 511 rgb 0;
#X obj 492 281 r count;
#X obj 37 103 spigot;
#X obj 95 85 r allow-rgb;
#X obj 173 350 pack f f f;
#X msg 180 426 742;
#X obj 91 126 r red-rate;
#X obj 193 110 spigot;
#X obj 251 92 r allow-rgb;
#X obj 342 108 spigot;
#X obj 400 90 r allow-rgb;
#X obj 423 129 r blue-rate;
#X obj 87 220 r reset-count;
#X obj 39 203 sel 0;
#X obj 37 45 t b b b;
#X obj 37 166 f;
#X obj 68 167 + 1;
#X obj 101 166 % 2;
#X floatatom 47 185 5 0 0 0 - - -, f 5;
#X obj 39 225 t b;
#X obj 39 247 f;
#X obj 71 248 + 1;
#X obj 106 245 % 9;
#X obj 250 132 r green-rate;
#X obj 237 220 r reset-count;
#X obj 189 203 sel 0;
#X obj 187 166 f;
#X obj 218 167 + 1;
#X floatatom 197 185 5 0 0 0 - - -, f 5;
#X obj 189 225 t b;
#X obj 189 247 f;
#X obj 221 248 + 1;
#X obj 256 245 % 9;
#X obj 407 220 r reset-count;
#X obj 359 203 sel 0;
#X obj 357 166 f;
#X obj 388 167 + 1;
#X floatatom 367 185 5 0 0 0 - - -, f 5;
#X obj 359 225 t b;
#X obj 359 247 f;
#X obj 391 248 + 1;
#X obj 426 245 % 9;
#X obj 251 166 % 3;
#X obj 421 166 % 5;
#X msg 197 404 set \$1\$2\$3;
#X obj 173 376 t b a;
#X obj 330 323 nbx 5 14 -1e+37 1e+37 0 0 empty empty empty 0 -8 0 10
-262144 -1 -1 0 256;
#X obj 209 320 nbx 5 14 -1e+37 1e+37 0 0 empty empty empty 0 -8 0 10
-262144 -1 -1 0 256;
#X obj 125 323 nbx 5 14 -1e+37 1e+37 0 0 empty empty empty 0 -8 0 10
-262144 -1 -1 0 256;
#X obj 716 464 outlet;
#X obj 717 431 int;
#X obj 492 303 % 13;
#X obj 492 325 sel 0;
#X obj 492 347 f;
#X obj 492 369 + 1;
#X obj 492 391 % 1000;
#X obj 531 324 r reset-setupt;
#X msg 531 346 0;
#X obj 718 121 r count;
#X obj 655 179 r z-prob;
#X obj 655 240 / 50;
#X obj 655 262 * 1000;
#X msg 718 187 1;
#X msg 751 190 0;
#X obj 718 165 sel 0 1;
#X obj 655 204 spigot;
#X text 492 421 color from 0 to 999;
#X obj 718 143 % 40;
#X text 677 291 z-prob rgb < 1000;
#X text 134 458 THIS IS NOT A FLOAT;
#X connect 0 0 50 0;
#X connect 1 0 14 0;
#X connect 2 0 1 1;
#X connect 3 0 44 0;
#X connect 5 0 16 1;
#X connect 6 0 25 0;
#X connect 7 0 6 1;
#X connect 8 0 34 0;
#X connect 9 0 8 1;
#X connect 10 0 42 1;
#X connect 11 0 19 1;
#X connect 12 0 18 0;
#X connect 13 0 1 0;
#X connect 13 1 6 0;
#X connect 13 2 8 0;
#X connect 14 0 15 0;
#X connect 14 0 12 0;
#X connect 14 0 17 0;
#X connect 15 0 16 0;
#X connect 16 0 14 1;
#X connect 18 0 19 0;
#X connect 19 0 20 0;
#X connect 19 0 47 0;
#X connect 20 0 21 0;
#X connect 21 0 19 1;
#X connect 22 0 41 1;
#X connect 23 0 29 1;
#X connect 24 0 28 0;
#X connect 25 0 26 0;
#X connect 25 0 24 0;
#X connect 25 0 27 0;
#X connect 26 0 41 0;
#X connect 28 0 29 0;
#X connect 29 0 30 0;
#X connect 29 0 46 0;
#X connect 30 0 31 0;
#X connect 31 0 29 1;
#X connect 32 0 38 1;
#X connect 33 0 37 0;
#X connect 34 0 35 0;
#X connect 34 0 33 0;
#X connect 34 0 36 0;
#X connect 35 0 42 0;
#X connect 37 0 38 0;
#X connect 38 0 39 0;
#X connect 38 0 45 0;
#X connect 39 0 40 0;
#X connect 40 0 38 1;
#X connect 41 0 25 1;
#X connect 42 0 34 1;
#X connect 43 0 4 0;
#X connect 44 0 4 0;
#X connect 44 1 43 0;
#X connect 45 0 3 2;
#X connect 46 0 3 1;
#X connect 47 0 3 0;
#X connect 49 0 48 0;
#X connect 50 0 51 0;
#X connect 51 0 52 0;
#X connect 52 0 53 0;
#X connect 53 0 54 0;
#X connect 54 0 52 1;
#X connect 55 0 56 0;
#X connect 56 0 52 1;
#X connect 56 0 52 0;
#X connect 57 0 66 0;
#X connect 58 0 64 0;
#X connect 59 0 60 0;
#X connect 60 0 49 0;
#X connect 61 0 64 1;
#X connect 62 0 64 1;
#X connect 63 0 61 0;
#X connect 63 1 61 0;
#X connect 63 2 62 0;
#X connect 64 0 59 0;
#X connect 66 0 63 0;
#X restore 184 206 pd rgb;
#X obj 18 13 struct \$1-\$2 float color float x float y float z float
q, f 47;
#X obj 310 13 fd_appendit \$1;
#X connect 1 0 2 0;
#X restore 20 38 pd template;
#X text 88 15 << open;
#N canvas 12 26 792 740 data-\$1 1;
#X coords 0 3700 5 3695 0 0 0;
#X restore 20 15 pd data-\$1;
#N canvas 0 22 450 300 loadbang 0;
#X obj 29 16 loadbang;
#X obj 29 65 symbol \$1;
#X obj 29 42 delay 1;
#X msg 29 93 \; pd-data-\$1 vis 1;
#X connect 0 0 2 0;
#X connect 1 0 3 0;
#X connect 2 0 1 0;
#X restore 146 13 pd loadbang;
