#N canvas 558 111 302 153 10;
#X obj 50 52 vsl 15 70 0 127 0 0 \$0-do-0 \$0-do-0-set empty 0 -9 0
10 -262144 -1 -66577 0 1;
#X obj 65 52 vsl 15 70 0 127 0 0 \$0-re-0 \$0-re-0-set empty 0 -9 0
10 -262144 -1 -66577 0 1;
#X obj 80 52 vsl 15 70 0 127 0 0 \$0-mi-0 \$0-mi-0-set empty 0 -9 0
10 -262144 -1 -66577 0 1;
#X obj 95 52 vsl 15 70 0 127 0 0 \$0-fa-0 \$0-fa-0-set empty 0 -9 0
10 -262144 -1 -66577 0 1;
#X obj 110 52 vsl 15 70 0 127 0 0 \$0-sol-0 \$0-sol-0-set empty 0 -9
0 10 -262144 -66577 -66577 0 1;
#X obj 125 52 vsl 15 70 0 127 0 0 \$0-la-0 \$0-la-0-set empty 0 -9
0 10 -262144 -1 -66577 0 1;
#X obj 140 52 vsl 15 70 0 127 0 0 \$0-si-0 \$0-si-0-set empty 0 -9
0 10 -262144 -1 -66577 0 1;
#X obj 155 52 vsl 15 70 0 127 0 0 \$0-do-1 \$0-do-1-set empty 0 -9
0 10 -262144 -1 -66577 0 1;
#X obj 170 52 vsl 15 70 0 127 0 0 \$0-re-1 \$0-re-1-set empty 0 -9
0 10 -262144 -1 -66577 0 1;
#X obj 185 52 vsl 15 70 0 127 0 0 \$0-mi-1 \$0-mi-1-set empty 0 -9
0 10 -262144 -1 -66577 0 1;
#X obj 200 52 vsl 15 70 0 127 0 0 \$0-fa-1 \$0-fa-1-set empty 0 -9
0 10 -262144 -1 -1 0 1;
#X obj 215 52 vsl 15 70 0 127 0 0 \$0-sol-1 \$0-sol-1-set empty 0 -9
0 10 -262144 -1 -66577 0 1;
#X obj 230 52 vsl 15 70 0 127 0 0 \$0-la-1 \$0-la-1-set empty 0 -9
0 10 -262144 -66577 -66577 0 1;
#X obj 245 52 vsl 15 70 0 127 0 0 \$0-si-1 \$0-si-1-set empty 0 -9
0 10 -262144 -66577 -66577 0 1;
#X obj 59 53 vsl 11 38 0 127 0 0 \$0-dos-0 \$0-dos-0-set empty 0 -9
0 10 -1 -262144 -66577 0 1;
#X obj 75 53 vsl 11 38 0 127 0 0 \$0-res-0 \$0-res-0-set empty 0 -9
0 10 -1 -262144 -66577 0 1;
#X obj 104 53 vsl 11 38 0 127 0 0 \$0-fas-0 \$0-fas-0-set empty 0 -9
0 10 -1 -262144 -66577 0 1;
#X obj 119 53 vsl 11 38 0 127 0 0 \$0-sols-0 \$0-sols-0-set empty 0
-9 0 10 -1 -262144 -66577 0 1;
#X obj 134 53 vsl 11 38 0 127 0 0 \$0-las-0 \$0-las-0-set empty 0 -9
0 10 -1 -262144 -66577 0 1;
#X obj 164 53 vsl 11 38 0 127 0 0 \$0-dos-1 \$0-dos-1-set empty 0 -9
0 10 -1 -262144 -66577 0 1;
#X obj 180 53 vsl 11 38 0 127 0 0 \$0-res-1 \$0-res-1-set empty 0 -9
0 10 -1 -262144 -66577 0 1;
#X obj 209 53 vsl 11 38 0 127 0 0 \$0-fas-1 \$0-fas-1-set empty 0 -9
0 10 -1 -262144 -66577 0 1;
#X obj 224 53 vsl 11 38 0 127 0 0 \$0-sols-1 \$0-sols-1-set empty 0
-9 0 10 -1 -262144 -66577 0 1;
#X obj 239 53 vsl 11 38 0 127 0 0 \$0-las-1 \$0-las-1-set empty 0 -9
0 10 -1 -262144 -66577 0 1;
#N canvas 20 122 669 555 notes 0;
#X obj 28 132 s \$0-do-0-set;
#X obj 28 60 tgl 15 0 empty empty empty 17 7 0 10 -262144 -1 -1 0 1
;
#X obj 28 80 * 16;
#X obj 118 60 tgl 15 0 empty empty empty 17 7 0 10 -262144 -1 -1 0
1;
#X obj 208 60 tgl 15 0 empty empty empty 17 7 0 10 -262144 -1 -1 0
1;
#X obj 208 80 * 16;
#X obj 388 60 tgl 15 0 empty empty empty 17 7 0 10 -262144 -1 -1 0
1;
#X obj 388 80 * 16;
#X obj 118 180 tgl 15 0 empty empty empty 17 7 0 10 -262144 -1 -1 0
1;
#X obj 118 200 * 16;
#X obj 298 180 tgl 15 0 empty empty empty 17 7 0 10 -262144 -1 -1 0
1;
#X obj 298 200 * 16;
#X obj 478 180 tgl 15 0 empty empty empty 17 7 0 10 -262144 -1 -1 0
1;
#X obj 478 200 * 16;
#X obj 28 38 route 0 1 2 3 4 5, f 90;
#X obj 28 156 route 6 7 8 9 10 11, f 90;
#X obj 118 132 s \$0-dos-0-set;
#X obj 208 132 s \$0-re-0-set;
#X obj 298 132 s \$0-res-0-set;
#X obj 388 132 s \$0-mi-0-set;
#X obj 478 132 s \$0-fa-0-set;
#X obj 28 252 s \$0-fas-0-set;
#X obj 118 252 s \$0-sol-0-set;
#X obj 208 252 s \$0-sols-0-set;
#X obj 298 252 s \$0-la-0-set;
#X obj 388 252 s \$0-las-0-set;
#X obj 478 252 s \$0-si-0-set;
#X obj 27 307 tgl 15 0 empty empty empty 17 7 0 10 -262144 -1 -1 0
1;
#X obj 27 327 * 16;
#X obj 207 307 tgl 15 0 empty empty empty 17 7 0 10 -262144 -1 -1 0
1;
#X obj 207 327 * 16;
#X obj 387 307 tgl 15 0 empty empty empty 17 7 0 10 -262144 -1 -1 0
1;
#X obj 387 327 * 16;
#X obj 117 427 tgl 15 0 empty empty empty 17 7 0 10 -262144 -1 -1 0
1;
#X obj 117 447 * 16;
#X obj 297 427 tgl 15 0 empty empty empty 17 7 0 10 -262144 -1 -1 0
1;
#X obj 297 447 * 16;
#X obj 477 427 tgl 15 0 empty empty empty 17 7 0 10 -262144 -1 -1 0
1;
#X obj 477 447 * 16;
#X obj 27 285 route 0 1 2 3 4 5, f 90;
#X obj 27 403 route 6 7 8 9 10 11, f 90;
#X obj 590 193 mod 12;
#X obj 27 379 s \$0-do-1-set;
#X obj 117 379 s \$0-dos-1-set;
#X obj 207 379 s \$0-re-1-set;
#X obj 297 379 s \$0-res-1-set;
#X obj 387 379 s \$0-mi-1-set;
#X obj 477 379 s \$0-fa-1-set;
#X obj 27 499 s \$0-fas-1-set;
#X obj 117 499 s \$0-sol-1-set;
#X obj 207 499 s \$0-sols-1-set;
#X obj 297 499 s \$0-la-1-set;
#X obj 387 499 s \$0-las-1-set;
#X obj 477 499 s \$0-si-1-set;
#X obj 135 59 sel 0 1;
#X msg 119 81 22;
#X msg 149 81 16;
#X obj 298 60 tgl 15 0 empty empty empty 17 7 0 10 -262144 -1 -1 0
1;
#X obj 315 59 sel 0 1;
#X msg 299 81 22;
#X msg 329 81 16;
#X obj 28 180 tgl 15 0 empty empty empty 17 7 0 10 -262144 -1 -1 0
1;
#X obj 45 179 sel 0 1;
#X msg 29 201 22;
#X msg 59 201 16;
#X obj 208 182 tgl 15 0 empty empty empty 17 7 0 10 -262144 -1 -1 0
1;
#X obj 225 181 sel 0 1;
#X msg 209 203 22;
#X msg 239 203 16;
#X obj 388 180 tgl 15 0 empty empty empty 17 7 0 10 -262144 -1 -1 0
1;
#X obj 405 179 sel 0 1;
#X msg 389 201 22;
#X msg 419 201 16;
#X obj 118 310 tgl 15 0 empty empty empty 17 7 0 10 -262144 -1 -1 0
1;
#X obj 135 309 sel 0 1;
#X msg 119 331 22;
#X msg 149 331 16;
#X obj 298 310 tgl 15 0 empty empty empty 17 7 0 10 -262144 -1 -1 0
1;
#X obj 315 309 sel 0 1;
#X msg 299 331 22;
#X msg 329 331 16;
#X obj 28 430 tgl 15 0 empty empty empty 17 7 0 10 -262144 -1 -1 0
1;
#X obj 45 429 sel 0 1;
#X msg 29 451 22;
#X msg 59 451 16;
#X obj 208 432 tgl 15 0 empty empty empty 17 7 0 10 -262144 -1 -1 0
1;
#X obj 225 431 sel 0 1;
#X msg 209 453 22;
#X msg 239 453 16;
#X obj 388 430 tgl 15 0 empty empty empty 17 7 0 10 -262144 -1 -1 0
1;
#X obj 405 429 sel 0 1;
#X msg 389 451 22;
#X msg 419 451 16;
#X obj 478 60 tgl 15 0 empty empty empty 17 7 0 10 -262144 -1 -1 0
1;
#X obj 478 80 * 16;
#X obj 478 310 tgl 15 0 empty empty empty 17 7 0 10 -262144 -1 -1 0
1;
#X obj 478 330 * 16;
#X obj 568 429 mod 12;
#X obj 27 16 r fd_pno;
#X msg 28 103 color \$1 22 2;
#X msg 208 103 color \$1 22 2;
#X msg 388 103 color \$1 22 2;
#X msg 478 103 color \$1 22 2;
#X msg 118 223 color \$1 22 2;
#X msg 298 223 color \$1 22 2;
#X msg 478 223 color \$1 22 2;
#X msg 27 350 color \$1 22 2;
#X msg 207 350 color \$1 22 2;
#X msg 387 350 color \$1 22 2;
#X msg 478 353 color \$1 22 2;
#X msg 117 470 color \$1 22 2;
#X msg 297 470 color \$1 22 2;
#X msg 477 470 color \$1 22 2;
#X msg 118 103 color \$1 0 2;
#X msg 298 103 color \$1 0 2;
#X msg 28 223 color \$1 0 2;
#X msg 208 225 color \$1 0 2;
#X msg 388 223 color \$1 0 2;
#X msg 118 353 color \$1 0 2;
#X msg 298 353 color \$1 0 2;
#X msg 28 473 color \$1 0 2;
#X msg 208 475 color \$1 0 2;
#X msg 388 473 color \$1 0 2;
#X connect 1 0 2 0;
#X connect 2 0 99 0;
#X connect 3 0 54 0;
#X connect 4 0 5 0;
#X connect 5 0 100 0;
#X connect 6 0 7 0;
#X connect 7 0 101 0;
#X connect 8 0 9 0;
#X connect 9 0 103 0;
#X connect 10 0 11 0;
#X connect 11 0 104 0;
#X connect 12 0 13 0;
#X connect 13 0 105 0;
#X connect 14 0 1 0;
#X connect 14 1 3 0;
#X connect 14 2 4 0;
#X connect 14 3 57 0;
#X connect 14 4 6 0;
#X connect 14 5 93 0;
#X connect 14 6 15 0;
#X connect 15 0 61 0;
#X connect 15 1 8 0;
#X connect 15 2 65 0;
#X connect 15 3 10 0;
#X connect 15 4 69 0;
#X connect 15 5 12 0;
#X connect 15 6 41 0;
#X connect 27 0 28 0;
#X connect 28 0 106 0;
#X connect 29 0 30 0;
#X connect 30 0 107 0;
#X connect 31 0 32 0;
#X connect 32 0 108 0;
#X connect 33 0 34 0;
#X connect 34 0 110 0;
#X connect 35 0 36 0;
#X connect 36 0 111 0;
#X connect 37 0 38 0;
#X connect 38 0 112 0;
#X connect 39 0 27 0;
#X connect 39 1 73 0;
#X connect 39 2 29 0;
#X connect 39 3 77 0;
#X connect 39 4 31 0;
#X connect 39 5 95 0;
#X connect 39 6 40 0;
#X connect 40 0 81 0;
#X connect 40 1 33 0;
#X connect 40 2 85 0;
#X connect 40 3 35 0;
#X connect 40 4 89 0;
#X connect 40 5 37 0;
#X connect 40 6 97 0;
#X connect 41 0 39 0;
#X connect 54 0 55 0;
#X connect 54 1 56 0;
#X connect 55 0 113 0;
#X connect 56 0 113 0;
#X connect 57 0 58 0;
#X connect 58 0 59 0;
#X connect 58 1 60 0;
#X connect 59 0 114 0;
#X connect 60 0 114 0;
#X connect 61 0 62 0;
#X connect 62 0 63 0;
#X connect 62 1 64 0;
#X connect 63 0 115 0;
#X connect 64 0 115 0;
#X connect 65 0 66 0;
#X connect 66 0 67 0;
#X connect 66 1 68 0;
#X connect 67 0 116 0;
#X connect 68 0 116 0;
#X connect 69 0 70 0;
#X connect 70 0 71 0;
#X connect 70 1 72 0;
#X connect 71 0 117 0;
#X connect 72 0 117 0;
#X connect 73 0 74 0;
#X connect 74 0 75 0;
#X connect 74 1 76 0;
#X connect 75 0 118 0;
#X connect 76 0 118 0;
#X connect 77 0 78 0;
#X connect 78 0 79 0;
#X connect 78 1 80 0;
#X connect 79 0 119 0;
#X connect 80 0 119 0;
#X connect 81 0 82 0;
#X connect 82 0 83 0;
#X connect 82 1 84 0;
#X connect 83 0 120 0;
#X connect 84 0 120 0;
#X connect 85 0 86 0;
#X connect 86 0 87 0;
#X connect 86 1 88 0;
#X connect 87 0 121 0;
#X connect 88 0 121 0;
#X connect 89 0 90 0;
#X connect 90 0 91 0;
#X connect 90 1 92 0;
#X connect 91 0 122 0;
#X connect 92 0 122 0;
#X connect 93 0 94 0;
#X connect 94 0 102 0;
#X connect 95 0 96 0;
#X connect 96 0 109 0;
#X connect 97 0 14 0;
#X connect 98 0 14 0;
#X connect 99 0 0 0;
#X connect 100 0 17 0;
#X connect 101 0 19 0;
#X connect 102 0 20 0;
#X connect 103 0 22 0;
#X connect 104 0 24 0;
#X connect 105 0 26 0;
#X connect 106 0 42 0;
#X connect 107 0 44 0;
#X connect 108 0 46 0;
#X connect 109 0 47 0;
#X connect 110 0 49 0;
#X connect 111 0 51 0;
#X connect 112 0 53 0;
#X connect 113 0 16 0;
#X connect 114 0 18 0;
#X connect 115 0 21 0;
#X connect 116 0 23 0;
#X connect 117 0 25 0;
#X connect 118 0 43 0;
#X connect 119 0 45 0;
#X connect 120 0 48 0;
#X connect 121 0 50 0;
#X connect 122 0 52 0;
#X restore 50 28 pd notes;
#X coords 0 -1 1 1 210 75 2 50 50;
