#N canvas 535 86 342 527 10;
#X obj 63 242 pow;
#X obj 205 226 * -1;
#X obj 63 396 *;
#X obj 63 354 /;
#X obj 63 265 t f b;
#X obj 199 153 r \$0-lambda;
#X obj 48 200 f;
#X obj 63 137 t b b;
#X obj 62 423 outlet;
#X text 149 99 xenakis formalized music;
#X text 147 119 page 29 Pendragon;
#X text 133 45 Pk = lambda^k / K! * e^-lambda;
#N canvas 0 22 336 284 initial 0;
#X restore 81 24 pd initial;
#X obj 36 24 inlet;
#X obj 36 53 route lambda;
#X obj 35 475 s \$0-lambda;
#X obj 80 321 f;
#X obj 63 88 t b f f;
#X obj 188 255 f;
#X obj 188 277 exp;
#X obj 212 483 s \$0-lambda;
#X obj 246 356 loadbang;
#X msg 205 436 0.6;
#X obj 245 390 f \$1;
#X obj 245 412 sel 0;
#X obj 259 297 inlet;
#X obj 136 238 fd_n!;
#X connect 0 0 4 0;
#X connect 1 0 18 1;
#X connect 2 0 8 0;
#X connect 3 0 2 0;
#X connect 4 0 3 0;
#X connect 4 1 16 0;
#X connect 5 0 6 1;
#X connect 5 0 1 0;
#X connect 6 0 0 0;
#X connect 7 0 6 0;
#X connect 7 1 18 0;
#X connect 13 0 14 0;
#X connect 14 0 15 0;
#X connect 14 1 17 0;
#X connect 16 0 3 1;
#X connect 17 0 7 0;
#X connect 17 1 0 1;
#X connect 17 2 26 0;
#X connect 18 0 19 0;
#X connect 19 0 2 1;
#X connect 21 0 23 0;
#X connect 22 0 20 0;
#X connect 23 0 24 0;
#X connect 24 0 22 0;
#X connect 24 1 20 0;
#X connect 25 0 24 0;
#X connect 26 0 16 1;
