#N canvas 652 145 450 300 10;
#X floatatom 209 13 5 0 0 0 - - -, f 5;
#X msg 20 59 lambda \$1;
#X obj 20 114 sel 0;
#X obj 40 144 print;
#X obj 63 230 bng 15 250 50 0 empty empty empty 17 7 0 10 -262144 -1
-1;
#X obj 113 84 until;
#X msg 130 22 bang;
#X obj 113 106 f;
#X obj 113 128 + 1;
#X obj 130 44 t b b;
#X msg 164 69 0;
#X obj 124 161 t f f;
#X obj 137 203 tabwrite poiss;
#X obj 243 144 array define poiss 10;
#X obj 226 75 max 10;
#X msg 226 97 resize \$1;
#X obj 209 32 t b f f;
#X obj 244 55 * 10;
#X obj 20 79 fd_poisson 0.1;
#X connect 0 0 16 0;
#X connect 1 0 18 0;
#X connect 2 0 4 0;
#X connect 2 1 3 0;
#X connect 2 1 12 0;
#X connect 4 0 5 1;
#X connect 5 0 7 0;
#X connect 6 0 9 0;
#X connect 7 0 8 0;
#X connect 7 0 11 0;
#X connect 8 0 7 1;
#X connect 9 0 5 0;
#X connect 9 1 10 0;
#X connect 10 0 7 1;
#X connect 11 0 18 0;
#X connect 11 1 12 1;
#X connect 14 0 15 0;
#X connect 15 0 13 0;
#X connect 16 0 6 0;
#X connect 16 1 1 0;
#X connect 16 2 17 0;
#X connect 17 0 14 0;
#X connect 18 0 2 0;
