#N canvas 0 22 450 300 10;
#X obj 111 359 *~;
#X obj 299 309 line~;
#X obj 377 41 moses 46;
#X obj 421 63 moses 79;
#X obj 7 145 phasor~;
#X obj 7 167 *~ 61;
#X obj 7 189 +~ 1;
#X obj 7 211 tabread4~ triang;
#X obj 115 70 mtof~;
#X obj 153 416 line~;
#X obj 153 437 mtof~;
#X obj 136 556 vcf~ 100;
#X obj 109 320 *~ 0.1;
#X obj 139 593 *~ 10;
#X obj 110 291 +~;
#X obj 126 152 *~ 61;
#X obj 126 174 +~ 1;
#X obj 126 196 tabread4~ triang;
#X obj 126 130 phasor~ 100;
#X obj 142 230 *~ 100;
#X obj 126 258 *~;
#X obj 153 484 *~;
#X obj 125 94 /~ 5;
#X floatatom 182 530 5 0 0 0 - - -, f 5;
#X obj 395 243 del 100;
#X floatatom 168 98 5 0 0 0 - - -, f 5;
#X obj 260 462 *~ 5000;
#X obj 153 462 *~ 10;
#X obj 113 44 sig~;
#X floatatom 219 225 5 0 0 0 - - -, f 5;
#X floatatom 384 420 5 0 0 0 - - -, f 5;
#X obj 363 283 pack 0 100;
#X obj 153 394 pack f 10;
#X obj 376 92 t f b b b;
#X obj 519 111 t b;
#X msg 519 133 0;
#X obj 534 23 tgl 15 0 empty empty empty 17 7 0 10 -262144 -1 -1 0
1;
#X obj 534 43 switch~;
#X msg 437 113 1;
#X obj 470 298 del 400;
#X obj 275 10 r phatty-note;
#X obj 275 32 unpack;
#X obj 301 155 f;
#X obj 299 78 / 127;
#X obj 336 166 r attack;
#X obj 425 181 r decay;
#X obj 295 205 pack f 100;
#X obj 128 641 outlet~;
#X connect 0 0 11 0;
#X connect 1 0 0 1;
#X connect 1 0 19 0;
#X connect 1 0 26 0;
#X connect 2 0 34 0;
#X connect 2 1 3 0;
#X connect 3 0 33 0;
#X connect 3 1 34 0;
#X connect 4 0 5 0;
#X connect 5 0 6 0;
#X connect 6 0 7 0;
#X connect 7 0 14 0;
#X connect 8 0 4 0;
#X connect 8 0 22 0;
#X connect 9 0 10 0;
#X connect 10 0 27 0;
#X connect 11 0 13 0;
#X connect 12 0 0 0;
#X connect 13 0 47 0;
#X connect 14 0 12 0;
#X connect 15 0 16 0;
#X connect 16 0 17 0;
#X connect 17 0 20 0;
#X connect 18 0 15 0;
#X connect 19 0 20 1;
#X connect 20 0 14 1;
#X connect 21 0 11 1;
#X connect 22 0 18 0;
#X connect 23 0 11 2;
#X connect 24 0 31 0;
#X connect 24 0 39 0;
#X connect 25 0 22 1;
#X connect 26 0 21 1;
#X connect 27 0 21 0;
#X connect 28 0 8 0;
#X connect 29 0 19 1;
#X connect 30 0 26 1;
#X connect 31 0 1 0;
#X connect 32 0 9 0;
#X connect 33 0 28 0;
#X connect 33 0 32 0;
#X connect 33 1 42 1;
#X connect 33 2 24 0;
#X connect 33 3 38 0;
#X connect 34 0 35 0;
#X connect 35 0 36 0;
#X connect 36 0 37 0;
#X connect 38 0 36 0;
#X connect 39 0 35 0;
#X connect 40 0 41 0;
#X connect 41 0 2 0;
#X connect 41 1 43 0;
#X connect 42 0 46 0;
#X connect 43 0 42 0;
#X connect 44 0 24 1;
#X connect 44 0 46 1;
#X connect 45 0 31 1;
#X connect 46 0 1 0;
