#N struct plotter float x float y float z float u float v float w;
#N canvas 364 375 500 377 10;
#X obj 222 29 inlet;
#N canvas 0 23 450 300 template 0;
#X obj 202 169 pointer;
#X obj 112 78 t a b b;
#X obj 36 121 unpack f f f f f f;
#X obj 183 42 inlet;
#X obj 24 176 min 0.97;
#X obj 75 198 max -0.97;
#X obj 75 220 min 0.97;
#X obj 10 203 max 0.01;
#X msg 298 166 clear;
#X msg 198 143 traverse pd-graph \, bang;
#X obj 298 188 s pd-graph;
#X obj 29 275 append plotter x y z u v w;
#X obj 186 69 route clear;
#X connect 0 0 11 6;
#X connect 1 0 2 0;
#X connect 1 1 9 0;
#X connect 1 2 8 0;
#X connect 2 0 4 0;
#X connect 2 1 5 0;
#X connect 2 2 11 2;
#X connect 2 3 11 3;
#X connect 2 4 11 4;
#X connect 2 5 11 5;
#X connect 3 0 12 0;
#X connect 4 0 7 0;
#X connect 5 0 6 0;
#X connect 6 0 11 1;
#X connect 7 0 11 0;
#X connect 8 0 10 0;
#X connect 9 0 0 0;
#X connect 12 0 8 0;
#X connect 12 1 1 0;
#X restore 222 50 pd template;
#X obj 317 16 inlet;
#X obj 7 195 filledpolygon 1 1 2 0 0 0 0.03 0.03 0.03 0.03 0;
#N canvas 0 23 481 316 graph 0;
#X scalar plotter 0.0762788 -0.677216 0 0 0 0 \;;
#X coords 0 -1 1 1 200 150 2 0 0;
#X restore -1 0 pd graph;
#X msg 317 105 \; pd-plott.pd vis 1;
#X obj 6 158 struct plotter float x float y float z float u float v
float w;
#X connect 0 0 1 0;
#X connect 2 0 5 0;
#X coords 0 -1 1 1 200 150 2 0 0;
