#N canvas 1189 421 307 439 10;
#X obj 54 209 samplerate~;
#X obj 54 231 /;
#X obj 91 182 f \$1;
#X msg 80 230 0;
#X obj 27 33 r pd-dsp-started;
#X msg 88 106 resize \$1;
#X obj 33 105 t b f f;
#X obj 19 153 t b b b b;
#X obj 19 412 switch~ \$1;
#X obj 33 82 change;
#X obj 54 253 phasor~;
#X obj 39 366 /~;
#X obj 54 342 exp~;
#X obj 54 320 *~ 10;
#X obj 143 251 max 6;
#X obj 39 182 sig~ 1;
#X obj 143 208 sel 0;
#X msg 143 230 10;
#X obj 88 127 array define rexpo \$1;
#X obj 30 391 tabwrite~ rexpo;
#X obj 54 275 -~ 1;
#X obj 54 297 abs~;
#X obj 162 58 r rexpo-q;
#X obj 162 80 t b f;
#X obj 143 186 f \$2;
#X obj 33 60 r rexpo-size;
#X obj 13 7 r fd_windows;
#X connect 0 0 1 0;
#X connect 1 0 10 0;
#X connect 2 0 1 1;
#X connect 3 0 10 1;
#X connect 4 0 7 0;
#X connect 5 0 18 0;
#X connect 6 0 7 0;
#X connect 6 1 2 1;
#X connect 6 2 5 0;
#X connect 7 0 8 0;
#X connect 7 0 19 0;
#X connect 7 1 0 0;
#X connect 7 2 3 0;
#X connect 7 3 2 0;
#X connect 7 3 24 0;
#X connect 9 0 6 0;
#X connect 10 0 20 0;
#X connect 11 0 19 0;
#X connect 12 0 11 1;
#X connect 13 0 12 0;
#X connect 14 0 13 1;
#X connect 15 0 11 0;
#X connect 16 0 17 0;
#X connect 16 1 14 0;
#X connect 17 0 14 0;
#X connect 20 0 21 0;
#X connect 21 0 13 0;
#X connect 22 0 23 0;
#X connect 23 0 7 0;
#X connect 23 1 24 1;
#X connect 24 0 16 0;
#X connect 25 0 9 0;
#X connect 26 0 7 0;
