#N canvas 171 77 540 400 10;
#X obj 23 274 list split;
#X obj 51 307 list split 1;
#X obj 23 185 t a b a;
#X obj 91 188 list length;
#X obj 23 16 inlet;
#X obj 442 14 inlet;
#X text 243 329 *can be any size if sent via 2nd inlet;
#X obj 290 238 random;
#X obj 313 216 array size;
#X obj 305 170 t b b a;
#X obj 261 289 array get \$0-array 0 1;
#X obj 23 65 route float symbol;
#X obj 23 142 list append \$1 \$2 \$3 \$4 \$5 \$6;
#X obj 23 87 b;
#X obj 75 85 b;
#X obj 311 139 symbol \$1;
#X obj 442 36 route symbol;
#X obj 23 43 list append \$1;
#X text 134 10 choose randomly from given arguments (up to 6)* or an
array (if you give it an arrayname as first argument), f 40;
#X text 420 88 2nd inlet updates list or array, f 15;
#X obj 291 263 t f f;
#X obj 437 364 outlet index;
#X obj 133 356 outlet value;
#X obj 74 242 t f f;
#X obj 74 220 random;
#X connect 0 1 1 0;
#X connect 1 0 22 0;
#X connect 2 0 0 0;
#X connect 2 1 24 0;
#X connect 2 2 3 0;
#X connect 3 0 24 1;
#X connect 4 0 17 0;
#X connect 5 0 16 0;
#X connect 7 0 20 0;
#X connect 8 0 7 1;
#X connect 9 0 7 0;
#X connect 9 1 8 0;
#X connect 9 2 8 1;
#X connect 9 2 10 2;
#X connect 10 0 22 0;
#X connect 11 0 13 0;
#X connect 11 1 14 0;
#X connect 12 0 2 0;
#X connect 13 0 12 0;
#X connect 14 0 15 0;
#X connect 15 0 9 0;
#X connect 16 0 15 1;
#X connect 16 1 12 1;
#X connect 17 0 11 0;
#X connect 20 0 10 0;
#X connect 20 1 21 0;
#X connect 23 0 0 1;
#X connect 23 1 21 0;
#X connect 24 0 23 0;
