#N canvas 366 22 450 300 10;
#X msg 220 169 bang;
#X msg 26 33 bang;
#X floatatom 244 256 5 0 0 0 - - -, f 5;
#X msg 248 75 cosinesum 128 20 2;
#X msg 258 55 sinesum 64 2 2 3 1 2 3 1;
#X obj 257 33 loadbang;
#X obj 282 143 array define \$0-array 120;
#X obj 244 234 fd_r \$0-array;
#X floatatom 26 242 5 0 0 0 - - -, f 5;
#X obj 26 212 fd_r 2 3 72 2 100 6;
#X floatatom 317 256 5 0 0 0 - - -, f 5;
#X floatatom 121 248 5 0 0 0 - - -, f 5;
#X text 30 15 a list (6 args) or;
#X msg 68 89 10 22 31 231 2 23 12 22;
#X text 68 72 N-args...;
#X text 191 145 ...or an array;
#X msg 311 181 symbol other-array;
#X connect 0 0 7 0;
#X connect 1 0 9 0;
#X connect 3 0 6 0;
#X connect 4 0 6 0;
#X connect 5 0 4 0;
#X connect 7 0 2 0;
#X connect 7 1 10 0;
#X connect 9 0 8 0;
#X connect 9 1 11 0;
#X connect 13 0 9 1;
#X connect 16 0 7 1;
