#N canvas 634 89 579 438 10;
#X obj 32 98 t f f;
#X obj 215 239 pack f \$0;
#X msg 215 261 \; \$2-rspline resize \$1;
#X obj 214 184 array define \$0-rspline;
#X obj 32 152 until;
#X obj 32 174 f;
#X obj 65 176 + 1;
#X obj 96 177 mod;
#X obj 59 121 s \$0-size;
#X obj 215 215 r \$0-size;
#X obj 111 151 r \$0-size;
#X obj 32 196 t b f;
#X obj 32 218 random 1000;
#X obj 32 240 / 1000;
#X obj 32 262 tabwrite \$0-rspline;
#X obj 223 67 block~ 2048;
#X obj 31 23 inlet;
#X obj 224 20 r \$0-size;
#X msg 224 42 set \$1;
#X obj 31 361 tabreceive~ \$0-rspline;
#X obj 31 383 outlet~;
#X obj 31 45 max 1;
#X obj 31 67 min 16385;
#X obj 443 44 r \$0-size;
#X obj 443 66 / 44.1;
#X obj 396 104 f;
#X obj 403 23 inlet;
#X msg 396 126 0 \, 1 \$1;
#X obj 396 148 line~;
#X obj 396 170 *~;
#X obj 396 192 +~ 1;
#X obj 479 128 - 3;
#X obj 396 214 tabread4~ \$0-rspline;
#X obj 396 236 outlet~;
#X connect 0 0 4 0;
#X connect 0 1 8 0;
#X connect 1 0 2 0;
#X connect 4 0 5 0;
#X connect 5 0 6 0;
#X connect 5 0 11 0;
#X connect 6 0 7 0;
#X connect 7 0 5 1;
#X connect 9 0 1 0;
#X connect 10 0 7 1;
#X connect 11 0 12 0;
#X connect 11 1 14 1;
#X connect 12 0 13 0;
#X connect 13 0 14 0;
#X connect 16 0 21 0;
#X connect 17 0 18 0;
#X connect 18 0 15 0;
#X connect 19 0 20 0;
#X connect 21 0 22 0;
#X connect 22 0 0 0;
#X connect 23 0 24 0;
#X connect 23 0 31 0;
#X connect 24 0 25 1;
#X connect 25 0 27 0;
#X connect 26 0 25 0;
#X connect 27 0 28 0;
#X connect 28 0 29 0;
#X connect 29 0 30 0;
#X connect 30 0 32 0;
#X connect 31 0 29 1;
#X connect 32 0 33 0;
