#N canvas 533 159 348 134 10;
#X obj 55 22 inlet;
#X obj 55 45 t b f;
#X obj 55 69 f;
#X obj 87 90 outlet;
#X obj 119 20 inlet;
#X msg 119 42 0;
#X obj 87 68 - 0;
#X text 170 23 restar incoming values;
#X text 179 53 inlet 2 resets resta;
#X connect 0 0 1 0;
#X connect 1 0 2 0;
#X connect 1 1 6 0;
#X connect 2 0 6 1;
#X connect 4 0 5 0;
#X connect 5 0 2 1;
#X connect 5 0 6 1;
#X connect 5 0 6 0;
#X connect 6 0 2 1;
#X connect 6 0 3 0;
