#N canvas 333 100 229 301 10;
#X obj 44 85 wrap;
#X obj 17 195 +;
#X obj 95 141 bang;
#X obj 44 141 bang;
#X obj 17 163 int;
#X obj 17 63 t f f;
#X obj 17 255 outlet;
#X obj 17 15 inlet;
#X text 95 15 rounding function;
#X obj 44 109 moses \$1;
#X obj 44 185 * -1;
#X obj 44 163 int \$1;
#X obj 95 163 int \$1;
#X obj 17 37 * \$2;
#X obj 17 217 / \$2;
#X connect 0 0 9 0;
#X connect 1 0 14 0;
#X connect 2 0 12 0;
#X connect 3 0 11 0;
#X connect 4 0 1 0;
#X connect 5 0 4 0;
#X connect 5 1 0 0;
#X connect 7 0 13 0;
#X connect 9 0 3 0;
#X connect 9 1 2 0;
#X connect 10 0 1 1;
#X connect 11 0 10 0;
#X connect 12 0 1 1;
#X connect 13 0 5 0;
#X connect 14 0 6 0;
