#N canvas 533 265 245 223 10;
#X obj 27 26 r \$1-\$2-step-up;
#X obj 126 27 r \$1-\$2-step-dn;
#X obj 27 99 f \$3;
#X obj 126 99 f \$3;
#X obj 126 121 * -1;
#X obj 27 177 s \$1-\$2-s;
#X connect 0 0 2 0;
#X connect 1 0 3 0;
#X connect 2 0 5 0;
#X connect 3 0 4 0;
#X connect 4 0 5 0;
