#N canvas 279 116 365 402 12;
#X obj 31 97 sel 0 1;
#X msg 239 220 1;
#X obj 202 184 t b b;
#X obj 102 254 del 10;
#X obj 68 320 line~;
#X obj 102 223 t b b;
#X msg 163 243 0;
#X obj 102 279 pack 1 100;
#X obj 31 131 t b b;
#X obj 68 180 pack 0 100;
#X obj 31 154 del 110;
#X msg 31 176 0;
#X obj 31 17 inlet;
#X obj 239 269 outlet switch;
#X obj 68 362 outlet~;
#X obj 31 73 change;
#X text 157 19 see fd_switch-help.pd;
#N canvas 529 109 367 292 args 0;
#X obj 21 19 loadbang;
#X obj 21 41 pack \$1 \$2 \$3;
#X obj 64 157 unpack;
#X obj 64 179 > 0;
#X obj 21 203 spigot;
#X msg 21 225 set \$1 \$2 \$3;
#X obj 21 250 outlet;
#X obj 145 16 inlet;
#X text 223 137 check args;
#X obj 21 134 t a a;
#X obj 145 41 route set;
#X obj 214 168 !msg fd_switch, f 9;
#X connect 0 0 1 0;
#X connect 1 0 9 0;
#X connect 2 0 3 0;
#X connect 3 0 4 1;
#X connect 4 0 5 0;
#X connect 5 0 6 0;
#X connect 7 0 10 0;
#X connect 9 0 4 0;
#X connect 9 1 2 0;
#X connect 10 0 9 0;
#X connect 10 1 11 0;
#X restore 287 184 pd args;
#X obj 31 42 route float bang;
#X connect 0 0 8 0;
#X connect 0 1 2 0;
#X connect 1 0 13 0;
#X connect 2 0 5 0;
#X connect 2 1 1 0;
#X connect 3 0 7 0;
#X connect 4 0 14 0;
#X connect 5 0 3 0;
#X connect 5 1 6 0;
#X connect 6 0 4 0;
#X connect 7 0 4 0;
#X connect 8 0 10 0;
#X connect 8 1 9 0;
#X connect 9 0 4 0;
#X connect 10 0 11 0;
#X connect 11 0 13 0;
#X connect 12 0 18 0;
#X connect 15 0 0 0;
#X connect 17 0 13 0;
#X connect 18 0 15 0;
#X connect 18 2 17 0;
