#N canvas 825 28 327 454 10;
#X obj 32 145 -;
#X obj 72 106 f;
#X obj 32 338 >= 0;
#X obj 93 203 f;
#X obj 27 73 t f f b;
#X obj 32 10 inlet;
#X obj 32 32 unpack f f f;
#X obj 32 167 t f f b;
#X obj 87 242 *;
#X obj 87 264 +;
#X obj 122 145 -;
#X obj 162 106 f;
#X obj 122 338 >= 0;
#X obj 183 203 f;
#X obj 117 73 t f f b;
#X obj 122 167 t f f b;
#X obj 177 242 *;
#X obj 212 145 -;
#X obj 252 106 f;
#X obj 212 338 >= 0;
#X obj 273 203 f;
#X obj 207 73 t f f b;
#X obj 212 167 t f f b;
#X obj 267 242 *;
#X obj 87 286 +;
#X obj 87 308 sqrt;
#X obj 94 392 pack 0 0 0 0;
#X obj 94 414 outlet;
#X connect 0 0 7 0;
#X connect 1 0 0 1;
#X connect 2 0 26 0;
#X connect 3 0 1 1;
#X connect 4 0 0 0;
#X connect 4 1 3 1;
#X connect 4 2 1 0;
#X connect 5 0 6 0;
#X connect 6 0 4 0;
#X connect 6 1 14 0;
#X connect 6 2 21 0;
#X connect 7 0 2 0;
#X connect 7 1 8 0;
#X connect 7 1 8 1;
#X connect 7 2 3 0;
#X connect 8 0 9 0;
#X connect 9 0 24 0;
#X connect 10 0 15 0;
#X connect 11 0 10 1;
#X connect 12 0 26 1;
#X connect 13 0 11 1;
#X connect 14 0 10 0;
#X connect 14 1 13 1;
#X connect 14 2 11 0;
#X connect 15 0 12 0;
#X connect 15 1 16 0;
#X connect 15 1 16 1;
#X connect 15 2 13 0;
#X connect 16 0 9 1;
#X connect 17 0 22 0;
#X connect 18 0 17 1;
#X connect 19 0 26 2;
#X connect 20 0 18 1;
#X connect 21 0 17 0;
#X connect 21 1 20 1;
#X connect 21 2 18 0;
#X connect 22 0 19 0;
#X connect 22 1 23 0;
#X connect 22 1 23 1;
#X connect 22 2 20 0;
#X connect 23 0 24 1;
#X connect 24 0 25 0;
#X connect 25 0 26 3;
#X connect 26 0 27 0;
