#N canvas 335 126 291 369 10;
#X obj 23 303 outlet;
#X obj 23 32 inlet;
#X obj 71 105 inlet;
#X obj 23 75 mod 7;
#X obj 23 98 t f b;
#X obj 50 128 f \$1;
#N canvas 0 22 296 343 choose 0;
#X obj 33 87 sel 0 1 2 3;
#X obj 33 67 change;
#X obj 33 109 list append \$0-major;
#X obj 33 32 inlet;
#X obj 43 129 list append \$0-minor;
#X obj 53 149 list append \$0-augmented;
#X obj 63 169 list append \$0-diminished;
#X obj 59 211 print fd_scales;
#X obj 33 256 list prepend set;
#X obj 33 278 list trim;
#X obj 33 300 outlet;
#X obj 33 208 t a;
#X connect 0 0 2 0;
#X connect 0 1 4 0;
#X connect 0 2 5 0;
#X connect 0 3 6 0;
#X connect 1 0 0 0;
#X connect 2 0 11 0;
#X connect 3 0 1 0;
#X connect 4 0 11 0;
#X connect 5 0 11 0;
#X connect 6 0 11 0;
#X connect 8 0 9 0;
#X connect 9 0 10 0;
#X connect 11 0 8 0;
#X restore 50 153 pd choose;
#N canvas 0 22 246 251 \$0-scales 0;
#X msg 30 96 0 0 2 3 5 7 9 11 12;
#X msg 30 55 0 0 2 4 5 7 9 11 12;
#X msg 30 140 0 0 2 4 6 8 10 12 14;
#X msg 30 180 0 0 1 2 4 5 7 8 10 11 12 13;
#X obj 30 18 loadbang;
#X obj 30 75 array define \$0-major 7;
#X obj 30 119 array define \$0-minor 7;
#X obj 30 160 array define \$0-augmented 7;
#X obj 30 203 array define \$0-diminished 7;
#X connect 0 0 6 0;
#X connect 1 0 5 0;
#X connect 2 0 7 0;
#X connect 3 0 8 0;
#X connect 4 0 1 0;
#X connect 4 0 0 0;
#X connect 4 0 2 0;
#X connect 4 0 3 0;
#X restore 22 3 pd \$0-scales;
#X obj 23 176 tabread \$0-major;
#X obj 155 117 div 7;
#X obj 155 139 int;
#X obj 23 54 t f f;
#X obj 23 240 +;
#X text 154 94 octaves;
#X obj 155 160 * 12;
#X connect 1 0 11 0;
#X connect 2 0 5 1;
#X connect 3 0 4 0;
#X connect 4 0 8 0;
#X connect 4 1 5 0;
#X connect 5 0 6 0;
#X connect 6 0 8 0;
#X connect 8 0 12 0;
#X connect 9 0 10 0;
#X connect 10 0 14 0;
#X connect 11 0 3 0;
#X connect 11 1 9 0;
#X connect 12 0 0 0;
#X connect 14 0 12 1;
