#N canvas 762 166 458 322 10;
#X obj 105 125 nbx 2 30 0 59 0 0 empty empty empty 0 -8 0 25 -262144
-1 -1 0 256;
#X obj 172 125 nbx 2 30 0 59 0 0 empty empty empty 0 -8 0 25 -262144
-1 -1 0 256;
#X obj 202 104 tgl 15 0 empty empty empty 17 7 0 10 -262144 -1 -1 0
1;
#X obj 221 104 bng 15 250 50 0 empty empty empty 17 7 0 10 -262144
-1 -1;
#X obj 249 105 tgl 15 0 empty empty empty 17 7 0 10 -262144 -1 -1 0
1;
#X obj 249 125 sel 0 1;
#X obj 190 172 metro 1;
#X obj 190 194 f;
#X obj 190 216 + 1;
#X obj 190 238 mod 1000;
#X obj 265 201 sel 0;
#X obj 265 223 f;
#X obj 265 245 + 1;
#X obj 265 267 mod 60;
#X obj 321 222 f;
#X obj 321 244 + 1;
#X obj 321 266 mod 60;
#X obj 375 196 sel 59;
#X obj 319 199 sel 0;
#X msg 249 147 0;
#X msg 225 50 0;
#X msg 291 100 bang;
#X obj 57 205 pack;
#X obj 46 270 outlet;
#X obj 258 52 sel 1;
#X msg 258 74 set 0;
#X obj 89 31 r fd_stopwatch;
#X obj 89 53 route start still;
#X obj 140 280 s time;
#X obj 115 168 t b f;
#X obj 61 225 t l l;
#X text 235 14 a simple stopwatch;
#X connect 0 0 22 0;
#X connect 1 0 29 0;
#X connect 2 0 6 0;
#X connect 2 0 24 0;
#X connect 3 0 4 0;
#X connect 4 0 5 0;
#X connect 5 0 19 0;
#X connect 5 1 20 0;
#X connect 6 0 7 0;
#X connect 7 0 8 0;
#X connect 7 0 10 0;
#X connect 8 0 9 0;
#X connect 9 0 7 1;
#X connect 10 0 11 0;
#X connect 11 0 12 0;
#X connect 11 0 18 0;
#X connect 11 0 1 0;
#X connect 12 0 13 0;
#X connect 13 0 11 1;
#X connect 14 0 15 0;
#X connect 14 0 17 0;
#X connect 14 0 0 0;
#X connect 15 0 16 0;
#X connect 16 0 14 1;
#X connect 17 0 21 0;
#X connect 18 0 14 0;
#X connect 19 0 7 1;
#X connect 19 0 11 1;
#X connect 19 0 14 1;
#X connect 19 0 1 0;
#X connect 19 0 0 0;
#X connect 20 0 2 0;
#X connect 21 0 19 0;
#X connect 22 0 30 0;
#X connect 24 0 25 0;
#X connect 25 0 4 0;
#X connect 26 0 27 0;
#X connect 27 0 2 0;
#X connect 27 1 3 0;
#X connect 29 0 22 0;
#X connect 29 1 22 1;
#X connect 30 0 23 0;
#X connect 30 1 28 0;
#X coords 0 -1 1 1 140 60 1 100 100;
