#N canvas 576 136 475 464 10;
#N canvas 0 22 813 712 trb-ranges 0;
#X obj 2 29 moses 28, f 15;
#X obj 134 83 moses 40;
#X obj 179 108 moses 46;
#X obj 224 134 moses 51;
#X obj 269 163 moses 53;
#X obj 314 189 moses 56;
#X obj 359 218 moses 58;
#X obj 404 244 moses 61;
#X obj 449 273 moses 65;
#X obj 494 299 moses 69;
#X obj 539 321 moses 74;
#X obj 2 6 inlet;
#X obj 89 54 moses 35;
#X obj 717 652 outlet range;
#X obj 2 364 s \$0-trb-out;
#X obj 13 615 r \$0-trb-out;
#X obj 89 671 s trb-range-1;
#X obj 179 614 s trb-range-3;
#X obj 224 581 s trb-range-4;
#X obj 269 552 s trb-range-5;
#X obj 314 524 s trb-range-6;
#X obj 359 501 s trb-range-7;
#X obj 404 472 s trb-range-8;
#X obj 449 444 s trb-range-9;
#X obj 494 417 s trb-range-10;
#X obj 539 392 s trb-range-11;
#X obj 584 369 s trb-range-12;
#X obj 698 364 s \$0-trb-out;
#X obj 134 642 s \$0-trb-out;
#X obj 13 637 outlet warning, f 22;
#X obj 584 347 moses 85;
#X connect 0 0 14 0;
#X connect 0 1 12 0;
#X connect 1 0 28 0;
#X connect 1 1 2 0;
#X connect 2 0 13 0;
#X connect 2 0 17 0;
#X connect 2 1 3 0;
#X connect 3 0 13 0;
#X connect 3 0 18 0;
#X connect 3 1 4 0;
#X connect 4 0 13 0;
#X connect 4 0 19 0;
#X connect 4 1 5 0;
#X connect 5 0 13 0;
#X connect 5 0 20 0;
#X connect 5 1 6 0;
#X connect 6 0 13 0;
#X connect 6 0 21 0;
#X connect 6 1 7 0;
#X connect 7 0 13 0;
#X connect 7 0 22 0;
#X connect 7 1 8 0;
#X connect 8 0 13 0;
#X connect 8 0 23 0;
#X connect 8 1 9 0;
#X connect 9 0 13 0;
#X connect 9 0 24 0;
#X connect 9 1 10 0;
#X connect 10 0 13 0;
#X connect 10 0 25 0;
#X connect 10 1 30 0;
#X connect 11 0 0 0;
#X connect 12 0 13 0;
#X connect 12 0 16 0;
#X connect 12 1 1 0;
#X connect 15 0 29 0;
#X connect 30 0 13 0;
#X connect 30 0 26 0;
#X connect 30 1 27 0;
#X restore 62 135 pd trb-ranges;
#X obj 62 62 max 0;
#X obj 62 84 min 127;
#X obj 32 304 list prepend, f 28;
#X obj 32 11 inlet;
#X obj 61 207 r trb-spt;
#X obj 306 38 fd_diads 3 7;
#X obj 306 88 fd_diads 4 5;
#X obj 306 108 fd_diads 5 4;
#X obj 306 128 fd_diads 6 4;
#X obj 306 148 fd_diads 7 4;
#X obj 316 168 fd_diads 7 3;
#X obj 306 188 fd_diads 8 3;
#X obj 306 208 fd_diads 9 3;
#X obj 316 228 fd_diads 9 4;
#X obj 306 248 fd_diads 10 2;
#X obj 306 269 fd_diads 11 2;
#X obj 316 288 fd_diads 11 1;
#X obj 306 308 fd_diads 12 1;
#X obj 32 280 list prepend split-tone;
#X floatatom 74 44 5 0 0 0 - - -, f 5;
#X text 272 62 range 2 = 0 in tenor trb;
#X text 31 410 inlet: midi note.;
#X text 31 429 outlet: list midi note \$1 + split-tone \$2 \$3;
#X text 28 371 TENOR TROMBONE SPLIT-TONE;
#X text 33 390 This abstraction outputs split-tone fd_diads for tenor
trb.;
#X msg 61 229 set \$1 \$2;
#X msg 32 251 42 28;
#X obj 32 33 t b f;
#X msg 62 164 TRB! out of range \$1 -output last diad;
#X obj 151 27 loadbang;
#X msg 151 49 42 28;
#X obj 151 71 s trb-spt;
#X obj 62 186 print SPLITTONE-WARNING;
#X obj 32 349 outlet;
#X obj 32 326 list;
#X obj 306 18 fd_diads 1 12;
#X connect 0 0 29 0;
#X connect 0 1 3 1;
#X connect 1 0 2 0;
#X connect 2 0 0 0;
#X connect 3 0 35 0;
#X connect 4 0 28 0;
#X connect 5 0 26 0;
#X connect 19 0 3 0;
#X connect 20 0 1 0;
#X connect 26 0 27 0;
#X connect 27 0 19 0;
#X connect 28 0 27 0;
#X connect 28 1 1 0;
#X connect 29 0 33 0;
#X connect 30 0 31 0;
#X connect 31 0 32 0;
#X connect 35 0 34 0;
