#N canvas 4 22 1031 682 10;
#X obj 21 12 inlet~;
#X obj 295 615 outlet~;
#X obj 350 615 outlet~;
#X obj 407 615 outlet~;
#X obj 461 615 outlet~;
#X msg 813 584 all 1;
#X obj 712 35 inlet;
#X obj 692 366 sel 1 0;
#X msg 754 426 0 10;
#X obj 780 472 del 10;
#X msg 780 494 0;
#X obj 780 516 switch~;
#X obj 692 426 t b b;
#X msg 750 494 1;
#X msg 879 583 all 0;
#X obj 722 394 t b b b;
#X obj 564 456 line~;
#X obj 295 557 *~;
#X obj 350 557 *~;
#X obj 407 557 *~;
#X obj 461 557 *~;
#X text 331 89 spat has 4 other cloned lorenz [lspace] to make a chaotic-like
spatialization (sqrt panning);
#X obj 675 495 f \$1;
#X obj 675 517 sel 0;
#X msg 675 539 0.2;
#X msg 676 572 \$1 100;
#X obj 53 296 *~;
#X obj 68 205 r \$0-sig-0;
#X obj 68 247 line~;
#X obj 68 269 sqrt~;
#X obj 752 267 *~;
#X obj 769 158 line~;
#X obj 769 180 sqrt~;
#X obj 769 116 r \$0-ph-sig-0;
#X obj 158 292 *~;
#X obj 173 243 line~;
#X obj 173 265 sqrt~;
#X obj 902 259 *~;
#X obj 894 152 line~;
#X obj 894 174 sqrt~;
#X obj 173 201 r \$0-sig-1;
#X obj 893 110 r \$0-ph-sig-1;
#X obj 261 292 *~;
#X obj 276 243 line~;
#X obj 276 265 sqrt~;
#X obj 371 294 *~;
#X obj 386 245 line~;
#X obj 386 267 sqrt~;
#X obj 625 259 *~;
#X obj 624 164 line~;
#X obj 624 186 sqrt~;
#X obj 276 201 r \$0-sig-2;
#X obj 386 203 r \$0-sig-3;
#X obj 624 122 r \$0-ph-sig-3;
#X obj 813 611 clone fd_lspace 4 \$0;
#X obj 914 6 inlet;
#X obj 888 77 s \$0-ntmp;
#X obj 765 213 *~ 100;
#X obj 894 215 *~ 100;
#X obj 620 215 *~ 100;
#X obj 752 245 delread4~ \$0-phsig;
#X obj 900 236 delread4~ \$0-phsig;
#X obj 621 238 delread4~ \$0-phsig;
#X obj 325 404 +~;
#X obj 325 426 *~ 0.5;
#X obj 376 409 +~;
#X obj 376 431 *~ 0.5;
#X obj 483 408 +~;
#X obj 483 430 *~ 0.5;
#X obj 487 275 *~;
#X obj 489 170 line~;
#X obj 489 192 sqrt~;
#X obj 489 128 r \$0-ph-sig-2;
#X obj 485 222 *~ 100;
#X obj 480 246 delread4~ \$0-phsig;
#X obj 431 407 +~;
#X obj 431 429 *~ 0.5;
#X obj 737 63 tgl 15 0 empty empty empty 17 7 0 10 -262144 -1 -1 1
1;
#X obj 342 50 delwrite~ \$0-phsig \$2;
#X obj 534 188 r \$0-ntmp;
#X obj 661 188 r \$0-ntmp;
#X obj 806 186 r \$0-ntmp;
#X obj 929 191 r \$0-ntmp;
#X obj 851 14 loadbang;
#X obj 851 36 f \$2;
#X obj 915 34 min;
#X text 506 12 \$1 amplification;
#X text 505 26 \$2 buffer time in msc;
#X obj 915 56 max 1;
#X obj 74 226 r line-stop;
#X obj 179 222 r line-stop;
#X obj 282 223 r line-stop;
#X obj 392 224 r line-stop;
#X obj 496 148 r line-stop;
#X obj 630 143 r line-stop;
#X obj 776 137 r line-stop;
#X obj 902 131 r line-stop;
#X connect 0 0 42 0;
#X connect 0 0 26 0;
#X connect 0 0 34 0;
#X connect 0 0 45 0;
#X connect 0 0 78 0;
#X connect 5 0 54 0;
#X connect 6 0 7 0;
#X connect 6 0 77 0;
#X connect 7 0 12 0;
#X connect 7 1 15 0;
#X connect 8 0 16 0;
#X connect 9 0 10 0;
#X connect 10 0 11 0;
#X connect 12 0 5 0;
#X connect 12 0 22 0;
#X connect 12 1 13 0;
#X connect 13 0 11 0;
#X connect 14 0 54 0;
#X connect 15 0 9 0;
#X connect 15 1 8 0;
#X connect 15 2 14 0;
#X connect 16 0 17 1;
#X connect 16 0 18 1;
#X connect 16 0 19 1;
#X connect 16 0 20 1;
#X connect 17 0 1 0;
#X connect 18 0 2 0;
#X connect 19 0 3 0;
#X connect 20 0 4 0;
#X connect 22 0 23 0;
#X connect 23 0 24 0;
#X connect 23 1 25 0;
#X connect 24 0 25 0;
#X connect 25 0 16 0;
#X connect 26 0 63 0;
#X connect 27 0 28 0;
#X connect 28 0 29 0;
#X connect 29 0 26 1;
#X connect 30 0 75 1;
#X connect 31 0 32 0;
#X connect 32 0 30 1;
#X connect 32 0 57 0;
#X connect 33 0 31 0;
#X connect 34 0 65 0;
#X connect 35 0 36 0;
#X connect 36 0 34 1;
#X connect 37 0 67 1;
#X connect 38 0 39 0;
#X connect 39 0 37 1;
#X connect 39 0 58 0;
#X connect 40 0 35 0;
#X connect 41 0 38 0;
#X connect 42 0 75 0;
#X connect 43 0 44 0;
#X connect 44 0 42 1;
#X connect 45 0 67 0;
#X connect 46 0 47 0;
#X connect 47 0 45 1;
#X connect 48 0 65 1;
#X connect 49 0 50 0;
#X connect 50 0 48 1;
#X connect 50 0 59 0;
#X connect 51 0 43 0;
#X connect 52 0 46 0;
#X connect 53 0 49 0;
#X connect 55 0 85 0;
#X connect 57 0 60 0;
#X connect 58 0 61 0;
#X connect 59 0 62 0;
#X connect 60 0 30 0;
#X connect 61 0 37 0;
#X connect 62 0 48 0;
#X connect 63 0 64 0;
#X connect 64 0 17 0;
#X connect 65 0 66 0;
#X connect 66 0 18 0;
#X connect 67 0 68 0;
#X connect 68 0 20 0;
#X connect 69 0 63 1;
#X connect 70 0 71 0;
#X connect 71 0 69 1;
#X connect 71 0 73 0;
#X connect 72 0 70 0;
#X connect 73 0 74 0;
#X connect 74 0 69 0;
#X connect 75 0 76 0;
#X connect 76 0 19 0;
#X connect 79 0 73 1;
#X connect 80 0 59 1;
#X connect 81 0 57 1;
#X connect 82 0 58 1;
#X connect 83 0 84 0;
#X connect 84 0 56 0;
#X connect 84 0 85 1;
#X connect 85 0 88 0;
#X connect 88 0 56 0;
#X connect 89 0 28 0;
#X connect 90 0 35 0;
#X connect 91 0 43 0;
#X connect 92 0 46 0;
#X connect 93 0 70 0;
#X connect 94 0 49 0;
#X connect 95 0 31 0;
#X connect 96 0 38 0;
