#N canvas 0 22 188 310 10;
#X obj 17 81 * 3.1416;
#X obj 17 101 sin;
#X obj 17 36 inlet;
#X obj 17 58 * 0.5;
#X text 29 9 sinline width offset;
#X obj 59 107 f \$1;
#X obj 133 129 f \$2;
#X obj 89 129 sel 0;
#X msg 60 129 1;
#X obj 94 79 t b b;
#X obj 94 58 loadbang;
#X obj 17 184 * 1;
#X obj 17 216 + 0;
#X obj 17 245 pack f 10;
#X obj 17 267 line~;
#X obj 17 289 outlet~;
#X connect 0 0 1 0;
#X connect 1 0 11 0;
#X connect 2 0 3 0;
#X connect 3 0 0 0;
#X connect 5 0 7 0;
#X connect 6 0 12 1;
#X connect 7 0 8 0;
#X connect 7 1 11 1;
#X connect 8 0 11 1;
#X connect 9 0 5 0;
#X connect 9 1 6 0;
#X connect 10 0 9 0;
#X connect 11 0 12 0;
#X connect 12 0 13 0;
#X connect 13 0 14 0;
#X connect 14 0 15 0;
