#N canvas 380 77 369 321 12;
#X obj 28 252 f;
#X obj 28 21 inlet;
#X obj 28 277 outlet;
#X obj 239 155 array define \$0-salvo \$1;
#X f 12;
#X obj 28 104 t b b f b;
#X obj 148 201 array set \$0-salvo, f 9;
#X obj 148 176 t f f;
#X obj 53 139 array random \$0-salvo, f 9;
#X obj 53 221 sel;
#X obj 23 179 t b;
#X obj 28 46 route float resize;
#X obj 148 149 fd_iterate;
#X obj 148 124 i \$1;
#X msg 239 128 resize \$1;
#X obj 28 75 mod \$1;
#X obj 98 76 t f f f, f 13;
#X connect 0 0 2 0;
#X connect 1 0 10 0;
#X connect 4 0 0 0;
#X connect 4 1 7 0;
#X connect 4 2 8 1;
#X connect 4 3 12 0;
#X connect 6 0 5 0;
#X connect 6 1 5 1;
#X connect 7 0 8 0;
#X connect 8 0 9 0;
#X connect 8 1 0 1;
#X connect 9 0 7 0;
#X connect 10 0 14 0;
#X connect 10 1 15 0;
#X connect 11 0 6 0;
#X connect 12 0 11 0;
#X connect 13 0 3 0;
#X connect 14 0 4 0;
#X connect 15 0 14 1;
#X connect 15 1 12 1;
#X connect 15 2 13 0;
