#N canvas 541 31 660 316 10;
#X obj 40 15 tgl 15 0 empty empty empty 17 7 0 10 -262144 -1 -1 0 1
;
#X obj 40 35 metro 400;
#X obj 40 57 f;
#X obj 40 79 + 1;
#X obj 40 101 mod 8;
#X obj 237 77 sel 0 1 2 3 4 5 6 7;
#X msg 124 162 1 \, 0 300;
#X obj 124 184 vline~;
#X obj 124 240 dac~ 1;
#X obj 124 206 *~;
#X obj 8 145 noise~;
#X msg 184 162 1 \, 0 300;
#X obj 184 184 vline~;
#X obj 184 206 *~;
#X msg 244 162 1 \, 0 300;
#X obj 244 184 vline~;
#X obj 244 206 *~;
#X msg 304 162 1 \, 0 300;
#X obj 304 184 vline~;
#X obj 304 206 *~;
#X msg 364 162 1 \, 0 300;
#X obj 364 184 vline~;
#X obj 364 206 *~;
#X msg 424 162 1 \, 0 300;
#X obj 424 184 vline~;
#X obj 424 206 *~;
#X msg 484 162 1 \, 0 300;
#X obj 484 184 vline~;
#X obj 484 206 *~;
#X msg 544 162 1 \, 0 300;
#X obj 544 184 vline~;
#X obj 544 206 *~;
#X obj 184 240 dac~ 2;
#X obj 244 240 dac~ 3;
#X obj 304 240 dac~ 4;
#X obj 364 240 dac~ 5;
#X obj 424 240 dac~ 6;
#X obj 484 240 dac~ 7;
#X obj 544 240 dac~ 8;
#X connect 0 0 1 0;
#X connect 1 0 2 0;
#X connect 2 0 3 0;
#X connect 2 0 5 0;
#X connect 3 0 4 0;
#X connect 4 0 2 1;
#X connect 5 0 6 0;
#X connect 5 1 11 0;
#X connect 5 2 14 0;
#X connect 5 3 17 0;
#X connect 5 4 20 0;
#X connect 5 5 23 0;
#X connect 5 6 26 0;
#X connect 5 7 29 0;
#X connect 6 0 7 0;
#X connect 7 0 9 0;
#X connect 9 0 8 0;
#X connect 10 0 9 1;
#X connect 10 0 13 1;
#X connect 10 0 16 1;
#X connect 10 0 19 1;
#X connect 10 0 22 1;
#X connect 10 0 25 1;
#X connect 10 0 28 1;
#X connect 10 0 31 1;
#X connect 11 0 12 0;
#X connect 12 0 13 0;
#X connect 13 0 32 0;
#X connect 14 0 15 0;
#X connect 15 0 16 0;
#X connect 16 0 33 0;
#X connect 17 0 18 0;
#X connect 18 0 19 0;
#X connect 19 0 34 0;
#X connect 20 0 21 0;
#X connect 21 0 22 0;
#X connect 22 0 35 0;
#X connect 23 0 24 0;
#X connect 24 0 25 0;
#X connect 25 0 36 0;
#X connect 26 0 27 0;
#X connect 27 0 28 0;
#X connect 28 0 37 0;
#X connect 29 0 30 0;
#X connect 30 0 31 0;
#X connect 31 0 38 0;
