#N struct plotter float x float y float z float u float v float w;
#N canvas 537 44 720 489 10;
#X obj 164 102 list;
#X obj 164 124 list;
#X obj 164 146 list;
#X obj 164 168 list;
#X obj 164 190 list;
#X obj 164 212 list trim;
#X floatatom 402 54 5 0 0 0 - - -, f 5;
#X obj 402 73 t b f;
#X obj 402 95 s \$0-go;
#X obj 113 52 r \$0-go;
#X obj 163 78 f;
#X floatatom 352 53 5 0 0 0 - - -, f 5;
#X obj 352 72 t b f;
#X obj 352 94 s \$0-go;
#X floatatom 302 54 5 0 0 0 - - -, f 5;
#X obj 302 73 t b f;
#X obj 302 95 s \$0-go;
#X floatatom 252 53 5 0 0 0 - - -, f 5;
#X obj 252 72 t b f;
#X obj 252 94 s \$0-go;
#X floatatom 202 53 5 0 0 0 - - -, f 5;
#X obj 202 72 t b f;
#X obj 202 94 s \$0-go;
#X floatatom 163 53 5 0 0 0 - - -, f 5;
#X obj 287 252 fd_plott;
#X connect 0 0 1 0;
#X connect 1 0 2 0;
#X connect 2 0 3 0;
#X connect 3 0 4 0;
#X connect 4 0 5 0;
#X connect 5 0 24 0;
#X connect 6 0 7 0;
#X connect 7 0 8 0;
#X connect 7 1 4 1;
#X connect 9 0 10 0;
#X connect 10 0 0 0;
#X connect 11 0 12 0;
#X connect 12 0 13 0;
#X connect 12 1 3 1;
#X connect 14 0 15 0;
#X connect 15 0 16 0;
#X connect 15 1 2 1;
#X connect 17 0 18 0;
#X connect 18 0 19 0;
#X connect 18 1 1 1;
#X connect 20 0 21 0;
#X connect 21 0 22 0;
#X connect 21 1 0 1;
#X connect 23 0 10 0;
