#N canvas 1065 138 258 469 10;
#X obj 42 207 samplerate~;
#X obj 42 229 /;
#X obj 79 180 f \$1;
#X msg 68 228 0;
#X obj 27 33 r pd-dsp-started;
#X msg 88 106 resize \$1;
#X obj 33 105 t b f f;
#X obj 19 153 t b b b b;
#X obj 19 413 switch~ \$1;
#X obj 33 82 change;
#X obj 88 127 array define triangle \$1;
#X obj 33 380 tabwrite~ triangle;
#X obj 42 251 phasor~;
#X obj 42 273 -~ 0.5;
#X obj 42 295 abs~;
#X obj 42 317 *~ -2;
#X obj 42 339 +~ 1;
#X obj 33 60 r triangle-size;
#X obj 21 7 r fd_windows;
#X connect 0 0 1 0;
#X connect 1 0 12 0;
#X connect 2 0 1 1;
#X connect 3 0 12 1;
#X connect 4 0 7 0;
#X connect 5 0 10 0;
#X connect 6 0 7 0;
#X connect 6 1 2 1;
#X connect 6 2 5 0;
#X connect 7 0 8 0;
#X connect 7 0 11 0;
#X connect 7 1 0 0;
#X connect 7 2 3 0;
#X connect 7 3 2 0;
#X connect 9 0 6 0;
#X connect 12 0 13 0;
#X connect 13 0 14 0;
#X connect 14 0 15 0;
#X connect 15 0 16 0;
#X connect 16 0 11 0;
#X connect 17 0 9 0;
#X connect 18 0 7 0;
