#N canvas 898 44 452 420 10;
#X obj 113 70 unpack;
#X obj 113 92 ftom;
#X obj 113 114 / 127;
#X obj 112 37 inlet;
#X obj 122 311 outlet;
#X obj 113 136 - 0.5;
#X obj 113 158 * 2;
#X obj 113 180 * 4;
#X obj 113 223 pack f f 0;
#X obj 152 152 * 8;
#X obj 149 189 - 0;
#X obj 244 135 inlet;
#X obj 251 38 loadbang;
#X obj 251 60 pack \$2;
#X obj 219 185 r z;
#X obj 293 275 * 1;
#X obj 319 243 + 1;
#X obj 317 12 r reload;
#X msg 121 271 \$3 \$1 \$2;
#X obj 291 176 pack \$3 \$1;
#X obj 291 198 unpack;
#X connect 0 0 1 0;
#X connect 0 1 9 0;
#X connect 1 0 2 0;
#X connect 2 0 5 0;
#X connect 3 0 0 0;
#X connect 5 0 6 0;
#X connect 6 0 7 0;
#X connect 7 0 8 0;
#X connect 8 0 18 0;
#X connect 9 0 10 0;
#X connect 10 0 8 1;
#X connect 11 0 10 1;
#X connect 12 0 13 0;
#X connect 12 0 19 0;
#X connect 13 0 10 1;
#X connect 14 0 15 0;
#X connect 15 0 8 2;
#X connect 16 0 15 1;
#X connect 17 0 13 0;
#X connect 17 0 19 0;
#X connect 18 0 4 0;
#X connect 19 0 20 0;
#X connect 20 0 15 0;
#X connect 20 1 16 0;
