#N struct plotter float x float y float z float u float v float w;
#N canvas 614 112 450 300 10;
#X floatatom 135 85 5 0 0 0 - - -, f 5;
#X obj 136 104 / 1000;
#X obj 138 239 pack;
#X obj 35 19 tgl 15 0 empty empty empty 17 7 0 10 -262144 -1 -1 0 1
;
#X obj 35 41 metro 10;
#X obj 35 63 f;
#X obj 35 85 + 1;
#X floatatom 80 16 5 0 0 0 - - -, f 5;
#X msg 339 22 bang;
#X obj 138 134 t b f;
#X obj 91 190 f 0.5;
#X msg 133 18 -1000;
#X msg 213 20 clear the window;
#X obj 216 66 fd_plott;
#X obj 171 220 cyclone/tanh;
#X connect 0 0 1 0;
#X connect 1 0 9 0;
#X connect 2 0 13 0;
#X connect 3 0 4 0;
#X connect 4 0 5 0;
#X connect 5 0 6 0;
#X connect 5 0 0 0;
#X connect 6 0 5 1;
#X connect 7 0 4 1;
#X connect 8 0 13 1;
#X connect 9 0 10 0;
#X connect 9 1 14 0;
#X connect 10 0 2 0;
#X connect 11 0 5 1;
#X connect 12 0 13 0;
#X connect 14 0 2 1;
