#N canvas 338 229 251 222 10;
#X obj 10 119 text get untitled-text;
#X obj 10 90 f;
#X obj 25 66 r counter;
#X obj 10 43 t b;
#X obj 10 14 r get-\$1;
#X obj 110 26 loadbang;
#X obj 110 48 symbol \$2;
#X obj 10 163 s canv-\$1;
#X msg 10 141 label \$1;
#X obj 94 165 outlet;
#X connect 0 0 8 0;
#X connect 0 0 9 0;
#X connect 1 0 0 0;
#X connect 2 0 1 1;
#X connect 3 0 1 0;
#X connect 4 0 3 0;
#X connect 5 0 6 0;
#X connect 6 0 0 3;
#X connect 8 0 7 0;
