#N canvas 635 108 575 433 10;
#X obj 22 14 noise~;
#X obj 156 134 tgl 15 0 empty empty empty 17 7 0 10 -262144 -1 -1 0
1;
#X obj 377 13 tgl 15 0 empty empty empty 17 7 0 10 -262144 -1 -1 0
1;
#X obj 377 35 switch~;
#X obj 156 154 s ch1;
#X obj 235 133 tgl 15 0 empty empty empty 17 7 0 10 -262144 -1 -1 0
1;
#X obj 307 190 tgl 15 0 empty empty empty 17 7 0 10 -262144 -1 -1 0
1;
#X obj 311 245 tgl 15 0 empty empty empty 17 7 0 10 -262144 -1 -1 0
1;
#X obj 261 301 tgl 15 0 empty empty empty 17 7 0 10 -262144 -1 -1 0
1;
#X obj 154 301 tgl 15 0 empty empty empty 17 7 0 10 -262144 -1 -1 0
1;
#X obj 235 153 s ch2;
#X obj 307 210 s ch3;
#X obj 310 265 s ch4;
#X obj 261 321 s ch5;
#X obj 154 321 s ch6;
#X obj 93 186 tgl 15 0 empty empty empty 17 7 0 10 -262144 -1 -1 0
1;
#X obj 97 241 tgl 15 0 empty empty empty 17 7 0 10 -262144 -1 -1 0
1;
#X obj 93 206 s ch8;
#X obj 96 261 s ch7;
#X obj 240 223 tgl 15 0 empty empty empty 17 7 0 10 -262144 -1 -1 0
1;
#X obj 215 252 tgl 15 0 empty empty empty 17 7 0 10 -262144 -1 -1 0
1;
#X obj 200 197 tgl 15 0 empty empty empty 17 7 0 10 -262144 -1 -1 0
1;
#X obj 172 229 tgl 15 0 empty empty empty 17 7 0 10 -262144 -1 -1 0
1;
#X obj 200 217 s ch9;
#X obj 240 242 s ch10;
#X obj 215 272 s ch11;
#X obj 173 249 s ch12;
#X obj 22 36 *~ 0.01;
#X obj 22 94 clone -s 1 ch_ 12;
#X connect 0 0 27 0;
#X connect 1 0 4 0;
#X connect 2 0 3 0;
#X connect 5 0 10 0;
#X connect 6 0 11 0;
#X connect 7 0 12 0;
#X connect 8 0 13 0;
#X connect 9 0 14 0;
#X connect 15 0 17 0;
#X connect 16 0 18 0;
#X connect 19 0 24 0;
#X connect 20 0 25 0;
#X connect 21 0 23 0;
#X connect 22 0 26 0;
#X connect 27 0 28 0;
