#N canvas 0 22 450 300 10;
#X msg 44 83 /a/;
#X msg 74 86 /e/;
#X msg 109 89 /i/;
#X msg 144 90 /o/;
#X msg 183 92 /u/;
#X obj 44 61 sel 1 2 3 4 5, f 30;
#X obj 44 11 inlet;
#X obj 44 33 int;
#X obj 71 131 symbol \$1;
#X obj 71 153 outlet;
#X text 119 11 turn numbers into vowels;
#X connect 0 0 8 0;
#X connect 1 0 8 0;
#X connect 2 0 8 0;
#X connect 3 0 8 0;
#X connect 4 0 8 0;
#X connect 5 0 0 0;
#X connect 5 1 1 0;
#X connect 5 2 2 0;
#X connect 5 3 3 0;
#X connect 5 4 4 0;
#X connect 6 0 7 0;
#X connect 7 0 5 0;
#X connect 8 0 9 0;
