#N canvas 0 22 321 524 10;
#X obj 54 209 samplerate~;
#X obj 54 231 /;
#X obj 91 182 f \$1;
#X msg 80 230 0;
#X msg 88 106 resize \$1;
#X obj 33 105 t b f f;
#X obj 19 153 t b b b b;
#X obj 33 82 change;
#X obj 54 253 phasor~;
#X obj 39 321 /~;
#X obj 54 297 exp~;
#X obj 54 275 *~ 10;
#X obj 143 208 sel 0;
#X msg 143 230 10;
#X obj 196 61 t b f;
#X obj 143 186 f \$2;
#X obj 39 182 sig~ 1;
#X obj 143 251 max 6;
#X obj 119 295 del 1;
#X obj 200 280 - 1;
#X obj 200 302 - 1;
#X obj 200 324 - 1;
#X obj 200 346 - 1;
#X obj 101 323 pack f f f f;
#X obj 169 287 f;
#X msg 88 367 \$1 0 \, \$2 0 \, \$3 0 \, \$4 0;
#X obj 32 30 inlet;
#X obj 88 389 s expo-\$1;
#X obj 30 406 tabwrite~ expo-\$1;
#X obj 33 60 r expo-\$1;
#X obj 196 39 r expo-\$1-q;
#X obj 88 127 array define expo-\$1 \$2;
#X connect 0 0 1 0;
#X connect 1 0 8 0;
#X connect 2 0 1 1;
#X connect 2 0 24 1;
#X connect 3 0 8 1;
#X connect 4 0 31 0;
#X connect 5 0 6 0;
#X connect 5 1 2 1;
#X connect 5 2 4 0;
#X connect 6 0 18 0;
#X connect 6 0 28 0;
#X connect 6 1 0 0;
#X connect 6 2 3 0;
#X connect 6 3 2 0;
#X connect 6 3 15 0;
#X connect 7 0 5 0;
#X connect 8 0 11 0;
#X connect 9 0 28 0;
#X connect 10 0 9 1;
#X connect 11 0 10 0;
#X connect 12 0 13 0;
#X connect 12 1 17 0;
#X connect 13 0 17 0;
#X connect 14 0 6 0;
#X connect 14 1 15 1;
#X connect 15 0 12 0;
#X connect 16 0 9 0;
#X connect 17 0 11 1;
#X connect 18 0 24 0;
#X connect 19 0 20 0;
#X connect 19 0 23 3;
#X connect 20 0 21 0;
#X connect 20 0 23 2;
#X connect 21 0 22 0;
#X connect 21 0 23 1;
#X connect 22 0 23 0;
#X connect 23 0 25 0;
#X connect 24 0 19 0;
#X connect 25 0 27 0;
#X connect 26 0 7 0;
#X connect 29 0 7 0;
#X connect 30 0 14 0;
