#N canvas 537 25 544 353 10;
#X obj 28 23 inlet;
#X obj 28 45 route bang clear;
#X obj 28 123 f;
#X obj 56 124 + 1;
#X obj 225 233 array define \$0-s;
#X obj 191 30 inlet;
#X obj 28 67 t b b;
#X obj 199 84 f \$1;
#X obj 199 106 change;
#X obj 199 128 sel;
#X msg 319 171 resize \$1;
#X obj 235 176 fd_iterate;
#X msg 235 198 \$1 \$1;
#X floatatom 247 50 5 0 0 0 - - -, f 5;
#X obj 28 161 sel;
#X obj 18 319 outlet;
#X obj 28 251 t b b;
#X msg 11 97 0;
#X msg 164 60 bang;
#X obj 370 238 array define \$0-t;
#X obj 101 214 fd_iterate;
#X obj 101 236 tabread \$0-s;
#X obj 101 258 t b f;
#X obj 101 280 f;
#X obj 127 279 + 1;
#X obj 102 192 t f b;
#X msg 141 259 0;
#X obj 101 302 swap;
#X obj 101 324 tabwrite \$0-t;
#X obj 225 144 t f f f;
#X msg 261 112 10;
#X text 313 26 not workint;
#X obj 364 62 loadbang;
#X msg 364 84 this is not working;
#X obj 364 106 print WARNINGGGG;
#X connect 0 0 1 0;
#X connect 1 0 6 0;
#X connect 2 0 3 0;
#X connect 2 0 14 0;
#X connect 3 0 2 1;
#X connect 6 0 2 0;
#X connect 6 1 7 0;
#X connect 7 0 8 0;
#X connect 8 0 9 0;
#X connect 9 1 29 0;
#X connect 10 0 4 0;
#X connect 10 0 19 0;
#X connect 11 0 12 0;
#X connect 12 0 4 0;
#X connect 13 0 7 1;
#X connect 14 0 16 0;
#X connect 16 0 17 0;
#X connect 16 1 15 0;
#X connect 17 0 2 1;
#X connect 18 0 7 0;
#X connect 20 0 21 0;
#X connect 21 0 22 0;
#X connect 22 0 23 0;
#X connect 22 1 27 1;
#X connect 23 0 24 0;
#X connect 23 0 27 0;
#X connect 24 0 23 1;
#X connect 25 0 20 0;
#X connect 25 1 26 0;
#X connect 26 0 23 1;
#X connect 27 0 28 0;
#X connect 27 1 28 1;
#X connect 29 0 25 0;
#X connect 29 1 11 0;
#X connect 29 2 10 0;
#X connect 30 0 29 0;
#X connect 32 0 33 0;
#X connect 33 0 34 0;
