#N canvas 529 128 495 472 10;
#X obj 126 77 spigot;
#X obj 159 30 r pd;
#X obj 159 52 route dsp;
#X obj 345 145 s \$0-smooth;
#X obj 330 167 s \$0-coef;
#X obj 26 139 s \$0-blocksize;
#X obj 126 435 outlet;
#X obj 361 121 s \$0-crop;
#X obj 13 164 s \$0-mode;
#N canvas 104 460 450 300 crop 0;
#X obj 60 133 pix_crop 114 114 128 128;
#X obj 60 103 separator;
#X obj 126 82 r \$0-dimen;
#X obj 126 104 unpack;
#X obj 194 82 r \$0-crop;
#X obj 194 104 unpack;
#X obj 60 57 inlet;
#X obj 60 155 outlet;
#X floatatom 156 182 5 0 0 0 - - -, f 5;
#X floatatom 188 166 5 0 0 0 - - -, f 5;
#X connect 0 0 7 0;
#X connect 1 0 0 0;
#X connect 2 0 3 0;
#X connect 3 0 0 1;
#X connect 3 0 8 0;
#X connect 3 1 0 2;
#X connect 3 1 9 0;
#X connect 4 0 5 0;
#X connect 5 0 0 3;
#X connect 5 1 0 4;
#X connect 6 0 1 0;
#X restore 153 142 pd crop;
#X obj 26 118 change;
#N canvas 525 22 755 758 \$0-windowing 0;
#X msg 256 405 resize \$1;
#X obj 29 158 until;
#X obj 29 180 f;
#X obj 55 180 + 1;
#X msg 69 158 0;
#X obj 29 230 /;
#X obj 29 330 cos;
#X obj 29 352 * -0.5;
#X obj 29 374 + 0.5;
#X obj 146 88 t b f;
#X obj 29 42 sel 0;
#X obj 29 202 t f b f;
#X obj 29 116 t f b f f;
#X obj 29 273 * 3.14159;
#X obj 88 58 loadbang;
#X floatatom 180 65 5 0 0 0 - - -, f 5;
#X obj 157 169 t b f;
#X floatatom 155 147 5 0 0 0 - - -, f 5;
#X obj 29 252 * 2;
#X obj 256 426 array define \$0-window \$1;
#X obj 70 36 r \$0-window-size;
#X obj 185 34 r \$0-window-ovelaps;
#X obj 29 396 tabwrite \$0-window;
#X obj 452 154 t b b b b;
#X obj 458 185 sel 0;
#X obj 452 248 until;
#X obj 452 270 f;
#X obj 479 270 + 1;
#X msg 490 248 0;
#X obj 452 292 t f f;
#X obj 452 314 /;
#X obj 642 312 sel 0;
#X msg 646 340 0;
#X obj 687 312 sel 0;
#X obj 452 336 * 16;
#X obj 452 358 - 8;
#X obj 504 113 t b f;
#X obj 484 337 * 0.5;
#X obj 476 314 t f f;
#X obj 604 265 pack \$2 \$3 \$4;
#X obj 604 289 unpack f f f;
#X obj 604 313 sel 0;
#X msg 685 340 0.5;
#X msg 604 334 8;
#X obj 500 82 unpack f f f;
#X obj 517 485 tabwrite \$0-window, f 19;
#X obj 29 92 int 16384;
#X obj 451 226 int 16384;
#X msg 458 206 16384;
#X obj 502 189 f 16384;
#X floatatom 503 33 5 0 0 0 - - -, f 5;
#X floatatom 562 29 5 0 0 0 - - -, f 5;
#X text 471 9 gauss;
#X msg 499 56 8 0 \$1;
#X msg 169 276 cosinesum 16384 1 2 0.04 2 4 \, normalize 1;
#X msg 184 317 sinesum 16384 1 2 0.04 2 4 \, normalize 1;
#X msg 293 362 16384;
#X obj 34 722 tabwrite \$0-window;
#X obj 40 524 t f f;
#N canvas 0 22 416 526 gauss 0;
#X obj 27 374 int 1;
#X obj 27 396 /;
#X obj 27 285 *;
#X obj 27 307 * 2;
#X obj 27 329 sqrt;
#X obj 27 436 *;
#X obj 27 71 -;
#X obj 27 135 /;
#X obj 65 102 * 2;
#X obj 27 155 * -1;
#X obj 27 176 exp;
#X obj 27 243 f 3.1416;
#X obj 42 48 r \$0-mean;
#X obj 65 80 r \$0-var;
#X obj 42 263 r \$0-var;
#X obj 27 211 t b f, f 24;
#X obj 27 351 t b f;
#X obj 27 93 t f f;
#X obj 27 115 *;
#X obj 156 18 inlet;
#X obj 156 40 s \$0-mean;
#X obj 270 17 inlet;
#X obj 309 61 s \$0-stdev;
#X obj 270 60 *;
#X obj 270 86 s \$0-var;
#X obj 270 38 t f f f;
#X obj 27 17 inlet;
#X obj 27 463 outlet;
#X text 207 234 gaussian distribution;
#X text 90 414 1/sqrt(2*stdev^2*PI) EXP -((x-mean)^2/2*stdv));
#N canvas 0 22 450 300 args 0;
#X obj 154 78 loadbang;
#X obj 154 119 f \$1;
#X obj 203 109 f \$2;
#X obj 203 131 sel 0;
#X msg 203 153 1;
#X obj 154 139 outlet;
#X obj 203 175 outlet;
#X obj 268 108 f \$3;
#X obj 268 130 sel 0;
#X msg 268 152 2;
#X obj 268 174 outlet;
#X connect 0 0 1 0;
#X connect 0 0 2 0;
#X connect 0 0 7 0;
#X connect 1 0 5 0;
#X connect 2 0 3 0;
#X connect 3 0 4 0;
#X connect 3 1 6 0;
#X connect 4 0 6 0;
#X connect 7 0 8 0;
#X connect 8 0 9 0;
#X connect 8 1 10 0;
#X connect 9 0 10 0;
#X restore 201 18 pd args;
#X obj 346 11 inlet, f 19;
#X connect 0 0 1 0;
#X connect 1 0 5 0;
#X connect 2 0 3 0;
#X connect 3 0 4 0;
#X connect 4 0 16 0;
#X connect 5 0 27 0;
#X connect 6 0 17 0;
#X connect 7 0 9 0;
#X connect 8 0 7 1;
#X connect 9 0 10 0;
#X connect 10 0 15 0;
#X connect 11 0 2 0;
#X connect 12 0 6 1;
#X connect 13 0 8 0;
#X connect 14 0 2 1;
#X connect 15 0 11 0;
#X connect 15 1 5 1;
#X connect 16 0 0 0;
#X connect 16 1 1 1;
#X connect 17 0 18 0;
#X connect 17 1 18 1;
#X connect 18 0 7 0;
#X connect 19 0 20 0;
#X connect 21 0 25 0;
#X connect 23 0 24 0;
#X connect 25 0 23 0;
#X connect 25 1 23 1;
#X connect 25 2 22 0;
#X connect 26 0 6 0;
#X connect 30 0 20 0;
#X connect 30 1 25 0;
#X connect 30 2 3 1;
#X connect 31 0 3 1;
#X restore 455 442 pd gauss;
#X msg 107 435 16384;
#X obj 36 483 until;
#X msg 74 481 0;
#X obj 36 505 f;
#X obj 61 506 + 1;
#X obj 43 578 /;
#X floatatom 153 506 5 0 0 0 - - -, f 5;
#X obj 43 600 log;
#X obj 38 648 exp;
#X obj 38 626 / 4;
#X obj 289 666 * -2;
#X obj 289 688 + 1;
#X obj 285 718 tabwrite \$0-window;
#X obj 278 543 t f f;
#X msg 345 454 16384;
#X obj 274 502 until;
#X msg 312 500 0;
#X obj 274 524 f;
#X obj 299 525 + 1;
#X obj 281 597 /;
#X floatatom 391 525 5 0 0 0 - - -, f 5;
#X obj 279 574 mod;
#X obj 333 559 * 1;
#X obj 274 479 t f f b f;
#X obj 391 544 t b f;
#X msg 397 481 1;
#X obj 289 622 - 0.5;
#X obj 289 644 abs;
#X obj 36 460 t f f b;
#X obj 153 525 t b f f;
#X obj 164 565 moses;
#X obj 38 670 * -2;
#X obj 111 564 abs;
#X msg 147 606 2;
#X msg 191 607 -2;
#X obj 38 692 + 1;
#X msg 156 653 -1;
#X msg 196 653 1;
#X obj 203 87 route hann gauss cosinesum sinesum triangle expo;
#X msg 441 45 0.5;
#X obj 29 20 r \$0-blocksize;
#X obj 230 60 inlet;
#X connect 0 0 19 0;
#X connect 1 0 2 0;
#X connect 2 0 3 0;
#X connect 2 0 11 0;
#X connect 3 0 2 1;
#X connect 4 0 2 1;
#X connect 5 0 18 0;
#X connect 6 0 7 0;
#X connect 7 0 8 0;
#X connect 8 0 22 0;
#X connect 9 0 46 0;
#X connect 9 1 18 1;
#X connect 10 1 46 0;
#X connect 11 0 5 0;
#X connect 11 2 22 1;
#X connect 12 0 1 0;
#X connect 12 1 4 0;
#X connect 12 2 0 0;
#X connect 12 3 5 1;
#X connect 13 0 6 0;
#X connect 14 0 46 0;
#X connect 15 0 9 0;
#X connect 16 0 46 0;
#X connect 16 1 8 1;
#X connect 17 0 16 0;
#X connect 18 0 13 0;
#X connect 20 0 46 0;
#X connect 21 0 9 0;
#X connect 23 0 47 0;
#X connect 23 1 28 0;
#X connect 23 2 39 0;
#X connect 23 3 49 0;
#X connect 24 0 48 0;
#X connect 24 1 47 1;
#X connect 25 0 26 0;
#X connect 26 0 27 0;
#X connect 26 0 29 0;
#X connect 27 0 26 1;
#X connect 28 0 26 1;
#X connect 29 0 30 0;
#X connect 29 1 45 1;
#X connect 30 0 34 0;
#X connect 31 0 32 0;
#X connect 31 1 59 1;
#X connect 32 0 59 1;
#X connect 33 0 42 0;
#X connect 33 1 59 2;
#X connect 34 0 35 0;
#X connect 35 0 59 0;
#X connect 36 0 23 0;
#X connect 36 1 39 0;
#X connect 37 0 35 1;
#X connect 38 0 34 1;
#X connect 38 1 37 0;
#X connect 39 0 40 0;
#X connect 40 0 41 0;
#X connect 40 1 31 0;
#X connect 40 2 33 0;
#X connect 41 0 43 0;
#X connect 41 1 38 0;
#X connect 42 0 59 2;
#X connect 43 0 38 0;
#X connect 44 0 36 0;
#X connect 44 1 39 1;
#X connect 44 2 39 2;
#X connect 46 0 12 0;
#X connect 47 0 25 0;
#X connect 48 0 47 1;
#X connect 49 0 24 0;
#X connect 49 0 30 1;
#X connect 50 0 53 0;
#X connect 53 0 44 0;
#X connect 54 0 19 0;
#X connect 55 0 19 0;
#X connect 56 0 0 0;
#X connect 58 0 65 0;
#X connect 58 1 57 1;
#X connect 59 0 45 0;
#X connect 60 0 88 0;
#X connect 61 0 63 0;
#X connect 62 0 63 1;
#X connect 63 0 64 0;
#X connect 63 0 58 0;
#X connect 64 0 63 1;
#X connect 65 0 67 0;
#X connect 66 0 89 0;
#X connect 67 0 69 0;
#X connect 68 0 91 0;
#X connect 69 0 68 0;
#X connect 70 0 71 0;
#X connect 71 0 72 0;
#X connect 73 0 81 0;
#X connect 73 1 72 1;
#X connect 74 0 83 0;
#X connect 75 0 77 0;
#X connect 76 0 77 1;
#X connect 77 0 78 0;
#X connect 77 0 73 0;
#X connect 78 0 77 1;
#X connect 79 0 86 0;
#X connect 80 0 84 0;
#X connect 81 0 79 0;
#X connect 82 0 81 1;
#X connect 83 0 75 0;
#X connect 83 1 79 1;
#X connect 83 2 76 0;
#X connect 83 3 82 0;
#X connect 84 0 74 0;
#X connect 84 1 82 1;
#X connect 85 0 80 0;
#X connect 86 0 87 0;
#X connect 87 0 70 0;
#X connect 88 0 61 0;
#X connect 88 1 65 1;
#X connect 88 2 62 0;
#X connect 89 0 60 0;
#X connect 89 1 92 0;
#X connect 89 2 90 0;
#X connect 90 0 93 0;
#X connect 90 0 96 0;
#X connect 90 1 94 0;
#X connect 90 1 97 0;
#X connect 91 0 95 0;
#X connect 92 0 69 1;
#X connect 93 0 91 1;
#X connect 94 0 91 1;
#X connect 95 0 57 0;
#X connect 96 0 95 1;
#X connect 97 0 95 1;
#X connect 98 0 17 0;
#X connect 98 1 50 0;
#X connect 98 2 54 0;
#X connect 98 3 55 0;
#X connect 98 4 80 0;
#X connect 98 5 66 0;
#X connect 100 0 10 0;
#X connect 101 0 98 0;
#X restore 377 93 pd \$0-windowing;
#X text 290 287 see helpfile for more info;
#X text 287 310 fd_vidfft-help.pd;
#X text 422 334 fdch;
#X obj 330 37 route coef smooth crop window, f 11;
#X obj 13 34 route float size, f 5;
#N canvas 0 22 521 434 arrays 0;
#X obj 61 193 list prepend 0;
#X obj 125 251 array define \$0-orig;
#X obj 168 84 list length;
#X msg 168 223 resize \$1;
#X obj 34 67 t b a a;
#X obj 61 170 list;
#X obj 34 116 del 33;
#X obj 283 213 array define \$0-fft;
#X obj 168 148 t f f;
#X msg 276 189 resize \$1;
#X obj 34 141 t b b;
#X obj 276 165 / 2;
#X obj 125 273 array define \$0-ifft;
#X obj 283 233 array define \$0-histo;
#X obj 168 107 change;
#X obj 177 128 r \$0-blocksize;
#X obj 34 24 inlet list;
#X obj 34 341 outlet bang;
#X connect 0 0 1 0;
#X connect 2 0 14 0;
#X connect 3 0 1 0;
#X connect 3 0 12 0;
#X connect 4 0 6 0;
#X connect 4 1 5 1;
#X connect 4 2 2 0;
#X connect 5 0 0 0;
#X connect 6 0 10 0;
#X connect 8 0 3 0;
#X connect 8 1 11 0;
#X connect 9 0 7 0;
#X connect 9 0 13 0;
#X connect 10 0 17 0;
#X connect 10 1 5 0;
#X connect 11 0 9 0;
#X connect 14 0 8 0;
#X connect 15 0 8 0;
#X connect 16 0 4 0;
#X restore 198 314 pd arrays;
#X obj 126 99 t a a;
#X obj 153 283 pix_dump;
#X obj 153 185 pix_grey;
#X obj 153 208 pix_histo \$0-histo;
#X obj 153 250 t b a;
#N canvas 593 14 421 514 fft 0;
#X obj 27 331 bang~;
#X obj 27 353 t b b;
#X obj 27 375 timer;
#X msg 27 416 1000 \$1;
#X obj 27 438 /;
#X obj 27 479 outlet;
#X obj 23 120 switch~ 16384 1 1;
#X obj 23 24 inlet;
#X msg 38 90 set \$1 1 1;
#X obj 38 48 r \$0-blocksize;
#X obj 289 93 tgl 15 0 empty empty empty 17 7 0 10 -262144 -1 -1 0
1;
#X obj 289 113 s \$0-mode;
#N canvas 544 39 528 721 one 0;
#X obj 158 24 tabreceive~ \$0-orig;
#X obj 218 125 *~;
#X obj 245 125 *~;
#X obj 218 151 sqrt~;
#X obj 230 201 *~;
#X obj 230 223 tabsend~ \$0-fft;
#X obj 158 92 rfft~;
#X obj 157 567 tabsend~ \$0-ifft;
#X msg 390 395 2 \$1;
#X obj 390 417 /;
#X obj 157 411 rifft~;
#X obj 390 373 * 2;
#X obj 390 217 loadbang;
#X obj 245 311 r \$0-smooth;
#X obj 415 295 r \$0-coef;
#X obj 399 272 r \$0-blocksize;
#X obj 245 179 tabreceive~ \$0-window;
#X msg 390 239 16384;
#X obj 415 317 t b f;
#N canvas 97 513 273 315 gt 0;
#X obj 56 171 outlet~;
#X obj 206 18 inlet;
#X obj 38 21 inlet~;
#X obj 206 40 sig~;
#X obj 71 123 clip~ -1 1;
#X obj 71 94 max~;
#X connect 1 0 3 0;
#X connect 2 0 5 0;
#X connect 3 0 5 1;
#X connect 4 0 0 0;
#X connect 5 0 4 0;
#X restore 218 335 pd gt;
#X obj 157 364 *~;
#X obj 185 364 *~;
#X obj 157 438 *~;
#X obj 218 281 /~ 128;
#X obj 251 256 sqrt;
#X floatatom 454 318 5 0 0 0 - - -, f 5;
#X floatatom 265 337 5 0 0 0 - - -, f 5;
#X floatatom 261 377 5 0 0 0 - - -, f 5;
#X floatatom 314 360 5 0 0 0 - - -, f 5;
#X obj 157 545 clip~ 0 1;
#X obj 314 379 * 0.0001;
#X obj 375 30 inlet;
#X obj 375 52 switch~;
#X connect 0 0 6 0;
#X connect 1 0 3 0;
#X connect 2 0 3 0;
#X connect 3 0 23 0;
#X connect 3 0 4 0;
#X connect 4 0 5 0;
#X connect 6 0 1 0;
#X connect 6 0 1 1;
#X connect 6 0 20 0;
#X connect 6 1 2 0;
#X connect 6 1 2 1;
#X connect 6 1 21 0;
#X connect 8 0 9 0;
#X connect 9 0 22 1;
#X connect 10 0 22 0;
#X connect 11 0 8 0;
#X connect 12 0 17 0;
#X connect 13 0 19 1;
#X connect 14 0 18 0;
#X connect 15 0 11 0;
#X connect 15 0 24 0;
#X connect 16 0 4 1;
#X connect 17 0 11 0;
#X connect 17 0 24 0;
#X connect 18 0 11 0;
#X connect 18 1 11 1;
#X connect 19 0 20 1;
#X connect 19 0 21 1;
#X connect 20 0 10 0;
#X connect 21 0 10 1;
#X connect 22 0 29 0;
#X connect 23 0 19 0;
#X connect 24 0 23 1;
#X connect 25 0 18 0;
#X connect 26 0 19 1;
#X connect 28 0 30 0;
#X connect 29 0 7 0;
#X connect 30 0 27 0;
#X connect 31 0 32 0;
#X restore 181 64 pd one;
#X obj 184 23 tgl 15 0 empty empty empty 17 7 0 10 -262144 -1 -1 1
1;
#X obj 189 92 tgl 15 0 empty empty empty 17 7 0 10 -262144 -1 -1 0
1;
#X obj 190 163 tgl 15 0 empty empty empty 17 7 0 10 -262144 -1 -1 0
1;
#N canvas 676 68 528 721 two 0;
#X obj 158 24 tabreceive~ \$0-orig;
#X obj 218 125 *~;
#X obj 245 125 *~;
#X obj 218 151 sqrt~;
#X obj 230 201 *~;
#X obj 230 223 tabsend~ \$0-fft;
#X obj 158 92 rfft~;
#X obj 158 671 tabsend~ \$0-ifft;
#X msg 390 395 2 \$1;
#X obj 390 417 /;
#X obj 158 515 rifft~;
#X obj 390 373 * 2;
#X obj 390 217 loadbang;
#X obj 245 311 r \$0-smooth;
#X obj 415 295 r \$0-coef;
#X obj 399 272 r \$0-blocksize;
#X obj 245 179 tabreceive~ \$0-window;
#X msg 390 239 16384;
#X obj 415 317 t b f;
#N canvas 97 513 273 315 gt 0;
#X obj 56 171 outlet~;
#X obj 206 18 inlet;
#X obj 38 21 inlet~;
#X obj 206 40 sig~;
#X obj 71 123 clip~ -1 1;
#X obj 71 94 max~;
#X connect 1 0 3 0;
#X connect 2 0 5 0;
#X connect 3 0 5 1;
#X connect 4 0 0 0;
#X connect 5 0 4 0;
#X restore 218 335 pd gt;
#X obj 158 364 *~;
#X obj 185 364 *~;
#X obj 158 542 *~;
#X obj 218 281 /~ 128;
#X obj 251 256 sqrt;
#X floatatom 454 318 5 0 0 0 - - -, f 5;
#X floatatom 265 337 5 0 0 0 - - -, f 5;
#X obj 104 226 framp~;
#X obj 131 473 *~;
#X obj 161 473 *~;
#X obj 191 473 *~;
#X obj 219 474 *~;
#X obj 131 495 +~;
#X obj 193 494 -~;
#X floatatom 261 377 5 0 0 0 - - -, f 5;
#X floatatom 314 360 5 0 0 0 - - -, f 5;
#X obj 158 649 clip~ 0 1;
#X obj 314 379 * 0.0001;
#X obj 74 298 log~;
#X obj 132 406 vcf~ 1;
#X obj 375 30 inlet;
#X obj 375 52 switch~;
#X msg 339 310 200;
#X obj 147 260 rmstodb~;
#X obj 147 282 *~ 1;
#X floatatom 42 165 5 0 0 0 - - -, f 5;
#X obj 194 408 vcf~;
#X connect 0 0 6 0;
#X connect 1 0 3 0;
#X connect 2 0 3 0;
#X connect 3 0 23 0;
#X connect 3 0 4 0;
#X connect 4 0 5 0;
#X connect 6 0 1 0;
#X connect 6 0 1 1;
#X connect 6 0 20 0;
#X connect 6 0 27 0;
#X connect 6 1 2 0;
#X connect 6 1 2 1;
#X connect 6 1 21 0;
#X connect 6 1 27 1;
#X connect 8 0 9 0;
#X connect 9 0 22 1;
#X connect 10 0 22 0;
#X connect 11 0 8 0;
#X connect 12 0 17 0;
#X connect 12 0 42 0;
#X connect 13 0 19 1;
#X connect 14 0 18 0;
#X connect 15 0 11 0;
#X connect 15 0 24 0;
#X connect 16 0 4 1;
#X connect 17 0 11 0;
#X connect 17 0 24 0;
#X connect 18 0 11 0;
#X connect 18 1 11 1;
#X connect 19 0 20 1;
#X connect 19 0 21 1;
#X connect 20 0 39 0;
#X connect 21 0 46 0;
#X connect 22 0 36 0;
#X connect 23 0 19 0;
#X connect 24 0 23 1;
#X connect 25 0 18 0;
#X connect 26 0 19 1;
#X connect 27 0 38 0;
#X connect 27 1 43 0;
#X connect 28 0 32 0;
#X connect 29 0 32 1;
#X connect 30 0 33 0;
#X connect 31 0 33 1;
#X connect 32 0 10 0;
#X connect 33 0 10 1;
#X connect 34 0 39 2;
#X connect 35 0 37 0;
#X connect 36 0 7 0;
#X connect 37 0 34 0;
#X connect 38 0 39 1;
#X connect 39 0 28 0;
#X connect 39 0 29 0;
#X connect 39 1 30 0;
#X connect 39 1 31 0;
#X connect 40 0 41 0;
#X connect 42 0 35 0;
#X connect 43 0 44 0;
#X connect 44 0 46 1;
#X connect 45 0 44 1;
#X connect 46 0 28 1;
#X connect 46 0 30 1;
#X connect 46 1 29 1;
#X connect 46 1 31 1;
#X restore 190 128 pd two;
#N canvas 618 11 601 585 three 0;
#X obj 190 61 tabreceive~ \$0-orig;
#X obj 250 162 *~;
#X obj 277 162 *~;
#X obj 250 188 sqrt~;
#X obj 267 229 *~;
#X obj 267 251 tabsend~ \$0-fft;
#X obj 190 129 rfft~;
#X obj 190 495 tabsend~ \$0-ifft;
#X msg 422 421 2 \$1;
#X obj 422 443 /;
#X obj 190 422 rifft~;
#X obj 422 399 * 2;
#X obj 422 243 loadbang;
#X obj 277 327 r \$0-smooth;
#X obj 447 321 r \$0-coef;
#X obj 431 298 r \$0-blocksize;
#X obj 282 207 tabreceive~ \$0-window;
#X msg 422 265 16384;
#X obj 447 343 t b f;
#N canvas 97 513 273 315 gt 0;
#X obj 56 171 outlet~;
#X obj 206 18 inlet;
#X obj 38 21 inlet~;
#X obj 206 40 sig~;
#X obj 71 123 clip~ -1 1;
#X obj 71 94 max~;
#X connect 1 0 3 0;
#X connect 2 0 5 0;
#X connect 3 0 5 1;
#X connect 4 0 0 0;
#X connect 5 0 4 0;
#X restore 250 351 pd gt;
#X obj 190 390 *~;
#X obj 217 390 *~;
#X obj 190 449 *~;
#X obj 250 307 /~ 128;
#X obj 283 282 sqrt;
#X floatatom 486 344 5 0 0 0 - - -, f 5;
#X floatatom 297 353 5 0 0 0 - - -, f 5;
#X obj 190 473 clip~ 0 1;
#X obj 407 67 inlet;
#X obj 407 89 switch~;
#X floatatom 88 257 5 0 0 0 - - -, f 5;
#X obj 70 279 *~ 1;
#X obj 190 338 *~;
#X obj 214 338 *~;
#X obj 59 202 delread4~ \$0-ifftdel;
#X obj 259 403 delwrite~ \$0-ifftdel 1000;
#X obj 53 228 -~;
#X obj 39 104 osc~ 10;
#X obj 39 126 *~ 0.5;
#X obj 39 174 *~ 1;
#X obj 91 143 osc~ 100;
#X obj 40 82 +~;
#X floatatom 41 20 5 0 0 0 - - -, f 5;
#X floatatom 96 54 5 0 0 0 - - -, f 5;
#X obj 119 168 * 10;
#X obj 91 166 *~;
#X obj 39 148 +~;
#X obj 93 119 *;
#X obj 97 90 t b f;
#X obj 96 33 * 3;
#X obj 52 408 tabsend~ \$0-fmod;
#X floatatom 24 39 5 0 0 0 - - -, f 5;
#X connect 0 0 6 0;
#X connect 1 0 3 0;
#X connect 2 0 3 0;
#X connect 3 0 4 0;
#X connect 3 0 23 0;
#X connect 4 0 5 0;
#X connect 6 0 1 0;
#X connect 6 0 1 1;
#X connect 6 0 32 0;
#X connect 6 1 2 0;
#X connect 6 1 2 1;
#X connect 6 1 33 0;
#X connect 8 0 9 0;
#X connect 9 0 22 1;
#X connect 10 0 22 0;
#X connect 11 0 8 0;
#X connect 12 0 17 0;
#X connect 13 0 19 1;
#X connect 14 0 18 0;
#X connect 15 0 11 0;
#X connect 15 0 24 0;
#X connect 16 0 4 1;
#X connect 17 0 11 0;
#X connect 17 0 24 0;
#X connect 18 0 11 0;
#X connect 18 1 11 1;
#X connect 19 0 20 1;
#X connect 19 0 21 1;
#X connect 19 0 35 0;
#X connect 20 0 10 0;
#X connect 21 0 10 1;
#X connect 22 0 27 0;
#X connect 23 0 19 0;
#X connect 24 0 23 1;
#X connect 25 0 18 0;
#X connect 26 0 19 1;
#X connect 27 0 7 0;
#X connect 28 0 29 0;
#X connect 30 0 31 1;
#X connect 31 0 32 1;
#X connect 31 0 33 1;
#X connect 32 0 20 0;
#X connect 33 0 21 0;
#X connect 34 0 36 1;
#X connect 36 0 31 0;
#X connect 37 0 38 0;
#X connect 38 0 46 0;
#X connect 39 0 34 0;
#X connect 39 0 36 0;
#X connect 39 0 50 0;
#X connect 40 0 45 0;
#X connect 40 0 46 1;
#X connect 41 0 37 0;
#X connect 42 0 41 0;
#X connect 42 0 47 0;
#X connect 42 0 49 0;
#X connect 43 0 39 1;
#X connect 43 0 44 0;
#X connect 43 0 48 0;
#X connect 44 0 45 1;
#X connect 45 0 41 1;
#X connect 46 0 39 0;
#X connect 47 0 40 0;
#X connect 48 0 47 0;
#X connect 48 1 47 1;
#X connect 49 0 43 0;
#X connect 51 0 47 0;
#X connect 51 0 41 0;
#X restore 191 199 pd three;
#N canvas 0 22 885 703 biquad-test 0;
#X floatatom 594 184 5 0 0 0 - - -, f 5;
#X obj 454 351 pack f f f f f, f 26;
#X floatatom 461 273 5 0 0 0 - - -, f 5;
#X obj 462 289 t b f;
#X floatatom 500 270 5 0 0 0 - - -, f 5;
#X obj 500 289 t b f;
#X floatatom 536 270 5 0 0 0 - - -, f 5;
#X obj 536 289 t b f;
#X floatatom 574 270 5 0 0 0 - - -, f 5;
#X obj 574 289 t b f;
#X floatatom 422 271 5 0 0 0 - - -, f 5;
#X floatatom 544 22 5 0 0 0 - - -, f 5;
#X obj 544 41 / 360;
#X obj 504 118 * 2;
#X obj 504 140 * 3.14159;
#X obj 505 162 t f f f;
#X floatatom 588 214 5 0 0 0 - - -, f 5;
#X obj 504 206 * -1;
#X obj 534 184 cos;
#X obj 504 184 cos;
#X obj 588 233 * -1;
#X msg 572 123 1 \$1;
#X obj 572 145 -;
#X obj 544 63 t f f;
#X obj 187 340 biquad~ 1.41407 -0.9998 1 -1.41421 1;
#X obj 454 373 list prepend set;
#X obj 454 395 list trim;
#X msg 375 417 -0.55 -0.766042 0.766042 0.55 0.44;
#X msg 240 96 -0.37 0.629319 -0.629319 0.37 0.641667;
#X floatatom 541 243 5 0 0 0 - - -, f 5;
#X obj 51 119 switch~;
#X connect 1 0 24 0;
#X connect 1 0 25 0;
#X connect 2 0 3 0;
#X connect 3 0 1 0;
#X connect 3 1 1 1;
#X connect 4 0 5 0;
#X connect 5 0 1 0;
#X connect 5 1 1 2;
#X connect 6 0 7 0;
#X connect 7 0 1 0;
#X connect 7 1 1 3;
#X connect 8 0 9 0;
#X connect 9 0 1 0;
#X connect 9 1 1 4;
#X connect 10 0 1 0;
#X connect 11 0 12 0;
#X connect 12 0 23 0;
#X connect 13 0 14 0;
#X connect 14 0 15 0;
#X connect 15 0 19 0;
#X connect 15 1 18 0;
#X connect 16 0 20 0;
#X connect 16 0 10 0;
#X connect 17 0 2 0;
#X connect 18 0 4 0;
#X connect 19 0 17 0;
#X connect 20 0 6 0;
#X connect 21 0 22 0;
#X connect 23 0 13 0;
#X connect 23 1 21 0;
#X connect 25 0 26 0;
#X connect 26 0 27 0;
#X connect 29 0 8 0;
#X restore 153 276 pd biquad-test;
#X obj 166 417 array define \$0-fmod \$1;
#X obj 289 35 r \$0-mode;
#X obj 224 18 loadbang;
#X msg 224 41 1;
#X connect 0 0 1 0;
#X connect 1 0 2 0;
#X connect 1 1 2 1;
#X connect 2 0 3 0;
#X connect 3 0 4 0;
#X connect 4 0 5 0;
#X connect 7 0 6 0;
#X connect 8 0 6 0;
#X connect 9 0 8 0;
#X connect 10 0 11 0;
#X connect 13 0 12 0;
#X connect 14 0 16 0;
#X connect 15 0 17 0;
#X connect 21 0 22 0;
#X connect 22 0 13 0;
#X restore 198 341 pd fft __;
#N canvas 142 113 701 604 display 1;
#X obj 173 293 list;
#X msg 57 290 GREY;
#X msg 213 158 normalize 1;
#X obj 10 179 pix_separator;
#X obj 33 203 separator;
#X obj 526 309 list;
#X msg 447 319 GREY;
#X obj 440 240 pix_separator;
#X obj 440 262 separator;
#X obj 547 252 array get \$0-ifft;
#X obj 213 180 s \$1-fft;
#X obj 194 236 array get \$0-fft;
#X msg 566 192 normalize 1;
#X obj 489 162 t b b b b;
#X obj 566 214 s \$1-ifft;
#X obj 426 454 pix_flip;
#X obj 450 124 spigot;
#X obj 152 102 spigot 1;
#X obj 491 102 == 0;
#X obj 137 140 t b b b b;
#X obj 151 78 t b b;
#X msg 452 422 vertical;
#X obj 91 453 pix_roll;
#X msg 105 421 axis 1;
#X msg 156 422 128;
#X obj 31 2 inlet;
#X obj 35 144 t a a;
#X obj 271 572 outlet;
#X obj 20 313 s \$0-FFTin1;
#X obj 35 398 r \$0-FFTout1;
#X obj 177 330 s \$0-FFTin2;
#X obj 553 349 s \$0-IFFTin2;
#X obj 376 350 s \$0-IFFTin1;
#X obj 409 396 r \$0-IFFTout1;
#N canvas 0 22 450 300 \$0-pix_set-IFFT 0;
#X obj 10 10 r 1005-IFFTin1;
#X obj 60 10 r 1005-IFFTin2;
#X obj 10 30 pix_set 256 256;
#X obj 10 60 s 1005-IFFTout1;
#X connect 0 0 2 0;
#X connect 1 0 2 1;
#X connect 2 0 3 0;
#X restore 443 371 pd \$0-pix_set-IFFT;
#N canvas 0 22 450 300 \$0-pix_set-FFT 0;
#X obj 10 10 r 1005-FFTin1;
#X obj 60 10 r 1005-FFTin2;
#X obj 10 30 pix_set 128 128;
#X obj 10 60 s 1005-FFTout1;
#X connect 0 0 2 0;
#X connect 1 0 2 1;
#X connect 2 0 3 0;
#X restore 81 356 pd \$0-pix_set-FFT;
#N canvas 605 77 609 497 pix_set-dynamic-creation 0;
#X obj 39 17 r \$0-blocksize;
#X obj 39 67 sqrt;
#X obj 39 89 int;
#X obj 38 215 t f f;
#X obj 65 239 / 2;
#X obj 38 287 pack f f \$0;
#X obj 65 261 int;
#X obj 39 111 moses 4;
#X obj 79 131 moses 8;
#X obj 118 151 moses 16;
#X obj 164 174 moses 32;
#X obj 209 195 moses 64;
#X obj 124 91 moses 128;
#X obj 164 111 moses 256;
#X obj 203 131 moses 512;
#X obj 249 154 moses 1024;
#X obj 294 175 moses 2048;
#X msg 39 133 4;
#X msg 79 153 4;
#X msg 118 173 8;
#X msg 164 196 16;
#X msg 209 217 32;
#X msg 124 113 64;
#X msg 164 133 128;
#X msg 206 152 256;
#X msg 249 176 512;
#X msg 294 197 1024;
#X msg 350 199 2048;
#X msg 38 309 \; pd-\$3-pix_set-IFFT clear \, obj 10 10 r \$3-IFFTin1
\, obj 60 10 r \$3-IFFTin2 \, obj 10 30 pix_set \$1 \$1 \, obj 10 60
s \$3-IFFTout1 \, connect 0 0 2 0 \, connect 1 0 2 1 \, connect 2 0
3 0 \; pd-\$3-pix_set-FFT clear \, obj 10 10 r \$3-FFTin1 \, obj 60
10 r \$3-FFTin2 \, obj 10 30 pix_set \$2 \$2 \, obj 10 60 s \$3-FFTout1
\, connect 0 0 2 0 \, connect 1 0 2 1 \, connect 2 0 3 0 \; \$3-dimen
\$1 \$1 \;;
#X obj 39 39 change;
#X connect 0 0 29 0;
#X connect 1 0 2 0;
#X connect 2 0 7 0;
#X connect 3 0 5 0;
#X connect 3 1 4 0;
#X connect 4 0 6 0;
#X connect 5 0 28 0;
#X connect 6 0 5 1;
#X connect 7 0 17 0;
#X connect 7 1 8 0;
#X connect 8 0 18 0;
#X connect 8 1 9 0;
#X connect 9 0 19 0;
#X connect 9 1 10 0;
#X connect 10 0 20 0;
#X connect 10 1 11 0;
#X connect 11 0 21 0;
#X connect 11 1 12 0;
#X connect 12 0 22 0;
#X connect 12 1 13 0;
#X connect 13 0 23 0;
#X connect 13 1 14 0;
#X connect 14 0 24 0;
#X connect 14 1 15 0;
#X connect 15 0 25 0;
#X connect 15 1 16 0;
#X connect 16 0 26 0;
#X connect 16 1 27 0;
#X connect 17 0 3 0;
#X connect 18 0 3 0;
#X connect 19 0 3 0;
#X connect 20 0 3 0;
#X connect 21 0 3 0;
#X connect 22 0 3 0;
#X connect 23 0 3 0;
#X connect 24 0 3 0;
#X connect 25 0 3 0;
#X connect 26 0 3 0;
#X connect 27 0 3 0;
#X connect 29 0 1 0;
#X restore 258 25 pd pix_set-dynamic-creation;
#X obj 267 261 r \$0-blocksize;
#X obj 513 54 r \$0-mode;
#X obj 30 35 route float;
#X obj 267 305 / 2;
#X obj 447 298 bang;
#X obj 57 264 bang;
#X obj 267 327 del 1 1 samp;
#X obj 267 283 t f b;
#X msg 296 304 stop;
#X msg 98 259 RGBA;
#X obj 209 385 r \$0-dimen;
#X obj 209 407 unpack;
#X obj 209 429 / 2;
#X obj 209 451 int;
#X msg 209 473 set \$1;
#X connect 0 0 30 0;
#X connect 1 0 28 0;
#X connect 2 0 10 0;
#X connect 3 0 4 0;
#X connect 4 0 28 0;
#X connect 5 0 31 0;
#X connect 6 0 32 0;
#X connect 7 0 8 0;
#X connect 8 0 32 0;
#X connect 9 0 5 1;
#X connect 11 0 0 1;
#X connect 12 0 14 0;
#X connect 13 0 5 0;
#X connect 13 1 9 0;
#X connect 13 3 12 0;
#X connect 15 0 27 0;
#X connect 16 0 13 0;
#X connect 17 0 19 0;
#X connect 18 0 16 1;
#X connect 19 0 0 0;
#X connect 19 1 11 0;
#X connect 19 3 2 0;
#X connect 20 0 17 0;
#X connect 20 1 16 0;
#X connect 21 0 15 0;
#X connect 22 0 27 0;
#X connect 23 0 22 0;
#X connect 24 0 22 1;
#X connect 25 0 39 0;
#X connect 26 0 3 0;
#X connect 26 1 7 0;
#X connect 29 0 22 0;
#X connect 33 0 15 0;
#X connect 37 0 44 0;
#X connect 38 0 17 1;
#X connect 38 0 18 0;
#X connect 39 0 20 0;
#X connect 39 1 26 0;
#X connect 40 0 43 0;
#X connect 41 0 6 0;
#X connect 41 0 21 0;
#X connect 42 0 1 0;
#X connect 42 0 23 0;
#X connect 42 0 24 0;
#X connect 43 0 41 0;
#X connect 43 0 42 0;
#X connect 44 0 40 0;
#X connect 44 1 45 0;
#X connect 45 0 43 0;
#X connect 46 0 28 0;
#X connect 47 0 48 0;
#X connect 48 0 49 0;
#X connect 49 0 50 0;
#X connect 50 0 51 0;
#X connect 51 0 24 0;
#X restore 126 393 pd display __________;
#X obj 13 12 inlet;
#X obj 330 13 inlet;
#X text 116 8 dsp must be on for [fft~];
#N canvas 0 22 450 300 arg1 0;
#X obj 36 87 loadbang;
#X obj 36 109 pack \$1;
#X obj 36 131 sel 0;
#X msg 36 153 16384;
#X obj 57 180 outlet;
#X connect 0 0 1 0;
#X connect 1 0 2 0;
#X connect 2 0 3 0;
#X connect 2 1 4 0;
#X connect 3 0 4 0;
#X restore 37 96 pd arg1;
#X obj 367 429 outlet;
#N canvas 0 22 450 300 once 0;
#X obj 56 90 bang;
#X obj 57 154 pack \$0;
#X obj 56 112 spigot 1;
#X obj 56 134 t b b;
#X msg 96 134 0;
#X obj 91 90 r \$0-blocksize;
#X obj 56 64 inlet;
#X obj 57 176 outlet;
#X connect 0 0 2 0;
#X connect 1 0 7 0;
#X connect 2 0 3 0;
#X connect 3 0 1 0;
#X connect 3 1 4 0;
#X connect 4 0 2 1;
#X connect 5 0 2 1;
#X connect 6 0 0 0;
#X restore 367 403 pd once \$0 out;
#X connect 0 0 18 0;
#X connect 1 0 2 0;
#X connect 2 0 0 1;
#X connect 9 0 20 0;
#X connect 10 0 5 0;
#X connect 15 0 4 0;
#X connect 15 1 3 0;
#X connect 15 2 7 0;
#X connect 15 3 11 0;
#X connect 16 0 8 0;
#X connect 16 1 10 0;
#X connect 16 2 0 0;
#X connect 17 0 23 0;
#X connect 18 0 24 0;
#X connect 18 1 9 0;
#X connect 19 1 17 0;
#X connect 20 0 21 0;
#X connect 21 0 22 0;
#X connect 22 0 19 0;
#X connect 22 1 19 0;
#X connect 23 0 24 0;
#X connect 23 0 30 0;
#X connect 24 0 6 0;
#X connect 25 0 16 0;
#X connect 26 0 15 0;
#X connect 28 0 10 0;
#X connect 30 0 29 0;
