#N canvas 757 105 398 224 10;
#X declare -path ~/Documents/fd_lib;
#X obj 27 9 declare -path ~/Documents/fd_lib;
#X msg 24 66 100;
#X obj 24 111 fd_iterate;
#X obj 24 133 t f f, f 23;
#X obj 27 185 tabwrite \$0-welch;
#X obj 228 169 array define \$0-welch;
#X obj 24 88 t f f;
#X obj 24 155 fd_welch 100;
#X floatatom 138 54 5 0 0 0 - - -, f 5;
#X obj 138 73 t b f;
#X connect 1 0 6 0;
#X connect 2 0 3 0;
#X connect 3 0 7 0;
#X connect 3 1 4 1;
#X connect 6 0 2 0;
#X connect 7 0 4 0;
#X connect 8 0 9 0;
#X connect 9 0 1 0;
#X connect 9 1 7 2;
