#N canvas 212 278 486 563 10;
#X obj 24 205 -;
#X obj 24 348 /;
#X obj 24 370 t f f;
#X obj 24 392 *;
#X obj 24 436 -;
#X obj 24 414 swap 1;
#X obj 89 250 / 2;
#X obj 89 223 - 1;
#X obj 23 49 inlet;
#X obj 89 49 inlet;
#X obj 89 137 sel 0;
#X msg 89 172 100;
#X obj 23 71 t f b;
#X obj 24 458 outlet;
#X text 192 273 1-( (n-((N-1)/2)) / ((N-1)/2) )^2;
#X text 184 41 Welsh curve;
#X obj 361 46 inlet;
#X floatatom 361 68 5 0 0 0 - - -, f 5;
#X obj 89 88 pack \$1 \$2;
#X obj 89 110 unpack f f;
#X obj 139 137 sel 2;
#X msg 139 172 2;
#X text 192 232 \$2 or inlet 2 == division factor;
#X text 189 204 \$1 or inlet 1 == N number of steps;
#X connect 0 0 1 0;
#X connect 1 0 2 0;
#X connect 2 0 3 0;
#X connect 2 1 3 1;
#X connect 3 0 5 0;
#X connect 4 0 13 0;
#X connect 5 0 4 0;
#X connect 5 1 4 1;
#X connect 6 0 1 1;
#X connect 6 0 0 1;
#X connect 7 0 6 0;
#X connect 8 0 12 0;
#X connect 9 0 18 0;
#X connect 10 0 11 0;
#X connect 10 1 7 0;
#X connect 11 0 7 0;
#X connect 12 0 0 0;
#X connect 12 1 18 0;
#X connect 16 0 6 1;
#X connect 16 0 17 0;
#X connect 18 0 19 0;
#X connect 19 0 10 0;
#X connect 19 1 20 0;
#X connect 20 0 21 0;
#X connect 20 1 6 1;
#X connect 21 0 6 1;
