#N canvas 514 85 577 585 10;
#X obj 59 389 r \$0-t;
#X obj 59 411 * 6.28319;
#X obj 59 433 pow -0.5;
#X obj 90 86 int 1;
#X obj 117 59 r \$0-limit;
#X obj 270 163 inlet;
#X obj 340 163 inlet;
#X obj 270 186 s \$0-t;
#X obj 410 163 inlet;
#X obj 340 186 s \$0-y;
#X obj 90 108 fd_iterate;
#X obj 117 166 * 2;
#X obj 117 209 *;
#X obj 132 187 r \$0-a;
#X obj 480 163 inlet;
#X obj 480 186 s \$0-limit;
#X obj 410 186 s \$0-a;
#X obj 117 235 +, f 13;
#X obj 90 15 inlet;
#X obj 115 302 f;
#X obj 124 276 r \$0-y;
#X obj 117 351 -;
#X obj 117 373 pow 2;
#X obj 117 440 /;
#X obj 131 396 r \$0-t;
#X obj 131 418 * 2;
#X obj 117 462 exp;
#X obj 117 490 +;
#X obj 206 376 pow 2;
#X obj 203 443 /;
#X obj 215 398 r \$0-t;
#X obj 215 420 * 2;
#X obj 203 465 exp;
#X obj 206 354 +;
#X obj 117 257 t b f f;
#X obj 117 327 t f f;
#X obj 64 520 *;
#X obj 64 542 outlet;
#X obj 90 36 t b f, f 17;
#X obj 90 130 t b f;
#X obj 44 457 f;
#X obj 333 29 loadbang;
#X obj 333 51 t b b b b;
#X obj 435 79 f \$4;
#X obj 435 101 sel 0;
#X msg 435 123 1;
#X obj 324 80 f \$1;
#X obj 358 79 f \$2;
#X obj 398 78 f \$3;
#X text 203 33 x;
#X text 147 534 where x and y are the values of the variables at the
instants 0 and t \, respectively \, and k = 0 \, +/- 1 \, +/- 2 \,
...;
#X text 190 7 XENAKIS' method 4 (Weiner-Levy with 2 reflecting barriers)
;
#X text 252 507 Formalized Music page 247;
#X text 264 214 t;
#X text 336 212 y;
#X text 413 212 a;
#X text 481 212 limit;
#X msg 334 296 t \, y \, a \, limit;
#X obj 334 318 print wielevy2;
#X connect 0 0 1 0;
#X connect 1 0 2 0;
#X connect 2 0 40 1;
#X connect 3 0 10 0;
#X connect 4 0 3 1;
#X connect 5 0 7 0;
#X connect 6 0 9 0;
#X connect 8 0 16 0;
#X connect 10 0 39 0;
#X connect 11 0 12 0;
#X connect 12 0 17 0;
#X connect 13 0 12 1;
#X connect 14 0 15 0;
#X connect 17 0 34 0;
#X connect 18 0 38 0;
#X connect 19 0 35 0;
#X connect 20 0 19 1;
#X connect 21 0 22 0;
#X connect 22 0 23 0;
#X connect 23 0 26 0;
#X connect 24 0 25 0;
#X connect 25 0 23 1;
#X connect 26 0 27 0;
#X connect 27 0 36 1;
#X connect 28 0 29 0;
#X connect 29 0 32 0;
#X connect 30 0 31 0;
#X connect 31 0 29 1;
#X connect 32 0 27 1;
#X connect 33 0 28 0;
#X connect 34 0 19 0;
#X connect 34 1 21 1;
#X connect 34 2 33 1;
#X connect 35 0 21 0;
#X connect 35 1 33 0;
#X connect 36 0 37 0;
#X connect 38 0 3 0;
#X connect 38 1 17 1;
#X connect 39 0 40 0;
#X connect 39 1 11 0;
#X connect 40 0 36 0;
#X connect 41 0 42 0;
#X connect 42 0 46 0;
#X connect 42 0 57 0;
#X connect 42 1 47 0;
#X connect 42 2 48 0;
#X connect 42 3 43 0;
#X connect 43 0 44 0;
#X connect 44 0 45 0;
#X connect 44 1 15 0;
#X connect 45 0 15 0;
#X connect 46 0 7 0;
#X connect 47 0 9 0;
#X connect 48 0 16 0;
#X connect 57 0 58 0;
