#N canvas 530 108 683 621 10;
#X text 116 30 weight=cos(pi/2*(alpha-theta)/k);
#X text 111 109 S number of signals;
#X text 346 105 T number of speakers;
#X text 420 188 speaker angle theta;
#X text 158 181 virtual angle alpha;
#X text 459 293 k = skirt of the path;
#X text 98 144 for all S;
#X text 347 137 for all T;
#X floatatom 122 186 5 0 0 0 - - -, f 5;
#X obj 215 272 -;
#X floatatom 381 191 5 0 0 0 - - -, f 5;
#X obj 326 363 /;
#X floatatom 419 293 5 0 0 0 - - -, f 5;
#X obj 383 429 * 1.50708;
#X obj 427 489 cos;
#X obj 169 221 reflect 180;
#X obj 419 312 max 1;
#X obj 381 210 reflect 360;
#X obj 78 387 vsl 15 128 -1 1 0 0 empty empty empty 0 -9 0 10 -262144
-1 -1 51 1;
#X connect 8 0 15 0;
#X connect 9 0 11 0;
#X connect 10 0 17 0;
#X connect 11 0 13 0;
#X connect 12 0 16 0;
#X connect 13 0 14 0;
#X connect 14 0 18 0;
#X connect 15 0 9 0;
#X connect 16 0 11 1;
#X connect 17 0 9 1;
