#N canvas 546 68 636 348 10;
#X floatatom 84 151 5 0 0 0 - - -, f 5;
#X obj 84 190 fd_weightor-control;
#X floatatom 139 171 5 0 0 0 - - -, f 5;
#X floatatom 187 170 5 0 0 0 - - -, f 5;
#X msg 453 19 0 \, destroy \, dimen 300 300 \, create \, 1;
#X obj 453 41 gemwin;
#X obj 414 136 gemhead;
#X obj 414 158 circle 3;
#X msg 479 125 draw line;
#X obj 493 84 loadbang;
#X obj 44 29 gemhead;
#X obj 44 70 t a b;
#X obj 89 89 f;
#X obj 122 88 + 1;
#X obj 46 269 translateXYZ;
#X obj 44 51 color 1 0 0;
#X obj 46 291 circle 0.1;
#X obj 84 212 * 3;
#X floatatom 235 152 5 0 0 0 - - -, f 5;
#X obj 235 191 fd_weightor-control;
#X floatatom 290 172 5 0 0 0 - - -, f 5;
#X floatatom 338 171 5 0 0 0 - - -, f 5;
#X obj 235 213 * 3;
#X obj 89 111 mod 360;
#X connect 0 0 1 0;
#X connect 1 0 17 0;
#X connect 2 0 1 1;
#X connect 3 0 1 2;
#X connect 4 0 5 0;
#X connect 6 0 7 0;
#X connect 8 0 7 0;
#X connect 9 0 8 0;
#X connect 10 0 15 0;
#X connect 11 0 14 0;
#X connect 11 1 12 0;
#X connect 12 0 13 0;
#X connect 12 0 23 0;
#X connect 13 0 12 1;
#X connect 14 0 16 0;
#X connect 15 0 11 0;
#X connect 17 0 14 1;
#X connect 18 0 19 0;
#X connect 19 0 22 0;
#X connect 20 0 19 1;
#X connect 21 0 19 2;
#X connect 22 0 14 2;
#X connect 23 0 0 0;
#X connect 23 0 18 0;
