#N canvas 0 22 733 551 10;
#X obj 104 137 bng 15 250 50 0 \$0-start empty start 17 7 0 10 -262144
-1 -1;
#X obj 167 137 bng 15 250 50 0 \$0-stop empty stop 17 7 0 10 -262144
-1 -1;
#X obj 104 157 bng 15 250 50 0 empty \$0-reset reset 17 7 0 10 -262144
-1 -1;
#X obj 104 176 nbx 2 20 0 60 0 0 empty \$0-min empty 0 -8 0 15 -262144
-1 -1 0 256;
#X obj 150 176 nbx 2 20 0 60 0 0 empty \$0-sec empty 0 -8 0 15 -262144
-1 -1 0 256;
#X obj 194 176 nbx 3 20 0 999 0 0 empty \$0-msec empty 0 -8 0 15 -262144
-1 -1 0 256;
#X obj 104 117 bng 15 250 50 0 \$0-open empty empty 17 7 0 10 -262144
-1 -1;
#X symbolatom 123 117 20 0 0 0 - #0-setname #0-filename, f 20;
#X obj 529 755 cnv 15 100 60 empty empty empty 20 12 0 14 -233017 -66577
0;
#X obj 323 106 inlet~;
#X obj 323 163 writesf~ 1;
#N canvas 0 22 272 285 fileinfo 0;
#X msg 90 179 start;
#X msg 163 180 stop;
#X obj 27 55 t a a;
#X obj 54 106 symbol \$1;
#X msg 27 180 open \$1;
#X obj 27 33 savepanel;
#X obj 74 55 loadbang;
#X msg 74 77 open_a_file_to_write;
#X obj 90 158 r \$0-start;
#X obj 163 159 r \$0-stop;
#X obj 27 12 r \$0-open;
#X obj 54 128 s \$0-setname;
#X obj 27 243 outlet;
#X obj 132 55 r \$0-reset;
#X obj 146 127 print FILE:;
#X obj 146 107 r \$0-filename;
#X connect 0 0 12 0;
#X connect 1 0 12 0;
#X connect 2 0 4 0;
#X connect 2 1 3 0;
#X connect 3 0 11 0;
#X connect 4 0 12 0;
#X connect 5 0 2 0;
#X connect 6 0 7 0;
#X connect 7 0 3 0;
#X connect 8 0 0 0;
#X connect 9 0 1 0;
#X connect 10 0 5 0;
#X connect 13 0 7 0;
#X connect 15 0 14 0;
#X restore 341 134 pd fileinfo;
#N canvas 0 22 177 194 reset 0;
#X obj 34 72 t a a a;
#X obj 73 92 s \$0-msec;
#X obj 53 114 s \$0-sec;
#X obj 34 133 s \$0-min;
#X obj 34 27 r \$0-reset;
#X msg 34 49 set 0;
#X connect 0 0 3 0;
#X connect 0 1 2 0;
#X connect 0 2 1 0;
#X connect 4 0 5 0;
#X connect 5 0 0 0;
#X restore 257 130 pd reset;
#N canvas 0 22 218 338 timer 0;
#X obj 25 57 tgl 15 0 empty empty empty 17 7 0 10 -262144 -1 -1 0 1
;
#X obj 25 77 metro 1;
#X obj 25 109 f;
#X obj 56 110 + 1;
#X obj 25 187 / 1000;
#X obj 81 226 int;
#X obj 81 248 % 60;
#X obj 25 250 / 60;
#X obj 25 271 int;
#X msg 96 76 0;
#X msg 25 34 1;
#X obj 39 138 % 1000;
#X msg 59 55 0;
#X obj 25 209 t f f;
#X obj 25 293 s \$0-min;
#X obj 81 270 s \$0-sec;
#X obj 39 160 s \$0-msec;
#X obj 25 11 r \$0-start;
#X obj 96 55 r \$0-start;
#X obj 126 77 r \$0-reset;
#X obj 59 32 r \$0-stop;
#X connect 0 0 1 0;
#X connect 1 0 2 0;
#X connect 2 0 3 0;
#X connect 2 0 4 0;
#X connect 2 0 11 0;
#X connect 3 0 2 1;
#X connect 4 0 13 0;
#X connect 5 0 6 0;
#X connect 6 0 15 0;
#X connect 7 0 8 0;
#X connect 8 0 14 0;
#X connect 9 0 2 1;
#X connect 9 0 5 1;
#X connect 9 0 8 1;
#X connect 10 0 0 0;
#X connect 11 0 16 0;
#X connect 12 0 0 0;
#X connect 13 0 7 0;
#X connect 13 1 5 0;
#X connect 17 0 10 0;
#X connect 18 0 9 0;
#X connect 19 0 9 0;
#X connect 20 0 12 0;
#X restore 257 106 pd timer;
#X obj 323 185 r \$0-msec;
#X obj 323 207 outlet;
#X connect 9 0 10 0;
#X connect 11 0 10 0;
#X connect 14 0 15 0;
#X coords 0 -1 1 1 150 100 1 100 100;
