#N canvas 528 48 666 471 12;
#X obj 18 149 t f b;
#X obj 54 180 cuadratic;
#X obj 18 124 line 0 1;
#X obj 54 205 * 100;
#X floatatom 137 188 5 1 170 0 - - -, f 5;
#X floatatom 79 57 5 1 20 0 - - -, f 5;
#X floatatom 78 238 5 1 20 0 - - -, f 5;
#X obj 18 64 t f b;
#X floatatom 136 245 5 0 999 0 - - -, f 5;
#X msg 18 30 1000;
#N canvas 0 22 450 300 c-container 0;
#X obj 225 175 fd_plot 99 pd-c-container;
#X coords 0 0 450 350 450 350 2 0 0;
#X restore 193 25 pd c-container;
#X obj 16 375 loadbang;
#X msg 16 401 \; pd-c-container clear \, obj 225 175 fd_plot 99 pd-c-container
\, loadbang;
#X obj 16 315 s fd_plot-99;
#X msg 130 84 clear;
#X msg 16 287 append \$1 \$2 \$3 \$4;
#X msg 18 92 -220 \, 220 \$1;
#X obj 16 262 pack f f 6 0;
#X connect 0 0 17 0;
#X connect 0 1 1 0;
#X connect 1 0 3 0;
#X connect 2 0 0 0;
#X connect 3 0 17 1;
#X connect 4 0 3 1;
#X connect 5 0 2 2;
#X connect 6 0 17 2;
#X connect 7 0 16 0;
#X connect 7 1 14 0;
#X connect 8 0 17 3;
#X connect 9 0 7 0;
#X connect 11 0 12 0;
#X connect 14 0 13 0;
#X connect 15 0 13 0;
#X connect 16 0 2 0;
#X connect 17 0 15 0;
