#N canvas 453 197 425 98 36;
#N canvas 237 23 1024 751 (subpatch) 0;
#X obj 0 0 cnv 15 400 80 empty empty empty 20 12 0 14 -233017 -66577
0;
#X msg 929 243 rewind;
#X msg 64 335 bang;
#X msg 797 207 clear;
#X obj 56 699 symbol \$1;
#X symbolatom 4 21 17 0 0 0 - #0-sym -, f 17;
#X obj 20 127 metro 100;
#X obj 63 196 t b b;
#X obj 241 128 int;
#X obj 4 2 tgl 15 0 empty algstart empty 17 7 0 10 -262144 -1 -1 1
1;
#X obj 22 -50 loadbang;
#X obj 26 3 bng 15 250 50 0 empty algreset empty 17 7 0 10 -262144
-1 -1;
#X obj 58 4 hsl 320 15 0 127 0 0 empty \$0-bline empty -2 -8 0 10 -262144
-1 -1 11261 1;
#X msg 235 461 0 \, 127 \$1;
#X obj 235 515 line;
#X obj 300 393 s algtxt\$1;
#X obj 777 312 text define nouns;
#X obj 56 766 s \$0-sym;
#X obj 170 330 t f f f f;
#X obj 235 569 s \$0-bline;
#X obj 59 444 int;
#X obj 55 487 text get nouns;
#X obj 170 269 crand 0 1500;
#X obj 241 182 max 100;
#X obj 465 426 del;
#X obj 585 24 r init;
#X obj 595 83 t b b;
#X msg 595 137 1;
#X msg 783 137 read bataille.txt;
#X obj 78 636 list split;
#X obj 79 567 random;
#X obj 126 575 list length;
#X obj 126 553 t a a;
#X obj 81 613 list;
#X obj 79 589 t b f;
#X obj 106 656 list split 1;
#X obj 55 512 route bang list;
#X connect 1 0 16 0;
#X connect 3 0 16 0;
#X connect 4 0 17 0;
#X connect 6 0 7 0;
#X connect 7 0 2 0;
#X connect 7 1 22 0;
#X connect 8 0 23 0;
#X connect 9 0 6 0;
#X connect 10 0 11 0;
#X connect 11 0 26 0;
#X connect 13 0 14 0;
#X connect 14 0 19 0;
#X connect 18 0 20 0;
#X connect 18 1 13 0;
#X connect 18 2 15 0;
#X connect 18 3 8 0;
#X connect 20 0 21 0;
#X connect 21 0 36 0;
#X connect 22 0 18 0;
#X connect 23 0 6 1;
#X connect 25 0 26 0;
#X connect 26 0 27 0;
#X connect 26 1 28 0;
#X connect 27 0 9 0;
#X connect 28 0 16 0;
#X connect 29 1 35 0;
#X connect 30 0 34 0;
#X connect 31 0 30 1;
#X connect 32 0 31 0;
#X connect 32 1 33 1;
#X connect 33 0 29 0;
#X connect 34 0 33 0;
#X connect 34 1 29 1;
#X connect 35 0 4 0;
#X connect 36 0 30 0;
#X connect 36 1 32 0;
#X coords 0 1 100 -1 400 80 1 0 0;
#X restore 4 6 graph;
