#N canvas 764 49 450 300 10;
#X obj 49 9 gemhead;
#X obj 49 30 pix_video;
#X obj 53 256 pix_texture;
#X obj 53 277 square 4;
#X msg 293 50 create \, 1;
#X obj 306 110 gemwin;
#X obj 49 55 pix_grey;
#X obj 29 170 spigot;
#X obj 48 123 t a a;
#X obj 97 167 spigot;
#X obj 127 115 tgl 15 0 empty empty empty 17 7 0 10 -262144 -1 -1 1
1;
#X obj 143 164 == 0;
#X msg 324 77 0 \, destroy;
#X obj 30 217 pix_fft2;
#X obj 49 96 pix_crop 0 0 128 128;
#X obj 93 218 pix_opencv/pix_opencv_dft;
#X obj 93 194 t b a;
#X obj 117 67 t f f;
#X msg 123 20 256;
#X msg 151 20 128;
#X obj 127 135 t f f;
#X msg 166 44 64;
#X obj 53 197 tgl 15 0 empty empty empty 17 7 0 10 -262144 -1 -1 1
1;
#X connect 0 0 1 0;
#X connect 1 0 6 0;
#X connect 2 0 3 0;
#X connect 4 0 5 0;
#X connect 6 0 14 0;
#X connect 7 0 13 0;
#X connect 8 0 7 0;
#X connect 8 1 9 0;
#X connect 9 0 16 0;
#X connect 10 0 20 0;
#X connect 11 0 9 1;
#X connect 12 0 5 0;
#X connect 13 0 2 0;
#X connect 14 0 8 0;
#X connect 15 0 2 0;
#X connect 16 0 15 0;
#X connect 16 1 15 0;
#X connect 17 0 14 1;
#X connect 17 1 14 2;
#X connect 18 0 17 0;
#X connect 19 0 17 0;
#X connect 20 0 7 1;
#X connect 20 1 11 0;
#X connect 21 0 17 0;
#X connect 22 0 15 0;
#X connect 22 0 13 0;
