#N canvas 500 50 530 480 12;
#X declare -path fd_lib;
#X obj 4 4 cnv 15 522 30 empty empty "fd_write2" 20 15 0 15 -228856
-1 0;
#X obj 4 254 cnv 15 522 20 empty empty arguments: 10 10 0 14 -228856
-1 0;
#X obj 4 314 cnv 15 522 20 empty empty inlets: 10 10 0 14 -228856 -1
0;
#X obj 4 374 cnv 15 522 20 empty empty outlets: 10 10 0 14 -228856
-1 0;
#X obj 4 453 cnv 15 522 20 empty empty version 10 10 0 14 -228856 -1
0;
#X obj 380 8 declare -path fd_lib;
#N canvas 0 22 450 300 meta 0;
#X text 10 10 fd_lib - metadata file - Mon Sep 30 00:47:15 EDT 2019
;
#X text 10 25 patch_name : fd_write2;
#X text 10 40 inlet : 0;
#X text 10 55 outlet : 0;
#X text 10 70 inlet~ : 0;
#X text 10 85 outlet~ : 0;
#X text 10 100 arguments : 1;
#X text 10 115 classes used : 25;
#X text 10 130 total objects: 71;
#X text 10 145 connections : 72;
#X text 10 160 dependencies : 0 [0];
#X text 10 175 externals : 0 [0];
#X text 10 190 internals : 25/233 [0r:s:t:r~:bng:nbx:tgl:symbol:s~:outlet~:outlet:line~:int:inlet~:*~:/:%:writesf~:savepanel:route:print:metro:loadbang:f:+]
;
#X restore 438 423 pd meta;
#X text 440 452 fd_lib v0.1;
#X text 60 284 1 arguments;
#X text 60 340 0 inlets;
#X text 60 410 0 outlets;
#X text 233 193 reset: all counters back to 0;
#X text 235 216 stop: stop recording;
#X text 233 172 start: start file recording;
#X text 236 151 MESSAGES:;
#X text 237 113 OPEN FILE TO WRITE FIRST!;
#X text 14 81 ***********************************************************
;
#X text 139 63 STEREO FILE RECORDER;
#X text 14 51 ***********************************************************
;
#X obj 46 129 fd_write2;
