#N canvas 0 22 449 300 12;
#X obj 31 104 spigot 1;
#X msg 81 126 0;
#X obj 31 26 inlet;
#X obj 31 126 t a b;
#X obj 31 170 outlet;
#X obj 175 24 inlet;
#X obj 107 77 bang;
#X msg 107 103 1;
#X connect 0 0 3 0;
#X connect 1 0 0 1;
#X connect 2 0 0 0;
#X connect 3 0 4 0;
#X connect 3 1 1 0;
#X connect 5 0 6 0;
#X connect 6 0 7 0;
#X connect 7 0 0 1;
