#N canvas 601 160 511 579 12;
#X obj 52 274 t a b;
#X obj 313 138 pix_buffer \$0-buf 300;
#X obj 52 299 pix_buffer_write \$0-buf;
#X obj 180 221 f;
#X obj 215 222 + 1;
#X obj 180 246 sel 299;
#X obj 117 179 t f f;
#X obj 164 179 sel 1;
#X msg 153 145 0;
#X obj 153 93 loadbang;
#X obj 71 388 gemhead;
#X obj 71 483 pix_buffer_read \$0-buf;
#X obj 71 413 t a b;
#X obj 174 421 f;
#X obj 217 421 + 1;
#X obj 260 421 mod 300;
#X msg 71 338 1;
#X msg 270 323 0;
#X msg 117 145 1;
#X obj 334 398 min 299;
#X obj 334 463 max;
#X obj 180 271 t b b;
#X obj 233 271 t f b;
#X obj 71 363 change -1;
#X obj 52 517 outlet;
#X obj 313 176 t f f;
#X obj 350 201 - 1;
#X obj 350 226 t f f;
#X obj 158 343 t f f;
#X obj 117 24 inlet;
#X obj 276 98 t b a;
#X obj 52 24 inlet;
#X obj 52 199 spigot;
#X obj 327 511 outlet;
#X obj 117 67 route bang float;
#X obj 174 446 t f f;
#X obj 259 446 sel;
#X obj 334 423 t f f;
#X obj 371 446 == 0;
#X obj 174 394 spigot 1;
#X obj 153 118 t b b b;
#X connect 0 0 2 0;
#X connect 0 1 3 0;
#X connect 1 0 25 0;
#X connect 2 0 24 0;
#X connect 3 0 4 0;
#X connect 3 0 5 0;
#X connect 4 0 3 1;
#X connect 5 0 21 0;
#X connect 5 1 22 0;
#X connect 6 0 32 1;
#X connect 6 1 7 0;
#X connect 7 1 3 1;
#X connect 8 0 6 0;
#X connect 9 0 40 0;
#X connect 10 0 12 0;
#X connect 11 0 24 0;
#X connect 12 0 11 0;
#X connect 12 1 39 0;
#X connect 13 0 14 0;
#X connect 13 0 35 0;
#X connect 14 0 15 0;
#X connect 15 0 13 1;
#X connect 16 0 23 0;
#X connect 17 0 28 0;
#X connect 18 0 6 0;
#X connect 19 0 37 0;
#X connect 20 0 11 1;
#X connect 21 0 16 0;
#X connect 21 1 8 0;
#X connect 22 0 2 1;
#X connect 22 1 17 0;
#X connect 23 0 10 0;
#X connect 25 0 15 1;
#X connect 25 1 26 0;
#X connect 26 0 27 0;
#X connect 27 0 5 1;
#X connect 27 1 19 1;
#X connect 28 0 23 0;
#X connect 28 1 13 1;
#X connect 29 0 34 0;
#X connect 30 0 40 0;
#X connect 30 1 1 0;
#X connect 31 0 32 0;
#X connect 32 0 0 0;
#X connect 34 0 18 0;
#X connect 34 1 19 0;
#X connect 34 2 30 0;
#X connect 35 0 11 1;
#X connect 35 1 36 0;
#X connect 36 0 33 0;
#X connect 37 0 20 0;
#X connect 37 1 38 0;
#X connect 38 0 39 1;
#X connect 39 0 13 0;
#X connect 40 0 8 0;
#X connect 40 1 1 0;
#X connect 40 2 17 0;
