#N canvas 494 27 561 700 12;
#X obj 44 299 f;
#X obj 44 595 f;
#X obj 184 357 + 1;
#X obj 201 595 f;
#X text 207 648 list[j+1] = list[j];
#X text 40 654 list[j] = tmp;
#X obj 44 439 t f f;
#X msg 103 247 0;
#X obj 184 439 t f f;
#X obj 184 384 t f f;
#X obj 90 193 - 1;
#X obj 44 195 until;
#X obj 44 226 f;
#X obj 44 250 until;
#X obj 44 123 array size \$1;
#X obj 98 300 mod;
#X obj 44 10 inlet;
#X obj 74 88 t b f, f 43;
#X obj 44 482 >;
#X obj 44 522 sel 1;
#X obj 44 554 t b b;
#X obj 44 383 t f f;
#X obj 44 338 t f f;
#X obj 372 503 t f;
#X obj 44 411 array get \$1 0 1;
#X obj 184 411 array get \$1 0 1;
#X obj 44 34 route bang float list set;
#X obj 265 329 t a a a;
#X obj 323 563 t a a;
#X obj 178 59 symbol;
#X obj 297 211 array define \$0-t;
#X obj 174 112 t a a a;
#X obj 168 210 symbol \$0-t;
#X obj 168 258 list trim;
#X obj 168 287 fd_arraycopy;
#X obj 201 621 array set \$0-t 0 1;
#X obj 44 621 array set \$0-t 0 1;
#X obj 44 147 t b f;
#X obj 168 234 list append \$1;
#X obj 44 169 t f f b f f, f 18;
#X msg 297 184 resize \$1 \, const 0;
#X obj 71 299 + 1;
#X connect 0 0 22 0;
#X connect 0 0 41 0;
#X connect 1 0 36 0;
#X connect 2 0 9 0;
#X connect 3 0 35 0;
#X connect 6 0 18 0;
#X connect 6 1 3 1;
#X connect 7 0 0 1;
#X connect 8 0 18 1;
#X connect 8 1 1 1;
#X connect 9 0 25 0;
#X connect 9 1 35 1;
#X connect 10 0 12 1;
#X connect 11 0 12 0;
#X connect 12 0 13 0;
#X connect 13 0 0 0;
#X connect 14 0 37 0;
#X connect 15 0 0 1;
#X connect 16 0 26 0;
#X connect 17 0 14 0;
#X connect 17 1 23 0;
#X connect 18 0 19 0;
#X connect 19 0 20 0;
#X connect 20 0 1 0;
#X connect 20 1 3 0;
#X connect 21 0 24 0;
#X connect 21 1 36 1;
#X connect 22 0 21 0;
#X connect 22 1 2 0;
#X connect 23 0 19 1;
#X connect 24 0 6 0;
#X connect 25 0 8 0;
#X connect 26 0 14 0;
#X connect 26 1 17 0;
#X connect 26 3 29 0;
#X connect 27 0 24 2;
#X connect 27 1 25 2;
#X connect 27 2 28 0;
#X connect 28 0 36 2;
#X connect 28 1 35 2;
#X connect 29 0 31 0;
#X connect 31 0 14 1;
#X connect 31 1 27 0;
#X connect 31 2 38 1;
#X connect 32 0 38 0;
#X connect 33 0 34 0;
#X connect 37 0 32 0;
#X connect 37 1 39 0;
#X connect 38 0 33 0;
#X connect 39 0 11 0;
#X connect 39 1 10 0;
#X connect 39 2 7 0;
#X connect 39 3 15 1;
#X connect 39 4 40 0;
#X connect 40 0 30 0;
#X connect 41 0 15 0;
