#N canvas 522 50 304 470 12;
#X obj 25 157 until;
#X obj 25 189 t b b;
#X obj 25 250 t b f;
#X obj 25 313 f;
#X obj 58 313 + 1;
#X obj 25 368 swap;
#X obj 25 397 list;
#X msg 82 156 0;
#X obj 163 224 random 150;
#X obj 25 224 random 100;
#X obj 25 338 mod 30;
#X obj 79 277 mod 13;
#X obj 25 19 inlet;
#X obj 25 422 s \$2-\$1;
#X obj 25 81 fd_getsize \$1;
#X obj 25 122 t f b f f, f 24;
#N canvas 0 22 450 300 reload 0;
#X msg 56 86 size \$1;
#X obj 126 59 r reload;
#X obj 56 136 t a b;
#X obj 56 111 spigot 1;
#X msg 108 137 0;
#X msg 126 84 1;
#X obj 65 28 inlet;
#X obj 56 161 outlet;
#X connect 0 0 3 0;
#X connect 1 0 5 0;
#X connect 2 0 7 0;
#X connect 2 1 4 0;
#X connect 3 0 2 0;
#X connect 4 0 3 1;
#X connect 5 0 3 1;
#X connect 6 0 0 0;
#X restore 117 380 pd reload;
#X connect 0 0 1 0;
#X connect 1 0 9 0;
#X connect 1 1 8 0;
#X connect 2 0 3 0;
#X connect 2 1 11 0;
#X connect 3 0 4 0;
#X connect 3 0 10 0;
#X connect 4 0 3 1;
#X connect 5 0 6 0;
#X connect 5 1 6 1;
#X connect 6 0 13 0;
#X connect 7 0 3 1;
#X connect 8 0 5 1;
#X connect 9 0 2 0;
#X connect 10 0 5 0;
#X connect 11 0 4 1;
#X connect 12 0 14 0;
#X connect 14 0 15 0;
#X connect 15 0 0 0;
#X connect 15 1 7 0;
#X connect 15 2 10 1;
#X connect 15 3 16 0;
#X connect 16 0 13 0;
