#N canvas 478 33 544 579 12;
#X obj 108 12 inlet;
#X msg 344 99 resize \$1;
#X obj 248 175 array define \$1 \$2;
#X text 283 19 see fd_windows.pd;
#X obj 231 124 f 1;
#X msg 234 149 normalize \$1;
#X obj 108 34 route bang float q w;
#X msg 327 202 bang;
#X obj 327 227 array size \$1;
#X msg 333 310 \$1 0 \, 0 0;
#X obj 343 258 - 1;
#X obj 382 256 - 2;
#X msg 374 284 \$1 0 \, 1 0;
#X text 44 394 how to calculate the factorial of a signal vector in
pd?;
#X obj 62 93 fd_iterate \$2;
#X obj 62 118 t f f;
#X obj 62 143 / \$2;
#X obj 62 223 array set \$1, f 9;
#X obj 223 99 del 1 \$2 samp;
#X obj 62 173 fd_poisson 0.001;
#X connect 0 0 6 0;
#X connect 1 0 2 0;
#X connect 4 0 5 0;
#X connect 5 0 2 0;
#X connect 6 0 14 0;
#X connect 6 0 18 0;
#X connect 6 1 1 0;
#X connect 6 1 18 1;
#X connect 6 2 4 1;
#X connect 6 3 19 1;
#X connect 6 4 2 0;
#X connect 7 0 8 0;
#X connect 8 0 10 0;
#X connect 8 0 11 0;
#X connect 9 0 2 0;
#X connect 10 0 9 0;
#X connect 11 0 12 0;
#X connect 12 0 2 0;
#X connect 14 0 15 0;
#X connect 15 0 16 0;
#X connect 15 1 17 1;
#X connect 16 0 19 0;
#X connect 18 0 4 0;
#X connect 18 0 7 0;
#X connect 19 0 17 0;
