#N canvas 313 186 450 300 12;
#X obj 76 25 inlet;
#X obj 76 66 t a b;
#X obj 113 93 f;
#X obj 147 93 + 1;
#X obj 179 93 mod 2;
#X obj 76 130 pix_buffer_read \$1;
#X obj 76 155 outlet;
#X obj 194 12 loadbang;
#X obj 194 37 f \$2;
#X obj 194 62 sel;
#X connect 0 0 1 0;
#X connect 1 0 5 0;
#X connect 1 1 2 0;
#X connect 2 0 3 0;
#X connect 2 0 5 1;
#X connect 3 0 4 0;
#X connect 4 0 2 1;
#X connect 5 0 6 0;
#X connect 7 0 8 0;
#X connect 8 0 9 0;
#X connect 9 1 4 1;
