#N canvas 0 22 450 300 12;
#X obj 65 138 fd_pix2list;
#X obj 65 61 t a b;
#X obj 150 81 spigot;
#X obj 208 81 == 0;
#X obj 202 136 change;
#X obj 258 44 array define \$0-vid;
#X obj 202 163 array size \$0-vid;
#X obj 158 194 array set \$0-vid;
#X obj 121 164 t b a;
#X obj 61 253 outlet;
#X obj 121 253 outlet;
#X obj 65 30 inlet;
#X obj 121 228 \$1 \$0-vid;
#X obj 150 106 b;
#X connect 0 0 3 0;
#X connect 0 1 9 0;
#X connect 0 2 8 0;
#X connect 0 3 4 0;
#X connect 1 0 0 0;
#X connect 1 1 2 0;
#X connect 2 0 13 0;
#X connect 3 0 2 1;
#X connect 4 0 6 0;
#X connect 8 0 12 0;
#X connect 8 1 7 0;
#X connect 11 0 1 0;
#X connect 12 0 10 0;
#X connect 13 0 0 1;
