#N canvas 523 50 272 166 10;
#X obj 3 15 tgl 15 0 \$0-onoff \$0-onoff-set empty 17 7 0 10 -262144
-1 -1 0 1;
#X obj 70 5 vsl 10 50 0 127 0 0 empty \$0-cdl empty 0 -9 0 10 -262144
-1 -1 0 1;
#X obj 4 36 nbx 3 20 0 5 0 0 \$0-cd \$0-cd-set empty 0 -8 0 18 -262144
-1 -1 5 256;
#X obj 22 15 nbx 4 15 100 1e+37 0 0 \$0-tmp \$0-tmp-set empty 0 -8
0 10 -262144 -1 -1 500 256;
#N canvas 0 22 140 179 line 0;
#X obj 22 115 line;
#X obj 22 72 f;
#X obj 22 137 s \$0-cdl;
#X obj 37 52 r \$0-tmp;
#X obj 22 27 r \$0-bng;
#X msg 22 93 0 \, 127 \$1;
#X connect 0 0 2 0;
#X connect 1 0 5 0;
#X connect 3 0 1 1;
#X connect 4 0 1 0;
#X connect 5 0 0 0;
#X restore 92 42 pd line;
#N canvas 0 22 154 233 cd 0;
#X obj 14 162 f;
#X obj 14 53 spigot;
#X obj 22 113 sel 1;
#X obj 42 163 - 1;
#X obj 22 90 r \$0-onoff;
#X obj 47 32 r \$0-onoff;
#X obj 14 184 s \$0-cd-set;
#X obj 14 9 r \$0-bng;
#X msg 22 136 5;
#X connect 0 0 3 0;
#X connect 0 0 6 0;
#X connect 1 0 0 0;
#X connect 2 0 8 0;
#X connect 3 0 0 1;
#X connect 4 0 2 0;
#X connect 5 0 1 1;
#X connect 7 0 1 0;
#X connect 8 0 0 0;
#X restore 93 63 pd cd;
#N canvas 0 22 204 116 lb 0;
#X obj 19 10 loadbang;
#X msg 19 32 500;
#X obj 19 54 s \$0-tmp-set;
#X obj 97 55 s \$0-cd-set;
#X msg 97 31 5;
#X connect 0 0 1 0;
#X connect 0 0 4 0;
#X connect 1 0 2 0;
#X connect 4 0 3 0;
#X restore 92 1 pd lb;
#N canvas 0 22 186 140 metro 0;
#X obj 24 64 metro 500, f 12;
#X obj 93 35 r \$0-tmp;
#X obj 24 35 r \$0-onoff;
#X obj 24 86 s \$0-bng;
#X connect 0 0 3 0;
#X connect 1 0 0 1;
#X connect 2 0 0 0;
#X restore 92 21 pd metro;
#N canvas 0 22 151 159 limit 0;
#X obj 24 44 sel 0;
#X msg 24 87 0;
#X obj 24 66 del 500;
#X obj 63 45 r \$0-tmp;
#X obj 24 109 s \$0-onoff-set;
#X obj 24 22 r \$0-cd;
#X connect 0 0 2 0;
#X connect 1 0 4 0;
#X connect 2 0 1 0;
#X connect 3 0 2 1;
#X connect 5 0 0 0;
#X restore 131 62 pd limit;
#X obj 10 69 r \$0-cd-set;
#X obj 10 91 outlet;
#X connect 9 0 10 0;
#X coords 0 -1 1 1 85 60 1 0 0;
