#N canvas 322 360 202 224 12;
#X obj 26 23 inlet~;
#X obj 26 179 outlet~;
#X obj 26 91 cos~;
#X obj 26 57 lrshift~ \$1;
#X obj 26 113 *~ 0.5;
#X obj 26 135 +~ 0.5;
#X obj 112 22 block~ \$2;
#X connect 0 0 3 0;
#X connect 2 0 4 0;
#X connect 3 0 2 0;
#X connect 4 0 5 0;
#X connect 5 0 1 0;
