#N canvas 429 22 363 529 12;
#X obj 124 256 +~ 1;
#X msg 199 165 0 \, 1 \$1;
#X obj 124 61 inlet;
#X obj 124 106 moses 0;
#X msg 124 165 1 \, 0 \$1;
#X obj 124 140 abs;
#X obj 124 229 *~ 61;
#X obj 124 312 tabread4~;
#X obj 254 62 inlet;
#X obj 124 192 line~;
#X msg 138 287 set \$1;
#X obj 254 87 fd_seltab;
#X obj 88 459 outlet~;
#X obj 27 63 inlet~;
#X obj 104 384 *~;
#X connect 0 0 7 0;
#X connect 1 0 9 0;
#X connect 2 0 3 0;
#X connect 3 0 5 0;
#X connect 3 1 1 0;
#X connect 4 0 9 0;
#X connect 5 0 4 0;
#X connect 6 0 0 0;
#X connect 7 0 14 1;
#X connect 8 0 11 0;
#X connect 9 0 6 0;
#X connect 10 0 7 0;
#X connect 11 0 10 0;
#X connect 13 0 14 0;
#X connect 14 0 12 0;
