#N canvas 429 22 363 529 12;
#X obj 124 256 +~ 1;
#X msg 199 165 0 \, 1 \$1;
#X obj 124 51 inlet;
#X msg 124 165 1 \, 0 \$1;
#X obj 124 110 abs;
#X obj 124 229 *~ 61;
#X obj 124 312 tabread4~;
#X obj 254 52 inlet;
#X obj 124 192 line~;
#X msg 138 287 set \$1;
#X obj 254 87 fd_seltab;
#X obj 88 459 outlet~;
#X obj 27 53 inlet~;
#X obj 104 384 *~;
#X obj 124 76 moses;
#X connect 0 0 6 0;
#X connect 1 0 8 0;
#X connect 2 0 14 0;
#X connect 3 0 8 0;
#X connect 4 0 3 0;
#X connect 5 0 0 0;
#X connect 6 0 13 1;
#X connect 7 0 10 0;
#X connect 8 0 5 0;
#X connect 9 0 6 0;
#X connect 10 0 9 0;
#X connect 12 0 13 0;
#X connect 13 0 11 0;
#X connect 14 0 4 0;
#X connect 14 1 1 0;
