#N canvas 500 50 530 480 12;
#X declare -path fd_lib;
#X obj 4 4 cnv 15 522 30 empty empty "fd_trunc2n" 20 15 0 15 -228856
-1 0;
#X obj 4 254 cnv 15 522 20 empty empty arguments: 10 10 0 14 -228856
-1 0;
#X obj 4 314 cnv 15 522 20 empty empty inlets: 10 10 0 14 -228856 -1
0;
#X obj 4 374 cnv 15 522 20 empty empty outlets: 10 10 0 14 -228856
-1 0;
#X obj 4 453 cnv 15 522 20 empty empty version 10 10 0 14 -228856 -1
0;
#X obj 380 8 declare -path fd_lib;
#N canvas 0 22 450 300 meta 0;
#X text 10 10 fd_lib - metadata file - Sun Sep 29 16:37:30 EDT 2019
;
#X text 10 25 patch_name : fd_trunc2n;
#X text 10 40 inlet : 1;
#X text 10 55 outlet : 1;
#X text 10 70 inlet~ : 0;
#X text 10 85 outlet~ : 0;
#X text 10 100 arguments : 0;
#X text 10 115 classes used : 12;
#X text 10 130 total objects: 18;
#X text 10 145 connections : 28;
#X text 10 160 dependencies : 0 [0];
#X text 10 175 externals : 0 [0];
#X text 10 190 internals : 12/233 [0t:until:i:sel:pow:outlet:inlet:f:change:==:-:+]
;
#X restore 438 423 pd meta;
#X text 440 452 fd_lib v0.1;
#X text 60 284 0 arguments;
#X text 32 45 Truncate a number to 2^n size;
#X obj 112 190 fd_trunc2n;
#X obj 112 135 random 3000;
#X floatatom 112 215 5 0 0 0 - - -;
#X obj 112 74 tgl 15 0 empty empty empty 17 7 0 10 -262144 -1 -1 0
1;
#X obj 112 94 metro 100;
#X floatatom 122 160 5 0 0 0 - - -;
#X text 60 340 1: float: input size to truncate;
#X text 60 410 1: float: truncated input at 2^n size;
#X connect 10 0 12 0;
#X connect 11 0 10 0;
#X connect 11 0 15 0;
#X connect 13 0 14 0;
#X connect 14 0 11 0;
