#N canvas 586 139 529 496 12;
#X obj 68 338 list split;
#X obj 101 375 list split 1;
#X obj 68 222 t a b a;
#X obj 174 256 list length;
#X obj 68 26 inlet;
#X obj 358 26 inlet;
#X obj 298 263 random;
#X obj 337 240 array size;
#X obj 298 367 array get \$0-array 0 1;
#X obj 68 103 route float symbol;
#X obj 68 127 b;
#X obj 129 127 b;
#X obj 298 192 symbol \$1;
#X obj 358 83 route symbol;
#X obj 68 79 list append \$1;
#X obj 298 287 t f f;
#X obj 330 432 outlet index;
#X obj 101 431 outlet value;
#X obj 135 311 t f f;
#X obj 135 285 random;
#X obj 68 194 list;
#X obj 298 215 t b b a a, f 20;
#X obj 439 115 t a b;
#X msg 471 145 1;
#X obj 358 108 t a b;
#X msg 390 169 symbol dummy;
#X obj 471 60 t a;
#X msg 236 116 args;
#X obj 236 140 pdcontrol;
#X obj 236 91 loadbang;
#X obj 68 52 route bang args;
#X connect 0 1 1 0;
#X connect 1 0 17 0;
#X connect 2 0 0 0;
#X connect 2 1 19 0;
#X connect 2 2 3 0;
#X connect 3 0 19 1;
#X connect 4 0 30 0;
#X connect 5 0 13 0;
#X connect 6 0 15 0;
#X connect 7 0 6 1;
#X connect 8 0 17 0;
#X connect 9 0 10 0;
#X connect 9 1 11 0;
#X connect 10 0 20 0;
#X connect 11 0 12 0;
#X connect 12 0 21 0;
#X connect 13 0 24 0;
#X connect 13 1 22 0;
#X connect 14 0 9 0;
#X connect 15 0 8 0;
#X connect 15 1 16 0;
#X connect 18 0 0 1;
#X connect 18 1 16 0;
#X connect 19 0 18 0;
#X connect 20 0 2 0;
#X connect 21 0 6 0;
#X connect 21 1 7 0;
#X connect 21 2 7 1;
#X connect 21 3 8 2;
#X connect 22 0 20 1;
#X connect 22 1 23 0;
#X connect 23 0 26 0;
#X connect 24 0 12 1;
#X connect 24 1 25 0;
#X connect 25 0 26 0;
#X connect 26 0 14 1;
#X connect 27 0 28 0;
#X connect 28 0 20 1;
#X connect 29 0 27 0;
#X connect 30 0 14 0;
#X connect 30 1 27 0;
