#N canvas 525 50 529 496 12;
#X obj 28 329 list split;
#X obj 61 368 list split 1;
#X obj 28 222 t a b a;
#X obj 109 226 list length;
#X obj 28 19 inlet;
#X obj 318 19 inlet;
#X obj 348 286 random;
#X obj 376 259 array size;
#X obj 366 204 t b b a;
#X obj 313 347 array get \$0-array 0 1;
#X obj 28 78 route float symbol;
#X obj 28 170 list append \$1 \$2 \$3 \$4 \$5 \$6;
#X obj 28 104 b;
#X obj 90 102 b;
#X obj 373 167 symbol \$1;
#X obj 318 46 route symbol;
#X obj 28 52 list append \$1;
#X obj 349 316 t f f;
#X obj 371 419 outlet index;
#X obj 160 427 outlet value;
#X obj 89 290 t f f;
#X obj 89 264 random;
#X connect 0 1 1 0;
#X connect 1 0 19 0;
#X connect 2 0 0 0;
#X connect 2 1 21 0;
#X connect 2 2 3 0;
#X connect 3 0 21 1;
#X connect 4 0 16 0;
#X connect 5 0 15 0;
#X connect 6 0 17 0;
#X connect 7 0 6 1;
#X connect 8 0 6 0;
#X connect 8 1 7 0;
#X connect 8 2 7 1;
#X connect 8 2 9 2;
#X connect 9 0 19 0;
#X connect 10 0 12 0;
#X connect 10 1 13 0;
#X connect 11 0 2 0;
#X connect 12 0 11 0;
#X connect 13 0 14 0;
#X connect 14 0 8 0;
#X connect 15 0 14 1;
#X connect 15 1 11 1;
#X connect 16 0 10 0;
#X connect 17 0 9 0;
#X connect 17 1 18 0;
#X connect 20 0 0 1;
#X connect 20 1 18 0;
#X connect 21 0 20 0;
