#N canvas 500 50 530 480 12;
#X declare -path fd_lib;
#X obj 4 4 cnv 15 522 30 empty empty "fd_spline~" 20 15 0 15 -228856
-1 0;
#X obj 4 254 cnv 15 522 20 empty empty arguments: 10 10 0 14 -228856
-1 0;
#X obj 4 314 cnv 15 522 20 empty empty inlets: 10 10 0 14 -228856 -1
0;
#X obj 4 374 cnv 15 522 20 empty empty outlets: 10 10 0 14 -228856
-1 0;
#X obj 4 453 cnv 15 522 20 empty empty version 10 10 0 14 -228856 -1
0;
#X obj 380 8 declare -path fd_lib;
#N canvas 0 22 450 300 meta 0;
#X text 10 10 fd_lib - metadata file - Sun Sep 29 15:15:46 EDT 2019
;
#X text 10 25 patch_name : fd_spline~;
#X text 10 40 inlet : 1;
#X text 10 55 outlet : 1;
#X text 10 70 inlet~ : 0;
#X text 10 85 outlet~ : 1;
#X text 10 100 arguments : 1;
#X text 10 115 classes used : 14;
#X text 10 130 total objects: 16;
#X text 10 145 connections : 20;
#X text 10 160 dependencies : 0 [0];
#X text 10 175 externals : 2 [0fd_windows:fd_seltab];
#X text 10 190 internals : 12/233 [0line~:*~:unpack:tabread4~:t:route:outlet~:loadbang:inlet:f:del:+~]
;
#X restore 438 423 pd meta;
#X text 440 452 fd_lib v0.1;
#X obj 39 195 *~;
#X obj 39 164 noise~;
#X obj 39 221 dac~;
#X msg 191 160 type \$1;
#X msg 180 107 1 100;
#X obj 113 195 fd_spline~ 4;
#X text 170 78 <-- (list) amplitude time;
#X text 10 40 Envelope generator based on [fd_windows];
#X msg 93 76 0.8 1000;
#X floatatom 191 138 5 0 0 0 - - -;
#X msg 390 63 \; pd dsp 1;
#X text 60 284 1: float: table to select envelope (aka. 'type');
#X text 60 340 1: list: (float) normalized amplitude (float) time in
msec \; 2: 'type': float to select envelope type (see fd_seltab);
#X text 60 410 1: signal: envelope triggered by 'list' message;
#X connect 8 0 10 0;
#X connect 8 0 10 1;
#X connect 9 0 8 0;
#X connect 11 0 13 0;
#X connect 12 0 13 0;
#X connect 13 0 8 1;
#X connect 16 0 13 0;
#X connect 17 0 11 0;
