#N canvas 523 49 452 368 12;
#X msg 66 272 dsp 1;
#X obj 19 320 s pd;
#X msg 156 239 dsp is on;
#X obj 121 132 bang~;
#X msg 119 215 0;
#X obj 62 243 spigot 1;
#X obj 304 88 block~ 16384;
#X obj 31 81 inlet;
#X obj 119 191 t b b b;
#X obj 314 273 outlet;
#X obj 136 301 print fd_dspon;
#X obj 314 215 loadbang;
#X msg 314 240 1;
#X msg 277 211 0;
#X text 184 192 to a switch on parent patch;
#X text 34 24 Bang to turn on DSP. It will do so only if it's off in
the first place \, otherwise it will do nothing, f 47;
#X obj 383 274 outlet;
#X msg 382 250 set 1;
#X msg 17 271 dsp 0;
#X obj 119 166 fd_spigot;
#X msg 83 215 1;
#X obj 30 131 sel;
#X obj 31 106 route float bang;
#X obj 232 124 r pd-dsp-started;
#X msg 232 149 1;
#X connect 0 0 1 0;
#X connect 2 0 10 0;
#X connect 3 0 19 0;
#X connect 4 0 5 1;
#X connect 5 0 0 0;
#X connect 7 0 22 0;
#X connect 8 0 4 0;
#X connect 8 1 2 0;
#X connect 8 2 13 0;
#X connect 8 2 17 0;
#X connect 11 0 12 0;
#X connect 12 0 9 0;
#X connect 13 0 9 0;
#X connect 17 0 16 0;
#X connect 18 0 1 0;
#X connect 19 0 8 0;
#X connect 20 0 5 1;
#X connect 21 0 18 0;
#X connect 21 0 20 0;
#X connect 21 0 19 1;
#X connect 21 1 5 0;
#X connect 22 0 21 0;
#X connect 22 1 5 0;
#X connect 23 0 24 0;
#X connect 24 0 5 1;
