#N canvas 542 22 518 666 12;
#X declare -lib iemmatrix;
#X obj 308 17 inlet;
#X obj 29 184 pix_grey;
#X obj 29 347 pix_dump;
#X obj 342 593 outlet;
#X msg 29 552 0;
#X obj 29 242 t a b;
#X obj 66 275 spigot 1;
#X msg 115 300 0;
#X obj 29 443 spigot 1;
#X obj 29 468 t b b;
#X msg 77 469 0;
#X obj 29 18 inlet;
#X obj 138 590 outlet;
#X msg 308 117 1;
#X obj 236 232 t f f;
#X obj 296 367 list prepend;
#X obj 296 392 list trim;
#X obj 296 509 list split 3;
#X obj 296 476 mtx_reverse;
#X obj 389 280 list prepend matrix, f 7;
#X msg 389 155 \$1 \$1;
#X obj 66 300 t b b;
#X msg 101 443 1;
#X text 101 619 see fd_pix2list-help.pd;
#X obj 29 593 outlet;
#X obj 389 254 t a a;
#X obj 426 560 *;
#X obj 426 592 outlet;
#X obj 389 180 t b a;
#X obj 389 223 list;
#X obj 308 92 t b b;
#X obj 296 451 mtx_transpose;
#X obj 157 16 declare -lib iemmatrix, f 9;
#X obj 29 43 t a a;
#X obj 29 135 fd_pixcrop \$1;
#N canvas 0 22 617 452 crop-orig 0;
#X obj 57 25 inlet;
#X obj 190 26 inlet;
#X obj 363 26 inlet;
#X obj 57 170 spigot;
#X obj 57 50 t a b;
#X obj 174 141 gemlist;
#X obj 174 166 spigot 1;
#X obj 300 101 t f f;
#X obj 300 126 == 0;
#X obj 188 270 rectangle 4 3;
#X obj 71 272 square 4;
#X obj 174 191 pix_texture;
#X obj 57 195 pix_texture;
#X obj 146 350 outlet;
#X obj 363 51 == 0;
#X connect 0 0 4 0;
#X connect 1 0 5 1;
#X connect 2 0 14 0;
#X connect 3 0 12 0;
#X connect 4 0 3 0;
#X connect 4 1 5 0;
#X connect 5 0 6 0;
#X connect 6 0 11 0;
#X connect 7 0 8 0;
#X connect 7 1 6 1;
#X connect 8 0 3 1;
#X connect 9 0 13 0;
#X connect 10 0 13 0;
#X connect 11 0 9 0;
#X connect 12 0 10 0;
#X connect 14 0 7 0;
#X restore 138 542 pd crop-orig;
#X obj 29 414 t b b a, f 14;
#X obj 308 42 route bang float;
#X obj 296 424 mtx_check;
#X connect 0 0 37 0;
#X connect 1 0 5 0;
#X connect 2 0 36 0;
#X connect 2 1 15 0;
#X connect 4 0 24 0;
#X connect 5 0 2 0;
#X connect 5 1 6 0;
#X connect 6 0 21 0;
#X connect 7 0 6 1;
#X connect 8 0 9 0;
#X connect 9 0 4 0;
#X connect 9 1 10 0;
#X connect 10 0 8 1;
#X connect 11 0 33 0;
#X connect 13 0 14 0;
#X connect 14 0 6 1;
#X connect 14 1 24 0;
#X connect 15 0 16 0;
#X connect 16 0 38 0;
#X connect 17 1 3 0;
#X connect 18 0 17 0;
#X connect 19 0 15 1;
#X connect 20 0 28 0;
#X connect 21 0 2 0;
#X connect 21 1 7 0;
#X connect 22 0 8 1;
#X connect 25 0 19 0;
#X connect 25 1 26 0;
#X connect 26 0 27 0;
#X connect 28 0 29 0;
#X connect 28 1 29 1;
#X connect 29 0 25 0;
#X connect 30 0 13 0;
#X connect 30 1 29 0;
#X connect 31 0 18 0;
#X connect 33 0 34 0;
#X connect 33 1 35 1;
#X connect 34 0 1 0;
#X connect 34 2 20 0;
#X connect 35 0 12 0;
#X connect 36 0 8 0;
#X connect 36 1 22 0;
#X connect 36 2 35 0;
#X connect 37 0 30 0;
#X connect 37 1 35 2;
#X connect 37 2 34 1;
#X connect 38 0 31 0;
