#N canvas 641 129 233 318 12;
#X obj 28 127 * 100;
#X obj 78 127 * 10;
#X obj 28 224 +;
#X obj 78 152 t b f;
#X obj 28 253 +;
#X obj 128 151 t b f;
#X obj 28 21 inlet;
#X obj 28 76 max 0;
#X obj 28 101 min 9;
#X obj 78 21 inlet;
#X obj 78 76 max 0;
#X obj 78 101 min 9;
#X obj 128 21 inlet;
#X obj 128 76 max 0;
#X obj 128 101 min 9;
#X obj 28 46 int;
#X obj 78 46 int;
#X obj 128 46 int;
#X obj 28 278 outlet;
#X connect 0 0 2 0;
#X connect 1 0 3 0;
#X connect 2 0 4 0;
#X connect 3 0 2 0;
#X connect 3 1 2 1;
#X connect 4 0 18 0;
#X connect 5 0 4 0;
#X connect 5 1 4 1;
#X connect 6 0 15 0;
#X connect 7 0 8 0;
#X connect 8 0 0 0;
#X connect 9 0 16 0;
#X connect 10 0 11 0;
#X connect 11 0 1 0;
#X connect 12 0 17 0;
#X connect 13 0 14 0;
#X connect 14 0 5 0;
#X connect 15 0 7 0;
#X connect 16 0 10 0;
#X connect 17 0 13 0;
