#N canvas 527 50 329 459 10;
#X obj 87 186 f \$1;
#X msg 88 106 resize \$1;
#X obj 33 105 t b f f;
#X obj 19 153 t b b b b;
#X obj 33 82 change;
#X obj 19 384 fd_gauss 0 1;
#X obj 19 225 i 2028;
#X obj 25 184 sel 0;
#X msg 25 205 2048;
#X obj 19 247 until;
#X obj 19 269 f;
#X obj 46 269 + 1;
#X msg 57 247 0;
#X obj 19 291 t f f;
#X obj 19 313 /;
#X obj 209 311 sel 0;
#X msg 209 333 0;
#X obj 254 311 sel 0;
#X obj 19 335 * 16;
#X obj 19 357 - 8;
#X obj 157 211 t b f;
#X obj 51 336 * 0.5;
#X obj 43 313 t f f;
#X obj 171 264 pack \$2 \$3 \$4;
#X obj 171 288 unpack f f f;
#X obj 171 312 sel 0;
#X obj 19 413 tabwrite gauss-t, f 19;
#X obj 88 127 array define gauss-t \$1;
#X obj 33 60 r gauss-t-size;
#X msg 254 333 0.5;
#X msg 171 333 8;
#X obj 158 167 r fd_gauss-t;
#X obj 158 189 unpack f f f;
#X obj 19 9 r fd_windows;
#X connect 0 0 7 0;
#X connect 0 0 14 1;
#X connect 1 0 27 0;
#X connect 2 0 3 0;
#X connect 2 1 0 1;
#X connect 2 2 1 0;
#X connect 3 0 6 0;
#X connect 3 1 12 0;
#X connect 3 2 23 0;
#X connect 3 3 0 0;
#X connect 4 0 2 0;
#X connect 5 0 26 0;
#X connect 6 0 9 0;
#X connect 7 0 8 0;
#X connect 7 1 6 1;
#X connect 8 0 6 1;
#X connect 9 0 10 0;
#X connect 10 0 11 0;
#X connect 10 0 13 0;
#X connect 11 0 10 1;
#X connect 12 0 10 1;
#X connect 13 0 14 0;
#X connect 13 1 26 1;
#X connect 14 0 18 0;
#X connect 15 0 16 0;
#X connect 17 0 29 0;
#X connect 18 0 19 0;
#X connect 19 0 5 0;
#X connect 20 0 3 0;
#X connect 20 1 23 0;
#X connect 21 0 19 1;
#X connect 22 0 18 1;
#X connect 22 1 21 0;
#X connect 23 0 24 0;
#X connect 24 0 25 0;
#X connect 24 1 15 0;
#X connect 24 2 17 0;
#X connect 25 0 30 0;
#X connect 25 1 22 0;
#X connect 28 0 4 0;
#X connect 30 0 22 0;
#X connect 31 0 32 0;
#X connect 32 0 20 0;
#X connect 32 1 23 1;
#X connect 32 2 23 2;
#X connect 33 0 3 0;
