#N canvas 377 20 563 452 12;
#X floatatom 49 34 5 0 0 0 - - -, f 5;
#X obj 43 94 siginfo;
#X msg 43 64 parse 1 \$1;
#X obj 187 246 sel 0 1;
#X obj 84 226 t f f;
#X obj 144 290 f;
#X obj 187 291 f;
#X obj 43 165 list split 1;
#X obj 84 193 list split 1;
#X obj 187 194 list split 1;
#X obj 187 220 change;
#X obj 144 363 -;
#X obj 144 390 abs;
#X obj 144 416 print;
#X obj 187 327 t b f;
#X obj 144 327 f;
#X text 171 53 get value (for only one input) when up/down;
#X text 126 27 jump value == calculate abs value of diff betwen 1/0
;
#X connect 0 0 2 0;
#X connect 1 0 7 0;
#X connect 1 1 9 0;
#X connect 2 0 1 0;
#X connect 3 0 6 0;
#X connect 3 1 5 0;
#X connect 4 0 5 1;
#X connect 4 1 6 1;
#X connect 5 0 15 0;
#X connect 6 0 14 0;
#X connect 7 1 8 0;
#X connect 8 0 4 0;
#X connect 9 0 10 0;
#X connect 10 0 3 0;
#X connect 11 0 12 0;
#X connect 12 0 13 0;
#X connect 14 0 15 0;
#X connect 14 1 11 1;
#X connect 15 0 11 0;
