#N canvas 414 99 587 341 12;
#X obj 69 171 sel;
#X obj 150 68 f;
#X obj 184 69 + 1;
#X obj 68 127 t b;
#X obj 69 280 outlet;
#X obj 69 196 t b b;
#X msg 70 88 0;
#X obj 150 17 inlet;
#X obj 150 42 bang;
#X obj 69 224 f;
#X obj 200 194 f;
#X obj 231 195 + 1;
#X obj 201 163 bang;
#X obj 69 252 pack f f f;
#X obj 135 196 f;
#X obj 166 197 + 1;
#X obj 136 165 bang;
#X obj 251 89 sel 1 2 3 4 5 6 7 8 9 10;
#X obj 109 128 fd_arg1;
#X obj 184 94 t b f;
#X obj 251 114 list append \$1;
#X obj 341 295 list append \$10;
#X obj 331 275 list append \$9;
#X obj 321 254 list append \$8;
#X obj 311 234 list append \$7;
#X obj 301 214 list append \$6;
#X obj 291 194 list append \$5;
#X obj 281 174 list append \$4;
#X obj 271 154 list append \$3;
#X obj 261 134 list append \$2;
#X obj 172 265 - 1;
#X connect 0 0 5 0;
#X connect 0 1 3 0;
#X connect 1 0 2 0;
#X connect 2 0 1 1;
#X connect 2 0 19 0;
#X connect 3 0 1 0;
#X connect 5 0 9 0;
#X connect 5 1 6 0;
#X connect 6 0 1 1;
#X connect 6 0 14 1;
#X connect 6 0 10 1;
#X connect 7 0 8 0;
#X connect 8 0 1 0;
#X connect 9 0 13 0;
#X connect 10 0 11 0;
#X connect 11 0 10 1;
#X connect 11 0 13 2;
#X connect 12 0 10 0;
#X connect 13 0 4 0;
#X connect 14 0 15 0;
#X connect 15 0 14 1;
#X connect 15 0 13 1;
#X connect 16 0 14 0;
#X connect 17 0 20 0;
#X connect 17 1 29 0;
#X connect 17 2 28 0;
#X connect 17 3 27 0;
#X connect 17 4 26 0;
#X connect 17 5 25 0;
#X connect 17 6 24 0;
#X connect 17 7 23 0;
#X connect 17 8 22 0;
#X connect 17 9 21 0;
#X connect 18 0 0 0;
#X connect 18 1 16 0;
#X connect 18 2 12 0;
#X connect 19 0 18 0;
#X connect 19 1 17 0;
#X connect 19 1 30 0;
#X connect 20 0 18 1;
#X connect 21 0 18 1;
#X connect 22 0 18 1;
#X connect 23 0 18 1;
#X connect 24 0 18 1;
#X connect 25 0 18 1;
#X connect 26 0 18 1;
#X connect 27 0 18 1;
#X connect 28 0 18 1;
#X connect 29 0 18 1;
#X connect 30 0 9 1;
