#N canvas 541 23 739 751 12;
#X obj 195 16 inlet;
#X obj 39 116 gemhead 5;
#X obj 191 584 pix_texture;
#X obj 210 628 rectangle;
#X obj 160 539 translateXYZ;
#X obj 213 459 * 8;
#X obj 213 484 - 4;
#X obj 243 459 * 8;
#X obj 243 484 - 4;
#X obj 146 308 t f f;
#X obj 194 306 t f f;
#X obj 326 215 -;
#X obj 389 215 -;
#X obj 326 265 t f f;
#X obj 326 240 abs;
#X obj 279 482 * 4;
#X obj 389 240 abs;
#X obj 389 265 t f f;
#X obj 321 166 unpack f f f f;
#X obj 313 484 * 4;
#X obj 358 566 list prepend dimen;
#X obj 358 591 list trim;
#X msg 336 644 translate \$1 \$2;
#X obj 317 614 pack;
#X obj 132 419 pix_crop;
#X obj 39 145 fd_bufvid \$1;
#X obj 132 354 * \$2;
#X obj 182 354 * \$3;
#X obj 234 355 * \$2;
#X obj 281 353 * \$3;
#X obj 345 536 pack f f f f \$2 \$3;
#X floatatom 389 289 5 0 0 0 - - -, f 5;
#X floatatom 326 289 5 0 0 0 - - -, f 5;
#X floatatom 132 378 5 0 0 0 - - -, f 5;
#X floatatom 182 378 5 0 0 0 - - -, f 5;
#X floatatom 234 379 5 0 0 0 - - -, f 5;
#X floatatom 281 377 5 0 0 0 - - -, f 5;
#X floatatom 243 508 5 0 0 0 - - -, f 5;
#X floatatom 213 508 5 0 0 0 - - -, f 5;
#X obj 251 15 inlet;
#X obj 39 29 inlet;
#X obj 322 19 inlet;
#X obj 370 15 inlet;
#X obj 370 39 t b a;
#X obj 322 63 pack 1 0;
#X obj 442 19 inlet;
#X obj 490 15 inlet;
#X obj 490 39 t b a;
#X obj 442 63 pack 1 0;
#X obj 322 114 list append;
#X msg 322 138 \$1 \$3 \$2 \$4;
#X obj 442 87 t b a;
#X obj 39 53 t f f;
#X msg 561 546 view \$1;
#X obj 230 692 fd_blobtracks 8 \$2 \$3 6;
#X obj 607 40 inlet;
#X connect 0 0 9 0;
#X connect 1 0 25 0;
#X connect 2 0 3 0;
#X connect 3 0 54 0;
#X connect 4 0 2 0;
#X connect 5 0 6 0;
#X connect 6 0 4 1;
#X connect 6 0 23 0;
#X connect 6 0 38 0;
#X connect 7 0 8 0;
#X connect 8 0 4 2;
#X connect 8 0 23 1;
#X connect 8 0 37 0;
#X connect 9 0 26 0;
#X connect 9 1 5 0;
#X connect 10 0 27 0;
#X connect 10 1 7 0;
#X connect 11 0 14 0;
#X connect 12 0 16 0;
#X connect 13 0 28 0;
#X connect 13 0 32 0;
#X connect 13 1 15 0;
#X connect 14 0 13 0;
#X connect 15 0 3 1;
#X connect 16 0 17 0;
#X connect 17 0 29 0;
#X connect 17 0 31 0;
#X connect 17 1 19 0;
#X connect 18 0 11 0;
#X connect 18 1 12 0;
#X connect 18 2 11 1;
#X connect 18 3 12 1;
#X connect 19 0 3 2;
#X connect 20 0 21 0;
#X connect 21 0 54 1;
#X connect 22 0 54 1;
#X connect 23 0 22 0;
#X connect 24 0 4 0;
#X connect 25 0 24 0;
#X connect 26 0 24 3;
#X connect 26 0 30 0;
#X connect 26 0 33 0;
#X connect 27 0 24 4;
#X connect 27 0 30 1;
#X connect 27 0 34 0;
#X connect 28 0 24 1;
#X connect 28 0 30 2;
#X connect 28 0 35 0;
#X connect 29 0 24 2;
#X connect 29 0 30 3;
#X connect 29 0 36 0;
#X connect 30 0 20 0;
#X connect 39 0 10 0;
#X connect 40 0 52 0;
#X connect 41 0 44 0;
#X connect 42 0 43 0;
#X connect 43 0 44 0;
#X connect 43 1 44 1;
#X connect 44 0 49 0;
#X connect 45 0 48 0;
#X connect 46 0 47 0;
#X connect 47 0 48 0;
#X connect 47 1 48 1;
#X connect 48 0 51 0;
#X connect 49 0 50 0;
#X connect 50 0 18 0;
#X connect 51 0 44 0;
#X connect 51 1 49 1;
#X connect 52 0 1 0;
#X connect 52 1 53 0;
#X connect 53 0 54 1;
#X connect 55 0 54 1;
