#N canvas 522 51 527 406 12;
#X obj 73 109 samplerate~;
#X msg 114 131 0;
#X obj 108 12 inlet;
#X msg 343 83 resize \$1;
#X msg 223 195 set \$1;
#X obj 255 161 array define \$1 \$2;
#X obj 73 131 / \$2;
#X obj 52 353 tabsend~ \$1;
#X obj 230 253 switch~ \$2;
#X obj 73 153 phasor~;
#X text 283 19 see fd_windows.pd;
#X obj 230 85 del 1 1 samp;
#X obj 235 109 f 1;
#X msg 241 135 normalize \$1;
#X obj 108 34 route bang float q w;
#X msg 334 188 bang;
#X obj 334 213 array size \$1;
#X msg 339 283 \$1 0 \, 0 0;
#X obj 350 244 - 1;
#X obj 389 242 - 2;
#X msg 381 270 \$1 0 \, 1 0;
#X obj 18 152 sig~ 1;
#X obj 35 186 -~;
#X obj 52 252 abs~;
#X obj 52 274 pow~ -0.5;
#X obj 52 309 *~;
#X obj 94 220 sig~ 3.14159;
#X obj 94 245 pow~ -1;
#X obj 52 220 *~;
#X connect 0 0 6 0;
#X connect 1 0 9 1;
#X connect 2 0 14 0;
#X connect 3 0 5 0;
#X connect 4 0 8 0;
#X connect 6 0 9 0;
#X connect 9 0 22 1;
#X connect 9 0 28 1;
#X connect 11 0 12 0;
#X connect 11 0 15 0;
#X connect 12 0 13 0;
#X connect 13 0 5 0;
#X connect 14 0 0 0;
#X connect 14 0 8 0;
#X connect 14 0 1 0;
#X connect 14 0 11 0;
#X connect 14 1 3 0;
#X connect 14 1 4 0;
#X connect 14 1 6 1;
#X connect 14 1 11 1;
#X connect 14 2 12 1;
#X connect 14 3 24 1;
#X connect 14 4 5 0;
#X connect 15 0 16 0;
#X connect 16 0 18 0;
#X connect 16 0 19 0;
#X connect 17 0 5 0;
#X connect 18 0 17 0;
#X connect 19 0 20 0;
#X connect 20 0 5 0;
#X connect 21 0 22 0;
#X connect 22 0 28 0;
#X connect 23 0 24 0;
#X connect 24 0 25 0;
#X connect 25 0 7 0;
#X connect 26 0 27 0;
#X connect 27 0 25 1;
#X connect 28 0 23 0;
