#N canvas 587 106 695 642 12;
#X obj 74 244 samplerate~;
#X msg 149 318 0;
#X obj 159 34 inlet;
#X msg 251 300 set \$1;
#X obj 469 279 array define \$1 \$2;
#X obj 82 275 / \$2;
#X obj 134 570 tabsend~ \$1;
#X obj 259 345 switch~ \$2;
#X obj 108 340 phasor~;
#X text 334 41 see fd_windows.pd;
#X obj 410 174 del 1 1 samp;
#X obj 30 307 sig~ 1;
#X obj 47 341 -~;
#X obj 87 439 abs~;
#X obj 87 461 pow~ -0.5;
#X obj 131 510 *~;
#X obj 191 464 pow~ -1;
#X obj 69 376 *~;
#X obj 390 353 fd_smooth_brute \$1;
#X msg 432 227 normalize;
#X obj 416 199 t b b;
#X obj 88 37 bng 15 250 50 0 empty empty empty 17 7 0 10 -262144 -1
-1;
#X obj 158 58 route bang float q;
#X obj 115 111 t b b b;
#X obj 95 307 t f b;
#X obj 197 93 t f f f;
#X obj 256 230 t f f;
#X obj 283 257 array size \$1;
#X floatatom 490 36 5 0 0 0 - - -;
#X msg 490 59 q \$1 \, bang;
#X obj 192 427 sig~ 3.14159;
#X connect 0 0 5 0;
#X connect 1 0 8 1;
#X connect 2 0 22 0;
#X connect 3 0 7 0;
#X connect 5 0 24 0;
#X connect 8 0 12 1;
#X connect 8 0 17 1;
#X connect 10 0 20 0;
#X connect 11 0 12 0;
#X connect 12 0 17 0;
#X connect 13 0 14 0;
#X connect 14 0 15 0;
#X connect 15 0 6 0;
#X connect 16 0 15 1;
#X connect 17 0 13 0;
#X connect 19 0 4 0;
#X connect 20 0 18 0;
#X connect 20 1 19 0;
#X connect 21 0 22 0;
#X connect 22 0 23 0;
#X connect 22 1 25 0;
#X connect 22 2 14 1;
#X connect 22 3 4 0;
#X connect 23 0 0 0;
#X connect 23 1 7 0;
#X connect 23 2 10 0;
#X connect 24 0 8 0;
#X connect 24 1 1 0;
#X connect 25 0 5 1;
#X connect 25 1 26 0;
#X connect 25 2 10 1;
#X connect 26 0 3 0;
#X connect 26 1 27 0;
#X connect 28 0 29 0;
#X connect 29 0 22 0;
#X connect 30 0 16 0;
