#N canvas 541 46 603 480 12;
#X obj 181 297 fd_2bit;
#X text 105 43 Converts incoming (float) to binary (list);
#X text 246 20 "fd_2bit";
#X obj 181 206 counter;
#N canvas 0 22 450 278 (subpatch) 0;
#X array fd_2bit-help 32 float 3;
#A 0 0 0 0 0 0 0 0 0 0 0 0 0 0 0 0 0 0 0 0 0 0 0 0 0 0 0 0 0 0 0 0
0;
#X coords 0 2 32 -1 200 140 1 0 0;
#X restore 377 132 graph;
#X obj 321 436 array set fd_2bit-help;
#X obj 52 116 list length, f 6;
#X floatatom 190 233 11 0 0 0 - - -, f 11;
#X msg 191 179 0;
#X text 196 256 might take a while...;
#X obj 116 375 spigot;
#X obj 116 398 t a b;
#X obj 116 434 print;
#X msg 162 398 0;
#X msg 180 373 1;
#X msg 389 70 \; fd_2bit-help const 0;
#X text 216 371 <-- print;
#X obj 181 151 spigot;
#X obj 181 80 tgl 15 0 empty empty empty 17 7 0 10 -262144 -1 -1 0
1;
#X obj 52 231 sel;
#X obj 52 206 > 32;
#X obj 52 256 del 1 1 samp, f 6;
#X obj 321 377 spigot;
#X obj 321 400 t a b;
#X msg 367 400 0;
#X msg 385 375 1;
#X text 416 318 <-- graph;
#X floatatom 58 182 5 0 0 0 - - -, f 5;
#X obj 58 157 change;
#X obj 181 100 t f f;
#X obj 181 125 sel 1;
#X obj 181 322 t a a a;
#X obj 385 322 tgl 15 0 empty empty empty 17 7 0 10 -262144 -1 -1 0
1;
#X obj 385 342 metro 100;
#X connect 0 0 31 0;
#X connect 3 0 0 0;
#X connect 3 0 7 0;
#X connect 6 0 28 0;
#X connect 6 0 20 0;
#X connect 8 0 3 0;
#X connect 10 0 11 0;
#X connect 11 0 12 0;
#X connect 11 1 13 0;
#X connect 13 0 10 1;
#X connect 14 0 10 1;
#X connect 17 0 3 0;
#X connect 18 0 29 0;
#X connect 19 0 21 0;
#X connect 20 0 19 0;
#X connect 21 0 17 0;
#X connect 22 0 23 0;
#X connect 23 0 5 0;
#X connect 23 1 24 0;
#X connect 24 0 22 1;
#X connect 25 0 22 1;
#X connect 28 0 27 0;
#X connect 29 0 30 0;
#X connect 29 1 17 1;
#X connect 30 0 17 0;
#X connect 31 0 6 0;
#X connect 31 1 10 0;
#X connect 31 2 22 0;
#X connect 32 0 33 0;
#X connect 33 0 25 0;
