#N canvas 522 53 564 400 12;
#X obj 63 52 inlet;
#X obj 63 257 list trim;
#X msg 194 257 vis 29 1;
#X obj 63 321 clone fd_dataMorphArray \$2 \$1 \$3;
#X obj 81 117 t b a;
#X obj 63 232 list;
#X obj 63 153 fd_delit \$2 100;
#X obj 63 178 bang;
#X msg 63 203 next;
#X obj 63 77 route delit;
#X connect 0 0 9 0;
#X connect 1 0 3 0;
#X connect 2 0 3 0;
#X connect 4 0 6 0;
#X connect 4 1 5 1;
#X connect 5 0 1 0;
#X connect 6 0 7 0;
#X connect 7 0 8 0;
#X connect 8 0 5 0;
#X connect 9 0 6 0;
#X connect 9 1 4 0;
