#N canvas 212 163 450 300 12;
#X obj 60 11 inlet;
#X obj 137 169 t b a;
#X obj 137 191 array size;
#X obj 137 213 array size;
#X obj 163 103 t a a;
#X obj 58 121 t a a;
#X obj 58 213 array set;
#X obj 58 191 array get;
#X obj 58 164 t b a;
#X obj 163 72 symbol;
#X obj 58 77 symbol;
#X obj 60 35 list split 1;
#X connect 0 0 11 0;
#X connect 1 0 2 0;
#X connect 1 1 2 1;
#X connect 2 0 3 0;
#X connect 4 0 6 2;
#X connect 4 1 3 1;
#X connect 5 0 8 0;
#X connect 5 1 1 0;
#X connect 7 0 6 0;
#X connect 8 0 7 0;
#X connect 8 1 7 2;
#X connect 9 0 4 0;
#X connect 10 0 5 0;
#X connect 11 0 10 0;
#X connect 11 1 9 0;
