#N canvas 715 152 525 469 10;
#X obj 37 82 lorenz;
#X obj 40 19 tgl 15 0 empty empty empty 17 7 0 10 -262144 -1 -1 0 1
;
#X obj 40 41 metro 1;
#X obj 37 165 vline~;
#X obj 37 187 *~;
#X obj 37 104 unpack f f f;
#X obj 37 209 +~;
#X obj 87 165 vline~;
#X obj 87 187 *~;
#X obj 137 165 vline~;
#X obj 137 187 *~;
#X obj 38 255 +~;
#X obj 38 277 sqrt~;
#X obj 38 299 fd_vu;
#X obj 38 394 dac~;
#X msg 127 16 tempo 1 sample;
#X connect 0 0 5 0;
#X connect 1 0 2 0;
#X connect 2 0 0 0;
#X connect 3 0 4 0;
#X connect 3 0 4 1;
#X connect 4 0 6 0;
#X connect 5 0 3 0;
#X connect 5 1 7 0;
#X connect 5 2 9 0;
#X connect 6 0 11 0;
#X connect 7 0 8 0;
#X connect 7 0 8 1;
#X connect 8 0 6 1;
#X connect 9 0 10 0;
#X connect 9 0 10 1;
#X connect 10 0 11 1;
#X connect 11 0 12 0;
#X connect 12 0 13 0;
#X connect 13 0 14 0;
#X connect 13 0 14 1;
#X connect 15 0 2 0;
