#N canvas 430 65 497 476 12;
#X msg 50 117 0;
#X obj 76 204 f;
#X obj 28 306 +;
#X obj 76 256 t b f;
#X obj 112 204 +;
#X obj 76 233 +;
#X obj 187 165 t b f f;
#X obj 50 140 t f b f;
#X obj 161 204 change 0;
#X obj 107 165 t f f f;
#X obj 28 29 inlet;
#X obj 28 428 outlet;
#X obj 77 29 inlet;
#X text 41 342 inlet 1 = float (stream);
#X text 41 356 inlet 2 = float: + adds \, - subtracts \, 0 resets;
#X text 218 25 [fd_step] n-step hot counter;
#X obj 331 231 t f b;
#X msg 368 286 0;
#X obj 50 94 sel;
#X text 41 370 inlet 2 = "set": a cold setting of new startpoint;
#X obj 28 54 route float set;
#X connect 0 0 7 0;
#X connect 1 0 4 0;
#X connect 1 0 5 0;
#X connect 2 0 11 0;
#X connect 3 0 2 0;
#X connect 3 1 2 1;
#X connect 4 0 1 1;
#X connect 5 0 3 0;
#X connect 6 0 1 0;
#X connect 6 1 4 1;
#X connect 6 2 8 0;
#X connect 7 0 2 0;
#X connect 7 1 1 0;
#X connect 7 2 9 0;
#X connect 8 0 5 1;
#X connect 9 0 1 1;
#X connect 9 1 4 1;
#X connect 9 2 8 0;
#X connect 10 0 20 0;
#X connect 12 0 18 0;
#X connect 16 0 2 0;
#X connect 16 1 17 0;
#X connect 17 0 2 1;
#X connect 17 0 8 0;
#X connect 17 0 4 1;
#X connect 17 0 1 1;
#X connect 18 0 0 0;
#X connect 18 1 6 0;
#X connect 20 0 2 0;
#X connect 20 1 16 0;
