#N canvas 500 50 530 480 12;
#X declare -path fd_lib;
#X obj 4 4 cnv 15 522 30 empty empty "fd_step" 20 15 0 15 -228856 -1
0;
#X obj 4 254 cnv 15 522 20 empty empty arguments: 10 10 0 14 -228856
-1 0;
#X obj 4 297 cnv 15 522 20 empty empty inlets: 10 10 0 14 -228856 -1
0;
#X obj 4 374 cnv 15 522 20 empty empty outlets: 10 10 0 14 -228856
-1 0;
#X obj 4 453 cnv 15 522 20 empty empty version 10 10 0 14 -228856 -1
0;
#X obj 380 8 declare -path fd_lib;
#N canvas 0 22 450 300 meta 0;
#X text 10 10 fd_lib - metadata file - Sun Sep 29 15:16:24 EDT 2019
;
#X text 10 25 patch_name : fd_step;
#X text 10 40 inlet : 2;
#X text 10 55 outlet : 1;
#X text 10 70 inlet~ : 0;
#X text 10 85 outlet~ : 0;
#X text 10 100 arguments : 0;
#X text 10 115 classes used : 8;
#X text 10 130 total objects: 15;
#X text 10 145 connections : 30;
#X text 10 160 dependencies : 0 [0];
#X text 10 175 externals : 0 [0];
#X text 10 190 internals : 8/233 [0t:+:inlet:sel:route:outlet:f:change]
;
#X restore 438 423 pd meta;
#X text 440 452 fd_lib v0.1;
#X text 60 276 0 arguments;
#X floatatom 79 83 5 0 0 0 - - -;
#X floatatom 79 185 5 0 0 0 - - -;
#X msg 201 81 1;
#X msg 233 81 -1;
#X msg 266 100 -20;
#X text 22 46 n-step hot counter;
#X obj 79 160 fd_step;
#X text 60 410 1: float: count;
#X msg 321 141 0;
#X msg 299 100 20;
#X msg 91 124 set 10;
#X text 60 323 1: float: input stream \; 1: 'set': float new startpoint
\; 2: float: step (+ adds \, - substracts \, 0 resets) \;;
#X connect 9 0 15 0;
#X connect 11 0 15 1;
#X connect 12 0 15 1;
#X connect 13 0 15 1;
#X connect 15 0 10 0;
#X connect 17 0 15 1;
#X connect 18 0 15 1;
#X connect 19 0 15 0;
