#N canvas 500 50 530 480 12;
#X declare -lib fd_lib;
#X obj 4 4 cnv 15 522 30 empty empty "delit" 20 15 0 15 -228856 -1
0;
#X obj 4 254 cnv 15 522 20 empty empty arguments: 10 10 0 14 -228856
-1 0;
#X obj 4 314 cnv 15 522 20 empty empty inlets: 10 10 0 14 -228856 -1
0;
#X obj 4 374 cnv 15 522 20 empty empty outlets: 10 10 0 14 -228856
-1 0;
#X obj 4 453 cnv 15 522 20 empty empty version 10 10 0 14 -228856 -1
0;
#X obj 380 8 declare -lib fd_lib;
#N canvas 0 22 450 300 meta 0;
#X restore 438 423 pd meta;
#X text 440 452 fd_lib v0.1;
#X text 60 284 1 arguments;
#X text 60 340 2 inlets;
#X text 60 410 1 outlets;
#X msg 79 130 reset;
#X obj 93 204 bng 15 250 50 0 empty empty empty 17 7 0 10 -262144 -1
-1;
#X obj 31 226 print;
#X text 116 199 bang when done;
#X obj 424 169 fd_delit;
#X msg 76 78 10;
#X obj 31 75 bng 15 250 50 0 empty empty empty 17 7 0 10 -262144 -1
-1;
#X obj 93 224 print done;
#X obj 31 163 delit 3 1000;
#X text 136 161 Optional args:;
#X text 248 182 delay time (def: 0);
#X text 149 107 set iterations delaytime;
#X msg 78 106 set 5 500;
#X obj 424 139 iterate;
#X text 114 79 iterate at 0 time like [iterate] object;
#X text 417 117 see also:;
#X text 19 45 A delayed iterator;
#X text 125 131 reset to default arguments;
#X text 247 167 iterations (def: 1);
#X connect 11 0 19 0;
#X connect 12 0 18 0;
#X connect 16 0 19 0;
#X connect 17 0 19 0;
#X connect 19 0 13 0;
#X connect 19 1 12 0;
#X connect 23 0 19 0;
