#N canvas 460 130 504 485 12;
#X obj 30 33 dispatch~ \$0-myfx1;
#X obj 208 33 dispatch~ \$0-myfx2;
#X obj 30 58 env~;
#X floatatom 30 83 5 0 0 0 - - - 0;
#X obj 207 56 env~;
#X floatatom 207 81 5 0 0 0 - - - 0;
#X obj 60 133 r~ \$0-myfx1;
#X obj 60 157 env~;
#X floatatom 60 182 5 0 0 0 - - - 0;
#X obj 104 166 r~ \$0-myfx1;
#X obj 104 190 env~;
#X floatatom 104 215 5 0 0 0 - - - 0;
#X obj 347 82 env~;
#X floatatom 347 107 5 0 0 0 - - - 0;
#X obj 391 115 env~;
#X floatatom 391 140 5 0 0 0 - - - 0;
#X obj 347 57 r~ \$0-myfx2;
#X obj 391 90 r~ \$0-myfx2;
#X obj 29 273 noise~;
#X obj 28 332 bus~ \$0-myfx1;
#X obj 204 315 bus~ \$0-myfx2;
#X obj 328 325 bus~ \$0-myfx2;
#X obj 329 272 osc~ 990;
#X obj 205 274 osc~ 120;
#X obj 86 346 bus~ \$0-myfx2;
#X obj 367 341 bus~ \$0-myfx1;
#X text 195 167 <-- can have more than one of the same effect, f 15;
#X connect 0 0 2 0;
#X connect 1 0 4 0;
#X connect 2 0 3 0;
#X connect 4 0 5 0;
#X connect 6 0 7 0;
#X connect 7 0 8 0;
#X connect 9 0 10 0;
#X connect 10 0 11 0;
#X connect 12 0 13 0;
#X connect 14 0 15 0;
#X connect 16 0 12 0;
#X connect 17 0 14 0;
#X connect 18 0 19 0;
#X connect 18 0 24 0;
#X connect 22 0 21 0;
#X connect 22 0 25 0;
#X connect 23 0 20 0;
