#N canvas 521 50 530 480 12;
#X declare -lib fd_lib;
#X obj 4 4 cnv 15 522 30 empty empty "fd_arraysort2" 20 15 0 15 -228856
-1 0;
#X obj 4 244 cnv 15 522 20 empty empty arguments: 10 10 0 14 -228856
-1 0;
#X obj 4 294 cnv 15 522 20 empty empty inlets: 10 10 0 14 -228856 -1
0;
#X obj 4 394 cnv 15 522 20 empty empty outlets: 10 10 0 14 -228856
-1 0;
#X obj 4 453 cnv 15 522 20 empty empty version 10 10 0 14 -228856 -1
0;
#X obj 380 8 declare -lib fd_lib;
#X text 440 452 fd_lib v0.1;
#X text 14 45 Sort an array in ascending or descending order;
#X text 60 267 (symbol) array name;
#X text 60 420 (list) array sorted values;
#X text 49 317 1:;
#X text 49 354 2:;
#X text 49 369 3:;
#X text 92 352 symbol : new array name;
#X text 93 370 float : values (0) or indices (1);
#X text 93 316 bang : sort array \; float : descending (0) or ascending
(1);
#N canvas 0 22 450 278 (subpatch) 0;
#X array data 16 float 3;
#A 0 0.724241 0 0.102295 0.355191 0.759759 1 0.65566 0.956059 0.851273
0.606924 0.811467 0.526785 0.524063 0.125635 0.163894 0.407911;
#X coords 0 1 16 -1 84 59 1;
#X restore 413 82 graph;
#N canvas 0 22 450 278 (subpatch) 0;
#X array output 16 float 3;
#A 0 0 0.102295 0.125635 0.163894 0.355191 0.407911 0.524063 0.526785
0.606924 0.65566 0.724241 0.759759 0.811467 0.851273 0.956059 1;
#X coords 0 1 16 -1 84 63 1;
#X restore 411 165 graph;
#X obj 17 155 fd_arraysort2 data;
#X msg 78 101 symbol data;
#X obj 140 131 tgl 15 0 empty empty empty 17 7 0 10 -262144 -1 -1 0
1;
#X text 41 75 <-- asc/desc;
#X obj 17 76 tgl 15 0 empty empty empty 17 7 0 10 -262144 -1 -1 0 1
;
#X msg 269 191 \; output normalize;
#N canvas 0 22 450 300 data 0;
#X msg 48 91 \; data sinesum 512 1 0;
#X obj 54 152 bng 15 250 50 0 empty empty empty 17 7 0 10 -262144 -1
-1;
#N canvas 0 22 450 300 or 0;
#X obj 49 17 inlet;
#X obj 191 81 array size data;
#X obj 148 104 until;
#X obj 149 16 f 16;
#X obj 148 128 f;
#X obj 148 152 + 1;
#X obj 179 126 mod;
#X obj 180 154 t f b f;
#X obj 203 214 array set data;
#X obj 49 41 t b b;
#X msg 55 223 \; data normalize;
#X obj 315 151 t b f;
#X obj 315 175 f;
#X obj 346 176 + 1;
#X obj 315 127 crand -10 10;
#X obj 149 40 t f f f b;
#X msg 352 79 0;
#X connect 0 0 9 0;
#X connect 2 0 4 0;
#X connect 3 0 15 0;
#X connect 4 0 5 0;
#X connect 5 0 6 0;
#X connect 6 0 7 0;
#X connect 7 0 4 1;
#X connect 7 1 14 0;
#X connect 7 2 8 1;
#X connect 9 0 10 0;
#X connect 9 1 3 0;
#X connect 11 0 12 0;
#X connect 11 1 13 1;
#X connect 12 0 13 0;
#X connect 12 0 8 0;
#X connect 13 0 12 1;
#X connect 14 0 11 0;
#X connect 15 0 2 0;
#X connect 15 1 6 1;
#X connect 15 2 1 0;
#X connect 15 3 16 0;
#X connect 16 0 12 1;
#X restore 54 172 pd or this;
#X text 61 38 Put some data first:;
#X connect 1 0 2 0;
#X restore 444 41 pd data;
#X text 164 128 <-- values/indices;
#N canvas 0 22 450 300 graph 0;
#X obj 35 101 t a a;
#X obj 35 235 s output;
#X obj 67 156 list length;
#X msg 67 180 resize \$1;
#X obj 35 43 inlet;
#X obj 35 125 list prepend 0;
#X connect 0 0 5 0;
#X connect 0 1 2 0;
#X connect 2 0 3 0;
#X connect 3 0 1 0;
#X connect 4 0 0 0;
#X connect 5 0 1 0;
#X restore 17 198 pd graph;
#N canvas 0 22 450 300 meta 0;
#X text 10 10 fd_lib - metadata file - Fri Sep 13 18:18:10 EDT 2019
;
#X text 10 25 patch_name : fd_arraysort2;
#X text 10 40 inlet : 1;
#X text 10 55 outlet : 0;
#X text 10 70 inlet~ : 0;
#X text 10 85 outlet~ : 0;
#X text 10 100 arguments : 1;
#X text 10 115 classes used : 18;
#X text 10 130 total objects: 71;
#X text 10 145 connections : 101;
#X text 10 160 dependencies : 0 [0];
#X text 10 175 externals : 0 [0];
#X text 10 190 internals : 18/233 [0t:f:array:inlet:tabwrite:until:tabread:sel:pack:+:unpack:symbol:print:outlet:route:mod:>:!=]
;
#X restore 438 423 pd meta;
#X connect 18 0 26 0;
#X connect 19 0 18 1;
#X connect 20 0 18 2;
#X connect 22 0 18 0;
