#N canvas 500 50 530 480 12;
#X declare -lib fd_lib;
#X obj 4 4 cnv 15 522 30 empty empty "fd_bass" 20 15 0 15 -228856 -1
0;
#X obj 4 254 cnv 15 522 20 empty empty arguments: 10 10 0 14 -228856
-1 0;
#X obj 4 314 cnv 15 522 20 empty empty inlets: 10 10 0 14 -228856 -1
0;
#X obj 4 374 cnv 15 522 20 empty empty outlets: 10 10 0 14 -228856
-1 0;
#X obj 4 453 cnv 15 522 20 empty empty version 10 10 0 14 -228856 -1
0;
#X text 440 452 fd_lib v0.1;
#X floatatom 223 102 5 0 0 0 - - -;
#X obj 166 134 fd_bass;
#X obj 379 7 declare -lib fd_lib;
#X text 59 284 no arguments;
#X text 60 340 1: foat:;
#X text 60 410 1: list: binary;
#N canvas 0 22 450 300 meta 0;
#X text 10 10 fd_lib - metadata file - Wed Oct 2 19:05:33 EDT 2019
;
#X text 10 25 patch_name : fd_bass;
#X text 10 40 inlet : 2;
#X text 10 55 outlet : 1;
#X text 10 70 inlet~ : 0;
#X text 10 85 outlet~ : 1;
#X text 10 100 arguments : 0;
#X text 10 115 classes used : 7;
#X text 10 130 total objects: 9;
#X text 10 145 connections : 16;
#X text 10 160 dependencies : 0 [0];
#X text 10 175 externals : 0 [0];
#X text 10 190 internals : 7/233 [0inlet:*~:vline~:vcf~:rev3~:outlet~:+~]
;
#X restore 438 423 pd meta;
#X obj 166 200 dac~;
#X obj 154 105 bng 15 250 50 0 empty empty empty 17 7 0 10 -262144
-1 -1;
#X text 24 53 A simple bass;
#X msg 372 53 \; pd dsp 1;
#X connect 6 0 7 1;
#X connect 7 0 13 0;
#X connect 7 0 13 1;
#X connect 14 0 7 0;
