#N canvas 500 50 530 480 12;
#X declare -lib fd_lib;
#X obj 4 4 cnv 15 522 30 empty empty "fd_dataGui" 20 15 0 15 -228856
-1 0;
#X obj 4 254 cnv 15 522 20 empty empty arguments: 10 10 0 14 -228856
-1 0;
#X obj 4 314 cnv 15 522 20 empty empty inlets: 10 10 0 14 -228856 -1
0;
#X obj 4 374 cnv 15 522 20 empty empty outlets: 10 10 0 14 -228856
-1 0;
#X obj 4 453 cnv 15 522 20 empty empty version 10 10 0 14 -228856 -1
0;
#X obj 380 8 declare -lib fd_lib;
#X text 440 452 fd_lib v0.1;
#X text 60 284 no arguments;
#X text 60 340 anything;
#X text 60 410 no outlets;
#X obj 18 124 fd_dataGui dataWalk;
#X text 123 192 <-- select tables to graph to: usually 0-6;
#X text 123 207 <-- BANG TO GRAPH;
#X text 121 124 <-- Toggling types each time you graph (the default)
;
#X text 94 85 <type> is 0|1 \, it inverts the curve, f 19;
#X text 123 146 <-- <const>: only for Line: like array const;
#X text 123 161 <-- <coef>: only for Exp: it adjusts steepness.;
#X text 122 177 <-- <range>: (min-max) only for Walk type 1;
#X text 48 232 Toggle <all> to graph all tables \, see [clone];
#X text 26 47 [fd_dataGui] is to be used in conjunction with the fd_data
abstractions for handling data structure arrays:;
#X text 386 400 see fd_data.pd;
#X text 79 86 |v, f 1;
#X text 30 231 ^;
#N canvas 0 22 450 300 meta 0;
#X text 10 10 fd_lib - metadata file - Fri Sep 13 18:18:54 EDT 2019
;
#X text 10 25 patch_name : fd_dataGui;
#X text 10 40 inlet : 0;
#X text 10 55 outlet : 0;
#X text 10 70 inlet~ : 0;
#X text 10 85 outlet~ : 0;
#X text 10 100 arguments : 1;
#X text 10 115 classes used : 16;
#X text 10 130 total objects: 36;
#X text 10 145 connections : 55;
#X text 10 160 dependencies : 0 [0];
#X text 10 175 externals : 1 [0hradio];
#X text 10 190 internals : 15/233 [0t:list:tgl:bng:nbx:hsl:symbol:spigot:sel:s:print:pack:loadbang:cnv:+]
;
#X restore 438 423 pd meta;
