#N canvas 500 50 530 480 12;
#X declare -lib fd_lib;
#X obj 4 4 cnv 15 522 30 empty empty "fd_dactest" 20 15 0 15 -228856
-1 0;
#X obj 4 254 cnv 15 522 20 empty empty arguments: 10 10 0 14 -228856
-1 0;
#X obj 4 314 cnv 15 522 20 empty empty inlets: 10 10 0 14 -228856 -1
0;
#X obj 4 394 cnv 15 522 20 empty empty outlets: 10 10 0 14 -228856
-1 0;
#X obj 4 453 cnv 15 522 20 empty empty version 10 10 0 14 -228856 -1
0;
#X obj 380 8 declare -lib fd_lib;
#X text 440 452 fd_lib v0.1;
#X text 60 420 no outlets;
#X obj 54 172 fd_dactest 2;
#X text 50 52 Performs a crawl on all speakers.;
#X obj 54 80 tgl 15 0 empty empty empty 17 7 0 10 -262144 -1 -1 0 1
;
#X floatatom 94 84 5 0 0 0 - - -;
#X floatatom 135 113 5 0 0 0 - - -;
#X obj 135 136 / 100;
#X text 60 284 1: float : max number of channels;
#X text 60 340 1: float : 1|0 turn crawl on/off \; 2: float : crawl
speed in milliseconds \; 3: float : volume;
#N canvas 0 22 450 300 meta 0;
#X text 10 10 fd_lib - metadata file - Fri Sep 13 18:18:47 EDT 2019
;
#X text 10 25 patch_name : fd_dacout_rec;
#X text 10 40 inlet : 1;
#X text 10 55 outlet : 1;
#X text 10 70 inlet~ : 1;
#X text 10 85 outlet~ : 1;
#X text 10 100 arguments : 2;
#X text 10 115 classes used : 11;
#X text 10 130 total objects: 11;
#X text 10 145 connections : 10;
#X text 10 160 dependencies : 0 [0];
#X text 10 175 externals : 0 [0];
#X text 10 190 internals : 11/233 [0throw~:r:pack:outlet~:line~:inlet~:hip~:dbtorms:dac~:catch~:*~]
;
#X restore 438 423 pd meta;
#X connect 10 0 8 0;
#X connect 11 0 8 1;
#X connect 12 0 13 0;
#X connect 13 0 8 2;
