#N canvas 500 50 530 480 12;
#X declare -lib fd_lib;
#X obj 4 4 cnv 15 522 30 empty empty "fd_dataVis" 20 15 0 15 -228856
-1 0;
#X obj 4 254 cnv 15 522 20 empty empty arguments: 10 10 0 14 -228856
-1 0;
#X obj 4 314 cnv 15 522 20 empty empty inlets: 10 10 0 14 -228856 -1
0;
#X obj 4 374 cnv 15 522 20 empty empty outlets: 10 10 0 14 -228856
-1 0;
#X obj 4 453 cnv 15 522 20 empty empty version 10 10 0 14 -228856 -1
0;
#X obj 380 8 declare -lib fd_lib;
#X text 440 452 fd_lib v0.1;
#X text 60 284 no arguments;
#X text 60 340 anything;
#X text 60 410 no outlets;
#X obj 79 107 ./fd_dataVis;
#X text 26 55 Gui to raise the data structure arrays in [fd_env];
#X text 379 216 see fd_data.pd;
#N canvas 0 22 450 300 meta 0;
#X text 10 10 fd_lib - metadata file - Fri Sep 13 18:19:03 EDT 2019
;
#X text 10 25 patch_name : fd_dataVis;
#X text 10 40 inlet : 0;
#X text 10 55 outlet : 0;
#X text 10 70 inlet~ : 0;
#X text 10 85 outlet~ : 0;
#X text 10 100 arguments : 0;
#X text 10 115 classes used : 16;
#X text 10 130 total objects: 34;
#X text 10 145 connections : 43;
#X text 10 160 dependencies : 0 [0];
#X text 10 175 externals : 2 [0sradio:fd_listout];
#X text 10 190 internals : 14/233 [0t:pack:r:+:bng:list:*:tgl:sel:s:loadbang:f:cnv:-]
;
#X restore 438 423 pd meta;
