#N canvas 500 50 530 480 12;
#X declare -lib fd_lib;
#X obj 4 4 cnv 15 522 30 empty empty "fd_dataRand" 20 15 0 15 -228856
-1 0;
#X obj 4 254 cnv 15 522 20 empty empty arguments: 10 10 0 14 -228856
-1 0;
#X obj 4 314 cnv 15 522 20 empty empty inlets: 10 10 0 14 -228856 -1
0;
#X obj 4 374 cnv 15 522 20 empty empty outlets: 10 10 0 14 -228856
-1 0;
#X obj 4 453 cnv 15 522 20 empty empty version 10 10 0 14 -228856 -1
0;
#X obj 380 8 declare -lib fd_lib;
#X text 440 452 fd_lib v0.1;
#X text 60 284 no arguments;
#X text 60 340 anything;
#X text 60 410 no outlets;
#X text 376 208 see fd_data.pd;
#X obj 151 103 fd_dataRand;
#X text 41 57 Random numbers into a data structure array;
#N canvas 0 22 450 300 meta 0;
#X text 10 10 fd_lib - metadata file - Fri Sep 13 18:18:59 EDT 2019
;
#X text 10 25 patch_name : fd_dataRand;
#X text 10 40 inlet : 1;
#X text 10 55 outlet : 0;
#X text 10 70 inlet~ : 0;
#X text 10 85 outlet~ : 0;
#X text 10 100 arguments : 2;
#X text 10 115 classes used : 14;
#X text 10 130 total objects: 20;
#X text 10 145 connections : 31;
#X text 10 160 dependencies : 0 [0];
#X text 10 175 externals : 1 [0fd_getsize];
#X text 10 190 internals : 13/233 [0t:random:mod:inlet:until:swap:spigot:s:r:outlet:list:f:+]
;
#X restore 438 423 pd meta;
