#N canvas 500 50 530 480 12;
#X declare -lib fd_lib;
#X obj 4 4 cnv 15 522 30 empty empty "fd_distor" 20 15 0 15 -228856
-1 0;
#X obj 4 254 cnv 15 522 20 empty empty arguments: 10 10 0 14 -228856
-1 0;
#X obj 4 314 cnv 15 522 20 empty empty inlets: 10 10 0 14 -228856 -1
0;
#X obj 4 374 cnv 15 522 20 empty empty outlets: 10 10 0 14 -228856
-1 0;
#X obj 4 453 cnv 15 522 20 empty empty version 10 10 0 14 -228856 -1
0;
#X text 440 452 fd_lib v0.1;
#X obj 159 169 fd_distor;
#X obj 379 7 declare -lib fd_lib;
#X text 59 284 no arguments;
#X text 60 340 1: foat:;
#X text 60 410 1: list: binary;
#N canvas 0 22 450 300 meta 0;
#X text 10 10 fd_lib - metadata file - Wed Oct 2 19:06:36 EDT 2019
;
#X text 10 25 patch_name : fd_distor;
#X text 10 40 inlet : 2;
#X text 10 55 outlet : 1;
#X text 10 70 inlet~ : 1;
#X text 10 85 outlet~ : 1;
#X text 10 100 arguments : 0;
#X text 10 115 classes used : 4;
#X text 10 130 total objects: 6;
#X text 10 145 connections : 7;
#X text 10 160 dependencies : 0 [0];
#X text 10 175 externals : 0 [0];
#X text 10 190 internals : 4/233 [0biquad~:outlet~:inlet~:inlet];
#X restore 438 423 pd meta;
#X msg 235 137 clear;
#X obj 159 193 dac~;
#X text 48 61 A simple biquad-based distortion;
#X msg 356 65 \; pd dsp 1;
#X floatatom 158 101 5 0 0 0 - - -;
#X obj 160 129 osc~ 180;
#X msg 356 104 \; pd dsp 0;
#X connect 6 0 13 0;
#X connect 6 0 13 1;
#X connect 12 0 6 1;
#X connect 16 0 17 0;
#X connect 17 0 6 0;
