#N canvas 500 50 530 480 12;
#X declare -lib fd_lib;
#X obj 4 4 cnv 15 522 30 empty empty "fd_fk" 20 15 0 15 -228856 -1
0;
#X obj 4 254 cnv 15 522 20 empty empty arguments: 10 10 0 14 -228856
-1 0;
#X obj 4 314 cnv 15 522 20 empty empty inlets: 10 10 0 14 -228856 -1
0;
#X obj 4 374 cnv 15 522 20 empty empty outlets: 10 10 0 14 -228856
-1 0;
#X obj 4 453 cnv 15 522 20 empty empty version 10 10 0 14 -228856 -1
0;
#X text 440 452 fd_lib v0.1;
#X floatatom 121 96 5 0 0 0 - - -;
#X obj 122 182 fd_fk;
#X obj 379 7 declare -lib fd_lib;
#X text 59 284 no arguments;
#X text 60 340 1: foat:;
#X text 60 410 1: list: binary;
#N canvas 0 22 450 300 meta 0;
#X text 10 10 fd_lib - metadata file - Wed Oct 2 19:10:31 EDT 2019
;
#X text 10 25 patch_name : fd_fk;
#X text 10 40 inlet : 2;
#X text 10 55 outlet : 1;
#X text 10 70 inlet~ : 0;
#X text 10 85 outlet~ : 1;
#X text 10 100 arguments : 0;
#X text 10 115 classes used : 16;
#X text 10 130 total objects: 25;
#X text 10 145 connections : 36;
#X text 10 160 dependencies : 0 [0];
#X text 10 175 externals : 2 [0fd_map:fd_filt];
#X text 10 190 internals : 14/233 [0*~:unpack:t:rzero~:rpole~:inlet:vline~:spigot:outlet~:osc~:mtof:clip~:biquad~:*]
;
#X restore 438 423 pd meta;
#X obj 122 206 dac~;
#X msg 377 64 \; pd dsp 1;
#X msg 378 111 \; pd dsp 0;
#X obj 121 119 makenote 127 100;
#X obj 121 143 pack;
#X obj 173 163 hsl 128 15 0 127 0 0 empty empty empty -2 -8 0 10 -262144
-1 -1 1400 1;
#X text 20 54 A f*king keyboard;
#X connect 6 0 16 0;
#X connect 7 0 13 0;
#X connect 7 0 13 1;
#X connect 16 0 17 0;
#X connect 16 1 17 1;
#X connect 17 0 7 0;
#X connect 18 0 7 1;
