#N canvas 523 46 530 480 12;
#X declare -lib fd_lib;
#X obj 4 4 cnv 15 522 30 empty empty "fd_iterate" 20 15 0 15 -228856
-1 0;
#X obj 4 254 cnv 15 522 20 empty empty arguments: 10 10 0 14 -228856
-1 0;
#X obj 4 314 cnv 15 522 20 empty empty inlets: 10 10 0 14 -228856 -1
0;
#X obj 4 374 cnv 15 522 20 empty empty outlets: 10 10 0 14 -228856
-1 0;
#X obj 4 453 cnv 15 522 20 empty empty version 10 10 0 14 -228856 -1
0;
#X obj 380 8 declare -lib fd_lib;
#X text 440 452 fd_lib v0.1;
#X text 60 284 no arguments;
#X text 60 340 anything;
#X text 60 410 no outlets;
#X msg 61 132 bang;
#X obj 61 219 print;
#X obj 286 218 print;
#X msg 286 132 bang;
#X obj 61 196 fd_iterate 3;
#X msg 71 159 10;
#X obj 286 195 fd_iterate;
#X text 296 162 (default 100);
#X text 18 61 Iteratative counter. \$1 or inlet == iterations (default:
100). Bang or float to start iteration. Argument is forgotten if you
send in a float.;
#N canvas 0 22 450 300 meta 0;
#X text 10 10 fd_lib - metadata file - Fri Sep 13 18:19:37 EDT 2019
;
#X text 10 25 patch_name : fd_iterate;
#X text 10 40 inlet : 1;
#X text 10 55 outlet : 1;
#X text 10 70 inlet~ : 0;
#X text 10 85 outlet~ : 0;
#X text 10 100 arguments : 1;
#X text 10 115 classes used : 8;
#X text 10 130 total objects: 9;
#X text 10 145 connections : 12;
#X text 10 160 dependencies : 0 [0];
#X text 10 175 externals : 0 [0];
#X text 10 190 internals : 8/233 [0i:until:t:sel:outlet:inlet:f:+]
;
#X restore 438 423 pd meta;
#X connect 10 0 14 0;
#X connect 13 0 16 0;
#X connect 14 0 11 0;
#X connect 15 0 14 0;
#X connect 16 0 12 0;
