#N canvas 500 50 530 480 12;
#X declare -lib fd_lib;
#X obj 4 4 cnv 15 522 30 empty empty "fd_input" 20 15 0 15 -228856
-1 0;
#X obj 4 254 cnv 15 522 20 empty empty arguments: 10 10 0 14 -228856
-1 0;
#X obj 4 314 cnv 15 522 20 empty empty inlets: 10 10 0 14 -228856 -1
0;
#X obj 4 374 cnv 15 522 20 empty empty outlets: 10 10 0 14 -228856
-1 0;
#X obj 4 453 cnv 15 522 20 empty empty version 10 10 0 14 -228856 -1
0;
#X obj 380 8 declare -lib fd_lib;
#X text 440 452 fd_lib v0.1;
#X text 60 410 no outlets;
#X text 273 203 see also fd_inputGui-help.pd;
#X text 15 46 Grab an adc~ input and filter it a bit. Better if cloned:
;
#X obj 23 82 clone -s 1 fd_input 4;
#X text 20 104 Useful in conjunction with [fd_inputGui]:;
#X obj 18 135 fd_inputGui 1;
#X obj 155 177 env~;
#X floatatom 155 202 5 0 0 0 - - -;
#X obj 155 152 r~ 1-adc;
#N canvas 0 22 525 280 more 0;
#X obj 75 42 fd_inputGui 2;
#X obj 186 42 fd_inputGui 3;
#X obj 297 42 fd_inputGui 4;
#X obj 81 185 env~;
#X floatatom 81 210 5 0 0 0 - - -;
#X obj 201 185 env~;
#X floatatom 201 210 5 0 0 0 - - -;
#X obj 311 185 env~;
#X floatatom 311 210 5 0 0 0 - - -;
#X obj 81 160 r~ 2-adc;
#X obj 201 160 r~ 3-adc;
#X obj 311 160 r~ 4-adc;
#X connect 3 0 4 0;
#X connect 5 0 6 0;
#X connect 7 0 8 0;
#X connect 9 0 3 0;
#X connect 10 0 5 0;
#X connect 11 0 7 0;
#X restore 329 165 pd more;
#N canvas 0 22 450 300 meta 0;
#X text 10 10 fd_lib - metadata file - Fri Sep 13 18:19:37 EDT 2019
;
#X text 10 25 patch_name : fd_input;
#X text 10 40 inlet : 0;
#X text 10 55 outlet : 0;
#X text 10 70 inlet~ : 0;
#X text 10 85 outlet~ : 0;
#X text 10 100 arguments : 1;
#X text 10 115 classes used : 6;
#X text 10 130 total objects: 9;
#X text 10 145 connections : 8;
#X text 10 160 dependencies : 0 [0];
#X text 10 175 externals : 0 [0];
#X text 10 190 internals : 6/233 [0r:hip~:*~:s~:lop~:adc~];
#X restore 438 423 pd meta;
#X text 60 284 1: float: adc index;
#X text 60 340 no inlets;
#X connect 13 0 14 0;
#X connect 15 0 13 0;
