#N canvas 500 50 530 480 12;
#X declare -lib fd_lib;
#X obj 4 4 cnv 15 522 30 empty empty "fd_markov5" 20 15 0 15 -228856
-1 0;
#X obj 4 254 cnv 15 522 20 empty empty arguments: 10 10 0 14 -228856
-1 0;
#X obj 4 314 cnv 15 522 20 empty empty inlets: 10 10 0 14 -228856 -1
0;
#X obj 4 374 cnv 15 522 20 empty empty outlets: 10 10 0 14 -228856
-1 0;
#X obj 4 453 cnv 15 522 20 empty empty version 10 10 0 14 -228856 -1
0;
#X obj 380 8 declare -lib fd_lib;
#N canvas 0 22 450 300 meta 0;
#X text 10 10 fd_lib - metadata file - Fri Sep 13 18:20:01 EDT 2019
;
#X text 10 25 patch_name : fd_markov5;
#X text 10 40 inlet : 2;
#X text 10 55 outlet : 5;
#X text 10 70 inlet~ : 0;
#X text 10 85 outlet~ : 0;
#X text 10 100 arguments : 0;
#X text 10 115 classes used : 9;
#X text 10 130 total objects: 26;
#X text 10 145 connections : 60;
#X text 10 160 dependencies : 0 [0];
#X text 10 175 externals : 1 [0fd_s-prob-5];
#X text 10 190 internals : 8/233 [0t:outlet:list:inlet:sel:loadbang:f:b]
;
#X restore 438 423 pd meta;
#X text 440 452 fd_lib v0.1;
#X text 60 284 0 arguments;
#X obj 69 217 bng 15 250 50 0 empty empty empty 17 7 0 10 -262144 -1
-1;
#X obj 88 217 bng 15 250 50 0 empty empty empty 17 7 0 10 -262144 -1
-1;
#X obj 107 217 bng 15 250 50 0 empty empty empty 17 7 0 10 -262144
-1 -1;
#X obj 126 217 bng 15 250 50 0 empty empty empty 17 7 0 10 -262144
-1 -1;
#X obj 146 217 bng 15 250 50 0 empty empty empty 17 7 0 10 -262144
-1 -1;
#X obj 69 138 metro 300;
#X obj 69 89 tgl 15 0 empty empty empty 17 7 0 10 -262144 -1 -1 0 1
;
#X obj 69 172 fd_markov5;
#X msg 169 129 10 30 30 20 10 20 30 40 50 30 20 30 20 10 20 30 20 10
20 30, f 30;
#X text 193 105 New probs;
#N canvas 0 22 537 625 test 0;
#X obj 73 272 bng 15 250 50 0 empty empty empty 17 7 0 10 -262144 -1
-1;
#X obj 143 271 bng 15 250 50 0 empty empty empty 17 7 0 10 -262144
-1 -1;
#X obj 205 272 bng 15 250 50 0 empty empty empty 17 7 0 10 -262144
-1 -1;
#X obj 276 269 bng 15 250 50 0 empty empty empty 17 7 0 10 -262144
-1 -1;
#X obj 355 266 bng 15 250 50 0 empty empty empty 17 7 0 10 -262144
-1 -1;
#X obj 146 384 mtof;
#X obj 82 123 metro 300;
#X obj 96 20 tgl 15 0 empty empty empty 17 7 0 10 -262144 -1 -1 0 1
;
#X obj 146 410 t f b;
#X obj 218 546 vline~;
#X obj 146 542 *~ 0.5;
#X obj 146 569 *~;
#X obj 146 595 dac~;
#X obj 146 516 osc~;
#X msg 235 129 10 30 3 3 4 4 50 50 13 80, f 16;
#X msg 66 322 60;
#X msg 283 322 80;
#X msg 142 323 78.2198;
#X msg 212 322 90.8622;
#X msg 335 320 60.8517;
#X floatatom 307 437 5 0 0 0 - - -;
#X obj 307 460 int;
#X obj 214 467 f;
#X obj 214 493 / 3;
#X msg 218 520 1 10 \, 0 \$1 \$1;
#X obj 311 409 *;
#X obj 340 388 crand 3 5.4;
#X msg 383 462 set \$1;
#X obj 305 362 t f b b b;
#X msg 395 541 set \$1;
#X obj 66 348 +;
#X obj 66 374 / 2;
#X floatatom 66 401 5 0 0 0 - - -;
#X msg 66 450 set \$1;
#X obj 66 424 * 0.8;
#X obj 383 436 crand 78 85;
#X obj 395 515 crand 88 93;
#X obj 70 187 fd_markov5 10 30 24 55 15 32 20 55 60 32, f 21;
#X connect 0 0 15 0;
#X connect 1 0 17 0;
#X connect 2 0 18 0;
#X connect 3 0 16 0;
#X connect 4 0 19 0;
#X connect 5 0 8 0;
#X connect 6 0 37 0;
#X connect 7 0 6 0;
#X connect 8 0 13 0;
#X connect 8 1 22 0;
#X connect 9 0 11 1;
#X connect 10 0 11 0;
#X connect 11 0 12 0;
#X connect 11 0 12 1;
#X connect 13 0 10 0;
#X connect 14 0 37 1;
#X connect 15 0 28 0;
#X connect 15 0 30 0;
#X connect 16 0 5 0;
#X connect 16 0 28 0;
#X connect 17 0 5 0;
#X connect 17 0 28 0;
#X connect 18 0 5 0;
#X connect 18 0 28 0;
#X connect 19 0 5 0;
#X connect 19 0 28 0;
#X connect 20 0 21 0;
#X connect 21 0 6 1;
#X connect 21 0 22 1;
#X connect 22 0 23 0;
#X connect 23 0 24 0;
#X connect 24 0 9 0;
#X connect 25 0 20 0;
#X connect 26 0 25 1;
#X connect 27 0 17 0;
#X connect 28 0 25 0;
#X connect 28 1 26 0;
#X connect 28 2 35 0;
#X connect 28 3 36 0;
#X connect 29 0 18 0;
#X connect 30 0 31 0;
#X connect 31 0 32 0;
#X connect 32 0 5 0;
#X connect 32 0 34 0;
#X connect 33 0 19 0;
#X connect 34 0 33 0;
#X connect 35 0 27 0;
#X connect 36 0 29 0;
#X connect 36 0 30 1;
#X connect 37 0 0 0;
#X connect 37 1 1 0;
#X connect 37 2 2 0;
#X connect 37 3 3 0;
#X connect 37 4 4 0;
#X restore 415 216 pd test;
#X text 60 340 1: bang: to calculate next state \; 2: list: new probabilities
;
#X text 60 410 5 outlets: one for each state;
#X text 35 52 A fifth-order markov chain.;
#X connect 14 0 16 0;
#X connect 15 0 14 0;
#X connect 16 0 9 0;
#X connect 16 1 10 0;
#X connect 16 2 11 0;
#X connect 16 3 12 0;
#X connect 16 4 13 0;
#X connect 17 0 16 1;
