#N canvas 500 50 530 480 12;
#X declare -lib fd_lib;
#X obj 4 4 cnv 15 522 30 empty empty "fd_map2" 20 15 0 15 -228856 -1
0;
#X obj 4 254 cnv 15 522 20 empty empty arguments: 10 10 0 14 -228856
-1 0;
#X obj 4 314 cnv 15 522 20 empty empty inlets: 10 10 0 14 -228856 -1
0;
#X obj 4 374 cnv 15 522 20 empty empty outlets: 10 10 0 14 -228856
-1 0;
#X obj 4 453 cnv 15 522 20 empty empty version 10 10 0 14 -228856 -1
0;
#X obj 380 8 declare -lib fd_lib;
#N canvas 0 22 450 300 meta 0;
#X text 10 10 fd_lib - metadata file - Fri Sep 13 18:19:58 EDT 2019
;
#X text 10 25 patch_name : fd_map2;
#X text 10 40 inlet : 2;
#X text 10 55 outlet : 1;
#X text 10 70 inlet~ : 0;
#X text 10 85 outlet~ : 0;
#X text 10 100 arguments : 4;
#X text 10 115 classes used : 11;
#X text 10 130 total objects: 18;
#X text 10 145 connections : 22;
#X text 10 160 dependencies : 0 [0];
#X text 10 175 externals : 0 [0];
#X text 10 190 internals : 11/233 [0list:-:t:inlet:*:route:pack:outlet:loadbang:/:+]
;
#X restore 438 423 pd meta;
#X text 440 452 fd_lib v0.1;
#X text 360 171 a: range min \; b: range max \; c: range2 min \; d:
range2 max;
#X floatatom 192 146 5 0 0 0 - - -;
#X obj 47 100 hsl 128 15 0 127 0 0 empty empty empty -2 -8 0 10 -262144
-1 -1 0 1;
#X floatatom 44 145 5 0 0 0 - - -;
#X floatatom 45 218 5 0 0 0 - - -;
#X obj 48 173 hsl 128 15 0 127 0 0 empty empty empty -2 -8 0 10 -262144
-1 -1 0 1;
#X obj 192 121 fd_map2 0 127 -1 1;
#X text 39 58 Makes linear mapping an incoming range (a..b) to a new
range (b..c);
#X obj 45 193 fd_map2 0 127 -50 50;
#X obj 44 120 fd_map2 0 127 0 8;
#X obj 195 100 hsl 128 15 0 127 0 0 empty empty empty -2 -8 0 10 -262144
-1 -1 0 1;
#X text 60 284 4 arguments: a b c d;
#X text 60 340 1: float: input value \; 2: list: a b c d;
#X text 60 410 1: float: mapped value;
#X connect 10 0 17 0;
#X connect 13 0 16 0;
#X connect 14 0 9 0;
#X connect 16 0 12 0;
#X connect 17 0 11 0;
#X connect 18 0 14 0;
