#N canvas 500 50 530 480 12;
#X declare -lib fd_lib;
#X obj 4 4 cnv 15 522 30 empty empty "fd_mtxdelit" 20 15 0 15 -228856
-1 0;
#X obj 4 244 cnv 15 522 20 empty empty arguments: 10 10 0 14 -228856
-1 0;
#X obj 4 301 cnv 15 522 20 empty empty inlets: 10 10 0 14 -228856 -1
0;
#X obj 4 397 cnv 15 522 20 empty empty outlets: 10 10 0 14 -228856
-1 0;
#X obj 4 453 cnv 15 522 20 empty empty version 10 10 0 14 -228856 -1
0;
#X obj 380 8 declare -lib fd_lib;
#N canvas 0 22 450 300 meta 0;
#X text 10 10 fd_lib - metadata file - Fri Sep 13 18:20:05 EDT 2019
;
#X text 10 25 patch_name : fd_mtxdelit;
#X text 10 40 inlet : 2;
#X text 10 55 outlet : 1;
#X text 10 70 inlet~ : 0;
#X text 10 85 outlet~ : 0;
#X text 10 100 arguments : 4;
#X text 10 115 classes used : 16;
#X text 10 130 total objects: 31;
#X text 10 145 connections : 41;
#X text 10 160 dependencies : 0 [0];
#X text 10 175 externals : 1 [0fd_mtxout];
#X text 10 190 internals : 15/233 [0t:text:sel:pack:outlet:list:inlet:bang:spigot:route:random:print:loadbang:del:+]
;
#X restore 438 423 pd meta;
#X text 440 452 fd_lib v0.1;
#X text 411 143 see also:;
#X obj 416 175 fd_delit;
#X obj 416 199 fd_mtxout;
#X msg 36 91 bang;
#X msg 102 88 3 3 3;
#X obj 102 167 fd_mtxdelit 3 4 5 300;
#X msg 246 90 rand 500;
#X msg 272 121 reset;
#X obj 102 197 print;
#X obj 246 203 bng 15 250 50 0 empty empty bang_when_done 17 7 0 10
-262144 -1 -1;
#X text 61 265 1-3: list: first 3 elements constitute the 3x1 matrix
\; 4: float: random range to delay iterations in msec.;
#X text 60 420 1: list: delayed 3x1 matrix \; 2: bang: when finished
;
#X msg 144 122 stop;
#X text 60 322 1: bang: begin iteration \; 1: list: the 3x1 matrix
\; 1: 'stop': stops the iteration \; 2: 'reset': resets internal memory
\; 2: 'rand': specify a new random range in msec \;;
#X text 30 46 Del-iterate randomly a 3x1 matrix. Send in a bang or
a list to begin the iteration.;
#X connect 11 0 13 0;
#X connect 12 0 13 0;
#X connect 13 0 16 0;
#X connect 13 1 17 0;
#X connect 14 0 13 1;
#X connect 15 0 13 1;
#X connect 20 0 13 0;
