#N canvas 500 50 530 480 12;
#X declare -lib fd_lib;
#X obj 4 4 cnv 15 522 30 empty empty "fd_mark" 20 15 0 15 -228856 -1
0;
#X obj 4 254 cnv 15 522 20 empty empty arguments: 10 10 0 14 -228856
-1 0;
#X obj 4 314 cnv 15 522 20 empty empty inlets: 10 10 0 14 -228856 -1
0;
#X obj 4 374 cnv 15 522 20 empty empty outlets: 10 10 0 14 -228856
-1 0;
#X obj 4 453 cnv 15 522 20 empty empty version 10 10 0 14 -228856 -1
0;
#X obj 380 8 declare -lib fd_lib;
#N canvas 0 22 450 300 meta 0;
#X text 10 0 fd_lib - metadata file - Fri Sep 13 18:19:58 EDT 2019
;
#X text 10 15 patch_name : fd_mark;
#X text 10 30 inlet : 2;
#X text 10 45 outlet : 1;
#X text 10 60 inlet~ : 0;
#X text 10 75 outlet~ : 0;
#X text 10 90 arguments : 2;
#X text 10 105 classes used : 9;
#X text 10 120 total objects: 14;
#X text 10 135 connections : 14;
#X text 10 150 dependencies : 0 [0];
#X text 10 165 externals : 2 [0mtwister:iterate];
#X text 10 180 internals : 7/233 [0t:array:inlet:outlet:loadbang:f:clone]
;
#X restore 438 423 pd meta;
#X text 440 452 fd_lib v0.1;
#X text 61 411 1: float: output current state;
#X text 61 277 1: float: states \; 2: symbol: array name;
#X obj 119 100 bng 15 250 50 0 empty empty empty 17 7 0 10 -262144
-1 -1;
#X obj 249 126 bng 15 250 50 0 empty empty empty 17 7 0 10 -262144
-1 -1;
#X text 28 46 A markov chain generator with variable number of states.
;
#X text 60 337 1: bang: to compute next state \; 2: bang: to calculate
new probabilities;
#X floatatom 119 183 5 0 0 0 - - -;
#X msg 339 165 bang;
#X obj 339 213 print;
#X obj 119 148 fd_mark 10 \$0-probs;
#X obj 339 189 array get \$0-probs;
#X connect 10 0 17 0;
#X connect 11 0 17 1;
#X connect 15 0 18 0;
#X connect 17 0 14 0;
#X connect 18 0 16 0;
