#N canvas 500 50 530 480 12;
#X declare -lib fd_lib;
#X obj 4 4 cnv 15 522 30 empty empty "fd_markov3" 20 15 0 15 -228856
-1 0;
#X obj 4 254 cnv 15 522 20 empty empty arguments: 10 10 0 14 -228856
-1 0;
#X obj 4 314 cnv 15 522 20 empty empty inlets: 10 10 0 14 -228856 -1
0;
#X obj 4 394 cnv 15 522 20 empty empty outlets: 10 10 0 14 -228856
-1 0;
#X obj 4 453 cnv 15 522 20 empty empty version 10 10 0 14 -228856 -1
0;
#X obj 380 8 declare -lib fd_lib;
#N canvas 0 22 450 300 meta 0;
#X text 10 10 fd_lib - metadata file - Fri Sep 13 18:20:00 EDT 2019
;
#X text 10 25 patch_name : fd_markov3;
#X text 10 40 inlet : 3;
#X text 10 55 outlet : 1;
#X text 10 70 inlet~ : 0;
#X text 10 85 outlet~ : 0;
#X text 10 100 arguments : 0;
#X text 10 115 classes used : 15;
#X text 10 130 total objects: 27;
#X text 10 145 connections : 52;
#X text 10 160 dependencies : 0 [0];
#X text 10 175 externals : 0 [0];
#X text 10 190 internals : 15/233 [0moses:t:inlet:spigot:*:+:unpack:route:random:outlet:list:f:bang:==:<=]
;
#X restore 438 423 pd meta;
#X text 440 452 fd_lib v0.1;
#X text 60 284 0 arguments;
#X text 22 48 Implementation of a markov chain.;
#N canvas 0 22 550 335 test 0;
#X obj 47 101 until;
#X obj 127 145 fd_markov3;
#X msg 48 74 10000;
#N canvas 0 22 466 350 test 0;
#X obj 72 74 sel 0 1 2;
#X obj 73 131 f;
#X obj 102 132 + 1;
#X obj 73 157 /;
#X obj 139 132 f;
#X obj 170 132 + 1;
#X obj 139 158 /;
#X obj 203 133 f;
#X obj 232 134 + 1;
#X obj 203 160 /;
#X obj 221 80 f;
#X obj 250 82 + 1;
#X msg 356 112 0;
#X obj 275 224 +;
#X obj 260 257 +;
#X obj 71 17 inlet;
#X obj 71 43 t f b;
#X obj 366 85 inlet;
#X obj 73 184 t f f;
#X obj 139 186 t f f;
#X obj 203 187 t f f;
#X obj 262 284 outlet;
#X obj 78 261 list prepend set;
#X obj 78 285 list trim;
#X obj 78 309 outlet;
#X obj 78 237 pack f f f;
#X connect 0 0 1 0;
#X connect 0 1 4 0;
#X connect 0 2 7 0;
#X connect 1 0 2 0;
#X connect 1 0 3 0;
#X connect 2 0 1 1;
#X connect 3 0 18 0;
#X connect 4 0 5 0;
#X connect 4 0 6 0;
#X connect 5 0 4 1;
#X connect 6 0 19 0;
#X connect 7 0 8 0;
#X connect 7 0 9 0;
#X connect 8 0 7 1;
#X connect 9 0 20 0;
#X connect 10 0 11 0;
#X connect 10 0 3 1;
#X connect 10 0 6 1;
#X connect 10 0 9 1;
#X connect 11 0 10 1;
#X connect 12 0 10 0;
#X connect 12 0 1 1;
#X connect 12 0 4 1;
#X connect 12 0 7 1;
#X connect 13 0 14 1;
#X connect 14 0 21 0;
#X connect 15 0 16 0;
#X connect 16 0 0 0;
#X connect 16 1 10 0;
#X connect 17 0 12 0;
#X connect 18 0 25 0;
#X connect 18 1 14 0;
#X connect 19 0 25 1;
#X connect 19 1 13 0;
#X connect 20 0 25 2;
#X connect 20 1 13 1;
#X connect 22 0 23 0;
#X connect 23 0 24 0;
#X connect 25 0 22 0;
#X restore 254 180 pd test;
#X obj 127 172 t f f;
#X floatatom 427 271 5 0 0 0 - - -;
#X text 466 272 sum;
#X msg 293 129 reset;
#N canvas 0 22 450 300 probs 0;
#X obj 58 16 inlet;
#X obj 58 42 t b b;
#X obj 58 68 random 100;
#X obj 58 95 / 100;
#X obj 58 121 pack;
#X obj 58 209 outlet;
#X obj 149 70 random 100;
#X obj 149 96 / 100;
#X obj 159 205 list prepend set;
#X obj 159 229 list trim;
#X obj 159 253 outlet;
#X obj 115 146 t a a;
#X obj 225 127 +;
#X msg 225 151 1 \$1;
#X obj 225 175 -;
#X obj 137 175 list;
#X connect 0 0 1 0;
#X connect 1 0 2 0;
#X connect 1 1 6 0;
#X connect 2 0 3 0;
#X connect 3 0 4 0;
#X connect 4 0 5 0;
#X connect 4 0 11 0;
#X connect 6 0 7 0;
#X connect 7 0 4 1;
#X connect 8 0 9 0;
#X connect 9 0 10 0;
#X connect 11 0 15 0;
#X connect 11 1 12 0;
#X connect 12 0 13 0;
#X connect 13 0 14 0;
#X connect 14 0 15 1;
#X connect 15 0 8 0;
#X restore 200 119 pd probs;
#X msg 124 75 bang;
#X obj 217 91 t b b;
#X msg 75 268 0.42 0.97 -0.39;
#X msg 214 67 reset;
#X msg 200 270 0.50505 0.0644597 0.430393;
#X connect 0 0 1 0;
#X connect 1 0 4 0;
#X connect 2 0 0 0;
#X connect 3 0 13 0;
#X connect 3 1 5 0;
#X connect 4 0 1 1;
#X connect 4 1 3 0;
#X connect 7 0 3 1;
#X connect 8 0 1 2;
#X connect 8 1 11 0;
#X connect 9 0 1 0;
#X connect 10 0 8 0;
#X connect 10 1 7 0;
#X connect 12 0 10 0;
#X restore 392 188 pd test;
#X obj 141 132 fd_markov3;
#X obj 141 159 t f f;
#X msg 208 106 0.4 0.3;
#X obj 139 91 bng 15 250 50 0 empty empty empty 17 7 0 10 -262144 -1
-1;
#X obj 201 182 sel 0 1 2;
#X obj 201 209 bng 15 250 50 0 empty empty empty 17 7 0 10 -262144
-1 -1;
#X obj 221 210 bng 15 250 50 0 empty empty empty 17 7 0 10 -262144
-1 -1;
#X obj 240 210 bng 15 250 50 0 empty empty empty 17 7 0 10 -262144
-1 -1;
#X text 60 340 1: bang: to calculate next state \; 2: float: current
state \; 3: list: new probabilities;
#X text 60 420 1: float: states;
#X connect 11 0 12 0;
#X connect 12 0 11 1;
#X connect 12 1 15 0;
#X connect 13 0 11 2;
#X connect 14 0 11 0;
#X connect 15 0 16 0;
#X connect 15 1 17 0;
#X connect 15 2 18 0;
