#N canvas 500 50 530 480 12;
#X declare -lib fd_lib;
#X obj 4 4 cnv 15 522 30 empty empty "fd_map" 20 15 0 15 -228856 -1
0;
#X obj 4 234 cnv 15 522 20 empty empty arguments: 10 10 0 14 -228856
-1 0;
#X obj 4 304 cnv 15 522 20 empty empty inlets: 10 10 0 14 -228856 -1
0;
#X obj 4 374 cnv 15 522 20 empty empty outlets: 10 10 0 14 -228856
-1 0;
#X obj 4 453 cnv 15 522 20 empty empty version 10 10 0 14 -228856 -1
0;
#X obj 380 8 declare -lib fd_lib;
#N canvas 0 22 450 300 meta 0;
#X text 10 10 fd_lib - metadata file - Fri Sep 13 18:19:57 EDT 2019
;
#X text 10 25 patch_name : fd_map;
#X text 10 40 inlet : 3;
#X text 10 55 outlet : 1;
#X text 10 70 inlet~ : 0;
#X text 10 85 outlet~ : 0;
#X text 10 100 arguments : 3;
#X text 10 115 classes used : 9;
#X text 10 130 total objects: 13;
#X text 10 145 connections : 18;
#X text 10 160 dependencies : 0 [0];
#X text 10 175 externals : 0 [0];
#X text 10 190 internals : 9/233 [0inlet:sel:*:unpack:pack:outlet:loadbang:/:+]
;
#X restore 438 423 pd meta;
#X text 440 452 fd_lib v0.1;
#X floatatom 323 199 5 0 0 0 - - -;
#X floatatom 170 198 5 0 0 0 - - -;
#X obj 28 154 hsl 128 15 0 127 0 0 empty empty empty -2 -8 0 10 -262144
-1 -1 0 1;
#X floatatom 25 199 5 0 0 0 - - -;
#X obj 173 153 hsl 128 15 0 127 0 0 empty empty empty -2 -8 0 10 -262144
-1 -1 0 1;
#X obj 25 174 fd_map 127 8;
#X obj 170 173 fd_map 127 100 -50;
#X text 20 52 Makes linear mapping an incoming value (from 0-max) to
a range faster to patch;
#X text 19 92 To understand how it works: "fd_map THIS to THAT" \,
where 'this' = incoming 'max' value and 'that' = is the new max value
(with an optional offset);
#X obj 326 153 hsl 128 15 0 127 0 0 empty empty empty -2 -8 0 10 -262144
-1 -1 0 1;
#X text 57 324 1: float: input value \; 2: float: range \; 3: float:
offset;
#X text 60 410 1: float: mapped value;
#N canvas 0 22 450 300 more 0;
#X obj 99 138 t f b;
#X obj 87 210 t b b;
#X obj 87 235 timer;
#X floatatom 87 260 5 0 0 0 - - -;
#X obj 231 144 t b b;
#X obj 231 169 timer;
#X floatatom 231 194 5 0 0 0 - - -;
#X obj 99 25 tgl 15 0 empty empty empty 17 7 0 10 -262144 -1 -1 0 1
;
#X obj 99 45 metro 1;
#X obj 99 70 f;
#X obj 136 70 + 1;
#X obj 99 95 mod 127;
#X obj 87 185 fd_map 127 2 -1;
#X connect 0 0 12 0;
#X connect 0 1 4 0;
#X connect 1 0 2 0;
#X connect 1 1 2 1;
#X connect 2 0 3 0;
#X connect 4 0 5 0;
#X connect 4 1 5 1;
#X connect 5 0 6 0;
#X connect 7 0 8 0;
#X connect 8 0 9 0;
#X connect 9 0 10 0;
#X connect 9 0 11 0;
#X connect 10 0 9 1;
#X connect 11 0 0 0;
#X connect 12 0 1 0;
#X restore 444 202 pd more;
#X text 60 254 1: float: max input \; 2: float: range \; 3: float:
offset (default 0);
#X obj 323 174 fd_map 127 2 -1;
#X connect 10 0 13 0;
#X connect 12 0 14 0;
#X connect 13 0 11 0;
#X connect 14 0 9 0;
#X connect 17 0 22 0;
#X connect 22 0 8 0;
