#N canvas 500 50 530 480 12;
#X declare -lib fd_lib;
#X obj 4 4 cnv 15 522 30 empty empty "fd_minimax" 20 15 0 15 -228856
-1 0;
#X obj 4 254 cnv 15 522 20 empty empty arguments: 10 10 0 14 -228856
-1 0;
#X obj 4 314 cnv 15 522 20 empty empty inlets: 10 10 0 14 -228856 -1
0;
#X obj 4 374 cnv 15 522 20 empty empty outlets: 10 10 0 14 -228856
-1 0;
#X obj 4 453 cnv 15 522 20 empty empty version 10 10 0 14 -228856 -1
0;
#X obj 380 8 declare -lib fd_lib;
#N canvas 0 22 450 300 meta 0;
#X text 10 10 fd_lib - metadata file - Fri Sep 13 18:20:04 EDT 2019
;
#X text 10 25 patch_name : fd_minimax;
#X text 10 40 inlet : 2;
#X text 10 55 outlet : 3;
#X text 10 70 inlet~ : 0;
#X text 10 85 outlet~ : 0;
#X text 10 100 arguments : 0;
#X text 10 115 classes used : 12;
#X text 10 130 total objects: 34;
#X text 10 145 connections : 35;
#X text 10 160 dependencies : 0 [0];
#X text 10 175 externals : 0 [0];
#X text 10 190 internals : 12/233 [0r:s:f:t:outlet:bang:sel:inlet:route:loadbang:>:<]
;
#X restore 438 423 pd meta;
#X text 440 452 fd_lib v0.1;
#X text 60 284 0 arguments;
#X obj 101 130 metro 10;
#X obj 101 108 tgl 15 0 empty empty empty 17 7 0 10 -262144 -1 -1 0
1;
#X text 225 157 clean slate;
#X obj 101 196 fd_minimax;
#X msg 178 157 reset;
#X text 32 48 Abstraction to [minimax]. Input a stream of floats of
unknown range. Over time \, the outermost outlet outputs the minima
and the second outlet outputs the maxima. The stream is passed throught
the firstmost outlet.;
#X text 367 159 see also:;
#X obj 370 190 fd_norm-abs;
#X floatatom 101 222 0 0 0 0 - - -;
#X floatatom 189 222 0 0 0 0 - - -;
#X floatatom 239 222 0 0 0 0 - - -;
#X obj 101 164 cuadratic;
#X obj 368 215 minimax;
#X obj 432 215 fd_norm;
#X text 60 340 1: float: input value \; 2: bang: reset internal values
;
#X text 61 398 1: float: input value \; 2: float: minimum value \;
3: float: maximum value \;;
#X connect 9 0 20 0;
#X connect 10 0 9 0;
#X connect 12 0 17 0;
#X connect 12 1 18 0;
#X connect 12 2 19 0;
#X connect 13 0 12 1;
#X connect 20 0 12 0;
