#N canvas 500 50 530 480 12;
#X declare -lib fd_lib;
#X obj 4 4 cnv 15 522 30 empty empty "fd_netsend" 20 15 0 15 -228856
-1 0;
#X obj 4 254 cnv 15 522 20 empty empty arguments: 10 10 0 14 -228856
-1 0;
#X obj 4 314 cnv 15 522 20 empty empty inlets: 10 10 0 14 -228856 -1
0;
#X obj 4 374 cnv 15 522 20 empty empty outlets: 10 10 0 14 -228856
-1 0;
#X obj 4 453 cnv 15 522 20 empty empty version 10 10 0 14 -228856 -1
0;
#X obj 380 8 declare -lib fd_lib;
#N canvas 0 22 450 300 meta 0;
#X text 10 10 fd_lib - metadata file - Fri Sep 13 11:30:07 EDT 2019
;
#X text 10 25 patch_name : fd_netsend;
#X text 10 40 inlet : 0;
#X text 10 55 outlet : 0;
#X text 10 70 inlet~ : 0;
#X text 10 85 outlet~ : 0;
#X text 10 100 arguments : 0;
#X text 10 115 classes used : 11;
#X text 10 130 total objects: 220;
#X text 10 145 connections : 22;
#X text 10 160 dependencies : 0 [0];
#X text 10 175 externals : 0 [0];
#X text 10 190 internals : 11/233 [0r:s:list:cnv:symbol:sel:print:outlet:netsend:nbx:bng]
;
#X restore 438 423 pd meta;
#X text 440 452 fd_lib v0.1;
#X text 60 284 0 arguments;
#X text 60 340 0 inlets;
#X text 60 410 0 outlets;
#X text 28 47 "netsend" side to connect to another instance of pd.
Use only one of these per patch. Use in conjunction with [fd_netreceive]
in another patch.;
#X text 18 183 Colors will change to GREEN when connected to the video
pd;
#X text 18 211 A 'connected 1' message is sent to the connected intance
once the connection is established.;
#X obj 88 120 fd_netsend;
