#N canvas 500 50 530 480 12;
#X declare -lib fd_lib;
#X obj 4 4 cnv 15 522 30 empty empty "fd_netreceive" 20 15 0 15 -228856
-1 0;
#X obj 4 254 cnv 15 522 20 empty empty arguments: 10 10 0 14 -228856
-1 0;
#X obj 4 314 cnv 15 522 20 empty empty inlets: 10 10 0 14 -228856 -1
0;
#X obj 4 374 cnv 15 522 20 empty empty outlets: 10 10 0 14 -228856
-1 0;
#X obj 4 453 cnv 15 522 20 empty empty version 10 10 0 14 -228856 -1
0;
#X obj 380 8 declare -lib fd_lib;
#N canvas 0 22 450 300 meta 0;
#X text 10 10 fd_lib - metadata file - Fri Sep 13 11:30:06 EDT 2019
;
#X text 10 25 patch_name : fd_netreceive;
#X text 10 40 inlet : 0;
#X text 10 55 outlet : 0;
#X text 10 70 inlet~ : 0;
#X text 10 85 outlet~ : 0;
#X text 10 100 arguments : 0;
#X text 10 115 classes used : 17;
#X text 10 130 total objects: 561;
#X text 10 145 connections : 46;
#X text 10 160 dependencies : 0 [0];
#X text 10 175 externals : 1 [0fd_visera];
#X text 10 190 internals : 16/233 [0s:r:sel:cnv:list:bng:t:symbol:route:outlet:netreceive:nbx:loadbang:inlet:f:del]
;
#X restore 438 423 pd meta;
#X text 440 452 fd_lib v0.1;
#X text 60 284 0 arguments;
#X text 60 340 0 inlets;
#X text 60 410 0 outlets;
#X obj 84 124 fd_netreceive;
#X text 24 183 Colors will change to GREEN when connected to fd_netsend
;
#X text 24 211 A 'connected 1' message is received once the connection
is established.;
#X text 28 47 "netreceive" side to connect from another instance of
pd. Use only one of these per patch. Use in conjunction with [fd_netsend]
in another pd-instance.;
