#N canvas 500 50 530 480 12;
#X declare -lib fd_lib;
#X obj 4 4 cnv 15 522 30 empty empty "fd_parsenum" 20 15 0 15 -228856
-1 0;
#X obj 4 254 cnv 15 522 20 empty empty arguments: 10 10 0 14 -228856
-1 0;
#X obj 4 314 cnv 15 522 20 empty empty inlets: 10 10 0 14 -228856 -1
0;
#X obj 4 374 cnv 15 522 20 empty empty outlets: 10 10 0 14 -228856
-1 0;
#X obj 4 453 cnv 15 522 20 empty empty version 10 10 0 14 -228856 -1
0;
#X obj 380 8 declare -lib fd_lib;
#N canvas 0 22 450 300 meta 0;
#X text 10 10 fd_lib - metadata file - Mon Sep 16 00:35:10 EDT 2019
;
#X text 10 25 patch_name : fd_parsenum;
#X text 10 40 inlet : 1;
#X text 10 55 outlet : 2;
#X text 10 70 inlet~ : 0;
#X text 10 85 outlet~ : 0;
#X text 10 100 arguments : 0;
#X text 10 115 classes used : 6;
#X text 10 130 total objects: 8;
#X text 10 145 connections : 13;
#X text 10 160 dependencies : 0 [0];
#X text 10 175 externals : 1 [0fd_iterate];
#X text 10 190 internals : 5/233 [0sel:outlet:t:inlet:-];
#X restore 438 423 pd meta;
#X text 440 452 fd_lib v0.1;
#X text 60 284 0 arguments;
#X obj 142 114 fd_parsenum;
#X obj 227 145 bng 15 250 50 0 empty empty empty 17 7 0 10 -262144
-1 -1;
#X floatatom 142 147 5 0 0 0 - - -;
#X floatatom 142 83 5 0 0 0 - - -;
#X text 127 179 0 when iteration begins;
#X text 65 180 Outlet:;
#X text 126 219 2 when iteration ends;
#X text 125 200 1 while iterating;
#X text 253 144 <-- bang when ends;
#X text 23 52 Inlet is iteration limit and output is status of iteration.
;
#X text 60 398 1: float: 0 \, 1 \, and 2 are start \, sustain \, and
release of iteration \; 2: bang \; when iteration ends;
#X text 60 340 1: float: size of iteration (internal [until] inside)
;
#X connect 9 0 11 0;
#X connect 9 1 10 0;
#X connect 12 0 9 0;
