#N canvas 500 50 530 480 12;
#X declare -lib fd_lib;
#X obj 4 4 cnv 15 522 30 empty empty "fd_pshift" 20 15 0 15 -228856
-1 0;
#X obj 4 254 cnv 15 522 20 empty empty arguments: 10 10 0 14 -228856
-1 0;
#X obj 4 314 cnv 15 522 20 empty empty inlets: 10 10 0 14 -228856 -1
0;
#X obj 4 374 cnv 15 522 20 empty empty outlets: 10 10 0 14 -228856
-1 0;
#X obj 4 453 cnv 15 522 20 empty empty version 10 10 0 14 -228856 -1
0;
#X obj 380 8 declare -lib fd_lib;
#N canvas 0 23 450 300 meta 0;
#X text 10 10 fd_lib - metadata file - Sat Sep 28 22:57:50 EDT 2019
;
#X text 10 25 patch_name : fd_pshift;
#X text 10 40 inlet : 1;
#X text 10 55 outlet : 1;
#X text 10 70 inlet~ : 1;
#X text 10 85 outlet~ : 1;
#X text 10 100 arguments : 1;
#X text 10 115 classes used : 10;
#X text 10 130 total objects: 22;
#X text 10 145 connections : 24;
#X text 10 160 dependencies : 0 [0];
#X text 10 175 externals : 0 [0];
#X text 10 190 internals : 10/233 [0*~:-~:delread4~:cos~:wrap~:phasor~:outlet~:inlet~:exp~:+~]
;
#X restore 438 423 pd meta;
#X text 440 452 fd_lib v0.1;
#X obj 195 206 sigmund~ pitch;
#X floatatom 195 230 5 0 0 0 - - -;
#X msg 408 72 \; pd dsp 1;
#X obj 195 182 fd_pshift mydel;
#X obj 17 158 delwrite~ mydel 100;
#X obj 17 89 sig~ 69;
#X obj 17 111 mtof~;
#X floatatom 17 65 5 0 128 0 - - -;
#X obj 195 147 sig~ 1;
#X floatatom 195 96 5 0 0 0 - - -;
#X text 10 40 Pitch shifter based on a lecture by Jaime Oliver La Rosa
;
#X text 60 284 1: symbol: name for the delay object in parent patch
;
#X text 60 410 1: signal: pitch-shifted;
#X text 60 340 1: signal: pitch-shift amount;
#X obj 17 134 osc~;
#X obj 195 122 / 100;
#X connect 8 0 9 0;
#X connect 11 0 8 0;
#X connect 13 0 14 0;
#X connect 14 0 22 0;
#X connect 15 0 13 0;
#X connect 16 0 11 0;
#X connect 17 0 23 0;
#X connect 22 0 12 0;
#X connect 23 0 16 0;
