#N canvas 500 50 530 480 12;
#X declare -lib fd_lib;
#X declare -lib Gem;
#X obj 4 4 cnv 15 522 30 empty empty "fd_pixcrop" 20 15 0 15 -228856
-1 0;
#X obj 4 254 cnv 15 522 20 empty empty arguments: 10 10 0 14 -228856
-1 0;
#X obj 4 294 cnv 15 522 20 empty empty inlets: 10 10 0 14 -228856 -1
0;
#X obj 4 404 cnv 15 522 20 empty empty outlets: 10 10 0 14 -228856
-1 0;
#X obj 4 453 cnv 15 522 20 empty empty version 10 10 0 14 -228856 -1
0;
#X obj 380 8 declare -lib fd_lib;
#N canvas 0 22 450 300 meta 0;
#X text 10 10 fd_lib - metadata file - Mon Sep 16 21:22:09 EDT 2019
;
#X text 10 25 patch_name : fd_pixcrop;
#X text 10 40 inlet : 2;
#X text 10 55 outlet : 3;
#X text 10 70 inlet~ : 0;
#X text 10 85 outlet~ : 0;
#X text 10 100 arguments : 0;
#X text 10 115 classes used : 17;
#X text 10 130 total objects: 37;
#X text 10 145 connections : 56;
#X text 10 160 dependencies : 1 [Gem];
#X text 10 175 externals : 3 [0pix_info;
#X text 10 190 externals :pix_crop:fd_trunc2n];
#X text 10 205 internals : 14/233 [0t:outlet:min:-:pack:max:inlet:change:*:+:unpack:route:loadbang:declare]
;
#X restore 444 427 pd meta;
#X text 440 452 fd_lib v0.1;
#X text 60 274 0 arguments;
#X obj 379 38 declare -lib Gem;
#X obj 10 160 fd_pixcrop;
#X obj 10 194 pix_texture;
#X obj 10 218 square 2;
#X obj 10 86 gemhead;
#X obj 10 110 pix_video;
#X obj 394 123 gemwin;
#X msg 404 95 0 \, destroy;
#X msg 145 106 size \$1;
#X msg 211 106 xpos \$1;
#X msg 284 106 ypos \$1;
#X floatatom 145 85 5 0 0 0 - - -;
#X floatatom 211 85 5 0 0 0 - - -;
#X floatatom 284 85 5 0 0 0 - - -;
#X msg 97 106 reset;
#X msg 394 70 create \, 1;
#X obj 77 81 tgl 15 0 empty empty empty 17 7 0 10 -262144 -1 -1 0 1
;
#X text 60 314 1: list: gemlist \; 2: 'reset': to default position
\; 2: float: 1|0 bypass cropping \; 2: 'size': (float) set new crop
size \; 2: 'xpos': (float) offset x position in pixels \; 2: 'ypos':
(float) offset y position in pixels \;;
#X text 60 428 1: list: gemlist;
#X text 14 45 Utility for 'friendlier' cropping of a gemlist;
#X connect 10 0 11 0;
#X connect 11 0 12 0;
#X connect 13 0 14 0;
#X connect 14 0 10 0;
#X connect 16 0 15 0;
#X connect 17 0 10 1;
#X connect 18 0 10 1;
#X connect 19 0 10 1;
#X connect 20 0 17 0;
#X connect 21 0 18 0;
#X connect 22 0 19 0;
#X connect 23 0 10 1;
#X connect 24 0 15 0;
#X connect 25 0 10 1;
