#N struct rgbcol-help float x float y float color;
#N canvas 500 50 530 480 12;
#X declare -lib fd_lib;
#X obj 4 4 cnv 15 522 30 empty empty "fd_rgbcol" 20 15 0 15 -228856
-1 0;
#X obj 4 254 cnv 15 522 20 empty empty arguments: 10 10 0 14 -228856
-1 0;
#X obj 4 306 cnv 15 522 20 empty empty inlets: 10 10 0 14 -228856 -1
0;
#X obj 4 379 cnv 15 522 20 empty empty outlets: 10 10 0 14 -228856
-1 0;
#X obj 4 453 cnv 15 522 20 empty empty version 10 10 0 14 -228856 -1
0;
#X obj 380 8 declare -lib fd_lib;
#N canvas 0 22 450 300 meta 0;
#X text 10 10 fd_lib - metadata file - Sun Sep 29 00:53:57 EDT 2019
;
#X text 10 25 patch_name : fd_rgbcol;
#X text 10 40 inlet : 3;
#X text 10 55 outlet : 1;
#X text 10 70 inlet~ : 0;
#X text 10 85 outlet~ : 0;
#X text 10 100 arguments : 0;
#X text 10 115 classes used : 8;
#X text 10 130 total objects: 19;
#X text 10 145 connections : 20;
#X text 10 160 dependencies : 0 [0];
#X text 10 175 externals : 0 [0];
#X text 10 190 internals : 8/233 [0min:max:int:inlet:t:*:+:outlet]
;
#X restore 438 423 pd meta;
#X text 440 452 fd_lib v0.1;
#X text 60 284 0 arguments;
#X obj 74 145 fd_rgbcol;
#X floatatom 74 107 2 0 9 2 R - -;
#X text 15 54 Incoming floats are 0-9 integers corresponding to RGB
output;
#N canvas 0 22 450 300 template 0;
#X obj 35 225 append rgbcol-help x y color;
#X obj 167 192 pointer;
#X msg 166 167 traverse pd-rgbcol-data \, bang;
#X obj 34 42 struct rgbcol-help float x float y float color, f 26
;
#X msg 35 161 0 -1 900;
#X obj 34 92 filledpolygon color color 1 0 0 0 2 1 2 1 0 0 0, f 27
;
#X msg 271 200 clear;
#X obj 271 225 s pd-rgbcol-data;
#X obj 35 186 t a b b;
#X obj 261 17 inlet;
#X obj 35 139 loadbang;
#X obj 270 107 pointer;
#X obj 261 41 t f b;
#X obj 261 138 set rgbcol-help color;
#X msg 270 68 traverse pd-rgbcol-data \, next, f 20;
#X connect 1 0 0 3;
#X connect 2 0 1 0;
#X connect 4 0 8 0;
#X connect 6 0 7 0;
#X connect 8 0 0 0;
#X connect 8 1 2 0;
#X connect 8 2 6 0;
#X connect 9 0 12 0;
#X connect 10 0 4 0;
#X connect 11 0 13 1;
#X connect 12 0 13 0;
#X connect 12 1 14 0;
#X connect 14 0 11 0;
#X restore 74 179 pd template;
#N canvas 0 22 450 300 rgbcol-data 0;
#X scalar rgbcol-help 0 -1 350 \;;
#X coords 0 -1 1 1 104 99 2 0 0;
#X restore 204 109 pd rgbcol-data;
#X floatatom 108 107 2 0 9 2 G - -;
#X floatatom 143 107 2 0 9 2 B - -;
#X text 321 150 <-- for data structures;
#X text 61 327 1: float: red (0-9) \; 2: float: green (0-9) \; 3: float:
blue (0-9);
#X text 60 410 1: float: color in data structure type (0-999);
#X connect 9 0 12 0;
#X connect 10 0 9 0;
#X connect 14 0 9 1;
#X connect 15 0 9 2;
