#N canvas 500 50 530 480 12;
#X declare -lib fd_lib;
#X obj 4 4 cnv 15 522 30 empty empty "fd_reflect" 20 15 0 15 -228856
-1 0;
#X obj 4 254 cnv 15 522 20 empty empty arguments: 10 10 0 14 -228856
-1 0;
#X obj 4 314 cnv 15 522 20 empty empty inlets: 10 10 0 14 -228856 -1
0;
#X obj 4 374 cnv 15 522 20 empty empty outlets: 10 10 0 14 -228856
-1 0;
#X obj 4 453 cnv 15 522 20 empty empty version 10 10 0 14 -228856 -1
0;
#X obj 380 8 declare -lib fd_lib;
#N canvas 0 22 450 300 meta 0;
#X text 10 10 fd_lib - metadata file - Sun Sep 29 00:47:12 EDT 2019
;
#X text 10 25 patch_name : fd_reflect;
#X text 10 40 inlet : 1;
#X text 10 55 outlet : 1;
#X text 10 70 inlet~ : 0;
#X text 10 85 outlet~ : 0;
#X text 10 100 arguments : 1;
#X text 10 115 classes used : 11;
#X text 10 130 total objects: 17;
#X text 10 145 connections : 21;
#X text 10 160 dependencies : 0 [0];
#X text 10 175 externals : 0 [0];
#X text 10 190 internals : 11/233 [0*:f:abs:-:+:t:sel:outlet:moses:loadbang:inlet]
;
#X restore 438 423 pd meta;
#X text 440 452 fd_lib v0.1;
#X floatatom 154 107 5 0 0 0 - - -;
#X floatatom 154 198 5 0 0 0 - - -;
#X obj 154 148 fd_reflect 10;
#X text 18 54 Abstraction of the [reflect] object.;
#X obj 368 175 reflect;
#X text 359 148 see also;
#X text 60 284 1: float: upper and lower (== -upper) boundary;
#X text 60 340 1: float: input;
#X text 60 410 1: float: reflected output between boundaries;
#X connect 8 0 10 0;
#X connect 10 0 9 0;
