#N canvas 500 50 530 480 12;
#X declare -lib fd_lib;
#X declare -path ../abstractions;
#X obj 4 4 cnv 15 522 30 empty empty fd_rnd 20 15 0 15 -228856 -1 0
;
#X obj 4 254 cnv 15 522 20 empty empty arguments: 10 10 0 14 -228856
-1 0;
#X obj 4 334 cnv 15 522 20 empty empty inlets: 10 10 0 14 -228856 -1
0;
#X obj 4 394 cnv 15 522 20 empty empty outlets: 10 10 0 14 -228856
-1 0;
#X obj 4 453 cnv 15 522 20 empty empty version 10 10 0 14 -228856 -1
0;
#X obj 380 8 declare -lib fd_lib;
#X obj 61 188 print -n;
#N canvas 0 22 450 300 meta 0;
#X text 10 10 fd_lib - metadata file - Fri Sep 13 18:18:25 EDT 2019
;
#X text 10 25 patch_name : fd_calm;
#X text 10 40 inlet : 2;
#X text 10 55 outlet : 1;
#X text 10 70 inlet~ : 0;
#X text 10 85 outlet~ : 0;
#X text 10 100 arguments : 1;
#X text 10 115 classes used : 8;
#X text 10 130 total objects: 11;
#X text 10 145 connections : 15;
#X text 10 160 dependencies : 0 [0];
#X text 10 175 externals : 0 [0];
#X text 10 190 internals : 8/233 [0sel:inlet:f:t:outlet:loadbang:int:del]
;
#X obj 68 235 declare -path ../abstractions;
#X restore 438 423 pd meta;
#X obj 61 143 fd_rnd;
#X obj 61 96 bng 15 250 50 0 empty empty empty 17 7 0 10 -262144 -1
-1;
#X obj 218 187 print -n;
#X obj 218 95 bng 15 250 50 0 empty empty empty 17 7 0 10 -262144 -1
-1;
#X text 25 49 A noise~ based random int generator;
#X obj 133 188 print -n;
#X obj 133 96 bng 15 250 50 0 empty empty empty 17 7 0 10 -262144 -1
-1;
#X obj 133 143 fd_rnd 10;
#X obj 218 142 fd_rnd -10 3;
#X text 59 360 1: bang to output random number;
#X text 58 420 1: float: random int;
#X text 60 274 none: default max 10000 \; 1: range \; 2: offset and
range \;;
#X text 440 452 fd_lib v0.2;
#X connect 8 0 6 0;
#X connect 9 0 8 0;
#X connect 11 0 16 0;
#X connect 14 0 15 0;
#X connect 15 0 13 0;
#X connect 16 0 10 0;
