#N canvas 500 50 530 480 12;
#X declare -lib fd_lib;
#X obj 4 4 cnv 15 522 30 empty empty "fd_s-prob" 20 15 0 15 -228856
-1 0;
#X obj 4 254 cnv 15 522 20 empty empty arguments: 10 10 0 14 -228856
-1 0;
#X obj 4 314 cnv 15 522 20 empty empty inlets: 10 10 0 14 -228856 -1
0;
#X obj 4 374 cnv 15 522 20 empty empty outlets: 10 10 0 14 -228856
-1 0;
#X obj 4 453 cnv 15 522 20 empty empty version 10 10 0 14 -228856 -1
0;
#X obj 380 8 declare -lib fd_lib;
#N canvas 0 22 450 300 meta 0;
#X text 10 10 fd_lib - metadata file - Sat Sep 28 23:31:08 EDT 2019
;
#X text 10 25 patch_name : fd_s-prob;
#X text 10 40 inlet : 2;
#X text 10 55 outlet : 3;
#X text 10 70 inlet~ : 0;
#X text 10 85 outlet~ : 0;
#X text 10 100 arguments : 2;
#X text 10 115 classes used : 13;
#X text 10 130 total objects: 23;
#X text 10 145 connections : 28;
#X text 10 160 dependencies : 0 [0];
#X text 10 175 externals : 0 [0];
#X text 10 190 internals : 13/233 [0t:outlet:bang:moses:inlet:f:+:unpack:sel:random:pack:loadbang:/]
;
#X restore 438 423 pd meta;
#X text 440 452 fd_lib v0.1;
#X text 20 52 Used in markov chains. Define probabilities for state
0 \, 1 \, and state 2 == remaining prob., f 47;
#X msg 97 120 bang;
#X obj 97 189 bng 15 250 50 0 empty empty empty 17 7 0 10 -262144 -1
-1;
#X obj 148 189 bng 15 250 50 0 empty empty empty 17 7 0 10 -262144
-1 -1;
#X obj 199 189 bng 15 250 50 0 empty empty empty 17 7 0 10 -262144
-1 -1;
#X obj 97 166 fd_s-prob 10 20;
#X msg 199 139 30 10;
#X text 60 280 1: float: first state probability \; 2: float: second
state probability (3rd is inferred);
#X text 60 340 1: bang: to output state \; 2: list: see arguments.
;
#X text 63 400 1: bang: first state \; 2: bang: second state \; 3:
bang: third state \;;
#X text 247 140 <-- new probabilities;
#X connect 9 0 13 0;
#X connect 13 0 10 0;
#X connect 13 1 11 0;
#X connect 13 2 12 0;
#X connect 14 0 13 1;
