#N canvas 532 30 534 483 12;
#X obj 4 4 cnv 15 522 30 empty empty "specplot~" 20 15 0 15 #dcdcdc #000000 0;
#X obj 4 254 cnv 15 200 20 empty empty arguments: 10 10 0 14 #dcdcdc #000000 0;
#X obj 4 314 cnv 15 522 20 empty empty inlets: 10 10 0 14 #dcdcdc #000000 0;
#X obj 4 374 cnv 15 522 20 empty empty outlets: 10 10 0 14 #dcdcdc #000000 0;
#X obj 4 453 cnv 15 522 20 empty empty version 10 10 0 14 #dcdcdc #000000 0;
#N canvas 0 22 450 300 meta 0;
#X restore 438 423 pd meta;
#X text 440 452 fd_lib v0.1;
#X text 60 284 0 arguments;
#X text 237 11 "specplot~";
#X text 126 42 Display the spectrum of a signal;
#N canvas 109 158 550 353 signal 0;
#X obj 19 262 osc~;
#X obj 62 262 osc~;
#X obj 105 262 osc~;
#X obj 148 262 osc~;
#X obj 191 262 osc~;
#X obj 234 262 osc~;
#X obj 19 239 * 1;
#X obj 62 239 * 2;
#X obj 105 239 * 3;
#X obj 148 239 * 4;
#X obj 191 239 * 5;
#X obj 234 239 * 6;
#X obj 287 9 loadbang;
#X obj 287 32 samplerate~;
#X obj 286 113 / 4096;
#X obj 51 199 t f f f f f f;
#X floatatom 271 165 5 0 0 0 - - - 0;
#X obj 334 57 bng 15 250 50 0 empty empty empty 17 7 0 10 #fcfcfc #000000 #000000;
#X obj 180 10 inlet;
#X obj 405 26 r params;
#X obj 405 50 route block;
#X text 427 82 recalculate fund;
#X obj 287 66 t f f;
#X obj 386 158 /;
#X obj 156 87 *;
#X obj 115 319 outlet~;
#X obj 143 141 +;
#X obj 156 111 t b f;
#X floatatom 151 163 5 0 0 0 - - - 0;
#X obj 369 81 t b f f;
#X floatatom 362 253 5 0 0 0 - - - 0;
#X obj 286 90 * 8;
#X obj 432 132 / 128;
#X connect 0 0 25 0;
#X connect 1 0 25 0;
#X connect 2 0 25 0;
#X connect 3 0 25 0;
#X connect 4 0 25 0;
#X connect 5 0 25 0;
#X connect 6 0 0 0;
#X connect 7 0 1 0;
#X connect 8 0 2 0;
#X connect 9 0 3 0;
#X connect 10 0 4 0;
#X connect 11 0 5 0;
#X connect 11 0 30 0;
#X connect 12 0 13 0;
#X connect 13 0 22 0;
#X connect 14 0 16 0;
#X connect 15 0 6 0;
#X connect 15 1 7 0;
#X connect 15 2 8 0;
#X connect 15 3 9 0;
#X connect 15 4 10 0;
#X connect 15 5 11 0;
#X connect 16 0 26 0;
#X connect 17 0 13 0;
#X connect 18 0 24 0;
#X connect 19 0 20 0;
#X connect 20 0 29 0;
#X connect 22 0 31 0;
#X connect 22 1 23 0;
#X connect 23 0 24 1;
#X connect 24 0 27 0;
#X connect 26 0 15 0;
#X connect 26 0 28 0;
#X connect 27 0 26 0;
#X connect 27 1 26 1;
#X connect 29 0 17 0;
#X connect 29 1 23 1;
#X connect 29 2 14 1;
#X connect 29 2 32 0;
#X connect 31 0 14 0;
#X connect 32 0 31 1;
#X restore 244 104 pd signal;
#X obj 448 103 r params;
#X obj 222 274 dac~;
#X obj 30 45 vsl 15 128 0 127 0 0 empty empty empty 0 -9 0 10 #fcfcfc #000000 #000000 0 1;
#X obj 30 202 pack f 10;
#X obj 30 226 line~;
#X obj 30 180 dbtorms;
#X obj 226 245 *~;
#X obj 115 159 s params;
#X msg 126 125 block 4096;
#X floatatom 243 83 5 0 0 0 - - - 0;
#X obj 266 313 env~;
#X floatatom 266 337 5 0 0 0 - - - 0;
#X obj 415 317 print params;
#X msg 443 44 \; pd dsp 1;
#X msg 87 82 block 1024;
#X text 60 340 1: signal \; 2: parameters;
#X text 60 410 1: signal \; 2: parameters;
#X obj 77 130 tgl 15 0 empty empty empty 17 7 0 10 #fcfcfc #000000 #000000 0 1;
#X msg 112 103 block 2048;
#X obj 266 134 fd_specplot~;
#X connect 10 0 17 1;
#X connect 10 0 30 0;
#X connect 11 0 30 1;
#X connect 13 0 16 0;
#X connect 14 0 15 0;
#X connect 15 0 17 0;
#X connect 16 0 14 0;
#X connect 17 0 12 0;
#X connect 17 0 12 1;
#X connect 19 0 18 0;
#X connect 20 0 10 0;
#X connect 21 0 22 0;
#X connect 25 0 18 0;
#X connect 28 0 18 0;
#X connect 29 0 18 0;
#X connect 30 0 21 0;
#X connect 30 1 23 0;
