#N canvas 500 50 530 480 12;
#X declare -lib fd_lib;
#X declare -lib Gem;
#X obj 4 4 cnv 15 522 30 empty empty "fd_shader" 20 15 0 15 -228856
-1 0;
#X obj 4 254 cnv 15 522 20 empty empty arguments: 10 10 0 14 -228856
-1 0;
#X obj 4 305 cnv 15 522 20 empty empty inlets: 10 10 0 14 -228856 -1
0;
#X obj 4 381 cnv 15 522 20 empty empty outlets: 10 10 0 14 -228856
-1 0;
#X obj 4 453 cnv 15 522 20 empty empty version 10 10 0 14 -228856 -1
0;
#X obj 380 8 declare -lib fd_lib;
#N canvas 0 22 450 300 meta 0;
#X text 10 10 fd_lib - metadata file - Sat Sep 28 23:52:58 EDT 2019
;
#X text 10 25 patch_name : fd_shader;
#X text 10 40 inlet : 2;
#X text 10 55 outlet : 1;
#X text 10 70 inlet~ : 0;
#X text 10 85 outlet~ : 0;
#X text 10 100 arguments : 1;
#X text 10 115 classes used : 15;
#X text 10 130 total objects: 23;
#X text 10 145 connections : 35;
#X text 10 160 dependencies : 1 [Gem];
#X text 10 175 externals : 3 [0glsl_vertex:glsl_program:glsl_fragment]
;
#X text 10 190 internals : 12/233 [0t:symbol:makefilename:inlet:spigot:route:r:pdcontrol:pack:outlet:loadbang:declare]
;
#X restore 438 423 pd meta;
#X text 440 452 fd_lib v0.1;
#X text 12 48 Tool for loading shaders. Need Gem.;
#X obj 380 30 declare -lib Gem;
#X floatatom 178 114 5 0 0 0 - - -;
#X msg 178 136 K1 \$1;
#X floatatom 228 114 5 0 0 0 - - -;
#X floatatom 278 114 5 0 0 0 - - -;
#X floatatom 328 114 5 0 0 0 - - -;
#X msg 228 136 K2 \$1;
#X msg 278 136 K3 \$1;
#X msg 328 136 K4 \$1;
#X obj 55 195 pix_texture;
#X msg 410 63 create \, 1;
#X obj 410 118 gemwin;
#X obj 55 220 circle 3;
#X obj 55 74 gemhead -1;
#X obj 55 99 alpha 1;
#X text 60 328 1: list: gemlist \; 2: 'open': (symbol) new shader filename
\; 2: other messages get routed to the shader;
#X text 60 410 1: list: gemlist;
#X msg 419 90 0 \, destroy;
#X msg 386 167 \; rgba print;
#X text 246 188 try these:;
#X text 60 281 1: symbol: shader name (also selector to receive messages)
;
#X obj 55 170 fd_shader rgba;
#X msg 151 80 open ../doc/shader/rgba;
#X msg 247 213 \; rgba K1 0.2 \, K2 0.8 \, K3 0.9 \, K4 1;
#X connect 10 0 11 0;
#X connect 11 0 30 1;
#X connect 12 0 15 0;
#X connect 13 0 16 0;
#X connect 14 0 17 0;
#X connect 15 0 30 1;
#X connect 16 0 30 1;
#X connect 17 0 30 1;
#X connect 18 0 21 0;
#X connect 19 0 20 0;
#X connect 22 0 23 0;
#X connect 23 0 30 0;
#X connect 26 0 20 0;
#X connect 30 0 18 0;
#X connect 31 0 30 1;
