#N canvas 500 50 530 480 12;
#X declare -lib fd_lib;
#X obj 4 4 cnv 15 522 30 empty empty "fd_stick" 20 15 0 15 -228856
-1 0;
#X obj 4 254 cnv 15 522 20 empty empty arguments: 10 10 0 14 -228856
-1 0;
#X obj 4 314 cnv 15 522 20 empty empty inlets: 10 10 0 14 -228856 -1
0;
#X obj 4 374 cnv 15 522 20 empty empty outlets: 10 10 0 14 -228856
-1 0;
#X obj 4 453 cnv 15 522 20 empty empty version 10 10 0 14 -228856 -1
0;
#X text 440 452 fd_lib v0.1;
#X obj 166 134 fd_stick;
#X obj 379 7 declare -lib fd_lib;
#X text 59 284 no arguments;
#N canvas 0 22 450 300 meta 0;
#X text 10 10 fd_lib - metadata file - Wed Oct 2 19:29:13 EDT 2019
;
#X text 10 25 patch_name : fd_stick;
#X text 10 40 inlet : 1;
#X text 10 55 outlet : 1;
#X text 10 70 inlet~ : 0;
#X text 10 85 outlet~ : 1;
#X text 10 100 arguments : 0;
#X text 10 115 classes used : 4;
#X text 10 130 total objects: 5;
#X text 10 145 connections : 5;
#X text 10 160 dependencies : 0 [0];
#X text 10 175 externals : 0 [0];
#X text 10 190 internals : 4/233 [0biquad~:vline~:outlet~:inlet];
#X restore 438 423 pd meta;
#X msg 385 106 \; pd dsp 0;
#X msg 384 64 \; pd dsp 1;
#X text 20 52 A stick;
#X obj 166 80 tgl 15 0 empty empty empty 17 7 0 10 -262144 -1 -1 0
1;
#X obj 166 100 metro 100;
#X obj 166 182 dac~;
#X floatatom 245 73 5 0 0 0 - - -;
#X text 60 410 1: signal;
#X text 60 340 1: bang;
#X connect 6 0 15 0;
#X connect 6 0 15 1;
#X connect 13 0 14 0;
#X connect 14 0 6 0;
#X connect 16 0 14 1;
