#N canvas 500 50 530 480 12;
#X declare -lib fd_lib;
#X obj 4 4 cnv 15 522 30 empty empty "fd_swap" 20 15 0 15 -228856 -1
0;
#X obj 4 254 cnv 15 522 20 empty empty arguments: 10 10 0 14 -228856
-1 0;
#X obj 4 306 cnv 15 522 20 empty empty inlets: 10 10 0 14 -228856 -1
0;
#X obj 4 387 cnv 15 522 20 empty empty outlets: 10 10 0 14 -228856
-1 0;
#X obj 4 453 cnv 15 522 20 empty empty version 10 10 0 14 -228856 -1
0;
#X obj 380 8 declare -lib fd_lib;
#N canvas 0 22 450 300 meta 0;
#X text 10 10 fd_lib - metadata file - Sun Sep 29 15:25:44 EDT 2019
;
#X text 10 25 patch_name : fd_swap;
#X text 10 40 inlet : 2;
#X text 10 55 outlet : 1;
#X text 10 70 inlet~ : 0;
#X text 10 85 outlet~ : 0;
#X text 10 100 arguments : 2;
#X text 10 115 classes used : 10;
#X text 10 130 total objects: 14;
#X text 10 145 connections : 25;
#X text 10 160 dependencies : 0 [0];
#X text 10 175 externals : 0 [0];
#X text 10 190 internals : 10/233 [0t:spigot:pack:inlet:unpack:swap:route:pdcontrol:outlet:==]
;
#X restore 438 423 pd meta;
#X text 440 452 fd_lib v0.1;
#X text 27 43 Output a swapped pair if 1 \, or an unswapped if 0;
#X obj 32 82 tgl 15 0 empty empty empty 17 7 0 10 -262144 -1 -1 1 1
;
#X obj 97 166 fd_swap 100 333;
#X obj 97 191 unpack;
#X floatatom 97 216 5 0 0 0 - - -;
#X floatatom 145 225 5 0 0 0 - - -;
#X msg 203 122 444 0;
#X text 276 122 <-- sets new values;
#X text 53 78 <-- toggle swap;
#X text 60 284 1: list: (float) first value (float) second value;
#X text 60 410 1: list: (float) second value (float) first value;
#X msg 97 114 args;
#X text 60 332 1: float: 0|1 to toggle swap on or off \; 1: 'args':
message recovers initial arguments \; 2: list: new values to swap;
#X connect 9 0 10 0;
#X connect 10 0 11 0;
#X connect 11 0 12 0;
#X connect 11 1 13 0;
#X connect 14 0 10 1;
#X connect 19 0 10 0;
