#N canvas 500 50 530 480 12;
#X declare -lib fd_lib;
#X obj 4 4 cnv 15 522 30 empty empty "fd_tom" 20 15 0 15 -228856 -1
0;
#X obj 4 254 cnv 15 522 20 empty empty arguments: 10 10 0 14 -228856
-1 0;
#X obj 4 314 cnv 15 522 20 empty empty inlets: 10 10 0 14 -228856 -1
0;
#X obj 4 374 cnv 15 522 20 empty empty outlets: 10 10 0 14 -228856
-1 0;
#X obj 4 453 cnv 15 522 20 empty empty version 10 10 0 14 -228856 -1
0;
#X text 440 452 fd_lib v0.1;
#X obj 174 176 fd_tom;
#X obj 379 7 declare -lib fd_lib;
#X text 59 284 no arguments;
#N canvas 0 22 450 300 meta 0;
#X text 10 10 fd_lib - metadata file - Wed Oct 2 19:30:12 EDT 2019
;
#X text 10 25 patch_name : fd_tom;
#X text 10 40 inlet : 2;
#X text 10 55 outlet : 1;
#X text 10 70 inlet~ : 0;
#X text 10 85 outlet~ : 1;
#X text 10 100 arguments : 0;
#X text 10 115 classes used : 4;
#X text 10 130 total objects: 7;
#X text 10 145 connections : 9;
#X text 10 160 dependencies : 0 [0];
#X text 10 175 externals : 0 [0];
#X text 10 190 internals : 4/233 [0biquad~:inlet:vline~:outlet~];
#X restore 438 423 pd meta;
#X obj 174 200 dac~;
#X text 48 61 A tom drum;
#X obj 174 91 tgl 15 0 empty empty empty 17 7 0 10 -262144 -1 -1 0
1;
#X obj 174 117 metro 100;
#X floatatom 234 92 5 0 0 0 - - -;
#X msg 408 103 \; pd dsp 0;
#X msg 407 61 \; pd dsp 1;
#X msg 236 151 clear;
#X text 60 410 1: signal;
#X text 60 340 1: bang;
#X connect 6 0 10 0;
#X connect 6 0 10 1;
#X connect 12 0 13 0;
#X connect 13 0 6 0;
#X connect 14 0 13 1;
#X connect 17 0 6 1;
