#N canvas 500 50 530 480 12;
#X declare -lib fd_lib;
#X obj 4 4 cnv 15 522 30 empty empty "fd_wielevy" 20 15 0 15 -228856
-1 0;
#X obj 4 254 cnv 15 522 20 empty empty arguments: 10 10 0 14 -228856
-1 0;
#X obj 4 314 cnv 15 522 20 empty empty inlets: 10 10 0 14 -228856 -1
0;
#X obj 4 374 cnv 15 522 20 empty empty outlets: 10 10 0 14 -228856
-1 0;
#X obj 4 453 cnv 15 522 20 empty empty version 10 10 0 14 -228856 -1
0;
#X obj 380 8 declare -lib fd_lib;
#N canvas 0 22 450 300 meta 0;
#X text 10 10 fd_lib - metadata file - Mon Sep 30 00:07:39 EDT 2019
;
#X text 10 25 patch_name : fd_wielevy;
#X text 10 40 inlet : 4;
#X text 10 55 outlet : 1;
#X text 10 70 inlet~ : 0;
#X text 10 85 outlet~ : 0;
#X text 10 100 arguments : 3;
#X text 10 115 classes used : 12;
#X text 10 130 total objects: 38;
#X text 10 145 connections : 49;
#X text 10 160 dependencies : 0 [0];
#X text 10 175 externals : 0 [0];
#X text 10 190 internals : 12/233 [0t:*:inlet:f:pow:exp:/:-:unpack:pack:outlet:loadbang]
;
#X restore 438 423 pd meta;
#X text 440 452 fd_lib v0.1;
#N canvas 0 22 608 478 example 0;
#X obj 45 190 random 100;
#X obj 69 350 tabwrite wielevy;
#N canvas 0 22 450 278 (subpatch) 0;
#X array wielevy 100 float 2;
#X coords 0 1 100 0 200 140 1 0 0;
#X restore 351 191 graph;
#X obj 45 166 until;
#X obj 45 212 t f f;
#X obj 45 241 / 100;
#X floatatom 215 105 5 0 0 0 - - -;
#X obj 215 124 t b f;
#X floatatom 167 105 5 0 0 0 - - -;
#X obj 167 124 t b f;
#X floatatom 120 105 5 0 0 0 - - -;
#X obj 120 124 t b f;
#X obj 45 271 fd_wielevy 1 2 0.05;
#X obj 280 85 line;
#X msg 280 57 0 \, 5 2000;
#X obj 167 76 line;
#X msg 45 144 100;
#X msg 167 23 0 \, 5 1000;
#X msg 182 47 5 \, 1 1000;
#X obj 45 301 moses 1;
#X obj 12 324 moses -1;
#X obj 12 346 * -1;
#X obj 99 322 - 1;
#X text 13 407 Qt ( x \, y) = (w^1/2/(PI*(1-e^-2wt))^-1/2) EXP(-w*((y-x*e^-wt)^2/(1-e^-2wt))
), f 78;
#X connect 0 0 4 0;
#X connect 3 0 0 0;
#X connect 4 0 5 0;
#X connect 4 1 1 1;
#X connect 5 0 12 0;
#X connect 6 0 7 0;
#X connect 7 0 16 0;
#X connect 7 1 12 3;
#X connect 8 0 9 0;
#X connect 9 0 16 0;
#X connect 9 1 12 2;
#X connect 10 0 11 0;
#X connect 11 0 16 0;
#X connect 11 1 12 1;
#X connect 12 0 19 0;
#X connect 13 0 6 0;
#X connect 14 0 13 0;
#X connect 15 0 8 0;
#X connect 16 0 3 0;
#X connect 17 0 15 0;
#X connect 18 0 15 0;
#X connect 19 0 20 0;
#X connect 19 1 22 0;
#X connect 20 0 21 0;
#X connect 20 1 1 0;
#X connect 21 0 19 0;
#X connect 22 0 19 0;
#X restore 371 182 pd example;
#X text 17 45 Weiner-Levy process;
#X text 16 69 The pressure variable X is under the influence of a centrifugal
or centripetal force Q(x \, t), f 66;
#X text 137 106 PI * (1-e^-2wt) )^-1/2;
#X text 17 128 also known as the Ornsein-Uhlenbeck process;
#X text 99 227 XENAKIS' method 3 \, page 247 \, Formalized Music;
#X text 60 284 1: list: (float) y (float) w (float) t;
#X obj 30 180 fd_wielevy 1 2 0.05;
#X floatatom 30 156 5 0 0 0 - - -;
#X floatatom 30 204 5 0 0 0 - - -;
#X text 60 340 1: float: x' 2-4: float: y \, w \, and t values;
#X text 60 410 1: float: wielevy process;
#X connect 15 0 17 0;
#X connect 16 0 15 0;
