#N struct 123-plot float x float y float z float rgb;
#N canvas 500 50 530 480 12;
#X declare -lib fd_lib;
#X declare -lib Gem;
#X obj 4 4 cnv 15 522 30 empty empty "henon" 20 15 0 15 -228856 -1
0;
#X obj 4 254 cnv 15 522 20 empty empty arguments: 10 10 0 14 -228856
-1 0;
#X obj 4 324 cnv 15 522 20 empty empty inlets: 10 10 0 14 -228856 -1
0;
#X obj 4 404 cnv 15 522 20 empty empty outlets: 10 10 0 14 -228856
-1 0;
#X obj 4 453 cnv 15 522 20 empty empty version 10 10 0 14 -228856 -1
0;
#X obj 380 8 declare -lib fd_lib;
#N canvas 0 22 450 300 meta 0;
#X restore 438 423 pd meta;
#X text 440 452 fd_lib v0.1;
#X text 17 43 Computes a henon map. Inlet 0 takes a "bang" to perform
once \, or "print N" to perform N times \, and "reset/clear" to reset.
Arguments are N times \, and "a" and "b" coefficients (also inlets
1 \, 2). Outlets are x-pos \, y-pos and index., f 67;
#N canvas 1050 56 641 493 gem-example 0;
#X obj 302 306 list split 2;
#X obj 302 338 unpack;
#X obj 302 376 array set henon-help-array-x, f 18;
#X obj 339 426 array set henon-help-array-y, f 18;
#X obj 372 339 t f f;
#X msg 302 232 print 128;
#X obj 381 132 array define henon-help-array-x 128;
#X f 22;
#X obj 381 175 array define henon-help-array-y 128;
#X f 22;
#X obj 35 105 gemhead;
#X obj 381 101 gemwin;
#X obj 35 460 gemvertexbuffer 128;
#X msg 58 291 posX henon-help-array-x;
#X msg 81 329 posY henon-help-array-y;
#X msg 92 373 draw line;
#X msg 98 398 draw point;
#X obj 35 130 t a b;
#X obj 249 166 spigot;
#X obj 294 24 tgl 15 0 empty empty empty 17 7 0 10 -262144 -1 -1 0
1;
#X obj 249 192 t b b b;
#X obj 35 26 tgl 15 0 empty empty empty 17 7 0 10 -262144 -1 -1 0 1
;
#X obj 35 231 scale 4;
#X obj 35 206 GEMglPointSize 1;
#X msg 389 43 reset \, FSAA 4 \, dimen 400 400 \, create \, 1, f 19
;
#X msg 381 18 0 \, destroy;
#X text 386 233 <-- "print": iterates N times;
#X obj 97 28 declare -lib Gem;
#X obj 302 274 henon 128 1.4 0.3;
#X obj 35 256 rotate 0 1 1 1;
#X obj 100 230 counter;
#X obj 35 181 translateXYZ -1 0 -4;
#X connect 0 0 1 0;
#X connect 0 1 4 0;
#X connect 1 0 2 0;
#X connect 1 1 3 0;
#X connect 4 0 2 1;
#X connect 4 1 3 1;
#X connect 5 0 26 0;
#X connect 8 0 15 0;
#X connect 11 0 10 0;
#X connect 12 0 10 0;
#X connect 13 0 10 0;
#X connect 14 0 10 0;
#X connect 15 0 29 0;
#X connect 15 1 16 0;
#X connect 16 0 18 0;
#X connect 17 0 16 1;
#X connect 18 0 11 0;
#X connect 18 0 28 0;
#X connect 18 1 12 0;
#X connect 18 2 5 0;
#X connect 19 0 8 0;
#X connect 20 0 27 0;
#X connect 21 0 20 0;
#X connect 22 0 9 0;
#X connect 23 0 9 0;
#X connect 26 0 0 0;
#X connect 27 0 10 0;
#X connect 28 0 27 1;
#X connect 29 0 21 0;
#X restore 346 177 pd gem-example;
#X msg 38 117 bang;
#X obj 38 198 henon;
#X obj 38 222 print;
#N canvas 1086 221 731 391 fd_plot-example 0;
#X obj 96 262 unpack f f f;
#X floatatom 96 287 5 0 0 0 x - -;
#X floatatom 142 310 5 0 0 0 y - -;
#X floatatom 189 288 5 0 0 0 index - -;
#X obj 78 14 tgl 15 0 empty empty empty 17 7 0 10 -262144 -1 -1 0 1
;
#X msg 31 85 0;
#N canvas 0 22 450 300 set 0;
#X obj 32 92 unpack;
#X obj 32 142 pack;
#X obj 32 192 s fd_plot-123;
#X msg 176 172 clear;
#X msg 32 167 append \$1 \$2 2 0;
#X obj 32 117 * 150;
#X obj 82 117 * 150;
#X obj 205 49 counter -m 300, f 7;
#X obj 205 88 sel 0 1;
#X obj 293 174 outlet;
#X obj 32 24 inlet;
#X obj 32 49 t a b;
#X text 82 18 This is just to use fd_plot.;
#X text 241 246 see fd_plot-help.pd;
#X connect 0 0 5 0;
#X connect 0 1 6 0;
#X connect 1 0 4 0;
#X connect 3 0 2 0;
#X connect 4 0 2 0;
#X connect 5 0 1 0;
#X connect 6 0 1 1;
#X connect 7 0 8 0;
#X connect 8 0 9 0;
#X connect 8 1 3 0;
#X connect 10 0 11 0;
#X connect 11 0 0 0;
#X connect 11 1 7 0;
#X restore 78 341 pd set;
#X msg 93 111 bang;
#X msg 116 168 1.4;
#X msg 163 168 0.3;
#X floatatom 116 194 5 0 0 0 - - -;
#X floatatom 163 194 5 0 0 0 - - -;
#X obj 78 226 henon;
#X msg 103 139 reset;
#X obj 78 83 metro 1;
#N canvas 0 22 450 300 henon-plotter 0;
#X obj 225 175 fd_plot 123 pd-henon-plotter;
#X coords 0 0 450 350 450 350 2 0 0;
#X restore 247 21 pd henon-plotter;
#X connect 0 0 1 0;
#X connect 0 1 2 0;
#X connect 0 2 3 0;
#X connect 4 0 14 0;
#X connect 5 0 4 0;
#X connect 6 0 5 0;
#X connect 7 0 12 0;
#X connect 8 0 10 0;
#X connect 9 0 11 0;
#X connect 10 0 12 1;
#X connect 11 0 12 2;
#X connect 12 0 0 0;
#X connect 12 0 6 0;
#X connect 13 0 12 0;
#X connect 14 0 12 0;
#X restore 346 198 pd fd_plot-example;
#X msg 87 132 print 100;
#N canvas 1048 221 665 254 arguments 0;
#X obj 463 191 print;
#X msg 481 131 print 100;
#X msg 88 73 7;
#X obj 87 97 / 5;
#X obj 54 192 print;
#X obj 54 168 henon;
#X msg 135 113 0.3;
#X msg 54 31 bang;
#X floatatom 87 121 5 0 0 0 - - -;
#X obj 463 167 henon 100 1.4 0.3;
#X msg 220 76 7;
#X obj 219 100 / 5;
#X obj 186 195 print;
#X msg 267 116 0.3;
#X msg 186 31 bang;
#X floatatom 219 124 5 0 0 0 - - -;
#X obj 186 171 henon 100;
#X obj 314 197 print;
#X msg 395 118 0.3;
#X msg 314 31 bang;
#X obj 314 173 henon 100 1.4;
#X msg 463 102 bang;
#X connect 1 0 9 0;
#X connect 2 0 3 0;
#X connect 3 0 5 1;
#X connect 3 0 8 0;
#X connect 5 0 4 0;
#X connect 6 0 5 2;
#X connect 7 0 5 0;
#X connect 9 0 0 0;
#X connect 10 0 11 0;
#X connect 11 0 15 0;
#X connect 11 0 16 1;
#X connect 13 0 16 2;
#X connect 14 0 16 0;
#X connect 16 0 12 0;
#X connect 18 0 20 1;
#X connect 19 0 20 0;
#X connect 20 0 17 0;
#X connect 21 0 9 0;
#X restore 346 135 pd arguments;
#N canvas 1191 177 450 300 print-example 0;
#X obj 32 94 henon;
#X obj 209 100 array define henon-x;
#X obj 209 121 array define henon-y;
#X msg 32 61 print 100;
#X msg 32 142 \; henon-x \$3 \$1 \; henon-y \$3 \$1 \;;
#X text 225 79 Open to see:;
#X connect 0 0 4 0;
#X connect 3 0 0 0;
#X restore 346 156 pd print-example;
#X text 60 275 1: float: number of iterations (default 1000) \; 2:
float: coefficient 'a' (default 7/5) \; 3: flaot: coefficient 'b' (default
0.3) \;;
#X text 60 344 1: bang: compute one iteration \; 1: 'print': set and
compute number of iterations \; 2: float: coefficient 'a' \; 3: float:
coefficient 'b' \;;
#X text 60 423 1: list: (float) x (float) y (float) index if 'print'
;
#X msg 96 165 clear;
#X text 144 164 <-- or 'reset';
#X connect 10 0 11 0;
#X connect 11 0 12 0;
#X connect 14 0 11 0;
#X connect 20 0 11 0;
