#N canvas 500 50 530 480 12;
#X declare -lib fd_lib;
#X obj 4 4 cnv 15 522 30 empty empty "pmtwister" 20 15 0 15 -228856
-1 0;
#X obj 4 254 cnv 15 522 20 empty empty arguments: 10 10 0 14 -228856
-1 0;
#X obj 4 314 cnv 15 522 20 empty empty inlets: 10 10 0 14 -228856 -1
0;
#X obj 4 374 cnv 15 522 20 empty empty outlets: 10 10 0 14 -228856
-1 0;
#X obj 4 453 cnv 15 522 20 empty empty version 10 10 0 14 -228856 -1
0;
#X obj 380 8 declare -lib fd_lib;
#N canvas 0 22 450 300 meta 0;
#X restore 438 423 pd meta;
#X text 440 452 fd_lib v0.1;
#X text 60 284 1 arguments;
#X text 60 340 0 inlets;
#X text 60 410 0 outlets;
#X msg 38 93 bang;
#X obj 38 136 pmtwister;
#X obj 154 185 print nonprme;
#X obj 38 187 print prime;
#X text 31 48 Random number generator that selects prime numbers;
#X connect 11 0 12 0;
#X connect 12 0 14 0;
#X connect 12 1 13 0;
