#N canvas 1305 174 530 480 12;
#X declare -lib fd_lib;
#X obj 4 4 cnv 15 522 30 empty empty "scroll" 20 15 0 15 #dcdcdc #000000 0;
#X obj 4 254 cnv 15 522 20 empty empty arguments: 10 10 0 14 #dcdcdc #000000 0;
#X obj 4 314 cnv 15 522 20 empty empty inlets: 10 10 0 14 #dcdcdc #000000 0;
#X obj 4 374 cnv 15 522 20 empty empty outlets: 10 10 0 14 #dcdcdc #000000 0;
#X obj 4 453 cnv 15 522 20 empty empty version 10 10 0 14 #dcdcdc #000000 0;
#X obj 380 8 declare -lib fd_lib;
#N canvas 0 22 450 300 meta 0;
#X restore 438 423 pd meta;
#X text 440 452 fd_lib v0.1;
#X text 60 410 0 outlets;
#N canvas 729 167 355 184 canvas-1 0;
#X text 996 52 Top Right;
#X text 51 48 Top Left;
#X text 60 644 Bottom Left;
#X text 990 639 Bottom Right;
#X restore 411 210 pd canvas-1;
#N canvas 742 400 193 145 canvas-2 0;
#X text 996 52 Top Right;
#X text 51 48 Top Left;
#X text 60 644 Bottom Left;
#X text 990 639 Bottom Right;
#X restore 328 210 pd canvas-2;
#X obj 18 218 scroll pd-canvas-1;
#X text 249 232 Canvas will pop-up if not visible.;
#N canvas 941 400 202 149 current 0;
#X msg 24 28 xaxis 100;
#X obj 58 335 scroll;
#X msg 521 29 xaxis -100;
#X msg 56 671 yaxis 100;
#X msg 61 95 yaxis -100;
#X text 82 114 go down;
#X text 27 10 go right;
#X text 519 6 go left;
#X text 63 647 go up;
#X msg 39 68 yaxis -22;
#X msg 10 403 yaxis 22;
#X text 37 50 go halfway down;
#X text 5 379 go up;
#X text 78 359 No argument means current canvas, f 15;
#X connect 0 0 1 0;
#X connect 2 0 1 0;
#X connect 3 0 1 0;
#X connect 4 0 1 0;
#X connect 9 0 1 0;
#X connect 10 0 1 0;
#X restore 379 115 pd current;
#X text 363 93 If no argument:;
#N canvas 705 333 450 300 noscroll 0;
#X obj 99 130 scroll;
#X msg 86 62 xaxis 200;
#X msg 117 92 yaxis -200;
#X text 52 177 It only works when canvas is scrollable.;
#X connect 1 0 0 0;
#X connect 2 0 0 0;
#X restore 379 141 pd noscroll;
#N canvas 0 22 450 300 init 0;
#X obj 42 16 loadbang;
#X msg 42 41 \; pd-canvas-1 vis 0 \; pd-canvas-2 vis 0 \; pd-current vis 0 \; pd-noscroll vis 0 \;;
#X connect 0 0 1 0;
#X restore 381 35 pd init;
#X msg 101 135 \; msg xaxis -10;
#X obj 18 193 r msg;
#X msg 236 134 \; msg xaxis 10;
#X msg 172 96 \; msg yaxis 10;
#X msg 167 172 \; msg yaxis -10;
#X text 324 190 The canvases:;
#N canvas 0 22 703 614 messages 0;
#X msg 185 149 symbol pd-canvas-2;
#X msg 217 184 symbol pd-canvas-1;
#X msg 241 222 symbol fake;
#X text 179 124 Change canvas to scroll in:;
#X obj 41 574 s msg;
#X msg 67 80 xaxis \$1;
#X msg 144 78 yaxis \$1;
#X msg 66 49 10;
#X msg 99 49 -10;
#X msg 145 48 10;
#X msg 178 48 -10;
#X text 64 25 Scroll the canvas:;
#X floatatom 260 444 5 0 0 0 - - - 0;
#X msg 260 468 xpos \$1;
#X msg 341 478 ypos \$1;
#X floatatom 344 451 5 0 0 0 - - - 0;
#X text 408 421 normalized scroll (0-1);
#X obj 269 275 tgl 20 0 empty empty empty 0 -10 0 12 #fcfcfc #000000 #000000 0 1;
#X text 337 296 set to page-based scrolling \; defaults to units;
#X obj 255 369 tgl 20 0 empty empty empty 0 -10 0 12 #fcfcfc #000000 #000000 0 1;
#X msg 255 394 norm \$1;
#X text 414 459 canvas units;
#X text 442 483 x: 0..canvas width;
#X text 441 509 y: 0..-canvas height;
#X text 315 364 set xpos/ypos to normalized scrolling or canvas units \; defaults to unnormalized;
#X msg 259 299 page \$1;
#X msg 489 254 \; msg xaxis 1;
#X msg 387 255 \; msg xaxis -1;
#X msg 490 201 \; msg xaxis 2;
#X connect 0 0 4 0;
#X connect 1 0 4 0;
#X connect 2 0 4 0;
#X connect 5 0 4 0;
#X connect 6 0 4 0;
#X connect 7 0 5 0;
#X connect 8 0 5 0;
#X connect 9 0 6 0;
#X connect 10 0 6 0;
#X connect 12 0 13 0;
#X connect 13 0 4 0;
#X connect 14 0 4 0;
#X connect 15 0 14 0;
#X connect 17 0 25 0;
#X connect 19 0 20 0;
#X connect 20 0 4 0;
#X connect 25 0 4 0;
#X restore 378 75 pd messages;
#X text 60 284 1: symbol: pd-canvas name;
#X text 60 340 1: see pd-messages;
#N canvas 735 429 450 300 units 0;
#X obj 65 49 tgl 20 0 empty empty empty 0 -10 0 12 #fcfcfc #000000 #000000 0 1;
#X obj 65 99 s msg;
#X text 152 42 0 = units (default) small increments;
#X text 152 74 1 = pages \, entire scrollable screen;
#X msg 65 74 page \$1;
#X connect 0 0 4 0;
#X connect 4 0 1 0;
#X restore 378 168 pd units;
#N canvas 1342 517 450 300 pos 0;
#X obj 44 36 hsl 170 20 0 127 0 0 empty empty empty -2 -10 0 12 #fcfcfc #000000 #000000 0 1;
#X obj 42 62 / 127;
#X obj 42 112 s msg;
#X obj 235 218 / 127;
#X msg 235 243 ypos \$1;
#X obj 235 268 s msg;
#X obj 231 33 vsl 20 170 0 127 0 0 empty empty empty 0 -9 0 12 #fcfcfc #000000 #000000 0 1;
#X msg 42 87 xpos \$1;
#X connect 0 0 1 0;
#X connect 1 0 7 0;
#X connect 3 0 4 0;
#X connect 4 0 5 0;
#X connect 6 0 3 0;
#X connect 7 0 2 0;
#X restore 464 75 pd pos;
#X text 20 42 Scrolls in steps or absoulte position the X-axis or Y-axis on a given (or the current) canvas., f 42;
#X connect 18 0 11 0;
