#N canvas 528 31 639 589 12;
#X declare -lib Gem;
#X obj 256 24 declare -lib Gem;
#X obj 428 166 gemwin;
#X obj 106 282 pix_film;
#X obj 274 196 f;
#X obj 315 195 + 1;
#X obj 223 123 sel;
#X obj 514 296 bng 15 250 50 0 empty empty empty 17 7 0 10 -262144
-1 -1;
#X obj 514 316 openpanel;
#X msg 120 257 open \$1;
#X obj 272 123 - 1;
#X obj 106 458 pix_snap 0 0 500 500;
#X obj 378 464 pix_buffer \$0-vid;
#X msg 378 437 resize \$1 \, allocate 500 500 4;
#X obj 106 509 pix_buffer_write \$0-vid;
#X obj 106 428 t a b;
#X obj 274 227 t f f f;
#X obj 341 371 list split 1;
#X obj 411 29 loadbang;
#X obj 411 54 t b b;
#X msg 379 115 create \, 1;
#X obj 411 79 del 10;
#X msg 481 4 bang;
#X msg 327 125 0;
#X obj 327 150 t f f;
#X obj 513 341 t b a;
#X obj 341 404 t f f f;
#X obj 380 512 ==;
#X obj 106 134 t a b;
#X floatatom 242 148 5 0 0 0 - - -, f 5;
#X obj 388 252 bng 15 250 50 0 empty empty empty 17 7 0 10 -262144
-1 -1;
#X obj 106 329 pix_texture;
#X msg 475 82 0 \, destroy \, reset \, dimen 500 500, f 12;
#X obj 40 29 gemhead;
#X obj 40 54 bng 15 250 50 0 empty empty empty 17 7 0 10 -262144 -1
-1;
#X obj 138 179 bng 15 250 50 0 empty empty empty 17 7 0 10 -262144
-1 -1;
#X msg 503 146 frame 2;
#X msg 35 226 rectangle 0;
#X obj 106 354 square 4;
#X obj 106 109 gemhead;
#X floatatom 378 489 5 0 0 0 - - -, f 5;
#X msg 481 403 bang;
#X obj 120 69 tgl 15 0 empty empty empty 17 7 0 10 -262144 -1 -1 0
1;
#X connect 2 0 30 0;
#X connect 2 1 16 0;
#X connect 2 2 29 0;
#X connect 3 0 4 0;
#X connect 3 0 15 0;
#X connect 4 0 3 1;
#X connect 5 0 22 0;
#X connect 5 1 28 0;
#X connect 6 0 7 0;
#X connect 7 0 24 0;
#X connect 8 0 2 0;
#X connect 9 0 5 1;
#X connect 10 0 13 0;
#X connect 11 0 26 0;
#X connect 11 0 39 0;
#X connect 12 0 11 0;
#X connect 14 0 10 0;
#X connect 14 1 10 0;
#X connect 15 0 5 0;
#X connect 15 1 2 1;
#X connect 15 2 13 1;
#X connect 16 0 25 0;
#X connect 17 0 18 0;
#X connect 18 0 20 0;
#X connect 18 1 31 0;
#X connect 19 0 1 0;
#X connect 20 0 19 0;
#X connect 21 0 18 0;
#X connect 22 0 23 0;
#X connect 23 0 3 1;
#X connect 24 0 11 0;
#X connect 24 1 8 0;
#X connect 25 0 9 0;
#X connect 25 1 12 0;
#X connect 25 2 26 1;
#X connect 27 0 2 0;
#X connect 27 1 3 0;
#X connect 27 1 34 0;
#X connect 29 0 22 0;
#X connect 30 0 37 0;
#X connect 31 0 1 0;
#X connect 32 0 33 0;
#X connect 35 0 1 0;
#X connect 36 0 30 0;
#X connect 37 0 14 0;
#X connect 38 0 27 0;
#X connect 40 0 11 0;
#X connect 41 0 38 0;
