#N canvas 278 253 869 580 12;
#X msg 431 404 color \$1 \$2 \$3;
#X obj 324 101 t f f;
#X obj 381 110 t f f;
#X obj 304 161 pack f f f;
#X obj 381 83 - 11;
#X obj 445 140 - 11;
#X obj 310 45 inlet;
#X obj 431 464 s;
#X obj 431 306 t b a;
#X obj 431 378 list;
#X obj 304 186 t a b a;
#X obj 304 303 outlet;
#X obj 310 70 max -1;
#X obj 330 223 fd_argv \$1 \$2 \$3 \$4 \$5 \$6 \$7 \$8 \$9 \$10, f
13;
#X obj 489 292 route float symbol;
#X obj 559 334 makefilename %s-set;
#X obj 489 377 makefilename %d-set;
#X obj 705 30 inlet;
#X connect 0 0 7 0;
#X connect 1 0 3 0;
#X connect 1 1 4 0;
#X connect 2 0 3 1;
#X connect 2 1 5 0;
#X connect 3 0 10 0;
#X connect 4 0 2 0;
#X connect 5 0 3 2;
#X connect 6 0 12 0;
#X connect 8 0 9 0;
#X connect 8 1 14 0;
#X connect 9 0 0 0;
#X connect 10 0 11 0;
#X connect 10 1 13 0;
#X connect 10 2 9 1;
#X connect 12 0 1 0;
#X connect 13 1 8 0;
#X connect 13 2 8 0;
#X connect 14 0 16 0;
#X connect 14 1 15 0;
#X connect 15 0 7 1;
#X connect 16 0 7 1;
#X connect 17 0 13 1;
