#N canvas 526 50 231 132 12;
#X declare -lib Gem;
#X obj 10 10 cnv 15 85 60 empty empty fd_gemsphere 1 6 0 8 -1 -262144
0;
#X obj 50 22 hsl 20 10 0 127 0 0 \$0-l-r \$0-l-r-set l-r 1 6 0 8 -262144
-258113 -1 950 1;
#X obj 25 34 vsl 10 20 0 127 0 0 \$0-v \$0-v-set v 2 10 0 10 -262144
-258113 -1 1346 1;
#X obj 50 35 hsl 20 10 0 127 0 0 \$0-tilt \$0-tilt-set tilt 1 6 0 8
-262144 -258113 -1 950 1;
#X obj 52 47 tgl 15 0 \$0-auto \$0-auto-set auto 2 7 0 5 -262144 -1
-1 0 1;
#X obj 13 34 vsl 10 20 0 127 0 0 \$0-z \$0-z-set z 2 10 0 10 -262144
-258113 -1 0 1;
#X obj 81 10 fd_tglvis fd_gemsphere.pd;
#X obj 67 47 bng 15 250 50 0 \$0-rst \$0-rst-set rst 2 7 0 6 -262144
-1 -1;
#X obj 37 47 tgl 15 0 \$0-key \$0-key-set key 2 7 0 7 -262144 -1 -1
0 1;
#N canvas 0 22 352 332 guts 0;
#N canvas 249 412 295 272 gemmouse 0;
#X obj 34 55 gemmouse 127 127;
#X obj 53 103 max 0;
#X obj 53 125 min 127;
#X obj 101 102 max 0;
#X obj 101 124 min 127;
#X obj 164 83 sel 1;
#X obj 42 82 spigot;
#X obj 97 83 spigot;
#X text 39 30 mouse;
#X obj 101 168 + 127;
#X obj 101 190 s \$0-v-set;
#X obj 53 214 s \$0-l-r-set;
#X obj 98 32 r \$0-key;
#X obj 164 105 s \$0-key-set;
#X obj 101 146 * -0.5;
#X obj 53 147 * -1;
#X connect 0 0 6 0;
#X connect 0 1 7 0;
#X connect 0 2 5 0;
#X connect 1 0 2 0;
#X connect 2 0 15 0;
#X connect 3 0 4 0;
#X connect 4 0 14 0;
#X connect 5 0 13 0;
#X connect 6 0 1 0;
#X connect 7 0 3 0;
#X connect 9 0 10 0;
#X connect 12 0 6 1;
#X connect 12 0 7 1;
#X connect 14 0 9 0;
#X connect 15 0 11 0;
#X restore 22 58 pd gemmouse;
#N canvas 490 56 354 268 gemkeys 0;
#X msg 24 162 10;
#X msg 57 165 -10;
#X msg 159 162 -10;
#X msg 192 165 10;
#X msg 87 188 -10;
#X msg 120 188 10;
#X obj 45 74 spigot;
#X text 127 29 keyboard;
#X obj 24 184 s \$0-z-s;
#X obj 92 72 r \$0-key;
#X obj 162 190 s \$0-v-s;
#X obj 87 210 s \$0-tilt-s;
#X obj 223 178 s \$0-l-r-s;
#X obj 43 51 gemkeyboard;
#X obj 240 131 s \$0-rst-set;
#X msg 226 154 10;
#X msg 259 154 -10;
#X obj 48 98 sel 13 0 1 2 126 123 125 124 49;
#X connect 0 0 8 0;
#X connect 1 0 8 0;
#X connect 2 0 10 0;
#X connect 3 0 10 0;
#X connect 4 0 11 0;
#X connect 5 0 11 0;
#X connect 6 0 17 0;
#X connect 9 0 6 1;
#X connect 13 0 6 0;
#X connect 15 0 12 0;
#X connect 16 0 12 0;
#X connect 17 0 0 0;
#X connect 17 1 4 0;
#X connect 17 2 1 0;
#X connect 17 3 5 0;
#X connect 17 4 2 0;
#X connect 17 5 15 0;
#X connect 17 6 3 0;
#X connect 17 7 16 0;
#X connect 17 8 14 0;
#X restore 22 78 pd gemkeys;
#N canvas 0 22 202 195 z-pos 0;
#X obj 39 114 / 127;
#X obj 39 136 * 4;
#X obj 39 11 r \$0-z;
#X obj 78 30 r \$0-z-s;
#X obj 39 158 s \$0-z-pos;
#X obj 87 115 s \$0-v-lim;
#X obj 39 88 t f f;
#X obj 39 66 fd_step;
#X obj 87 95 spigot;
#X obj 93 50 r \$0-lock;
#X obj 93 72 t b f;
#X connect 0 0 1 0;
#X connect 1 0 4 0;
#X connect 2 0 7 0;
#X connect 3 0 7 1;
#X connect 6 0 0 0;
#X connect 6 1 8 0;
#X connect 7 0 6 0;
#X connect 8 0 5 0;
#X connect 9 0 10 0;
#X connect 10 0 7 0;
#X connect 10 1 8 1;
#X restore 22 118 pd z-pos;
#N canvas 328 36 188 455 v-pos 0;
#X obj 29 151 / 127;
#X obj 74 231 == 0;
#X obj 29 258 spigot 1;
#X obj 29 173 * -360;
#X obj 29 9 r \$0-v;
#X obj 68 327 r \$0-v-s;
#X obj 29 385 s \$0-v-pos;
#X obj 29 117 min 127;
#X obj 74 207 r \$0-auto;
#N canvas 894 215 163 340 z-limit 0;
#X obj 22 25 r \$0-v-lim;
#X obj 22 66 moses;
#X obj 90 127 / 10;
#X obj 90 149 + 98;
#X obj 22 125 / 10;
#X obj 22 197 + 98;
#X obj 22 98 abs;
#X obj 22 147 swap 1;
#X obj 22 169 -;
#X obj 22 288 outlet;
#X obj 22 266 change;
#X text 29 5 from z-pos;
#X connect 0 0 1 0;
#X connect 1 0 6 0;
#X connect 1 1 2 0;
#X connect 2 0 3 0;
#X connect 3 0 10 0;
#X connect 4 0 7 0;
#X connect 5 0 10 0;
#X connect 6 0 4 0;
#X connect 7 0 8 0;
#X connect 7 1 8 1;
#X connect 8 0 5 0;
#X connect 10 0 9 0;
#X restore 33 93 pd z-limit;
#X obj 29 31 t f f;
#X obj 102 9 r \$0-lock;
#X obj 102 31 == 0;
#X obj 53 63 spigot 1;
#X obj 111 63 spigot;
#X obj 29 352 fd_step;
#X connect 0 0 3 0;
#X connect 1 0 2 1;
#X connect 2 0 15 0;
#X connect 3 0 2 0;
#X connect 4 0 10 0;
#X connect 5 0 15 1;
#X connect 7 0 0 0;
#X connect 8 0 1 0;
#X connect 9 0 7 1;
#X connect 10 0 13 0;
#X connect 10 1 14 0;
#X connect 11 0 12 0;
#X connect 11 0 13 1;
#X connect 12 0 14 1;
#X connect 13 0 7 0;
#X connect 14 0 0 0;
#X connect 15 0 6 0;
#X restore 22 138 pd v-pos;
#N canvas 0 22 187 203 tilt-pos 0;
#X obj 33 59 / 127;
#X obj 33 81 * 180;
#X obj 33 103 - 90;
#X obj 33 36 r \$0-tilt;
#X obj 72 102 r \$0-tilt-s;
#X obj 33 145 s \$0-tilt-pos;
#X obj 33 123 fd_step;
#X connect 0 0 1 0;
#X connect 1 0 2 0;
#X connect 2 0 6 0;
#X connect 3 0 0 0;
#X connect 4 0 6 1;
#X connect 6 0 5 0;
#X restore 22 178 pd tilt-pos;
#N canvas 0 22 226 199 l-r-pos 0;
#X obj 41 38 / 127;
#X obj 41 60 * 360;
#X obj 41 14 r \$0-l-r;
#X obj 96 102 r \$0-l-r-s;
#X obj 41 130 s \$0-l-r-pos;
#X obj 41 108 fd_step;
#X obj 41 82 - 90;
#X connect 0 0 1 0;
#X connect 1 0 6 0;
#X connect 2 0 0 0;
#X connect 3 0 5 1;
#X connect 5 0 4 0;
#X connect 6 0 5 0;
#X restore 22 198 pd l-r-pos;
#N canvas 27 450 217 311 rst 0;
#X obj 16 23 r \$0-rst;
#X obj 29 45 bng 15 250 50 0 empty empty empty 17 7 0 10 -262144 -1
-1;
#X obj 16 66 pack \$0;
#X obj 68 58 loadbang;
#X msg 16 88 \; \$1-z-s 0 \; \$1-z-set 0 \; \$1-v-s 0 \; \$1-v-set
90 \; \$1-l-r-s 0 \; \$1-l-r-set 63.5 \; \$1-tilt-s 0 \; \$1-tilt-set
63.5 \; \$1-key-set 0 \; \$1-auto-set 0 \;;
#X connect 0 0 2 0;
#X connect 1 0 2 0;
#X connect 2 0 4 0;
#X connect 3 0 2 0;
#X restore 22 98 pd rst;
#N canvas 0 22 267 244 gemsphere-data 0;
#X obj 154 135 t b f;
#X obj 116 135 t b f;
#X obj 77 135 t b f;
#X obj 48 135 f;
#X obj 72 163 pack f f f f;
#X obj 48 31 r \$0-z-pos;
#X obj 77 61 r \$0-v-pos;
#X obj 116 88 r \$0-tilt-pos;
#X obj 154 110 r \$0-l-r-pos;
#X obj 72 189 s gemsphere-data;
#X connect 0 0 3 0;
#X connect 0 1 4 3;
#X connect 1 0 3 0;
#X connect 1 1 4 2;
#X connect 2 0 3 0;
#X connect 2 1 4 1;
#X connect 3 0 4 0;
#X connect 4 0 9 0;
#X connect 5 0 3 0;
#X connect 6 0 2 0;
#X connect 7 0 1 0;
#X connect 8 0 0 0;
#X restore 22 218 pd gemsphere-data;
#N canvas 26 339 266 390 gemlist 0;
#X obj 43 352 s gemlist;
#X obj 43 119 translateXYZ;
#X obj 112 46 r \$0-z-pos;
#X obj 76 145 r \$0-v-pos;
#X obj 109 164 r \$0-tilt-pos;
#X obj 142 184 r \$0-l-r-pos;
#X obj 43 25 gemhead 99;
#X obj 112 90 line;
#X obj 76 214 line;
#X obj 109 234 line;
#X obj 142 254 line;
#X obj 76 192 pack f 100;
#X obj 109 212 pack f 100;
#X obj 142 232 pack f 100;
#X obj 112 68 pack f 100;
#X obj 43 285 rotateXYZ -90 0 0;
#X floatatom 76 309 5 0 0 0 - - -;
#X obj 43 329 scale 2;
#X connect 1 0 15 0;
#X connect 2 0 14 0;
#X connect 3 0 11 0;
#X connect 4 0 12 0;
#X connect 5 0 13 0;
#X connect 6 0 1 0;
#X connect 7 0 1 3;
#X connect 8 0 15 1;
#X connect 9 0 15 2;
#X connect 10 0 15 3;
#X connect 11 0 8 0;
#X connect 12 0 9 0;
#X connect 13 0 10 0;
#X connect 14 0 7 0;
#X connect 15 0 17 0;
#X connect 16 0 17 1;
#X connect 17 0 0 0;
#X restore 22 38 pd gemlist;
#N canvas 0 22 313 351 auto 0;
#X obj 64 82 f;
#X obj 90 82 + 1;
#X obj 64 55 metro 50;
#X obj 64 167 t f f;
#X obj 177 228 * -127;
#X msg 177 275 set \$1;
#X obj 64 274 spigot;
#X obj 177 184 mod 360;
#X obj 177 206 / 360;
#X obj 64 20 r \$0-auto;
#X obj 177 300 s \$0-v-set;
#X obj 177 251 + 127;
#X obj 97 249 r \$0-auto;
#X obj 64 138 + 90;
#X obj 64 116 mod 180;
#X obj 64 296 s \$0-v-pos;
#X connect 0 0 1 0;
#X connect 0 0 14 0;
#X connect 1 0 0 1;
#X connect 2 0 0 0;
#X connect 3 0 6 0;
#X connect 3 1 7 0;
#X connect 4 0 11 0;
#X connect 5 0 10 0;
#X connect 6 0 15 0;
#X connect 7 0 8 0;
#X connect 8 0 4 0;
#X connect 9 0 2 0;
#X connect 11 0 5 0;
#X connect 12 0 6 1;
#X connect 13 0 3 0;
#X connect 14 0 13 0;
#X restore 22 158 pd auto;
#N canvas 0 22 450 300 retrieve 0;
#X obj 34 33 r fd_gemsphere;
#X obj 34 55 route lock;
#X obj 34 77 s \$0-lock;
#X connect 0 0 1 0;
#X connect 1 0 2 0;
#X restore 22 18 pd retrieve;
#N canvas 195 25 450 300 world_light 0;
#X obj 154 18 r \$0-light;
#X obj 154 40 tgl 15 0 empty empty empty 17 7 0 10 -262144 -1 -1 0
1;
#X obj 154 94 s gemwin;
#X msg 154 60 lighting \$1;
#X obj 27 57 separator;
#X obj 27 35 spigot;
#X obj 37 124 world_light;
#X obj 27 79 rotateXYZ 0 0 0;
#X floatatom 92 59 5 0 0 0 - - -;
#X obj 27 13 gemhead 98;
#X obj 220 93 print [fd_gemsphere];
#X connect 0 0 1 0;
#X connect 1 0 3 0;
#X connect 1 0 5 1;
#X connect 3 0 2 0;
#X connect 3 0 10 0;
#X connect 4 0 7 0;
#X connect 5 0 4 0;
#X connect 7 0 6 0;
#X connect 8 0 7 1;
#X connect 9 0 5 0;
#X restore 22 238 pd world_light;
#X restore 10 77 pd guts;
#X obj 84 23 bng 8 250 50 0 \$0-light \$0-light-set empty 17 7 0 10
-262144 -1 -1;
#X obj 13 22 bng 10 250 50 0 \$0-z-step-u \$0-z-step-u-set + 3 5 0
8 -262144 -1 -1;
#X obj 25 22 bng 10 250 50 0 \$0-v-step-u \$0-v-step-u-set + 3 5 0
8 -262144 -1 -1;
#X obj 13 57 bng 10 250 50 0 \$0-z-step-d \$0-z-step-d-set - 3 5 0
8 -262144 -1 -1;
#X obj 25 57 bng 10 250 50 0 \$0-v-step-d \$0-v-step-d-set - 3 5 0
8 -262144 -1 -1;
#X obj 37 22 bng 10 250 50 0 \$0-l-r-step-d \$0-l-r-step-d-set - 3
5 0 8 -262144 -1 -1;
#X obj 72 22 bng 10 250 50 0 \$0-l-r-step-u \$0-l-r-step-u-set + 3
5 0 8 -262144 -1 -1;
#X obj 37 35 bng 10 250 50 0 \$0-tilt-step-d \$0-tilt-step-d-set -
3 5 0 8 -262144 -1 -1;
#X obj 72 35 bng 10 250 50 0 \$0-tilt-step-u \$0-tilt-step-u-set +
3 5 0 8 -262144 -1 -1;
#X obj 109 11 declare -lib Gem;
#X coords 0 -1 1 1 85 60 2 10 10;
