#N canvas 365 23 681 718 12;
#X msg 489 471 const -1;
#X obj 94 165 t f f;
#X obj 131 396 ==;
#X obj 131 422 t f f;
#X obj 207 305 sel 1;
#X obj 169 510 spigot;
#X obj 94 519 spigot;
#X obj 131 452 t f f;
#X obj 183 453 == 0;
#X obj 94 490 t b f;
#X obj 199 536 t f f;
#X obj 289 268 t f b;
#X obj 94 38 inlet;
#X obj 131 251 until;
#X obj 131 305 f;
#X obj 167 305 + 1;
#X msg 152 277 0;
#X obj 131 194 t b b f;
#X obj 519 424 loadbang;
#X obj 289 510 spigot;
#X msg 383 429 0;
#X msg 379 392 1;
#X obj 489 298 t b f;
#X obj 417 432 t b b b;
#X obj 440 341 - 1;
#X obj 326 295 f;
#X obj 362 295 + 1;
#X msg 347 269 0;
#X obj 326 322 t f f;
#X obj 326 349 t f f;
#X obj 417 376 sel;
#X obj 417 403 t b b;
#X obj 379 347 sel;
#X obj 131 224 f;
#X obj 94 139 random;
#X obj 438 316 f;
#X obj 280 119 t f f f f;
#X obj 280 93 inlet;
#X obj 528 323 array size \$0-temp, f 13;
#X obj 489 499 array define \$0-temp 0;
#X f 15;
#X obj 307 541 array set \$0-temp, f 13;
#X obj 131 340 array get \$0-temp 0 1, f 13;
#X obj 417 84 loadbang;
#X obj 417 109 f \$1;
#X obj 417 134 sel;
#X obj 94 116 until;
#X obj 199 583 list prepend;
#X obj 199 608 t a a;
#X obj 170 635 list;
#X obj 170 660 outlet;
#X obj 94 93 t b b;
#X msg 140 92 0;
#X obj 94 63 spigot 1;
#X msg 437 485 1;
#X text 166 31 adapted from Alexandros Drymonitis vanilla urn abstraction
;
#X obj 55 283 del;
#X connect 0 0 39 0;
#X connect 1 0 9 0;
#X connect 1 1 17 0;
#X connect 2 0 3 0;
#X connect 3 0 7 0;
#X connect 3 1 4 0;
#X connect 4 0 13 1;
#X connect 5 0 10 0;
#X connect 6 0 55 0;
#X connect 7 0 6 1;
#X connect 7 1 8 0;
#X connect 8 0 5 1;
#X connect 9 0 6 0;
#X connect 9 1 5 0;
#X connect 10 0 46 0;
#X connect 10 1 11 0;
#X connect 11 0 19 0;
#X connect 11 1 25 0;
#X connect 12 0 52 0;
#X connect 13 0 14 0;
#X connect 14 0 15 0;
#X connect 14 0 41 0;
#X connect 15 0 14 1;
#X connect 16 0 14 1;
#X connect 17 0 33 0;
#X connect 17 1 16 0;
#X connect 17 2 2 1;
#X connect 18 0 0 0;
#X connect 19 0 40 0;
#X connect 20 0 19 1;
#X connect 21 0 19 1;
#X connect 22 0 0 0;
#X connect 22 1 38 0;
#X connect 23 0 20 0;
#X connect 23 1 45 1;
#X connect 23 1 48 0;
#X connect 23 1 53 0;
#X connect 23 2 0 0;
#X connect 24 0 30 1;
#X connect 25 0 26 0;
#X connect 25 0 28 0;
#X connect 26 0 25 1;
#X connect 27 0 25 1;
#X connect 28 0 29 0;
#X connect 28 1 32 0;
#X connect 29 0 40 1;
#X connect 29 1 30 0;
#X connect 30 0 31 0;
#X connect 31 0 23 0;
#X connect 31 1 27 0;
#X connect 32 0 21 0;
#X connect 33 0 13 0;
#X connect 34 0 1 0;
#X connect 35 0 24 0;
#X connect 36 0 34 1;
#X connect 36 1 33 1;
#X connect 36 2 35 0;
#X connect 36 3 22 0;
#X connect 37 0 36 0;
#X connect 41 0 2 0;
#X connect 42 0 43 0;
#X connect 43 0 44 0;
#X connect 44 1 36 0;
#X connect 45 0 34 0;
#X connect 46 0 47 0;
#X connect 47 0 48 1;
#X connect 47 1 46 1;
#X connect 48 0 49 0;
#X connect 50 0 45 0;
#X connect 50 1 46 1;
#X connect 50 1 51 0;
#X connect 51 0 52 1;
#X connect 52 0 50 0;
#X connect 53 0 52 1;
#X connect 55 0 34 0;
