#N canvas 500 50 530 480 12;
#X declare -path fd_lib;
#X obj 4 4 cnv 15 522 30 empty empty "fd_m-comb" 20 15 0 15 -228856
-1 0;
#X obj 4 254 cnv 15 522 20 empty empty arguments: 10 10 0 14 -228856
-1 0;
#X obj 4 314 cnv 15 522 20 empty empty inlets: 10 10 0 14 -228856 -1
0;
#X obj 4 374 cnv 15 522 20 empty empty outlets: 10 10 0 14 -228856
-1 0;
#X obj 4 453 cnv 15 522 20 empty empty version 10 10 0 14 -228856 -1
0;
#X obj 380 8 declare -path fd_lib;
#N canvas 0 22 450 300 meta 0;
#X text 10 10 fd_lib - metadata file - Fri Sep 13 18:19:56 EDT 2019
;
#X text 10 25 patch_name : fd_m-comb;
#X text 10 40 inlet : 1;
#X text 10 55 outlet : 1;
#X text 10 70 inlet~ : 0;
#X text 10 85 outlet~ : 0;
#X text 10 100 arguments : 1;
#X text 10 115 classes used : 9;
#X text 10 130 total objects: 12;
#X text 10 145 connections : 13;
#X text 10 160 dependencies : 0 [0];
#X text 10 175 externals : 0 [0];
#X text 10 190 internals : 9/233 [0outlet:list:inlet:sel:print:pack:loadbang:del:clone]
;
#X restore 438 423 pd meta;
#X text 440 452 fd_lib v0.1;
#X obj 142 171 fd_m-comb 8;
#X obj 142 220 print;
#X text 29 68 Outputs indices of matrix combinations according to a
list provided via 2nd inlet. eg: 1 1 1 becomes 0 \, 1 1 0 becomes 1
\, etc.;
#X text 33 42 A utility to make [fd_matrix-comb] eassier to grab.;
#X obj 376 208 fd_matrix-comb;
#X msg 142 128 0 1 1;
#X text 369 174 See help for:;
#X msg 216 122 0 1 1 1 \, 1 1 1 0 \, 2 1 0 0 \, 3 0 0 0 \, 4 0 0 1
\, 5 0 1 1 \, 6 1 0 1 \, 7 0 1 0 \,, f 35;
#X text 60 284 1: float: number of combinations;
#X text 61 340 1: list: of floats. must be one of the stored tuples
;
#X text 60 410 1: list: (float) index (list) the found tuplet;
#X connect 8 0 9 0;
#X connect 13 0 8 0;
#X connect 15 0 8 1;
