#N canvas 500 50 530 480 12;
#X declare -path fd_lib;
#X obj 4 4 cnv 15 522 30 empty empty "fd_fm" 20 15 0 15 -228856 -1
0;
#X obj 4 254 cnv 15 522 20 empty empty arguments: 10 10 0 14 -228856
-1 0;
#X obj 4 304 cnv 15 522 20 empty empty inlets: 10 10 0 14 -228856 -1
0;
#X obj 4 410 cnv 15 522 20 empty empty outlets: 10 10 0 14 -228856
-1 0;
#X obj 4 453 cnv 15 522 20 empty empty version 10 10 0 14 -228856 -1
0;
#X obj 380 8 declare -path fd_lib;
#X text 440 452 fd_lib v0.1;
#X text 60 277 no arguments;
#X obj 162 176 fd_fm;
#X floatatom 162 82 5 0 0 1 carrier - -;
#X floatatom 174 102 5 0 0 1 m-index - -;
#X floatatom 186 122 5 0 0 1 m-freq - -;
#X floatatom 199 142 5 0 0 1 m-phase - -;
#X obj 162 218 dac~;
#X text 111 46 Another FM oscillator;
#X msg 407 58 \; pd dsp 1;
#X msg 407 108 \; pd dsp 0;
#X text 33 328 1: float: carrier \; 1: list : (float) carrier (float)
index (float) freq (float) phase 2: float: modulation index \; 3: float:
modualtion frequency (Hz) \; 4: float: modulation phase (0-1) \;,
f 68;
#X text 60 430 1: signal;
#N canvas 0 22 450 300 meta 0;
#X text 10 10 fd_lib - metadata file - Fri Sep 13 18:19:16 EDT 2019
;
#X text 10 25 patch_name : fd_fm;
#X text 10 40 inlet : 4;
#X text 10 55 outlet : 1;
#X text 10 70 inlet~ : 0;
#X text 10 85 outlet~ : 1;
#X text 10 100 arguments : 0;
#X text 10 115 classes used : 10;
#X text 10 130 total objects: 20;
#X text 10 145 connections : 27;
#X text 10 160 dependencies : 0 [0];
#X text 10 175 externals : 0 [0];
#X text 10 190 internals : 10/233 [0line~:inlet:-~:phasor~:cos~:unpack:outlet~:*~:/:+~]
;
#X restore 438 423 pd meta;
#X connect 8 0 13 0;
#X connect 8 0 13 1;
#X connect 9 0 8 0;
#X connect 10 0 8 1;
#X connect 11 0 8 2;
#X connect 12 0 8 3;
