#N canvas 1044 22 220 91 10;
#X obj 56 19 tgl 15 0 empty empty empty 17 7 0 10 -262144 -1 -1 0 1
;
#N canvas 278 22 973 642 drawer 0;
#X obj 50 257 unpack f f f;
#X obj 201 301 * 1000;
#X obj 79 443 list append;
#X obj 201 323 / 10;
#X obj 201 345 int;
#X obj 51 317 int;
#X obj 107 359 int;
#X obj 258 603 f;
#X obj 292 604 + 1;
#X obj 79 465 list trim;
#X obj 79 487 t b a;
#X obj 432 591 s pd-canvass;
#X msg 278 471 1;
#X obj 258 625 t f f;
#X obj 287 649 - 1;
#X obj 258 647 pack;
#X msg 234 689 \; pd-canvass connect \$2 0 \$1 0;
#X obj 63 374 swap;
#X obj 63 396 list;
#X obj 50 299 * 1000;
#X obj 107 337 * 1000;
#X msg 429 129 reset;
#X obj 63 417 list prepend obj;
#X msg 520 83 100;
#X obj 507 103 until;
#X obj 474 227 unpack f f f;
#X obj 555 277 * 1000;
#X obj 473 400 list append;
#X obj 555 299 / 10;
#X obj 555 321 int;
#X obj 446 296 int;
#X obj 501 316 int;
#X obj 473 422 list trim;
#X obj 473 444 t b a;
#X obj 457 315 swap;
#X obj 457 353 list;
#X obj 457 374 list prepend obj;
#X obj 54 233 spigot;
#X obj 299 192 tgl 15 0 empty empty empty 17 7 0 10 -262144 -1 -1 0
1;
#X obj 474 208 spigot;
#X obj 657 130 loadbang;
#X obj 657 152 t b b;
#X obj 182 98 tgl 15 0 empty empty empty 17 7 0 10 -262144 -1 -1 1
1;
#X obj 182 120 sel 0 1;
#X obj 123 86 bang;
#X msg 659 113 bang;
#X msg 46 129 initb 32;
#X obj 668 177 random 1000;
#X obj 668 199 / 1000;
#X obj 664 291 random 2000;
#X obj 664 313 - 1000;
#X obj 664 335 / 1000;
#X obj 664 357 + 10;
#X obj 672 534 random 2000;
#X obj 672 556 - 1000;
#X obj 672 578 / 1000;
#X obj 672 600 + 28;
#X obj 760 424 random 2000;
#X obj 760 446 - 1000;
#X obj 760 468 / 1000;
#X obj 126 13 inlet;
#X obj 126 35 t f f;
#X obj 244 48 inlet;
#X obj 245 352 loadbang;
#X obj 244 70 route reset;
#X msg 377 133 0;
#X msg 373 33 \; pd-canvass clear \;;
#X obj 183 547 tgl 15 0 empty empty empty 17 7 0 10 -262144 -1 -1 0
1;
#X obj 183 569 sel 1;
#X obj 51 339 - 100;
#X obj 412 332 + 500;
#X obj 569 32 t b b b;
#X obj 444 278 * 1000;
#X obj 500 294 * 1000;
#X msg 669 238 init x \$1 \, init y \$1 \, init z \$1;
#X msg 665 379 init a \$1;
#X msg 758 495 init x \$1 \, init y \$1 \, init z \$1;
#X obj 665 262 s \$0-lorenz-initial-2;
#X obj 527 157 r \$0-lorenz-initial-2;
#X obj 665 401 s \$0-lorenz-initial-2;
#X obj 758 517 s \$0-lorenz-initial-1;
#X obj 673 644 s \$0-lorenz-initial-1;
#X msg 673 622 init b \$1;
#X obj 140 177 r \$0-lorenz-initial-1;
#X obj 46 191 fd_lorenz;
#X obj 471 188 fd_lorenz;
#X obj 474 249 fd_norm-abs;
#X obj 514 261 fd_norm-abs;
#X obj 555 255 fd_norm-abs;
#X obj 50 279 fd_norm-abs;
#X obj 107 315 fd_norm-abs;
#X obj 201 279 fd_norm-abs;
#X obj 299 212 sel 1;
#N canvas 38 19 1266 642 canvass 0;
#X restore 826 15 pd canvass;
#X msg 822 61 \; pd-canvass clear \;;
#X obj 824 36 loadbang;
#X msg 299 234 \; pd-canvass menu-open;
#X obj 123 64 metro 66;
#X connect 0 0 89 0;
#X connect 0 1 90 0;
#X connect 0 2 91 0;
#X connect 1 0 3 0;
#X connect 2 0 9 0;
#X connect 3 0 4 0;
#X connect 5 0 69 0;
#X connect 6 0 17 1;
#X connect 7 0 8 0;
#X connect 7 0 13 0;
#X connect 8 0 7 1;
#X connect 9 0 10 0;
#X connect 10 0 67 0;
#X connect 10 1 11 0;
#X connect 12 0 7 1;
#X connect 13 0 15 0;
#X connect 13 1 14 0;
#X connect 14 0 15 1;
#X connect 15 0 16 0;
#X connect 17 0 18 0;
#X connect 17 1 18 1;
#X connect 18 0 22 0;
#X connect 19 0 5 0;
#X connect 20 0 6 0;
#X connect 21 0 84 0;
#X connect 21 0 85 0;
#X connect 22 0 2 0;
#X connect 23 0 24 0;
#X connect 24 0 84 0;
#X connect 24 0 85 0;
#X connect 25 0 86 0;
#X connect 25 1 87 0;
#X connect 25 2 88 0;
#X connect 26 0 28 0;
#X connect 27 0 32 0;
#X connect 28 0 29 0;
#X connect 30 0 34 0;
#X connect 31 0 34 1;
#X connect 32 0 33 0;
#X connect 33 0 67 0;
#X connect 33 1 11 0;
#X connect 34 0 70 0;
#X connect 34 1 35 1;
#X connect 35 0 36 0;
#X connect 36 0 27 0;
#X connect 37 0 0 0;
#X connect 38 0 37 1;
#X connect 38 0 39 1;
#X connect 38 0 92 0;
#X connect 39 0 25 0;
#X connect 40 0 41 0;
#X connect 41 0 23 0;
#X connect 41 1 47 0;
#X connect 41 1 49 0;
#X connect 41 1 53 0;
#X connect 41 1 57 0;
#X connect 42 0 43 0;
#X connect 43 0 84 0;
#X connect 43 1 85 0;
#X connect 44 0 42 0;
#X connect 45 0 41 0;
#X connect 46 0 84 0;
#X connect 47 0 48 0;
#X connect 48 0 74 0;
#X connect 49 0 50 0;
#X connect 50 0 51 0;
#X connect 51 0 52 0;
#X connect 52 0 75 0;
#X connect 53 0 54 0;
#X connect 54 0 55 0;
#X connect 55 0 56 0;
#X connect 56 0 82 0;
#X connect 57 0 58 0;
#X connect 58 0 59 0;
#X connect 59 0 76 0;
#X connect 60 0 61 0;
#X connect 61 0 97 0;
#X connect 61 1 38 0;
#X connect 62 0 64 0;
#X connect 63 0 12 0;
#X connect 64 0 71 0;
#X connect 64 1 97 1;
#X connect 65 0 38 0;
#X connect 67 0 68 0;
#X connect 68 0 7 0;
#X connect 69 0 17 0;
#X connect 70 0 35 0;
#X connect 71 0 45 0;
#X connect 71 0 12 0;
#X connect 71 0 66 0;
#X connect 71 1 21 0;
#X connect 71 2 65 0;
#X connect 72 0 30 0;
#X connect 73 0 31 0;
#X connect 74 0 77 0;
#X connect 75 0 79 0;
#X connect 76 0 80 0;
#X connect 78 0 85 1;
#X connect 82 0 81 0;
#X connect 83 0 84 1;
#X connect 84 0 37 0;
#X connect 85 0 39 0;
#X connect 86 0 72 0;
#X connect 87 0 73 0;
#X connect 88 0 26 0;
#X connect 89 0 19 0;
#X connect 90 0 20 0;
#X connect 91 0 1 0;
#X connect 92 0 96 0;
#X connect 95 0 94 0;
#X connect 97 0 44 0;
#X restore 56 54 pd drawer;
#X floatatom 107 6 5 0 0 0 - - -, f 5;
#X msg 122 27 reset;
#X connect 0 0 1 0;
#X connect 2 0 1 1;
#X connect 3 0 1 1;
