#N canvas 1044 22 220 91 10;
#N canvas -66 10 1280 641 canvass 1;
#X obj 0 -500;
#X obj 1000 900;
#X obj 62 -500;
#X obj 1015 906;
#X obj 135 -499;
#X obj 1031 913;
#X obj 217 -490;
#X obj 1046 922;
#X obj 305 -473;
#X obj 1062 931;
#X obj 398 -449;
#X obj 1077 941;
#X obj 491 -417;
#X obj 1093 952;
#X obj 581 -378;
#X obj 1108 964;
#X obj 668 -333;
#X obj 1124 976;
#X obj 747 -283;
#X obj 1139 988;
#X obj 818 -230;
#X obj 1154 1001;
#X obj 880 -175;
#X obj 1168 1014;
#X obj 932 -119;
#X obj 1182 1028;
#X obj 975 -63;
#X obj 1196 1041;
#X obj 1009 -7;
#X obj 1210 1055;
#X obj 1033 45;
#X obj 1223 1068;
#X obj 1051 95;
#X obj 1235 1081;
#X obj 1063 143;
#X obj 1247 1094;
#X obj 1070 186;
#X obj 1259 1107;
#X obj 1075 227;
#X obj 1269 1120;
#X obj 1076 264;
#X obj 1279 1132;
#X obj 1076 297;
#X obj 1288 1143;
#X obj 1074 327;
#X obj 1297 1155;
#X obj 1071 353;
#X obj 1305 1165;
#X obj 1068 376;
#X obj 1311 1175;
#X obj 1064 397;
#X obj 1317 1185;
#X obj 1060 415;
#X obj 1322 1193;
#X obj 1057 431;
#X obj 1326 1201;
#X obj 1053 445;
#X obj 1328 1208;
#X obj 1050 457;
#X obj 1329 1215;
#X obj 1047 467;
#X obj 1328 1220;
#X obj 1045 476;
#X obj 1316 1225;
#X obj 1043 484;
#X obj 1294 1229;
#X obj 1041 490;
#X obj 1261 1232;
#X obj 1040 496;
#X obj 1217 1234;
#X obj 1040 501;
#X obj 1163 1234;
#X obj 1039 506;
#X obj 1099 1231;
#X obj 1040 510;
#X obj 1029 1221;
#X obj 1040 513;
#X obj 953 1203;
#X obj 1041 517;
#X obj 876 1178;
#X obj 1042 520;
#X obj 800 1146;
#X obj 1044 522;
#X obj 726 1108;
#X obj 1046 525;
#X obj 660 1065;
#X obj 1048 528;
#X obj 605 1018;
#X obj 1051 530;
#X obj 551 968;
#X obj 1054 533;
#X obj 501 916;
#X obj 1058 536;
#X obj 459 865;
#X obj 1062 538;
#X obj 428 814;
#X obj 1066 541;
#X obj 406 765;
#X obj 1071 544;
#X obj 391 718;
#X obj 1077 548;
#X obj 381 674;
#X obj 1083 551;
#X obj 375 633;
#X obj 1089 555;
#X obj 371 595;
#X obj 1095 559;
#X obj 370 561;
#X obj 1102 563;
#X obj 370 534;
#X obj 1110 568;
#X obj 372 508;
#X obj 1118 573;
#X obj 374 484;
#X obj 1127 579;
#X obj 376 461;
#X obj 1137 585;
#X obj 379 440;
#X obj 1147 591;
#X obj 381 420;
#X obj 1159 598;
#X obj 383 402;
#X obj 1170 606;
#X obj 384 386;
#X obj 1183 614;
#X obj 385 372;
#X obj 1197 622;
#X obj 385 360;
#X obj 1211 632;
#X obj 384 349;
#X obj 1226 642;
#X obj 382 339;
#X obj 1242 652;
#X obj 380 331;
#X obj 1259 664;
#X obj 377 323;
#X obj 1276 676;
#X obj 373 315;
#X obj 1295 689;
#X obj 369 308;
#X obj 1313 703;
#X obj 364 302;
#X obj 1333 717;
#X obj 359 295;
#X obj 1353 733;
#X obj 352 289;
#X obj 1374 749;
#X obj 346 282;
#X obj 1395 766;
#X obj 338 275;
#X obj 1416 783;
#X obj 330 268;
#X obj 1437 802;
#X obj 321 261;
#X obj 1457 821;
#X obj 312 254;
#X obj 1478 840;
#X obj 302 246;
#X obj 1498 859;
#X obj 291 238;
#X obj 1517 879;
#X obj 280 229;
#X obj 1536 899;
#X obj 268 220;
#X obj 1553 919;
#X obj 255 210;
#X obj 1568 939;
#X obj 242 200;
#X obj 1582 958;
#X obj 228 189;
#X obj 1594 976;
#X obj 213 178;
#X obj 1603 993;
#X obj 199 166;
#X obj 1609 1009;
#X obj 183 153;
#X obj 1612 1024;
#X obj 168 140;
#X obj 1609 1037;
#X obj 152 127;
#X obj 1593 1047;
#X obj 135 113;
#X obj 1564 1056;
#X obj 119 98;
#X obj 1520 1061;
#X obj 103 84;
#X obj 1462 1064;
#X obj 87 68;
#X obj 1392 1063;
#X obj 71 53;
#X obj 1313 1053;
#X obj 56 37;
#X obj 1228 1034;
#X obj 41 22;
#X obj 1142 1007;
#X obj 28 6;
#X obj 1061 972;
#X obj 15 -9;
#X obj 987 931;
#X obj 4 -25;
#X obj 923 885;
#X obj -5 -39;
#X obj 871 837;
#X obj -12 -53;
#X obj 831 786;
#X obj -18 -66;
#X obj 801 736;
#X obj -21 -78;
#X obj 780 688;
#X obj -21 -89;
#X obj 767 642;
#X obj -14 -98;
#X obj 759 599;
#X obj 0 -105;
#X obj 756 559;
#X obj 23 -111;
#X obj 756 524;
#X obj 55 -115;
#X obj 757 492;
#X obj 94 -116;
#X obj 760 463;
#X obj 141 -114;
#X obj 763 437;
#X obj 192 -106;
#X obj 767 415;
#X obj 247 -94;
#X obj 770 395;
#X obj 303 -76;
#X obj 773 378;
#X obj 358 -52;
#X obj 776 363;
#X obj 409 -24;
#X obj 778 350;
#X obj 455 7;
#X obj 780 338;
#X obj 496 41;
#X obj 781 328;
#X obj 530 76;
#X obj 782 319;
#X obj 557 112;
#X obj 782 311;
#X obj 579 148;
#X obj 782 304;
#X obj 595 183;
#X obj 781 297;
#X obj 607 216;
#X obj 780 292;
#X obj 614 248;
#X obj 779 286;
#X obj 619 277;
#X obj 777 281;
#X obj 621 304;
#X obj 776 277;
#X obj 622 328;
#X obj 774 272;
#X obj 622 350;
#X obj 771 268;
#X obj 621 370;
#X obj 769 264;
#X obj 620 388;
#X obj 767 260;
#X obj 618 404;
#X obj 764 256;
#X obj 617 418;
#X obj 761 253;
#X obj 617 430;
#X obj 759 249;
#X obj 616 442;
#X obj 756 245;
#X obj 616 452;
#X obj 754 242;
#X obj 617 461;
#X obj 752 238;
#X obj 618 469;
#X obj 750 235;
#X obj 620 477;
#X obj 748 232;
#X obj 622 484;
#X obj 746 229;
#X obj 625 490;
#X obj 745 226;
#X obj 629 496;
#X obj 744 223;
#X obj 634 503;
#X obj 744 220;
#X obj 639 509;
#X obj 743 218;
#X obj 645 515;
#X obj 744 215;
#X obj 651 521;
#X obj 744 213;
#X obj 658 527;
#X obj 745 212;
#X obj 666 534;
#X obj 747 210;
#X obj 674 541;
#X obj 749 209;
#X obj 684 548;
#X obj 751 208;
#X obj 694 556;
#X obj 754 208;
#X obj 705 564;
#X obj 757 208;
#X obj 716 572;
#X obj 760 208;
#X obj 728 582;
#X obj 764 209;
#X obj 741 591;
#X obj 768 210;
#X obj 755 602;
#X obj 772 212;
#X obj 769 613;
#X obj 776 213;
#X obj 784 624;
#X obj 780 215;
#X obj 799 637;
#X obj 784 218;
#X obj 815 649;
#X obj 789 221;
#X obj 830 663;
#X obj 793 224;
#X obj 846 677;
#X obj 797 227;
#X obj 862 692;
#X obj 801 230;
#X obj 877 707;
#X obj 804 233;
#X obj 891 722;
#X obj 807 237;
#X obj 904 738;
#X obj 810 240;
#X obj 915 753;
#X obj 813 244;
#X obj 924 769;
#X obj 816 248;
#X obj 930 783;
#X obj 818 251;
#X obj 933 798;
#X obj 819 254;
#X obj 932 811;
#X obj 820 258;
#X obj 927 822;
#X obj 821 261;
#X obj 917 832;
#X obj 822 263;
#X obj 903 840;
#X obj 822 266;
#X obj 884 845;
#X obj 821 268;
#X obj 862 848;
#X obj 821 270;
#X obj 835 847;
#X obj 820 272;
#X obj 805 843;
#X obj 818 273;
#X obj 772 836;
#X obj 817 275;
#X obj 738 826;
#X obj 815 275;
#X obj 704 812;
#X obj 812 276;
#X obj 671 796;
#X obj 810 276;
#X obj 639 778;
#X obj 807 276;
#X obj 610 757;
#X obj 804 275;
#X obj 584 735;
#X obj 800 275;
#X obj 561 711;
#X obj 797 273;
#X obj 541 688;
#X obj 793 272;
#X obj 525 664;
#X obj 789 270;
#X obj 512 641;
#X obj 785 268;
#X obj 501 618;
#X obj 781 266;
#X obj 494 596;
#X obj 776 263;
#X obj 488 576;
#X obj 772 260;
#X obj 485 557;
#X obj 768 257;
#X obj 483 539;
#X obj 763 254;
#X obj 482 523;
#X obj 759 250;
#X obj 482 509;
#X obj 754 246;
#X obj 483 496;
#X obj 750 242;
#X obj 484 484;
#X obj 746 238;
#X obj 486 474;
#X obj 742 234;
#X obj 488 465;
#X obj 739 230;
#X obj 490 457;
#X obj 736 226;
#X obj 492 450;
#X obj 733 222;
#X obj 494 444;
#X obj 731 218;
#X obj 496 439;
#X obj 729 214;
#X obj 498 434;
#X obj 728 211;
#X obj 500 431;
#X obj 727 207;
#X obj 502 427;
#X obj 727 204;
#X obj 503 425;
#X obj 728 201;
#X obj 505 423;
#X obj 729 199;
#X obj 507 421;
#X obj 731 197;
#X obj 508 420;
#X obj 734 195;
#X obj 510 419;
#X obj 738 194;
#X obj 511 418;
#X obj 742 194;
#X obj 513 418;
#X obj 746 194;
#X obj 514 418;
#X obj 751 194;
#X obj 516 418;
#X obj 757 195;
#X obj 518 418;
#X obj 763 197;
#X obj 519 418;
#X obj 769 199;
#X obj 521 419;
#X obj 775 202;
#X obj 523 420;
#X obj 782 205;
#X obj 525 420;
#X obj 788 209;
#X obj 527 421;
#X obj 795 213;
#X obj 530 423;
#X obj 801 217;
#X obj 532 424;
#X obj 807 222;
#X obj 535 426;
#X obj 812 227;
#X obj 538 427;
#X obj 818 232;
#X obj 541 429;
#X obj 822 238;
#X obj 545 431;
#X obj 827 243;
#X obj 549 434;
#X obj 830 248;
#X obj 553 436;
#X obj 834 253;
#X obj 557 439;
#X obj 836 258;
#X obj 562 442;
#X obj 838 263;
#X obj 568 446;
#X obj 840 268;
#X obj 574 449;
#X obj 841 272;
#X obj 581 454;
#X obj 841 276;
#X obj 588 458;
#X obj 841 280;
#X obj 596 463;
#X obj 841 283;
#X obj 605 468;
#X obj 840 286;
#X obj 614 474;
#X obj 838 288;
#X obj 625 481;
#X obj 836 290;
#X obj 637 488;
#X obj 834 292;
#X obj 649 496;
#X obj 831 293;
#X obj 663 505;
#X obj 828 294;
#X obj 678 514;
#X obj 825 294;
#X obj 695 524;
#X obj 821 294;
#X obj 713 536;
#X obj 817 293;
#X obj 732 548;
#X obj 812 292;
#X obj 754 562;
#X obj 808 291;
#X obj 777 577;
#X obj 802 289;
#X obj 801 593;
#X obj 797 286;
#X obj 828 610;
#X obj 792 284;
#X obj 856 629;
#X obj 786 280;
#X obj 886 650;
#X obj 780 277;
#X obj 917 672;
#X obj 774 273;
#X obj 949 696;
#X obj 768 269;
#X obj 980 721;
#X obj 761 264;
#X obj 996 748;
#X obj 755 259;
#X obj 1010 776;
#X obj 749 254;
#X obj 1023 805;
#X obj 742 249;
#X obj 1033 834;
#X obj 736 243;
#X obj 1041 864;
#X obj 730 237;
#X obj 1045 888;
#X obj 725 232;
#X obj 1046 901;
#X obj 720 226;
#X obj 1036 913;
#X obj 715 220;
#X obj 1015 922;
#X obj 711 214;
#X obj 981 929;
#X obj 708 208;
#X obj 935 933;
#X obj 705 202;
#X obj 877 934;
#X obj 703 197;
#X obj 810 928;
#X obj 703 192;
#X obj 737 915;
#X obj 703 187;
#X obj 661 893;
#X obj 704 183;
#X obj 586 864;
#X obj 707 180;
#X obj 517 829;
#X obj 710 177;
#X obj 456 788;
#X obj 715 175;
#X obj 405 744;
#X obj 721 173;
#X obj 365 697;
#X obj 727 173;
#X obj 334 651;
#X obj 735 173;
#X obj 311 604;
#X obj 743 175;
#X obj 297 560;
#X obj 752 177;
#X obj 288 518;
#X obj 762 180;
#X obj 283 480;
#X obj 772 184;
#X obj 281 444;
#X obj 782 188;
#X obj 282 412;
#X obj 792 194;
#X obj 284 383;
#X obj 802 200;
#X obj 286 358;
#X obj 811 206;
#X obj 289 335;
#X obj 820 214;
#X obj 292 315;
#X obj 829 221;
#X obj 294 297;
#X obj 836 229;
#X obj 297 281;
#X obj 843 237;
#X obj 299 267;
#X obj 850 245;
#X obj 300 255;
#X obj 855 253;
#X obj 301 244;
#X obj 860 260;
#X obj 302 235;
#X obj 863 268;
#X obj 302 226;
#X obj 866 275;
#X obj 301 218;
#X obj 868 282;
#X obj 301 212;
#X obj 870 288;
#X obj 300 205;
#X obj 870 294;
#X obj 298 199;
#X obj 870 299;
#X obj 297 194;
#X obj 870 304;
#X obj 295 189;
#X obj 869 308;
#X obj 293 184;
#X obj 867 312;
#X obj 290 179;
#X obj 864 315;
#X obj 288 175;
#X obj 862 318;
#X obj 286 171;
#X obj 858 320;
#X obj 283 166;
#X obj 855 321;
#X obj 281 162;
#X obj 850 322;
#X obj 278 158;
#X obj 846 322;
#X obj 276 154;
#X obj 841 321;
#X obj 274 151;
#X obj 835 320;
#X obj 272 147;
#X obj 830 319;
#X obj 270 143;
#X obj 823 316;
#X obj 269 140;
#X obj 817 314;
#X obj 267 137;
#X obj 810 311;
#X obj 267 134;
#X obj 803 307;
#X obj 266 131;
#X obj 795 303;
#X obj 266 128;
#X obj 787 298;
#X obj 266 126;
#X obj 779 293;
#X obj 267 124;
#X obj 770 287;
#X obj 268 122;
#X obj 762 281;
#X obj 270 120;
#X obj 753 275;
#X obj 272 119;
#X obj 744 268;
#X obj 274 118;
#X obj 735 260;
#X obj 277 118;
#X obj 725 252;
#X obj 280 118;
#X obj 717 244;
#X obj 284 118;
#X obj 708 236;
#X obj 288 119;
#X obj 699 228;
#X obj 292 120;
#X obj 692 219;
#X obj 296 122;
#X obj 685 210;
#X obj 300 124;
#X obj 678 202;
#X obj 305 126;
#X obj 673 193;
#X obj 309 129;
#X obj 669 185;
#X obj 313 132;
#X obj 666 177;
#X obj 317 135;
#X obj 665 169;
#X obj 321 138;
#X obj 666 163;
#X obj 325 142;
#X obj 668 156;
#X obj 329 146;
#X obj 672 151;
#X obj 332 150;
#X obj 679 147;
#X obj 335 153;
#X obj 687 144;
#X obj 338 157;
#X obj 697 143;
#X obj 340 161;
#X obj 708 142;
#X obj 342 165;
#X obj 721 144;
#X obj 343 168;
#X obj 736 146;
#X obj 344 172;
#X obj 751 150;
#X obj 345 175;
#X obj 767 156;
#X obj 345 178;
#X obj 783 163;
#X obj 345 180;
#X obj 799 171;
#X obj 345 183;
#X obj 814 180;
#X obj 344 185;
#X obj 829 190;
#X obj 343 187;
#X obj 843 201;
#X obj 342 188;
#X obj 856 213;
#X obj 340 189;
#X obj 868 225;
#X obj 338 190;
#X obj 878 237;
#X obj 335 191;
#X obj 887 249;
#X obj 333 191;
#X obj 895 261;
#X obj 330 191;
#X obj 901 273;
#X obj 327 190;
#X obj 906 284;
#X obj 323 189;
#X obj 910 295;
#X obj 320 188;
#X obj 912 305;
#X obj 316 186;
#X obj 914 314;
#X obj 312 184;
#X obj 915 323;
#X obj 308 182;
#X obj 914 331;
#X obj 304 180;
#X obj 914 338;
#X obj 299 177;
#X obj 912 344;
#X obj 295 174;
#X obj 910 349;
#X obj 290 170;
#X obj 908 354;
#X obj 286 167;
#X obj 904 357;
#X obj 282 163;
#X obj 901 360;
#X obj 277 159;
#X obj 897 363;
#X obj 273 155;
#X obj 893 364;
#X obj 269 151;
#X obj 888 365;
#X obj 265 147;
#X obj 883 365;
#X obj 262 142;
#X obj 877 365;
#X obj 258 138;
#X obj 871 364;
#X obj 256 133;
#X obj 865 362;
#X obj 253 129;
#X obj 858 360;
#X obj 251 125;
#X obj 850 357;
#X obj 250 121;
#X obj 843 353;
#X obj 250 117;
#X obj 834 349;
#X obj 250 114;
#X obj 826 344;
#X obj 250 111;
#X obj 816 339;
#X obj 252 108;
#X obj 806 333;
#X obj 254 106;
#X obj 796 327;
#X obj 257 104;
#X obj 785 320;
#X obj 260 103;
#X obj 774 312;
#X obj 264 102;
#X obj 762 304;
#X obj 269 102;
#X obj 749 295;
#X obj 274 103;
#X obj 737 285;
#X obj 280 104;
#X obj 723 275;
#X obj 286 106;
#X obj 710 265;
#X obj 293 108;
#X obj 696 254;
#X obj 299 111;
#X obj 683 242;
#X obj 306 115;
#X obj 670 230;
#X obj 313 119;
#X obj 657 217;
#X obj 319 123;
#X obj 644 204;
#X obj 326 128;
#X obj 633 192;
#X obj 332 133;
#X obj 623 179;
#X obj 337 139;
#X obj 615 166;
#X obj 342 144;
#X obj 610 153;
#X obj 347 150;
#X obj 608 141;
#X obj 351 155;
#X obj 608 130;
#X obj 355 161;
#X obj 610 120;
#X obj 358 167;
#X obj 616 111;
#X obj 361 172;
#X obj 625 104;
#X obj 363 177;
#X obj 638 99;
#X obj 364 182;
#X obj 655 95;
#X obj 365 187;
#X obj 674 95;
#X obj 366 191;
#X obj 697 96;
#X obj 365 195;
#X obj 721 100;
#X obj 365 198;
#X obj 748 107;
#X obj 364 202;
#X obj 775 117;
#X obj 362 204;
#X obj 802 128;
#X obj 360 206;
#X obj 829 142;
#X obj 358 208;
#X obj 854 158;
#X obj 355 209;
#X obj 878 175;
#X obj 352 210;
#X obj 899 194;
#X obj 349 210;
#X obj 918 213;
#X obj 345 210;
#X obj 934 232;
#X obj 341 210;
#X obj 948 251;
#X obj 337 209;
#X obj 959 271;
#X obj 332 207;
#X obj 967 289;
#X obj 327 205;
#X obj 974 307;
#X obj 322 203;
#X obj 979 323;
#X obj 316 200;
#X obj 982 339;
#X obj 311 197;
#X obj 984 353;
#X obj 305 193;
#X obj 985 366;
#X obj 299 189;
#X obj 985 378;
#X obj 292 185;
#X obj 985 389;
#X obj 286 180;
#X obj 983 399;
#X obj 280 175;
#X obj 982 407;
#X obj 273 170;
#X obj 979 414;
#X obj 267 164;
#X obj 977 420;
#X obj 261 158;
#X obj 975 426;
#X obj 255 152;
#X obj 972 430;
#X obj 249 146;
#X obj 969 434;
#X obj 244 140;
#X obj 966 437;
#X obj 239 133;
#X obj 963 439;
#X obj 234 127;
#X obj 960 441;
#X obj 231 121;
#X obj 956 442;
#X obj 228 114;
#X obj 953 443;
#X obj 225 108;
#X obj 949 443;
#X obj 224 103;
#X obj 946 443;
#X obj 224 98;
#X obj 942 442;
#X obj 225 93;
#X obj 937 441;
#X obj 227 89;
#X obj 933 439;
#X obj 230 86;
#X obj 928 437;
#X obj 235 83;
#X obj 923 435;
#X obj 241 81;
#X obj 917 432;
#X obj 247 80;
#X obj 911 429;
#X obj 255 80;
#X obj 905 425;
#X obj 264 81;
#X obj 898 421;
#X obj 273 83;
#X obj 890 417;
#X obj 283 86;
#X obj 882 412;
#X obj 293 90;
#X obj 873 406;
#X obj 304 95;
#X obj 864 400;
#X obj 314 101;
#X obj 853 394;
#X obj 324 107;
#X obj 842 387;
#X obj 334 114;
#X obj 830 379;
#X obj 344 122;
#X obj 817 371;
#X obj 352 130;
#X obj 803 362;
#X obj 361 138;
#X obj 788 352;
#X obj 368 147;
#X obj 772 341;
#X obj 374 155;
#X obj 754 329;
#X obj 380 164;
#X obj 736 317;
#X obj 384 172;
#X obj 716 303;
#X obj 388 180;
#X obj 696 288;
#X obj 391 188;
#X obj 674 273;
#X obj 393 196;
#X obj 652 256;
#X obj 395 203;
#X obj 629 239;
#X obj 396 209;
#X obj 607 220;
#X obj 396 215;
#X obj 593 200;
#X obj 395 220;
#X obj 581 180;
#X obj 394 225;
#X obj 569 159;
#X obj 392 229;
#X obj 559 138;
#X obj 390 233;
#X obj 552 116;
#X obj 387 235;
#X obj 546 95;
#X obj 384 238;
#X obj 543 75;
#X obj 381 239;
#X obj 543 59;
#X obj 377 240;
#X obj 550 50;
#X obj 373 241;
#X obj 563 42;
#X obj 368 241;
#X obj 585 37;
#X obj 363 240;
#X obj 614 33;
#X obj 358 239;
#X obj 650 32;
#X obj 352 237;
#X obj 692 35;
#X obj 346 234;
#X obj 739 43;
#X obj 339 231;
#X obj 789 56;
#X obj 333 228;
#X obj 839 74;
#X obj 325 224;
#X obj 888 97;
#X obj 318 220;
#X obj 933 124;
#X obj 310 215;
#X obj 973 154;
#X obj 302 209;
#X obj 1008 186;
#X obj 293 203;
#X obj 1037 219;
#X obj 285 197;
#X obj 1061 253;
#X obj 276 190;
#X obj 1078 286;
#X obj 267 182;
#X obj 1092 318;
#X obj 257 175;
#X obj 1101 349;
#X obj 248 166;
#X obj 1107 377;
#X obj 239 158;
#X obj 1110 404;
#X obj 230 149;
#X obj 1112 428;
#X obj 221 140;
#X obj 1112 450;
#X obj 213 131;
#X obj 1112 469;
#X obj 206 121;
#X obj 1111 487;
#X obj 199 112;
#X obj 1110 503;
#X obj 194 103;
#X obj 1108 517;
#X obj 189 94;
#X obj 1108 529;
#X obj 186 85;
#X obj 1107 540;
#X obj 185 77;
#X obj 1107 550;
#X obj 185 69;
#X obj 1107 558;
#X obj 188 63;
#X obj 1108 566;
#X obj 192 57;
#X obj 1109 573;
#X obj 199 52;
#X obj 1111 580;
#X obj 208 49;
#X obj 1114 586;
#X obj 218 47;
#X obj 1117 592;
#X obj 231 47;
#X obj 1120 598;
#X obj 245 48;
#X obj 1124 603;
#X obj 260 51;
#X obj 1129 609;
#X obj 276 55;
#X obj 1134 614;
#X obj 293 62;
#X obj 1140 620;
#X obj 310 69;
#X obj 1147 626;
#X obj 327 78;
#X obj 1154 632;
#X obj 344 89;
#X obj 1161 638;
#X obj 359 100;
#X obj 1170 645;
#X obj 374 112;
#X obj 1179 652;
#X obj 387 125;
#X obj 1188 660;
#X obj 398 138;
#X obj 1198 668;
#X obj 409 152;
#X obj 1209 676;
#X obj 417 165;
#X obj 1220 685;
#X obj 424 178;
#X obj 1231 694;
#X obj 430 191;
#X obj 1243 704;
#X obj 435 203;
#X obj 1256 715;
#X obj 438 214;
#X obj 1268 726;
#X obj 440 225;
#X obj 1281 738;
#X obj 441 235;
#X obj 1293 750;
#X obj 442 244;
#X obj 1305 762;
#X obj 442 252;
#X obj 1317 775;
#X obj 441 260;
#X obj 1328 787;
#X obj 439 266;
#X obj 1338 800;
#X obj 437 272;
#X obj 1346 813;
#X obj 434 277;
#X obj 1353 826;
#X obj 432 281;
#X obj 1357 838;
#X obj 428 284;
#X obj 1359 850;
#X obj 425 287;
#X obj 1357 860;
#X obj 421 288;
#X obj 1353 870;
#X obj 417 290;
#X obj 1345 877;
#X obj 412 290;
#X obj 1334 883;
#X obj 407 290;
#X obj 1319 887;
#X obj 402 289;
#X obj 1301 889;
#X obj 397 288;
#X obj 1280 888;
#X obj 391 286;
#X obj 1256 884;
#X obj 385 284;
#X obj 1231 878;
#X obj 378 281;
#X obj 1205 869;
#X obj 371 277;
#X obj 1179 858;
#X obj 363 273;
#X obj 1153 844;
#X obj 355 269;
#X obj 1128 829;
#X obj 347 263;
#X obj 1106 812;
#X obj 337 258;
#X obj 1085 793;
#X obj 328 251;
#X obj 1067 774;
#X obj 317 244;
#X obj 1051 755;
#X obj 307 237;
#X obj 1038 735;
#X obj 295 229;
#X obj 1027 716;
#X obj 283 220;
#X obj 1019 697;
#X obj 271 210;
#X obj 1013 680;
#X obj 257 200;
#X obj 1008 663;
#X obj 244 190;
#X obj 1005 647;
#X obj 230 178;
#X obj 1003 633;
#X obj 216 166;
#X obj 1002 619;
#X obj 202 154;
#X obj 1002 607;
#X obj 188 141;
#X obj 1002 597;
#X obj 174 127;
#X obj 1003 587;
#X obj 161 113;
#X obj 1005 579;
#X obj 150 99;
#X obj 1007 571;
#X obj 139 85;
#X obj 1009 565;
#X obj 130 71;
#X obj 1011 559;
#X obj 124 57;
#X obj 1013 555;
#X obj 120 44;
#X obj 1015 551;
#X obj 119 31;
#X obj 1017 547;
#X obj 122 20;
#X obj 1019 545;
#X obj 129 10;
#X obj 1022 543;
#X obj 140 2;
#X obj 1024 541;
#X obj 155 -4;
#X obj 1027 540;
#X obj 175 -7;
#X obj 1029 539;
#X obj 197 -7;
#X obj 1032 539;
#X obj 223 -5;
#X obj 1035 539;
#X obj 251 1;
#X obj 1037 540;
#X obj 281 9;
#X obj 1040 541;
#X obj 312 21;
#X obj 1044 542;
#X obj 342 35;
#X obj 1047 543;
#X obj 370 51;
#X obj 1051 545;
#X obj 397 70;
#X obj 1054 547;
#X obj 422 90;
#X obj 1059 549;
#X obj 443 111;
#X obj 1063 551;
#X obj 462 133;
#X obj 1068 554;
#X obj 477 154;
#X obj 1073 558;
#X obj 489 176;
#X obj 1079 561;
#X obj 499 197;
#X obj 1085 565;
#X obj 507 217;
#X obj 1092 569;
#X obj 512 236;
#X obj 1099 574;
#X obj 516 254;
#X obj 1107 580;
#X obj 518 271;
#X obj 1116 585;
#X obj 519 286;
#X obj 1125 592;
#X obj 519 300;
#X obj 1136 598;
#X obj 518 312;
#X obj 1147 606;
#X obj 517 323;
#X obj 1159 614;
#X obj 516 333;
#X obj 1172 623;
#X obj 514 342;
#X obj 1186 633;
#X obj 513 350;
#X obj 1201 643;
#X obj 511 356;
#X obj 1218 654;
#X obj 509 362;
#X obj 1235 667;
#X obj 508 367;
#X obj 1254 680;
#X obj 506 371;
#X obj 1273 694;
#X obj 505 375;
#X obj 1294 710;
#X obj 503 378;
#X obj 1316 726;
#X obj 502 381;
#X obj 1338 744;
#X obj 501 383;
#X obj 1361 763;
#X obj 499 385;
#X obj 1384 783;
#X obj 498 386;
#X obj 1406 803;
#X obj 497 387;
#X obj 1427 825;
#X obj 496 388;
#X obj 1446 847;
#X obj 495 389;
#X obj 1462 869;
#X obj 494 389;
#X obj 1474 891;
#X obj 494 390;
#X obj 1481 912;
#X obj 493 390;
#X obj 1481 932;
#X obj 492 390;
#X obj 1474 950;
#X obj 491 390;
#X obj 1459 965;
#X obj 490 390;
#X obj 1435 977;
#X obj 489 390;
#X obj 1401 984;
#X obj 488 389;
#X obj 1359 986;
#X obj 487 389;
#X obj 1310 983;
#X obj 486 388;
#X obj 1256 974;
#X obj 485 388;
#X obj 1200 958;
#X obj 484 387;
#X obj 1142 937;
#X obj 482 386;
#X obj 1088 911;
#X obj 481 385;
#X obj 1038 880;
#X obj 479 385;
#X obj 993 846;
#X obj 477 383;
#X obj 956 810;
#X obj 475 382;
#X obj 926 772;
#X obj 473 381;
#X obj 903 735;
#X obj 471 379;
#X obj 885 698;
#X obj 468 378;
#X obj 873 663;
#X obj 465 376;
#X obj 865 630;
#X obj 462 374;
#X obj 860 599;
#X obj 459 372;
#X obj 858 571;
#X obj 455 369;
#X obj 857 545;
#X obj 451 367;
#X obj 858 522;
#X obj 447 364;
#X obj 859 501;
#X obj 442 361;
#X obj 860 483;
#X obj 436 357;
#X obj 861 467;
#X obj 430 354;
#X obj 863 452;
#X obj 424 349;
#X obj 864 439;
#X obj 416 345;
#X obj 864 428;
#X obj 408 340;
#X obj 864 418;
#X obj 399 334;
#X obj 864 409;
#X obj 390 328;
#X obj 862 400;
#X obj 379 321;
#X obj 861 393;
#X obj 367 314;
#X obj 858 386;
#X obj 354 306;
#X obj 855 379;
#X obj 340 297;
#X obj 852 373;
#X obj 325 287;
#X obj 848 367;
#X obj 308 276;
#X obj 843 361;
#X obj 289 264;
#X obj 838 355;
#X obj 269 251;
#X obj 832 349;
#X obj 248 237;
#X obj 826 343;
#X obj 224 221;
#X obj 820 336;
#X obj 199 204;
#X obj 812 330;
#X obj 172 186;
#X obj 805 323;
#X obj 144 166;
#X obj 797 316;
#X obj 115 144;
#X obj 788 308;
#X obj 84 121;
#X obj 779 301;
#X obj 54 96;
#X obj 770 293;
#X obj 34 70;
#X obj 761 284;
#X obj 19 43;
#X obj 752 275;
#X obj 7 15;
#X obj 742 266;
#X obj -2 -14;
#X obj 733 257;
#X obj -8 -42;
#X obj 724 247;
#X obj -11 -68;
#X obj 715 237;
#X obj -8 -81;
#X obj 707 228;
#X obj 6 -92;
#X obj 700 218;
#X obj 33 -100;
#X obj 693 208;
#X obj 73 -106;
#X obj 688 198;
#X obj 126 -108;
#X obj 684 189;
#X obj 189 -106;
#X obj 682 180;
#X obj 260 -97;
#X obj 682 171;
#X obj 336 -78;
#X obj 683 164;
#X obj 410 -52;
#X obj 687 157;
#X obj 481 -18;
#X obj 693 152;
#X obj 544 21;
#X connect 1 0 2 0;
#X connect 2 0 3 0;
#X connect 3 0 4 0;
#X connect 4 0 5 0;
#X connect 5 0 6 0;
#X connect 6 0 7 0;
#X connect 7 0 8 0;
#X connect 8 0 9 0;
#X connect 9 0 10 0;
#X connect 10 0 11 0;
#X connect 11 0 12 0;
#X connect 12 0 13 0;
#X connect 13 0 14 0;
#X connect 14 0 15 0;
#X connect 15 0 16 0;
#X connect 16 0 17 0;
#X connect 17 0 18 0;
#X connect 18 0 19 0;
#X connect 19 0 20 0;
#X connect 20 0 21 0;
#X connect 21 0 22 0;
#X connect 22 0 23 0;
#X connect 23 0 24 0;
#X connect 24 0 25 0;
#X connect 25 0 26 0;
#X connect 26 0 27 0;
#X connect 27 0 28 0;
#X connect 28 0 29 0;
#X connect 29 0 30 0;
#X connect 30 0 31 0;
#X connect 31 0 32 0;
#X connect 32 0 33 0;
#X connect 33 0 34 0;
#X connect 34 0 35 0;
#X connect 35 0 36 0;
#X connect 36 0 37 0;
#X connect 37 0 38 0;
#X connect 38 0 39 0;
#X connect 39 0 40 0;
#X connect 40 0 41 0;
#X connect 41 0 42 0;
#X connect 42 0 43 0;
#X connect 43 0 44 0;
#X connect 44 0 45 0;
#X connect 45 0 46 0;
#X connect 46 0 47 0;
#X connect 47 0 48 0;
#X connect 48 0 49 0;
#X connect 49 0 50 0;
#X connect 50 0 51 0;
#X connect 51 0 52 0;
#X connect 52 0 53 0;
#X connect 53 0 54 0;
#X connect 54 0 55 0;
#X connect 55 0 56 0;
#X connect 56 0 57 0;
#X connect 57 0 58 0;
#X connect 58 0 59 0;
#X connect 59 0 60 0;
#X connect 60 0 61 0;
#X connect 61 0 62 0;
#X connect 62 0 63 0;
#X connect 63 0 64 0;
#X connect 64 0 65 0;
#X connect 65 0 66 0;
#X connect 66 0 67 0;
#X connect 67 0 68 0;
#X connect 68 0 69 0;
#X connect 69 0 70 0;
#X connect 70 0 71 0;
#X connect 71 0 72 0;
#X connect 72 0 73 0;
#X connect 73 0 74 0;
#X connect 74 0 75 0;
#X connect 75 0 76 0;
#X connect 76 0 77 0;
#X connect 77 0 78 0;
#X connect 78 0 79 0;
#X connect 79 0 80 0;
#X connect 80 0 81 0;
#X connect 81 0 82 0;
#X connect 82 0 83 0;
#X connect 83 0 84 0;
#X connect 84 0 85 0;
#X connect 85 0 86 0;
#X connect 86 0 87 0;
#X connect 87 0 88 0;
#X connect 88 0 89 0;
#X connect 89 0 90 0;
#X connect 90 0 91 0;
#X connect 91 0 92 0;
#X connect 92 0 93 0;
#X connect 93 0 94 0;
#X connect 94 0 95 0;
#X connect 95 0 96 0;
#X connect 96 0 97 0;
#X connect 97 0 98 0;
#X connect 98 0 99 0;
#X connect 99 0 100 0;
#X connect 100 0 101 0;
#X connect 101 0 102 0;
#X connect 102 0 103 0;
#X connect 103 0 104 0;
#X connect 104 0 105 0;
#X connect 105 0 106 0;
#X connect 106 0 107 0;
#X connect 107 0 108 0;
#X connect 108 0 109 0;
#X connect 109 0 110 0;
#X connect 110 0 111 0;
#X connect 111 0 112 0;
#X connect 112 0 113 0;
#X connect 113 0 114 0;
#X connect 114 0 115 0;
#X connect 115 0 116 0;
#X connect 116 0 117 0;
#X connect 117 0 118 0;
#X connect 118 0 119 0;
#X connect 119 0 120 0;
#X connect 120 0 121 0;
#X connect 121 0 122 0;
#X connect 122 0 123 0;
#X connect 123 0 124 0;
#X connect 124 0 125 0;
#X connect 125 0 126 0;
#X connect 126 0 127 0;
#X connect 127 0 128 0;
#X connect 128 0 129 0;
#X connect 129 0 130 0;
#X connect 130 0 131 0;
#X connect 131 0 132 0;
#X connect 132 0 133 0;
#X connect 133 0 134 0;
#X connect 134 0 135 0;
#X connect 135 0 136 0;
#X connect 136 0 137 0;
#X connect 137 0 138 0;
#X connect 138 0 139 0;
#X connect 139 0 140 0;
#X connect 140 0 141 0;
#X connect 141 0 142 0;
#X connect 142 0 143 0;
#X connect 143 0 144 0;
#X connect 144 0 145 0;
#X connect 145 0 146 0;
#X connect 146 0 147 0;
#X connect 147 0 148 0;
#X connect 148 0 149 0;
#X connect 149 0 150 0;
#X connect 150 0 151 0;
#X connect 151 0 152 0;
#X connect 152 0 153 0;
#X connect 153 0 154 0;
#X connect 154 0 155 0;
#X connect 155 0 156 0;
#X connect 156 0 157 0;
#X connect 157 0 158 0;
#X connect 158 0 159 0;
#X connect 159 0 160 0;
#X connect 160 0 161 0;
#X connect 161 0 162 0;
#X connect 162 0 163 0;
#X connect 163 0 164 0;
#X connect 164 0 165 0;
#X connect 165 0 166 0;
#X connect 166 0 167 0;
#X connect 167 0 168 0;
#X connect 168 0 169 0;
#X connect 169 0 170 0;
#X connect 170 0 171 0;
#X connect 171 0 172 0;
#X connect 172 0 173 0;
#X connect 173 0 174 0;
#X connect 174 0 175 0;
#X connect 175 0 176 0;
#X connect 176 0 177 0;
#X connect 177 0 178 0;
#X connect 178 0 179 0;
#X connect 179 0 180 0;
#X connect 180 0 181 0;
#X connect 181 0 182 0;
#X connect 182 0 183 0;
#X connect 183 0 184 0;
#X connect 184 0 185 0;
#X connect 185 0 186 0;
#X connect 186 0 187 0;
#X connect 187 0 188 0;
#X connect 188 0 189 0;
#X connect 189 0 190 0;
#X connect 190 0 191 0;
#X connect 191 0 192 0;
#X connect 192 0 193 0;
#X connect 193 0 194 0;
#X connect 194 0 195 0;
#X connect 195 0 196 0;
#X connect 196 0 197 0;
#X connect 197 0 198 0;
#X connect 198 0 199 0;
#X connect 199 0 200 0;
#X connect 200 0 201 0;
#X connect 201 0 202 0;
#X connect 202 0 203 0;
#X connect 203 0 204 0;
#X connect 204 0 205 0;
#X connect 205 0 206 0;
#X connect 206 0 207 0;
#X connect 207 0 208 0;
#X connect 208 0 209 0;
#X connect 209 0 210 0;
#X connect 210 0 211 0;
#X connect 211 0 212 0;
#X connect 212 0 213 0;
#X connect 213 0 214 0;
#X connect 214 0 215 0;
#X connect 215 0 216 0;
#X connect 216 0 217 0;
#X connect 217 0 218 0;
#X connect 218 0 219 0;
#X connect 219 0 220 0;
#X connect 220 0 221 0;
#X connect 221 0 222 0;
#X connect 222 0 223 0;
#X connect 223 0 224 0;
#X connect 224 0 225 0;
#X connect 225 0 226 0;
#X connect 226 0 227 0;
#X connect 227 0 228 0;
#X connect 228 0 229 0;
#X connect 229 0 230 0;
#X connect 230 0 231 0;
#X connect 231 0 232 0;
#X connect 232 0 233 0;
#X connect 233 0 234 0;
#X connect 234 0 235 0;
#X connect 235 0 236 0;
#X connect 236 0 237 0;
#X connect 237 0 238 0;
#X connect 238 0 239 0;
#X connect 239 0 240 0;
#X connect 240 0 241 0;
#X connect 241 0 242 0;
#X connect 242 0 243 0;
#X connect 243 0 244 0;
#X connect 244 0 245 0;
#X connect 245 0 246 0;
#X connect 246 0 247 0;
#X connect 247 0 248 0;
#X connect 248 0 249 0;
#X connect 249 0 250 0;
#X connect 250 0 251 0;
#X connect 251 0 252 0;
#X connect 252 0 253 0;
#X connect 253 0 254 0;
#X connect 254 0 255 0;
#X connect 255 0 256 0;
#X connect 256 0 257 0;
#X connect 257 0 258 0;
#X connect 258 0 259 0;
#X connect 259 0 260 0;
#X connect 260 0 261 0;
#X connect 261 0 262 0;
#X connect 262 0 263 0;
#X connect 263 0 264 0;
#X connect 264 0 265 0;
#X connect 265 0 266 0;
#X connect 266 0 267 0;
#X connect 267 0 268 0;
#X connect 268 0 269 0;
#X connect 269 0 270 0;
#X connect 270 0 271 0;
#X connect 271 0 272 0;
#X connect 272 0 273 0;
#X connect 273 0 274 0;
#X connect 274 0 275 0;
#X connect 275 0 276 0;
#X connect 276 0 277 0;
#X connect 277 0 278 0;
#X connect 278 0 279 0;
#X connect 279 0 280 0;
#X connect 280 0 281 0;
#X connect 281 0 282 0;
#X connect 282 0 283 0;
#X connect 283 0 284 0;
#X connect 284 0 285 0;
#X connect 285 0 286 0;
#X connect 286 0 287 0;
#X connect 287 0 288 0;
#X connect 288 0 289 0;
#X connect 289 0 290 0;
#X connect 290 0 291 0;
#X connect 291 0 292 0;
#X connect 292 0 293 0;
#X connect 293 0 294 0;
#X connect 294 0 295 0;
#X connect 295 0 296 0;
#X connect 296 0 297 0;
#X connect 297 0 298 0;
#X connect 298 0 299 0;
#X connect 299 0 300 0;
#X connect 300 0 301 0;
#X connect 301 0 302 0;
#X connect 302 0 303 0;
#X connect 303 0 304 0;
#X connect 304 0 305 0;
#X connect 305 0 306 0;
#X connect 306 0 307 0;
#X connect 307 0 308 0;
#X connect 308 0 309 0;
#X connect 309 0 310 0;
#X connect 310 0 311 0;
#X connect 311 0 312 0;
#X connect 312 0 313 0;
#X connect 313 0 314 0;
#X connect 314 0 315 0;
#X connect 315 0 316 0;
#X connect 316 0 317 0;
#X connect 317 0 318 0;
#X connect 318 0 319 0;
#X connect 319 0 320 0;
#X connect 320 0 321 0;
#X connect 321 0 322 0;
#X connect 322 0 323 0;
#X connect 323 0 324 0;
#X connect 324 0 325 0;
#X connect 325 0 326 0;
#X connect 326 0 327 0;
#X connect 327 0 328 0;
#X connect 328 0 329 0;
#X connect 329 0 330 0;
#X connect 330 0 331 0;
#X connect 331 0 332 0;
#X connect 332 0 333 0;
#X connect 333 0 334 0;
#X connect 334 0 335 0;
#X connect 335 0 336 0;
#X connect 336 0 337 0;
#X connect 337 0 338 0;
#X connect 338 0 339 0;
#X connect 339 0 340 0;
#X connect 340 0 341 0;
#X connect 341 0 342 0;
#X connect 342 0 343 0;
#X connect 343 0 344 0;
#X connect 344 0 345 0;
#X connect 345 0 346 0;
#X connect 346 0 347 0;
#X connect 347 0 348 0;
#X connect 348 0 349 0;
#X connect 349 0 350 0;
#X connect 350 0 351 0;
#X connect 351 0 352 0;
#X connect 352 0 353 0;
#X connect 353 0 354 0;
#X connect 354 0 355 0;
#X connect 355 0 356 0;
#X connect 356 0 357 0;
#X connect 357 0 358 0;
#X connect 358 0 359 0;
#X connect 359 0 360 0;
#X connect 360 0 361 0;
#X connect 361 0 362 0;
#X connect 362 0 363 0;
#X connect 363 0 364 0;
#X connect 364 0 365 0;
#X connect 365 0 366 0;
#X connect 366 0 367 0;
#X connect 367 0 368 0;
#X connect 368 0 369 0;
#X connect 369 0 370 0;
#X connect 370 0 371 0;
#X connect 371 0 372 0;
#X connect 372 0 373 0;
#X connect 373 0 374 0;
#X connect 374 0 375 0;
#X connect 375 0 376 0;
#X connect 376 0 377 0;
#X connect 377 0 378 0;
#X connect 378 0 379 0;
#X connect 379 0 380 0;
#X connect 380 0 381 0;
#X connect 381 0 382 0;
#X connect 382 0 383 0;
#X connect 383 0 384 0;
#X connect 384 0 385 0;
#X connect 385 0 386 0;
#X connect 386 0 387 0;
#X connect 387 0 388 0;
#X connect 388 0 389 0;
#X connect 389 0 390 0;
#X connect 390 0 391 0;
#X connect 391 0 392 0;
#X connect 392 0 393 0;
#X connect 393 0 394 0;
#X connect 394 0 395 0;
#X connect 395 0 396 0;
#X connect 396 0 397 0;
#X connect 397 0 398 0;
#X connect 398 0 399 0;
#X connect 399 0 400 0;
#X connect 400 0 401 0;
#X connect 401 0 402 0;
#X connect 402 0 403 0;
#X connect 403 0 404 0;
#X connect 404 0 405 0;
#X connect 405 0 406 0;
#X connect 406 0 407 0;
#X connect 407 0 408 0;
#X connect 408 0 409 0;
#X connect 409 0 410 0;
#X connect 410 0 411 0;
#X connect 411 0 412 0;
#X connect 412 0 413 0;
#X connect 413 0 414 0;
#X connect 414 0 415 0;
#X connect 415 0 416 0;
#X connect 416 0 417 0;
#X connect 417 0 418 0;
#X connect 418 0 419 0;
#X connect 419 0 420 0;
#X connect 420 0 421 0;
#X connect 421 0 422 0;
#X connect 422 0 423 0;
#X connect 423 0 424 0;
#X connect 424 0 425 0;
#X connect 425 0 426 0;
#X connect 426 0 427 0;
#X connect 427 0 428 0;
#X connect 428 0 429 0;
#X connect 429 0 430 0;
#X connect 430 0 431 0;
#X connect 431 0 432 0;
#X connect 432 0 433 0;
#X connect 433 0 434 0;
#X connect 434 0 435 0;
#X connect 435 0 436 0;
#X connect 436 0 437 0;
#X connect 437 0 438 0;
#X connect 438 0 439 0;
#X connect 439 0 440 0;
#X connect 440 0 441 0;
#X connect 441 0 442 0;
#X connect 442 0 443 0;
#X connect 443 0 444 0;
#X connect 444 0 445 0;
#X connect 445 0 446 0;
#X connect 446 0 447 0;
#X connect 447 0 448 0;
#X connect 448 0 449 0;
#X connect 449 0 450 0;
#X connect 450 0 451 0;
#X connect 451 0 452 0;
#X connect 452 0 453 0;
#X connect 453 0 454 0;
#X connect 454 0 455 0;
#X connect 455 0 456 0;
#X connect 456 0 457 0;
#X connect 457 0 458 0;
#X connect 458 0 459 0;
#X connect 459 0 460 0;
#X connect 460 0 461 0;
#X connect 461 0 462 0;
#X connect 462 0 463 0;
#X connect 463 0 464 0;
#X connect 464 0 465 0;
#X connect 465 0 466 0;
#X connect 466 0 467 0;
#X connect 467 0 468 0;
#X connect 468 0 469 0;
#X connect 469 0 470 0;
#X connect 470 0 471 0;
#X connect 471 0 472 0;
#X connect 472 0 473 0;
#X connect 473 0 474 0;
#X connect 474 0 475 0;
#X connect 475 0 476 0;
#X connect 476 0 477 0;
#X connect 477 0 478 0;
#X connect 478 0 479 0;
#X connect 479 0 480 0;
#X connect 480 0 481 0;
#X connect 481 0 482 0;
#X connect 482 0 483 0;
#X connect 483 0 484 0;
#X connect 484 0 485 0;
#X connect 485 0 486 0;
#X connect 486 0 487 0;
#X connect 487 0 488 0;
#X connect 488 0 489 0;
#X connect 489 0 490 0;
#X connect 490 0 491 0;
#X connect 491 0 492 0;
#X connect 492 0 493 0;
#X connect 493 0 494 0;
#X connect 494 0 495 0;
#X connect 495 0 496 0;
#X connect 496 0 497 0;
#X connect 497 0 498 0;
#X connect 498 0 499 0;
#X connect 499 0 500 0;
#X connect 500 0 501 0;
#X connect 501 0 502 0;
#X connect 502 0 503 0;
#X connect 503 0 504 0;
#X connect 504 0 505 0;
#X connect 505 0 506 0;
#X connect 506 0 507 0;
#X connect 507 0 508 0;
#X connect 508 0 509 0;
#X connect 509 0 510 0;
#X connect 510 0 511 0;
#X connect 511 0 512 0;
#X connect 512 0 513 0;
#X connect 513 0 514 0;
#X connect 514 0 515 0;
#X connect 515 0 516 0;
#X connect 516 0 517 0;
#X connect 517 0 518 0;
#X connect 518 0 519 0;
#X connect 519 0 520 0;
#X connect 520 0 521 0;
#X connect 521 0 522 0;
#X connect 522 0 523 0;
#X connect 523 0 524 0;
#X connect 524 0 525 0;
#X connect 525 0 526 0;
#X connect 526 0 527 0;
#X connect 527 0 528 0;
#X connect 528 0 529 0;
#X connect 529 0 530 0;
#X connect 530 0 531 0;
#X connect 531 0 532 0;
#X connect 532 0 533 0;
#X connect 533 0 534 0;
#X connect 534 0 535 0;
#X connect 535 0 536 0;
#X connect 536 0 537 0;
#X connect 537 0 538 0;
#X connect 538 0 539 0;
#X connect 539 0 540 0;
#X connect 540 0 541 0;
#X connect 541 0 542 0;
#X connect 542 0 543 0;
#X connect 543 0 544 0;
#X connect 544 0 545 0;
#X connect 545 0 546 0;
#X connect 546 0 547 0;
#X connect 547 0 548 0;
#X connect 548 0 549 0;
#X connect 549 0 550 0;
#X connect 550 0 551 0;
#X connect 551 0 552 0;
#X connect 552 0 553 0;
#X connect 553 0 554 0;
#X connect 554 0 555 0;
#X connect 555 0 556 0;
#X connect 556 0 557 0;
#X connect 557 0 558 0;
#X connect 558 0 559 0;
#X connect 559 0 560 0;
#X connect 560 0 561 0;
#X connect 561 0 562 0;
#X connect 562 0 563 0;
#X connect 563 0 564 0;
#X connect 564 0 565 0;
#X connect 565 0 566 0;
#X connect 566 0 567 0;
#X connect 567 0 568 0;
#X connect 568 0 569 0;
#X connect 569 0 570 0;
#X connect 570 0 571 0;
#X connect 571 0 572 0;
#X connect 572 0 573 0;
#X connect 573 0 574 0;
#X connect 574 0 575 0;
#X connect 575 0 576 0;
#X connect 576 0 577 0;
#X connect 577 0 578 0;
#X connect 578 0 579 0;
#X connect 579 0 580 0;
#X connect 580 0 581 0;
#X connect 581 0 582 0;
#X connect 582 0 583 0;
#X connect 583 0 584 0;
#X connect 584 0 585 0;
#X connect 585 0 586 0;
#X connect 586 0 587 0;
#X connect 587 0 588 0;
#X connect 588 0 589 0;
#X connect 589 0 590 0;
#X connect 590 0 591 0;
#X connect 591 0 592 0;
#X connect 592 0 593 0;
#X connect 593 0 594 0;
#X connect 594 0 595 0;
#X connect 595 0 596 0;
#X connect 596 0 597 0;
#X connect 597 0 598 0;
#X connect 598 0 599 0;
#X connect 599 0 600 0;
#X connect 600 0 601 0;
#X connect 601 0 602 0;
#X connect 602 0 603 0;
#X connect 603 0 604 0;
#X connect 604 0 605 0;
#X connect 605 0 606 0;
#X connect 606 0 607 0;
#X connect 607 0 608 0;
#X connect 608 0 609 0;
#X connect 609 0 610 0;
#X connect 610 0 611 0;
#X connect 611 0 612 0;
#X connect 612 0 613 0;
#X connect 613 0 614 0;
#X connect 614 0 615 0;
#X connect 615 0 616 0;
#X connect 616 0 617 0;
#X connect 617 0 618 0;
#X connect 618 0 619 0;
#X connect 619 0 620 0;
#X connect 620 0 621 0;
#X connect 621 0 622 0;
#X connect 622 0 623 0;
#X connect 623 0 624 0;
#X connect 624 0 625 0;
#X connect 625 0 626 0;
#X connect 626 0 627 0;
#X connect 627 0 628 0;
#X connect 628 0 629 0;
#X connect 629 0 630 0;
#X connect 630 0 631 0;
#X connect 631 0 632 0;
#X connect 632 0 633 0;
#X connect 633 0 634 0;
#X connect 634 0 635 0;
#X connect 635 0 636 0;
#X connect 636 0 637 0;
#X connect 637 0 638 0;
#X connect 638 0 639 0;
#X connect 639 0 640 0;
#X connect 640 0 641 0;
#X connect 641 0 642 0;
#X connect 642 0 643 0;
#X connect 643 0 644 0;
#X connect 644 0 645 0;
#X connect 645 0 646 0;
#X connect 646 0 647 0;
#X connect 647 0 648 0;
#X connect 648 0 649 0;
#X connect 649 0 650 0;
#X connect 650 0 651 0;
#X connect 651 0 652 0;
#X connect 652 0 653 0;
#X connect 653 0 654 0;
#X connect 654 0 655 0;
#X connect 655 0 656 0;
#X connect 656 0 657 0;
#X connect 657 0 658 0;
#X connect 658 0 659 0;
#X connect 659 0 660 0;
#X connect 660 0 661 0;
#X connect 661 0 662 0;
#X connect 662 0 663 0;
#X connect 663 0 664 0;
#X connect 664 0 665 0;
#X connect 665 0 666 0;
#X connect 666 0 667 0;
#X connect 667 0 668 0;
#X connect 668 0 669 0;
#X connect 669 0 670 0;
#X connect 670 0 671 0;
#X connect 671 0 672 0;
#X connect 672 0 673 0;
#X connect 673 0 674 0;
#X connect 674 0 675 0;
#X connect 675 0 676 0;
#X connect 676 0 677 0;
#X connect 677 0 678 0;
#X connect 678 0 679 0;
#X connect 679 0 680 0;
#X connect 680 0 681 0;
#X connect 681 0 682 0;
#X connect 682 0 683 0;
#X connect 683 0 684 0;
#X restore 10 6 pd canvass;
#X obj 126 23 tgl 15 0 empty empty empty 17 7 0 10 -262144 -1 -1 0
1;
#N canvas 278 22 861 642 drawer 0;
#X obj 50 227 unpack f f f;
#X obj 64 178 lorenz;
#X obj 131 277 * 1000;
#X obj 49 400 list append;
#X obj 131 299 / 10;
#X obj 131 321 int;
#X obj 21 274 int;
#X obj 77 316 int;
#X obj 258 603 f;
#X obj 292 604 + 1;
#X obj 49 422 list trim;
#X obj 49 444 t b a;
#X obj 432 591 s pd-canvass;
#X msg 278 471 1;
#X obj 258 625 t f f;
#X obj 287 649 - 1;
#X obj 258 647 pack;
#X msg 234 689 \; pd-canvass connect \$2 0 \$1 0;
#X obj 33 331 swap;
#X obj 33 353 list;
#X obj 20 256 * 1000;
#X obj 77 294 * 1000;
#X msg 418 146 reset;
#X obj 33 374 list prepend obj;
#X msg 588 138 100;
#X obj 575 158 until;
#X obj 474 227 unpack f f f;
#X obj 471 188 lorenz;
#X obj 555 277 * 1000;
#X obj 473 400 list append;
#X obj 555 299 / 10;
#X obj 555 321 int;
#X obj 446 296 int;
#X obj 501 316 int;
#X obj 473 422 list trim;
#X obj 473 444 t b a;
#X obj 457 315 swap;
#X obj 457 353 list;
#X obj 457 374 list prepend obj;
#X obj 54 203 spigot;
#X obj 374 211 tgl 15 0 empty empty empty 17 7 0 10 -262144 -1 -1 0
1;
#X obj 474 208 spigot;
#X obj 657 130 loadbang;
#X obj 657 152 t b b;
#X obj 288 116 tgl 15 0 empty empty empty 17 7 0 10 -262144 -1 -1 0
1;
#X obj 288 138 sel 0 1;
#X obj 144 154 bang;
#X obj 144 132 metro 200;
#X msg 659 113 bang;
#X msg 46 129 initb 32;
#X obj 668 177 random 1000;
#X obj 668 199 / 1000;
#X obj 664 291 random 2000;
#X obj 664 313 - 1000;
#X obj 664 335 / 1000;
#X obj 664 357 + 10;
#X msg 665 379 inita \$1;
#X msg 669 238 initx \$1 \, inity \$1 \, initz \$1;
#X obj 672 534 random 2000;
#X obj 672 556 - 1000;
#X obj 672 578 / 1000;
#X msg 706 491 initx \$1 \, inity \$1 \, initz \$1;
#X msg 673 622 initb \$1;
#X obj 672 600 + 28;
#X obj 708 420 random 2000;
#X obj 708 442 - 1000;
#X obj 708 464 / 1000;
#X obj 127 61 inlet;
#X obj 127 83 t f f;
#X obj 244 48 inlet;
#X obj 245 352 loadbang;
#X obj 244 70 route reset;
#X msg 377 133 0;
#X msg 373 33 \; pd-canvass clear \;;
#X obj 183 547 tgl 15 0 empty empty empty 17 7 0 10 -262144 -1 -1 0
1;
#X obj 183 569 sel 1;
#X obj 21 296 - 100;
#X obj 412 332 + 500;
#X obj 569 32 t b b b;
#X obj 444 278 * 1000;
#X obj 500 294 * 1000;
#X obj 474 249 fd_norm;
#X obj 514 261 fd_norm;
#X obj 555 255 fd_norm;
#X obj 50 249 fd_norm;
#X obj 77 272 fd_norm;
#X obj 131 255 fd_norm;
#X connect 0 0 84 0;
#X connect 0 1 85 0;
#X connect 0 2 86 0;
#X connect 1 0 39 0;
#X connect 2 0 4 0;
#X connect 3 0 10 0;
#X connect 4 0 5 0;
#X connect 6 0 76 0;
#X connect 7 0 18 1;
#X connect 8 0 9 0;
#X connect 8 0 14 0;
#X connect 9 0 8 1;
#X connect 10 0 11 0;
#X connect 11 0 74 0;
#X connect 11 1 12 0;
#X connect 13 0 8 1;
#X connect 14 0 16 0;
#X connect 14 1 15 0;
#X connect 15 0 16 1;
#X connect 16 0 17 0;
#X connect 18 0 19 0;
#X connect 18 1 19 1;
#X connect 19 0 23 0;
#X connect 20 0 6 0;
#X connect 21 0 7 0;
#X connect 22 0 1 0;
#X connect 22 0 27 0;
#X connect 23 0 3 0;
#X connect 24 0 25 0;
#X connect 25 0 27 0;
#X connect 25 0 1 0;
#X connect 26 0 81 0;
#X connect 26 1 82 0;
#X connect 26 2 83 0;
#X connect 27 0 41 0;
#X connect 28 0 30 0;
#X connect 29 0 34 0;
#X connect 30 0 31 0;
#X connect 32 0 36 0;
#X connect 33 0 36 1;
#X connect 34 0 35 0;
#X connect 35 0 74 0;
#X connect 35 1 12 0;
#X connect 36 0 77 0;
#X connect 36 1 37 1;
#X connect 37 0 38 0;
#X connect 38 0 29 0;
#X connect 39 0 0 0;
#X connect 40 0 39 1;
#X connect 40 0 41 1;
#X connect 41 0 26 0;
#X connect 42 0 43 0;
#X connect 43 0 24 0;
#X connect 43 1 50 0;
#X connect 43 1 52 0;
#X connect 43 1 58 0;
#X connect 43 1 64 0;
#X connect 44 0 45 0;
#X connect 45 0 1 0;
#X connect 45 1 27 0;
#X connect 46 0 44 0;
#X connect 47 0 46 0;
#X connect 48 0 43 0;
#X connect 49 0 1 0;
#X connect 50 0 51 0;
#X connect 51 0 57 0;
#X connect 52 0 53 0;
#X connect 53 0 54 0;
#X connect 54 0 55 0;
#X connect 55 0 56 0;
#X connect 56 0 27 0;
#X connect 57 0 27 0;
#X connect 58 0 59 0;
#X connect 59 0 60 0;
#X connect 60 0 63 0;
#X connect 61 0 1 0;
#X connect 62 0 1 0;
#X connect 63 0 62 0;
#X connect 64 0 65 0;
#X connect 65 0 66 0;
#X connect 66 0 61 0;
#X connect 67 0 68 0;
#X connect 68 0 47 0;
#X connect 68 1 40 0;
#X connect 69 0 71 0;
#X connect 70 0 13 0;
#X connect 71 0 78 0;
#X connect 71 1 47 1;
#X connect 72 0 40 0;
#X connect 74 0 75 0;
#X connect 75 0 8 0;
#X connect 76 0 18 0;
#X connect 77 0 37 0;
#X connect 78 0 48 0;
#X connect 78 0 13 0;
#X connect 78 0 73 0;
#X connect 78 1 22 0;
#X connect 78 2 72 0;
#X connect 79 0 32 0;
#X connect 80 0 33 0;
#X connect 81 0 79 0;
#X connect 82 0 80 0;
#X connect 83 0 28 0;
#X connect 84 0 20 0;
#X connect 85 0 21 0;
#X connect 86 0 2 0;
#X restore 126 58 pd drawer;
#X floatatom 166 9 5 0 0 0 - - -, f 5;
#X msg 6 52 \; pd-canvass clear \;;
#X obj 8 27 loadbang;
#X msg 149 32 reset;
#X text 75 7 <- open;
#X connect 1 0 2 0;
#X connect 3 0 2 1;
#X connect 5 0 4 0;
#X connect 6 0 2 1;
