#N canvas 531 55 452 461 10;
#X obj 112 147 samplerate~;
#X obj 94 109 t b b b b;
#X msg 149 168 0;
#X msg 237 99 resize \$1;
#X obj 129 62 t b f f;
#X obj 112 191 phasor~;
#X obj 112 243 -~ 0.5;
#X obj 112 265 *~ 3;
#X obj 112 287 +~ 0.25;
#X obj 112 309 cos~;
#X obj 112 331 /~;
#X obj 112 353 *~ -0.16;
#X msg 198 225 3;
#X obj 112 375 *~ 0.98;
#X obj 94 8 inlet;
#X obj 237 122 array define \$1 \$2;
#X obj 94 37 route bang float q;
#X obj 199 205 sel;
#X obj 198 182 f 3;
#X obj 112 169 / \$2;
#X obj 94 412 tabwrite~ \$1;
#X obj 16 103 switch~ \$2;
#X connect 0 0 19 0;
#X connect 1 0 20 0;
#X connect 1 0 21 0;
#X connect 1 1 0 0;
#X connect 1 2 2 0;
#X connect 1 3 18 0;
#X connect 2 0 5 1;
#X connect 3 0 15 0;
#X connect 4 0 1 0;
#X connect 4 1 19 1;
#X connect 4 2 3 0;
#X connect 5 0 6 0;
#X connect 6 0 7 0;
#X connect 7 0 8 0;
#X connect 7 0 10 1;
#X connect 8 0 9 0;
#X connect 9 0 10 0;
#X connect 10 0 11 0;
#X connect 11 0 13 0;
#X connect 12 0 7 1;
#X connect 13 0 20 0;
#X connect 14 0 16 0;
#X connect 16 0 1 0;
#X connect 16 1 4 0;
#X connect 16 2 18 1;
#X connect 16 3 15 0;
#X connect 17 0 12 0;
#X connect 17 1 7 1;
#X connect 18 0 17 0;
#X connect 19 0 5 0;
