#N canvas 500 50 530 480 12;
#X declare -path fd_lib;
#X declare -lib Gem;
#X obj 4 4 cnv 15 522 30 empty empty "fd_autopoly" 20 15 0 15 -228856
-1 0;
#X obj 4 194 cnv 15 522 20 empty empty arguments: 10 10 0 14 -228856
-1 0;
#X obj 4 294 cnv 15 522 20 empty empty inlets: 10 10 0 14 -228856 -1
0;
#X obj 4 374 cnv 15 522 20 empty empty outlets: 10 10 0 14 -228856
-1 0;
#X obj 4 453 cnv 15 522 20 empty empty version 10 10 0 14 -228856 -1
0;
#X obj 380 8 declare -path fd_lib;
#X text 440 452 fd_lib v0.1;
#X text 42 412 no outlets;
#N canvas 511 86 606 458 example 0;
#X obj 366 95 gemwin;
#X obj 16 23 gemhead;
#X obj 496 13 tgl 15 0 empty empty empty 17 7 0 10 -262144 -1 -1 0
1;
#X msg 496 33 \; pd dsp \$1 \;;
#X msg 39 180 draw point;
#X msg 386 59 0 \, destroy;
#X obj 420 246 s fd_tracktopol;
#X msg 484 197 z \$1;
#X floatatom 484 146 5 0 0 0 - - -;
#X obj 484 168 / 100;
#X obj 189 145 dac~;
#X floatatom 173 35 5 0 0 0 - - -;
#X msg 191 68 0;
#X msg 366 18 reset \, FSAA 8 \, create \, 1, f 12;
#X msg 40 205 draw line;
#X obj 16 135 scale 1 1 1 1;
#X obj 16 77 translate -8 0 1 0, f 9;
#X obj 50 52 * -8;
#X obj 173 180 sigmund~ -npeak 10 tracks, f 10;
#X text 220 35 <-- shift scroll;
#X msg 420 148 reload;
#X obj 16 246 fd_autopoly curve 10 fd_tracktopol 10 1 1, f 20;
#X text 261 196 <-- -npeaks = 10;
#X text 186 244 <-- N = npeaks = 10;
#N canvas 0 22 450 300 impulse-test 0;
#X obj 173 424 fd_fm;
#X obj 156 324 mtof;
#X obj 156 172 metro 2000;
#X obj 156 297 line 38 1;
#X obj 156 354 expr $f1 \; $f1*3*$f2 \; $f1*1.5*$f2 \;;
#X obj 156 197 random 15;
#X obj 156 222 + 35;
#X obj 215 144 * 1000;
#X obj 156 247 pack f 2000;
#X msg 156 271 \$1 \, 98 \$2;
#X obj 206 464 *~;
#X obj 382 304 wrap;
#X obj 292 352 * 10;
#X obj 156 119 != 0;
#X obj 156 145 change;
#X msg 84 255 set \$1;
#X msg 84 280 45;
#X obj 156 84 t f f f f f f, f 29;
#X obj 291 382 fd_impulse 64;
#X obj 157 49 inlet;
#X obj 206 489 outlet~;
#X connect 0 0 10 0;
#X connect 1 0 4 0;
#X connect 2 0 5 0;
#X connect 3 0 1 0;
#X connect 4 0 0 0;
#X connect 4 1 0 1;
#X connect 4 2 0 2;
#X connect 5 0 6 0;
#X connect 6 0 8 0;
#X connect 6 0 15 0;
#X connect 7 0 8 1;
#X connect 7 0 2 1;
#X connect 8 0 9 0;
#X connect 9 0 3 0;
#X connect 10 0 20 0;
#X connect 11 0 18 1;
#X connect 12 0 18 0;
#X connect 13 0 14 0;
#X connect 14 0 2 0;
#X connect 15 0 16 0;
#X connect 17 0 13 0;
#X connect 17 1 7 0;
#X connect 17 2 4 1;
#X connect 17 3 12 0;
#X connect 17 4 11 0;
#X connect 18 0 10 1;
#X connect 19 0 17 0;
#X restore 173 92 pd impulse-test;
#X text 16 320 NOTE: your_abs_name needs to output X Y Z coordinates
to be routed just like [sigmund~] \, and it takes a sigmund-dependant
input, f 74;
#X obj 229 404 fd_tracktopol;
#X text 183 383 see:;
#X obj 229 378 fd_fromsig;
#X connect 1 0 16 0;
#X connect 2 0 3 0;
#X connect 4 0 21 0;
#X connect 5 0 0 0;
#X connect 7 0 6 0;
#X connect 8 0 9 0;
#X connect 9 0 7 0;
#X connect 11 0 17 0;
#X connect 11 0 15 1;
#X connect 11 0 24 0;
#X connect 12 0 24 0;
#X connect 13 0 0 0;
#X connect 14 0 21 0;
#X connect 15 0 21 0;
#X connect 16 0 15 0;
#X connect 17 0 16 1;
#X connect 18 0 21 1;
#X connect 20 0 6 0;
#X connect 24 0 10 0;
#X connect 24 0 10 1;
#X connect 24 0 18 0;
#X restore 90 129 pd example;
#X text 38 217 1: polygon||curve \; 2: N = npeaks \; 3: your_abs_name
\; 4: if N<2 \, N \, else arg1 5-6: arg2 \, arg3;
#X text 25 51 Variable point [polygon||curve] creator.;
#X text 21 74 Accepts an abstraction [your_abs_name] to parse [sigmund~]
output., f 66;
#X obj 364 150 declare -lib Gem;
#X text 39 323 1: gemlist \; 2: sigmund output;
#X text 371 125 Dependencies:;
#N canvas 0 22 450 300 meta 0;
#X text 10 10 fd_lib - metadata file - Fri Sep 13 18:30:49 EDT 2019
;
#X text 10 25 patch_name : fd_autopoly;
#X text 10 40 inlet : 1;
#X text 10 55 outlet : 0;
#X text 10 70 inlet~ : 0;
#X text 10 85 outlet~ : 0;
#X text 10 100 arguments : 6;
#X text 10 115 classes used : 22;
#X text 10 130 total objects: 49;
#X text 10 145 connections : 75;
#X text 10 160 dependencies : 0 [0];
#X text 10 175 externals : 1 [0fd_autopatch];
#X text 10 190 internals : 21/233 [0pack:t:list:inlet:f:spigot:s:route:r:until:sel:polygon:outlet:max:loadbang:del:curve:clone:>=:==:+]
;
#X restore 438 423 pd meta;
