#N canvas 300 50 220 200 12;
#N canvas 0 22 450 300 \$1-graph 0;
#X coords 0 -1 1 1 1 1 2 200 200;
#X restore 200 200 pd \$1-graph;
#X obj 9 11 namecanvas fd_plot-\$1;
#N canvas 298 274 221 258 s 0;
#N canvas 242 127 579 564 s 0;
#X obj 32 39 loadbang;
#X msg 32 203 \; pd-s vis 0;
#X obj 69 99 fd_arg1 \$1;
#X obj 52 512 s fd_plot-\$1;
#X msg 52 355 donecanvasdialog 1 -1 2 1 1 1 1 1 1 200 200;
#X obj 69 130 sel;
#X obj 205 156 sel;
#X obj 32 64 t b b;
#N canvas 406 187 450 300 \$0-warn 0;
#X text 90 125 Please provide a float argument!;
#X obj 111 41 cnv 15 200 60 empty empty WARNING 20 12 0 14 -261234
-66577 0;
#X text 145 69 INVALID ARGUMENT;
#X obj 197 232 bng 30 250 50 0 \$0-ok empty OK 35 15 0 23 -262144 -1
-1;
#X text 171 14 "fd_plot";
#X text 116 161 type \, e.g: [fd_plot 1].;
#X restore 442 40 pd \$0-warn;
#X obj 304 255 pack f \$0;
#X msg 327 47 1;
#X msg 304 307 \; pd-\$2-warn vis \$1;
#X msg 304 221 0;
#X obj 267 22 r \$0-ok;
#X obj 267 72 t b b;
#X msg 323 72 0;
#X obj 267 102 t b b;
#X obj 267 47 spigot;
#X obj 388 219 t f b;
#X obj 226 185 t b b;
#X msg 88 398 donecanvasdialog 1 -1 2 0 0 100 100 100 100 200 200 \,
vis 0 \, setbounds 300 50 520 250 \, vis 1, f 47;
#X connect 0 0 7 0;
#X connect 2 0 5 0;
#X connect 2 1 5 0;
#X connect 2 1 6 0;
#X connect 2 2 10 0;
#X connect 4 0 3 0;
#X connect 5 0 10 0;
#X connect 6 1 19 0;
#X connect 7 0 1 0;
#X connect 7 1 2 0;
#X connect 9 0 11 0;
#X connect 10 0 17 1;
#X connect 10 0 18 0;
#X connect 12 0 9 0;
#X connect 13 0 17 0;
#X connect 14 0 16 0;
#X connect 14 1 15 0;
#X connect 15 0 17 1;
#X connect 16 0 1 0;
#X connect 16 1 12 0;
#X connect 17 0 14 0;
#X connect 18 0 9 0;
#X connect 18 1 20 0;
#X connect 19 0 4 0;
#X connect 19 1 12 0;
#X connect 20 0 3 0;
#X restore 14 12 pd s loadbang __________;
#N canvas 0 22 479 323 s 0;
#X obj 54 183 pointer;
#X obj 28 67 t a b b;
#X msg 54 156 traverse pd-\$1-graph \, bang;
#N canvas 0 22 450 300 s 0;
#X obj 44 24 inlet;
#X obj 44 249 outlet;
#X obj 241 75 !msg fd_plot;
#X obj 44 111 reflect 1;
#X obj 90 136 reflect 1;
#X obj 90 161 * -1;
#X obj 44 49 list split 2;
#X obj 44 178 pack;
#X obj 44 86 unpack;
#X obj 44 203 list append, f 17;
#X connect 0 0 6 0;
#X connect 3 0 7 0;
#X connect 4 0 5 0;
#X connect 5 0 7 1;
#X connect 6 0 8 0;
#X connect 6 1 9 1;
#X connect 6 2 2 0;
#X connect 7 0 9 0;
#X connect 8 0 3 0;
#X connect 8 1 4 0;
#X connect 9 0 1 0;
#X restore 28 226 pd s bounding box;
#N canvas 0 22 564 365 s 0;
#X msg 49 275 clear;
#X obj 49 161 spigot 1;
#X obj 50 226 counter -m 300;
#X obj 50 250 sel;
#X obj 49 74 inlet;
#X msg 143 189 1;
#X obj 49 297 s pd-\$1-graph;
#X obj 110 130 r \$1-autoclear;
#X obj 183 164 r pd-\$1-graph;
#X obj 183 189 route clear;
#X obj 234 226 outlet;
#X connect 0 0 6 0;
#X connect 1 0 2 0;
#X connect 2 0 3 0;
#X connect 3 0 0 0;
#X connect 4 0 1 0;
#X connect 5 0 2 0;
#X connect 5 0 10 0;
#X connect 7 0 1 1;
#X connect 8 0 9 0;
#X connect 9 0 5 0;
#X restore 172 109 pd s clear;
#X obj 28 25 r \$1-plot-append;
#X obj 54 127 pack \$1;
#X obj 329 141 r \$1-plot-set;
#X obj 329 166 t a a;
#X obj 166 79 t a b;
#X msg 220 78 0;
#X obj 166 54 spigot 1;
#X text 168 32 append on first set (reset on clear);
#X obj 329 197 set \$1-plot x y z rgb, f 14;
#X obj 28 257 append \$1-plot x y z rgb, f 14;
#X connect 0 0 14 4;
#X connect 1 0 3 0;
#X connect 1 1 6 0;
#X connect 1 2 4 0;
#X connect 2 0 0 0;
#X connect 3 0 14 0;
#X connect 4 0 11 1;
#X connect 5 0 1 0;
#X connect 6 0 2 0;
#X connect 7 0 8 0;
#X connect 8 0 13 0;
#X connect 8 1 11 0;
#X connect 9 0 1 0;
#X connect 9 1 10 0;
#X connect 10 0 11 1;
#X connect 11 0 9 0;
#X connect 14 0 13 4;
#X restore 14 38 pd s plot-append _______;
#N canvas 0 22 450 300 s 0;
#X obj 33 53 route clear autoclear;
#X obj 33 18 r \$1-plot-msg;
#X obj 33 78 s \$1-clear-set;
#X obj 115 106 s \$1-autoclear;
#X connect 0 0 2 0;
#X connect 0 1 3 0;
#X connect 1 0 0 0;
#X restore 14 64 pd s plot msg __________;
#N canvas 364 327 297 284 s 0;
#X text 26 23 The dot:;
#X text 23 131 The template:;
#X obj 27 224 s \$1-plot-touch;
#X obj 26 55 filledcurve rgb rgb 1 0 0 0 z z(0:1000)(0:500) z z(0:1000)(0:500)
0, f 27;
#X obj 26 159 struct \$1-plot float x float y float z float rgb, f
27;
#X connect 4 0 2 0;
#X restore 13 90 pd s plot-touch ________;
#X text 10 118 needs a (float) argument;
#X text 10 141 see fd_plot-help.pd;
#X text 11 179 NOTE: there should be a dot \, which is actually how
[fd_plot 1] creates., f 24;
#X restore 9 35 pd s guts <-- se here;
#X coords 0 0 1 1 1 1 2 200 200;
