#N struct 123-plot float x float y float z float rgb;
#N canvas 300 50 219 170 12;
#N canvas 0 22 450 300 \$1-graph 0;
#X scalar 123-plot 149.364 21.6148 2 0 \;;
#X scalar 123-plot -72.0492 -47.8143 2 0 \;;
#X scalar 123-plot 159.381 -15.0392 2 0 \;;
#X scalar 123-plot 50.1305 -32.8364 2 0 \;;
#X scalar 123-plot 109.455 -11.9465 2 0 \;;
#X scalar 123-plot 39.8217 25.745 2 0 \;;
#X scalar 123-plot -85.8166 41.4431 2 0 \;;
#X scalar 123-plot -138.144 57.7024 2 0 \;;
#X scalar 123-plot -192.341 -57.1442 2 0 \;;
#X scalar 123-plot 190.481 3.70078 2 0 \;;
#X scalar 123-plot -12.3359 -41.901 2 0 \;;
#X scalar 123-plot 139.67 -19.7361 2 0 \;;
#X scalar 123-plot 65.787 -30.064 2 0 \;;
#X scalar 123-plot 100.213 -9.51891 2 0 \;;
#X scalar 123-plot 31.7297 40.3901 2 0 \;;
#X scalar 123-plot -134.634 -50.908 2 0 \;;
#X scalar 123-plot 169.693 15.8728 2 0 \;;
#X scalar 123-plot -52.9093 -45.821 2 0 \;;
#X scalar 123-plot 152.737 -14.8231 2 0 \;;
#X scalar 123-plot 49.4102 -25.5227 2 0 \;;
#X scalar 123-plot 85.0757 33.0362 2 0 \;;
#X scalar 123-plot -110.121 -48.2571 2 0 \;;
#X scalar 123-plot 160.857 18.6208 2 0 \;;
#X scalar 123-plot -62.0693 -46.8147 2 0 \;;
#X scalar 123-plot 156.049 -15.2091 2 0 \;;
#X scalar 123-plot 50.697 -30.0373 2 0 \;;
#X scalar 123-plot 100.124 5.73773 2 0 \;;
#X scalar 123-plot -19.1258 46.4617 2 0 \;;
#X scalar 123-plot -154.872 -54.7385 2 0 \;;
#X scalar 123-plot 182.462 -5.85499 2 0 \;;
#X scalar 123-plot 19.5166 -36.0166 2 0 \;;
#X scalar 123-plot 120.055 -4.04074 2 0 \;;
#X scalar 123-plot 13.4691 28.2514 2 0 \;;
#X scalar 123-plot -94.1713 53.7607 2 0 \;;
#X scalar 123-plot -179.202 -55.5549 2 0 \;;
#X scalar 123-plot 185.183 9.13672 2 0 \;;
#X scalar 123-plot -30.4557 -43.8402 2 0 \;;
#X scalar 123-plot 146.134 -18.8588 2 0 \;;
#X scalar 123-plot 62.8627 -33.0167 2 0 \;;
#X scalar 123-plot 110.056 -25.9101 2 0 \;;
#X scalar 123-plot 86.3669 -29.6752 2 0 \;;
#X scalar 123-plot 98.9173 -27.6901 2 0 \;;
#X scalar 123-plot 92.3002 -28.431 2 0 \;;
#X scalar 123-plot 94.7701 -26.1264 2 0 \;;
#X scalar 123-plot 87.0878 -15.5568 2 0 \;;
#X scalar 123-plot 51.856 37.8144 2 0 \;;
#X scalar 123-plot -126.048 -50.1447 2 0 \;;
#X scalar 123-plot 167.149 15.2862 2 0 \;;
#X scalar 123-plot -50.9541 -41.3812 2 0 \;;
#X scalar 123-plot 137.937 23.3715 2 0 \;;
#X scalar 123-plot -77.9049 -44.5829 2 0 \;;
#X scalar 123-plot 148.61 21.7798 2 0 \;;
#X scalar 123-plot -72.5992 -47.8023 2 0 \;;
#X scalar 123-plot 159.341 -14.37 2 0 \;;
#X scalar 123-plot 47.9001 -30.7556 2 0 \;;
#X scalar 123-plot 102.519 4.00616 2 0 \;;
#X scalar 123-plot -13.3538 45.8171 2 0 \;;
#X scalar 123-plot -152.724 -54.3417 2 0 \;;
#X scalar 123-plot 181.139 -3.51524 2 0 \;;
#X scalar 123-plot 11.7175 -32.4204 2 0 \;;
#X scalar 123-plot 108.068 29.2815 2 0 \;;
#X scalar 123-plot -97.6049 -46.984 2 0 \;;
#X scalar 123-plot 156.613 18.6797 2 0 \;;
#X scalar 123-plot -62.2657 -42.7987 2 0 \;;
#X scalar 123-plot 142.662 22.3089 2 0 \;;
#X scalar 123-plot -74.3631 -44.2744 2 0 \;;
#X scalar 123-plot 147.581 21.081 2 0 \;;
#X scalar 123-plot -70.2701 -43.6682 2 0 \;;
#X scalar 123-plot 145.561 22.5166 2 0 \;;
#X scalar 123-plot -75.0554 -48.1381 2 0 \;;
#X scalar 123-plot 160.46 -15.2552 2 0 \;;
#X scalar 123-plot 50.8506 -34.5945 2 0 \;;
#X scalar 123-plot 115.315 -24.9608 2 0 \;;
#X scalar 123-plot 83.2027 -29.9267 2 0 \;;
#X scalar 123-plot 99.7556 -26.0804 2 0 \;;
#X scalar 123-plot 86.9345 -20.2933 2 0 \;;
#X scalar 123-plot 67.6442 20.3586 2 0 \;;
#X scalar 123-plot -67.8622 39.3733 2 0 \;;
#X scalar 123-plot -131.244 57.0949 2 0 \;;
#X scalar 123-plot -190.316 -56.8123 2 0 \;;
#X scalar 123-plot 189.374 5.59881 2 0 \;;
#X scalar 123-plot -18.6627 -42.625 2 0 \;;
#X scalar 123-plot 142.083 -19.7556 2 0 \;;
#X scalar 123-plot 65.8521 -32.5573 2 0 \;;
#X scalar 123-plot 108.524 -25.7755 2 0 \;;
#X scalar 123-plot 85.9184 -27.4226 2 0 \;;
#X scalar 123-plot 91.4088 -13.9036 2 0 \;;
#X scalar 123-plot 46.3454 38.5442 2 0 \;;
#X scalar 123-plot -128.481 -50.4134 2 0 \;;
#X scalar 123-plot 168.045 14.9167 2 0 \;;
#X scalar 123-plot -49.7223 -41.1195 2 0 \;;
#X scalar 123-plot 137.065 24.3788 2 0 \;;
#X scalar 123-plot -81.2627 -48.6988 2 0 \;;
#X scalar 123-plot 162.329 -14.6784 2 0 \;;
#X scalar 123-plot 48.9281 -34.673 2 0 \;;
#X scalar 123-plot 115.577 -23.6023 2 0 \;;
#X scalar 123-plot 78.6744 -23.3468 2 0 \;;
#X scalar 123-plot 77.8225 14.7997 2 0 \;;
#X scalar 123-plot -49.3324 49.4631 2 0 \;;
#X scalar 123-plot -164.877 -54.3887 2 0 \;;
#X scalar 123-plot 181.296 8.10768 2 0 \;;
#X scalar 123-plot -27.0256 -38.1126 2 0 \;;
#X scalar 123-plot 127.042 26.3886 2 0 \;;
#X scalar 123-plot -87.9619 -49.2568 2 0 \;;
#X scalar 123-plot 164.189 -13.647 2 0 \;;
#X scalar 123-plot 45.49 -33.503 2 0 \;;
#X scalar 123-plot 111.677 -11.8924 2 0 \;;
#X scalar 123-plot 39.6413 23.6565 2 0 \;;
#X scalar 123-plot -78.8552 52.3227 2 0 \;;
#X scalar 123-plot -174.409 -55.051 2 0 \;;
#X scalar 123-plot 183.503 10.1235 2 0 \;;
#X scalar 123-plot -33.7449 -44.1313 2 0 \;;
#X scalar 123-plot 147.104 -18.2256 2 0 \;;
#X scalar 123-plot 60.752 -31.5519 2 0 \;;
#X scalar 123-plot 105.173 -13.9915 2 0 \;;
#X scalar 123-plot 46.6384 24.5256 2 0 \;;
#X scalar 123-plot -81.7521 40.9832 2 0 \;;
#X scalar 123-plot -136.611 57.569 2 0 \;;
#X scalar 123-plot -191.896 -57.0825 2 0 \;;
#X scalar 123-plot 190.275 3.98718 2 0 \;;
#X scalar 123-plot -13.2906 -41.9236 2 0 \;;
#X scalar 123-plot 139.745 -18.978 2 0 \;;
#X scalar 123-plot 63.2601 -27.096 2 0 \;;
#X scalar 123-plot 90.3199 10.6014 2 0 \;;
#X scalar 123-plot -35.338 48.0248 2 0 \;;
#X scalar 123-plot -160.083 -53.8427 2 0 \;;
#X scalar 123-plot 179.476 9.44153 2 0 \;;
#X scalar 123-plot -31.4718 -38.7202 2 0 \;;
#X scalar 123-plot 129.067 25.9935 2 0 \;;
#X scalar 123-plot -86.6449 -49.1359 2 0 \;;
#X scalar 123-plot 163.786 -13.7305 2 0 \;;
#X scalar 123-plot 45.7683 -33.3372 2 0 \;;
#X scalar 123-plot 111.124 -11.0211 2 0 \;;
#X scalar 123-plot 36.7371 26.2797 2 0 \;;
#X scalar 123-plot -87.599 41.6427 2 0 \;;
#X scalar 123-plot -138.809 57.765 2 0 \;;
#X scalar 123-plot -192.55 -57.2294 2 0 \;;
#X scalar 123-plot 190.765 2.899 2 0 \;;
#X scalar 123-plot -9.66334 -41.6363 2 0 \;;
#X scalar 123-plot 138.788 -20.1155 2 0 \;;
#X scalar 123-plot 67.0515 -30.7494 2 0 \;;
#X scalar 123-plot 102.498 -15.1062 2 0 \;;
#X scalar 123-plot 50.3541 23.8369 2 0 \;;
#X scalar 123-plot -79.4563 40.7217 2 0 \;;
#X scalar 123-plot -135.739 57.4885 2 0 \;;
#X scalar 123-plot -191.628 -56.9941 2 0 \;;
#X scalar 123-plot 189.98 4.76447 2 0 \;;
#X scalar 123-plot -15.8816 -42.3345 2 0 \;;
#X scalar 123-plot 141.115 -19.9773 2 0 \;;
#X scalar 123-plot 66.591 -32.5024 2 0 \;;
#X scalar 123-plot 108.341 -26.1443 2 0 \;;
#X scalar 123-plot 87.1476 -29.2252 2 0 \;;
#X scalar 123-plot 97.4175 -25.7225 2 0 \;;
#X scalar 123-plot 85.7415 -16.0325 2 0 \;;
#X scalar 123-plot 53.4417 37.6023 2 0 \;;
#X scalar 123-plot -125.341 -50.0717 2 0 \;;
#X scalar 123-plot 166.906 15.3375 2 0 \;;
#X scalar 123-plot -51.125 -41.3009 2 0 \;;
#X scalar 123-plot 137.67 24.2311 2 0 \;;
#X scalar 123-plot -80.7702 -48.5586 2 0 \;;
#X scalar 123-plot 161.862 -13.7571 2 0 \;;
#X scalar 123-plot 45.857 -31.4889 2 0 \;;
#X scalar 123-plot 104.963 1.31577 2 0 \;;
#X scalar 123-plot -4.38589 44.8576 2 0 \;;
#X scalar 123-plot -149.525 -54.287 2 0 \;;
#X scalar 123-plot 180.957 -6.09794 2 0 \;;
#X scalar 123-plot 20.3265 -34.813 2 0 \;;
#X scalar 123-plot 116.043 3.99067 2 0 \;;
#X scalar 123-plot -13.3022 32.3053 2 0 \;;
#X scalar 123-plot -107.684 55.0738 2 0 \;;
#X scalar 123-plot -183.579 -56.8618 2 0 \;;
#X scalar 123-plot 189.539 -1.72239 2 0 \;;
#X scalar 123-plot 5.7413 -39.847 2 0 \;;
#X scalar 123-plot 132.823 -20.4007 2 0 \;;
#X scalar 123-plot 68.0024 -25.9839 2 0 \;;
#X scalar 123-plot 86.6129 11.9809 2 0 \;;
#X scalar 123-plot -39.9363 48.5013 2 0 \;;
#X scalar 123-plot -161.671 -54.0136 2 0 \;;
#X scalar 123-plot 180.045 9.11827 2 0 \;;
#X scalar 123-plot -30.3942 -38.6677 2 0 \;;
#X scalar 123-plot 128.892 25.3377 2 0 \;;
#X scalar 123-plot -84.4591 -45.47 2 0 \;;
#X scalar 123-plot 151.567 20.0496 2 0 \;;
#X scalar 123-plot -66.8319 -43.254 2 0 \;;
#X scalar 123-plot 144.18 22.8115 2 0 \;;
#X scalar 123-plot -76.0384 -48.144 2 0 \;;
#X scalar 123-plot 160.48 -14.3302 2 0 \;;
#X scalar 123-plot 47.7674 -31.7759 2 0 \;;
#X scalar 123-plot 105.92 -2.4779 2 0 \;;
#X scalar 123-plot 8.25966 43.4435 2 0 \;;
#X scalar 123-plot -144.812 -53.984 2 0 \;;
#X scalar 123-plot 179.947 -7.40867 2 0 \;;
#X scalar 123-plot 24.6956 -35.6387 2 0 \;;
#X scalar 123-plot 118.796 -6.41133 2 0 \;;
#X scalar 123-plot 21.3711 26.9416 2 0 \;;
#X scalar 123-plot -89.8054 53.3556 2 0 \;;
#X scalar 123-plot -177.852 -55.4199 2 0 \;;
#X scalar 123-plot 184.733 9.3396 2 0 \;;
#X scalar 123-plot -31.132 -43.779 2 0 \;;
#X scalar 123-plot 145.93 -17.6262 2 0 \;;
#X scalar 123-plot 58.7541 -28.149 2 0 \;;
#X scalar 123-plot 93.8299 9.0748 2 0 \;;
#X scalar 123-plot -30.2493 47.6299 2 0 \;;
#X scalar 123-plot -158.766 -55.0139 2 0 \;;
#X scalar 123-plot 183.38 -5.09609 2 0 \;;
#X scalar 123-plot 16.987 -36.0729 2 0 \;;
#X scalar 123-plot 120.243 -1.93204 2 0 \;;
#X scalar 123-plot 6.44015 29.3698 2 0 \;;
#X scalar 123-plot -97.8993 54.1066 2 0 \;;
#X scalar 123-plot -180.355 -55.6956 2 0 \;;
#X scalar 123-plot 185.652 8.66599 2 0 \;;
#X scalar 123-plot -28.8866 -43.4402 2 0 \;;
#X scalar 123-plot 144.801 -16.8076 2 0 \;;
#X scalar 123-plot 56.0252 -24.0963 2 0 \;;
#X scalar 123-plot 80.3211 33.761 2 0 \;;
#X scalar 123-plot -112.537 -48.5229 2 0 \;;
#X scalar 123-plot 161.743 18.3691 2 0 \;;
#X scalar 123-plot -61.2303 -46.735 2 0 \;;
#X scalar 123-plot 155.783 -15.2756 2 0 \;;
#X scalar 123-plot 50.9188 -29.9823 2 0 \;;
#X scalar 123-plot 99.9409 5.85817 2 0 \;;
#X scalar 123-plot -19.5272 46.5002 2 0 \;;
#X scalar 123-plot -155.001 -54.708 2 0 \;;
#X scalar 123-plot 182.36 -5.38134 2 0 \;;
#X scalar 123-plot 17.9378 -35.3633 2 0 \;;
#X scalar 123-plot 117.878 2.37444 2 0 \;;
#X scalar 123-plot -7.9148 31.5378 2 0 \;;
#X scalar 123-plot -105.126 54.7679 2 0 \;;
#X scalar 123-plot -182.56 -55.9355 2 0 \;;
#X scalar 123-plot 186.452 8.09371 2 0 \;;
#X scalar 123-plot -26.979 -43.245 2 0 \;;
#X scalar 123-plot 144.15 -16.9608 2 0 \;;
#X scalar 123-plot 56.536 -23.9824 2 0 \;;
#X scalar 123-plot 79.9414 33.8181 2 0 \;;
#X scalar 123-plot -112.727 -48.5438 2 0 \;;
#X scalar 123-plot 161.813 18.3491 2 0 \;;
#X scalar 123-plot -61.1637 -46.7287 2 0 \;;
#X scalar 123-plot 155.762 -15.2809 2 0 \;;
#X scalar 123-plot 50.9365 -29.978 2 0 \;;
#X scalar 123-plot 99.9265 5.8673 2 0 \;;
#X scalar 123-plot -19.5577 46.5034 2 0 \;;
#X scalar 123-plot -155.011 -54.7089 2 0 \;;
#X scalar 123-plot 182.363 -5.37995 2 0 \;;
#X scalar 123-plot 17.9332 -35.3645 2 0 \;;
#X scalar 123-plot 117.882 2.37023 2 0 \;;
#X scalar 123-plot -7.90076 31.5358 2 0 \;;
#X scalar 123-plot -105.119 54.7666 2 0 \;;
#X scalar 123-plot -182.555 -55.9279 2 0 \;;
#X scalar 123-plot 186.426 8.17717 2 0 \;;
#X scalar 123-plot -27.2572 -43.3607 2 0 \;;
#X scalar 123-plot 144.536 -17.7214 2 0 \;;
#X scalar 123-plot 59.0712 -27.1035 2 0 \;;
#X scalar 123-plot 90.3451 14.748 2 0 \;;
#X scalar 123-plot -49.1599 37.0991 2 0 \;;
#X scalar 123-plot -123.664 56.4278 2 0 \;;
#X scalar 123-plot -188.093 -56.5385 2 0 \;;
#X scalar 123-plot 188.462 6.59339 2 0 \;;
#X scalar 123-plot -21.978 -42.9699 2 0 \;;
#X scalar 123-plot 143.233 -19.5016 2 0 \;;
#X scalar 123-plot 65.0053 -32.6727 2 0 \;;
#X scalar 123-plot 108.909 -25.7095 2 0 \;;
#X scalar 123-plot 85.6984 -27.455 2 0 \;;
#X scalar 123-plot 91.5168 -13.8682 2 0 \;;
#X scalar 123-plot 46.2272 38.5383 2 0 \;;
#X scalar 123-plot -128.461 -50.248 2 0 \;;
#X scalar 123-plot 167.493 16.6238 2 0 \;;
#X scalar 123-plot -55.4125 -46.1517 2 0 \;;
#X scalar 123-plot 153.839 -15.4741 2 0 \;;
#X scalar 123-plot 51.5803 -28.6706 2 0 \;;
#X scalar 123-plot 95.5686 13.1751 2 0 \;;
#X scalar 123-plot -43.917 36.4302 2 0 \;;
#X scalar 123-plot -121.434 56.2853 2 0 \;;
#X scalar 123-plot -187.618 -57.1033 2 0 \;;
#X scalar 123-plot 190.344 -0.537887 2 0 \;;
#X scalar 123-plot 1.79296 -40.3743 2 0 \;;
#X scalar 123-plot 134.581 -20.8391 2 0 \;;
#X scalar 123-plot 69.4635 -29.6162 2 0 \;;
#X scalar 123-plot 98.7205 -10.4238 2 0 \;;
#X scalar 123-plot 34.746 40.0115 2 0 \;;
#X scalar 123-plot -133.372 -50.7672 2 0 \;;
#X scalar 123-plot 169.224 16.0952 2 0 \;;
#X scalar 123-plot -53.6506 -46.0889 2 0 \;;
#X scalar 123-plot 153.63 -16.6355 2 0 \;;
#X scalar 123-plot 55.4516 -32.3286 2 0 \;;
#X scalar 123-plot 107.762 -13.8364 2 0 \;;
#X scalar 123-plot 46.1214 22.3843 2 0 \;;
#X scalar 123-plot -74.6142 51.9173 2 0 \;;
#X scalar 123-plot -173.058 -54.9094 2 0 \;;
#X scalar 123-plot 183.031 10.3868 2 0 \;;
#X scalar 123-plot -34.6228 -44.2195 2 0 \;;
#X scalar 123-plot 147.398 -18.1555 2 0 \;;
#X scalar 123-plot 60.5182 -31.5811 2 0 \;;
#X scalar 123-plot 105.27 -13.9488 2 0 \;;
#X scalar 123-plot 46.4961 24.552 2 0 \;;
#X scalar 123-plot -81.8399 40.9913 2 0 \;;
#X scalar 123-plot -136.638 57.5879 2 0 \;;
#X scalar 123-plot -191.96 -57.2816 2 0 \;;
#X scalar 123-plot 190.939 1.68879 2 0 \;;
#X scalar 123-plot -5.62929 -41.2345 2 0 \;;
#X scalar 123-plot 137.448 -20.6962 2 0 \;;
#X coords 0 -1 1 1 1 1 2 200 200;
#X restore 200 200 pd \$1-graph;
#X obj 9 11 namecanvas plotter-\$1;
#N canvas 298 272 221 140 s 0;
#N canvas 242 127 497 567 s 0;
#X msg 32 203 \; pd-s vis 0;
#X obj 69 99 fd_arg1 \$1;
#X obj 69 130 sel;
#X obj 205 156 sel;
#N canvas 406 187 450 300 \$0-warn 0;
#X text 90 125 Please provide a float argument!;
#X obj 111 41 cnv 15 200 60 empty empty WARNING 20 12 0 14 -261234
-66577 0;
#X text 145 69 INVALID ARGUMENT;
#X obj 197 232 bng 30 250 50 0 \$0-ok empty OK 35 15 0 23 -262144 -1
-1;
#X text 171 14 "fd_plot";
#X text 33 148 And a symbol with the name of the parent patch;
#X text 85 182 type \, e.g: [fd_plot 1 pd-whatever].;
#X restore 367 249 pd \$0-warn;
#X obj 304 225 pack f \$0;
#X msg 327 47 1;
#X msg 304 277 \; pd-\$2-warn vis \$1;
#X msg 304 191 0;
#X obj 267 22 r \$0-ok;
#X obj 267 72 t b b;
#X msg 323 72 0;
#X obj 267 102 t b b;
#X obj 267 47 spigot;
#X obj 342 191 t f b;
#X obj 226 185 t b b;
#X obj 32 64 t b b b;
#N canvas 641 119 540 297 s 0;
#X obj 33 40 inlet;
#X obj 33 65 fd_arg1 \$2;
#X obj 65 121 symbol;
#X obj 33 90 sel 0 1;
#X obj 33 208 outlet;
#X text 161 86 make the parent patch GOP;
#X text 414 31 xperpix \; yperpix \; graphme \; x1 \; y1 \; x2 \; y2
\; xpix \; ypix \; xmargin \; ymargin \;;
#X msg 65 236 \; \$1 donecanvasdialog 1 -1 3 0 0 450 350 450 350 0
0;
#X connect 0 0 1 0;
#X connect 1 0 3 0;
#X connect 1 1 3 0;
#X connect 1 2 2 1;
#X connect 2 0 7 0;
#X connect 3 0 4 0;
#X connect 3 1 2 0;
#X restore 151 28 pd s parent;
#X obj 52 482 s plotter-\$1;
#X obj 32 29 loadbang;
#X msg 52 355 donecanvasdialog 1 -1 3 1 1 1 1 1 1 200 200;
#X msg 88 398 donecanvasdialog 1 -1 3 0 0 100 100 100 100 200 200 \,
vis 0 \, setbounds 300 50 520 250 \, vis 1, f 47;
#X connect 1 0 2 0;
#X connect 1 1 2 0;
#X connect 1 1 3 0;
#X connect 1 2 6 0;
#X connect 2 0 6 0;
#X connect 3 1 15 0;
#X connect 5 0 7 0;
#X connect 6 0 13 1;
#X connect 6 0 14 0;
#X connect 8 0 5 0;
#X connect 9 0 13 0;
#X connect 10 0 12 0;
#X connect 10 1 11 0;
#X connect 11 0 13 1;
#X connect 12 0 0 0;
#X connect 12 1 8 0;
#X connect 13 0 10 0;
#X connect 14 0 5 0;
#X connect 14 1 21 0;
#X connect 15 0 20 0;
#X connect 15 1 8 0;
#X connect 16 0 0 0;
#X connect 16 1 1 0;
#X connect 16 2 17 0;
#X connect 17 0 10 0;
#X connect 19 0 16 0;
#X connect 20 0 18 0;
#X connect 21 0 18 0;
#X restore 14 12 pd s loadbang __________;
#X text 26 96 see fd_plot-help.pd;
#N canvas 0 22 525 364 s 0;
#X obj 54 183 pointer;
#X obj 28 67 t a b b;
#X msg 54 156 traverse pd-\$1-graph \, bang;
#X obj 54 127 pack \$1;
#X obj 329 166 t a a;
#X obj 166 99 t a b;
#X msg 220 98 0;
#X obj 166 74 spigot 1;
#X text 154 25 append on first set (reset on clear);
#X obj 222 232 set \$1-plot x y z rgb, f 14;
#X obj 28 257 append \$1-plot x y z rgb, f 14;
#X obj 28 9 r fd_plot-\$1;
#X obj 28 34 route append;
#X msg 240 74 1;
#X obj 351 206 s pd-\$1-graph, f 11;
#X obj 329 54 route set clear;
#X obj 386 80 t b b;
#X msg 389 167 clear;
#N canvas 0 22 450 300 s 0;
#X obj 44 24 inlet;
#X obj 44 249 outlet;
#X obj 241 75 !msg fd_plot;
#X obj 82 132 * -1;
#X obj 44 49 list split 2;
#X obj 44 178 pack;
#X obj 44 86 unpack;
#X obj 44 203 list append, f 17;
#X connect 0 0 4 0;
#X connect 3 0 5 1;
#X connect 4 0 6 0;
#X connect 4 1 7 1;
#X connect 4 2 2 0;
#X connect 5 0 7 0;
#X connect 6 0 5 0;
#X connect 6 1 3 0;
#X connect 7 0 1 0;
#X restore 28 226 pd s invert check;
#X obj 352 260 route vis;
#X obj 352 285 pack f \$1;
#X obj 436 262 !msg fd_plot, f 7;
#X msg 352 310 \; plotter-\$2 vis \$1;
#X connect 0 0 10 4;
#X connect 1 0 18 0;
#X connect 1 1 3 0;
#X connect 2 0 0 0;
#X connect 3 0 2 0;
#X connect 4 0 9 0;
#X connect 4 1 7 0;
#X connect 5 0 1 0;
#X connect 5 1 6 0;
#X connect 6 0 7 1;
#X connect 7 0 5 0;
#X connect 10 0 9 4;
#X connect 11 0 12 0;
#X connect 12 0 1 0;
#X connect 12 1 15 0;
#X connect 13 0 7 1;
#X connect 15 0 4 0;
#X connect 15 1 16 0;
#X connect 15 2 19 0;
#X connect 16 0 13 0;
#X connect 16 1 17 0;
#X connect 17 0 14 0;
#X connect 18 0 10 0;
#X connect 19 0 20 0;
#X connect 19 1 21 0;
#X connect 20 0 22 0;
#X restore 14 38 pd s append-set ________;
#N canvas 527 506 481 183 s 0;
#X text 20 9 The dot:;
#X text 25 99 The template:;
#X obj 28 127 struct \$1-plot float x float y float z float rgb, f
27;
#X obj 29 34 filledcurve rgb rgb 1 z(0:1000)(0:-500) 0 0 z(0:1000)(0:-500)
z(0:1000)(0:500) 0 0 z(0:1000)(0:500), f 44;
#X restore 14 62 pd s template __________;
#X restore 9 35 pd s guts <--see here;
#X coords 0 0 1 1 1 1 2 200 200;
