#N struct 123-plot float x float y float z float rgb;
#N canvas 300 50 219 170 12;
#N canvas 0 22 450 300 \$1-graph 0;
#X scalar 123-plot 184.604 1.04604 2 0 \;;
#X scalar 123-plot -3.4868 -34.7172 2 0 \;;
#X scalar 123-plot 115.724 28.4945 2 0 \;;
#X scalar 123-plot -94.9817 -49.9248 2 0 \;;
#X scalar 123-plot 166.416 -13.4986 2 0 \;;
#X scalar 123-plot 44.9952 -35.3121 2 0 \;;
#X scalar 123-plot 117.707 -24.3078 2 0 \;;
#X scalar 123-plot 81.026 -28.9822 2 0 \;;
#X scalar 123-plot 96.6073 -18.1337 2 0 \;;
#X scalar 123-plot 60.4457 19.2917 2 0 \;;
#X scalar 123-plot -64.3056 50.959 2 0 \;;
#X scalar 123-plot -169.863 -54.9942 2 0 \;;
#X scalar 123-plot 183.314 6.22578 2 0 \;;
#X scalar 123-plot -20.7526 -37.3336 2 0 \;;
#X scalar 123-plot 124.445 26.2107 2 0 \;;
#X scalar 123-plot -87.3689 -45.6897 2 0 \;;
#X scalar 123-plot 152.299 20.8828 2 0 \;;
#X scalar 123-plot -69.6093 -47.5231 2 0 \;;
#X scalar 123-plot 158.41 -14.5998 2 0 \;;
#X scalar 123-plot 48.666 -30.5152 2 0 \;;
#X scalar 123-plot 101.717 4.76722 2 0 \;;
#X scalar 123-plot -15.8907 45.9257 2 0 \;;
#X scalar 123-plot -153.086 -52.8384 2 0 \;;
#X scalar 123-plot 176.128 13.5558 2 0 \;;
#X scalar 123-plot -45.1859 -45.1845 2 0 \;;
#X scalar 123-plot 150.615 -16.5398 2 0 \;;
#X scalar 123-plot 55.1327 -28.9848 2 0 \;;
#X scalar 123-plot 96.6159 7.74407 2 0 \;;
#X scalar 123-plot -25.8136 47.1649 2 0 \;;
#X scalar 123-plot -157.216 -54.8783 2 0 \;;
#X scalar 123-plot 182.928 -5.10038 2 0 \;;
#X scalar 123-plot 17.0013 -35.6253 2 0 \;;
#X scalar 123-plot 118.751 1.38168 2 0 \;;
#X scalar 123-plot -4.60561 31.0509 2 0 \;;
#X scalar 123-plot -103.503 54.6188 2 0 \;;
#X scalar 123-plot -182.063 -55.8669 2 0 \;;
#X scalar 123-plot 186.223 8.39139 2 0 \;;
#X scalar 123-plot -27.9713 -43.5255 2 0 \;;
#X scalar 123-plot 145.085 -18.492 2 0 \;;
#X scalar 123-plot 61.6399 -30.5468 2 0 \;;
#X scalar 123-plot 101.823 -8.40636 2 0 \;;
#X scalar 123-plot 28.0212 40.849 2 0 \;;
#X scalar 123-plot -136.163 -51.0657 2 0 \;;
#X scalar 123-plot 170.219 15.7344 2 0 \;;
#X scalar 123-plot -52.448 -45.8931 2 0 \;;
#X scalar 123-plot 152.977 -15.9708 2 0 \;;
#X scalar 123-plot 53.2359 -29.4284 2 0 \;;
#X scalar 123-plot 98.0946 6.95359 2 0 \;;
#X scalar 123-plot -23.1786 46.8911 2 0 \;;
#X scalar 123-plot -156.304 -54.842 2 0 \;;
#X scalar 123-plot 182.807 -5.60077 2 0 \;;
#X scalar 123-plot 18.6692 -36.0598 2 0 \;;
#X scalar 123-plot 120.199 -3.51621 2 0 \;;
#X scalar 123-plot 11.7207 28.5185 2 0 \;;
#X scalar 123-plot -95.0615 53.9368 2 0 \;;
#X scalar 123-plot -179.789 -56.6315 2 0 \;;
#X scalar 123-plot 188.772 -2.80181 2 0 \;;
#X scalar 123-plot 9.33936 -39.5859 2 0 \;;
#X scalar 123-plot 131.953 -21.8472 2 0 \;;
#X scalar 123-plot 72.824 -31.4507 2 0 \;;
#X scalar 123-plot 104.836 -25.4019 2 0 \;;
#X scalar 123-plot 84.673 -21.7511 2 0 \;;
#X scalar 123-plot 72.5036 16.2638 2 0 \;;
#X scalar 123-plot -54.2127 50.0656 2 0 \;;
#X scalar 123-plot -166.885 -55.7278 2 0 \;;
#X scalar 123-plot 185.759 -5.17498 2 0 \;;
#X scalar 123-plot 17.2499 -38.5364 2 0 \;;
#X scalar 123-plot 128.455 -21.2556 2 0 \;;
#X scalar 123-plot 70.8522 -25.3083 2 0 \;;
#X scalar 123-plot 84.361 12.7245 2 0 \;;
#X scalar 123-plot -42.415 48.848 2 0 \;;
#X scalar 123-plot -162.827 -55.0348 2 0 \;;
#X scalar 123-plot 183.449 -1.27467 2 0 \;;
#X scalar 123-plot 4.24889 -33.618 2 0 \;;
#X scalar 123-plot 112.06 28.5487 2 0 \;;
#X scalar 123-plot -95.1622 -46.5811 2 0 \;;
#X scalar 123-plot 155.27 20.1465 2 0 \;;
#X scalar 123-plot -67.1549 -47.3615 2 0 \;;
#X scalar 123-plot 157.872 -15.4638 2 0 \;;
#X scalar 123-plot 51.5462 -32.6703 2 0 \;;
#X scalar 123-plot 108.901 -12.2343 2 0 \;;
#X scalar 123-plot 40.7809 25.5769 2 0 \;;
#X scalar 123-plot -85.2562 41.3786 2 0 \;;
#X scalar 123-plot -137.929 57.6958 2 0 \;;
#X scalar 123-plot -192.319 -57.2802 2 0 \;;
#X scalar 123-plot 190.934 2.06571 2 0 \;;
#X scalar 123-plot -6.8857 -41.3764 2 0 \;;
#X scalar 123-plot 137.921 -20.6553 2 0 \;;
#X scalar 123-plot 68.8511 -32.1656 2 0 \;;
#X scalar 123-plot 107.219 -26.1453 2 0 \;;
#X scalar 123-plot 87.1511 -28.1082 2 0 \;;
#X scalar 123-plot 93.694 -19.0845 2 0 \;;
#X scalar 123-plot 63.6149 18.5353 2 0 \;;
#X scalar 123-plot -61.7843 50.757 2 0 \;;
#X scalar 123-plot -169.19 -55.3844 2 0 \;;
#X scalar 123-plot 184.615 1.08534 2 0 \;;
#X scalar 123-plot -3.61778 -34.737 2 0 \;;
#X scalar 123-plot 115.79 28.4829 2 0 \;;
#X scalar 123-plot -94.9431 -49.9223 2 0 \;;
#X scalar 123-plot 166.408 -13.5114 2 0 \;;
#X scalar 123-plot 45.038 -35.3397 2 0 \;;
#X scalar 123-plot 117.799 -24.5533 2 0 \;;
#X scalar 123-plot 81.8443 -30.3183 2 0 \;;
#X scalar 123-plot 101.061 -27.1686 2 0 \;;
#X scalar 123-plot 90.5619 -27.608 2 0 \;;
#X scalar 123-plot 92.0266 -19.605 2 0 \;;
#X scalar 123-plot 65.3501 18.1141 2 0 \;;
#X scalar 123-plot -60.3802 50.6227 2 0 \;;
#X scalar 123-plot -168.742 -55.3769 2 0 \;;
#X scalar 123-plot 184.59 0.724239 2 0 \;;
#X scalar 123-plot -2.41413 -34.6441 2 0 \;;
#X scalar 123-plot 115.48 27.9474 2 0 \;;
#X scalar 123-plot -93.1579 -46.4787 2 0 \;;
#X scalar 123-plot 154.929 19.13 2 0 \;;
#X scalar 123-plot -63.7667 -42.8801 2 0 \;;
#X scalar 123-plot 142.934 23.0863 2 0 \;;
#X scalar 123-plot -76.9544 -48.2055 2 0 \;;
#X scalar 123-plot 160.685 -14.0292 2 0 \;;
#X scalar 123-plot 46.764 -31.0958 2 0 \;;
#X scalar 123-plot 103.653 2.95963 2 0 \;;
#X scalar 123-plot -9.86543 45.4389 2 0 \;;
#X scalar 123-plot -151.463 -54.2505 2 0 \;;
#X scalar 123-plot 180.835 -3.74945 2 0 \;;
#X scalar 123-plot 12.4982 -32.293 2 0 \;;
#X scalar 123-plot 107.643 29.356 2 0 \;;
#X scalar 123-plot -97.8532 -47.0121 2 0 \;;
#X scalar 123-plot 156.707 18.6535 2 0 \;;
#X scalar 123-plot -62.1784 -42.7912 2 0 \;;
#X scalar 123-plot 142.637 22.2883 2 0 \;;
#X scalar 123-plot -74.2944 -44.154 2 0 \;;
#X scalar 123-plot 147.18 22.1165 2 0 \;;
#X scalar 123-plot -73.7217 -47.9055 2 0 \;;
#X scalar 123-plot 159.685 -14.2717 2 0 \;;
#X scalar 123-plot 47.5722 -30.8074 2 0 \;;
#X scalar 123-plot 102.691 4.00315 2 0 \;;
#X scalar 123-plot -13.3438 45.6469 2 0 \;;
#X scalar 123-plot -152.156 -52.7369 2 0 \;;
#X scalar 123-plot 175.79 13.7376 2 0 \;;
#X scalar 123-plot -45.792 -45.3608 2 0 \;;
#X scalar 123-plot 151.203 -17.5886 2 0 \;;
#X scalar 123-plot 58.6288 -33.2844 2 0 \;;
#X scalar 123-plot 110.948 -23.5169 2 0 \;;
#X scalar 123-plot 78.3897 -18.3008 2 0 \;;
#X scalar 123-plot 61.0026 36.878 2 0 \;;
#X scalar 123-plot -122.927 -52.0385 2 0 \;;
#X scalar 123-plot 173.462 -7.90348 2 0 \;;
#X scalar 123-plot 26.3449 -29.9395 2 0 \;;
#X scalar 123-plot 99.7985 30.6975 2 0 \;;
#X scalar 123-plot -102.325 -47.5225 2 0 \;;
#X scalar 123-plot 158.408 18.1222 2 0 \;;
#X scalar 123-plot -60.4074 -42.466 2 0 \;;
#X scalar 123-plot 141.553 23.3919 2 0 \;;
#X scalar 123-plot -77.973 -48.2981 2 0 \;;
#X scalar 123-plot 160.994 -13.9373 2 0 \;;
#X scalar 123-plot 46.4576 -31.1378 2 0 \;;
#X scalar 123-plot 103.793 2.995 2 0 \;;
#X scalar 123-plot -9.98332 45.277 2 0 \;;
#X scalar 123-plot -150.923 -52.61 2 0 \;;
#X scalar 123-plot 175.367 13.8913 2 0 \;;
#X scalar 123-plot -46.3044 -45.3781 2 0 \;;
#X scalar 123-plot 151.26 -17.2398 2 0 \;;
#X scalar 123-plot 57.4658 -32.0822 2 0 \;;
#X scalar 123-plot 106.941 -14.2044 2 0 \;;
#X scalar 123-plot 47.348 22.1357 2 0 \;;
#X scalar 123-plot -73.7858 51.8382 2 0 \;;
#X scalar 123-plot -172.794 -54.8868 2 0 \;;
#X scalar 123-plot 182.956 10.3804 2 0 \;;
#X scalar 123-plot -34.6012 -44.1303 2 0 \;;
#X scalar 123-plot 147.101 -17.3598 2 0 \;;
#X scalar 123-plot 57.866 -28.3533 2 0 \;;
#X scalar 123-plot 94.5111 8.76545 2 0 \;;
#X scalar 123-plot -29.2182 47.521 2 0 \;;
#X scalar 123-plot -158.403 -54.9704 2 0 \;;
#X scalar 123-plot 183.235 -4.96321 2 0 \;;
#X scalar 123-plot 16.544 -35.7894 2 0 \;;
#X scalar 123-plot 119.298 0.623967 2 0 \;;
#X scalar 123-plot -2.07989 30.6617 2 0 \;;
#X scalar 123-plot -102.206 54.5841 2 0 \;;
#X scalar 123-plot -181.947 -56.7714 2 0 \;;
#X scalar 123-plot 189.238 -2.28926 2 0 \;;
#X scalar 123-plot 7.63088 -39.7815 2 0 \;;
#X scalar 123-plot 132.605 -21.7488 2 0 \;;
#X scalar 123-plot 72.496 -31.6579 2 0 \;;
#X scalar 123-plot 105.526 -26.4302 2 0 \;;
#X scalar 123-plot 88.1006 -27.969 2 0 \;;
#X scalar 123-plot 93.2299 -19.2243 2 0 \;;
#X scalar 123-plot 64.0809 18.444 2 0 \;;
#X scalar 123-plot -61.4799 50.6411 2 0 \;;
#X scalar 123-plot -168.804 -54.4703 2 0 \;;
#X scalar 123-plot 181.568 11.1133 2 0 \;;
#X scalar 123-plot -37.0442 -44.3756 2 0 \;;
#X scalar 123-plot 147.919 -17.1683 2 0 \;;
#X scalar 123-plot 57.2276 -28.4853 2 0 \;;
#X scalar 123-plot 94.9509 8.62617 2 0 \;;
#X scalar 123-plot -28.7539 47.3325 2 0 \;;
#X scalar 123-plot -157.775 -53.58 2 0 \;;
#X scalar 123-plot 178.6 10.0609 2 0 \;;
#X scalar 123-plot -33.5365 -39.097 2 0 \;;
#X scalar 123-plot 130.323 25.0172 2 0 \;;
#X scalar 123-plot -83.3906 -45.2274 2 0 \;;
#X scalar 123-plot 150.758 21.2625 2 0 \;;
#X scalar 123-plot -70.8751 -47.642 2 0 \;;
#X scalar 123-plot 158.807 -14.5078 2 0 \;;
#X scalar 123-plot 48.3594 -30.6341 2 0 \;;
#X scalar 123-plot 102.114 4.32028 2 0 \;;
#X scalar 123-plot -14.4009 45.9509 2 0 \;;
#X scalar 123-plot -153.17 -54.5675 2 0 \;;
#X scalar 123-plot 181.892 -5.62021 2 0 \;;
#X scalar 123-plot 18.734 -35.1674 2 0 \;;
#X scalar 123-plot 117.225 3.01061 2 0 \;;
#X scalar 123-plot -10.0353 31.8353 2 0 \;;
#X scalar 123-plot -106.118 54.9332 2 0 \;;
#X scalar 123-plot -183.111 -56.824 2 0 \;;
#X scalar 123-plot 189.413 -1.74567 2 0 \;;
#X scalar 123-plot 5.81889 -39.7295 2 0 \;;
#X scalar 123-plot 132.432 -19.5079 2 0 \;;
#X scalar 123-plot 65.0263 -21.8967 2 0 \;;
#X scalar 123-plot 72.9892 35.2512 2 0 \;;
#X scalar 123-plot -117.504 -51.8559 2 0 \;;
#X scalar 123-plot 172.853 -11.3589 2 0 \;;
#X scalar 123-plot 37.8629 -36.2333 2 0 \;;
#X scalar 123-plot 120.778 -24.0102 2 0 \;;
#X scalar 123-plot 80.034 -30.5617 2 0 \;;
#X scalar 123-plot 101.872 -26.8951 2 0 \;;
#X scalar 123-plot 89.6504 -26.8861 2 0 \;;
#X scalar 123-plot 89.6202 -14.6137 2 0 \;;
#X scalar 123-plot 48.7124 38.2327 2 0 \;;
#X scalar 123-plot -127.442 -50.3005 2 0 \;;
#X scalar 123-plot 167.668 15.0579 2 0 \;;
#X scalar 123-plot -50.1931 -41.1821 2 0 \;;
#X scalar 123-plot 137.274 24.315 2 0 \;;
#X scalar 123-plot -81.05 -48.5854 2 0 \;;
#X scalar 123-plot 161.951 -13.7464 2 0 \;;
#X scalar 123-plot 45.8213 -31.5474 2 0 \;;
#X scalar 123-plot 105.158 0.968685 2 0 \;;
#X scalar 123-plot -3.22895 44.7447 2 0 \;;
#X scalar 123-plot -149.149 -54.3946 2 0 \;;
#X scalar 123-plot 181.315 -7.68709 2 0 \;;
#X scalar 123-plot 25.6236 -37.4434 2 0 \;;
#X scalar 123-plot 124.811 -21.0172 2 0 \;;
#X scalar 123-plot 70.0573 -20.6196 2 0 \;;
#X scalar 123-plot 68.7321 35.8511 2 0 \;;
#X scalar 123-plot -119.504 -52.0226 2 0 \;;
#X scalar 123-plot 173.409 -11.155 2 0 \;;
#X scalar 123-plot 37.1834 -36.313 2 0 \;;
#X scalar 123-plot 121.043 -23.9308 2 0 \;;
#X scalar 123-plot 79.7693 -30.4326 2 0 \;;
#X scalar 123-plot 101.442 -25.814 2 0 \;;
#X scalar 123-plot 86.0466 -20.5462 2 0 \;;
#X scalar 123-plot 68.4874 20.1753 2 0 \;;
#X scalar 123-plot -67.2509 39.3009 2 0 \;;
#X scalar 123-plot -131.003 57.0739 2 0 \;;
#X scalar 123-plot -190.246 -56.8041 2 0 \;;
#X scalar 123-plot 189.347 5.62513 2 0 \;;
#X scalar 123-plot -18.7504 -42.6283 2 0 \;;
#X scalar 123-plot 142.094 -19.6973 2 0 \;;
#X scalar 123-plot 65.6578 -32.3299 2 0 \;;
#X scalar 123-plot 107.766 -24.0511 2 0 \;;
#X scalar 123-plot 80.1703 -17.7542 2 0 \;;
#X scalar 123-plot 59.1808 37.141 2 0 \;;
#X scalar 123-plot -123.803 -52.2349 2 0 \;;
#X scalar 123-plot 174.116 -9.15054 2 0 \;;
#X scalar 123-plot 30.5018 -32.7996 2 0 \;;
#X scalar 123-plot 109.332 7.93229 2 0 \;;
#X scalar 123-plot -26.441 34.1428 2 0 \;;
#X scalar 123-plot -113.809 55.5503 2 0 \;;
#X scalar 123-plot -185.168 -56.2035 2 0 \;;
#X scalar 123-plot 187.345 7.58454 2 0 \;;
#X scalar 123-plot -25.2818 -43.3107 2 0 \;;
#X scalar 123-plot 144.369 -19.2475 2 0 \;;
#X scalar 123-plot 64.1583 -32.7877 2 0 \;;
#X scalar 123-plot 109.292 -25.6434 2 0 \;;
#X scalar 123-plot 85.478 -27.4863 2 0 \;;
#X scalar 123-plot 91.6208 -13.8255 2 0 \;;
#X scalar 123-plot 46.085 38.5568 2 0 \;;
#X scalar 123-plot -128.523 -50.2537 2 0 \;;
#X scalar 123-plot 167.512 16.6263 2 0 \;;
#X scalar 123-plot -55.421 -46.1794 2 0 \;;
#X scalar 123-plot 153.931 -15.7307 2 0 \;;
#X scalar 123-plot 52.4357 -29.5932 2 0 \;;
#X scalar 123-plot 98.6441 6.74479 2 0 \;;
#X scalar 123-plot -22.4826 46.6382 2 0 \;;
#X scalar 123-plot -155.461 -53.0852 2 0 \;;
#X scalar 123-plot 176.951 13.2196 2 0 \;;
#X scalar 123-plot -44.0653 -45.0737 2 0 \;;
#X scalar 123-plot 150.246 -16.6228 2 0 \;;
#X scalar 123-plot 55.4095 -28.9009 2 0 \;;
#X scalar 123-plot 96.3362 7.97099 2 0 \;;
#X scalar 123-plot -26.57 47.0748 2 0 \;;
#X scalar 123-plot -156.916 -53.2413 2 0 \;;
#X scalar 123-plot 177.471 12.9542 2 0 \;;
#X scalar 123-plot -43.1806 -44.8734 2 0 \;;
#X scalar 123-plot 149.578 -15.6398 2 0 \;;
#X scalar 123-plot 52.1328 -24.9445 2 0 \;;
#X scalar 123-plot 83.1483 33.3399 2 0 \;;
#X scalar 123-plot -111.133 -48.42 2 0 \;;
#X scalar 123-plot 161.4 18 2 0 \;;
#X scalar 123-plot -60 -45 2 0 \;;
#X scalar 123-plot 150 -0 2 0 \;;
#X scalar 123-plot 0 -0 2 0 \;;
#X coords 0 -1 1 1 1 1 2 200 200;
#X restore 200 200 pd \$1-graph;
#X obj 9 11 namecanvas plotter-\$1;
#N canvas 298 272 221 140 s 0;
#N canvas 242 127 497 567 s 0;
#X msg 32 203 \; pd-s vis 0;
#X obj 69 99 fd_arg1 \$1;
#X msg 52 355 donecanvasdialog 1 -1 2 1 1 1 1 1 1 200 200;
#X obj 69 130 sel;
#X obj 205 156 sel;
#N canvas 406 187 450 300 \$0-warn 0;
#X text 90 125 Please provide a float argument!;
#X obj 111 41 cnv 15 200 60 empty empty WARNING 20 12 0 14 -261234
-66577 0;
#X text 145 69 INVALID ARGUMENT;
#X obj 197 232 bng 30 250 50 0 \$0-ok empty OK 35 15 0 23 -262144 -1
-1;
#X text 171 14 "fd_plot";
#X text 33 148 And a symbol with the name of the parent patch;
#X text 85 182 type \, e.g: [fd_plot 1 pd-whatever].;
#X restore 367 249 pd \$0-warn;
#X obj 304 225 pack f \$0;
#X msg 327 47 1;
#X msg 304 277 \; pd-\$2-warn vis \$1;
#X msg 304 191 0;
#X obj 267 22 r \$0-ok;
#X obj 267 72 t b b;
#X msg 323 72 0;
#X obj 267 102 t b b;
#X obj 267 47 spigot;
#X obj 342 191 t f b;
#X obj 226 185 t b b;
#X msg 88 398 donecanvasdialog 1 -1 2 0 0 100 100 100 100 200 200 \,
vis 0 \, setbounds 300 50 520 250 \, vis 1, f 47;
#X obj 32 64 t b b b;
#N canvas 641 119 540 297 s 0;
#X obj 33 40 inlet;
#X obj 33 65 fd_arg1 \$2;
#X obj 65 121 symbol;
#X obj 33 90 sel 0 1;
#X obj 33 208 outlet;
#X text 161 86 make the parent patch GOP;
#X text 414 31 xperpix \; yperpix \; graphme \; x1 \; y1 \; x2 \; y2
\; xpix \; ypix \; xmargin \; ymargin \;;
#X msg 65 236 \; \$1 donecanvasdialog 1 -1 2 0 0 450 350 450 350 0
0;
#X connect 0 0 1 0;
#X connect 1 0 3 0;
#X connect 1 1 3 0;
#X connect 1 2 2 1;
#X connect 2 0 7 0;
#X connect 3 0 4 0;
#X connect 3 1 2 0;
#X restore 151 28 pd s parent;
#X obj 52 482 s plotter-\$1;
#X obj 32 29 loadbang;
#X connect 1 0 3 0;
#X connect 1 1 3 0;
#X connect 1 1 4 0;
#X connect 1 2 7 0;
#X connect 2 0 20 0;
#X connect 3 0 7 0;
#X connect 4 1 16 0;
#X connect 6 0 8 0;
#X connect 7 0 14 1;
#X connect 7 0 15 0;
#X connect 9 0 6 0;
#X connect 10 0 14 0;
#X connect 11 0 13 0;
#X connect 11 1 12 0;
#X connect 12 0 14 1;
#X connect 13 0 0 0;
#X connect 13 1 9 0;
#X connect 14 0 11 0;
#X connect 15 0 6 0;
#X connect 15 1 17 0;
#X connect 16 0 2 0;
#X connect 16 1 9 0;
#X connect 17 0 20 0;
#X connect 18 0 0 0;
#X connect 18 1 1 0;
#X connect 18 2 19 0;
#X connect 19 0 11 0;
#X connect 21 0 18 0;
#X restore 14 12 pd s loadbang __________;
#X text 26 96 see fd_plot-help.pd;
#N canvas 0 22 525 364 s 0;
#X obj 54 183 pointer;
#X obj 28 67 t a b b;
#X msg 54 156 traverse pd-\$1-graph \, bang;
#X obj 54 127 pack \$1;
#X obj 329 166 t a a;
#X obj 166 99 t a b;
#X msg 220 98 0;
#X obj 166 74 spigot 1;
#X text 154 25 append on first set (reset on clear);
#X obj 222 232 set \$1-plot x y z rgb, f 14;
#X obj 28 257 append \$1-plot x y z rgb, f 14;
#X obj 28 9 r fd_plot-\$1;
#X obj 28 34 route append;
#X msg 240 74 1;
#X obj 351 206 s pd-\$1-graph, f 11;
#X obj 329 54 route set clear;
#X obj 386 80 t b b;
#X msg 389 167 clear;
#N canvas 0 22 450 300 s 0;
#X obj 44 24 inlet;
#X obj 44 249 outlet;
#X obj 241 75 !msg fd_plot;
#X obj 82 132 * -1;
#X obj 44 49 list split 2;
#X obj 44 178 pack;
#X obj 44 86 unpack;
#X obj 44 203 list append, f 17;
#X connect 0 0 4 0;
#X connect 3 0 5 1;
#X connect 4 0 6 0;
#X connect 4 1 7 1;
#X connect 4 2 2 0;
#X connect 5 0 7 0;
#X connect 6 0 5 0;
#X connect 6 1 3 0;
#X connect 7 0 1 0;
#X restore 28 226 pd s invert check;
#X obj 352 260 route vis;
#X obj 352 285 pack f \$1;
#X obj 436 262 !msg fd_plot, f 7;
#X msg 352 310 \; plotter-\$2 vis \$1;
#X connect 0 0 10 4;
#X connect 1 0 18 0;
#X connect 1 1 3 0;
#X connect 2 0 0 0;
#X connect 3 0 2 0;
#X connect 4 0 9 0;
#X connect 4 1 7 0;
#X connect 5 0 1 0;
#X connect 5 1 6 0;
#X connect 6 0 7 1;
#X connect 7 0 5 0;
#X connect 10 0 9 4;
#X connect 11 0 12 0;
#X connect 12 0 1 0;
#X connect 12 1 15 0;
#X connect 13 0 7 1;
#X connect 15 0 4 0;
#X connect 15 1 16 0;
#X connect 15 2 19 0;
#X connect 16 0 13 0;
#X connect 16 1 17 0;
#X connect 17 0 14 0;
#X connect 18 0 10 0;
#X connect 19 0 20 0;
#X connect 19 1 21 0;
#X connect 20 0 22 0;
#X restore 14 38 pd s append-set ________;
#N canvas 527 506 481 183 s 0;
#X text 20 9 The dot:;
#X text 25 99 The template:;
#X obj 28 127 struct \$1-plot float x float y float z float rgb, f
27;
#X obj 29 34 filledcurve rgb rgb 1 z(0:1000)(0:-500) 0 0 z(0:1000)(0:-500)
z(0:1000)(0:500) 0 0 z(0:1000)(0:500), f 44;
#X restore 14 62 pd s template __________;
#X restore 9 35 pd s guts <--see here;
#X coords 0 0 1 1 1 1 2 200 200;
