#N canvas 533 143 659 182 12;
#X obj 11 78 1;
#X obj 44 78 2;
#X obj 77 78 3;
#X obj 110 78 4;
#X obj 143 78 5;
#X obj 176 78 6;
#X obj 209 78 7;
#X obj 242 78 8;
#X obj 275 78 9;
#X obj 305 76 0;
#X obj 9 36 sel 49 50 51 52 53 54 55 56 57 48;
#X obj 11 135 outlet;
#X obj 9 12 key;
#X obj 336 78 1;
#X obj 369 78 2;
#X obj 402 78 3;
#X obj 435 78 4;
#X obj 468 78 5;
#X obj 501 78 6;
#X obj 534 78 7;
#X obj 567 78 8;
#X obj 600 78 9;
#X obj 333 36 sel 49 50 51 52 53 54 55 56 57 48;
#X obj 336 135 outlet;
#X obj 333 12 keyup;
#X connect 0 0 11 0;
#X connect 1 0 11 0;
#X connect 2 0 11 0;
#X connect 3 0 11 0;
#X connect 4 0 11 0;
#X connect 5 0 11 0;
#X connect 6 0 11 0;
#X connect 7 0 11 0;
#X connect 8 0 11 0;
#X connect 9 0 11 0;
#X connect 10 0 0 0;
#X connect 10 1 1 0;
#X connect 10 2 2 0;
#X connect 10 3 3 0;
#X connect 10 4 4 0;
#X connect 10 5 5 0;
#X connect 10 6 6 0;
#X connect 10 7 7 0;
#X connect 10 8 8 0;
#X connect 10 9 9 0;
#X connect 12 0 10 0;
#X connect 13 0 23 0;
#X connect 14 0 23 0;
#X connect 15 0 23 0;
#X connect 16 0 23 0;
#X connect 17 0 23 0;
#X connect 18 0 23 0;
#X connect 19 0 23 0;
#X connect 20 0 23 0;
#X connect 21 0 23 0;
#X connect 22 0 13 0;
#X connect 22 1 14 0;
#X connect 22 2 15 0;
#X connect 22 3 16 0;
#X connect 22 4 17 0;
#X connect 22 5 18 0;
#X connect 22 6 19 0;
#X connect 22 7 20 0;
#X connect 22 8 21 0;
#X connect 24 0 22 0;
