#N canvas 495 25 411 429 12;
#X obj 156 50 t b b;
#X obj 23 9 r fd_windows-\$1;
#N canvas 0 22 573 284 TODO 0;
#X text 14 40 tabosc4~ is a traditional computer music style wavetable
lookup oscillator using 4-point polynomial interpolation. The table
should have a power of two points plus three "guard points" \, one
at the beginning and two at the end \, which should be wraparound copies
of the last point and the first two points \, respectively. The "sinesum"
and "cosinesum" methods for arrays do this automatically for you if
you just want to specify partial strengths.;
#X text 244 215 from tabosc4-help.pd;
#X restore 299 11 pd TODO;
#X obj 156 101 fd_sinc~ \$1-sin \$2 ______;
#X obj 156 121 fd_expo~ \$1-exp \$2 ______;
#X obj 156 141 fd_hann~ \$1-han \$2 ______;
#X obj 156 161 fd_rexpo~ \$1-rex \$2 _____;
#X obj 156 181 fd_gauss~ \$1-gau \$2 _____;
#X obj 156 201 fd_trapezoid~ \$1-tra \$2 _;
#X obj 156 221 fd_blackman~ \$1-bla \$2 __;
#X obj 156 241 fd_triangle~ \$1-tri \$2 __;
#X obj 156 261 fd_cauchy~ \$1-cau \$2 ____;
#X obj 156 301 fd_poisson~ \$1-poi \$2 ___;
#X obj 156 281 fd_logistic~ \$1-log \$2 __;
#X obj 156 321 fd_arcsin~ \$1-arc \$2 ____;
#N canvas 314 406 450 300 turn-dspon 0;
#X obj 45 62 fd_dspon;
#X obj 23 131 switch~;
#X obj 35 23 inlet, f 11;
#X obj 126 100 tgl 15 0 empty empty empty 17 7 0 10 -262144 -1 -1 0
1;
#X connect 0 0 1 0;
#X connect 0 1 3 0;
#X connect 2 0 0 0;
#X restore 196 77 pd turn-dspon ______;
#X text 215 52 fd_windows-help.pd;
#X obj 156 341 fd_welch~ \$1-wel \$2 _____;
#X obj 156 3 inlet;
#X text 36 388 call [fd_seltab] from parent patch;
#X obj 156 361 fd_noise~ \$1-noi \$2 _____;
#X obj 23 33 route sin exp han rex gau tra bla tri cau log poi arc
wel noi, f 15;
#X obj 156 27 fd_dsp-bang;
#X obj 165 75 bng 15 250 50 0 empty empty empty 17 7 0 10 -262144 -1
-1;
#X connect 0 0 3 0;
#X connect 0 0 4 0;
#X connect 0 0 5 0;
#X connect 0 0 6 0;
#X connect 0 0 7 0;
#X connect 0 0 8 0;
#X connect 0 0 9 0;
#X connect 0 0 10 0;
#X connect 0 0 11 0;
#X connect 0 0 12 0;
#X connect 0 0 13 0;
#X connect 0 0 14 0;
#X connect 0 0 17 0;
#X connect 0 0 20 0;
#X connect 0 0 23 0;
#X connect 0 1 15 0;
#X connect 1 0 21 0;
#X connect 18 0 22 0;
#X connect 21 0 3 0;
#X connect 21 1 4 0;
#X connect 21 2 5 0;
#X connect 21 3 6 0;
#X connect 21 4 7 0;
#X connect 21 5 8 0;
#X connect 21 6 9 0;
#X connect 21 7 10 0;
#X connect 21 8 11 0;
#X connect 21 9 13 0;
#X connect 21 10 12 0;
#X connect 21 11 14 0;
#X connect 21 12 17 0;
#X connect 21 13 20 0;
#X connect 22 0 0 0;
