#N canvas 172 622 561 455 12;
#X obj 76 25 inlet~;
#X obj 76 390 outlet~;
#X obj 305 27 inlet;
#X msg 351 270 1 \$1;
#X obj 351 294 -;
#X obj 351 341 line~;
#X obj 76 360 *~;
#X obj 351 246 fd_fletcher-munson;
#X obj 305 270 line~;
#X obj 167 115 t f b;
#X obj 167 216 /;
#X obj 199 142 samplerate~;
#X obj 199 166 change;
#X obj 199 190 * 0.001;
#X obj 305 220 pack f 20;
#X obj 351 318 pack f 20;
#X obj 167 25 inlet;
#X obj 76 329 +~;
#X obj 102 71 loadbang;
#X obj 102 95 f \$1;
#X obj 102 119 sel;
#X obj 76 253 fd_sdel~;
#X obj 94 289 fd_sdel~;
#X obj 305 172 t f f;
#X obj 305 197 expr 500/$f1;
#X connect 0 0 21 0;
#X connect 2 0 23 0;
#X connect 3 0 4 0;
#X connect 4 0 15 0;
#X connect 5 0 6 1;
#X connect 6 0 1 0;
#X connect 7 0 3 0;
#X connect 8 0 22 2;
#X connect 9 0 10 0;
#X connect 9 1 11 0;
#X connect 10 0 21 1;
#X connect 11 0 12 0;
#X connect 12 0 13 0;
#X connect 13 0 10 1;
#X connect 14 0 8 0;
#X connect 15 0 5 0;
#X connect 16 0 9 0;
#X connect 17 0 6 0;
#X connect 18 0 19 0;
#X connect 19 0 20 0;
#X connect 20 1 9 0;
#X connect 21 0 17 0;
#X connect 21 0 22 0;
#X connect 22 0 17 1;
#X connect 23 0 24 0;
#X connect 23 1 7 0;
#X connect 24 0 14 0;
