#N canvas 523 50 456 362 12;
#X obj 68 193 cos~;
#X obj 68 221 *~ -1;
#X obj 68 248 +~ 1;
#X obj 68 274 *~ 0.5;
#X obj 34 293 *~;
#X obj 68 164 line~;
#X obj 34 27 inlet~;
#X obj 34 319 outlet~;
#X obj 68 139 pack f 10;
#X msg 106 113 0.5;
#X msg 69 113 0;
#X obj 96 26 inlet;
#X obj 155 26 inlet;
#X obj 200 58 loadbang;
#X obj 200 85 f \$1;
#X obj 286 26 inlet~;
#X obj 286 174 *~ 0.5;
#X obj 200 109 sel;
#X obj 69 85 sel 0 1;
#X connect 0 0 1 0;
#X connect 1 0 2 0;
#X connect 2 0 3 0;
#X connect 3 0 4 1;
#X connect 4 0 7 0;
#X connect 5 0 0 0;
#X connect 6 0 4 0;
#X connect 8 0 5 0;
#X connect 9 0 8 0;
#X connect 10 0 8 0;
#X connect 11 0 18 0;
#X connect 12 0 8 1;
#X connect 13 0 14 0;
#X connect 14 0 17 0;
#X connect 15 0 16 0;
#X connect 16 0 0 0;
#X connect 17 1 8 1;
#X connect 18 0 10 0;
#X connect 18 1 9 0;
