#N canvas 500 50 530 480 12;
#X declare -path fd_lib;
#X obj 4 4 cnv 15 522 30 empty empty "fd_cosline~" 20 15 0 15 -228856
-1 0;
#X obj 4 254 cnv 15 522 20 empty empty arguments: 10 10 0 14 -228856
-1 0;
#X obj 4 298 cnv 15 522 20 empty empty inlets: 10 10 0 14 -228856 -1
0;
#X obj 4 383 cnv 15 522 20 empty empty outlets: 10 10 0 14 -228856
-1 0;
#X obj 4 453 cnv 15 522 20 empty empty version 10 10 0 14 -228856 -1
0;
#X obj 380 8 declare -path fd_lib;
#X text 440 452 fd_lib v0.1;
#X obj 104 80 tgl 15 0 empty empty empty 17 7 0 10 -262144 -1 -1 0
1;
#X floatatom 140 80 5 0 0 0 - - -;
#X obj 195 80 tgl 15 0 empty empty empty 17 7 0 10 -262144 -1 -1 0
1;
#X obj 177 146 *~;
#X obj 68 168 fd_cosline~ 2000;
#X text 51 48 Performs a cosine amplitude ramp \, to smooth amplitude
changes, f 61;
#X text 60 277 1: float : ramp time (default 10);
#X text 62 417 1: signal : input signal with a cosine ramp;
#X obj 68 225 dac~;
#X obj 68 195 *~ 0.1;
#X text 60 320 1: signal: input signal \; 2: float : 1|0 ramp up or
down \; 3: float : ramptime (default 10) \; 4: signal: override inlets
2 and 3;
#X obj 195 100 t f f;
#X obj 244 99 ==;
#X obj 177 125 phasor~ 12;
#X obj 68 140 noise~;
#N canvas 0 22 450 300 meta 0;
#X text 10 10 fd_lib - metadata file - Fri Sep 13 18:18:44 EDT 2019
;
#X text 10 25 patch_name : fd_cosline~;
#X text 10 40 inlet : 4;
#X text 10 55 outlet : 1;
#X text 10 70 inlet~ : 2;
#X text 10 85 outlet~ : 1;
#X text 10 100 arguments : 1;
#X text 10 115 classes used : 11;
#X text 10 130 total objects: 17;
#X text 10 145 connections : 19;
#X text 10 160 dependencies : 0 [0];
#X text 10 175 externals : 0 [0];
#X text 10 190 internals : 11/233 [0*~:sel:inlet~:inlet:pack:outlet~:loadbang:line~:f:cos~:+~]
;
#X restore 438 423 pd meta;
#X connect 7 0 11 1;
#X connect 8 0 11 2;
#X connect 9 0 18 0;
#X connect 10 0 11 3;
#X connect 11 0 16 0;
#X connect 16 0 15 0;
#X connect 16 0 15 1;
#X connect 18 0 10 1;
#X connect 18 1 19 0;
#X connect 19 0 20 1;
#X connect 20 0 10 0;
#X connect 21 0 11 0;
