#N canvas 523 50 320 301 10;
#X obj 48 150 cos~;
#X obj 48 172 *~ -1;
#X obj 48 194 +~ 1;
#X obj 48 216 *~ 0.5;
#X obj 20 233 *~;
#X obj 48 126 line~;
#X obj 20 12 inlet~;
#X obj 20 255 outlet~;
#X obj 48 105 pack f 10, f 12;
#X msg 86 83 0.5;
#X msg 49 83 0;
#X obj 49 60 sel 0;
#X obj 49 35 inlet;
#X obj 117 34 inlet;
#X obj 133 57 loadbang;
#X obj 133 79 f \$1;
#X obj 230 111 inlet~;
#X text 94 153 arg1: ramptime;
#X obj 230 133 *~ 0.5;
#X text 93 167 inlet~ 1: signal;
#X text 94 182 inlet 2: 0-1;
#X text 93 195 inlet 3: ramptime (arg1) def:10;
#X text 93 207 inlet~ 4:signal instead of ramptime;
#X connect 0 0 1 0;
#X connect 1 0 2 0;
#X connect 2 0 3 0;
#X connect 3 0 4 1;
#X connect 4 0 7 0;
#X connect 5 0 0 0;
#X connect 6 0 4 0;
#X connect 8 0 5 0;
#X connect 9 0 8 0;
#X connect 10 0 8 0;
#X connect 11 0 10 0;
#X connect 11 1 9 0;
#X connect 12 0 11 0;
#X connect 13 0 8 1;
#X connect 14 0 15 0;
#X connect 15 0 8 1;
#X connect 16 0 18 0;
#X connect 18 0 0 0;
