#N canvas 0 22 417 410 12;
#X obj 82 334 pack f f f f;
#X obj 41 156 / 1;
#X obj 122 158 / 1;
#X obj 41 187 t f f b;
#X obj 62 227 f;
#X obj 41 252 -;
#X msg 256 314 0;
#X obj 123 304 mtof;
#X obj 187 254 /;
#X obj 187 277 rmstodb;
#X obj 41 302 t f f;
#X obj 41 277 * 1000;
#X obj 96 225 r page-dur;
#X obj 122 252 * -127;
#X obj 122 277 + 127;
#X obj 62 126 r totx;
#X obj 143 127 r toty;
#X obj 208 227 r tota;
#X obj 21 333 s next;
#X obj 255 291 r rewind;
#X obj 292 151 outlet;
#X obj 41 17 inlet;
#X obj 41 51 pointer \$1;
#X obj 41 79 get \$1 x y w color;
#X obj 82 359 s \$1;
#X connect 0 0 24 0;
#X connect 1 0 3 0;
#X connect 2 0 13 0;
#X connect 3 0 5 0;
#X connect 3 1 4 1;
#X connect 3 2 4 0;
#X connect 4 0 5 1;
#X connect 5 0 11 0;
#X connect 6 0 4 1;
#X connect 6 0 0 1;
#X connect 6 0 0 2;
#X connect 6 0 0 3;
#X connect 7 0 0 1;
#X connect 8 0 9 0;
#X connect 9 0 0 2;
#X connect 10 0 18 0;
#X connect 10 1 0 0;
#X connect 11 0 10 0;
#X connect 12 0 11 1;
#X connect 13 0 14 0;
#X connect 14 0 7 0;
#X connect 15 0 1 1;
#X connect 16 0 2 1;
#X connect 17 0 8 1;
#X connect 19 0 6 0;
#X connect 21 0 22 0;
#X connect 22 0 23 0;
#X connect 22 1 20 0;
#X connect 23 0 1 0;
#X connect 23 1 2 0;
#X connect 23 2 8 0;
#X connect 23 3 0 3;
