#N struct color-tester float x float y float color;
#N canvas 20 480 1230 290 12;
#X declare -stdlib Gem;
#N canvas 0 23 301 310 mousestate 0;
#X obj 40 93 cyclone/mousestate;
#X msg 40 58 poll \, mode 2;
#X obj 40 33 loadbang;
#X obj 208 185 s y;
#X obj 75 184 s x;
#X obj 40 226 s clicked;
#N canvas 0 22 1119 518 canvas-dimensions 0;
#X obj 303 29 r this;
#X obj 303 54 route setbounds;
#X obj 159 118 unpack f f f f;
#X obj 100 373 -;
#X obj 203 373 -;
#X obj 329 300 unpack;
#X obj 203 398 moses;
#X obj 138 197 >=;
#X obj 174 197 <=;
#X obj 138 222 &&;
#X obj 100 165 t f f f;
#X obj 100 295 spigot;
#X obj 241 197 >=;
#X obj 277 197 <=;
#X obj 241 222 &&;
#X obj 203 165 t f f f;
#X obj 203 295 spigot;
#X obj 246 253 &&;
#X obj 203 318 - 23;
#X obj 392 408 s focused;
#X obj 303 80 t a a a;
#X obj 418 148 unpack f f f f;
#X obj 440 191 -;
#X obj 474 191 -;
#X obj 440 216 abs;
#X obj 474 216 abs;
#X obj 517 274 *;
#X obj 517 299 * 0.001;
#X obj 407 324 s totx;
#X obj 462 324 s toty;
#X obj 517 324 s tota;
#X obj 82 45 inlet;
#X obj 180 43 inlet;
#X obj 100 398 outlet;
#X obj 240 427 outlet, f 17;
#X obj 619 63 r focused;
#X obj 619 91 change;
#X obj 619 116 sel;
#X text 614 28 Click the main patch when not focused on drawing canvas
;
#X msg 619 143 \; pd-back-help.pd click 0 0 0 0 0 \, editmode 0 \;
;
#X obj 688 212 fd_spigot;
#X msg 688 237 \; this delete;
#X connect 0 0 1 0;
#X connect 1 0 20 0;
#X connect 2 0 7 1;
#X connect 2 1 12 1;
#X connect 2 2 8 1;
#X connect 2 3 13 1;
#X connect 3 0 33 0;
#X connect 4 0 6 0;
#X connect 5 0 3 1;
#X connect 5 1 4 1;
#X connect 6 1 34 0;
#X connect 7 0 9 0;
#X connect 8 0 9 1;
#X connect 9 0 17 0;
#X connect 10 0 11 0;
#X connect 10 1 7 0;
#X connect 10 2 8 0;
#X connect 11 0 3 0;
#X connect 12 0 14 0;
#X connect 13 0 14 1;
#X connect 14 0 17 1;
#X connect 15 0 16 0;
#X connect 15 1 12 0;
#X connect 15 2 13 0;
#X connect 16 0 18 0;
#X connect 17 0 11 1;
#X connect 17 0 16 1;
#X connect 17 0 19 0;
#X connect 18 0 4 0;
#X connect 20 0 2 0;
#X connect 20 1 5 0;
#X connect 20 2 21 0;
#X connect 21 0 22 0;
#X connect 21 1 23 0;
#X connect 21 2 22 1;
#X connect 21 3 23 1;
#X connect 22 0 24 0;
#X connect 23 0 25 0;
#X connect 24 0 26 0;
#X connect 24 0 28 0;
#X connect 25 0 26 1;
#X connect 25 0 29 0;
#X connect 26 0 27 0;
#X connect 27 0 30 0;
#X connect 31 0 10 0;
#X connect 32 0 15 0;
#X connect 35 0 36 0;
#X connect 36 0 37 0;
#X connect 37 0 39 0;
#X connect 37 0 40 0;
#X connect 40 0 41 0;
#X restore 75 137 pd canvas-dimensions;
#X connect 0 0 5 0;
#X connect 0 1 6 0;
#X connect 0 2 6 1;
#X connect 1 0 0 0;
#X connect 2 0 1 0;
#X connect 6 0 4 0;
#X connect 6 1 3 0;
#X restore 12 109 pd mousestate;
#N canvas 0 23 518 321 template 0;
#X obj 22 165 r ptr;
#X obj 22 190 t b p;
#X obj 22 238 append this x y;
#X msg 22 215 0 0;
#X obj 22 263 s template;
#X text 13 17 Careful: only add elements (or Pd might crash);
#X obj 16 44 struct this float x float y dots triangles squares;
#X connect 0 0 1 0;
#X connect 1 0 3 0;
#X connect 1 1 2 2;
#X connect 2 0 4 0;
#X connect 3 0 2 0;
#X restore 12 62 pd template;
#X msg 511 31 \; this cursor pencil;
#X msg 511 71 \; this cursor dot;
#X msg 511 112 \; this cursor arrow \;;
#N canvas 0 72 540 354 init 0;
#N canvas 34 172 822 413 pointer-check 0;
#X msg 291 122 stop;
#X obj 149 290 del;
#X msg 98 153 3000;
#X msg 149 315 \; pd-back-help.pd menuclose;
#X obj 417 330 print back-help;
#X obj 273 6 r ptr;
#X msg 224 78 0;
#X obj 105 80 spigot 1;
#X obj 105 23 inlet;
#X msg 214 39 1;
#X obj 345 10 inlet;
#X msg 160 191 \; pd-back-help.pd map 0;
#X msg 419 188 PLEASE REOPEN AGAIN FROM MENU. Otherwise the pointers
don't work and give a 'consistency check' error. This should be fixed
later..., f 28;
#X obj 105 105 t b b b, f 10;
#X obj 155 156 del 1000;
#X obj 292 41 fd_spigot;
#X msg 354 154 Pointers are working.;
#N canvas 0 23 579 410 welcome 0;
#X obj 72 223 fd_iterate;
#X obj 174 184 fd_iterate;
#X obj 174 259 t b f;
#X obj 72 298 pack;
#X obj 174 209 * 10;
#X msg 70 346 \; this text \$1 \$2 clickme;
#X obj 292 164 t b b;
#X obj 72 248 * 50;
#X msg 72 198 13;
#X msg 174 159 30;
#X obj 174 234 + 50;
#X obj 72 273 + 60;
#X obj 307 61 inlet;
#X msg 282 217 \; this delete;
#X text 44 22 For some reason \, 'text' can't be created using the
[back] object on some Tk versions.;
#X obj 313 93 spigot;
#X obj 382 64 tgl 15 0 empty empty empty 17 7 0 10 -262144 -1 -1 0
1;
#X connect 0 0 7 0;
#X connect 1 0 4 0;
#X connect 2 0 8 0;
#X connect 2 1 3 1;
#X connect 3 0 5 0;
#X connect 4 0 10 0;
#X connect 6 0 9 0;
#X connect 6 1 13 0;
#X connect 7 0 11 0;
#X connect 8 0 0 0;
#X connect 9 0 1 0;
#X connect 10 0 2 0;
#X connect 11 0 3 0;
#X connect 12 0 15 0;
#X connect 15 0 6 0;
#X connect 16 0 15 1;
#X restore 375 126 pd welcome;
#X obj 351 98 fd_spigot;
#X obj 292 66 t b b b b b;
#X msg 483 78 loadbang;
#X obj 483 103 s pd-fd_colorpicker.pd;
#X msg 34 204 \; this send ptr \;;
#X connect 0 0 1 0;
#X connect 0 0 14 0;
#X connect 1 0 3 0;
#X connect 2 0 1 0;
#X connect 5 0 15 0;
#X connect 6 0 7 1;
#X connect 7 0 13 0;
#X connect 8 0 7 0;
#X connect 9 0 7 1;
#X connect 10 0 9 0;
#X connect 10 0 15 1;
#X connect 12 0 4 0;
#X connect 13 0 2 0;
#X connect 13 1 12 0;
#X connect 13 2 14 0;
#X connect 14 0 11 0;
#X connect 15 0 19 0;
#X connect 16 0 4 0;
#X connect 18 0 16 0;
#X connect 18 0 20 0;
#X connect 18 0 17 0;
#X connect 19 0 6 0;
#X connect 19 1 0 0;
#X connect 19 3 18 0;
#X connect 20 0 21 0;
#X restore 19 263 pd pointer-check;
#X obj 56 45 r reinit;
#X msg 120 108 menuclose;
#X obj 56 69 t b b b;
#X obj 120 133 s pd-fd_colorpicker.pd;
#X obj 14 100 t b b;
#X obj 65 155 r revis;
#X msg 47 181 \; this vis 0 \, setbounds 525 50 1250 450 \, vis 1 \,
send ptr \; pd-back-help.pd vis 0 \, setbounds 20 480 1250 770 \, vis
1 \; focused 1 \, 0 \;;
#X obj 14 15 loadbang;
#X connect 1 0 3 0;
#X connect 2 0 4 0;
#X connect 3 0 5 0;
#X connect 3 1 0 1;
#X connect 3 2 2 0;
#X connect 5 0 0 0;
#X connect 5 1 7 0;
#X connect 6 0 7 0;
#X connect 8 0 5 0;
#X restore 12 15 pd init;
#N canvas 31 23 635 426 appender 0;
#X obj 298 220 r x;
#X obj 329 220 r y;
#X obj 105 64 r clicked;
#X obj 105 126 spigot;
#X obj 160 124 r focused;
#X obj 187 289 list;
#X obj 105 248 sel 1;
#X obj 105 211 route dot pencil;
#X obj 298 269 pack f f 2 0;
#X obj 187 374 s;
#X obj 303 307 r type;
#X obj 303 359 makefilename append-%s;
#X obj 303 332 symbol;
#X obj 187 249 metro 50;
#X obj 391 220 r fd_color;
#X obj 360 187 r width;
#N canvas 0 23 450 300 cursor 0;
#X obj 111 193 spigot;
#X obj 217 9 r this;
#X obj 219 43 route cursor;
#X msg 151 148 1;
#X msg 191 153 0;
#X obj 219 68 t a a;
#X obj 136 108 route pencil dot;
#X obj 109 16 inlet;
#X obj 106 275 outlet;
#X obj 105 248 list trim;
#X obj 105 223 list prepend dot;
#X connect 0 0 10 0;
#X connect 1 0 2 0;
#X connect 2 0 5 0;
#X connect 3 0 0 1;
#X connect 4 0 0 1;
#X connect 5 0 10 1;
#X connect 5 1 6 0;
#X connect 6 0 3 0;
#X connect 6 1 3 0;
#X connect 6 2 4 0;
#X connect 7 0 0 0;
#X connect 9 0 8 0;
#X connect 10 0 9 0;
#X restore 104 94 pd cursor;
#X connect 0 0 8 0;
#X connect 1 0 8 1;
#X connect 2 0 16 0;
#X connect 3 0 7 0;
#X connect 4 0 3 1;
#X connect 5 0 9 0;
#X connect 6 0 5 0;
#X connect 7 0 6 0;
#X connect 7 1 13 0;
#X connect 8 0 5 1;
#X connect 10 0 12 0;
#X connect 11 0 9 1;
#X connect 12 0 11 0;
#X connect 13 0 5 0;
#X connect 14 0 8 3;
#X connect 15 0 8 2;
#X connect 16 0 3 0;
#X restore 12 157 pd appender;
#X msg 675 32 \; type dots;
#N canvas 109 103 527 338 player 0;
#X obj 175 208 pointer;
#X msg 175 130 next;
#X obj 228 130 pointer;
#X obj 281 101 r template;
#X msg 248 190 0;
#X msg 284 190 1;
#X obj 175 185 spigot;
#X obj 77 151 del;
#X obj 70 9 r play;
#X obj 70 34 route start rewind;
#X msg 70 67 bang \, bang;
#X obj 77 125 r next;
#X msg 378 89 \; this sort \; rewind bang \;;
#X obj 175 242 _type dots;
#X obj 175 272 _type triangles;
#X obj 175 69 t b b b b b b;
#X obj 175 297 _type squares;
#X msg 355 226 \; play stop;
#X connect 0 0 13 0;
#X connect 0 1 4 0;
#X connect 0 1 17 0;
#X connect 1 0 6 0;
#X connect 2 0 0 1;
#X connect 3 0 2 1;
#X connect 4 0 6 1;
#X connect 5 0 6 1;
#X connect 6 0 0 0;
#X connect 7 0 1 0;
#X connect 8 0 9 0;
#X connect 9 0 10 0;
#X connect 9 1 15 0;
#X connect 10 0 1 0;
#X connect 11 0 7 0;
#X connect 13 0 14 0;
#X connect 14 0 16 0;
#X connect 15 0 1 0;
#X connect 15 1 0 0;
#X connect 15 2 2 0;
#X connect 15 3 5 0;
#X connect 15 4 12 0;
#X restore 155 62 pd player;
#X floatatom 184 179 5 0 0 1 bpm - -, f 5;
#X obj 184 201 s tempo;
#X floatatom 261 179 5 1 1000 0 - - -, f 5;
#X obj 261 201 s beats;
#N canvas 0 22 450 300 tempo 0;
#X obj 41 38 r tempo;
#X msg 41 95 60000 \$1;
#X obj 41 120 /;
#X obj 105 38 r beats;
#X obj 41 145 * 30;
#X obj 41 63 f;
#X obj 105 63 t b f;
#X obj 41 170 s page-dur;
#X connect 0 0 5 0;
#X connect 1 0 2 0;
#X connect 2 0 4 0;
#X connect 3 0 6 0;
#X connect 4 0 7 0;
#X connect 5 0 1 0;
#X connect 6 0 5 0;
#X connect 6 1 4 1;
#X restore 155 38 pd tempo;
#X obj 330 177 r page-dur;
#X floatatom 330 202 5 0 0 1 msec - -, f 5;
#N canvas 0 22 934 411 instrument 0;
#X obj 304 54 unpack f f f f;
#X obj 449 166 osc~;
#X obj 444 239 *~;
#X obj 325 294 *~;
#X obj 304 79 bang;
#X msg 304 126 0 \, 1 \$1;
#X obj 304 151 line~;
#X obj 304 201 +~ 1;
#X obj 499 141 dbtorms;
#X obj 304 104 f 50;
#X obj 499 193 vline~;
#X msg 499 168 0 3 \, \$1 3 3;
#X obj 403 122 line~;
#X msg 384 95 \$1 3;
#X obj 619 55 unpack f f f f;
#X obj 759 240 *~;
#X obj 640 295 *~;
#X obj 619 80 bang;
#X msg 619 127 0 \, 1 \$1;
#X obj 619 152 line~;
#X obj 619 202 +~ 1;
#X obj 619 227 tabread4~ \$0-tri, f 9;
#X obj 814 142 dbtorms;
#X obj 619 105 f 50;
#X obj 814 194 vline~;
#X msg 814 169 0 3 \, \$1 3 3;
#X obj 619 177 *~ 61;
#X obj 718 123 line~;
#X msg 699 96 \$1 3;
#X obj 619 30 r triangles;
#X obj 304 29 r dots;
#X obj 722 161 phasor~;
#X obj 304 176 *~ 61;
#X obj 304 226 tabread4~ \$0-cau, f 9;
#X obj 19 44 unpack f f f f;
#X obj 121 147 osc~;
#X obj 116 220 *~;
#X obj 40 284 *~;
#X obj 19 69 bang;
#X msg 19 116 0 \, 1 \$1;
#X obj 19 141 line~;
#X obj 19 191 +~ 1;
#X obj 171 122 dbtorms;
#X obj 19 94 f 50;
#X obj 171 174 vline~;
#X msg 171 149 0 3 \, \$1 3 3;
#X obj 118 112 line~;
#X msg 99 85 \$1 3;
#X obj 19 166 *~ 61;
#X obj 19 19 r squares;
#X obj 19 216 tabread4~ \$0-tra, f 9;
#X obj 779 14 r play;
#X obj 35 310 *~;
#X obj 35 335 throw~ sig;
#X obj 320 320 *~;
#X obj 320 345 throw~ sig;
#X obj 635 321 *~;
#X obj 635 346 throw~ sig;
#X msg 779 64 1;
#X obj 801 298 fd_switch;
#X obj 866 331 switch~;
#X obj 779 39 route start stop;
#X msg 832 64 0;
#X connect 0 0 4 0;
#X connect 0 1 13 0;
#X connect 0 2 8 0;
#X connect 0 2 9 1;
#X connect 1 0 2 0;
#X connect 2 0 3 1;
#X connect 3 0 54 0;
#X connect 4 0 9 0;
#X connect 5 0 6 0;
#X connect 6 0 32 0;
#X connect 7 0 33 0;
#X connect 8 0 11 0;
#X connect 9 0 5 0;
#X connect 10 0 2 1;
#X connect 11 0 10 0;
#X connect 12 0 1 0;
#X connect 13 0 12 0;
#X connect 14 0 17 0;
#X connect 14 1 28 0;
#X connect 14 2 22 0;
#X connect 14 2 23 1;
#X connect 15 0 16 1;
#X connect 16 0 56 0;
#X connect 17 0 23 0;
#X connect 18 0 19 0;
#X connect 19 0 26 0;
#X connect 20 0 21 0;
#X connect 21 0 16 0;
#X connect 22 0 25 0;
#X connect 23 0 18 0;
#X connect 24 0 15 1;
#X connect 25 0 24 0;
#X connect 26 0 20 0;
#X connect 27 0 31 0;
#X connect 28 0 27 0;
#X connect 29 0 14 0;
#X connect 30 0 0 0;
#X connect 31 0 15 0;
#X connect 32 0 7 0;
#X connect 33 0 3 0;
#X connect 34 0 38 0;
#X connect 34 1 47 0;
#X connect 34 2 42 0;
#X connect 34 2 43 1;
#X connect 35 0 36 0;
#X connect 36 0 37 1;
#X connect 37 0 52 0;
#X connect 38 0 43 0;
#X connect 39 0 40 0;
#X connect 40 0 48 0;
#X connect 41 0 50 0;
#X connect 42 0 45 0;
#X connect 43 0 39 0;
#X connect 44 0 36 1;
#X connect 45 0 44 0;
#X connect 46 0 35 0;
#X connect 47 0 46 0;
#X connect 48 0 41 0;
#X connect 49 0 34 0;
#X connect 50 0 37 0;
#X connect 51 0 61 0;
#X connect 52 0 53 0;
#X connect 54 0 55 0;
#X connect 56 0 57 0;
#X connect 58 0 59 0;
#X connect 59 0 56 1;
#X connect 59 0 54 1;
#X connect 59 0 52 1;
#X connect 59 1 60 0;
#X connect 61 0 58 0;
#X connect 61 1 62 0;
#X connect 62 0 59 0;
#X restore 155 86 pd instrument;
#X msg 184 229 \; play rewind \, start;
#N canvas 0 22 450 300 mixer 0;
#X obj 47 22 catch~ sig;
#X obj 48 149 *~;
#X obj 261 98 r mainvol;
#X msg 261 123 \$1 10;
#X obj 261 148 line~;
#X obj 35 191 rev3~ 100 80 3000 25;
#X obj 38 231 dac~;
#X connect 0 0 1 0;
#X connect 1 0 5 0;
#X connect 1 0 5 1;
#X connect 2 0 3 0;
#X connect 3 0 4 0;
#X connect 4 0 1 1;
#X connect 5 0 6 0;
#X connect 5 1 6 1;
#X restore 155 110 pd mixer;
#X obj 433 174 vsl 30 80 0.01 6 1 0 mainvol empty mainvol 0 -9 0 10
-262144 -1 -1 0 1;
#N canvas 27 101 505 274 type 0;
#N canvas 0 23 469 295 dots 0;
#X obj 14 22 struct dots float x float y float w float color;
#X obj 16 61 drawcurve color w 0 0 0 w(0:100)(0:50) w(0:100)(0:50)
w(0:100)(0:50) w(0:100)(0:50) 0 0 0;
#X obj 288 133 r ptr;
#X obj 107 160 append dots x y w color;
#X obj 107 134 r append-dots;
#X connect 2 0 3 4;
#X connect 4 0 3 0;
#X restore 11 14 pd dots;
#N canvas 0 22 450 300 triangles 0;
#X obj 288 133 r ptr;
#X obj 14 22 struct triangles float x float y float w float color;
#X obj 16 61 drawpolygon color 1 0 0 0 w w w 0 0;
#X obj 107 134 r append-triangles;
#X obj 107 160 append triangles x y w color;
#X connect 0 0 4 4;
#X connect 3 0 4 0;
#X restore 11 42 pd triangles;
#N canvas 17 156 637 294 squares 0;
#X obj 25 17 struct squares float x float y float w float color;
#X obj 288 133 r ptr;
#X obj 107 134 r append-squares;
#X obj 107 160 append squares x y w color;
#X obj 27 52 filledpolygon color color 0 0 0 0 w(0:100)(0:50) w(0:100)(0:50)
w(0:100)(0:50) w(0:100)(0:50) 0;
#X connect 1 0 3 4;
#X connect 2 0 3 0;
#X restore 10 70 pd squares;
#X text 211 135 [pd shapename];
#X text 9 102 Add more of these as you please \, e.g. \, duplicate
and rename;
#X text 67 134 [pd squares] -->;
#X text 18 165 Then add "shapename" to [struct] in [pd template];
#X msg 113 191 \; pd-template vis 1;
#X restore 12 85 pd type;
#X msg 674 75 \; type triangles;
#X msg 512 153 \; this cursor hand2 \;;
#X obj 12 39 back define this;
#X obj 155 14 fd_windows \$0 64;
#N canvas 65 186 580 410 storing 0;
#X obj 30 352 s this;
#X msg 30 43 1;
#X msg 71 43 2;
#X msg 111 43 3;
#X obj 41 166 r mainpath;
#X obj 30 218 makefilename;
#X msg 30 268 write \$1;
#X msg 30 89 write-\$1-test.txt;
#X obj 30 139 symbol;
#X msg 188 43 1;
#X msg 229 43 2;
#X msg 269 43 3;
#X obj 199 165 r mainpath;
#X obj 188 217 makefilename;
#X msg 188 89 write-\$1-test.txt;
#X obj 188 142 symbol;
#X msg 359 44 1;
#X msg 400 44 2;
#X msg 440 44 3;
#X obj 370 166 r mainpath;
#X obj 359 218 makefilename;
#X msg 359 90 write-\$1-test.txt;
#X obj 359 143 symbol;
#X msg 188 268 read \$1 \, send ptr;
#X msg 359 269 mergefile \$1 \, send ptr;
#X text 28 14 WRITE TO FILE;
#X text 184 14 READ FROM FILE;
#X text 355 15 MERGE FILE WITH CANVAS;
#N canvas 0 22 450 300 mainpath-print 0;
#X obj 128 21 r mainpath;
#X obj 168 180 print back-help;
#X obj 128 46 list prepend mainpath:;
#X obj 128 71 list trim;
#X obj 25 117 s mainpath;
#X obj 25 87 mainpath;
#X obj 25 19 loadbang;
#X msg 43 55 bang;
#X connect 0 0 2 0;
#X connect 2 0 3 0;
#X connect 3 0 1 0;
#X connect 5 0 4 0;
#X connect 6 0 5 0;
#X connect 7 0 5 0;
#X restore 365 351 pd mainpath-print;
#X msg 199 190 set \$1/%s;
#X msg 41 191 set \$1/%s;
#X msg 370 191 set \$1/%s;
#X obj 198 118 r back-read;
#X obj 366 117 r back-merge;
#X obj 38 115 r back-write;
#X connect 1 0 7 0;
#X connect 2 0 7 0;
#X connect 3 0 7 0;
#X connect 4 0 30 0;
#X connect 5 0 6 0;
#X connect 6 0 0 0;
#X connect 7 0 8 0;
#X connect 8 0 5 0;
#X connect 9 0 14 0;
#X connect 10 0 14 0;
#X connect 11 0 14 0;
#X connect 12 0 29 0;
#X connect 13 0 23 0;
#X connect 14 0 15 0;
#X connect 15 0 13 0;
#X connect 16 0 21 0;
#X connect 17 0 21 0;
#X connect 18 0 21 0;
#X connect 19 0 31 0;
#X connect 20 0 24 0;
#X connect 21 0 22 0;
#X connect 22 0 20 0;
#X connect 23 0 0 0;
#X connect 24 0 0 0;
#X connect 29 0 13 0;
#X connect 30 0 5 0;
#X connect 31 0 20 0;
#X connect 32 0 15 0;
#X connect 33 0 22 0;
#X connect 34 0 8 0;
#X restore 12 205 pd storing;
#N canvas 0 22 450 300 blank 0;
#X obj 80 142 s this;
#X msg 80 85 read /Users/federicocamarahalac/Documents/fd_lib/back/blank.txt
\, send ptr, f 40;
#X obj 80 24 inlet;
#X obj 166 24 r blank;
#X obj 80 49 bang;
#X connect 1 0 0 0;
#X connect 2 0 4 0;
#X connect 3 0 1 0;
#X connect 4 0 1 0;
#X restore 349 42 pd blank;
#X obj 12 133 fd_colorpicker;
#X msg 941 144 vertical;
#X msg 941 164 horizontal;
#X msg 941 184 both;
#X msg 941 204 none;
#N canvas 323 40 195 260 gem-scanner 0;
#X obj 20 90 t a a;
#X obj 57 114 pix_separator;
#X obj 20 165 pix_separator;
#X obj 20 190 pix_texture;
#X obj 20 215 square 4;
#N canvas 0 22 450 300 gemwin 0;
#X obj 27 123 gemwin;
#X msg 27 45 0 \, destroy \, dimen 400 400 \, title gem-scanner \,
create \, 1, f 17;
#X obj 185 85 route bang;
#X obj 185 60 r scanner;
#X connect 1 0 0 0;
#X connect 2 0 1 0;
#X connect 2 1 0 0;
#X connect 3 0 2 0;
#X restore 20 34 pd gemwin;
#N canvas 76 22 446 644 scan 0;
#X obj 118 460 change;
#X obj 118 493 sel;
#X obj 71 393 inlet;
#X obj 199 234 t b f;
#X obj 54 299 t b f;
#X obj 241 128 f;
#X obj 275 127 + 1;
#X msg 288 103 0;
#X obj 92 164 until;
#X obj 92 189 f;
#X obj 126 188 + 1;
#X msg 139 164 0;
#X obj 93 116 t b b;
#X msg 93 92 bang;
#X obj 53 434 pix_data;
#X obj 9 32 spigot;
#X obj 92 235 t f f f;
#X obj 239 183 t f f f;
#X msg 144 35 0;
#X obj 245 55 t b b b;
#X msg 143 12 1;
#X obj 125 547 route 0;
#X obj 204 492 * 400;
#X obj 154 493 * 400;
#X obj 235 78 del 1 1 samp;
#X msg 92 139 1000;
#X obj 92 213 / 1000;
#X obj 239 155 / 1000;
#X obj 11 186 sel 0.999;
#X obj 159 127 sel 0.999;
#X obj 120 333 * -1;
#X obj 120 358 + 1;
#X obj 125 521 pack 0 f f 2 0, f 17;
#X obj 314 6 r scan;
#X obj 143 67 gemwin;
#X obj 252 491 r width;
#X obj 323 476 symbol;
#X obj 216 601 s;
#X obj 321 504 makefilename append-%s, f 11;
#X obj 244 31 del 100;
#X obj 357 64 s blank;
#X obj 314 31 t b a b;
#X connect 0 0 1 0;
#X connect 1 0 32 0;
#X connect 2 0 14 1;
#X connect 3 0 13 0;
#X connect 3 1 14 2;
#X connect 4 0 14 0;
#X connect 4 1 30 0;
#X connect 5 0 6 0;
#X connect 5 0 27 0;
#X connect 6 0 5 1;
#X connect 7 0 5 1;
#X connect 8 0 9 0;
#X connect 9 0 10 0;
#X connect 9 0 26 0;
#X connect 10 0 9 1;
#X connect 11 0 9 1;
#X connect 12 0 25 0;
#X connect 12 1 11 0;
#X connect 13 0 12 0;
#X connect 14 2 0 0;
#X connect 15 0 24 0;
#X connect 16 0 28 0;
#X connect 16 1 4 0;
#X connect 16 2 22 0;
#X connect 17 0 29 0;
#X connect 17 1 3 0;
#X connect 17 2 23 0;
#X connect 18 0 15 1;
#X connect 18 0 34 0;
#X connect 19 0 24 0;
#X connect 19 1 7 0;
#X connect 19 2 20 0;
#X connect 20 0 15 1;
#X connect 20 0 34 0;
#X connect 21 0 37 0;
#X connect 22 0 32 2;
#X connect 23 0 32 1;
#X connect 24 0 5 0;
#X connect 25 0 8 0;
#X connect 26 0 16 0;
#X connect 27 0 17 0;
#X connect 28 0 15 0;
#X connect 29 0 18 0;
#X connect 30 0 31 0;
#X connect 31 0 14 3;
#X connect 32 0 21 0;
#X connect 33 0 41 0;
#X connect 35 0 32 3;
#X connect 36 0 38 0;
#X connect 38 0 37 1;
#X connect 39 0 19 0;
#X connect 41 0 39 0;
#X connect 41 1 36 0;
#X connect 41 2 40 0;
#X restore 57 139 pd scan;
#N canvas 238 75 359 350 image 0;
#X obj 19 16 gemhead;
#X obj 19 105 pix_image brown-1.jpg, f 11;
#X obj 19 282 pix_grey;
#X obj 19 241 pix_crop 400 600 2400 2400, f 16;
#X obj 19 152 pix_flip;
#X obj 176 107 r flip;
#X obj 176 132 t a b;
#X msg 213 166 1;
#X obj 213 191 gemwin;
#X obj 48 46 r image-open;
#X msg 48 71 open \$1;
#X obj 40 178 r image-crop;
#X obj 40 203 unpack f f f f;
#X obj 19 310 outlet;
#X obj 162 233 pix_info ____;
#X obj 176 269 pack;
#X obj 176 294 spigot;
#X obj 176 319 print image-info;
#X obj 234 268 unpack;
#X connect 0 0 1 0;
#X connect 1 0 4 0;
#X connect 1 0 14 0;
#X connect 2 0 13 0;
#X connect 3 0 2 0;
#X connect 4 0 3 0;
#X connect 5 0 6 0;
#X connect 6 0 4 1;
#X connect 6 1 7 0;
#X connect 7 0 8 0;
#X connect 9 0 10 0;
#X connect 10 0 1 0;
#X connect 11 0 12 0;
#X connect 12 0 3 3;
#X connect 12 1 3 4;
#X connect 12 2 3 1;
#X connect 12 3 3 2;
#X connect 14 1 15 0;
#X connect 14 2 15 1;
#X connect 14 6 18 0;
#X connect 15 0 16 0;
#X connect 16 0 17 0;
#X connect 18 0 16 1;
#X restore 20 61 pd image;
#X obj 19 10 declare -stdlib Gem;
#X connect 0 0 2 0;
#X connect 0 1 1 0;
#X connect 1 0 6 0;
#X connect 2 0 3 0;
#X connect 3 0 4 0;
#X connect 7 0 0 0;
#X restore 12 181 pd gem-scanner;
#X obj 941 232 symbol;
#X obj 941 257 s flip;
#X msg 827 69 destroy;
#X msg 839 93 create;
#X msg 1000 241 \; pd-gem-scanner vis \$1;
#X obj 1000 212 tgl 15 0 empty empty empty 17 7 0 10 -262144 -1 -1
0 1;
#N canvas 0 23 518 299 accessibility 0;
#X obj 19 51 bang;
#X msg 19 100 \; this cursor pencil;
#X obj 19 76 del 1;
#X obj 19 26 r fd_color;
#N canvas 0 22 450 300 not-working-properly 0;
#X msg 24 24 \; this clear;
#X msg 116 24 \; this delete;
#X msg 24 64 \; reinit bang;
#X msg 249 23 \; revis bang;
#X restore 18 257 pd not-working-properly;
#X obj 239 23 fd_keycomb;
#X msg 239 73 \; revis bang;
#X msg 282 120 \; blank bang;
#X obj 239 48 sel 5 9;
#N canvas 0 22 450 300 keycombinations 0;
#X obj 42 10 loadbang;
#X msg 42 35 ALT+Cmd refreshes the canvas \, Ctrl+Cmd clears the canvas
\,;
#X obj 42 60 print back-help;
#X connect 0 0 1 0;
#X connect 1 0 2 0;
#X restore 246 198 pd keycombinations;
#X obj 308 46 print key-combination;
#X connect 0 0 2 0;
#X connect 2 0 1 0;
#X connect 3 0 0 0;
#X connect 5 0 8 0;
#X connect 8 0 6 0;
#X connect 8 1 7 0;
#X connect 8 2 10 0;
#X restore 12 229 pd accessibility;
#X msg 674 115 \; type squares;
#X floatatom 675 167 5 2 99 0 - - -, f 5;
#X obj 675 189 s width;
#X msg 1080 166 1;
#X msg 1028 197 \; back-read brown-\$1.txt;
#X msg 1116 166 2;
#X msg 936 84 \; image-open symbol brown-2.jpg \; image-crop 30 200
600 600 \;;
#X msg 935 27 \; image-open symbol brown-1.jpg \; image-crop 400 600
2400 2400 \;;
#X msg 1153 165 3;
#X msg 817 34 bang;
#X obj 515 202 tgl 15 0 empty empty empty 17 7 0 10 -262144 -1 -1 1
1;
#X msg 515 222 \; pd-color-picker vis \$1 \; pd-fd_colorpicker.pd vis
\$1 \;;
#X msg 816 237 \; scan squares;
#X msg 347 93 \; revis bang;
#X text 181 150 SET TEMPO AND PLAY SCORE;
#X msg 816 157 \; scan dots;
#X msg 816 197 \; scan triangles;
#X text 833 5 GRAPHIC SCORE SCANNER (USING GEM);
#X text 859 34 <--;
#X obj 817 128 s scanner;
#X text 516 5 DRAW: CURSOR TYPE \, SHAPE AND COLOR;
#X text 795 24 ||||||||||||||||, f 1;
#X text 485 20 ||||||||||||||||, f 1;
#X text 152 147 |||||||, f 1;
#X text 154 128 ---------------------------------------;
#X text 306 10 |||||||, f 1;
#X text 347 70 rearrange:;
#X msg 349 16 clear score;
#X connect 9 0 10 0;
#X connect 11 0 12 0;
#X connect 14 0 15 0;
#X connect 28 0 33 0;
#X connect 29 0 33 0;
#X connect 30 0 33 0;
#X connect 31 0 33 0;
#X connect 33 0 34 0;
#X connect 35 0 59 0;
#X connect 36 0 59 0;
#X connect 38 0 37 0;
#X connect 41 0 42 0;
#X connect 43 0 44 0;
#X connect 45 0 44 0;
#X connect 48 0 44 0;
#X connect 49 0 59 0;
#X connect 50 0 51 0;
#X connect 67 0 26 0;
