#N canvas 337 22 571 406 12;
#X obj 168 201 int;
#X obj 168 233 sel 0;
#X msg 227 204 1;
#X msg 227 227 0;
#X obj 241 338 outlet;
#X obj 222 92 inlet;
#X obj 168 258 del 300;
#X obj 382 140 loadbang;
#X obj 382 165 f \$1;
#X obj 382 190 sel;
#X text 336 264 see I07.phase.vocoder.pd;
#X obj 240 287 f;
#X obj 222 170 t b f;
#X text 55 31 Reduce frequency of updates of an incoming float;
#X connect 0 0 1 0;
#X connect 1 0 2 0;
#X connect 1 0 6 0;
#X connect 2 0 0 1;
#X connect 3 0 0 1;
#X connect 5 0 12 0;
#X connect 6 0 3 0;
#X connect 6 0 11 0;
#X connect 7 0 8 0;
#X connect 8 0 9 0;
#X connect 9 1 6 1;
#X connect 11 0 4 0;
#X connect 12 0 0 0;
#X connect 12 1 11 1;
