#N canvas 566 105 714 408 12;
#X obj 47 79 samplerate~;
#X msg 88 101 0;
#X obj 47 123 phasor~;
#X obj 124 22 inlet;
#X msg 371 124 resize \$1;
#X msg 207 185 set \$1;
#X obj 375 249 array define \$1 \$2;
#X obj 47 101 / \$2;
#X obj 47 301 tabsend~ \$1;
#X obj 220 263 switch~ \$2;
#X obj 47 145 -~ 0.5;
#X obj 47 167 abs~;
#X obj 47 189 *~ -2;
#X obj 47 211 +~ 1;
#X obj 47 255 clip~ 0 0.99;
#X text 254 12 see fd_windows.pd;
#X obj 263 117 del 1 1 samp;
#X obj 47 233 *~ 1.66;
#X obj 264 145 f 1;
#X obj 133 204 * \$2;
#X obj 133 181 / 10;
#X obj 124 44 route bang float q w;
#X obj 364 296 fd_smooth_brute \$1;
#X obj 295 170 t b b;
#X obj 81 18 bng 15 250 50 0 empty empty empty 17 7 0 10 -262144 -1
-1;
#X floatatom 430 26 5 0 0 0 - - -;
#X msg 430 49 q \$1 \, bang;
#X floatatom 518 22 5 0 0 0 - - -;
#X msg 518 45 w \$1 \, bang;
#X floatatom 159 274 5 0 0 0 - - -;
#X obj 159 297 t b f;
#X obj 47 278 lop~ 2048;
#X msg 327 195 normalize 1;
#X connect 0 0 7 0;
#X connect 1 0 2 1;
#X connect 2 0 10 0;
#X connect 3 0 21 0;
#X connect 4 0 6 0;
#X connect 5 0 9 0;
#X connect 7 0 2 0;
#X connect 10 0 11 0;
#X connect 11 0 12 0;
#X connect 12 0 13 0;
#X connect 13 0 17 0;
#X connect 14 0 31 0;
#X connect 16 0 18 0;
#X connect 17 0 14 0;
#X connect 18 0 23 0;
#X connect 19 0 17 1;
#X connect 20 0 19 0;
#X connect 21 0 0 0;
#X connect 21 0 9 0;
#X connect 21 0 1 0;
#X connect 21 0 16 0;
#X connect 21 1 4 0;
#X connect 21 1 5 0;
#X connect 21 1 7 1;
#X connect 21 1 16 1;
#X connect 21 1 19 1;
#X connect 21 2 13 1;
#X connect 21 2 18 1;
#X connect 21 3 20 0;
#X connect 21 4 6 0;
#X connect 23 0 22 0;
#X connect 23 1 32 0;
#X connect 24 0 21 0;
#X connect 25 0 26 0;
#X connect 26 0 21 0;
#X connect 27 0 28 0;
#X connect 28 0 21 0;
#X connect 29 0 30 0;
#X connect 30 0 24 0;
#X connect 30 1 31 1;
#X connect 31 0 8 0;
#X connect 32 0 6 0;
