#N canvas 475 81 591 501 12;
#X msg 368 73 0;
#X obj 209 253 f;
#X obj 227 226 r \$0-f;
#X obj 115 115 r \$0-min;
#X obj 209 114 r \$0-max;
#X obj 97 83 r \$0-f;
#X obj 191 83 r \$0-f;
#X obj 353 150 s \$0-min;
#X obj 368 100 s \$0-max;
#X obj 97 167 sel;
#X obj 191 167 sel;
#X obj 209 198 bang;
#X obj 209 310 r \$0-max;
#X obj 191 338 f;
#X obj 115 253 f;
#X obj 133 226 r \$0-f;
#X obj 115 198 bang;
#X obj 97 338 f;
#X obj 115 310 r \$0-min;
#X obj 353 40 bang;
#X obj 353 8 loadbang;
#X msg 301 41 bang;
#X obj 49 383 t f f;
#X obj 82 409 s \$0-f;
#X obj 49 445 outlet;
#X obj 301 192 inlet;
#X obj 301 218 route reset;
#X obj 49 30 inlet;
#X msg 353 124 1e+06;
#X obj 97 365 s \$0-min;
#X obj 163 444 outlet;
#X obj 257 444 outlet;
#X obj 97 140 <;
#X obj 191 140 >;
#X obj 191 365 s \$0-max;
#X obj 209 283 t f f;
#X obj 115 280 t f f;
#X connect 0 0 8 0;
#X connect 1 0 35 0;
#X connect 2 0 1 1;
#X connect 3 0 32 1;
#X connect 4 0 33 1;
#X connect 5 0 32 0;
#X connect 6 0 33 0;
#X connect 9 0 17 0;
#X connect 9 1 16 0;
#X connect 10 0 13 0;
#X connect 10 1 11 0;
#X connect 11 0 1 0;
#X connect 12 0 13 1;
#X connect 13 0 34 0;
#X connect 14 0 36 0;
#X connect 15 0 14 1;
#X connect 16 0 14 0;
#X connect 17 0 29 0;
#X connect 18 0 17 1;
#X connect 19 0 28 0;
#X connect 19 0 0 0;
#X connect 20 0 19 0;
#X connect 21 0 19 0;
#X connect 22 0 24 0;
#X connect 22 1 23 0;
#X connect 25 0 26 0;
#X connect 26 0 21 0;
#X connect 27 0 22 0;
#X connect 28 0 7 0;
#X connect 32 0 9 0;
#X connect 33 0 10 0;
#X connect 35 0 34 0;
#X connect 35 1 31 0;
#X connect 36 0 29 0;
#X connect 36 1 30 0;
