#N canvas 300 29 453 300 12;
#X obj 17 64 minimax;
#X obj 17 137 /;
#X obj 40 86 abs;
#X obj 17 16 inlet;
#X obj 112 239 outlet;
#X obj 17 240 outlet;
#X obj 17 165 t f f;
#X obj 40 109 +;
#X text 107 264 -1...1;
#X text 16 262 0...1;
#X text 202 22 normalize a range;
#X text 214 209 see minimax-help.pd;
#X obj 112 210 - 1;
#X obj 112 184 * 2;
#X connect 0 0 1 0;
#X connect 0 1 2 0;
#X connect 0 2 7 1;
#X connect 1 0 6 0;
#X connect 2 0 7 0;
#X connect 3 0 0 0;
#X connect 6 0 5 0;
#X connect 6 1 13 0;
#X connect 7 0 1 1;
#X connect 12 0 4 0;
#X connect 13 0 12 0;
