#N canvas 545 108 450 300 10;
#X declare -lib Gem;
#X obj 207 25 declare -lib Gem;
#X msg 210 52 create \, 1;
#X obj 210 73 gemwin;
#X obj 24 26 gemhead;
#X obj 24 47 pix_video;
#X obj 24 68 pix_grey;
#X obj 56 130 pix_opencv/pix_opencv_dft;
#X obj 24 191 pix_texture;
#X obj 24 212 square 4;
#X obj 155 184 fd_pix_shift;
#X obj 98 228 pix_texture;
#X obj 98 249 square 2;
#X obj 178 228 pix_texture;
#X obj 178 249 square 2;
#X obj 258 228 pix_texture;
#X obj 258 249 square 2;
#X obj 348 228 pix_texture;
#X obj 348 249 square 2;
#X msg 98 92 bang;
#X connect 1 0 2 0;
#X connect 3 0 4 0;
#X connect 4 0 5 0;
#X connect 5 0 6 0;
#X connect 6 0 9 0;
#X connect 7 0 8 0;
#X connect 9 0 10 0;
#X connect 9 1 12 0;
#X connect 9 2 14 0;
#X connect 9 3 16 0;
#X connect 10 0 11 0;
#X connect 12 0 13 0;
#X connect 14 0 15 0;
#X connect 16 0 17 0;
#X connect 18 0 6 0;
