#N canvas 540 83 462 574 12;
#X obj 117 215 realtime;
#X obj 32 173 t a b;
#X obj 32 309 list append;
#X obj 117 271 fd_msecparse;
#X obj 117 240 t f f;
#X obj 225 260 t f f b;
#X obj 257 290 f;
#X obj 225 314 -;
#X obj 225 339 moses 1;
#X msg 225 362 0;
#X obj 96 355 list append;
#X obj 32 143 spigot;
#X obj 77 112 t f f;
#X obj 240 145 t b b;
#X msg 292 153 started;
#X msg 120 153 stopped;
#X obj 28 8 r fd_printer-\$1;
#X obj 32 541 print fd_printer-\$1;
#X obj 96 437 text set \$0-fd_printer, f 13;
#X msg 114 411 1e+07;
#X obj 190 145 t b b;
#N canvas 451 33 399 675 text 0;
#X msg 87 402 set \$1;
#X obj 50 429 makefilename;
#X obj 87 183 f;
#X obj 120 183 + 1;
#X msg 134 157 set \$1;
#X obj 107 135 loadbang;
#X msg 87 235 set \$1;
#X obj 50 267 makefilename;
#X obj 87 380 makefilename %s/%%s;
#X obj 87 213 makefilename %%s-%d.txt;
#X msg 104 514 write \$1;
#X obj 50 453 t b a;
#X msg 50 512 clear;
#X obj 50 590 text define \$0-fd_printer;
#X f 13;
#X obj 50 144 t a b;
#X obj 50 107 symbol fd_printer-\$1-log;
#X obj 50 292 t a b;
#X obj 50 59 route write filename full-path;
#X obj 50 10 inlet;
#X obj 287 511 t a;
#X msg 102 159 3;
#X obj 87 324 symbol /Users/federicocamarahalac/Documents/fd_work/bcbfm/a.le.a/log
, f 32;
#X connect 0 0 1 0;
#X connect 1 0 11 0;
#X connect 2 0 3 0;
#X connect 2 0 9 0;
#X connect 3 0 2 1;
#X connect 3 0 4 0;
#X connect 4 0 20 0;
#X connect 5 0 20 0;
#X connect 6 0 7 0;
#X connect 7 0 16 0;
#X connect 8 0 0 0;
#X connect 9 0 6 0;
#X connect 10 0 13 0;
#X connect 11 0 12 0;
#X connect 11 1 10 0;
#X connect 12 0 13 0;
#X connect 14 0 7 0;
#X connect 14 1 2 0;
#X connect 15 0 14 0;
#X connect 16 0 1 0;
#X connect 16 1 21 0;
#X connect 17 0 15 0;
#X connect 17 1 15 0;
#X connect 17 2 21 0;
#X connect 17 3 19 0;
#X connect 18 0 17 0;
#X connect 19 0 13 0;
#X connect 20 0 2 1;
#X connect 21 0 8 0;
#X restore 382 538 pd text;
#X msg 312 286 write;
#X obj 312 224 del 1;
#X text 241 540 check paths -->;
#X obj 225 386 list prepend waits, f 12;
#X obj 32 270 t a a;
#X obj 96 382 t a b;
#X obj 28 33 route printing;
#X obj 77 77 route float;
#X obj 382 97 t a;
#X obj 190 118 sel;
#X obj 382 440 route posting, f 7;
#X obj 32 476 spigot;
#X connect 0 0 4 0;
#X connect 1 0 26 0;
#X connect 1 1 0 1;
#X connect 2 0 33 0;
#X connect 3 0 2 1;
#X connect 4 0 3 0;
#X connect 4 1 5 0;
#X connect 5 0 7 0;
#X connect 5 1 6 1;
#X connect 5 2 6 0;
#X connect 6 0 7 1;
#X connect 7 0 8 0;
#X connect 8 0 9 0;
#X connect 8 1 25 0;
#X connect 9 0 25 0;
#X connect 10 0 27 0;
#X connect 11 0 1 0;
#X connect 12 0 11 1;
#X connect 12 1 31 0;
#X connect 13 0 14 0;
#X connect 13 1 0 0;
#X connect 14 0 1 0;
#X connect 15 0 1 0;
#X connect 16 0 28 0;
#X connect 19 0 18 1;
#X connect 20 0 23 0;
#X connect 20 1 15 0;
#X connect 22 0 21 0;
#X connect 23 0 22 0;
#X connect 25 0 10 1;
#X connect 26 0 2 0;
#X connect 26 1 10 0;
#X connect 27 0 18 0;
#X connect 27 1 19 0;
#X connect 28 0 29 0;
#X connect 28 1 11 0;
#X connect 29 0 12 0;
#X connect 29 1 30 0;
#X connect 30 0 32 0;
#X connect 31 0 20 0;
#X connect 31 1 13 0;
#X connect 32 0 33 1;
#X connect 32 1 21 0;
#X connect 33 0 17 0;
