#N canvas 680 86 374 350 10;
#X msg 44 18 bang;
#X msg 135 89 10;
#X msg 198 92 28;
#X msg 275 85 2.6667;
#X msg 90 93 0.01;
#X obj 48 157 expr $f1 + $f2 * $f3 * ($f4 - $f1) \; $f4 + $f2 * ($f1
* ($f5 - $f6) - $f4) \; $f6 + $f2 * ($f1 * $f4 - $f7 * $f6) \;;
#X obj 36 243 t f f;
#X obj 144 236 t f f;
#X obj 253 236 t f f;
#X obj 36 124 f;
#X obj 153 126 f;
#X obj 79 125 f;
#X obj 111 123 f;
#X obj 185 125 f;
#X obj 226 128 f;
#X obj 255 124 f;
#X msg 289 27 bang;
#X obj 44 46 t b b b b b b b;
#X msg 166 92 0;
#X msg 178 27 bang;
#X msg 235 91 0;
#X msg 48 99 0.1;
#X obj 76 298 pack 0 0 0;
#X obj 247 3 loadbang;
#X obj 84 22 metro 10;
#X obj 85 5 tgl 15 0 empty empty empty 17 7 0 10 -262144 -1 -1 0 1
;
#X obj 76 320 outlet;
#X connect 0 0 17 0;
#X connect 1 0 12 1;
#X connect 2 0 13 1;
#X connect 3 0 15 1;
#X connect 4 0 11 1;
#X connect 5 0 6 0;
#X connect 5 1 7 0;
#X connect 5 2 8 0;
#X connect 6 0 22 0;
#X connect 6 1 9 1;
#X connect 7 0 22 1;
#X connect 7 1 10 1;
#X connect 8 0 22 2;
#X connect 8 1 14 1;
#X connect 9 0 5 0;
#X connect 10 0 5 3;
#X connect 11 0 5 1;
#X connect 12 0 5 2;
#X connect 13 0 5 4;
#X connect 14 0 5 5;
#X connect 15 0 5 6;
#X connect 16 0 4 0;
#X connect 16 0 1 0;
#X connect 16 0 2 0;
#X connect 16 0 3 0;
#X connect 17 0 9 0;
#X connect 17 1 11 0;
#X connect 17 2 12 0;
#X connect 17 3 10 0;
#X connect 17 4 13 0;
#X connect 17 5 14 0;
#X connect 17 6 15 0;
#X connect 18 0 10 1;
#X connect 19 0 20 0;
#X connect 19 0 18 0;
#X connect 19 0 21 0;
#X connect 20 0 14 1;
#X connect 21 0 9 1;
#X connect 22 0 26 0;
#X connect 23 0 16 0;
#X connect 23 0 19 0;
#X connect 24 0 17 0;
#X connect 25 0 24 0;
