#N canvas 541 85 618 421 12;
#X obj 49 101 lorenz, f 16;
#X floatatom 41 142 5 0 0 0 - - -, f 5;
#X floatatom 91 139 5 0 0 0 - - -, f 5;
#X floatatom 137 141 5 0 0 0 - - -, f 5;
#X floatatom 188 138 5 0 0 0 - - -, f 5;
#X obj 49 71 bng 15 250 50 0 empty empty empty 17 7 0 10 -262144 -1
-1;
#X connect 0 0 1 0;
#X connect 0 1 2 0;
#X connect 0 2 3 0;
#X connect 0 3 4 0;
#X connect 5 0 0 0;
