#N canvas 237 27 886 722 10;
#X obj 422 477 -;
#X obj 437 429 t f f;
#X obj 418 335 f;
#X obj 416 269 spigot;
#X obj 411 369 t f b b;
#X obj 553 432 f;
#X obj 584 433 + 1;
#X msg 542 260 0;
#X obj 506 303 tgl 15 0 empty empty empty 17 7 0 10 -262144 -1 -1 0
1;
#X obj 505 592 pack f f f;
#X obj 422 499 t f f f;
#X obj 650 443 spigot;
#X obj 628 335 == 0;
#X obj 381 425 f;
#X obj 731 301 tgl 15 0 empty empty empty 17 7 0 10 -262144 -1 -1 0
1;
#X obj 646 496 sel 2 3 4;
#X msg 646 518 2;
#X msg 675 520 3;
#X msg 708 522 4;
#X obj 621 262 > 5;
#X msg 48 104 print 1;
#X obj 48 126 lorenz;
#X obj 66 147 list prepend parse;
#X obj 66 169 list trim;
#X obj 66 191 siginfo;
#X obj 91 222 unpack f f f f f f f;
#X obj 91 244 change;
#X obj 91 266 tgl 15 0 empty empty empty 17 7 0 10 -262144 -1 -1 0
1;
#X obj 91 288 f;
#X obj 141 244 change;
#X obj 141 266 tgl 15 0 empty empty empty 17 7 0 10 -262144 -1 -1 0
1;
#X obj 141 288 t b f;
#X obj 191 244 change;
#X obj 191 266 tgl 15 0 empty empty empty 17 7 0 10 -262144 -1 -1 0
1;
#X obj 191 288 t b f;
#X obj 91 334 pack f f f;
#X obj 91 356 m-comb 8;
#X msg 560 25 52;
#X msg 525 190 1;
#X obj 529 143 t f b b;
#X text 589 25 initialize with target quarter note sum;
#X obj 450 407 f;
#X obj 91 378 list split 1;
#X obj 396 229 t b f;
#X obj 34 15 tgl 15 0 empty empty empty 17 7 0 10 -262144 -1 -1 0 1
;
#X obj 48 76 metro 100;
#X obj 396 207 + 2;
#X obj 463 547 moses 1;
#X obj 281 457 t f f;
#X obj 677 576 t b b f;
#X msg 837 403 0;
#X msg 34 607 0;
#X obj 90 515 t b b;
#X obj 91 415 spigot;
#X obj 48 52 t f f, f 6;
#X obj 496 16 inlet;
#X obj 506 95 int;
#X msg 462 97 1;
#X obj 496 38 sel 0;
#X msg 446 42 0;
#N canvas 0 22 450 300 initial-conditions 0;
#X msg 197 87 100;
#X obj 197 109 until;
#X obj 208 38 loadbang;
#X obj 232 84 random 5000;
#X obj 232 106 - 2500;
#X obj 232 128 / 1000;
#X obj 232 150 + 10;
#X msg 232 172 inita \$1;
#X obj 208 60 t b b b, f 15;
#X obj 308 128 / 1000;
#X obj 308 150 + 28;
#X obj 308 84 random 10000;
#X obj 308 106 - 5000;
#X msg 308 172 initb \$1;
#X msg 277 32 bang;
#X obj 238 225 outlet;
#X msg 194 196 print 1;
#X connect 0 0 1 0;
#X connect 1 0 16 0;
#X connect 2 0 8 0;
#X connect 3 0 4 0;
#X connect 4 0 5 0;
#X connect 5 0 6 0;
#X connect 6 0 7 0;
#X connect 7 0 15 0;
#X connect 8 0 0 0;
#X connect 8 1 3 0;
#X connect 8 2 11 0;
#X connect 9 0 10 0;
#X connect 10 0 13 0;
#X connect 11 0 12 0;
#X connect 12 0 9 0;
#X connect 13 0 15 0;
#X connect 14 0 8 0;
#X connect 16 0 15 0;
#X restore 119 115 pd initial-conditions;
#X obj 505 636 outlet;
#X obj 646 468 moses 1;
#X obj 700 469 moses 5;
#X obj 823 691 t b;
#X obj 306 634 print sequence-ended;
#X obj 335 593 pack f f f f;
#X obj 496 64 t b f f;
#X obj 627 110 wrap;
#X obj 788 184 outlet;
#X text 708 128 output the comma;
#X connect 0 0 10 0;
#X connect 1 0 0 1;
#X connect 1 1 9 1;
#X connect 1 1 66 2;
#X connect 2 0 4 0;
#X connect 3 0 2 1;
#X connect 4 0 13 0;
#X connect 4 1 41 0;
#X connect 4 2 5 0;
#X connect 5 0 6 0;
#X connect 5 0 9 2;
#X connect 5 0 66 3;
#X connect 6 0 5 1;
#X connect 7 0 5 1;
#X connect 7 0 8 0;
#X connect 7 0 14 0;
#X connect 8 0 3 1;
#X connect 9 0 61 0;
#X connect 10 0 48 0;
#X connect 10 1 19 0;
#X connect 10 2 47 0;
#X connect 11 0 62 0;
#X connect 12 0 14 0;
#X connect 13 0 0 0;
#X connect 14 0 11 1;
#X connect 15 0 16 0;
#X connect 15 1 17 0;
#X connect 15 2 18 0;
#X connect 16 0 49 0;
#X connect 17 0 49 0;
#X connect 18 0 49 0;
#X connect 19 0 8 0;
#X connect 19 0 12 0;
#X connect 20 0 21 0;
#X connect 21 1 22 0;
#X connect 22 0 23 0;
#X connect 23 0 24 0;
#X connect 24 1 25 0;
#X connect 25 0 26 0;
#X connect 25 1 29 0;
#X connect 25 2 32 0;
#X connect 26 0 27 0;
#X connect 27 0 28 0;
#X connect 28 0 35 0;
#X connect 29 0 30 0;
#X connect 30 0 31 0;
#X connect 31 0 28 0;
#X connect 31 1 35 1;
#X connect 32 0 33 0;
#X connect 33 0 34 0;
#X connect 34 0 28 0;
#X connect 34 1 35 2;
#X connect 35 0 36 0;
#X connect 36 0 42 0;
#X connect 37 0 39 0;
#X connect 38 0 8 0;
#X connect 39 0 2 1;
#X connect 39 1 38 0;
#X connect 39 2 7 0;
#X connect 41 0 1 0;
#X connect 42 0 53 0;
#X connect 43 0 2 0;
#X connect 43 1 41 1;
#X connect 44 0 54 0;
#X connect 45 0 20 0;
#X connect 46 0 43 0;
#X connect 47 0 52 0;
#X connect 47 0 66 1;
#X connect 47 1 9 0;
#X connect 48 0 3 0;
#X connect 48 1 11 0;
#X connect 49 0 13 0;
#X connect 49 1 50 0;
#X connect 49 2 1 0;
#X connect 50 0 14 0;
#X connect 51 0 44 0;
#X connect 52 0 51 0;
#X connect 52 1 7 0;
#X connect 52 1 66 0;
#X connect 53 0 46 0;
#X connect 54 0 45 0;
#X connect 54 1 53 1;
#X connect 55 0 58 0;
#X connect 56 0 39 0;
#X connect 57 0 44 0;
#X connect 58 0 59 0;
#X connect 58 0 7 0;
#X connect 58 1 67 0;
#X connect 59 0 44 0;
#X connect 60 0 21 0;
#X connect 62 0 64 0;
#X connect 62 1 63 0;
#X connect 63 0 15 0;
#X connect 63 1 64 0;
#X connect 64 0 52 0;
#X connect 66 0 65 0;
#X connect 67 0 57 0;
#X connect 67 1 56 0;
#X connect 67 2 68 0;
#X connect 68 0 69 0;
