#N canvas 643 68 450 300 12;
#X obj 143 48 lorenzc, f 10;
#X floatatom 121 112 5 0 0 0 - - -, f 5;
#X floatatom 171 112 5 0 0 0 - - -, f 5;
#X obj 141 15 bng 15 250 50 0 empty empty empty 17 7 0 10 -262144 -1
-1;
#X obj 126 168 print;
#X obj 228 111 print;
#X obj 41 45 metro 5;
#X obj 33 21 tgl 15 0 empty empty empty 17 7 0 10 -262144 -1 -1 0 1
;
#X connect 0 0 1 0;
#X connect 0 1 2 0;
#X connect 0 2 5 0;
#X connect 2 0 4 0;
#X connect 3 0 0 0;
#X connect 6 0 3 0;
#X connect 7 0 6 0;
