#N canvas 323 49 378 501 10;
#X obj 27 298 siginfo;
#X obj 11 185 lorenz;
#X obj 25 69 list prepend print;
#X obj 25 91 list trim;
#X obj 46 373 unpack f f f;
#X obj 46 325 list split 6;
#X obj 36 157 until;
#X obj 11 18 inlet;
#X obj 218 450 outlet distance;
#X obj 158 450 outlet z;
#X obj 102 450 outlet y;
#X obj 46 450 outlet x;
#X obj 27 477 outlet raw;
#X obj 36 135 200;
#X obj 11 44 route init;
#X obj 84 126 loadbang;
#X obj 36 219 spigot;
#X obj 84 148 t b b;
#X obj 125 183 del 300;
#X msg 125 205 1;
#X obj 83 194 tgl 15 0 empty empty empty 17 7 0 10 -262144 -1 -1 1
1;
#X obj 222 77 r reset;
#X msg 186 132 reset;
#X obj 222 99 t b b f;
#X connect 0 0 12 0;
#X connect 0 1 5 0;
#X connect 1 1 16 0;
#X connect 2 0 3 0;
#X connect 3 0 1 0;
#X connect 4 0 11 0;
#X connect 4 1 10 0;
#X connect 4 2 9 0;
#X connect 5 0 4 0;
#X connect 5 1 8 0;
#X connect 6 0 1 0;
#X connect 7 0 14 0;
#X connect 13 0 6 0;
#X connect 14 0 1 0;
#X connect 14 1 2 0;
#X connect 15 0 17 0;
#X connect 16 0 0 0;
#X connect 17 0 13 0;
#X connect 17 1 18 0;
#X connect 18 0 19 0;
#X connect 19 0 20 0;
#X connect 20 0 16 1;
#X connect 21 0 23 0;
#X connect 22 0 1 0;
#X connect 23 0 17 0;
#X connect 23 1 22 0;
#X connect 23 2 20 0;
