#N canvas 0 23 257 543 10;
#X obj 35 171 list prepend parse;
#X obj 35 193 list trim;
#X obj 35 215 siginfo;
#X msg 19 100 print 1;
#X obj 19 9 inlet;
#X obj 161 10 inlet;
#X obj 19 249 list split 6;
#X obj 19 281 unpack f f f;
#X obj 123 282 outlet;
#X obj 19 313 change;
#X obj 69 314 change;
#X obj 119 315 change;
#X obj 19 338 vline~;
#X obj 69 338 vline~;
#X obj 119 338 vline~;
#X obj 19 370 +~;
#X obj 19 395 +~;
#X obj 19 482 outlet~;
#X obj 19 141 lorenz;
#X obj 19 79 metro;
#X obj 46 31 loadbang;
#X msg 46 53 tempo 1 samp;
#X obj 117 215 s lorsig-info;
#X obj 19 417 *~ 0.33;
#X obj 19 439 hip~ 3;
#X connect 0 0 1 0;
#X connect 1 0 2 0;
#X connect 2 1 6 0;
#X connect 2 1 22 0;
#X connect 3 0 18 0;
#X connect 4 0 19 0;
#X connect 5 0 18 0;
#X connect 6 0 7 0;
#X connect 6 1 8 0;
#X connect 7 0 9 0;
#X connect 7 1 10 0;
#X connect 7 2 11 0;
#X connect 9 0 12 0;
#X connect 10 0 13 0;
#X connect 11 0 14 0;
#X connect 12 0 15 0;
#X connect 13 0 15 1;
#X connect 14 0 16 1;
#X connect 15 0 16 0;
#X connect 16 0 23 0;
#X connect 18 1 0 0;
#X connect 19 0 3 0;
#X connect 20 0 21 0;
#X connect 21 0 19 0;
#X connect 23 0 24 0;
#X connect 24 0 17 0;
