#N canvas 586 38 450 300 10;
#X obj 44 87 lorsig~;
#X obj 107 135 print~;
#X msg 131 79 bang;
#X obj 44 31 sig~ 3;
#X floatatom 48 13 5 0 0 0 - - -, f 5;
#X msg 118 42 reset;
#X msg 182 52 debug;
#X obj 179 120 print;
#X connect 0 0 1 0;
#X connect 0 1 7 0;
#X connect 2 0 1 0;
#X connect 3 0 0 0;
#X connect 4 0 3 0;
#X connect 5 0 0 0;
#X connect 6 0 0 0;
