#N canvas 876 224 450 300 12;
#N canvas 0 22 450 300 delwrite 0;
#X obj 66 60 inlet~;
#X obj 64 81 delwrite~ \$0-del 100;
#X obj 74 183 outlet~;
#X connect 0 0 1 0;
#X restore 98 118 pd delwrite;
#X obj 98 34 inlet~;
#X obj 98 208 outlet~;
#X obj 187 32 inlet;
#X text 87 257 based on Phillipp Schmalfuß's AudioLab pp.sdel~;
#X obj 284 32 inlet~;
#N canvas 281 148 450 300 del 0;
#X obj 62 265 outlet~;
#X obj 151 31 inlet;
#X obj 62 119 /;
#X obj 94 78 samplerate~;
#X obj 62 54 t f b;
#X obj 61 31 inlet~;
#X obj 94 102 * 0.001;
#X obj 62 146 max 1e-19;
#X obj 231 32 inlet~;
#X obj 62 168 pack f 3;
#X obj 62 189 line~;
#X obj 62 223 delread4~ \$0-del;
#X connect 1 0 4 0;
#X connect 2 0 7 0;
#X connect 3 0 6 0;
#X connect 4 0 2 0;
#X connect 4 1 3 0;
#X connect 6 0 2 1;
#X connect 7 0 9 0;
#X connect 8 0 11 0;
#X connect 9 0 10 0;
#X connect 10 0 11 0;
#X connect 11 0 0 0;
#X restore 98 144 pd del;
#X connect 0 0 6 0;
#X connect 1 0 0 0;
#X connect 3 0 6 1;
#X connect 5 0 6 2;
#X connect 6 0 2 0;
