#N canvas 44 88 450 300 12;
#X obj 41 18 inlet;
#X obj 304 17 inlet;
#N canvas 0 22 450 300 gopsubpatch 0;
#X obj 117 133 bng 15 250 50 0 empty empty empty 17 7 0 10 -262144
-1 -1;
#X obj 141 135 bng 15 250 50 0 empty empty dump 17 7 0 10 -262144 -1
-1;
#X obj 200 12 inlet;
#X obj 187 230 s parse-dump;
#X obj 81 231 s parse-bang;
#X obj 200 119 glistinfo;
#X obj 200 40 t a a;
#X obj 351 157 == 0;
#X obj 200 183 spigot;
#X obj 306 188 spigot;
#X obj 200 144 t a a;
#X msg 119 67 dump;
#X obj 317 60 route dump bang;
#X msg 317 114 0;
#X msg 351 114 1;
#X connect 0 0 6 0;
#X connect 1 0 11 0;
#X connect 2 0 6 0;
#X connect 5 0 10 0;
#X connect 6 0 5 0;
#X connect 6 1 12 0;
#X connect 7 0 9 1;
#X connect 8 0 4 0;
#X connect 9 0 3 0;
#X connect 10 0 8 0;
#X connect 10 1 9 0;
#X connect 11 0 6 0;
#X connect 12 0 13 0;
#X connect 12 1 14 0;
#X connect 13 0 7 0;
#X connect 13 0 8 1;
#X connect 14 0 7 0;
#X connect 14 0 8 1;
#X coords 0 -1 1 1 85 60 1 100 100;
#X restore 304 68 pd gopsubpatch;
#X obj 41 134 glistinfo;
#X obj 41 55 t a a;
#X obj 147 246 s parse-dump;
#X obj 41 247 s parse-bang;
#X obj 192 172 == 0;
#X obj 41 198 spigot;
#X obj 147 203 spigot;
#X obj 41 159 t a a;
#X obj 158 75 route dump bang;
#X msg 158 129 0;
#X msg 192 129 1;
#X connect 0 0 4 0;
#X connect 1 0 2 0;
#X connect 3 0 10 0;
#X connect 4 0 3 0;
#X connect 4 1 11 0;
#X connect 7 0 9 1;
#X connect 8 0 6 0;
#X connect 9 0 5 0;
#X connect 10 0 8 0;
#X connect 10 1 9 0;
#X connect 11 0 12 0;
#X connect 11 1 13 0;
#X connect 12 0 7 0;
#X connect 12 0 8 1;
#X connect 13 0 7 0;
#X connect 13 0 8 1;
