#N struct 1079-grey1-tmp float x float y float w float l;
#N canvas 69 23 1130 750 12;
#X obj 812 346 fd_bigmyvu;
#X obj 604 81 fd_camara;
#X obj 36 67 fd_clicktrack;
#X obj 274 307 fd_countdown;
#X obj 547 219 fd_cputime;
#X obj 146 544 fd_dataGui;
#X obj 40 544 fd_dataMorphGui;
#X obj 38 674 fd_dataStoreGui;
#X obj 39 650 fd_dataVis;
#X obj 838 74 fd_dsp;
#X obj 485 298 fd_fftfilt;
#X obj 494 98 fd_gemsphere;
#X obj 807 149 fd_inputGui;
#X obj 37 394 fd_key;
#X obj 429 424 fd_netreceive;
#X obj 429 449 fd_netsend;
#X obj 370 638 fd_nouns;
#X obj 42 263 fd_preset;
#X obj 37 340 fd_range;
#X obj 982 86 fd_rec;
#X obj 276 288 fd_stopwatch;
#X obj 301 404 fd_tabswitch;
#X obj 658 605 fd_tglvis;
#X obj 902 360 fd_vu;
#X obj 952 174 fd_write1;
#X obj 952 284 fd_write2;
#X obj 952 394 fd_write5;
#X obj 815 315 fd_out;
#X obj 779 528 fd_untext;
#X text 520 391 Networking:;
#X text 29 513 Data Structure (fd_env) Control;
#X text 922 19 Signal;
#X text 825 289 Output:;
#X text 821 119 Input:;
#X text 1000 55 Recording:;
#X text 525 270 Filtering;
#X text 523 194 CPU Monitoring;
#X text 623 573 Miscellanea:;
#X text 285 262 Time:;
#X text 77 316 Range Selection:;
#X text 295 379 Windows;
#X text 550 52 Gem:;
#X text 115 31 Control Input:;
#X obj 278 67 fd_pno;
#X text 459 33 right-click on any of them for help;
#X obj 475 12 fd_title 1 GOP Abstractions Overview;
#X obj 282 150 fd_6x6;
