#N canvas 532 52 610 406 12;
#X declare -lib Gem;
#X obj 45 128 gemwin;
#X obj 425 17 declare -lib Gem;
#X msg 45 88 0 \, destroy \, dimen 500 500 \, create \, 1 \, lighting
1 \, frame 40, f 31;
#X obj 46 165 gemhead;
#X obj 46 191 world_light;
#X obj 178 244 tgl 15 0 empty empty empty 17 7 0 10 -262144 -1 -1 0
1;
#X msg 178 264 all \$1;
#X msg 323 89 all scalex \$1;
#X msg 333 109 all scaley \$1;
#X msg 343 129 all scalez \$1;
#X msg 365 161 all tranx \$1;
#X msg 375 181 all trany \$1;
#X msg 385 201 all tranz \$1;
#X floatatom 480 144 5 0 0 0 - - -, f 5;
#X floatatom 490 164 5 0 0 0 - - -, f 5;
#X floatatom 500 184 5 0 0 0 - - -, f 5;
#X floatatom 438 72 5 0 0 0 - - -, f 5;
#X floatatom 448 92 5 0 0 0 - - -, f 5;
#X floatatom 458 112 5 0 0 0 - - -, f 5;
#X floatatom 508 222 5 0 0 0 - - -, f 5;
#X floatatom 518 242 5 0 0 0 - - -, f 5;
#X msg 393 239 all size \$1;
#X msg 403 259 all color \$1;
#X obj 178 305 clone _lorgem 40;
#X obj 45 227 fd_camara;
#X text 46 51 Graph the lorenz movement.;
#X text 230 10 "lorenz-test";
#X text 47 346 Each cloned _lorgem has an x-displacement of n/100.
;
#X connect 2 0 0 0;
#X connect 3 0 4 0;
#X connect 5 0 6 0;
#X connect 6 0 23 0;
#X connect 7 0 23 1;
#X connect 8 0 23 1;
#X connect 9 0 23 1;
#X connect 10 0 23 1;
#X connect 11 0 23 1;
#X connect 12 0 23 1;
#X connect 13 0 10 0;
#X connect 14 0 11 0;
#X connect 15 0 12 0;
#X connect 16 0 7 0;
#X connect 17 0 8 0;
#X connect 18 0 9 0;
#X connect 19 0 21 0;
#X connect 20 0 22 0;
#X connect 21 0 23 1;
#X connect 22 0 23 1;
