#N canvas 313 56 921 718 12;
#X msg 352 257 send \$1;
#X msg 439 237 symbol s-selector;
#X msg 352 280 receive \$1;
#X msg 451 260 symbol r-selector;
#X msg 352 303 label \$1;
#X floatatom 491 314 5 0 0 0 - - -, f 5;
#X msg 673 241 delta \$1 \$1;
#X msg 352 331 label_pos \$1 \$1;
#X msg 352 356 label_font \$1 \$2;
#X obj 673 453 t a;
#X text 626 60 UNCREATABLE MESSAGES:;
#X text 19 550 Copy this message:;
#X text 200 621 And paste it here;
#X text 104 649 <--- sholud be;
#X msg 462 283 symbol label-name;
#X floatatom 562 319 5 0 0 0 - - -, f 5;
#X msg 503 336 0 \$1;
#X msg 761 213 10;
#X msg 795 213 -10;
#X msg 689 213 1;
#X msg 724 213 -1;
#X msg 491 389 8 18 28;
#X msg 565 389 9 19 29;
#X msg 352 409 color \$1 \$2 \$3;
#X floatatom 673 115 5 0 0 0 - - -, f 5;
#X msg 673 137 float \$1;
#X floatatom 638 533 5 0 0 0 - - -, f 5;
#X floatatom 758 555 5 0 0 0 - - -, f 5;
#X obj 638 555 s r-selector;
#X obj 758 530 r s-selector;
#X text 720 453 [***];
#X text 582 236 [***];
#X text 596 257 [***];
#X text 630 481 send to the "receive selector";
#X text 631 498 receive from the send selector";
#X text 27 60 ARGUMENT LIST: [*];
#X text 345 60 EQUIVALENT MESSAGES: [*], f 25;
#X text 47 483 [*] All of this \, you can use right-click > properties
, f 29;
#X obj 352 473 nbx 7 28 6 50 1 0 s-selector r-selector label-name 43
43 0 18 -228992 -62784 -355 6 512;
#X msg 352 120 size \$1 \$2;
#X floatatom 510 92 5 0 0 0 - - -, f 5;
#X obj 510 114 t b f;
#X obj 458 116 pack;
#X floatatom 456 93 5 0 0 0 - - -, f 5;
#X text 27 153 [3] (float) range: lower (\$1);
#X text 27 173 [4] (float) range: upper (\$2);
#X text 27 233 [7] (symbol) "send" selector;
#X text 27 253 [8] (symbol) "receive" selector;
#X text 27 273 [9] (symbol) "label" name;
#X text 27 293 [10] (float) label_pos: X-offset (\$1);
#X text 27 313 [11] (float) label_pos: Y-offset (\$2);
#X text 27 333 [12] (float) label_font: font (\$1);
#X text 27 353 [13] (float) label_font: height (\$2);
#X text 27 373 [14] (float) color: background (\$1);
#X text 27 393 [15] (float) color: front (\$2);
#X text 27 413 [16] (float) color: label (\$3);
#X text 27 193 [5] (float) lin/log: 0|1;
#X text 27 213 [6] (float) init: 0|1;
#X msg 352 181 log;
#X msg 352 205 lin;
#X msg 352 229 init \$1;
#X obj 421 214 tgl 15 0 empty empty empty 17 7 0 10 -262144 -1 -1 0
1;
#X floatatom 510 152 5 0 0 0 - - -, f 5;
#X obj 510 174 t b f;
#X obj 458 176 pack;
#X floatatom 456 153 5 0 0 0 - - -, f 5;
#X msg 352 156 range \$1 \$2;
#X text 27 113 [1] (float) size: width (\$1) >= 2;
#X text 27 133 [2] (float) size: height (\$2) >= 8;
#X text 27 433 [17] (float) init-value: 1|0 (see [6]);
#X obj 238 645;
#X msg 673 303 pos \$1 \$2;
#X floatatom 821 275 5 0 0 0 - - -, f 5;
#X obj 821 297 t b f;
#X obj 769 299 pack;
#X floatatom 767 276 5 0 0 0 - - -, f 5;
#X text 65 33 ARGUMENT LIST == [1] [2] [3] [4] [5] [6] [7] [8] [9]
[10] [11] [12] [13] [14] [15] [16] [17], f 94;
#X msg 685 276 352 473;
#X floatatom 683 164 5 0 0 0 - - -, f 5;
#X msg 673 186 set \$1;
#X msg 708 408 bang;
#X obj 38 645 nbx 4 20 -1 1 0 0 receive send name -4 -10 0 15 -257472
-250685 -90133 0 256;
#X msg 21 577 nbx 4 20 -1 1 0 0 receive send name -4 -10 0 15 9 19
29 0;
#X msg 700 339 64;
#X msg 697 368 log_height \$1;
#X msg 738 337 128;
#X msg 776 338 256;
#X msg 817 339 512;
#X obj 389 685 s pd-\$0-sub;
#N canvas 0 22 450 300 \$0-sub 0;
#X obj 20 20 nbx 4 20 -1 1 0 0 receive send name -4 -10 0 15 -257472
-250685 -90133 0 256;
#X restore 500 687 pd \$0-sub;
#X text 392 617 Create via message to canvas (subpatch):;
#X msg 389 644 clear \, obj 20 20 nbx 4 20 -1 1 0 0 receive send name
-4 -10 0 15 9 19 29 0 \, vis 1;
#X msg 524 594 clear \, numbox \, vis 1;
#X text 27 93 [0] nbx;
#X text 249 10 numbox creation arguments and mesages explained;
#X connect 0 0 38 0;
#X connect 1 0 0 0;
#X connect 2 0 38 0;
#X connect 3 0 2 0;
#X connect 4 0 38 0;
#X connect 5 0 7 0;
#X connect 6 0 9 0;
#X connect 7 0 38 0;
#X connect 8 0 38 0;
#X connect 9 0 38 0;
#X connect 14 0 4 0;
#X connect 15 0 16 0;
#X connect 16 0 8 0;
#X connect 17 0 6 0;
#X connect 18 0 6 0;
#X connect 19 0 6 0;
#X connect 20 0 6 0;
#X connect 21 0 23 0;
#X connect 22 0 23 0;
#X connect 23 0 38 0;
#X connect 24 0 25 0;
#X connect 25 0 9 0;
#X connect 26 0 28 0;
#X connect 29 0 27 0;
#X connect 39 0 38 0;
#X connect 40 0 41 0;
#X connect 41 0 42 0;
#X connect 41 1 42 1;
#X connect 42 0 39 0;
#X connect 43 0 42 0;
#X connect 58 0 38 0;
#X connect 59 0 38 0;
#X connect 60 0 38 0;
#X connect 61 0 60 0;
#X connect 62 0 63 0;
#X connect 63 0 64 0;
#X connect 63 1 64 1;
#X connect 64 0 66 0;
#X connect 65 0 64 0;
#X connect 66 0 38 0;
#X connect 71 0 9 0;
#X connect 72 0 73 0;
#X connect 73 0 74 0;
#X connect 73 1 74 1;
#X connect 74 0 71 0;
#X connect 75 0 74 0;
#X connect 77 0 71 0;
#X connect 78 0 79 0;
#X connect 79 0 9 0;
#X connect 80 0 9 0;
#X connect 83 0 84 0;
#X connect 84 0 9 0;
#X connect 85 0 84 0;
#X connect 86 0 84 0;
#X connect 87 0 84 0;
#X connect 91 0 88 0;
#X connect 92 0 88 0;
