#N canvas 299 52 911 707 12;
#X msg 352 210 receive \$1;
#X msg 451 190 symbol r-selector;
#X msg 352 233 label \$1;
#X floatatom 491 244 5 0 0 0 - - -, f 5;
#X msg 673 191 delta \$1 \$1;
#X msg 352 261 label_pos \$1 \$1;
#X msg 352 296 label_font \$1 \$2;
#X obj 673 348 t a;
#X text 626 60 UNCREATABLE MESSAGES:;
#X text 16 517 Copy this message:;
#X text 123 566 And paste it here;
#X text 106 607 <--- sholud be;
#X msg 462 213 symbol label-name;
#X floatatom 562 259 5 0 0 0 - - -, f 5;
#X msg 503 276 0 \$1;
#X msg 761 163 10;
#X msg 795 163 -10;
#X msg 689 163 1;
#X msg 724 163 -1;
#X floatatom 673 115 5 0 0 0 - - -, f 5;
#X msg 673 137 float \$1;
#X msg 686 295 bang;
#X floatatom 648 466 5 0 0 0 - - -, f 5;
#X obj 648 488 s r-selector;
#X text 730 414 [***];
#X text 582 166 [***];
#X text 596 187 [***];
#X text 640 442 send to the "receive selector";
#X text 27 60 ARGUMENT LIST: [*];
#X text 345 60 EQUIVALENT MESSAGES: [*], f 25;
#X text 36 370 [*] All of this \, you can use right-click > properties
, f 29;
#X text 27 113 [1] (float) size: width (\$1) >= 2;
#X msg 673 253 pos \$1 \$2;
#X floatatom 821 225 5 0 0 0 - - -, f 5;
#X obj 821 247 t b f;
#X obj 769 249 pack;
#X floatatom 767 226 5 0 0 0 - - -, f 5;
#N canvas 0 22 450 300 \$0-sub 0;
#X obj 10 20 vu 10 80 receive name 0 -10 0 10 -261689 -258699 1 0;
#X restore 493 602 pd \$0-sub;
#X obj 397 602 s pd-\$0-sub;
#X text 400 539 Create by sending message to canvas (subpatch):;
#X text 249 10 vumeter creation arguments and mesages explained;
#X text 27 133 [2] (float) size: height (\$2) >= 80;
#X text 27 153 [3] (symbol) "receive" selector;
#X text 27 173 [4] (symbol) "label" name;
#X text 27 193 [5] (float) label_pos: X-offset (\$1);
#X text 27 213 [6] (float) label_pos: Y-offset (\$2);
#X text 27 233 [7] (float) label_font: font (\$1);
#X text 27 253 [8] (float) label_font: height (\$2);
#X text 27 273 [9] (float) color: background (\$1);
#X text 27 293 [10] (float) color: front (\$2);
#X msg 18 542 vu 10 80 receive name 0 -10 0 10 3 13 23 0;
#X text 27 313 [11] (float) 0;
#X text 27 93 [0] vu;
#X obj 39 590 vu 10 80 receive name 0 -10 0 10 -261689 -258699 1 0
;
#X obj 240 603;
#X msg 397 562 clear \, obj 10 20 vu 10 80 receive name 0 -10 0 10
3 13 23 0 \, vis 1;
#X obj 353 370 vu 10 80 r-selector label-name 49 49 0 13 -257472 -90133
1 0;
#X floatatom 495 90 5 0 0 0 - - -, f 5;
#X obj 495 112 t b f;
#X obj 449 113 pack;
#X floatatom 447 90 5 0 0 0 - - -, f 5;
#X msg 352 112 size \$1 \$2;
#X msg 352 161 scale \$1;
#X obj 443 146 tgl 15 0 empty empty empty 17 7 0 10 -262144 -1 -1 1
1;
#X msg 613 639 \; pd-create-vumeter.pd map 0 \, map 1;
#X msg 491 319 8 18;
#X msg 352 339 color \$1 \$2;
#X msg 565 319 9 19;
#X floatatom 352 496 5 0 0 0 - - -, f 5;
#X floatatom 357 475 5 0 0 0 - - -, f 5;
#X msg 735 345 ft1 \$1;
#X floatatom 747 322 5 0 0 0 - - -, f 5;
#X text 736 371 (2nd inlet);
#X text 754 135 (1st inlet);
#X msg 685 226 353 370;
#X text 591 614 remap this canvas if label gets stuck:;
#X text 65 33 ARGUMENT LIST == [1] [2] [3] [4] [5] [6] [7] [8] [9]
[10] [11], f 94;
#X text 62 421 see help for more info;
#X connect 0 0 56 0;
#X connect 1 0 0 0;
#X connect 2 0 56 0;
#X connect 3 0 5 0;
#X connect 4 0 7 0;
#X connect 5 0 56 0;
#X connect 6 0 56 0;
#X connect 7 0 56 0;
#X connect 12 0 2 0;
#X connect 13 0 14 0;
#X connect 14 0 6 0;
#X connect 15 0 4 0;
#X connect 16 0 4 0;
#X connect 17 0 4 0;
#X connect 18 0 4 0;
#X connect 19 0 20 0;
#X connect 20 0 7 0;
#X connect 21 0 7 0;
#X connect 22 0 23 0;
#X connect 32 0 7 0;
#X connect 33 0 34 0;
#X connect 34 0 35 0;
#X connect 34 1 35 1;
#X connect 35 0 32 0;
#X connect 36 0 35 0;
#X connect 55 0 38 0;
#X connect 56 0 68 0;
#X connect 56 1 69 0;
#X connect 57 0 58 0;
#X connect 58 0 59 0;
#X connect 58 1 59 1;
#X connect 59 0 61 0;
#X connect 60 0 59 0;
#X connect 61 0 56 0;
#X connect 62 0 56 0;
#X connect 63 0 62 0;
#X connect 65 0 66 0;
#X connect 66 0 56 0;
#X connect 67 0 66 0;
#X connect 70 0 7 0;
#X connect 71 0 70 0;
#X connect 74 0 32 0;
