#N canvas 299 52 873 589 12;
#X text 27 93 [0] tgl | toggle;
#X text 27 113 [1] (float) size;
#X text 27 153 [3] (symbol) "send" selector;
#X text 27 173 [4] (symbol) "receive" selector;
#X text 27 193 [5] (symbol) "label" name;
#X msg 355 102 size \$1;
#X obj 355 355 tgl 45 1 s-selector r-selector label-name 49 49 0 27
-228992 -62784 -355 81 81;
#X floatatom 432 85 5 0 0 0 - - -, f 5;
#X floatatom 355 444 5 0 0 0 - - -, f 5;
#X msg 355 127 init \$1;
#X obj 432 112 tgl 15 0 empty empty empty 17 7 0 10 -262144 -1 -1 1
1;
#X msg 355 151 send \$1;
#X msg 442 131 symbol s-selector;
#X msg 355 174 receive \$1;
#X msg 454 154 symbol r-selector;
#X msg 355 197 label \$1;
#X floatatom 494 208 5 0 0 0 - - -, f 5;
#X text 27 213 [6] (float) label_pos: X-offset (\$1);
#X text 27 233 [7] (float) label_pos: Y-offset (\$2);
#X text 27 293 [10] (float) color: background (\$1);
#X text 27 313 [11] (float) color: front (\$2);
#X text 27 333 [12] (float) color: label (\$3);
#X text 27 133 [2] (float) init: 1|0;
#X floatatom 679 127 5 0 0 0 - - -, f 5;
#X text 27 273 [9] (float) label_font: height (\$2);
#X text 27 253 [8] (float) label_font: font (\$1);
#X msg 673 205 delta \$1 \$1;
#X floatatom 680 233 5 0 0 0 - - -, f 5;
#X msg 673 257 pos \$1 \$1;
#X msg 355 225 label_pos \$1 \$1;
#X msg 355 260 label_font \$1 \$2;
#X obj 673 335 t a;
#X text 626 60 UNCREATABLE MESSAGES:;
#X msg 13 491 tgl 20 0 receive send name 0 -20 0 15 9 19 29 0;
#X text 11 464 Copy this message:;
#X text 202 519 And paste it here;
#X text 106 547 <--- sholud be;
#X obj 66 549 tgl 20 0 receive send name 0 -20 0 15 -257472 -250685
-90133 0 1;
#X obj 246 548;
#X msg 465 177 symbol label-name;
#X floatatom 565 223 5 0 0 0 - - -, f 5;
#X msg 506 240 0 \$1;
#X msg 761 177 10;
#X msg 795 177 -10;
#X msg 689 177 1;
#X msg 724 177 -1;
#X msg 733 234 355;
#X msg 494 283 8 18 28;
#X msg 568 283 9 19 29;
#X msg 355 303 color \$1 \$2 \$3;
#X floatatom 673 79 5 0 0 0 - - -, f 5;
#X msg 673 101 float \$1;
#X msg 673 148 nonzero \$1;
#X text 763 149 then click;
#X msg 687 302 bang;
#X text 27 353 [13] (float) init-value: 1|0 (see [2]);
#X text 249 10 Toggle creation arguments and mesages explained;
#X text 134 30 ARGUMENT LIST == [1] [2] [3] [4] [5] [6] [7] [8] [9]
[10] [11] [12] [13], f 72;
#X floatatom 603 516 5 0 0 0 - - -, f 5;
#X floatatom 723 538 5 0 0 0 - - -, f 5;
#X obj 603 538 s r-selector;
#X obj 723 513 r s-selector;
#X text 685 436 [***];
#X text 585 130 [***];
#X text 599 151 [***];
#X text 595 464 send to the "receive selector";
#X text 596 481 receive from the send selector";
#X text 27 60 ARGUMENT LIST: [*];
#X text 346 60 EQUIVALENT MESSAGES: [*];
#X text 27 402 [*] All of this \, you can use right-click > properties
, f 29;
#X connect 5 0 6 0;
#X connect 6 0 8 0;
#X connect 7 0 5 0;
#X connect 9 0 6 0;
#X connect 10 0 9 0;
#X connect 11 0 6 0;
#X connect 12 0 11 0;
#X connect 13 0 6 0;
#X connect 14 0 13 0;
#X connect 15 0 6 0;
#X connect 16 0 29 0;
#X connect 23 0 52 0;
#X connect 26 0 31 0;
#X connect 27 0 28 0;
#X connect 28 0 31 0;
#X connect 29 0 6 0;
#X connect 30 0 6 0;
#X connect 31 0 6 0;
#X connect 39 0 15 0;
#X connect 40 0 41 0;
#X connect 41 0 30 0;
#X connect 42 0 26 0;
#X connect 43 0 26 0;
#X connect 44 0 26 0;
#X connect 45 0 26 0;
#X connect 46 0 27 0;
#X connect 47 0 49 0;
#X connect 48 0 49 0;
#X connect 49 0 6 0;
#X connect 50 0 51 0;
#X connect 51 0 31 0;
#X connect 52 0 31 0;
#X connect 54 0 31 0;
#X connect 58 0 60 0;
#X connect 61 0 59 0;
