#N canvas 126 179 916 705 12;
#X msg 352 237 send \$1;
#X msg 439 217 symbol s-selector;
#X msg 352 260 receive \$1;
#X msg 451 240 symbol r-selector;
#X msg 352 283 label \$1;
#X floatatom 491 294 5 0 0 0 - - -, f 5;
#X msg 673 151 delta \$1 \$1;
#X msg 352 311 label_pos \$1 \$1;
#X msg 352 346 label_font \$1 \$2;
#X obj 673 410 t a;
#X text 709 45 UNCREATABLE MESSAGES:;
#X text 16 547 Copy this message:;
#X text 188 602 And paste it here;
#X text 106 637 <--- sholud be;
#X msg 462 263 symbol label-name;
#X floatatom 562 309 5 0 0 0 - - -, f 5;
#X msg 503 326 0 \$1;
#X msg 761 123 10;
#X msg 795 123 -10;
#X msg 689 123 1;
#X msg 724 123 -1;
#X msg 491 369 8 18 28;
#X msg 565 369 9 19 29;
#X msg 352 389 color \$1 \$2 \$3;
#X floatatom 673 65 5 0 0 0 - - -, f 5;
#X msg 673 237 bang;
#X floatatom 581 534 5 0 0 0 - - -, f 5;
#X obj 581 556 s r-selector;
#X obj 701 531 r s-selector;
#X text 663 454 [***];
#X text 582 216 [***];
#X text 596 237 [***];
#X text 573 482 send to the "receive selector";
#X text 574 499 receive from the send selector";
#X text 27 60 ARGUMENT LIST: [*];
#X text 345 60 EQUIVALENT MESSAGES: [*], f 25;
#X text 66 461 [*] All of this \, you can use right-click > properties
, f 29;
#X floatatom 453 95 5 0 0 0 - - -, f 5;
#X msg 352 209 init \$1;
#X obj 421 194 tgl 15 0 empty empty empty 17 7 0 10 -262144 -1 -1 0
1;
#X text 27 133 [1] (float) size: width (\$1) >= 2;
#X msg 673 207 pos \$1 \$2;
#X floatatom 821 179 5 0 0 0 - - -, f 5;
#X obj 821 201 t b f;
#X obj 769 203 pack;
#X floatatom 767 180 5 0 0 0 - - -, f 5;
#X msg 685 180 352 420;
#N canvas 0 22 450 300 \$0-sub 0;
#X obj 10 20 sradio 10 0 1 5 receive send name 0 -10 0 15 -257472 -250685
-90133 0;
#X restore 455 678 pd \$0-sub;
#X obj 359 678 s pd-\$0-sub;
#X text 362 615 Create by sending message to canvas (subpatch):;
#X obj 352 430 sradio 16 0 1 12 s-selector r-selector label-name 41
41 0 26 -228992 -62784 -355 0;
#X text 27 173 [3] (float) init: 1|0;
#X text 27 153 [2] (float) 0;
#X text 27 193 [4] (float) number: \$1 >= 1;
#X text 27 213 [5] (symbol) "send" selector;
#X text 27 233 [6] (symbol) "receive" selector;
#X text 27 253 [7] (symbol) "label" name;
#X text 27 273 [8] (float) label_pos: X-offset (\$1);
#X text 27 293 [9] (float) label_pos: Y-offset (\$2);
#X text 27 313 [10] (float) label_font: font (\$1);
#X text 27 333 [11] (float) label_font: height (\$2);
#X text 27 353 [12] (float) color: background (\$1);
#X text 27 373 [13] (float) color: front (\$2);
#X text 27 393 [14] (float) color: label (\$3);
#X obj 30 641 sradio 10 0 1 5 receive send name 0 -10 0 15 -257472
-250685 -90133 0;
#X msg 359 638 clear \, obj 10 20 sradio 10 0 1 5 receive send name
0 -10 0 15 9 19 29 2 \, vis 1;
#X msg 352 112 size \$1;
#X msg 352 161 number \$1;
#X floatatom 443 144 5 0 0 0 - - -, f 5;
#X text 89 110 sradio (obsolete version);
#X text 27 93 [0] sradio | rdb | radiobut | radiobutton;
#X text 65 33 ARGUMENT LIST == [1] [2] [3] [4] [5] [6] [7] [8] [9]
[10] [11] [12] [13] [14] [15], f 83;
#X text 249 10 sradio creation arguments and messages explained;
#X obj 240 633;
#X msg 673 96 set 1 1 0 1 0 1 1 1;
#X obj 701 556 route float list;
#X floatatom 701 581 5 0 0 0 - - -, f 5;
#X text 27 413 [15] (float) focus: 1|0 (default: 1);
#X msg 18 570 sradio 10 0 1 5 receive send name 0 -10 0 15 9 19 29
1;
#X obj 352 490 list prepend set;
#X obj 352 515 list trim;
#X msg 352 540 0;
#X obj 763 582 t a b;
#X obj 763 607 print;
#X obj 821 609 bng 15 250 50 0 empty empty empty 17 7 0 10 -262144
-1 -1;
#X msg 673 261 next;
#X msg 673 286 prev;
#X text 718 66 (modulo number);
#X msg 738 261 write filename.txt;
#X msg 738 286 read filename.txt;
#X msg 813 333 store \$1;
#X msg 740 359 recall \$1;
#X msg 838 359 store;
#X floatatom 740 338 5 0 0 0 - - -, f 5;
#X floatatom 813 312 5 0 0 0 - - -, f 5;
#X msg 775 423 flush target;
#X obj 842 562 r target;
#X msg 796 392 open;
#X msg 836 392 close;
#X msg 737 311 clear;
#X text 755 240 text stuff:;
#X connect 0 0 50 0;
#X connect 1 0 0 0;
#X connect 2 0 50 0;
#X connect 3 0 2 0;
#X connect 4 0 50 0;
#X connect 5 0 7 0;
#X connect 6 0 9 0;
#X connect 7 0 50 0;
#X connect 8 0 50 0;
#X connect 9 0 50 0;
#X connect 14 0 4 0;
#X connect 15 0 16 0;
#X connect 16 0 8 0;
#X connect 17 0 6 0;
#X connect 18 0 6 0;
#X connect 19 0 6 0;
#X connect 20 0 6 0;
#X connect 21 0 23 0;
#X connect 22 0 23 0;
#X connect 23 0 50 0;
#X connect 24 0 9 0;
#X connect 25 0 9 0;
#X connect 26 0 27 0;
#X connect 28 0 75 0;
#X connect 37 0 66 0;
#X connect 38 0 50 0;
#X connect 39 0 38 0;
#X connect 41 0 9 0;
#X connect 42 0 43 0;
#X connect 43 0 44 0;
#X connect 43 1 44 1;
#X connect 44 0 41 0;
#X connect 45 0 44 0;
#X connect 46 0 41 0;
#X connect 50 0 79 0;
#X connect 65 0 48 0;
#X connect 66 0 50 0;
#X connect 67 0 50 0;
#X connect 68 0 67 0;
#X connect 74 0 9 0;
#X connect 75 0 76 0;
#X connect 75 1 82 0;
#X connect 79 0 80 0;
#X connect 80 0 81 0;
#X connect 82 0 83 0;
#X connect 82 1 84 0;
#X connect 85 0 9 0;
#X connect 86 0 9 0;
#X connect 88 0 9 0;
#X connect 89 0 9 0;
#X connect 90 0 9 0;
#X connect 91 0 9 0;
#X connect 92 0 9 0;
#X connect 93 0 91 0;
#X connect 94 0 90 0;
#X connect 95 0 9 0;
#X connect 96 0 82 0;
#X connect 97 0 9 0;
#X connect 98 0 9 0;
#X connect 99 0 9 0;
