#N canvas 512 41 485 631 12;
#X obj 57 227 * 6.28319;
#X obj 57 254 pow -0.5;
#X obj 142 216 * 2;
#X obj 142 242 *;
#X obj 142 273 +;
#X obj 142 482 /;
#X obj 306 437 * 2;
#X obj 142 508 exp;
#X obj 142 550 +;
#X obj 249 504 /;
#X obj 249 530 exp;
#X obj 249 375 +;
#X obj 142 299 t b f f;
#X obj 142 346 t f f;
#X obj 36 570 *;
#X obj 36 596 outlet;
#X obj 36 48 t b f;
#X obj 36 196 t b f;
#X obj 36 282 f;
#X obj 36 140 until;
#X msg 89 141 0;
#X obj 36 90 i 1;
#X obj 306 462 t f f;
#X obj 128 47 t f f;
#X obj 36 166 f;
#X obj 70 166 + 1;
#X obj 36 115 t f b;
#X obj 36 23 inlet x;
#X obj 128 23 inlet t;
#X obj 205 23 inlet y;
#X obj 283 23 inlet a;
#X obj 364 24 inlet limit;
#X obj 249 401 t f f;
#X obj 249 426 *;
#X obj 142 402 t f f;
#X obj 142 427 *;
#X obj 357 167 loadbang;
#X obj 142 375 - \$2;
#X obj 142 323 f \$3;
#X obj 357 217 unpack;
#X obj 357 192 pack \$1 \$4;
#X obj 413 216 sel;
#X connect 0 0 1 0;
#X connect 1 0 18 1;
#X connect 2 0 3 0;
#X connect 3 0 4 0;
#X connect 4 0 12 0;
#X connect 5 0 7 0;
#X connect 6 0 22 0;
#X connect 7 0 8 0;
#X connect 8 0 14 1;
#X connect 9 0 10 0;
#X connect 10 0 8 1;
#X connect 11 0 32 0;
#X connect 12 0 38 0;
#X connect 12 1 37 1;
#X connect 12 2 11 1;
#X connect 13 0 37 0;
#X connect 13 1 11 0;
#X connect 14 0 15 0;
#X connect 16 0 21 0;
#X connect 16 1 4 1;
#X connect 17 0 18 0;
#X connect 17 1 2 0;
#X connect 18 0 14 0;
#X connect 19 0 24 0;
#X connect 20 0 24 1;
#X connect 21 0 26 0;
#X connect 22 0 5 1;
#X connect 22 1 9 1;
#X connect 23 0 0 0;
#X connect 23 1 6 0;
#X connect 24 0 25 0;
#X connect 24 0 17 0;
#X connect 25 0 24 1;
#X connect 26 0 19 0;
#X connect 26 1 20 0;
#X connect 27 0 16 0;
#X connect 28 0 23 0;
#X connect 29 0 38 1;
#X connect 30 0 3 1;
#X connect 31 0 21 1;
#X connect 32 0 33 0;
#X connect 32 1 33 1;
#X connect 33 0 9 0;
#X connect 34 0 35 0;
#X connect 34 1 35 1;
#X connect 35 0 5 0;
#X connect 36 0 40 0;
#X connect 37 0 34 0;
#X connect 38 0 13 0;
#X connect 39 0 23 0;
#X connect 39 1 41 0;
#X connect 40 0 39 0;
#X connect 41 1 21 1;
