#N canvas 0 22 450 300 12;
#X obj 145 86 t b f;
#X msg 145 111 10;
#X obj 145 136 pow;
#X obj 182 112 / 40;
#X obj 145 57 inlet gain;
#X obj 145 161 outlet A;
#X connect 0 0 1 0;
#X connect 0 1 3 0;
#X connect 1 0 2 0;
#X connect 2 0 5 0;
#X connect 3 0 2 1;
#X connect 4 0 0 0;
