#N canvas 0 22 450 300 12;
#X obj 187 232 fd_sinh;
#X msg 220 91 0.693147;
#X obj 220 116 * 0.5;
#X obj 220 141 *;
#X obj 161 89 swap;
#X obj 161 114 /;
#X obj 81 77 sin;
#X obj 81 102 t f f;
#X obj 81 48 t f f;
#X obj 199 167 *;
#X obj 220 61 t b f f;
#X obj 201 193 *;
#X obj 150 235 *;
#X obj 219 14 inlet bandwidth;
#X obj 150 260 outlet alpha;
#X obj 80 13 inlet omega;
#X connect 0 0 12 1;
#X connect 1 0 2 0;
#X connect 2 0 3 0;
#X connect 3 0 9 1;
#X connect 4 0 5 0;
#X connect 4 1 5 1;
#X connect 5 0 9 0;
#X connect 6 0 7 0;
#X connect 7 0 12 0;
#X connect 7 1 4 0;
#X connect 8 0 6 0;
#X connect 8 1 4 1;
#X connect 9 0 11 0;
#X connect 10 0 1 0;
#X connect 10 1 3 1;
#X connect 10 2 11 1;
#X connect 11 0 0 0;
#X connect 12 0 14 0;
#X connect 13 0 10 0;
#X connect 15 0 8 0;
