#N canvas 0 22 451 317 12;
#X obj 33 191 log;
#X obj 33 167 wrap;
#X obj 33 121 min 0.99999;
#X obj 33 144 max 1e-05;
#X obj 33 213 abs;
#X obj 33 97 -;
#X obj 33 237 / 5;
#X obj 33 17 inlet;
#X obj 33 264 outlet;
#X obj 184 17 inlet;
#X obj 184 98 f \$1;
#X obj 184 120 sel 0;
#X msg 148 120 5;
#X obj 33 49 t f b;
#X msg 33 74 1 \$1;
#X connect 0 0 4 0;
#X connect 1 0 0 0;
#X connect 2 0 3 0;
#X connect 3 0 1 0;
#X connect 4 0 6 0;
#X connect 5 0 2 0;
#X connect 6 0 8 0;
#X connect 7 0 13 0;
#X connect 9 0 10 0;
#X connect 10 0 11 0;
#X connect 11 0 12 0;
#X connect 11 1 6 1;
#X connect 12 0 6 1;
#X connect 13 0 14 0;
#X connect 13 1 10 0;
#X connect 14 0 5 0;
