#N canvas 524 51 474 344 12;
#X obj 175 197 fd_log 5;
#X floatatom 175 249 0 0 0 0 - - -;
#X floatatom 236 174 5 1 100 0 - - -, f 5;
#X text 199 26 "fd_log";
#X text 39 56 Normalized log function. Inlet 1 (float) : 0-1 \, Argument/Inlet
2: division factor;
#X obj 178 119 hsl 128 15 0 127 0 0 empty empty empty -2 -8 0 10 -262144
-1 -1 7100 1;
#X obj 175 139 / 127;
#X connect 0 0 1 0;
#X connect 2 0 0 1;
#X connect 5 0 6 0;
#X connect 6 0 0 0;
#X obj 310 15 declare -path fd_lib;
#X text 374 314 fd_lib v0.1;
