#N canvas 534 67 415 197 12;
#X obj 55 22 inlet;
#X obj 55 45 t b f;
#X obj 55 119 f;
#X obj 87 140 outlet;
#X obj 119 20 inlet;
#X obj 87 118 * 1;
#X msg 119 42 1;
#X connect 0 0 1 0;
#X connect 1 0 2 0;
#X connect 1 1 5 0;
#X connect 2 0 5 1;
#X connect 4 0 6 0;
#X connect 5 0 2 1;
#X connect 5 0 3 0;
#X connect 6 0 2 1;
#X connect 6 0 5 1;
#X connect 6 0 5 0;
