#N canvas 500 50 530 480 12;
#X declare -path fd_lib;
#X obj 4 4 cnv 15 522 30 empty empty "fd_guiTemplate" 20 15 0 15 -228856
-1 0;
#X obj 4 254 cnv 15 522 20 empty empty arguments: 10 10 0 14 -228856
-1 0;
#X obj 4 314 cnv 15 522 20 empty empty inlets: 10 10 0 14 -228856 -1
0;
#X obj 4 374 cnv 15 522 20 empty empty outlets: 10 10 0 14 -228856
-1 0;
#X obj 4 453 cnv 15 522 20 empty empty version 10 10 0 14 -228856 -1
0;
#X obj 380 8 declare -path fd_lib;
#X text 440 452 fd_lib v0.1;
#X text 60 284 no arguments;
#X text 60 340 anything;
#X text 60 410 no outlets;
#N canvas 231 24 625 421 more 0;
#X floatatom 322 127 5 0 0 0 - - -;
#X obj 97 159 fd_guiTemplate;
#X msg 96 129 parent child 300 200;
#X obj 323 152 fd_colortheme BG;
#X obj 324 203 s BG0-set;
#X msg 323 177 color \$2 \$1;
#X msg 82 101 guts controls 230 174;
#X text 316 87 Use this to change background color:, f 19;
#X obj 107 207 fd_guiTemplate-test;
#X text 214 252 <-- this is a very simple example;
#X msg 63 70 newtest newctrl 100 130;
#X text 27 11 NOTE: always use diff names. No dollar 0;
#X msg 432 184 color 21 0;
#X text 31 39 Inlet 1: (list) <filename> <control-name> <x> <y>;
#X connect 0 0 3 0;
#X connect 2 0 1 0;
#X connect 3 0 5 0;
#X connect 5 0 4 0;
#X connect 6 0 1 0;
#X connect 10 0 1 0;
#X connect 12 0 4 0;
#X restore 386 207 pd more;
#X text 16 46 A template for faster creation of functional/nice gui
boxes;
#X text 15 75 It creates a new patch with a child subpatch at point
10 \, 10, f 62;
#X text 13 158 When clicking the bang provided by the template you
bypass the guts and go straight to the routing part of the controls.
, f 62;
#X text 14 102 The <parent> abstraction is GOP and contains the <child>.
The child is where you'd want to put the 'controls'. In the parent
is where the 'guts' of your patch can live., f 62;
#X obj 71 225 fd_guiTemplate;
#X msg 60 197 top-canvas nested-canvas 300 200;
#N canvas 0 22 450 300 meta 0;
#X text 10 10 fd_lib - metadata file - Fri Sep 13 18:19:30 EDT 2019
;
#X text 10 25 patch_name : fd_guiTemplate;
#X text 10 40 inlet : 1;
#X text 10 55 outlet : 0;
#X text 10 70 inlet~ : 0;
#X text 10 85 outlet~ : 0;
#X text 10 100 arguments : 0;
#X text 10 115 classes used : 10;
#X text 10 130 total objects: 25;
#X text 10 145 connections : 35;
#X text 10 160 dependencies : 0 [0];
#X text 10 175 externals : 0 [0];
#X text 10 190 internals : 10/233 [0list:t:-:pack:unpack:symbol:s:makefilename:inlet:+]
;
#X restore 438 423 pd meta;
#X connect 16 0 15 0;
