#N canvas 500 50 530 480 12;
#X declare -path fd_lib;
#X obj 4 4 cnv 15 522 30 empty empty "fd_visera" 20 15 0 15 -228856
-1 0;
#X obj 4 254 cnv 15 522 20 empty empty arguments: 10 10 0 14 -228856
-1 0;
#X obj 4 314 cnv 15 522 20 empty empty inlets: 10 10 0 14 -228856 -1
0;
#X obj 4 374 cnv 15 522 20 empty empty outlets: 10 10 0 14 -228856
-1 0;
#X obj 4 453 cnv 15 522 20 empty empty version 10 10 0 14 -228856 -1
0;
#X obj 380 8 declare -path fd_lib;
#N canvas 0 22 450 300 meta 0;
#X text 10 10 fd_lib - metadata file - Sun Sep 29 23:48:10 EDT 2019
;
#X text 10 25 patch_name : fd_visera;
#X text 10 40 inlet : 1;
#X text 10 55 outlet : 0;
#X text 10 70 inlet~ : 0;
#X text 10 85 outlet~ : 0;
#X text 10 100 arguments : 1;
#X text 10 115 classes used : 5;
#X text 10 130 total objects: 5;
#X text 10 145 connections : 7;
#X text 10 160 dependencies : 0 [0];
#X text 10 175 externals : 0 [0];
#X text 10 190 internals : 5/233 [0t:symbol:s:inlet:f];
#X restore 438 423 pd meta;
#X text 440 452 fd_lib v0.1;
#X text 60 410 0 outlets;
#N canvas 0 23 450 300 tester 0;
#X restore 376 114 pd tester;
#X text 10 40 Utility to open or close canvases;
#X msg 16 82 tester;
#X obj 16 121 fd_visera 1;
#X msg 124 82 tester;
#X obj 124 121 fd_visera 0;
#X text 60 284 1: float: 1|0 vis flag;
#X text 60 340 1: symbol: subpatch name;
#X connect 11 0 12 0;
#X connect 13 0 14 0;
