#N canvas 468 22 812 726 12;
#X obj 244 401 list;
#X obj 231 344 list;
#X msg 338 435 0;
#X obj 231 461 t a b;
#X obj 280 489 f;
#X obj 315 488 + 1;
#X obj 231 369 t a b b, f 18;
#X obj 231 519 list prepend;
#X obj 60 48 inlet gemlist;
#X obj 372 690 outlet tracks;
#X obj 568 690 outlet max;
#X obj 324 343 change;
#X obj 231 436 list split 8;
#X obj 60 91 t a b;
#X obj 267 22 loadbang;
#X obj 259 108 sel;
#X obj 292 108 sel;
#X obj 270 132 pack;
#X obj 439 13 inlet blobtracks;
#X msg 379 182 threshold \$1;
#X msg 493 182 blobSize \$1;
#X obj 372 584 t a a;
#X obj 231 308 t b f f, f 39;
#X obj 409 607 spigot 1;
#X obj 526 606 spigot 1;
#X obj 532 414 t f f f;
#X msg 606 609 all 0;
#X msg 526 565 all \$1;
#X obj 267 47 pack \$2 \$3 \$1;
#X obj 259 83 unpack f f f;
#X msg 450 261 dimen \$1;
#X obj 146 75 list split 2;
#X obj 628 273 t a a;
#X obj 604 367 list trim;
#X obj 604 342 list prepend all;
#X obj 439 38 route threshold blobSize view dimen translate;
#X obj 95 150 unpack;
#X obj 60 178 translateXYZ 0 0 0;
#X obj 231 250 list split 2;
#X obj 231 222 route matrix;
#X obj 231 275 list split 1;
#X obj 60 629 outlet gemlist;
#X obj 60 202 pix_multiblob \$1;
#X obj 60 126 pix_snap 0 0 500 500;
#X obj 372 551 tracks2;
#X obj 409 642 clone fd_blobb \$1 \$4 \$5 \$6;
#X connect 0 0 12 0;
#X connect 1 0 6 0;
#X connect 2 0 4 1;
#X connect 3 0 7 0;
#X connect 3 1 4 0;
#X connect 4 0 5 0;
#X connect 4 0 7 1;
#X connect 5 0 4 1;
#X connect 6 0 12 0;
#X connect 6 1 2 0;
#X connect 6 2 44 0;
#X connect 7 0 44 0;
#X connect 8 0 13 0;
#X connect 11 0 12 1;
#X connect 12 0 3 0;
#X connect 12 1 0 0;
#X connect 13 0 43 0;
#X connect 13 1 43 0;
#X connect 14 0 28 0;
#X connect 15 1 17 0;
#X connect 16 1 17 1;
#X connect 17 0 43 2;
#X connect 18 0 35 0;
#X connect 19 0 42 0;
#X connect 20 0 42 0;
#X connect 21 0 9 0;
#X connect 21 1 23 0;
#X connect 22 0 1 0;
#X connect 22 1 27 0;
#X connect 22 2 10 0;
#X connect 23 0 45 0;
#X connect 24 0 45 1;
#X connect 25 0 26 0;
#X connect 25 1 23 1;
#X connect 25 2 24 1;
#X connect 26 0 45 1;
#X connect 27 0 24 0;
#X connect 28 0 29 0;
#X connect 29 0 15 0;
#X connect 29 1 16 0;
#X connect 29 2 30 0;
#X connect 30 0 44 0;
#X connect 31 0 43 1;
#X connect 31 1 43 2;
#X connect 32 0 31 0;
#X connect 32 1 34 0;
#X connect 33 0 45 2;
#X connect 34 0 33 0;
#X connect 35 0 19 0;
#X connect 35 1 20 0;
#X connect 35 2 25 0;
#X connect 35 3 32 0;
#X connect 35 4 36 0;
#X connect 35 5 44 0;
#X connect 36 0 37 1;
#X connect 36 1 37 2;
#X connect 37 0 42 0;
#X connect 38 0 40 0;
#X connect 38 1 1 1;
#X connect 39 0 38 0;
#X connect 40 0 22 0;
#X connect 40 1 11 0;
#X connect 42 0 41 0;
#X connect 42 1 39 0;
#X connect 43 0 37 0;
#X connect 44 0 21 0;
