#N struct color-tester float x float y float color;
#N canvas 325 10 195 40 12;
#N canvas 83 29 402 464 fd_colorpicker-guts 1;
#N canvas 0 22 493 279 template 0;
#X obj 21 25 struct color-tester float x float y float color;
#N canvas 560 29 601 686 append-colors 0;
#X obj 138 561 pack f f f;
#X msg 131 20 10;
#X obj 131 46 fd_iterate;
#X msg 133 94 10;
#X obj 133 119 fd_iterate;
#X obj 131 71 t b f;
#X msg 133 170 10;
#X obj 133 195 fd_iterate;
#X obj 133 145 t b f;
#X obj 133 220 fd_rgbcol;
#X obj 133 446 f;
#X obj 256 445 f;
#X msg 242 374 0;
#X obj 265 27 inlet;
#X obj 133 293 f;
#X obj 169 293 + 1;
#X obj 133 245 t b f;
#X obj 133 349 sel;
#X obj 133 374 t b b;
#X msg 133 399 0;
#X obj 179 374 bang;
#X msg 312 594 traverse pd-color-picker \, bang;
#X obj 312 619 pointer;
#X obj 132 648 append color-tester x y color;
#X obj 266 58 t b b b b;
#X msg 335 88 \; pd-color-picker clear \;;
#X obj 133 324 mod 16;
#X obj 166 446 + 10;
#X obj 289 445 + 10;
#X obj 246 477 + 10;
#X obj 133 473 + 10;
#X connect 0 0 23 0;
#X connect 1 0 2 0;
#X connect 2 0 5 0;
#X connect 3 0 4 0;
#X connect 4 0 8 0;
#X connect 5 0 3 0;
#X connect 5 1 9 2;
#X connect 6 0 7 0;
#X connect 7 0 9 0;
#X connect 8 0 6 0;
#X connect 8 1 9 1;
#X connect 9 0 16 0;
#X connect 10 0 27 0;
#X connect 10 0 30 0;
#X connect 11 0 28 0;
#X connect 11 0 29 0;
#X connect 12 0 11 1;
#X connect 12 0 10 1;
#X connect 12 0 0 2;
#X connect 12 0 14 1;
#X connect 12 0 0 1;
#X connect 13 0 24 0;
#X connect 14 0 15 0;
#X connect 14 0 26 0;
#X connect 15 0 14 1;
#X connect 16 0 14 0;
#X connect 16 1 0 2;
#X connect 17 0 18 0;
#X connect 17 1 20 0;
#X connect 18 0 19 0;
#X connect 18 1 11 0;
#X connect 19 0 10 0;
#X connect 20 0 10 0;
#X connect 21 0 22 0;
#X connect 22 0 23 3;
#X connect 24 0 1 0;
#X connect 24 1 12 0;
#X connect 24 2 21 0;
#X connect 24 3 25 0;
#X connect 26 0 17 0;
#X connect 27 0 10 1;
#X connect 28 0 11 1;
#X connect 29 0 0 1;
#X connect 30 0 0 0;
#X restore 27 217 pd append-colors;
#X obj 27 190 inlet;
#X obj 21 50 route click;
#X obj 21 75 get color-tester color;
#X obj 21 100 s fd_color;
#X obj 22 147 filledpolygon color color 0 0 0 0 8 8 8 8 0 0 0;
#X connect 0 0 3 0;
#X connect 2 0 1 0;
#X connect 3 0 4 0;
#X connect 4 0 5 0;
#X restore 20 366 pd template;
#X obj 20 12 loadbang;
#N canvas 325 80 195 370 color-picker 1;
#X scalar color-tester 10 10 990 \;;
#X scalar color-tester 20 10 900 \;;
#X scalar color-tester 30 10 0 \;;
#X scalar color-tester 40 10 100 \;;
#X scalar color-tester 50 10 200 \;;
#X scalar color-tester 60 10 300 \;;
#X scalar color-tester 70 10 400 \;;
#X scalar color-tester 80 10 500 \;;
#X scalar color-tester 90 10 600 \;;
#X scalar color-tester 100 10 700 \;;
#X scalar color-tester 110 10 800 \;;
#X scalar color-tester 120 10 900 \;;
#X scalar color-tester 130 10 910 \;;
#X scalar color-tester 140 10 10 \;;
#X scalar color-tester 150 10 110 \;;
#X scalar color-tester 160 10 210 \;;
#X scalar color-tester 10 20 310 \;;
#X scalar color-tester 20 20 410 \;;
#X scalar color-tester 30 20 510 \;;
#X scalar color-tester 40 20 610 \;;
#X scalar color-tester 50 20 710 \;;
#X scalar color-tester 60 20 810 \;;
#X scalar color-tester 70 20 910 \;;
#X scalar color-tester 80 20 920 \;;
#X scalar color-tester 90 20 20 \;;
#X scalar color-tester 100 20 120 \;;
#X scalar color-tester 110 20 220 \;;
#X scalar color-tester 120 20 320 \;;
#X scalar color-tester 130 20 420 \;;
#X scalar color-tester 140 20 520 \;;
#X scalar color-tester 150 20 620 \;;
#X scalar color-tester 160 20 720 \;;
#X scalar color-tester 10 30 820 \;;
#X scalar color-tester 20 30 920 \;;
#X scalar color-tester 30 30 930 \;;
#X scalar color-tester 40 30 30 \;;
#X scalar color-tester 50 30 130 \;;
#X scalar color-tester 60 30 230 \;;
#X scalar color-tester 70 30 330 \;;
#X scalar color-tester 80 30 430 \;;
#X scalar color-tester 90 30 530 \;;
#X scalar color-tester 100 30 630 \;;
#X scalar color-tester 110 30 730 \;;
#X scalar color-tester 120 30 830 \;;
#X scalar color-tester 130 30 930 \;;
#X scalar color-tester 140 30 940 \;;
#X scalar color-tester 150 30 40 \;;
#X scalar color-tester 160 30 140 \;;
#X scalar color-tester 10 40 240 \;;
#X scalar color-tester 20 40 340 \;;
#X scalar color-tester 30 40 440 \;;
#X scalar color-tester 40 40 540 \;;
#X scalar color-tester 50 40 640 \;;
#X scalar color-tester 60 40 740 \;;
#X scalar color-tester 70 40 840 \;;
#X scalar color-tester 80 40 940 \;;
#X scalar color-tester 90 40 950 \;;
#X scalar color-tester 100 40 50 \;;
#X scalar color-tester 110 40 150 \;;
#X scalar color-tester 120 40 250 \;;
#X scalar color-tester 130 40 350 \;;
#X scalar color-tester 140 40 450 \;;
#X scalar color-tester 150 40 550 \;;
#X scalar color-tester 160 40 650 \;;
#X scalar color-tester 10 50 750 \;;
#X scalar color-tester 20 50 850 \;;
#X scalar color-tester 30 50 950 \;;
#X scalar color-tester 40 50 960 \;;
#X scalar color-tester 50 50 60 \;;
#X scalar color-tester 60 50 160 \;;
#X scalar color-tester 70 50 260 \;;
#X scalar color-tester 80 50 360 \;;
#X scalar color-tester 90 50 460 \;;
#X scalar color-tester 100 50 560 \;;
#X scalar color-tester 110 50 660 \;;
#X scalar color-tester 120 50 760 \;;
#X scalar color-tester 130 50 860 \;;
#X scalar color-tester 140 50 960 \;;
#X scalar color-tester 150 50 970 \;;
#X scalar color-tester 160 50 70 \;;
#X scalar color-tester 10 60 170 \;;
#X scalar color-tester 20 60 270 \;;
#X scalar color-tester 30 60 370 \;;
#X scalar color-tester 40 60 470 \;;
#X scalar color-tester 50 60 570 \;;
#X scalar color-tester 60 60 670 \;;
#X scalar color-tester 70 60 770 \;;
#X scalar color-tester 80 60 870 \;;
#X scalar color-tester 90 60 970 \;;
#X scalar color-tester 100 60 980 \;;
#X scalar color-tester 110 60 80 \;;
#X scalar color-tester 120 60 180 \;;
#X scalar color-tester 130 60 280 \;;
#X scalar color-tester 140 60 380 \;;
#X scalar color-tester 150 60 480 \;;
#X scalar color-tester 160 60 580 \;;
#X scalar color-tester 10 70 680 \;;
#X scalar color-tester 20 70 780 \;;
#X scalar color-tester 30 70 880 \;;
#X scalar color-tester 40 70 980 \;;
#X scalar color-tester 50 70 990 \;;
#X scalar color-tester 60 70 90 \;;
#X scalar color-tester 70 70 190 \;;
#X scalar color-tester 80 70 290 \;;
#X scalar color-tester 90 70 390 \;;
#X scalar color-tester 100 70 490 \;;
#X scalar color-tester 110 70 590 \;;
#X scalar color-tester 120 70 690 \;;
#X scalar color-tester 130 70 790 \;;
#X scalar color-tester 140 70 890 \;;
#X scalar color-tester 150 70 990 \;;
#X scalar color-tester 160 70 991 \;;
#X scalar color-tester 10 80 901 \;;
#X scalar color-tester 20 80 1 \;;
#X scalar color-tester 30 80 101 \;;
#X scalar color-tester 40 80 201 \;;
#X scalar color-tester 50 80 301 \;;
#X scalar color-tester 60 80 401 \;;
#X scalar color-tester 70 80 501 \;;
#X scalar color-tester 80 80 601 \;;
#X scalar color-tester 90 80 701 \;;
#X scalar color-tester 100 80 801 \;;
#X scalar color-tester 110 80 901 \;;
#X scalar color-tester 120 80 911 \;;
#X scalar color-tester 130 80 11 \;;
#X scalar color-tester 140 80 111 \;;
#X scalar color-tester 150 80 211 \;;
#X scalar color-tester 160 80 311 \;;
#X scalar color-tester 10 90 411 \;;
#X scalar color-tester 20 90 511 \;;
#X scalar color-tester 30 90 611 \;;
#X scalar color-tester 40 90 711 \;;
#X scalar color-tester 50 90 811 \;;
#X scalar color-tester 60 90 911 \;;
#X scalar color-tester 70 90 921 \;;
#X scalar color-tester 80 90 21 \;;
#X scalar color-tester 90 90 121 \;;
#X scalar color-tester 100 90 221 \;;
#X scalar color-tester 110 90 321 \;;
#X scalar color-tester 120 90 421 \;;
#X scalar color-tester 130 90 521 \;;
#X scalar color-tester 140 90 621 \;;
#X scalar color-tester 150 90 721 \;;
#X scalar color-tester 160 90 821 \;;
#X scalar color-tester 10 100 921 \;;
#X scalar color-tester 20 100 931 \;;
#X scalar color-tester 30 100 31 \;;
#X scalar color-tester 40 100 131 \;;
#X scalar color-tester 50 100 231 \;;
#X scalar color-tester 60 100 331 \;;
#X scalar color-tester 70 100 431 \;;
#X scalar color-tester 80 100 531 \;;
#X scalar color-tester 90 100 631 \;;
#X scalar color-tester 100 100 731 \;;
#X scalar color-tester 110 100 831 \;;
#X scalar color-tester 120 100 931 \;;
#X scalar color-tester 130 100 941 \;;
#X scalar color-tester 140 100 41 \;;
#X scalar color-tester 150 100 141 \;;
#X scalar color-tester 160 100 241 \;;
#X scalar color-tester 10 110 341 \;;
#X scalar color-tester 20 110 441 \;;
#X scalar color-tester 30 110 541 \;;
#X scalar color-tester 40 110 641 \;;
#X scalar color-tester 50 110 741 \;;
#X scalar color-tester 60 110 841 \;;
#X scalar color-tester 70 110 941 \;;
#X scalar color-tester 80 110 951 \;;
#X scalar color-tester 90 110 51 \;;
#X scalar color-tester 100 110 151 \;;
#X scalar color-tester 110 110 251 \;;
#X scalar color-tester 120 110 351 \;;
#X scalar color-tester 130 110 451 \;;
#X scalar color-tester 140 110 551 \;;
#X scalar color-tester 150 110 651 \;;
#X scalar color-tester 160 110 751 \;;
#X scalar color-tester 10 120 851 \;;
#X scalar color-tester 20 120 951 \;;
#X scalar color-tester 30 120 961 \;;
#X scalar color-tester 40 120 61 \;;
#X scalar color-tester 50 120 161 \;;
#X scalar color-tester 60 120 261 \;;
#X scalar color-tester 70 120 361 \;;
#X scalar color-tester 80 120 461 \;;
#X scalar color-tester 90 120 561 \;;
#X scalar color-tester 100 120 661 \;;
#X scalar color-tester 110 120 761 \;;
#X scalar color-tester 120 120 861 \;;
#X scalar color-tester 130 120 961 \;;
#X scalar color-tester 140 120 971 \;;
#X scalar color-tester 150 120 71 \;;
#X scalar color-tester 160 120 171 \;;
#X scalar color-tester 10 130 271 \;;
#X scalar color-tester 20 130 371 \;;
#X scalar color-tester 30 130 471 \;;
#X scalar color-tester 40 130 571 \;;
#X scalar color-tester 50 130 671 \;;
#X scalar color-tester 60 130 771 \;;
#X scalar color-tester 70 130 871 \;;
#X scalar color-tester 80 130 971 \;;
#X scalar color-tester 90 130 981 \;;
#X scalar color-tester 100 130 81 \;;
#X scalar color-tester 110 130 181 \;;
#X scalar color-tester 120 130 281 \;;
#X scalar color-tester 130 130 381 \;;
#X scalar color-tester 140 130 481 \;;
#X scalar color-tester 150 130 581 \;;
#X scalar color-tester 160 130 681 \;;
#X scalar color-tester 10 140 781 \;;
#X scalar color-tester 20 140 881 \;;
#X scalar color-tester 30 140 981 \;;
#X scalar color-tester 40 140 991 \;;
#X scalar color-tester 50 140 91 \;;
#X scalar color-tester 60 140 191 \;;
#X scalar color-tester 70 140 291 \;;
#X scalar color-tester 80 140 391 \;;
#X scalar color-tester 90 140 491 \;;
#X scalar color-tester 100 140 591 \;;
#X scalar color-tester 110 140 691 \;;
#X scalar color-tester 120 140 791 \;;
#X scalar color-tester 130 140 891 \;;
#X scalar color-tester 140 140 991 \;;
#X scalar color-tester 150 140 992 \;;
#X scalar color-tester 160 140 902 \;;
#X scalar color-tester 10 150 2 \;;
#X scalar color-tester 20 150 102 \;;
#X scalar color-tester 30 150 202 \;;
#X scalar color-tester 40 150 302 \;;
#X scalar color-tester 50 150 402 \;;
#X scalar color-tester 60 150 502 \;;
#X scalar color-tester 70 150 602 \;;
#X scalar color-tester 80 150 702 \;;
#X scalar color-tester 90 150 802 \;;
#X scalar color-tester 100 150 902 \;;
#X scalar color-tester 110 150 912 \;;
#X scalar color-tester 120 150 12 \;;
#X scalar color-tester 130 150 112 \;;
#X scalar color-tester 140 150 212 \;;
#X scalar color-tester 150 150 312 \;;
#X scalar color-tester 160 150 412 \;;
#X scalar color-tester 10 160 512 \;;
#X scalar color-tester 20 160 612 \;;
#X scalar color-tester 30 160 712 \;;
#X scalar color-tester 40 160 812 \;;
#X scalar color-tester 50 160 912 \;;
#X scalar color-tester 60 160 922 \;;
#X scalar color-tester 70 160 22 \;;
#X scalar color-tester 80 160 122 \;;
#X scalar color-tester 90 160 222 \;;
#X scalar color-tester 100 160 322 \;;
#X scalar color-tester 110 160 422 \;;
#X scalar color-tester 120 160 522 \;;
#X scalar color-tester 130 160 622 \;;
#X scalar color-tester 140 160 722 \;;
#X scalar color-tester 150 160 822 \;;
#X scalar color-tester 160 160 922 \;;
#X scalar color-tester 10 170 932 \;;
#X scalar color-tester 20 170 32 \;;
#X scalar color-tester 30 170 132 \;;
#X scalar color-tester 40 170 232 \;;
#X scalar color-tester 50 170 332 \;;
#X scalar color-tester 60 170 432 \;;
#X scalar color-tester 70 170 532 \;;
#X scalar color-tester 80 170 632 \;;
#X scalar color-tester 90 170 732 \;;
#X scalar color-tester 100 170 832 \;;
#X scalar color-tester 110 170 932 \;;
#X scalar color-tester 120 170 942 \;;
#X scalar color-tester 130 170 42 \;;
#X scalar color-tester 140 170 142 \;;
#X scalar color-tester 150 170 242 \;;
#X scalar color-tester 160 170 342 \;;
#X scalar color-tester 10 180 442 \;;
#X scalar color-tester 20 180 542 \;;
#X scalar color-tester 30 180 642 \;;
#X scalar color-tester 40 180 742 \;;
#X scalar color-tester 50 180 842 \;;
#X scalar color-tester 60 180 942 \;;
#X scalar color-tester 70 180 952 \;;
#X scalar color-tester 80 180 52 \;;
#X scalar color-tester 90 180 152 \;;
#X scalar color-tester 100 180 252 \;;
#X scalar color-tester 110 180 352 \;;
#X scalar color-tester 120 180 452 \;;
#X scalar color-tester 130 180 552 \;;
#X scalar color-tester 140 180 652 \;;
#X scalar color-tester 150 180 752 \;;
#X scalar color-tester 160 180 852 \;;
#X scalar color-tester 10 190 952 \;;
#X scalar color-tester 20 190 962 \;;
#X scalar color-tester 30 190 62 \;;
#X scalar color-tester 40 190 162 \;;
#X scalar color-tester 50 190 262 \;;
#X scalar color-tester 60 190 362 \;;
#X scalar color-tester 70 190 462 \;;
#X scalar color-tester 80 190 562 \;;
#X scalar color-tester 90 190 662 \;;
#X scalar color-tester 100 190 762 \;;
#X scalar color-tester 110 190 862 \;;
#X scalar color-tester 120 190 962 \;;
#X scalar color-tester 130 190 972 \;;
#X scalar color-tester 140 190 72 \;;
#X scalar color-tester 150 190 172 \;;
#X scalar color-tester 160 190 272 \;;
#X scalar color-tester 10 200 372 \;;
#X scalar color-tester 20 200 472 \;;
#X scalar color-tester 30 200 572 \;;
#X scalar color-tester 40 200 672 \;;
#X scalar color-tester 50 200 772 \;;
#X scalar color-tester 60 200 872 \;;
#X scalar color-tester 70 200 972 \;;
#X scalar color-tester 80 200 982 \;;
#X scalar color-tester 90 200 82 \;;
#X scalar color-tester 100 200 182 \;;
#X scalar color-tester 110 200 282 \;;
#X scalar color-tester 120 200 382 \;;
#X scalar color-tester 130 200 482 \;;
#X scalar color-tester 140 200 582 \;;
#X scalar color-tester 150 200 682 \;;
#X scalar color-tester 160 200 782 \;;
#X scalar color-tester 10 210 882 \;;
#X scalar color-tester 20 210 982 \;;
#X scalar color-tester 30 210 992 \;;
#X scalar color-tester 40 210 92 \;;
#X scalar color-tester 50 210 192 \;;
#X scalar color-tester 60 210 292 \;;
#X scalar color-tester 70 210 392 \;;
#X scalar color-tester 80 210 492 \;;
#X scalar color-tester 90 210 592 \;;
#X scalar color-tester 100 210 692 \;;
#X scalar color-tester 110 210 792 \;;
#X scalar color-tester 120 210 892 \;;
#X scalar color-tester 130 210 992 \;;
#X scalar color-tester 140 210 993 \;;
#X scalar color-tester 150 210 903 \;;
#X scalar color-tester 160 210 3 \;;
#X scalar color-tester 10 220 103 \;;
#X scalar color-tester 20 220 203 \;;
#X scalar color-tester 30 220 303 \;;
#X scalar color-tester 40 220 403 \;;
#X scalar color-tester 50 220 503 \;;
#X scalar color-tester 60 220 603 \;;
#X scalar color-tester 70 220 703 \;;
#X scalar color-tester 80 220 803 \;;
#X scalar color-tester 90 220 903 \;;
#X scalar color-tester 100 220 913 \;;
#X scalar color-tester 110 220 13 \;;
#X scalar color-tester 120 220 113 \;;
#X scalar color-tester 130 220 213 \;;
#X scalar color-tester 140 220 313 \;;
#X scalar color-tester 150 220 413 \;;
#X scalar color-tester 160 220 513 \;;
#X scalar color-tester 10 230 613 \;;
#X scalar color-tester 20 230 713 \;;
#X scalar color-tester 30 230 813 \;;
#X scalar color-tester 40 230 913 \;;
#X scalar color-tester 50 230 923 \;;
#X scalar color-tester 60 230 23 \;;
#X scalar color-tester 70 230 123 \;;
#X scalar color-tester 80 230 223 \;;
#X scalar color-tester 90 230 323 \;;
#X scalar color-tester 100 230 423 \;;
#X scalar color-tester 110 230 523 \;;
#X scalar color-tester 120 230 623 \;;
#X scalar color-tester 130 230 723 \;;
#X scalar color-tester 140 230 823 \;;
#X scalar color-tester 150 230 923 \;;
#X scalar color-tester 160 230 933 \;;
#X scalar color-tester 10 240 33 \;;
#X scalar color-tester 20 240 133 \;;
#X scalar color-tester 30 240 233 \;;
#X scalar color-tester 40 240 333 \;;
#X scalar color-tester 50 240 433 \;;
#X scalar color-tester 60 240 533 \;;
#X scalar color-tester 70 240 633 \;;
#X scalar color-tester 80 240 733 \;;
#X scalar color-tester 90 240 833 \;;
#X scalar color-tester 100 240 933 \;;
#X scalar color-tester 110 240 943 \;;
#X scalar color-tester 120 240 43 \;;
#X scalar color-tester 130 240 143 \;;
#X scalar color-tester 140 240 243 \;;
#X scalar color-tester 150 240 343 \;;
#X scalar color-tester 160 240 443 \;;
#X scalar color-tester 10 250 543 \;;
#X scalar color-tester 20 250 643 \;;
#X scalar color-tester 30 250 743 \;;
#X scalar color-tester 40 250 843 \;;
#X scalar color-tester 50 250 943 \;;
#X scalar color-tester 60 250 953 \;;
#X scalar color-tester 70 250 53 \;;
#X scalar color-tester 80 250 153 \;;
#X scalar color-tester 90 250 253 \;;
#X scalar color-tester 100 250 353 \;;
#X scalar color-tester 110 250 453 \;;
#X scalar color-tester 120 250 553 \;;
#X scalar color-tester 130 250 653 \;;
#X scalar color-tester 140 250 753 \;;
#X scalar color-tester 150 250 853 \;;
#X scalar color-tester 160 250 953 \;;
#X scalar color-tester 10 260 963 \;;
#X scalar color-tester 20 260 63 \;;
#X scalar color-tester 30 260 163 \;;
#X scalar color-tester 40 260 263 \;;
#X scalar color-tester 50 260 363 \;;
#X scalar color-tester 60 260 463 \;;
#X scalar color-tester 70 260 563 \;;
#X scalar color-tester 80 260 663 \;;
#X scalar color-tester 90 260 763 \;;
#X scalar color-tester 100 260 863 \;;
#X scalar color-tester 110 260 963 \;;
#X scalar color-tester 120 260 973 \;;
#X scalar color-tester 130 260 73 \;;
#X scalar color-tester 140 260 173 \;;
#X scalar color-tester 150 260 273 \;;
#X scalar color-tester 160 260 373 \;;
#X scalar color-tester 10 270 473 \;;
#X scalar color-tester 20 270 573 \;;
#X scalar color-tester 30 270 673 \;;
#X scalar color-tester 40 270 773 \;;
#X scalar color-tester 50 270 873 \;;
#X scalar color-tester 60 270 973 \;;
#X scalar color-tester 70 270 983 \;;
#X scalar color-tester 80 270 83 \;;
#X scalar color-tester 90 270 183 \;;
#X scalar color-tester 100 270 283 \;;
#X scalar color-tester 110 270 383 \;;
#X scalar color-tester 120 270 483 \;;
#X scalar color-tester 130 270 583 \;;
#X scalar color-tester 140 270 683 \;;
#X scalar color-tester 150 270 783 \;;
#X scalar color-tester 160 270 883 \;;
#X scalar color-tester 10 280 983 \;;
#X scalar color-tester 20 280 993 \;;
#X scalar color-tester 30 280 93 \;;
#X scalar color-tester 40 280 193 \;;
#X scalar color-tester 50 280 293 \;;
#X scalar color-tester 60 280 393 \;;
#X scalar color-tester 70 280 493 \;;
#X scalar color-tester 80 280 593 \;;
#X scalar color-tester 90 280 693 \;;
#X scalar color-tester 100 280 793 \;;
#X scalar color-tester 110 280 893 \;;
#X scalar color-tester 120 280 993 \;;
#X scalar color-tester 130 280 994 \;;
#X scalar color-tester 140 280 904 \;;
#X scalar color-tester 150 280 4 \;;
#X scalar color-tester 160 280 104 \;;
#X scalar color-tester 10 290 204 \;;
#X scalar color-tester 20 290 304 \;;
#X scalar color-tester 30 290 404 \;;
#X scalar color-tester 40 290 504 \;;
#X scalar color-tester 50 290 604 \;;
#X scalar color-tester 60 290 704 \;;
#X scalar color-tester 70 290 804 \;;
#X scalar color-tester 80 290 904 \;;
#X scalar color-tester 90 290 914 \;;
#X scalar color-tester 100 290 14 \;;
#X scalar color-tester 110 290 114 \;;
#X scalar color-tester 120 290 214 \;;
#X scalar color-tester 130 290 314 \;;
#X scalar color-tester 140 290 414 \;;
#X scalar color-tester 150 290 514 \;;
#X scalar color-tester 160 290 614 \;;
#X scalar color-tester 10 300 714 \;;
#X scalar color-tester 20 300 814 \;;
#X scalar color-tester 30 300 914 \;;
#X scalar color-tester 40 300 924 \;;
#X scalar color-tester 50 300 24 \;;
#X scalar color-tester 60 300 124 \;;
#X scalar color-tester 70 300 224 \;;
#X scalar color-tester 80 300 324 \;;
#X scalar color-tester 90 300 424 \;;
#X scalar color-tester 100 300 524 \;;
#X scalar color-tester 110 300 624 \;;
#X scalar color-tester 120 300 724 \;;
#X scalar color-tester 130 300 824 \;;
#X scalar color-tester 140 300 924 \;;
#X scalar color-tester 150 300 934 \;;
#X scalar color-tester 160 300 34 \;;
#X scalar color-tester 10 310 134 \;;
#X scalar color-tester 20 310 234 \;;
#X scalar color-tester 30 310 334 \;;
#X scalar color-tester 40 310 434 \;;
#X scalar color-tester 50 310 534 \;;
#X scalar color-tester 60 310 634 \;;
#X scalar color-tester 70 310 734 \;;
#X scalar color-tester 80 310 834 \;;
#X scalar color-tester 90 310 934 \;;
#X scalar color-tester 100 310 944 \;;
#X scalar color-tester 110 310 44 \;;
#X scalar color-tester 120 310 144 \;;
#X scalar color-tester 130 310 244 \;;
#X scalar color-tester 140 310 344 \;;
#X scalar color-tester 150 310 444 \;;
#X scalar color-tester 160 310 544 \;;
#X scalar color-tester 10 320 644 \;;
#X scalar color-tester 20 320 744 \;;
#X scalar color-tester 30 320 844 \;;
#X scalar color-tester 40 320 944 \;;
#X scalar color-tester 50 320 954 \;;
#X scalar color-tester 60 320 54 \;;
#X scalar color-tester 70 320 154 \;;
#X scalar color-tester 80 320 254 \;;
#X scalar color-tester 90 320 354 \;;
#X scalar color-tester 100 320 454 \;;
#X scalar color-tester 110 320 554 \;;
#X scalar color-tester 120 320 654 \;;
#X scalar color-tester 130 320 754 \;;
#X scalar color-tester 140 320 854 \;;
#X scalar color-tester 150 320 954 \;;
#X scalar color-tester 160 320 964 \;;
#X scalar color-tester 10 330 64 \;;
#X scalar color-tester 20 330 164 \;;
#X scalar color-tester 30 330 264 \;;
#X scalar color-tester 40 330 364 \;;
#X scalar color-tester 50 330 464 \;;
#X scalar color-tester 60 330 564 \;;
#X scalar color-tester 70 330 664 \;;
#X scalar color-tester 80 330 764 \;;
#X scalar color-tester 90 330 864 \;;
#X scalar color-tester 100 330 964 \;;
#X scalar color-tester 110 330 974 \;;
#X scalar color-tester 120 330 74 \;;
#X scalar color-tester 130 330 174 \;;
#X scalar color-tester 140 330 274 \;;
#X scalar color-tester 150 330 374 \;;
#X scalar color-tester 160 330 474 \;;
#X scalar color-tester 10 340 574 \;;
#X scalar color-tester 20 340 674 \;;
#X scalar color-tester 30 340 774 \;;
#X scalar color-tester 40 340 874 \;;
#X scalar color-tester 50 340 974 \;;
#X scalar color-tester 60 340 984 \;;
#X scalar color-tester 70 340 84 \;;
#X scalar color-tester 80 340 184 \;;
#X scalar color-tester 90 340 284 \;;
#X scalar color-tester 100 340 384 \;;
#X scalar color-tester 110 340 484 \;;
#X scalar color-tester 120 340 584 \;;
#X scalar color-tester 130 340 684 \;;
#X scalar color-tester 140 340 784 \;;
#X scalar color-tester 150 340 884 \;;
#X scalar color-tester 160 340 984 \;;
#X scalar color-tester 10 350 994 \;;
#X scalar color-tester 20 350 94 \;;
#X scalar color-tester 30 350 194 \;;
#X scalar color-tester 40 350 294 \;;
#X scalar color-tester 50 350 394 \;;
#X scalar color-tester 60 350 494 \;;
#X scalar color-tester 70 350 594 \;;
#X scalar color-tester 80 350 694 \;;
#X scalar color-tester 90 350 794 \;;
#X scalar color-tester 100 350 894 \;;
#X scalar color-tester 110 350 994 \;;
#X scalar color-tester 120 350 995 \;;
#X scalar color-tester 130 350 905 \;;
#X scalar color-tester 140 350 5 \;;
#X scalar color-tester 150 350 105 \;;
#X scalar color-tester 160 350 205 \;;
#X scalar color-tester 10 360 305 \;;
#X scalar color-tester 20 360 405 \;;
#X scalar color-tester 30 360 505 \;;
#X scalar color-tester 40 360 605 \;;
#X scalar color-tester 50 360 705 \;;
#X scalar color-tester 60 360 805 \;;
#X scalar color-tester 70 360 905 \;;
#X scalar color-tester 80 360 915 \;;
#X scalar color-tester 90 360 15 \;;
#X scalar color-tester 100 360 115 \;;
#X scalar color-tester 110 360 215 \;;
#X scalar color-tester 120 360 315 \;;
#X scalar color-tester 130 360 415 \;;
#X scalar color-tester 140 360 515 \;;
#X scalar color-tester 150 360 615 \;;
#X scalar color-tester 160 360 715 \;;
#X scalar color-tester 10 370 815 \;;
#X scalar color-tester 20 370 915 \;;
#X scalar color-tester 30 370 925 \;;
#X scalar color-tester 40 370 25 \;;
#X scalar color-tester 50 370 125 \;;
#X scalar color-tester 60 370 225 \;;
#X scalar color-tester 70 370 325 \;;
#X scalar color-tester 80 370 425 \;;
#X scalar color-tester 90 370 525 \;;
#X scalar color-tester 100 370 625 \;;
#X scalar color-tester 110 370 725 \;;
#X scalar color-tester 120 370 825 \;;
#X scalar color-tester 130 370 925 \;;
#X scalar color-tester 140 370 935 \;;
#X scalar color-tester 150 370 35 \;;
#X scalar color-tester 160 370 135 \;;
#X scalar color-tester 10 380 235 \;;
#X scalar color-tester 20 380 335 \;;
#X scalar color-tester 30 380 435 \;;
#X scalar color-tester 40 380 535 \;;
#X scalar color-tester 50 380 635 \;;
#X scalar color-tester 60 380 735 \;;
#X scalar color-tester 70 380 835 \;;
#X scalar color-tester 80 380 935 \;;
#X scalar color-tester 90 380 945 \;;
#X scalar color-tester 100 380 45 \;;
#X scalar color-tester 110 380 145 \;;
#X scalar color-tester 120 380 245 \;;
#X scalar color-tester 130 380 345 \;;
#X scalar color-tester 140 380 445 \;;
#X scalar color-tester 150 380 545 \;;
#X scalar color-tester 160 380 645 \;;
#X scalar color-tester 10 390 745 \;;
#X scalar color-tester 20 390 845 \;;
#X scalar color-tester 30 390 945 \;;
#X scalar color-tester 40 390 955 \;;
#X scalar color-tester 50 390 55 \;;
#X scalar color-tester 60 390 155 \;;
#X scalar color-tester 70 390 255 \;;
#X scalar color-tester 80 390 355 \;;
#X scalar color-tester 90 390 455 \;;
#X scalar color-tester 100 390 555 \;;
#X scalar color-tester 110 390 655 \;;
#X scalar color-tester 120 390 755 \;;
#X scalar color-tester 130 390 855 \;;
#X scalar color-tester 140 390 955 \;;
#X scalar color-tester 150 390 965 \;;
#X scalar color-tester 160 390 65 \;;
#X scalar color-tester 10 400 165 \;;
#X scalar color-tester 20 400 265 \;;
#X scalar color-tester 30 400 365 \;;
#X scalar color-tester 40 400 465 \;;
#X scalar color-tester 50 400 565 \;;
#X scalar color-tester 60 400 665 \;;
#X scalar color-tester 70 400 765 \;;
#X scalar color-tester 80 400 865 \;;
#X scalar color-tester 90 400 965 \;;
#X scalar color-tester 100 400 975 \;;
#X scalar color-tester 110 400 75 \;;
#X scalar color-tester 120 400 175 \;;
#X scalar color-tester 130 400 275 \;;
#X scalar color-tester 140 400 375 \;;
#X scalar color-tester 150 400 475 \;;
#X scalar color-tester 160 400 575 \;;
#X scalar color-tester 10 410 675 \;;
#X scalar color-tester 20 410 775 \;;
#X scalar color-tester 30 410 875 \;;
#X scalar color-tester 40 410 975 \;;
#X scalar color-tester 50 410 985 \;;
#X scalar color-tester 60 410 85 \;;
#X scalar color-tester 70 410 185 \;;
#X scalar color-tester 80 410 285 \;;
#X scalar color-tester 90 410 385 \;;
#X scalar color-tester 100 410 485 \;;
#X scalar color-tester 110 410 585 \;;
#X scalar color-tester 120 410 685 \;;
#X scalar color-tester 130 410 785 \;;
#X scalar color-tester 140 410 885 \;;
#X scalar color-tester 150 410 985 \;;
#X scalar color-tester 160 410 995 \;;
#X scalar color-tester 10 420 95 \;;
#X scalar color-tester 20 420 195 \;;
#X scalar color-tester 30 420 295 \;;
#X scalar color-tester 40 420 395 \;;
#X scalar color-tester 50 420 495 \;;
#X scalar color-tester 60 420 595 \;;
#X scalar color-tester 70 420 695 \;;
#X scalar color-tester 80 420 795 \;;
#X scalar color-tester 90 420 895 \;;
#X scalar color-tester 100 420 995 \;;
#X scalar color-tester 110 420 996 \;;
#X scalar color-tester 120 420 906 \;;
#X scalar color-tester 130 420 6 \;;
#X scalar color-tester 140 420 106 \;;
#X scalar color-tester 150 420 206 \;;
#X scalar color-tester 160 420 306 \;;
#X scalar color-tester 10 430 406 \;;
#X scalar color-tester 20 430 506 \;;
#X scalar color-tester 30 430 606 \;;
#X scalar color-tester 40 430 706 \;;
#X scalar color-tester 50 430 806 \;;
#X scalar color-tester 60 430 906 \;;
#X scalar color-tester 70 430 916 \;;
#X scalar color-tester 80 430 16 \;;
#X scalar color-tester 90 430 116 \;;
#X scalar color-tester 100 430 216 \;;
#X scalar color-tester 110 430 316 \;;
#X scalar color-tester 120 430 416 \;;
#X scalar color-tester 130 430 516 \;;
#X scalar color-tester 140 430 616 \;;
#X scalar color-tester 150 430 716 \;;
#X scalar color-tester 160 430 816 \;;
#X scalar color-tester 10 440 916 \;;
#X scalar color-tester 20 440 926 \;;
#X scalar color-tester 30 440 26 \;;
#X scalar color-tester 40 440 126 \;;
#X scalar color-tester 50 440 226 \;;
#X scalar color-tester 60 440 326 \;;
#X scalar color-tester 70 440 426 \;;
#X scalar color-tester 80 440 526 \;;
#X scalar color-tester 90 440 626 \;;
#X scalar color-tester 100 440 726 \;;
#X scalar color-tester 110 440 826 \;;
#X scalar color-tester 120 440 926 \;;
#X scalar color-tester 130 440 936 \;;
#X scalar color-tester 140 440 36 \;;
#X scalar color-tester 150 440 136 \;;
#X scalar color-tester 160 440 236 \;;
#X scalar color-tester 10 450 336 \;;
#X scalar color-tester 20 450 436 \;;
#X scalar color-tester 30 450 536 \;;
#X scalar color-tester 40 450 636 \;;
#X scalar color-tester 50 450 736 \;;
#X scalar color-tester 60 450 836 \;;
#X scalar color-tester 70 450 936 \;;
#X scalar color-tester 80 450 946 \;;
#X scalar color-tester 90 450 46 \;;
#X scalar color-tester 100 450 146 \;;
#X scalar color-tester 110 450 246 \;;
#X scalar color-tester 120 450 346 \;;
#X scalar color-tester 130 450 446 \;;
#X scalar color-tester 140 450 546 \;;
#X scalar color-tester 150 450 646 \;;
#X scalar color-tester 160 450 746 \;;
#X scalar color-tester 10 460 846 \;;
#X scalar color-tester 20 460 946 \;;
#X scalar color-tester 30 460 956 \;;
#X scalar color-tester 40 460 56 \;;
#X scalar color-tester 50 460 156 \;;
#X scalar color-tester 60 460 256 \;;
#X scalar color-tester 70 460 356 \;;
#X scalar color-tester 80 460 456 \;;
#X scalar color-tester 90 460 556 \;;
#X scalar color-tester 100 460 656 \;;
#X scalar color-tester 110 460 756 \;;
#X scalar color-tester 120 460 856 \;;
#X scalar color-tester 130 460 956 \;;
#X scalar color-tester 140 460 966 \;;
#X scalar color-tester 150 460 66 \;;
#X scalar color-tester 160 460 166 \;;
#X scalar color-tester 10 470 266 \;;
#X scalar color-tester 20 470 366 \;;
#X scalar color-tester 30 470 466 \;;
#X scalar color-tester 40 470 566 \;;
#X scalar color-tester 50 470 666 \;;
#X scalar color-tester 60 470 766 \;;
#X scalar color-tester 70 470 866 \;;
#X scalar color-tester 80 470 966 \;;
#X scalar color-tester 90 470 976 \;;
#X scalar color-tester 100 470 76 \;;
#X scalar color-tester 110 470 176 \;;
#X scalar color-tester 120 470 276 \;;
#X scalar color-tester 130 470 376 \;;
#X scalar color-tester 140 470 476 \;;
#X scalar color-tester 150 470 576 \;;
#X scalar color-tester 160 470 676 \;;
#X scalar color-tester 10 480 776 \;;
#X scalar color-tester 20 480 876 \;;
#X scalar color-tester 30 480 976 \;;
#X scalar color-tester 40 480 986 \;;
#X scalar color-tester 50 480 86 \;;
#X scalar color-tester 60 480 186 \;;
#X scalar color-tester 70 480 286 \;;
#X scalar color-tester 80 480 386 \;;
#X scalar color-tester 90 480 486 \;;
#X scalar color-tester 100 480 586 \;;
#X scalar color-tester 110 480 686 \;;
#X scalar color-tester 120 480 786 \;;
#X scalar color-tester 130 480 886 \;;
#X scalar color-tester 140 480 986 \;;
#X scalar color-tester 150 480 996 \;;
#X scalar color-tester 160 480 96 \;;
#X scalar color-tester 10 490 196 \;;
#X scalar color-tester 20 490 296 \;;
#X scalar color-tester 30 490 396 \;;
#X scalar color-tester 40 490 496 \;;
#X scalar color-tester 50 490 596 \;;
#X scalar color-tester 60 490 696 \;;
#X scalar color-tester 70 490 796 \;;
#X scalar color-tester 80 490 896 \;;
#X scalar color-tester 90 490 996 \;;
#X scalar color-tester 100 490 997 \;;
#X scalar color-tester 110 490 907 \;;
#X scalar color-tester 120 490 7 \;;
#X scalar color-tester 130 490 107 \;;
#X scalar color-tester 140 490 207 \;;
#X scalar color-tester 150 490 307 \;;
#X scalar color-tester 160 490 407 \;;
#X scalar color-tester 10 500 507 \;;
#X scalar color-tester 20 500 607 \;;
#X scalar color-tester 30 500 707 \;;
#X scalar color-tester 40 500 807 \;;
#X scalar color-tester 50 500 907 \;;
#X scalar color-tester 60 500 917 \;;
#X scalar color-tester 70 500 17 \;;
#X scalar color-tester 80 500 117 \;;
#X scalar color-tester 90 500 217 \;;
#X scalar color-tester 100 500 317 \;;
#X scalar color-tester 110 500 417 \;;
#X scalar color-tester 120 500 517 \;;
#X scalar color-tester 130 500 617 \;;
#X scalar color-tester 140 500 717 \;;
#X scalar color-tester 150 500 817 \;;
#X scalar color-tester 160 500 917 \;;
#X scalar color-tester 10 510 927 \;;
#X scalar color-tester 20 510 27 \;;
#X scalar color-tester 30 510 127 \;;
#X scalar color-tester 40 510 227 \;;
#X scalar color-tester 50 510 327 \;;
#X scalar color-tester 60 510 427 \;;
#X scalar color-tester 70 510 527 \;;
#X scalar color-tester 80 510 627 \;;
#X scalar color-tester 90 510 727 \;;
#X scalar color-tester 100 510 827 \;;
#X scalar color-tester 110 510 927 \;;
#X scalar color-tester 120 510 937 \;;
#X scalar color-tester 130 510 37 \;;
#X scalar color-tester 140 510 137 \;;
#X scalar color-tester 150 510 237 \;;
#X scalar color-tester 160 510 337 \;;
#X scalar color-tester 10 520 437 \;;
#X scalar color-tester 20 520 537 \;;
#X scalar color-tester 30 520 637 \;;
#X scalar color-tester 40 520 737 \;;
#X scalar color-tester 50 520 837 \;;
#X scalar color-tester 60 520 937 \;;
#X scalar color-tester 70 520 947 \;;
#X scalar color-tester 80 520 47 \;;
#X scalar color-tester 90 520 147 \;;
#X scalar color-tester 100 520 247 \;;
#X scalar color-tester 110 520 347 \;;
#X scalar color-tester 120 520 447 \;;
#X scalar color-tester 130 520 547 \;;
#X scalar color-tester 140 520 647 \;;
#X scalar color-tester 150 520 747 \;;
#X scalar color-tester 160 520 847 \;;
#X scalar color-tester 10 530 947 \;;
#X scalar color-tester 20 530 957 \;;
#X scalar color-tester 30 530 57 \;;
#X scalar color-tester 40 530 157 \;;
#X scalar color-tester 50 530 257 \;;
#X scalar color-tester 60 530 357 \;;
#X scalar color-tester 70 530 457 \;;
#X scalar color-tester 80 530 557 \;;
#X scalar color-tester 90 530 657 \;;
#X scalar color-tester 100 530 757 \;;
#X scalar color-tester 110 530 857 \;;
#X scalar color-tester 120 530 957 \;;
#X scalar color-tester 130 530 967 \;;
#X scalar color-tester 140 530 67 \;;
#X scalar color-tester 150 530 167 \;;
#X scalar color-tester 160 530 267 \;;
#X scalar color-tester 10 540 367 \;;
#X scalar color-tester 20 540 467 \;;
#X scalar color-tester 30 540 567 \;;
#X scalar color-tester 40 540 667 \;;
#X scalar color-tester 50 540 767 \;;
#X scalar color-tester 60 540 867 \;;
#X scalar color-tester 70 540 967 \;;
#X scalar color-tester 80 540 977 \;;
#X scalar color-tester 90 540 77 \;;
#X scalar color-tester 100 540 177 \;;
#X scalar color-tester 110 540 277 \;;
#X scalar color-tester 120 540 377 \;;
#X scalar color-tester 130 540 477 \;;
#X scalar color-tester 140 540 577 \;;
#X scalar color-tester 150 540 677 \;;
#X scalar color-tester 160 540 777 \;;
#X scalar color-tester 10 550 877 \;;
#X scalar color-tester 20 550 977 \;;
#X scalar color-tester 30 550 987 \;;
#X scalar color-tester 40 550 87 \;;
#X scalar color-tester 50 550 187 \;;
#X scalar color-tester 60 550 287 \;;
#X scalar color-tester 70 550 387 \;;
#X scalar color-tester 80 550 487 \;;
#X scalar color-tester 90 550 587 \;;
#X scalar color-tester 100 550 687 \;;
#X scalar color-tester 110 550 787 \;;
#X scalar color-tester 120 550 887 \;;
#X scalar color-tester 130 550 987 \;;
#X scalar color-tester 140 550 997 \;;
#X scalar color-tester 150 550 97 \;;
#X scalar color-tester 160 550 197 \;;
#X scalar color-tester 10 560 297 \;;
#X scalar color-tester 20 560 397 \;;
#X scalar color-tester 30 560 497 \;;
#X scalar color-tester 40 560 597 \;;
#X scalar color-tester 50 560 697 \;;
#X scalar color-tester 60 560 797 \;;
#X scalar color-tester 70 560 897 \;;
#X scalar color-tester 80 560 997 \;;
#X scalar color-tester 90 560 998 \;;
#X scalar color-tester 100 560 908 \;;
#X scalar color-tester 110 560 8 \;;
#X scalar color-tester 120 560 108 \;;
#X scalar color-tester 130 560 208 \;;
#X scalar color-tester 140 560 308 \;;
#X scalar color-tester 150 560 408 \;;
#X scalar color-tester 160 560 508 \;;
#X scalar color-tester 10 570 608 \;;
#X scalar color-tester 20 570 708 \;;
#X scalar color-tester 30 570 808 \;;
#X scalar color-tester 40 570 908 \;;
#X scalar color-tester 50 570 918 \;;
#X scalar color-tester 60 570 18 \;;
#X scalar color-tester 70 570 118 \;;
#X scalar color-tester 80 570 218 \;;
#X scalar color-tester 90 570 318 \;;
#X scalar color-tester 100 570 418 \;;
#X scalar color-tester 110 570 518 \;;
#X scalar color-tester 120 570 618 \;;
#X scalar color-tester 130 570 718 \;;
#X scalar color-tester 140 570 818 \;;
#X scalar color-tester 150 570 918 \;;
#X scalar color-tester 160 570 928 \;;
#X scalar color-tester 10 580 28 \;;
#X scalar color-tester 20 580 128 \;;
#X scalar color-tester 30 580 228 \;;
#X scalar color-tester 40 580 328 \;;
#X scalar color-tester 50 580 428 \;;
#X scalar color-tester 60 580 528 \;;
#X scalar color-tester 70 580 628 \;;
#X scalar color-tester 80 580 728 \;;
#X scalar color-tester 90 580 828 \;;
#X scalar color-tester 100 580 928 \;;
#X scalar color-tester 110 580 938 \;;
#X scalar color-tester 120 580 38 \;;
#X scalar color-tester 130 580 138 \;;
#X scalar color-tester 140 580 238 \;;
#X scalar color-tester 150 580 338 \;;
#X scalar color-tester 160 580 438 \;;
#X scalar color-tester 10 590 538 \;;
#X scalar color-tester 20 590 638 \;;
#X scalar color-tester 30 590 738 \;;
#X scalar color-tester 40 590 838 \;;
#X scalar color-tester 50 590 938 \;;
#X scalar color-tester 60 590 948 \;;
#X scalar color-tester 70 590 48 \;;
#X scalar color-tester 80 590 148 \;;
#X scalar color-tester 90 590 248 \;;
#X scalar color-tester 100 590 348 \;;
#X scalar color-tester 110 590 448 \;;
#X scalar color-tester 120 590 548 \;;
#X scalar color-tester 130 590 648 \;;
#X scalar color-tester 140 590 748 \;;
#X scalar color-tester 150 590 848 \;;
#X scalar color-tester 160 590 948 \;;
#X scalar color-tester 10 600 958 \;;
#X scalar color-tester 20 600 58 \;;
#X scalar color-tester 30 600 158 \;;
#X scalar color-tester 40 600 258 \;;
#X scalar color-tester 50 600 358 \;;
#X scalar color-tester 60 600 458 \;;
#X scalar color-tester 70 600 558 \;;
#X scalar color-tester 80 600 658 \;;
#X scalar color-tester 90 600 758 \;;
#X scalar color-tester 100 600 858 \;;
#X scalar color-tester 110 600 958 \;;
#X scalar color-tester 120 600 968 \;;
#X scalar color-tester 130 600 68 \;;
#X scalar color-tester 140 600 168 \;;
#X scalar color-tester 150 600 268 \;;
#X scalar color-tester 160 600 368 \;;
#X scalar color-tester 10 610 468 \;;
#X scalar color-tester 20 610 568 \;;
#X scalar color-tester 30 610 668 \;;
#X scalar color-tester 40 610 768 \;;
#X scalar color-tester 50 610 868 \;;
#X scalar color-tester 60 610 968 \;;
#X scalar color-tester 70 610 978 \;;
#X scalar color-tester 80 610 78 \;;
#X scalar color-tester 90 610 178 \;;
#X scalar color-tester 100 610 278 \;;
#X scalar color-tester 110 610 378 \;;
#X scalar color-tester 120 610 478 \;;
#X scalar color-tester 130 610 578 \;;
#X scalar color-tester 140 610 678 \;;
#X scalar color-tester 150 610 778 \;;
#X scalar color-tester 160 610 878 \;;
#X scalar color-tester 10 620 978 \;;
#X scalar color-tester 20 620 988 \;;
#X scalar color-tester 30 620 88 \;;
#X scalar color-tester 40 620 188 \;;
#X scalar color-tester 50 620 288 \;;
#X scalar color-tester 60 620 388 \;;
#X scalar color-tester 70 620 488 \;;
#X scalar color-tester 80 620 588 \;;
#X scalar color-tester 90 620 688 \;;
#X scalar color-tester 100 620 788 \;;
#X scalar color-tester 110 620 888 \;;
#X scalar color-tester 120 620 988 \;;
#X scalar color-tester 130 620 998 \;;
#X scalar color-tester 140 620 98 \;;
#X scalar color-tester 150 620 198 \;;
#X scalar color-tester 160 620 298 \;;
#X scalar color-tester 10 630 398 \;;
#X scalar color-tester 20 630 498 \;;
#X scalar color-tester 30 630 598 \;;
#X scalar color-tester 40 630 698 \;;
#X scalar color-tester 50 630 798 \;;
#X scalar color-tester 60 630 898 \;;
#X scalar color-tester 70 630 998 \;;
#X scalar color-tester 80 630 999 \;;
#X scalar color-tester 90 630 909 \;;
#X scalar color-tester 100 630 9 \;;
#X scalar color-tester 110 630 109 \;;
#X scalar color-tester 120 630 209 \;;
#X scalar color-tester 130 630 309 \;;
#X scalar color-tester 140 630 409 \;;
#X scalar color-tester 150 630 509 \;;
#X scalar color-tester 160 630 609 \;;
#X scalar color-tester 10 640 709 \;;
#X scalar color-tester 20 640 809 \;;
#X scalar color-tester 30 640 909 \;;
#X scalar color-tester 40 640 919 \;;
#X scalar color-tester 50 640 19 \;;
#X scalar color-tester 60 640 119 \;;
#X scalar color-tester 70 640 219 \;;
#X scalar color-tester 80 640 319 \;;
#X scalar color-tester 90 640 419 \;;
#X scalar color-tester 100 640 519 \;;
#X scalar color-tester 110 640 619 \;;
#X scalar color-tester 120 640 719 \;;
#X scalar color-tester 130 640 819 \;;
#X scalar color-tester 140 640 919 \;;
#X scalar color-tester 150 640 929 \;;
#X scalar color-tester 160 640 29 \;;
#X scalar color-tester 10 650 129 \;;
#X scalar color-tester 20 650 229 \;;
#X scalar color-tester 30 650 329 \;;
#X scalar color-tester 40 650 429 \;;
#X scalar color-tester 50 650 529 \;;
#X scalar color-tester 60 650 629 \;;
#X scalar color-tester 70 650 729 \;;
#X scalar color-tester 80 650 829 \;;
#X scalar color-tester 90 650 929 \;;
#X scalar color-tester 100 650 939 \;;
#X scalar color-tester 110 650 39 \;;
#X scalar color-tester 120 650 139 \;;
#X scalar color-tester 130 650 239 \;;
#X scalar color-tester 140 650 339 \;;
#X scalar color-tester 150 650 439 \;;
#X scalar color-tester 160 650 539 \;;
#X scalar color-tester 10 660 639 \;;
#X scalar color-tester 20 660 739 \;;
#X scalar color-tester 30 660 839 \;;
#X scalar color-tester 40 660 939 \;;
#X scalar color-tester 50 660 949 \;;
#X scalar color-tester 60 660 49 \;;
#X scalar color-tester 70 660 149 \;;
#X scalar color-tester 80 660 249 \;;
#X scalar color-tester 90 660 349 \;;
#X scalar color-tester 100 660 449 \;;
#X scalar color-tester 110 660 549 \;;
#X scalar color-tester 120 660 649 \;;
#X scalar color-tester 130 660 749 \;;
#X scalar color-tester 140 660 849 \;;
#X scalar color-tester 150 660 949 \;;
#X scalar color-tester 160 660 959 \;;
#X scalar color-tester 10 670 59 \;;
#X scalar color-tester 20 670 159 \;;
#X scalar color-tester 30 670 259 \;;
#X scalar color-tester 40 670 359 \;;
#X scalar color-tester 50 670 459 \;;
#X scalar color-tester 60 670 559 \;;
#X scalar color-tester 70 670 659 \;;
#X scalar color-tester 80 670 759 \;;
#X scalar color-tester 90 670 859 \;;
#X scalar color-tester 100 670 959 \;;
#X scalar color-tester 110 670 969 \;;
#X scalar color-tester 120 670 69 \;;
#X scalar color-tester 130 670 169 \;;
#X scalar color-tester 140 670 269 \;;
#X scalar color-tester 150 670 369 \;;
#X scalar color-tester 160 670 469 \;;
#X scalar color-tester 10 680 569 \;;
#X scalar color-tester 20 680 669 \;;
#X scalar color-tester 30 680 769 \;;
#X scalar color-tester 40 680 869 \;;
#X scalar color-tester 50 680 969 \;;
#X scalar color-tester 60 680 979 \;;
#X scalar color-tester 70 680 79 \;;
#X scalar color-tester 80 680 179 \;;
#X scalar color-tester 90 680 279 \;;
#X scalar color-tester 100 680 379 \;;
#X scalar color-tester 110 680 479 \;;
#X scalar color-tester 120 680 579 \;;
#X scalar color-tester 130 680 679 \;;
#X scalar color-tester 140 680 779 \;;
#X scalar color-tester 150 680 879 \;;
#X scalar color-tester 160 680 979 \;;
#X scalar color-tester 10 690 989 \;;
#X scalar color-tester 20 690 89 \;;
#X scalar color-tester 30 690 189 \;;
#X scalar color-tester 40 690 289 \;;
#X scalar color-tester 50 690 389 \;;
#X scalar color-tester 60 690 489 \;;
#X scalar color-tester 70 690 589 \;;
#X scalar color-tester 80 690 689 \;;
#X scalar color-tester 90 690 789 \;;
#X scalar color-tester 100 690 889 \;;
#X scalar color-tester 110 690 989 \;;
#X scalar color-tester 120 690 999 \;;
#X scalar color-tester 130 690 99 \;;
#X scalar color-tester 140 690 199 \;;
#X scalar color-tester 150 690 299 \;;
#X scalar color-tester 160 690 399 \;;
#X scalar color-tester 10 700 499 \;;
#X scalar color-tester 20 700 599 \;;
#X scalar color-tester 30 700 699 \;;
#X scalar color-tester 40 700 799 \;;
#X scalar color-tester 50 700 899 \;;
#X scalar color-tester 60 700 999 \;;
#X restore 20 391 pd color-picker;
#X text 113 10 fd_colorpicker;
#X obj 105 106 nbx 3 20 0 999 0 0 empty fd_color fd_color 55 10 0 14
-262144 -1 -1 505 256;
#X obj 222 100 bng 8 250 50 0 empty empty empty 17 7 0 10 -262144 -1
-1;
#X obj 222 122 tgl 8 0 empty empty empty 17 7 0 10 -262144 -1 -1 1
1;
#X msg 73 144 0;
#X obj 222 136 sel 0 1;
#X msg 153 175 menu-open;
#X obj 153 200 s pd-fd_colorpicker-guts;
#X msg 241 176 menuclose;
#X msg 46 236 \; pd-fd_colorpicker.pd vis 0 \, setbounds 325 10 520
50 \, vis 1 \, editmode 0 \; pd-color-picker vis 0 \, setbounds 325
80 520 450 \, vis 1 \, editmode 0 \;, f 29;
#X obj 20 37 t b b b;
#X obj 309 13 bng 50 250 50 0 empty empty hide 10 20 0 10 -262144 -1
-1;
#X connect 1 0 13 0;
#X connect 5 0 13 0;
#X connect 6 0 8 0;
#X connect 7 0 6 0;
#X connect 8 0 11 0;
#X connect 8 1 9 0;
#X connect 9 0 10 0;
#X connect 11 0 10 0;
#X connect 13 0 0 0;
#X connect 13 1 12 0;
#X connect 13 2 7 0;
#X connect 14 0 5 0;
#X coords 0 -1 1 1 130 30 2 100 100;
#X restore 29 6 pd fd_colorpicker-guts;
