#N canvas 524 50 542 505 12;
#X text 229 22 "pddb";
#X text 20 54 Store lists in a database.;
#X obj 40 338 pddb 12;
#X msg 105 113 5 0 1 0 5 6 4 1 2 3;
#X msg 42 108 bang;
#X msg 106 81 1.231 2.23 4.32 4.52323 4.23123;
#X msg 114 236 write myfile;
#X msg 109 167 1.231 2.23 4.32 4.52323 1 4.23123 1.231 2.23 4.32 4.52323
4.23123 1.231 2.23 4.32 4.52323 4.23123;
#X msg 109 210 3;
#X msg 135 270 read myfile;
#X msg 107 140 1 2;
#X msg 146 209 1 2 3;
#X msg 208 217 1 2 3 4;
#X msg 242 141 1 2 3 4 5;
#X connect 3 0 2 0;
#X connect 4 0 2 0;
#X connect 5 0 2 0;
#X connect 6 0 2 0;
#X connect 7 0 2 0;
#X connect 8 0 2 0;
#X connect 9 0 2 0;
#X connect 10 0 2 0;
#X connect 11 0 2 0;
#X connect 12 0 2 0;
#X connect 13 0 2 0;
