#N canvas 608 49 813 690 12;
#X obj 73 79 samplerate~;
#X msg 114 101 0;
#X obj 108 12 inlet;
#X msg 447 87 resize \$1;
#X msg 238 155 set \$1;
#X obj 369 220 array define \$1 \$2;
#X obj 73 101 / \$2;
#X obj 73 409 tabsend~ \$1;
#X obj 248 242 switch~ \$2;
#X obj 73 123 phasor~;
#X text 283 19 see fd_windows.pd;
#X obj 322 119 del 1 1 samp;
#X obj 73 148 *~ 3.3;
#X obj 73 172 -~ 1.3;
#X obj 73 197 *~ -1;
#X obj 73 222 exp~;
#X obj 136 231 exp~;
#X obj 136 256 +~ 1;
#X obj 73 244 *~ 3.3;
#X obj 73 276 *~;
#X obj 73 301 abs~;
#X obj 73 331 pow~ -1;
#X text 183 344 PI^-1 * ( x * (1 - x) ) ) ^-1/2;
#X text 202 317 Formalized Music \, p.246;
#X text 207 371 see fd_logistic.pd;
#X obj 361 270 fd_smooth_brute \$1;
#X obj 342 145 t b b;
#X msg 383 184 normalize;
#X obj 139 152 t f f;
#X obj 108 34 route bang float q;
#X obj 42 5 bng 15 250 50 0 empty empty empty 17 7 0 10 -262144 -1
-1;
#X floatatom 498 38 5 0 0 0 - - -;
#X msg 498 61 q \$1 \, bang;
#X connect 0 0 6 0;
#X connect 1 0 9 1;
#X connect 2 0 29 0;
#X connect 3 0 5 0;
#X connect 4 0 8 0;
#X connect 6 0 9 0;
#X connect 9 0 12 0;
#X connect 11 0 26 0;
#X connect 12 0 13 0;
#X connect 13 0 14 0;
#X connect 14 0 15 0;
#X connect 14 0 16 0;
#X connect 15 0 18 0;
#X connect 16 0 17 0;
#X connect 17 0 19 1;
#X connect 18 0 19 0;
#X connect 19 0 20 0;
#X connect 20 0 21 0;
#X connect 21 0 7 0;
#X connect 26 0 25 0;
#X connect 26 1 27 0;
#X connect 27 0 5 0;
#X connect 28 0 12 1;
#X connect 28 1 18 1;
#X connect 29 0 0 0;
#X connect 29 0 8 0;
#X connect 29 0 1 0;
#X connect 29 0 11 0;
#X connect 29 1 3 0;
#X connect 29 1 4 0;
#X connect 29 1 6 1;
#X connect 29 1 11 1;
#X connect 29 2 28 0;
#X connect 29 3 5 0;
#X connect 30 0 29 0;
#X connect 31 0 32 0;
#X connect 32 0 29 0;
