#N canvas 443 35 527 406 12;
#X obj 73 79 samplerate~;
#X msg 114 101 0;
#X obj 108 12 inlet;
#X msg 343 83 resize \$1;
#X msg 223 195 set \$1;
#X obj 255 161 array define \$1 \$2;
#X obj 73 101 / \$2;
#X obj 73 378 tabsend~ \$1;
#X obj 230 253 switch~ \$2;
#X obj 73 123 phasor~;
#X text 283 19 see fd_windows.pd;
#X obj 230 85 del 1 1 samp;
#X obj 235 109 f 1;
#X msg 241 135 normalize \$1;
#X obj 108 34 route bang float q w;
#X msg 334 188 bang;
#X obj 334 213 array size \$1;
#X msg 339 283 \$1 0 \, 0 0;
#X obj 350 244 - 1;
#X obj 389 242 - 2;
#X msg 381 270 \$1 0 \, 1 0;
#X obj 73 148 *~ 3.3;
#X obj 73 172 -~ 1.3;
#X obj 73 197 *~ -1;
#X obj 73 222 exp~;
#X obj 136 231 exp~;
#X obj 136 256 +~ 1;
#X obj 73 244 *~ 3.3;
#X obj 73 276 *~;
#X obj 73 301 abs~;
#X obj 73 331 pow~ -1;
#X text 183 344 PI^-1 * ( x * (1 - x) ) ) ^-1/2;
#X text 202 317 Formalized Music \, p.246;
#X text 207 371 see fd_logistic.pd;
#X connect 0 0 6 0;
#X connect 1 0 9 1;
#X connect 2 0 14 0;
#X connect 3 0 5 0;
#X connect 4 0 8 0;
#X connect 6 0 9 0;
#X connect 9 0 21 0;
#X connect 11 0 12 0;
#X connect 11 0 15 0;
#X connect 12 0 13 0;
#X connect 13 0 5 0;
#X connect 14 0 0 0;
#X connect 14 0 8 0;
#X connect 14 0 1 0;
#X connect 14 0 11 0;
#X connect 14 1 3 0;
#X connect 14 1 4 0;
#X connect 14 1 6 1;
#X connect 14 1 11 1;
#X connect 14 2 12 1;
#X connect 14 3 21 1;
#X connect 14 3 27 1;
#X connect 14 4 5 0;
#X connect 15 0 16 0;
#X connect 16 0 18 0;
#X connect 16 0 19 0;
#X connect 17 0 5 0;
#X connect 18 0 17 0;
#X connect 19 0 20 0;
#X connect 20 0 5 0;
#X connect 21 0 22 0;
#X connect 22 0 23 0;
#X connect 23 0 24 0;
#X connect 23 0 25 0;
#X connect 24 0 27 0;
#X connect 25 0 26 0;
#X connect 26 0 28 1;
#X connect 27 0 28 0;
#X connect 28 0 29 0;
#X connect 29 0 30 0;
#X connect 30 0 7 0;
