#N canvas 577 62 657 438 12;
#X obj 216 111 prandom;
#X obj 240 80 bng 15 250 50 0 empty empty empty 17 7 0 10 -262144 -1
-1;
#X obj 122 217 print;
#X obj 122 195 * 1e-08;
#X obj 292 42 metro 100;
#X obj 287 19 tgl 15 0 empty empty empty 17 7 0 10 -262144 -1 -1 0
1;
#X obj 216 136 t f f;
#X obj 264 194 print;
#X connect 0 0 6 0;
#X connect 1 0 0 0;
#X connect 3 0 2 0;
#X connect 4 0 1 0;
#X connect 5 0 4 0;
#X connect 6 0 3 0;
#X connect 6 1 7 0;
