#N canvas 425 47 527 574 10;
#X obj 9 287 f;
#X obj 37 286 + 1;
#X msg 28 251 0;
#X obj 9 353 sel 9;
#X obj 28 226 sel 1;
#X msg 38 107 0;
#X obj 9 136 t f f b;
#X obj 115 173 f;
#X obj 142 173 + 1;
#X obj 115 195 <= 0;
#X msg 130 107 0;
#X obj 88 107 t b b;
#X msg 9 107 1;
#X obj 9 166 metro 1;
#X obj 9 203 spigot;
#X obj 9 77 spigot;
#X obj 233 136 > 0;
#X obj 9 10 inlet;
#X obj 134 449 list prepend \$1;
#X text 85 6 AUTOMATICALLY PATCH CORDS BETWEEN OUTLETS AND INLETS,
f 34;
#X text 210 287 BANG TO MAKE THINGS HAPPEN;
#X text 213 172 CREATION ARGUMENTS;
#X text 212 236 \$3 float: target object;
#X text 212 216 \$2 float: source object;
#X text 212 196 \$1 symbol: subpatch name;
#N canvas 518 321 424 216 onload 0;
#X obj 15 93 print CREATION ARGUMENTS;
#X obj 15 10 loadbang;
#X msg 16 32 argument 1 symbol: subpatch name \, argument 2 float:
source object \, argument 3 float: target object \, argument 4 float:
number of patchcords (number of inlets and outlets) \, BANG OR SEND
A NUMBER TO MAKE THINGS HAPPEN;
#X obj 20 128 inlet;
#X obj 20 181 print warning;
#X msg 20 148 *** \, number not assigned \, **** \, povide one via
inlet or via 4th argument \, ***;
#X connect 1 0 2 0;
#X connect 2 0 0 0;
#X connect 3 0 5 0;
#X connect 5 0 4 0;
#X restore 305 94 pd onload;
#X obj 305 19 loadbang;
#X obj 305 66 sel 0;
#X obj 233 111 f;
#X obj 9 55 t b b f, f 41;
#X obj 305 44 f \$4;
#X text 212 256 \$4 float: (also via inlet): number of patchcords,
f 29;
#X obj 222 76 sel 0;
#X obj 106 390 +;
#N canvas 0 22 363 291 incoming 0;
#X obj 22 19 inlet;
#X obj 22 88 s \$0-name;
#X obj 67 134 s \$0-source;
#X obj 112 176 s \$0-target;
#X obj 262 243 outlet;
#X obj 202 67 s \$0-offset;
#X obj 112 155 max;
#X obj 67 113 max;
#X obj 268 19 print;
#X obj 22 41 route name target source number offset;
#X connect 0 0 8 0;
#X connect 0 0 9 0;
#X connect 6 0 3 0;
#X connect 7 0 2 0;
#X connect 9 0 1 0;
#X connect 9 1 7 0;
#X connect 9 2 6 0;
#X connect 9 3 4 0;
#X connect 9 4 5 0;
#X restore 9 34 pd incoming;
#X obj 120 310 r \$0-offset;
#X obj 168 350 r \$0-target;
#X obj 243 355 r \$0-source;
#X obj 221 427 r \$0-name;
#X text 85 35 <- as csv;
#X obj 120 332 unpack;
#X obj 141 389 +;
#X obj 9 319 t f f f;
#X obj 117 412 pack f f \$2 \$3;
#X msg 134 474 \; pd-\$1 connect \$4 \$2 \$5 \$3 \;;
#X connect 0 0 1 0;
#X connect 0 0 42 0;
#X connect 1 0 0 1;
#X connect 2 0 0 1;
#X connect 3 0 11 0;
#X connect 4 0 2 0;
#X connect 5 0 6 0;
#X connect 6 0 13 0;
#X connect 6 1 4 0;
#X connect 6 2 7 0;
#X connect 7 0 8 0;
#X connect 7 0 9 0;
#X connect 8 0 7 1;
#X connect 9 0 14 1;
#X connect 10 0 7 1;
#X connect 11 0 5 0;
#X connect 11 1 7 0;
#X connect 12 0 6 0;
#X connect 13 0 14 0;
#X connect 14 0 0 0;
#X connect 15 0 12 0;
#X connect 16 0 15 1;
#X connect 17 0 34 0;
#X connect 18 0 44 0;
#X connect 26 0 30 0;
#X connect 27 0 25 0;
#X connect 27 1 28 0;
#X connect 28 0 3 1;
#X connect 28 0 16 0;
#X connect 29 0 15 0;
#X connect 29 1 10 0;
#X connect 29 2 32 0;
#X connect 30 0 27 0;
#X connect 32 0 30 0;
#X connect 32 1 28 0;
#X connect 33 0 43 0;
#X connect 34 0 29 0;
#X connect 35 0 40 0;
#X connect 36 0 43 2;
#X connect 37 0 43 3;
#X connect 38 0 18 1;
#X connect 40 0 33 1;
#X connect 40 1 41 1;
#X connect 41 0 43 1;
#X connect 42 0 3 0;
#X connect 42 1 33 0;
#X connect 42 2 41 0;
#X connect 43 0 18 0;
