#N canvas 403 317 450 300 10;
#X obj 33 138 osc~;
#X obj 34 166 *~ -0.5;
#X obj 34 189 +~ 0.5;
#X obj 97 139 osc~;
#X obj 97 167 *~ -0.5;
#X obj 97 190 +~ 0.5;
#X obj 82 219 *~;
#X obj 90 86 t b b;
#X msg 90 107 0;
#X msg 118 107 0.5;
#X obj 31 85 / 2;
#X obj 31 106 t f f;
#X obj 82 260 outlet~;
#X text 183 131 This outputs 2 halfes of a hann window \; so that the
edges of the block \; can be smoothed out to 0;
#X obj 30 61 t f b;
#X obj 30 8 inlet blocksize;
#X obj 244 16 inlet;
#X connect 0 0 1 0;
#X connect 1 0 2 0;
#X connect 2 0 6 0;
#X connect 3 0 4 0;
#X connect 4 0 5 0;
#X connect 5 0 6 1;
#X connect 6 0 12 0;
#X connect 7 0 8 0;
#X connect 7 1 9 0;
#X connect 8 0 0 1;
#X connect 9 0 3 1;
#X connect 10 0 11 0;
#X connect 11 0 0 0;
#X connect 11 1 3 0;
#X connect 14 0 10 0;
#X connect 14 1 7 0;
#X connect 15 0 14 0;
#X connect 16 0 10 1;
