#N canvas 500 50 530 480 12;
#X declare -path fd_lib;
#X obj 4 4 cnv 15 522 30 empty empty "fd_lorenz" 20 15 0 15 -228856
-1 0;
#X obj 4 254 cnv 15 522 20 empty empty arguments: 10 10 0 14 -228856
-1 0;
#X obj 4 314 cnv 15 522 20 empty empty inlets: 10 10 0 14 -228856 -1
0;
#X obj 4 388 cnv 15 522 20 empty empty outlets: 10 10 0 14 -228856
-1 0;
#X obj 4 453 cnv 15 522 20 empty empty version 10 10 0 14 -228856 -1
0;
#X obj 380 8 declare -path fd_lib;
#N canvas 0 22 450 300 meta 0;
#X text 10 10 fd_lib - metadata file - Fri Sep 13 18:19:54 EDT 2019
;
#X text 10 25 patch_name : fd_lorenz;
#X text 10 40 inlet : 0;
#X text 10 55 outlet : 1;
#X text 10 70 inlet~ : 0;
#X text 10 85 outlet~ : 0;
#X text 10 100 arguments : 0;
#X text 10 115 classes used : 16;
#X text 10 130 total objects: 104;
#X text 10 145 connections : 129;
#X text 10 160 dependencies : 0 [0];
#X text 10 175 externals : 0 [0];
#X text 10 190 internals : 16/233 [0r:t:f:s:list:*:-:route:+:inlet:print:pack:outlet:loadbang:bang:/]
;
#X restore 438 423 pd meta;
#X text 440 452 fd_lib v0.1;
#X text 60 283 0 arguments;
#X text 60 410 1 outlets;
#X text 161 121 x1 = x0 + h * a * (y0 - x0) \;;
#X text 160 142 y1 = y0 + h * (x0 * (b - z0) - y0) \;;
#X text 160 166 z1 = z0 + h * (x0 * y0 - c * z0);
#X text 160 103 LORENZ SYSTEM:;
#X obj 42 163 fd_lorenz;
#X obj 42 88 tgl 15 0 empty empty empty 17 7 0 10 -262144 -1 -1 0 1
;
#X obj 42 108 metro 10;
#X obj 42 199 unpack f f f;
#X floatatom 42 224 5 0 0 0 - - -;
#X floatatom 88 224 5 0 0 0 - - -;
#X floatatom 135 224 5 0 0 0 - - -;
#X text 34 41 Simplified abstraction of the [lorenz] object that computes
the lorenz system and accepts initial conditions.;
#X text 60 340 1: bang: to compute \; 1: 'reset': to reset all variables
\; 1: see pd-messages;
#N canvas 0 22 450 300 messages 0;
#X msg 22 35 reset;
#X text 182 19 Initial conditions:;
#X obj 22 266 s \$0-msg;
#X msg 88 52 a 10;
#X msg 101 76 b 28;
#X msg 114 99 c 2.66667;
#X msg 149 142 h 0.01;
#X msg 185 197 x 0.1;
#X msg 230 216 y 0;
#X msg 272 231 z 0;
#X text 153 75 <-- rho;
#X text 189 100 <-- beta;
#X text 141 52 <-- sigma;
#X text 204 141 <-- step size;
#X text 181 177 system initial x \, y \, z:;
#X connect 0 0 2 0;
#X connect 3 0 2 0;
#X connect 4 0 2 0;
#X connect 5 0 2 0;
#X connect 6 0 2 0;
#X connect 7 0 2 0;
#X connect 8 0 2 0;
#X connect 9 0 2 0;
#X restore 401 220 pd messages;
#X obj 50 137 r \$0-msg;
#X connect 14 0 17 0;
#X connect 15 0 16 0;
#X connect 16 0 14 0;
#X connect 17 0 18 0;
#X connect 17 1 19 0;
#X connect 17 2 20 0;
#X connect 24 0 14 0;
