#N canvas 526 51 291 334 12;
#X obj 38 112 *;
#X obj 38 161 *;
#X obj 38 137 t f f;
#X obj 38 185 -;
#X obj 38 258 / -7.78e+06;
#X obj 38 233 - 20000;
#X obj 94 189 * 11000;
#X obj 38 209 +;
#X obj 75 165 * 1000;
#X obj 38 282 outlet;
#X obj 38 32 inlet;
#X obj 38 56 mod 100;
#X obj 38 83 t f f f f;
#X obj 142 31 inlet;
#X obj 142 57 * -100000;
#X connect 0 0 2 0;
#X connect 1 0 3 0;
#X connect 2 0 1 0;
#X connect 2 1 8 0;
#X connect 3 0 7 0;
#X connect 4 0 9 0;
#X connect 5 0 4 0;
#X connect 6 0 7 1;
#X connect 7 0 5 0;
#X connect 8 0 3 1;
#X connect 10 0 11 0;
#X connect 11 0 12 0;
#X connect 12 0 0 0;
#X connect 12 1 0 1;
#X connect 12 2 1 1;
#X connect 12 3 6 0;
#X connect 13 0 14 0;
#X connect 14 0 4 1;
