#N canvas 500 50 530 480 12;
#X declare -path fd_lib;
#X obj 4 4 cnv 15 522 30 empty empty "fd_fletcher-munson" 20 15 0 15
-228856 -1 0;
#X obj 4 254 cnv 15 522 20 empty empty arguments: 10 10 0 14 -228856
-1 0;
#X obj 4 294 cnv 15 522 20 empty empty inlets: 10 10 0 14 -228856 -1
0;
#X obj 4 394 cnv 15 522 20 empty empty outlets: 10 10 0 14 -228856
-1 0;
#X obj 4 453 cnv 15 522 20 empty empty version 10 10 0 14 -228856 -1
0;
#X obj 380 8 declare -path fd_lib;
#N canvas 0 22 450 300 meta 0;
#X text 10 0 fd_lib - metadata file - Tue Sep 17 20:50:58 EDT 2019
;
#X text 10 15 patch_name : fd_fletcher-munson;
#X text 10 30 inlet : 1;
#X text 10 45 outlet : 0;
#X text 10 60 inlet~ : 0;
#X text 10 75 outlet~ : 0;
#X text 10 90 arguments : 0;
#X text 10 105 classes used : 10;
#X text 10 120 total objects: 21;
#X text 10 135 connections : 29;
#X text 10 150 dependencies : 0 [0];
#X text 10 165 externals : 0 [0];
#X text 10 180 internals : 10/233 [0route:outlet:inlet:list:tabread4:loadbang:ftom:f:dbtorms:array]
;
#X restore 438 423 pd meta;
#X text 440 452 fd_lib v0.1;
#X obj 47 189 fd_fletcher-munson;
#X floatatom 18 70 5 0 0 0 - - -;
#X floatatom 47 213 5 0 0 0 - - -;
#X msg 229 92 set mtof;
#X msg 317 92 set ftom;
#X msg 321 151 set dbtorms;
#X msg 228 146 set rmstodb;
#X text 10 40 Amplitude compensation with the Fletcher-Munson curve.
;
#X text 293 66 input:;
#X text 298 127 output:;
#X text 411 151 (default);
#X text 392 90 (default);
#X text 60 273 0 arguments;
#X text 60 315 1: float: frequency (midi or Hz) \; 1: 'set': 'mtof'
change input to midi \; 1: 'set': 'ftom' change input to Hz (default)
\; 1: 'set': 'rmstodb' change output to decibels \; 1: 'set': 'dbtorms'
change output to RMS (default) \;;
#X text 60 415 1: float: amplitude compensation in dB or RMS for given
frequency value., f 51;
#N canvas 310 114 450 300 example 0;
#X msg 47 14 0 \, 1 10000;
#X obj 47 38 line;
#X obj 47 62 * 136;
#X obj 47 86 mtof;
#X obj 47 153 pack f 3;
#X obj 47 177 line~;
#X obj 47 221 osc~;
#X obj 47 245 *~;
#X obj 47 269 dac~;
#X obj 127 127 fd_fletcher-munson;
#X obj 127 201 pack f 3;
#X obj 127 226 line~;
#X obj 47 108 t f f;
#X msg 127 151 1 \$1;
#X obj 127 175 -;
#X msg 143 19 0;
#X text 81 247 <-- compensate multiplying by 1-input;
#X obj 292 50 tgl 15 0 empty empty empty 17 7 0 10 -262144 -1 -1 1
1;
#X obj 293 152 switch~;
#X obj 293 79 t f f;
#X msg 325 104 \; pd dsp \$1;
#X connect 0 0 1 0;
#X connect 1 0 2 0;
#X connect 2 0 3 0;
#X connect 3 0 12 0;
#X connect 4 0 5 0;
#X connect 5 0 6 0;
#X connect 6 0 7 0;
#X connect 7 0 8 0;
#X connect 7 0 8 1;
#X connect 9 0 13 0;
#X connect 10 0 11 0;
#X connect 11 0 7 1;
#X connect 12 0 4 0;
#X connect 12 1 9 0;
#X connect 13 0 14 0;
#X connect 14 0 10 0;
#X connect 15 0 1 0;
#X connect 17 0 19 0;
#X connect 19 0 18 0;
#X connect 19 1 20 0;
#X restore 353 211 pd example;
#X msg 47 102 open;
#X text 83 104 <-- see table;
#X connect 8 0 10 0;
#X connect 9 0 8 0;
#X connect 11 0 8 0;
#X connect 12 0 8 0;
#X connect 13 0 8 0;
#X connect 14 0 8 0;
#X connect 24 0 8 0;
