#N canvas 500 50 530 480 12;
#X declare -path fd_lib;
#X obj 4 4 cnv 15 522 30 empty empty "fd_sinc~" 20 15 0 15 -228856
-1 0;
#X obj 4 390 cnv 15 522 20 empty empty outlets: 10 10 0 14 -228856
-1 0;
#X obj 4 453 cnv 15 522 20 empty empty version 10 10 0 14 -228856 -1
0;
#X obj 380 8 declare -path fd_lib;
#N canvas 0 22 450 300 meta 0;
#X text 10 10 fd_lib - metadata file - Sun Sep 29 00:15:16 EDT 2019
;
#X text 10 25 patch_name : fd_sinc~;
#X text 10 40 inlet : 1;
#X text 10 55 outlet : 0;
#X text 10 70 inlet~ : 0;
#X text 10 85 outlet~ : 0;
#X text 10 100 arguments : 2;
#X text 10 115 classes used : 22;
#X text 10 130 total objects: 32;
#X text 10 145 connections : 45;
#X text 10 160 dependencies : 0 [0];
#X text 10 175 externals : 3 [0switch~:fd_smooth_brute:fd_smooth];
#X text 10 190 internals : 19/233 [0t:*~:route:inlet:array:-~:tabsend~:samplerate~:phasor~:outlet:lop~:f:del:cos~:clip~:/~:/:-:+~]
;
#X restore 438 423 pd meta;
#X text 440 452 fd_lib v0.1;
#X text 60 417 0 outlets;
#X obj 52 84 bng 15 250 50 0 empty empty empty 17 7 0 10 -262144 -1
-1;
#X msg 401 50 \; pd dsp 1;
#X text 224 9 used in [fd_windows];
#X msg 161 124 q \$1 \, bang;
#X floatatom 161 100 5 0 0 0 - - -;
#X obj 94 165 fd_sinc~ sinc-tilde 128;
#X text 20 45 Same as [fd_sinc] \, but stored via dsp into array;
#X msg 94 100 open;
#X obj 4 244 cnv 15 522 20 empty empty arguments: 10 10 0 14 -228856
-1 0;
#X obj 4 301 cnv 15 522 20 empty empty inlets: 10 10 0 14 -228856 -1
0;
#X text 61 264 1: symbol : array-name \; 2: float : array-size;
#X text 60 324 1: bang : load table (DSP must be on) \; 1: float :
new array size \; 1: q : (float) cycles \; 1: all other messages are
routed to [array];
#X connect 7 0 12 0;
#X connect 10 0 12 0;
#X connect 11 0 10 0;
#X connect 14 0 12 0;
