#N canvas 492 108 380 415 10;
#X obj 176 193 +~ 0.5;
#X obj 20 244 *~ 100;
#X obj 176 243 *~ 100;
#X obj 283 282 cos~;
#X obj 176 299 *~;
#X obj 127 283 cos~;
#X obj 20 300 *~;
#X obj 176 215 wrap~;
#X obj 20 143 phasor~;
#X obj 127 243 -~ 0.5;
#X obj 127 263 *~ 0.5;
#X obj 283 242 -~ 0.5;
#X obj 283 262 *~ 0.5;
#X obj 20 382 outlet~;
#X obj 20 264 delread4~ \$1;
#X obj 176 263 delread4~ \$1;
#X obj 20 14 inlet~;
#X obj 20 35 *~ 0.0577623;
#X obj 20 57 exp~;
#X obj 20 78 -~ 1;
#X obj 20 100 *~ -1;
#X obj 20 122 *~ 10;
#X connect 0 0 7 0;
#X connect 1 0 14 0;
#X connect 2 0 15 0;
#X connect 3 0 4 1;
#X connect 4 0 13 0;
#X connect 5 0 6 1;
#X connect 6 0 13 0;
#X connect 7 0 2 0;
#X connect 7 0 11 0;
#X connect 8 0 0 0;
#X connect 8 0 1 0;
#X connect 8 0 9 0;
#X connect 9 0 10 0;
#X connect 10 0 5 0;
#X connect 11 0 12 0;
#X connect 12 0 3 0;
#X connect 14 0 6 0;
#X connect 15 0 4 0;
#X connect 16 0 17 0;
#X connect 17 0 18 0;
#X connect 18 0 19 0;
#X connect 19 0 20 0;
#X connect 20 0 21 0;
#X connect 21 0 8 0;
