#N canvas 524 50 244 344 10;
#X obj 23 219 * 1;
#X obj 23 297 outlet;
#X obj 23 265 + 0;
#X obj 151 127 loadbang;
#X obj 151 149 f \$1;
#X obj 134 95 r sel-\$1;
#X obj 38 193 r size-\$1;
#X obj 38 240 r move-\$1;
#X obj 40 25 inlet;
#X obj 40 47 unpack f f f;
#X obj 23 166 fd_spigot3, f 19;
#X connect 0 0 2 0;
#X connect 2 0 1 0;
#X connect 3 0 4 0;
#X connect 4 0 10 3;
#X connect 5 0 10 3;
#X connect 6 0 0 1;
#X connect 7 0 2 1;
#X connect 8 0 9 0;
#X connect 9 0 10 0;
#X connect 9 1 10 1;
#X connect 9 2 10 2;
#X connect 10 0 0 0;
