#N canvas 217 24 841 674 12;
#X declare -lib Gem -stdlib timbreID -stdpath timbreID -stdpath ggee
;
#X obj 255 358 fd_pix2list;
#X obj 340 493 change;
#X obj 351 186 t b f;
#X obj 255 447 sel;
#X obj 351 130 f;
#X obj 382 130 + 1;
#X obj 351 155 moses 70;
#X obj 255 472 t b b;
#X obj 351 104 sel 1;
#X msg 412 238 0;
#X obj 431 74 loadbang;
#X obj 431 99 f \$2;
#X obj 478 224 - 1;
#X obj 477 339 list;
#X obj 229 124 t f f f;
#X msg 229 101 1;
#X obj 452 174 t f f b;
#X obj 611 118 array define \$0-img;
#X obj 340 518 array size \$0-img;
#X obj 311 547 array set \$0-img;
#X obj 292 612 outlet;
#X obj 292 587 \$3 \$0-img;
#X obj 255 233 pix_multiimage;
#X obj 431 124 sel;
#X obj 477 314 list append \$1;
#X obj 477 389 print;
#X msg 477 364 open \$1/\$2 \$3;
#X obj 478 291 getdir 1;
#X obj 613 36 declare -lib Gem -stdlib timbreID -stdpath timbreID -stdpath
ggee, f 17;
#X obj 93 611 outlet;
#X obj 501 28 inlet;
#X obj 255 288 t a a;
#X obj 93 360 spigot;
#X obj 138 295 == 0;
#X obj 501 117 max;
#X obj 478 249 t b f f;
#X obj 501 92 min 69;
#X obj 255 413 change -1;
#X obj 168 253 spigot 1;
#X msg 377 280 0;
#X obj 292 323 spigot 1;
#X obj 229 77 route bang;
#X obj 229 27 inlet;
#X connect 0 0 37 0;
#X connect 0 1 29 0;
#X connect 0 2 19 0;
#X connect 0 3 1 0;
#X connect 1 0 18 0;
#X connect 2 0 0 1;
#X connect 2 1 22 1;
#X connect 3 0 7 0;
#X connect 4 0 5 0;
#X connect 4 0 6 0;
#X connect 5 0 4 1;
#X connect 6 0 2 0;
#X connect 6 1 9 0;
#X connect 6 1 39 0;
#X connect 7 0 38 0;
#X connect 7 1 21 0;
#X connect 8 0 4 0;
#X connect 9 0 14 0;
#X connect 9 0 33 0;
#X connect 10 0 11 0;
#X connect 11 0 23 0;
#X connect 12 0 35 0;
#X connect 13 0 26 0;
#X connect 14 0 38 1;
#X connect 14 2 8 0;
#X connect 14 2 33 0;
#X connect 15 0 14 0;
#X connect 16 0 6 1;
#X connect 16 1 12 0;
#X connect 16 2 9 0;
#X connect 21 0 20 0;
#X connect 22 0 31 0;
#X connect 23 1 16 0;
#X connect 24 0 13 0;
#X connect 26 0 22 0;
#X connect 26 0 25 0;
#X connect 27 0 24 0;
#X connect 30 0 36 0;
#X connect 31 0 32 0;
#X connect 31 1 40 0;
#X connect 32 0 29 0;
#X connect 33 0 32 1;
#X connect 34 0 22 1;
#X connect 35 0 27 0;
#X connect 35 1 13 1;
#X connect 35 2 36 1;
#X connect 36 0 34 0;
#X connect 37 0 3 0;
#X connect 38 0 4 0;
#X connect 39 0 40 1;
#X connect 40 0 0 0;
#X connect 41 0 15 0;
#X connect 41 1 22 0;
#X connect 42 0 41 0;
