#N canvas 842 297 841 674 12;
#X declare -lib Gem -lib timbreIDLib;
#X obj 211 351 fd_pix2list;
#X obj 285 376 change;
#X obj 307 161 t b f;
#X obj 211 440 sel;
#X obj 307 105 f;
#X obj 338 105 + 1;
#X obj 211 465 t b b;
#X obj 307 79 sel 1;
#X msg 368 231 0;
#X obj 431 212 - 1;
#X obj 482 306 list;
#X obj 185 117 t f f f;
#X msg 185 94 1;
#X obj 408 167 t f f b;
#X obj 603 594 array define \$0-img;
#X obj 285 401 array size \$0-img;
#X obj 260 540 array set \$0-img;
#X obj 243 605 outlet;
#X obj 243 580 \$3 \$0-img;
#X obj 211 204 pix_multiimage;
#X obj 49 604 outlet;
#X obj 457 21 inlet;
#X obj 211 281 t a a;
#X obj 49 353 spigot;
#X obj 88 285 == 0;
#X obj 211 418 change -1;
#X obj 124 246 spigot 1;
#X msg 372 268 0;
#X obj 243 310 spigot 1;
#X obj 185 70 route bang;
#X obj 185 20 inlet;
#X obj 563 24 declare -lib Gem -lib timbreIDLib;
#X text 331 580 <-- timbreID feature;
#N canvas 985 169 640 434 arguments 0;
#X obj 52 34 loadbang;
#X msg 352 215 loading \$2 images named \$1 ... \, and timbreID feature:
\$3 ..., f 31;
#X obj 52 84 pdcontrol;
#X msg 52 60 args 0;
#X obj 52 108 t a a;
#X obj 84 134 list length;
#X obj 84 158 == 3;
#X obj 84 182 t f f;
#X obj 131 182 sel;
#X obj 448 386 print fd_img2feat;
#X msg 192 28 ... wrong arguments. Please provide: \, 1: symbol: 'path/to/image-*.jpg'
(see [pix_multiimage] \, 2: float: max number of images (see [pix_multiimage]
\, 3: symbol: timbreID feature (see [timbreID]) \, ... see help for
more info.;
#X obj 52 214 spigot;
#X obj 52 240 unpack s f s;
#X obj 52 397 outlet;
#X obj 148 397 outlet;
#X obj 92 268 sel;
#X msg 281 142 warning: image index cannot be 0!;
#X obj 183 344 pack s f s;
#X obj 52 303 t a a;
#X obj 148 303 t f f;
#X obj 52 372 pdcontrol;
#X msg 52 350 dir 1 \$1;
#X connect 0 0 3 0;
#X connect 1 0 9 0;
#X connect 2 0 4 0;
#X connect 3 0 2 0;
#X connect 4 0 11 0;
#X connect 4 1 5 0;
#X connect 5 0 6 0;
#X connect 6 0 7 0;
#X connect 7 0 11 1;
#X connect 7 1 8 0;
#X connect 8 0 10 0;
#X connect 10 0 9 0;
#X connect 11 0 12 0;
#X connect 12 0 18 0;
#X connect 12 1 15 0;
#X connect 12 2 17 2;
#X connect 15 0 16 0;
#X connect 15 1 19 0;
#X connect 16 0 9 0;
#X connect 17 0 1 0;
#X connect 18 0 21 0;
#X connect 18 1 17 0;
#X connect 19 0 14 0;
#X connect 19 1 17 1;
#X connect 20 0 13 0;
#X connect 21 0 20 0;
#X restore 482 237 pd arguments;
#X obj 307 130 moses \$2;
#X obj 431 237 t f f;
#X obj 457 85 clip;
#X obj 482 330 list prepend open;
#X obj 482 354 list trim;
#X obj 211 253 pix_contrast;
#X obj 309 20 inlet;
#X obj 251 229 route c s;
#X obj 293 482 bng 15 250 50 0 empty empty empty 17 7 0 10 -262144
-1 -1;
#X connect 0 0 25 0;
#X connect 0 1 20 0;
#X connect 0 2 16 0;
#X connect 0 3 1 0;
#X connect 1 0 15 0;
#X connect 2 0 0 1;
#X connect 2 1 19 1;
#X connect 3 0 6 0;
#X connect 4 0 5 0;
#X connect 4 0 34 0;
#X connect 5 0 4 1;
#X connect 6 0 26 0;
#X connect 6 1 18 0;
#X connect 7 0 4 0;
#X connect 8 0 11 0;
#X connect 8 0 24 0;
#X connect 9 0 35 0;
#X connect 10 0 37 0;
#X connect 11 0 26 1;
#X connect 11 2 7 0;
#X connect 11 2 24 0;
#X connect 12 0 11 0;
#X connect 13 0 34 1;
#X connect 13 1 9 0;
#X connect 13 2 8 0;
#X connect 18 0 17 0;
#X connect 19 0 39 0;
#X connect 21 0 36 0;
#X connect 22 0 23 0;
#X connect 22 1 28 0;
#X connect 23 0 20 0;
#X connect 24 0 23 1;
#X connect 25 0 3 0;
#X connect 26 0 4 0;
#X connect 27 0 28 1;
#X connect 28 0 0 0;
#X connect 29 0 12 0;
#X connect 29 1 19 0;
#X connect 30 0 29 0;
#X connect 33 0 10 0;
#X connect 33 1 13 0;
#X connect 34 0 2 0;
#X connect 34 1 8 0;
#X connect 34 1 27 0;
#X connect 35 0 10 1;
#X connect 35 1 36 2;
#X connect 36 0 19 1;
#X connect 37 0 38 0;
#X connect 38 0 19 0;
#X connect 39 0 22 0;
#X connect 40 0 41 0;
#X connect 41 0 39 1;
#X connect 41 1 39 2;
#X connect 42 0 18 0;
