#N canvas 69 97 1181 634 12;
#X obj 54 506 dac~;
#X obj 96 452 *~;
#X obj 208 43 vsl 15 128 0 127 0 0 empty empty empty 0 -9 0 10 #fcfcfc #000000 #000000 0 1;
#X obj 210 217 dbtorms;
#X obj 210 241 pack f 10;
#X obj 210 265 line~;
#X obj 38 258 env~;
#X floatatom 38 283 5 0 0 0 - - - 0;
#X floatatom 32 67 5 0 0 0 - - - 0;
#X msg 25 97 all fundamental \$1;
#X obj 609 94 tgl 15 0 empty empty empty 17 7 0 10 #fcfcfc #000000 #000000 0 1;
#X obj 609 114 metro 100;
#X floatatom 665 73 5 0 0 0 - - - 0;
#X msg 31 41 52;
#X obj 56 138 r \$0-digitar;
#X obj 610 169 s \$0-digitar;
#X floatatom 807 254 5 0 0 0 - - - 0;
#X obj 807 277 t b f;
#X obj 789 303 pack f f f;
#X floatatom 856 254 5 0 0 0 - - - 0;
#X obj 856 277 t b f;
#X floatatom 765 253 5 0 0 0 - - - 0;
#X msg 789 327 all pluck \$1 \$2 \$3;
#X msg 340 76 all filter reset;
#X obj 210 189 expr $f1/127*100;
#X msg 915 260 all noise bang;
#X obj 26 309 clip~ -1 1;
#X obj 25 227 *~ 0.1667;
#N canvas 239 49 837 569 soloist 0;
#X obj 42 132 fd_karplus 0 0;
#X obj 42 180 clip~ -1 1;
#X obj 43 247 hip~ 3;
#X floatatom 131 26 5 0 0 0 - - - 0;
#X obj 266 9 key;
#X obj 266 33 moses 48;
#X obj 312 58 moses 58;
#X obj 177 380 env~;
#X floatatom 177 404 5 0 0 0 - - - 0;
#X msg 80 79 pitch \$1 \, bang;
#X floatatom 34 73 5 0 0 0 - - - 0;
#X msg 32 97 glide \$1;
#X obj 193 61 - 48;
#X obj 42 156 *~ 1.2;
#X obj 325 359 rev3~ 100 98 3000 225;
#X floatatom 383 322 5 0 0 0 - - - 0;
#X obj 377 118 timer;
#X obj 291 85 t f b b;
#X floatatom 379 136 5 0 0 0 - - - 0;
#X obj 379 159 > 100;
#X obj 295 114 spigot;
#X floatatom 362 210 5 0 0 0 - - - 0;
#X msg 357 247 fundamental \$1;
#X obj 42 214 *~ 0.6;
#X floatatom 132 166 5 0 0 0 - - - 0;
#X obj 132 189 / 100;
#X obj 132 213 + 1;
#X obj 273 398 osc~;
#X obj 273 446 *~ 0.1;
#X obj 227 155 mtof;
#X obj 193 85 +;
#X floatatom 337 426 5 0 0 0 - - - 0;
#X obj 273 422 *~;
#X obj 643 71 vsl 15 128 0 127 0 0 empty empty empty 0 -9 0 10 #fcfcfc #000000 #000000 0 1;
#X obj 645 245 dbtorms;
#X obj 645 269 pack f 10;
#X obj 645 293 line~;
#X obj 645 217 expr $f1/127*100;
#X obj 320 505 *~;
#X obj 351 507 *~;
#X obj 308 537 dac~;
#X obj 278 502 *~;
#X obj 9 3 loadbang;
#X msg 9 27 freepitch 1;
#X obj 105 52 + 60;
#X obj 469 37 tgl 15 0 empty empty empty 17 7 0 10 #fcfcfc #000000 #000000 0 1;
#X obj 469 57 switch~;
#X connect 0 0 13 0;
#X connect 1 0 23 0;
#X connect 2 0 7 0;
#X connect 2 0 41 0;
#X connect 2 0 14 0;
#X connect 3 0 44 0;
#X connect 4 0 5 0;
#X connect 5 1 6 0;
#X connect 6 0 17 0;
#X connect 7 0 8 0;
#X connect 9 0 0 0;
#X connect 10 0 11 0;
#X connect 11 0 0 0;
#X connect 12 0 3 0;
#X connect 12 0 30 0;
#X connect 13 0 1 0;
#X connect 14 0 32 1;
#X connect 14 0 38 0;
#X connect 14 1 32 1;
#X connect 14 1 39 0;
#X connect 15 0 14 2;
#X connect 16 0 18 0;
#X connect 17 0 20 0;
#X connect 17 1 16 0;
#X connect 17 2 16 1;
#X connect 18 0 19 0;
#X connect 19 0 20 1;
#X connect 20 0 12 0;
#X connect 21 0 22 0;
#X connect 21 0 30 1;
#X connect 22 0 0 0;
#X connect 23 0 2 0;
#X connect 24 0 25 0;
#X connect 25 0 26 0;
#X connect 26 0 13 1;
#X connect 27 0 32 0;
#X connect 28 0 38 0;
#X connect 28 0 39 0;
#X connect 29 0 27 0;
#X connect 30 0 29 0;
#X connect 31 0 28 1;
#X connect 32 0 28 0;
#X connect 33 0 37 0;
#X connect 34 0 35 0;
#X connect 35 0 36 0;
#X connect 36 0 39 1;
#X connect 36 0 38 1;
#X connect 36 0 41 1;
#X connect 37 0 34 0;
#X connect 38 0 40 0;
#X connect 39 0 40 1;
#X connect 41 0 40 0;
#X connect 41 0 40 1;
#X connect 42 0 43 0;
#X connect 43 0 0 0;
#X connect 44 0 9 0;
#X connect 45 0 46 0;
#X restore 823 30 pd soloist;
#X obj 821 75 bng 15 250 50 0 empty empty empty 17 7 0 10 #fcfcfc #000000 #000000;
#N canvas 264 118 543 376 tune 0;
#X obj 46 95 text sequence params;
#X msg 42 47 line 0 \, auto;
#X obj 46 119 t b a;
#X obj 46 143 f;
#X obj 46 167 + 1;
#X msg 117 150 0;
#X obj 63 269 list;
#X obj 96 223 list prepend pitch;
#X obj 194 254 list prepend vibrato;
#X obj 82 176 list split 1;
#X obj 196 159 list split 2;
#X obj 151 302 list;
#X obj 60 245 t f f;
#X obj 56 331 s \$0-digitar;
#X obj 340 60 text define -k params;
#A set 0 6 0.1 -1 \; 5 6 0.1 -1 \; 9 6 0.05 -1 \; 14 6 0.05 -1 \; 19 6 0.01 -1 \; 24 6 0.01 -1 \;;
#X obj 57 16 inlet;
#X obj 273 192 list split 1;
#X obj 273 216 list prepend range;
#X obj 185 278 list;
#X connect 0 0 2 0;
#X connect 0 1 5 0;
#X connect 1 0 0 0;
#X connect 2 0 3 0;
#X connect 2 1 9 0;
#X connect 3 0 4 0;
#X connect 3 0 12 0;
#X connect 4 0 3 1;
#X connect 5 0 3 1;
#X connect 6 0 13 0;
#X connect 7 0 6 1;
#X connect 8 0 18 0;
#X connect 9 0 7 0;
#X connect 9 1 10 0;
#X connect 10 0 8 0;
#X connect 10 1 16 0;
#X connect 11 0 13 0;
#X connect 12 0 6 0;
#X connect 12 1 11 0;
#X connect 15 0 1 0;
#X connect 16 0 17 0;
#X connect 17 0 18 1;
#X connect 18 0 11 1;
#X restore 821 97 pd tune;
#N canvas 152 166 612 554 chords 0;
#X obj 81 171 random 10;
#X obj 79 250 f;
#X obj 111 250 + 1;
#X obj 93 274 sel 6;
#X msg 136 226 0;
#X obj 99 302 t b f;
#X obj 77 145 bng 15 250 50 0 empty empty empty 17 7 0 10 #fcfcfc #000000 #000000;
#X obj 76 225 t b f;
#X obj 45 218 del;
#X floatatom 157 171 5 0 0 0 - - - 0;
#X obj 80 330 s \$0-digitar;
#X obj 77 194 + 10;
#X obj 65 18 tgl 15 0 empty empty empty 17 7 0 10 #fcfcfc #000000 #000000 0 1;
#X obj 66 38 metro 200;
#X obj 66 62 random 5;
#X obj 66 86 < 2;
#X obj 69 115 sel 1;
#X obj 130 71 tgl 15 0 empty empty empty 17 7 0 10 #fcfcfc #000000 #000000 0 1;
#X obj 130 95 sel;
#X obj 130 119 random 2;
#X obj 130 143 sel 1;
#X obj 187 305 t b f;
#X obj 187 329 f;
#X obj 221 332 + 1;
#X obj 187 255 random 10;
#X obj 187 280 - 5;
#X obj 187 353 + 50;
#X obj 181 391 t f f;
#X obj 239 408 moses 40;
#X msg 231 365 0;
#X obj 247 386 moses 80;
#X floatatom 189 93 5 0 0 0 - - - 0;
#X msg 191 449 all fundamental \$1;
#X obj 191 473 s \$0-digitar;
#X obj 93 8 inlet;
#X floatatom 144 417 5 0 0 0 - - - 0;
#X connect 0 0 11 0;
#X connect 1 0 2 0;
#X connect 1 0 3 0;
#X connect 2 0 1 1;
#X connect 3 0 4 0;
#X connect 3 1 5 0;
#X connect 4 0 1 1;
#X connect 5 0 8 0;
#X connect 5 1 10 0;
#X connect 6 0 0 0;
#X connect 7 0 1 0;
#X connect 7 1 8 1;
#X connect 8 0 6 0;
#X connect 9 0 0 1;
#X connect 11 0 7 0;
#X connect 12 0 13 0;
#X connect 13 0 14 0;
#X connect 13 0 17 0;
#X connect 14 0 15 0;
#X connect 15 0 16 0;
#X connect 16 0 6 0;
#X connect 17 0 18 0;
#X connect 18 0 19 0;
#X connect 19 0 20 0;
#X connect 20 0 6 0;
#X connect 20 0 24 0;
#X connect 21 0 22 0;
#X connect 21 1 23 1;
#X connect 22 0 23 0;
#X connect 22 0 26 0;
#X connect 23 0 22 1;
#X connect 24 0 25 0;
#X connect 25 0 21 0;
#X connect 26 0 27 0;
#X connect 27 0 35 0;
#X connect 27 0 32 0;
#X connect 27 1 28 0;
#X connect 28 0 29 0;
#X connect 28 1 30 0;
#X connect 29 0 22 1;
#X connect 30 1 29 0;
#X connect 31 0 19 1;
#X connect 32 0 33 0;
#X connect 34 0 12 0;
#X restore 829 155 pd chords;
#X obj 824 132 tgl 15 0 empty empty empty 17 7 0 10 #fcfcfc #000000 #000000 0 1;
#X obj 786 348 s \$0-digitar;
#X text 767 227 pluck quality;
#X msg 881 440 4 block 1;
#X msg 774 438 all block 64;
#X floatatom 289 409 5 0 0 0 - - - 0;
#X msg 289 432 5 pitch \$1 \, 4 pitch \$1;
#X floatatom 292 336 5 0 0 0 - - - 0;
#X msg 292 359 3 pitch \$1 \, 2 pitch \$1;
#X floatatom 537 351 5 0 0 0 - - - 0;
#X obj 570 412 pack;
#X floatatom 591 343 5 0 0 0 - - - 0;
#X msg 572 442 all vibrato \$1 \$2;
#X obj 583 386 t b f;
#X obj 290 383 s \$0-digitar;
#X obj 289 456 s \$0-digitar;
#X obj 881 464 s \$0-digitar;
#X obj 774 462 s \$0-digitar;
#X obj 572 466 s \$0-digitar;
#X text 174 541 pitches;
#X text 757 411 block size (use 1 for high register);
#X text 520 318 vibrato speed and width;
#X obj 915 281 s \$0-digitar;
#X text 913 230 change input noise;
#X obj 321 135 s \$0-digitar;
#X msg 935 73 \; pd dsp 1;
#X obj 25 183 clone fd_karplus 6 \$0;
#X msg 609 138 next bang;
#X floatatom 341 528 5 0 0 0 - - - 0;
#X msg 342 548 1 pitch \$1;
#X obj 342 572 s \$0-digitar;
#X floatatom 436 529 5 0 0 0 - - - 0;
#X obj 437 573 s \$0-digitar;
#X floatatom 534 528 5 0 0 0 - - - 0;
#X obj 535 572 s \$0-digitar;
#X floatatom 628 527 5 0 0 0 - - - 0;
#X obj 629 571 s \$0-digitar;
#X floatatom 723 528 5 0 0 0 - - - 0;
#X obj 724 572 s \$0-digitar;
#X floatatom 814 526 5 0 0 0 - - - 0;
#X obj 815 570 s \$0-digitar;
#X msg 437 549 2 pitch \$1;
#X msg 535 548 3 pitch \$1;
#X msg 629 547 4 pitch \$1;
#X msg 724 548 5 pitch \$1;
#X msg 815 546 6 pitch \$1;
#X floatatom 246 524 5 0 0 0 - - - 0;
#X obj 246 570 s \$0-digitar;
#X msg 247 546 0 pitch \$1;
#X msg 287 36 all volume 127 \, all freepitch 1 \, all preset 0 \, all range -1;
#X obj 587 364 / 100;
#X obj 541 375 / 10;
#X obj 136 450 *~;
#X obj 38 443 *~;
#X floatatom 116 345 5 0 0 0 - - - 0;
#X floatatom 150 354 5 0 0 0 - - - 0;
#X floatatom 213 361 5 0 0 0 - - - 0;
#X obj 67 392 rev3~ 100 90 5000 80;
#X obj 46 351 *~;
#X obj 79 349 tgl 19 0 empty empty empty 0 -10 0 12 #fcfcfc #000000 #000000 0 1;
#X connect 1 0 0 0;
#X connect 2 0 24 0;
#X connect 3 0 4 0;
#X connect 4 0 5 0;
#X connect 5 0 1 1;
#X connect 5 0 84 1;
#X connect 5 0 85 1;
#X connect 6 0 7 0;
#X connect 8 0 9 0;
#X connect 9 0 58 0;
#X connect 10 0 11 0;
#X connect 11 0 59 0;
#X connect 12 0 11 1;
#X connect 13 0 8 0;
#X connect 14 0 58 0;
#X connect 16 0 17 0;
#X connect 17 0 18 0;
#X connect 17 1 18 1;
#X connect 18 0 22 0;
#X connect 19 0 20 0;
#X connect 20 0 18 0;
#X connect 20 1 18 2;
#X connect 21 0 18 0;
#X connect 22 0 33 0;
#X connect 23 0 56 0;
#X connect 24 0 3 0;
#X connect 25 0 54 0;
#X connect 26 0 85 0;
#X connect 26 0 90 0;
#X connect 27 0 26 0;
#X connect 27 0 6 0;
#X connect 29 0 30 0;
#X connect 32 0 31 0;
#X connect 35 0 48 0;
#X connect 36 0 49 0;
#X connect 37 0 38 0;
#X connect 38 0 47 0;
#X connect 39 0 40 0;
#X connect 40 0 46 0;
#X connect 41 0 83 0;
#X connect 42 0 44 0;
#X connect 43 0 82 0;
#X connect 44 0 50 0;
#X connect 45 0 42 0;
#X connect 45 1 42 1;
#X connect 58 0 27 0;
#X connect 59 0 15 0;
#X connect 60 0 61 0;
#X connect 61 0 62 0;
#X connect 63 0 73 0;
#X connect 65 0 74 0;
#X connect 67 0 75 0;
#X connect 69 0 76 0;
#X connect 71 0 77 0;
#X connect 73 0 64 0;
#X connect 74 0 66 0;
#X connect 75 0 68 0;
#X connect 76 0 70 0;
#X connect 77 0 72 0;
#X connect 78 0 80 0;
#X connect 80 0 79 0;
#X connect 81 0 56 0;
#X connect 82 0 45 0;
#X connect 83 0 42 0;
#X connect 84 0 0 1;
#X connect 85 0 0 0;
#X connect 85 0 0 1;
#X connect 86 0 89 2;
#X connect 87 0 89 3;
#X connect 88 0 89 4;
#X connect 89 0 1 0;
#X connect 89 1 84 0;
#X connect 90 0 89 0;
#X connect 91 0 90 1;
