#N canvas 355 22 467 642 12;
#X obj 193 176 * 1;
#X obj 32 532 pow 0.5;
#X obj 32 557 /;
#X obj 277 537 pow -0.5;
#X obj 128 577 *;
#X obj 32 109 exp;
#X obj 32 135 *;
#X obj 32 162 t b f;
#X obj 32 224 f;
#X obj 32 282 -;
#X obj 32 355 /;
#X obj 240 256 t b f;
#X msg 240 282 1;
#X obj 240 308 -;
#X obj 277 288 exp;
#X obj 205 112 t b f;
#X obj 193 145 f;
#X obj 32 308 pow 2;
#X obj 32 422 *;
#X obj 53 394 * -1;
#X obj 32 449 exp;
#X obj 88 32 inlet;
#X obj 32 507 f;
#X obj 32 475 t b f;
#X obj 32 82 f;
#X obj 32 57 t b f;
#X obj 128 603 outlet;
#X obj 240 232 * -2;
#X obj 193 232 * -1;
#X obj 140 32 inlet;
#X obj 205 32 inlet;
#X obj 318 42 loadbang;
#X obj 32 32 inlet;
#X obj 240 335 t f f;
#X obj 140 58 t f f f;
#X obj 193 201 t f f;
#X obj 277 511 * 3.14159;
#X obj 318 67 pack \$1 \$2 \$3;
#X obj 318 92 unpack f f f;
#X connect 0 0 35 0;
#X connect 1 0 2 0;
#X connect 2 0 4 0;
#X connect 3 0 2 1;
#X connect 4 0 26 0;
#X connect 5 0 6 0;
#X connect 6 0 7 0;
#X connect 7 0 8 0;
#X connect 7 1 9 1;
#X connect 8 0 9 0;
#X connect 9 0 17 0;
#X connect 10 0 18 0;
#X connect 11 0 12 0;
#X connect 11 1 14 0;
#X connect 12 0 13 0;
#X connect 13 0 33 0;
#X connect 14 0 13 1;
#X connect 15 0 16 0;
#X connect 15 1 0 1;
#X connect 16 0 0 0;
#X connect 17 0 10 0;
#X connect 18 0 20 0;
#X connect 19 0 18 1;
#X connect 20 0 23 0;
#X connect 21 0 8 1;
#X connect 22 0 1 0;
#X connect 23 0 22 0;
#X connect 23 1 4 1;
#X connect 24 0 5 0;
#X connect 25 0 24 0;
#X connect 25 1 6 1;
#X connect 27 0 11 0;
#X connect 28 0 24 1;
#X connect 29 0 34 0;
#X connect 30 0 15 0;
#X connect 31 0 37 0;
#X connect 32 0 25 0;
#X connect 33 0 10 1;
#X connect 33 1 36 0;
#X connect 34 0 19 0;
#X connect 34 1 22 1;
#X connect 34 2 16 0;
#X connect 35 0 28 0;
#X connect 35 1 27 0;
#X connect 36 0 3 0;
#X connect 37 0 38 0;
#X connect 38 0 8 1;
#X connect 38 1 34 0;
#X connect 38 2 15 0;
