#N canvas 172 622 490 350 12;
#X obj 76 25 inlet~;
#X obj 76 270 outlet~;
#X obj 147 26 inlet;
#X msg 193 150 1 \$1;
#X obj 193 174 -;
#X obj 193 221 line~;
#X obj 76 240 *~;
#X obj 193 126 fd_fletcher-munson;
#X obj 147 110 line~;
#X obj 147 80 pack f 20;
#X obj 193 198 pack f 20;
#X obj 94 149 fd_sdel~;
#X obj 147 52 t f f;
#X obj 76 208 *~;
#X connect 0 0 11 0;
#X connect 0 0 13 0;
#X connect 2 0 12 0;
#X connect 3 0 4 0;
#X connect 4 0 10 0;
#X connect 5 0 6 1;
#X connect 6 0 1 0;
#X connect 7 0 3 0;
#X connect 8 0 11 2;
#X connect 9 0 8 0;
#X connect 10 0 5 0;
#X connect 11 0 13 1;
#X connect 12 0 9 0;
#X connect 12 1 7 0;
#X connect 13 0 6 0;
