#N canvas 486 135 550 550 12;
#X declare -stdlib iemmatrix;
#X obj 190 103 sqrt;
#X msg 118 299 GREY \, set \$1 \$1;
#X obj 265 12 inlet;
#X obj 90 431 pix_set;
#X obj 74 23 inlet;
#X obj 90 456 outlet;
#X obj 190 79 array size \$1;
#X obj 237 197 array get \$1;
#X obj 260 250 list prepend;
#X obj 260 275 list trim;
#X obj 256 359 list split 3;
#X obj 384 178 list prepend matrix, f 7;
#X msg 384 149 \$1 \$1;
#X obj 265 37 t b a a;
#X obj 189 163 t b f f;
#X obj 388 10 declare -stdlib iemmatrix, f 9;
#X obj 261 333 mtx_transpose;
#X obj 309 302 mtx_reverse;
#X connect 0 0 14 0;
#X connect 1 0 3 0;
#X connect 2 0 13 0;
#X connect 3 0 5 0;
#X connect 4 0 3 0;
#X connect 6 0 0 0;
#X connect 7 0 8 0;
#X connect 8 0 9 0;
#X connect 9 0 16 0;
#X connect 10 1 3 1;
#X connect 11 0 8 1;
#X connect 12 0 11 0;
#X connect 13 0 6 0;
#X connect 13 1 6 1;
#X connect 13 2 7 2;
#X connect 14 0 7 0;
#X connect 14 1 1 0;
#X connect 14 2 12 0;
#X connect 16 0 10 0;
