#N canvas 0 22 419 467 12;
#X obj 81 197 sel 0;
#X obj 136 198 sel;
#X obj 131 304 outlet;
#X obj 188 199 - 1;
#X msg 200 259 1;
#X msg 87 258 0;
#X msg 141 258 2;
#X obj 96 41 inlet;
#X obj 82 164 fd_iterate;
#X obj 283 299 outlet;
#X obj 96 67 t f f f;
#X connect 0 0 5 0;
#X connect 0 1 1 0;
#X connect 1 0 6 0;
#X connect 1 1 4 0;
#X connect 3 0 1 1;
#X connect 4 0 2 0;
#X connect 5 0 2 0;
#X connect 6 0 2 0;
#X connect 7 0 10 0;
#X connect 8 0 0 0;
#X connect 10 0 8 0;
#X connect 10 1 3 0;
#X connect 10 2 9 0;
