#N canvas 0 22 450 300 12;
#X obj 33 83 tgl 15 0 empty empty empty 17 7 0 10 -262144 -1 -1 0 1
;
#X obj 33 54 t b p;
#X obj 33 31 inlet;
#X obj 33 114 _rwalk;
#X obj 91 114 _rwalk;
#X obj 33 140 set templ-1 x y vis;
#X obj 172 83 r numvis;
#X connect 0 0 3 0;
#X connect 0 0 4 0;
#X connect 1 0 0 0;
#X connect 1 1 5 3;
#X connect 2 0 1 0;
#X connect 3 0 5 0;
#X connect 4 0 5 1;
#X connect 6 0 5 2;
