#N canvas 0 22 566 423 12;
#X obj 123 113 f;
#X obj 104 198 random 4;
#X obj 26 197 random 2;
#X obj 123 138 t b b f;
#X obj 26 253 sel 0 1;
#X obj 159 328 +;
#X obj 123 87 metro 100;
#X obj 104 252 + 1;
#X obj 82 309 *;
#X msg 26 282 -1;
#X obj 242 83 moses 0;
#X obj 316 83 moses 100;
#X obj 242 107 * -1;
#X obj 407 86 * -1;
#X obj 407 111 + 200;
#X msg 60 282 1;
#X text 298 152 output;
#X text 35 235 sign;
#X text 113 234 magnitude;
#X text 203 313 add prev value;
#X text 200 330 to random increment;
#X obj 124 30 inlet;
#X text 44 367 see: doc/2.control.examples/22.random-walk.pd;
#X obj 242 175 t f f;
#X obj 283 205 outlet;
#X connect 0 0 3 0;
#X connect 1 0 7 0;
#X connect 2 0 4 0;
#X connect 3 0 2 0;
#X connect 3 1 1 0;
#X connect 3 2 5 1;
#X connect 4 0 9 0;
#X connect 4 1 15 0;
#X connect 5 0 10 0;
#X connect 6 0 0 0;
#X connect 7 0 8 1;
#X connect 8 0 5 0;
#X connect 9 0 8 0;
#X connect 10 0 12 0;
#X connect 10 1 11 0;
#X connect 11 0 23 0;
#X connect 11 1 13 0;
#X connect 12 0 23 0;
#X connect 13 0 14 0;
#X connect 14 0 23 0;
#X connect 15 0 8 0;
#X connect 21 0 6 0;
#X connect 23 0 0 1;
#X connect 23 1 24 0;
