#N canvas 0 22 385 408 12;
#X obj 85 87 fd_updown;
#X obj 81 147 *;
#X obj 134 147 *;
#X obj 106 171 sel;
#X msg 138 328 delta \$1 0;
#X obj 77 122 * -0.1;
#X obj 134 122 * 0.1;
#X obj 145 219 change;
#X obj 145 194 int;
#X obj 93 62 t f b;
#X obj 145 244 list prepend;
#X msg 151 61 0;
#X obj 150 171 t f b;
#X msg 208 170 1;
#X obj 145 269 route 0 1;
#X msg 175 299 delta 0 \$1;
#X msg 203 114 127 \$1;
#X obj 203 139 -;
#X obj 90 13 inlet;
#X obj 209 16 inlet;
#X obj 134 358 s \$1;
#X connect 0 0 5 0;
#X connect 0 0 6 0;
#X connect 0 1 1 1;
#X connect 0 2 2 1;
#X connect 1 0 3 0;
#X connect 2 0 3 0;
#X connect 3 1 8 0;
#X connect 4 0 20 0;
#X connect 5 0 1 0;
#X connect 6 0 2 0;
#X connect 7 0 10 0;
#X connect 8 0 7 0;
#X connect 9 0 0 0;
#X connect 9 1 11 0;
#X connect 10 0 14 0;
#X connect 11 0 10 1;
#X connect 12 0 0 0;
#X connect 12 1 13 0;
#X connect 13 0 10 1;
#X connect 14 0 4 0;
#X connect 14 1 15 0;
#X connect 15 0 20 0;
#X connect 16 0 17 0;
#X connect 17 0 12 0;
#X connect 18 0 9 0;
#X connect 19 0 16 0;
