#N canvas 608 68 483 461 12;
#X obj 34 198 samplerate~;
#X msg 75 220 0;
#X obj 34 242 phasor~;
#X obj 211 22 inlet;
#X msg 325 104 resize \$1;
#X msg 270 271 set \$1;
#X obj 292 205 array define \$1 \$2;
#X obj 34 220 / \$2;
#X obj 19 406 tabsend~ \$1;
#X obj 268 330 switch~ \$2;
#X msg 290 178 normalize 1;
#X obj 290 156 del 1 1 samp;
#X obj 34 286 *~;
#X obj 34 330 *~ -1;
#X obj 34 352 exp~;
#X obj 34 43 sig~ 3.14159;
#X obj 34 87 *~ 2;
#X obj 34 109 sqrt~;
#X obj 19 20 sig~ 1;
#X obj 19 173 /~;
#X obj 19 375 *~;
#X obj 168 213 t f f;
#X obj 114 65 pow 2;
#X obj 211 287 * 2;
#X obj 161 251 sel 0;
#X msg 108 284 9.99995e-41;
#X obj 34 131 +~ 9.99995e-41;
#X obj 34 65 *~ 0.0004;
#X obj 34 308 /~ 0.04;
#X obj 34 264 -~ 0.5;
#X text 250 399 see fd_windows.pd;
#X obj 211 44 route bang float q w;
#X floatatom 371 6 5 0 0 0 - - -, f 5;
#X msg 371 28 w \$1 \, bang;
#X floatatom 272 4 5 0 0 0 - - -, f 5;
#X text 50 375 this needs to be normalized \, in the area below the
curve;
#X msg 272 26 q \$1 \, bang;
#X connect 0 0 7 0;
#X connect 1 0 2 1;
#X connect 2 0 29 0;
#X connect 3 0 31 0;
#X connect 4 0 6 0;
#X connect 5 0 9 0;
#X connect 7 0 2 0;
#X connect 10 0 6 0;
#X connect 11 0 10 0;
#X connect 12 0 28 0;
#X connect 13 0 14 0;
#X connect 14 0 20 1;
#X connect 15 0 27 0;
#X connect 16 0 17 0;
#X connect 17 0 26 0;
#X connect 18 0 19 0;
#X connect 19 0 20 0;
#X connect 20 0 8 0;
#X connect 21 0 22 0;
#X connect 21 1 24 0;
#X connect 22 0 27 1;
#X connect 23 0 28 1;
#X connect 24 0 25 0;
#X connect 24 1 23 0;
#X connect 25 0 28 1;
#X connect 26 0 19 1;
#X connect 27 0 16 0;
#X connect 28 0 13 0;
#X connect 29 0 12 0;
#X connect 29 0 12 1;
#X connect 31 0 0 0;
#X connect 31 0 9 0;
#X connect 31 0 1 0;
#X connect 31 0 11 0;
#X connect 31 1 4 0;
#X connect 31 1 5 0;
#X connect 31 1 7 1;
#X connect 31 1 11 1;
#X connect 31 2 29 1;
#X connect 31 3 21 0;
#X connect 31 4 6 0;
#X connect 32 0 33 0;
#X connect 33 0 31 0;
#X connect 34 0 36 0;
#X connect 36 0 31 0;
