#N canvas 470 77 322 293 10;
#X obj 16 10 loadbang;
#X msg 16 68 1, f 2;
#X obj 16 178 metro 10;
#X obj 16 219 f;
#X obj 16 241 outlet;
#X obj 118 12 inlet;
#X obj 118 180 route analog;
#X obj 118 202 route;
#X obj 145 49 f \$1;
#X obj 41 68 f \$2;
#X obj 53 133 sel 0;
#X obj 41 113 moses 0;
#X obj 41 155 s \$0-warn;
#N canvas 0 22 276 144 warn 0;
#X obj 15 83 print WARNING;
#X msg 15 61 MUST BE GREATER THAN 0 \, DEFAULT 10;
#X obj 15 38 bang;
#X obj 15 13 r \$0-warn;
#X connect 1 0 0 0;
#X connect 2 0 1 0;
#X connect 3 0 2 0;
#X restore 16 262 pd warn;
#X obj 16 90 tgl 15 0 empty empty empty 17 7 0 10 -262144 -1 -1 1 1
;
#X obj 254 12 inlet;
#X obj 16 32 t b b b, f 9;
#X obj 254 73 t f;
#X obj 189 11 inlet;
#X obj 189 96 t f;
#X connect 0 0 16 0;
#X connect 1 0 14 0;
#X connect 2 0 3 0;
#X connect 3 0 4 0;
#X connect 5 0 6 0;
#X connect 6 0 7 0;
#X connect 7 0 3 1;
#X connect 8 0 7 1;
#X connect 9 0 11 0;
#X connect 10 0 12 0;
#X connect 10 1 2 1;
#X connect 11 0 12 0;
#X connect 11 1 10 0;
#X connect 14 0 2 0;
#X connect 15 0 17 0;
#X connect 16 0 1 0;
#X connect 16 1 9 0;
#X connect 16 2 8 0;
#X connect 17 0 14 0;
#X connect 18 0 19 0;
#X connect 19 0 11 0;
