#N canvas 523 51 420 541 12;
#X msg 276 468 clear;
#X obj 259 257 + 1;
#X obj 46 94 t a b;
#X obj 46 287 list prepend;
#X obj 162 267 + 10;
#X msg 239 94 0;
#X obj 218 257 f;
#X obj 46 329 list prepend;
#X obj 162 114 f;
#X obj 194 114 + 1;
#X obj 46 448 list trim;
#X obj 46 364 list prepend obj;
#X obj 218 309 + 10;
#X obj 162 242 * 25;
#X obj 162 179 mod 20;
#X obj 162 209 t f f;
#X obj 218 283 * 400;
#X obj 239 25 inlet;
#X obj 46 30 inlet;
#X obj 239 50 t b b;
#X obj 218 229 sel;
#X obj 46 488 s pd-\$1, f 12;
#X text 185 362 <-- change this to 'text' \, or other type, f 22;
#X text 276 283 <-- fine-tune positioning, f 13;
#X obj 46 232 list prepend \$2, f 10;
#X obj 46 402 list append \$3, f 10;
#X connect 0 0 21 0;
#X connect 1 0 6 1;
#X connect 2 0 24 0;
#X connect 2 1 8 0;
#X connect 3 0 7 0;
#X connect 4 0 3 1;
#X connect 5 0 6 1;
#X connect 5 0 8 1;
#X connect 6 0 1 0;
#X connect 6 0 16 0;
#X connect 7 0 11 0;
#X connect 8 0 9 0;
#X connect 8 0 14 0;
#X connect 9 0 8 1;
#X connect 10 0 21 0;
#X connect 11 0 25 0;
#X connect 12 0 7 1;
#X connect 13 0 4 0;
#X connect 14 0 15 0;
#X connect 15 0 13 0;
#X connect 15 1 20 0;
#X connect 16 0 12 0;
#X connect 17 0 19 0;
#X connect 18 0 2 0;
#X connect 19 0 5 0;
#X connect 19 1 0 0;
#X connect 20 0 6 0;
#X connect 24 0 3 0;
#X connect 25 0 10 0;
