#N canvas 525 62 537 694 12;
#X obj 60 578 glsl_program;
#X msg 70 515 link \$1 \$2;
#X obj 60 320 glsl_vertex;
#X obj 60 443 glsl_fragment;
#X obj 70 489 pack;
#X obj 334 24 inlet;
#X msg 72 288 open \$1.vert;
#X msg 71 411 open \$1.frag;
#X obj 299 484 r \$1;
#X obj 392 136 symbol \$1;
#X obj 334 186 route open bang;
#X obj 60 23 inlet gemlist;
#X obj 60 634 outlet gemlist;
#X obj 109 102 loadbang;
#X obj 109 127 ggee/getdir 1;
#X obj 109 152 makefilename %s/%%s;
#X obj 72 260 makefilename;
#X obj 334 213 t a a;
#X obj 72 233 symbol;
#X msg 109 177 set \$1;
#X obj 109 204 t a a;
#X obj 71 385 makefilename;
#X obj 71 358 symbol;
#X text 260 576 see fd_shader-help.pd;
#X text 251 614 Needs Gem \, ggee;
#X obj 392 68 spigot 1;
#X obj 392 93 t b b;
#X msg 438 92 0;
#X obj 60 48 t a b;
#X connect 0 0 12 0;
#X connect 1 0 0 0;
#X connect 2 0 3 0;
#X connect 2 1 4 0;
#X connect 3 0 0 0;
#X connect 3 1 4 1;
#X connect 4 0 1 0;
#X connect 5 0 10 0;
#X connect 6 0 2 0;
#X connect 7 0 3 0;
#X connect 8 0 0 0;
#X connect 9 0 17 0;
#X connect 10 0 17 0;
#X connect 10 1 9 0;
#X connect 10 2 0 0;
#X connect 11 0 28 0;
#X connect 13 0 14 0;
#X connect 14 0 15 0;
#X connect 15 0 19 0;
#X connect 16 0 6 0;
#X connect 17 0 18 0;
#X connect 17 1 22 0;
#X connect 18 0 16 0;
#X connect 19 0 20 0;
#X connect 20 0 16 0;
#X connect 20 1 21 0;
#X connect 21 0 7 0;
#X connect 22 0 21 0;
#X connect 25 0 26 0;
#X connect 26 0 9 0;
#X connect 26 1 27 0;
#X connect 27 0 25 1;
#X connect 28 0 2 0;
#X connect 28 1 25 0;
