#N canvas 584 97 450 300 12;
#X obj 34 238 vline~;
#X obj 34 263 dac~;
#X msg 327 12 \; pd dsp 1;
#X msg 327 54 \; pd dsp 0;
#X msg 184 111 r \$1;
#X floatatom 184 65 5 0 0 0 - - -, f 5;
#X obj 184 87 max 1;
#X obj 34 38 tgl 15 0 empty empty empty 17 7 0 10 -262144 -1 -1 1 1
;
#X obj 34 166 counter -r 100;
#X obj 34 213 / 100;
#X floatatom 71 191 5 0 0 0 - - -, f 5;
#X floatatom 96 99 5 0 0 0 - - -, f 5;
#X msg 182 134 reset;
#X msg 78 19 1;
#X msg 54 61 tempo \$1 samp;
#X floatatom 121 31 5 0 0 0 - - -, f 5;
#X obj 34 125 metro 10;
#X connect 0 0 1 0;
#X connect 0 0 1 1;
#X connect 4 0 8 0;
#X connect 5 0 6 0;
#X connect 6 0 4 0;
#X connect 7 0 16 0;
#X connect 8 0 9 0;
#X connect 9 0 0 0;
#X connect 10 0 9 1;
#X connect 11 0 16 1;
#X connect 12 0 8 0;
#X connect 13 0 14 0;
#X connect 14 0 16 0;
#X connect 15 0 14 0;
#X connect 16 0 8 0;
