#N canvas 185 0 1022 774 12;
#X obj 60 161 until;
#X obj 60 221 until;
#X obj 60 264 f;
#X obj 98 263 + 1;
#X obj 235 509 sel 1;
#X obj 235 730 t b f;
#X obj 235 846 f;
#X obj 324 320 + 1;
#X obj 418 708 t b f;
#X obj 418 752 f;
#X text 426 814 list[j+1] = list[j];
#X obj 235 694 f;
#X text 275 934 list[j] = tmp;
#X obj 60 528 t f f;
#X obj 418 682 f;
#X msg 118 226 0;
#X obj 320 414 t f f;
#X obj 235 546 t b b b;
#X obj 324 347 t f f f, f 19;
#X obj 337 877 f;
#X obj 554 691 t b f;
#X obj 554 764 f;
#X obj 554 665 f;
#X obj 359 533 pack 0 f f;
#X obj 266 812 unpack f f f;
#X obj 655 773 f;
#X text 40 670 tmp = list[j+1] \; tmp2 = index j+ \; \; list[j+1] =
list[j] \; j+1 = j \; \; list[j] = tmp \; index j = tmp2 \;;
#X text 443 535 tmp \, tmp2;
#X obj 235 482 >;
#X obj 60 300 t f f f;
#X obj 253 133 loadbang;
#X text 731 29 1;
#X text 26 78 2;
#X obj 749 252 until;
#X obj 754 300 f;
#X obj 792 300 + 1;
#X msg 799 252 0;
#X obj 727 438 unpack;
#X obj 758 342 t f f f;
#X obj 817 473 - 1;
#X obj 253 186 sel 0;
#X msg 253 212 1;
#X msg 288 214 0;
#X obj 60 103 t b b;
#X text 295 244 incr/decr;
#X obj 58 22 inlet;
#X obj 750 377 text get \$1;
#X obj 253 160 f \$2;
#X obj 526 274 array define value-\$1;
#X obj 539 323 array define index-\$1;
#X msg 553 223 resize \$1;
#X obj 60 458 tabread value-\$1;
#X obj 322 388 tabread value-\$1;
#X obj 683 546 tabwrite value-\$1;
#X obj 212 902 tabwrite value-\$1;
#X obj 418 784 tabwrite value-\$1;
#X obj 347 846 tabread index-\$1;
#X obj 410 925 tabwrite index-\$1;
#X obj 571 730 tabread index-\$1;
#X obj 595 824 tabwrite index-\$1;
#X obj 830 554 tabwrite index-\$1;
#X obj 234 271 tgl 15 0 empty empty empty 17 7 0 10 -262144 -1 -1 1
1;
#X obj 60 134 f;
#X obj 60 187 f;
#X obj 132 262 mod;
#X obj 785 214 r \$0-size;
#X obj 750 212 f;
#X obj 743 187 del 10;
#X obj 91 134 r \$0-size;
#X obj 89 187 r \$0-size;
#X obj 751 154 t b b;
#X obj 559 190 r \$0-size;
#X obj 150 234 r \$0-size;
#X obj 751 24 inlet;
#X obj 59 76 del 10;
#X text 222 21 BUBBLE SORT A 2 COLUMN LIST BASED ON ITS FIRST COLUMN
;
#X text 577 252 FIRST COLUMN;
#X text 582 300 SECOND COLUMN;
#X text 391 87 \$1 == text to read from;
#X text 392 108 \$2 == incr/decr \; increment (0 \, default) \; decreasing
(not 0)., f 24;
#X text 392 45 ARGUMENTS;
#X text 40 635 pseudo code;
#N canvas 0 22 713 495 initialize 0;
#X obj 136 200 text size \$1;
#X obj 248 274 sel 0;
#X obj 295 311 s \$0-size;
#X obj 25 19 loadbang;
#X obj 55 348 spigot;
#X obj 166 234 t f f;
#X obj 70 317 r \$0-sp;
#X obj 142 266 s \$0-sp;
#X obj 488 457 print ERROR;
#X obj 77 529 print INSTRUCTIONS;
#X obj 26 59 t b b b, f 39;
#X obj 413 96 symbol \$1;
#X symbolatom 413 122 10 0 0 0 - - -, f 10;
#X obj 413 145 list fromsymbol;
#X obj 414 174 route bang list;
#X obj 464 204 t b;
#X obj 140 154 spigot;
#X obj 170 113 r \$0-sp;
#X msg 414 227 0;
#X msg 464 230 1;
#X obj 430 272 s \$0-sp;
#X obj 414 200 t b b;
#X obj 276 344 symbol \$1;
#X text 151 178 make sure it has something;
#X text 301 287 report size;
#X msg 300 388 ********* \, there is nothing in '\$1' \, *******;
#X msg 443 328 ********* \, text pointer missing (arg-1) \, *********
;
#X text 396 59 make sure there is a text pointer first;
#X obj 89 416 print READY-TO-GO*******;
#X obj 55 374 t b b;
#X obj 68 444 symbol \$1;
#X msg 71 476 hit 2nd inlet first \, ... \, then 1st inlet \, ... \,
then call the array 'index-\$1' for the sorted list.;
#X connect 0 0 5 0;
#X connect 1 0 22 0;
#X connect 1 1 2 0;
#X connect 3 0 10 0;
#X connect 4 0 29 0;
#X connect 5 0 7 0;
#X connect 5 1 1 0;
#X connect 6 0 4 1;
#X connect 10 0 4 0;
#X connect 10 1 16 0;
#X connect 10 2 11 0;
#X connect 11 0 12 0;
#X connect 12 0 13 0;
#X connect 13 0 14 0;
#X connect 14 0 21 0;
#X connect 14 1 15 0;
#X connect 15 0 19 0;
#X connect 16 0 0 0;
#X connect 17 0 16 1;
#X connect 18 0 20 0;
#X connect 19 0 20 0;
#X connect 21 0 18 0;
#X connect 21 1 26 0;
#X connect 22 0 25 0;
#X connect 25 0 8 0;
#X connect 26 0 8 0;
#X connect 29 0 30 0;
#X connect 29 1 28 0;
#X connect 30 0 31 0;
#X connect 31 0 9 0;
#X restore 398 164 pd initialize;
#X obj 58 48 spigot;
#X obj 118 47 r \$0-sp;
#X obj 751 50 spigot;
#X obj 796 25 r \$0-sp;
#X text 742 671 NOTE: you need to place a [text define \$1] object
before creating this abstraction, f 26;
#X connect 0 0 63 0;
#X connect 1 0 2 0;
#X connect 2 0 29 0;
#X connect 2 0 3 0;
#X connect 3 0 64 0;
#X connect 4 0 17 0;
#X connect 5 0 6 0;
#X connect 5 0 19 0;
#X connect 5 1 54 1;
#X connect 5 1 57 1;
#X connect 6 0 54 0;
#X connect 7 0 18 0;
#X connect 8 0 9 0;
#X connect 8 1 55 1;
#X connect 9 0 55 0;
#X connect 11 0 5 0;
#X connect 13 0 28 0;
#X connect 13 1 9 1;
#X connect 14 0 8 0;
#X connect 15 0 2 1;
#X connect 16 0 28 1;
#X connect 16 1 23 1;
#X connect 17 0 11 0;
#X connect 17 1 14 0;
#X connect 17 1 22 0;
#X connect 17 2 23 0;
#X connect 18 0 52 0;
#X connect 18 1 14 1;
#X connect 18 1 22 1;
#X connect 18 2 23 2;
#X connect 19 0 57 0;
#X connect 20 0 21 0;
#X connect 20 1 25 0;
#X connect 21 0 59 0;
#X connect 22 0 20 0;
#X connect 23 0 24 0;
#X connect 24 1 6 1;
#X connect 24 2 56 0;
#X connect 25 0 59 1;
#X connect 28 0 4 0;
#X connect 29 0 51 0;
#X connect 29 1 11 1;
#X connect 29 1 58 0;
#X connect 29 2 7 0;
#X connect 30 0 47 0;
#X connect 33 0 34 0;
#X connect 34 0 35 0;
#X connect 34 0 38 0;
#X connect 35 0 34 1;
#X connect 36 0 34 1;
#X connect 37 0 53 0;
#X connect 37 1 39 0;
#X connect 38 0 46 0;
#X connect 38 1 53 1;
#X connect 38 2 60 1;
#X connect 39 0 60 0;
#X connect 40 0 41 0;
#X connect 40 1 42 0;
#X connect 41 0 61 0;
#X connect 42 0 61 0;
#X connect 43 0 62 0;
#X connect 43 1 15 0;
#X connect 45 0 83 0;
#X connect 46 0 37 0;
#X connect 47 0 40 0;
#X connect 50 0 48 0;
#X connect 50 0 49 0;
#X connect 51 0 13 0;
#X connect 52 0 16 0;
#X connect 56 0 19 1;
#X connect 58 0 21 1;
#X connect 61 0 4 1;
#X connect 62 0 0 0;
#X connect 63 0 1 0;
#X connect 64 0 2 1;
#X connect 65 0 66 1;
#X connect 66 0 33 0;
#X connect 67 0 66 0;
#X connect 68 0 62 1;
#X connect 69 0 63 1;
#X connect 70 0 67 0;
#X connect 70 1 36 0;
#X connect 71 0 50 0;
#X connect 72 0 64 1;
#X connect 73 0 85 0;
#X connect 74 0 43 0;
#X connect 83 0 74 0;
#X connect 84 0 83 1;
#X connect 85 0 70 0;
#X connect 86 0 85 1;
