#N canvas 199 43 554 518 10;
#X floatatom 145 218 5 0 0 0 1/2 - -, f 5;
#X obj 145 240 / 2;
#X floatatom 145 265 5 0 0 0 1/4 - -, f 5;
#X obj 145 287 / 2;
#X floatatom 145 312 5 0 0 0 1/8 - -, f 5;
#X obj 145 334 / 2;
#X floatatom 145 359 5 0 0 0 1/16 - -, f 5;
#X obj 145 384 / 2;
#X floatatom 145 419 5 0 0 0 1/32 - -, f 5;
#X msg 144 80 120;
#X msg 144 138 60000 \$1;
#X floatatom 144 115 5 0 0 0 tempo - -, f 5;
#X msg 195 81 90;
#X text 83 195 in msec:;
#X text 39 41 GET MILLISECONDS OUT OF TEMPO AND SUBDIVISIONS;
#X obj 266 225 metro;
#X obj 314 257 metro;
#X obj 376 304 metro;
#X obj 433 351 metro;
#X obj 490 401 metro;
#X obj 271 437 bng 15 250 50 0 empty empty empty 17 7 0 10 -262144
-1 -1;
#X obj 311 437 bng 15 250 50 0 empty empty empty 17 7 0 10 -262144
-1 -1;
#X obj 361 437 bng 15 250 50 0 empty empty empty 17 7 0 10 -262144
-1 -1;
#X obj 421 437 bng 15 250 50 0 empty empty empty 17 7 0 10 -262144
-1 -1;
#X obj 461 437 bng 15 250 50 0 empty empty empty 17 7 0 10 -262144
-1 -1;
#X obj 230 193 metro;
#X obj 215 441 bng 15 250 50 0 empty empty empty 17 7 0 10 -262144
-1 -1;
#X obj 145 197 / 2;
#X obj 144 158 /;
#X floatatom 144 179 5 0 0 0 - - -, f 5;
#X obj 417 110 tgl 15 0 empty empty empty 17 7 0 10 -262144 -1 -1 0
1;
#X connect 0 0 1 0;
#X connect 1 0 2 0;
#X connect 1 0 16 1;
#X connect 2 0 3 0;
#X connect 3 0 4 0;
#X connect 3 0 17 1;
#X connect 4 0 5 0;
#X connect 5 0 6 0;
#X connect 5 0 18 1;
#X connect 6 0 7 0;
#X connect 7 0 8 0;
#X connect 7 0 19 1;
#X connect 9 0 11 0;
#X connect 10 0 28 0;
#X connect 11 0 10 0;
#X connect 12 0 11 0;
#X connect 15 0 20 0;
#X connect 16 0 21 0;
#X connect 17 0 22 0;
#X connect 18 0 23 0;
#X connect 19 0 24 0;
#X connect 25 0 26 0;
#X connect 27 0 0 0;
#X connect 27 0 15 1;
#X connect 28 0 29 0;
#X connect 28 0 25 1;
#X connect 29 0 27 0;
#X connect 30 0 15 0;
#X connect 30 0 16 0;
#X connect 30 0 17 0;
#X connect 30 0 18 0;
#X connect 30 0 19 0;
#X connect 30 0 25 0;
