#N canvas 486 24 597 596 12;
#X obj 206 172 bng 15 250 50 0 empty empty empty 20 8 0 8 -262144 -1
-1;
#X obj 204 146 sel 0 1 2;
#X obj 241 170 bng 15 250 50 0 empty empty empty 20 8 0 8 -262144 -1
-1;
#X obj 268 170 bng 15 250 50 0 empty empty empty 20 8 0 8 -262144 -1
-1;
#X msg 93 280 80;
#X obj 232 395 mtof;
#X obj 232 529 dac~;
#X obj 203 39 tgl 15 0 empty empty empty 17 7 0 10 -262144 -1 -1 0
1;
#X obj 110 318 f;
#X obj 145 318 + 1;
#X msg 127 280 70;
#X obj 191 320 f;
#X obj 226 320 + 1;
#X msg 222 282 60;
#X obj 268 321 f;
#X obj 357 321 + 3;
#X msg 326 285 80;
#X obj 342 350 crand -5 5;
#X obj 305 321 t f b;
#X floatatom 270 39 5 0 0 0 - - -, f 5;
#X obj 339 246 fd_s-prob 30 60;
#X obj 349 220 fd_s-prob 10 60;
#X obj 358 194 fd_s-prob 70 80;
#X msg 440 301 0;
#X msg 467 274 1;
#X msg 509 235 2;
#X obj 375 126 t a;
#X obj 203 64 fd_metro 140;
#X obj 203 122 f 1;
#X obj 232 468 fd/_note;
#X obj 203 89 b;
#X obj 232 421 t b f;
#X connect 0 0 4 0;
#X connect 0 0 10 0;
#X connect 0 0 13 0;
#X connect 0 0 20 0;
#X connect 0 0 14 0;
#X connect 1 0 0 0;
#X connect 1 1 2 0;
#X connect 1 2 3 0;
#X connect 2 0 13 0;
#X connect 2 0 16 0;
#X connect 2 0 21 0;
#X connect 2 0 8 0;
#X connect 3 0 10 0;
#X connect 3 0 16 0;
#X connect 3 0 22 0;
#X connect 3 0 11 0;
#X connect 4 0 5 0;
#X connect 5 0 31 0;
#X connect 7 0 27 0;
#X connect 8 0 9 0;
#X connect 8 0 5 0;
#X connect 9 0 8 1;
#X connect 10 0 8 1;
#X connect 11 0 12 0;
#X connect 11 0 5 0;
#X connect 12 0 11 1;
#X connect 13 0 11 1;
#X connect 14 0 18 0;
#X connect 15 0 14 1;
#X connect 16 0 14 1;
#X connect 17 0 15 1;
#X connect 18 0 15 0;
#X connect 18 0 5 0;
#X connect 18 1 17 0;
#X connect 19 0 27 1;
#X connect 20 0 23 0;
#X connect 20 1 24 0;
#X connect 20 2 25 0;
#X connect 21 0 23 0;
#X connect 21 1 24 0;
#X connect 21 2 25 0;
#X connect 22 0 23 0;
#X connect 22 1 24 0;
#X connect 22 2 25 0;
#X connect 23 0 26 0;
#X connect 24 0 26 0;
#X connect 25 0 26 0;
#X connect 26 0 28 1;
#X connect 27 0 30 0;
#X connect 28 0 1 0;
#X connect 29 0 6 0;
#X connect 29 0 6 1;
#X connect 30 0 28 0;
#X connect 31 0 29 0;
#X connect 31 1 29 1;
