#N canvas 521 51 450 350 12;
#X text 166 23 "mark";
#X obj 151 107 tgl 15 0 empty empty empty 17 7 0 10 -262144 -1 -1 0
1;
#X obj 151 127 metro 120;
#X text 21 59 An implementation of a 3 valued markov chain.;
#X text 241 273 See here:;
#X obj 168 157 bng 15 250 50 0 empty empty empty 17 7 0 10 -262144
-1 -1;
#X msg 217 156 seed 10;
#N canvas 357 152 831 519 test 0;
#X obj 53 60 until;
#X obj 53 84 t b b;
#X obj 217 115 fd_s-prob 20 30;
#X obj 54 164 counter;
#X obj 64 184 counter;
#X obj 74 204 counter;
#X obj 187 153 counter;
#X obj 59 257 /;
#X obj 89 257 /;
#X obj 119 257 /;
#X floatatom 59 281 5 0 0 0 - - -;
#X floatatom 96 321 5 0 0 0 - - -;
#X floatatom 119 281 5 0 0 0 - - -;
#X obj 547 75 until;
#X obj 547 99 t b b;
#X obj 548 179 counter;
#X obj 558 199 counter;
#X obj 568 219 counter;
#X obj 681 168 counter;
#X obj 553 272 /;
#X obj 583 272 /;
#X obj 613 272 /;
#X floatatom 553 296 5 0 0 0 - - -;
#X floatatom 590 336 5 0 0 0 - - -;
#X floatatom 613 296 5 0 0 0 - - -;
#X msg 53 36 1000;
#X msg 547 51 1000;
#X obj 548 131 fd_s-prob 30 10;
#X obj 54 140 sel 0 1 2 3;
#X obj 159 257 /;
#X floatatom 159 281 5 0 0 0 - - -;
#X obj 84 224 counter;
#X obj 54 116 mark 0.2 0.3 0.4;
#X obj 347 257 bng 15 250 50 0 empty empty empty 17 7 0 10 -262144
-1 -1;
#X obj 347 277 mark;
#X obj 347 301 print;
#X connect 0 0 1 0;
#X connect 1 0 32 0;
#X connect 1 1 6 0;
#X connect 3 0 7 0;
#X connect 4 0 8 0;
#X connect 5 0 9 0;
#X connect 6 0 7 1;
#X connect 6 0 8 1;
#X connect 6 0 9 1;
#X connect 6 0 29 1;
#X connect 7 0 10 0;
#X connect 8 0 11 0;
#X connect 9 0 12 0;
#X connect 13 0 14 0;
#X connect 14 0 27 0;
#X connect 14 1 18 0;
#X connect 15 0 19 0;
#X connect 16 0 20 0;
#X connect 17 0 21 0;
#X connect 18 0 19 1;
#X connect 18 0 20 1;
#X connect 18 0 21 1;
#X connect 19 0 22 0;
#X connect 20 0 23 0;
#X connect 21 0 24 0;
#X connect 25 0 0 0;
#X connect 26 0 13 0;
#X connect 27 0 15 0;
#X connect 27 1 16 0;
#X connect 27 2 17 0;
#X connect 28 0 3 0;
#X connect 28 1 4 0;
#X connect 28 2 5 0;
#X connect 28 3 31 0;
#X connect 29 0 30 0;
#X connect 31 0 29 0;
#X connect 32 0 28 0;
#X connect 33 0 34 0;
#X connect 34 0 35 0;
#X restore 267 303 pd test;
#X obj 151 183 mark 0.2 0.3 0.4;
#X obj 151 231 bng 15 250 50 0 empty empty empty 17 7 0 10 -262144
-1 -1;
#X obj 173 234 bng 15 250 50 0 empty empty empty 17 7 0 10 -262144
-1 -1;
#X obj 197 234 bng 15 250 50 0 empty empty empty 17 7 0 10 -262144
-1 -1;
#X obj 151 207 sel 0 1 2 3;
#X obj 218 232 bng 15 250 50 0 empty empty empty 17 7 0 10 -262144
-1 -1;
#X connect 1 0 2 0;
#X connect 2 0 8 0;
#X connect 5 0 8 0;
#X connect 6 0 8 0;
#X connect 8 0 12 0;
#X connect 12 0 9 0;
#X connect 12 1 10 0;
#X connect 12 2 11 0;
#X connect 12 3 13 0;
