#N canvas 528 27 533 673 12;
#X obj 37 373 atan;
#X obj 37 331 * 0.00076;
#X obj 37 400 * 13;
#X obj 37 426 +;
#X obj 120 311 * 7500;
#X obj 120 353 t f f;
#X obj 120 379 *;
#X obj 120 415 atan;
#X obj 120 442 * 13;
#X obj 37 276 t f f f;
#X obj 37 192 until;
#X obj 37 218 f;
#X obj 71 221 + 1;
#X msg 90 192 0;
#X obj 36 167 t f b;
#X obj 186 296 - 20;
#X obj 24 25 inlet;
#X obj 110 487 tabwrite \$3;
#X obj 37 245 + \$1;
#X obj 23 134 sel 0;
#X obj 24 112 f \$2;
#X obj 24 632 print;
#X obj 94 23 loadbang;
#X obj 24 52 t b b;
#X obj 24 79 spigot 1;
#X obj 94 79 == 0;
#X obj 94 52 f \$4;
#X obj 146 72 spigot;
#X obj 265 274 t f f f;
#X obj 265 191 until;
#X obj 265 217 f;
#X obj 299 220 + 1;
#X msg 318 191 0;
#X obj 264 166 t f b;
#X obj 436 314 - 20;
#X obj 360 576 tabwrite \$3;
#X obj 265 244 + \$1;
#X obj 264 137 f \$2;
#X msg 24 606 arguments: <min> <max> <array> <0/1>;
#X obj 265 314 * 26.81;
#X obj 265 352 /;
#X obj 348 314 + 1960;
#X obj 265 380 - 0.53;
#X obj 265 412 moses 2;
#X obj 296 509 -;
#X msg 296 482 2 \$1;
#X obj 296 535 * 0.15;
#X obj 265 455 t f f;
#X obj 265 556 +;
#X obj 373 443 t f f;
#X obj 373 520 +;
#X obj 404 473 - 20.1;
#X obj 404 499 * 0.22;
#X obj 330 412 moses 20.1;
#X text 228 18 check the helpfile <fd_bark-help.pd>;
#X connect 0 0 2 0;
#X connect 1 0 0 0;
#X connect 2 0 3 0;
#X connect 3 0 17 0;
#X connect 4 0 5 0;
#X connect 5 0 6 0;
#X connect 5 1 6 1;
#X connect 6 0 7 0;
#X connect 7 0 8 0;
#X connect 8 0 3 1;
#X connect 9 0 1 0;
#X connect 9 1 4 0;
#X connect 9 2 15 0;
#X connect 10 0 11 0;
#X connect 11 0 12 0;
#X connect 11 0 18 0;
#X connect 12 0 11 1;
#X connect 13 0 11 1;
#X connect 14 0 10 0;
#X connect 14 1 13 0;
#X connect 15 0 17 1;
#X connect 16 0 23 0;
#X connect 18 0 9 0;
#X connect 19 0 38 0;
#X connect 19 1 14 0;
#X connect 20 0 19 0;
#X connect 22 0 26 0;
#X connect 23 0 24 0;
#X connect 23 0 27 0;
#X connect 23 1 26 0;
#X connect 24 0 20 0;
#X connect 25 0 24 1;
#X connect 26 0 25 0;
#X connect 26 0 27 1;
#X connect 27 0 37 0;
#X connect 28 0 39 0;
#X connect 28 1 41 0;
#X connect 28 2 34 0;
#X connect 29 0 30 0;
#X connect 30 0 31 0;
#X connect 30 0 36 0;
#X connect 31 0 30 1;
#X connect 32 0 30 1;
#X connect 33 0 29 0;
#X connect 33 1 32 0;
#X connect 34 0 35 1;
#X connect 36 0 28 0;
#X connect 37 0 33 0;
#X connect 38 0 21 0;
#X connect 39 0 40 0;
#X connect 40 0 42 0;
#X connect 41 0 40 1;
#X connect 42 0 43 0;
#X connect 43 0 47 0;
#X connect 43 1 53 0;
#X connect 44 0 46 0;
#X connect 45 0 44 0;
#X connect 46 0 48 1;
#X connect 47 0 48 0;
#X connect 47 1 45 0;
#X connect 48 0 35 0;
#X connect 49 0 50 0;
#X connect 49 1 51 0;
#X connect 50 0 35 0;
#X connect 51 0 52 0;
#X connect 52 0 50 1;
#X connect 53 0 35 0;
#X connect 53 1 49 0;
