#N canvas 585 151 238 363 12;
#X obj 42 31 inlet;
#X obj 42 101 moses;
#X obj 79 126 sel;
#X msg 79 157 1;
#X obj 119 156 wrap;
#X obj 119 181 < 0;
#X obj 119 206 sel;
#X obj 119 231 f;
#X obj 119 256 + 1;
#X obj 119 281 int;
#X obj 42 56 t f f, f 11;
#X obj 119 306 outlet;
#X connect 0 0 10 0;
#X connect 1 0 9 0;
#X connect 1 1 2 0;
#X connect 2 0 3 0;
#X connect 2 1 4 0;
#X connect 3 0 9 0;
#X connect 4 0 5 0;
#X connect 5 0 6 0;
#X connect 6 0 7 0;
#X connect 7 0 8 0;
#X connect 8 0 9 0;
#X connect 9 0 11 0;
#X connect 10 0 1 0;
#X connect 10 1 7 1;
