#N canvas 500 50 530 480 12;
#X declare -path fd_lib;
#X obj 4 4 cnv 15 522 30 empty empty "fd_ceil" 20 15 0 15 -228856 -1
0;
#X obj 4 254 cnv 15 522 20 empty empty arguments: 10 10 0 14 -228856
-1 0;
#X obj 4 314 cnv 15 522 20 empty empty inlets: 10 10 0 14 -228856 -1
0;
#X obj 4 374 cnv 15 522 20 empty empty outlets: 10 10 0 14 -228856
-1 0;
#X obj 4 453 cnv 15 522 20 empty empty version 10 10 0 14 -228856 -1
0;
#X obj 380 8 declare -path fd_lib;
#X text 440 452 fd_lib v0.1;
#X text 60 284 no arguments;
#X obj 42 167 fd_ceil;
#X floatatom 42 77 5 0 0 0 - - -;
#X obj 42 222 print -n;
#X obj 42 193 change;
#X msg 67 107 0 \, 100 1000;
#X obj 67 133 line 0 10;
#X text 90 76 <-- shift scroll;
#X text 20 50 An abstraction for a c-type ceil function;
#X text 163 109 <-- will go 1 to 101;
#X text 60 340 1: float;
#X text 60 410 1: float;
#N canvas 0 22 450 300 meta 0;
#X text 10 10 fd_lib - metadata file - Fri Sep 13 18:18:27 EDT 2019
;
#X text 10 25 patch_name : fd_ceil;
#X text 10 40 inlet : 1;
#X text 10 55 outlet : 1;
#X text 10 70 inlet~ : 0;
#X text 10 85 outlet~ : 0;
#X text 10 100 arguments : 0;
#X text 10 115 classes used : 10;
#X text 10 130 total objects: 11;
#X text 10 145 connections : 14;
#X text 10 160 dependencies : 0 [0];
#X text 10 175 externals : 0 [0];
#X text 10 190 internals : 10/233 [0sel:wrap:t:outlet:moses:int:inlet:f:<:+]
;
#X restore 438 423 pd meta;
#X connect 8 0 11 0;
#X connect 9 0 8 0;
#X connect 11 0 10 0;
#X connect 12 0 13 0;
#X connect 13 0 8 0;
