#N canvas 500 50 530 480 12;
#X declare -path fd_lib;
#X obj 4 4 cnv 15 522 30 empty empty "fd_dataRead3" 20 15 0 15 -228856
-1 0;
#X obj 4 254 cnv 15 522 20 empty empty arguments: 10 10 0 14 -228856
-1 0;
#X obj 4 314 cnv 15 522 20 empty empty inlets: 10 10 0 14 -228856 -1
0;
#X obj 4 374 cnv 15 522 20 empty empty outlets: 10 10 0 14 -228856
-1 0;
#X obj 4 453 cnv 15 522 20 empty empty version 10 10 0 14 -228856 -1
0;
#X obj 380 8 declare -path fd_lib;
#X text 440 452 fd_lib v0.1;
#X text 60 340 anything;
#X text 60 410 no outlets;
#X obj 188 155 fd_dataRead3 1 2 3;
#X text 369 215 see fd_data.pd;
#X text 28 70 Read from 3 different data structure arrays.;
#X text 60 284 Arguments are indices of the data structures;
#N canvas 0 22 450 300 meta 0;
#X text 10 10 fd_lib - metadata file - Fri Sep 13 18:19:01 EDT 2019
;
#X text 10 25 patch_name : fd_dataRead3;
#X text 10 40 inlet : 2;
#X text 10 55 outlet : 2;
#X text 10 70 inlet~ : 0;
#X text 10 85 outlet~ : 0;
#X text 10 100 arguments : 3;
#X text 10 115 classes used : 23;
#X text 10 130 total objects: 60;
#X text 10 145 connections : 83;
#X text 10 160 dependencies : 0 [0];
#X text 10 175 externals : 3 [0fd_getsize:fd_get-element:fd_dataID]
;
#X text 10 190 internals : 20/233 [0t:+:r:moses:f:/:spigot:pack:outlet:max:inlet:*:unpack:tgl:sel:s:print:delay:del:bng]
;
#X restore 438 423 pd meta;
