#N canvas 0 22 450 300 12;
#X obj 48 38 inlet;
#X obj 48 114 fd_clarg \$1 \$2;
#X obj 275 173 outlet;
#X obj 275 37 inlet;
#X obj 275 116 fd_clarg \$1 \$3;
#X obj 48 63 route clarg;
#X obj 275 62 route clarg;
#X text 50 203 NOTE: i added a 'clarg' selector here so that the 1
or 0 required by fd_clarg can be routed \, therefore not affecting
the rest of the patch., f 37;
#X connect 0 0 5 0;
#X connect 1 0 2 0;
#X connect 3 0 6 0;
#X connect 4 0 2 0;
#X connect 5 0 1 0;
#X connect 6 0 4 0;
