#N canvas 163 63 450 300 10;
#X obj 47 62 inlet;
#X obj 47 84 pack f 100;
#X obj 47 128 outlet;
#X obj 47 106 line 0 1;
#X obj 225 25 loadbang;
#X obj 252 121 f \$3;
#X obj 252 143 sel;
#X msg 252 165 1;
#X obj 319 91 sel;
#X obj 319 69 f \$2;
#X msg 319 113 100;
#X text 95 202 Used in [fd_lines];
#X connect 0 0 1 0;
#X connect 1 0 3 0;
#X connect 3 0 2 0;
#X connect 4 0 5 0;
#X connect 4 0 9 0;
#X connect 5 0 6 0;
#X connect 6 0 7 0;
#X connect 6 1 3 2;
#X connect 7 0 3 2;
#X connect 8 0 10 0;
#X connect 8 1 1 1;
#X connect 9 0 8 0;
#X connect 10 0 1 1;
