#N canvas 552 2 657 610 12;
#X obj 64 120 samplerate~;
#X obj 64 303 phasor~;
#X obj 46 422 /~;
#X obj 64 397 exp~;
#X obj 46 61 sig~ 1;
#X obj 197 12 inlet;
#X msg 261 344 set \$1;
#X obj 466 391 array define \$1 \$2;
#X obj 64 231 / \$2;
#X obj 46 554 tabsend~ \$1;
#X obj 220 450 switch~ \$2;
#X text 449 59 see fd_windows.pd;
#X obj 434 269 del 1 1 samp;
#X obj 197 95 route bang float q;
#X obj 217 52 bng 15 250 50 0 empty empty empty 17 7 0 10 -262144 -1
-1;
#X floatatom 261 32 5 0 0 0 - - -;
#X msg 261 55 q \$1 \, bang;
#X obj 434 294 t b b;
#X obj 293 321 array size \$1;
#X obj 434 448 fd_smooth_brute \$1;
#X msg 110 230 1 \$1;
#X obj 110 253 /;
#X obj 110 275 / \$2;
#X obj 261 291 t f f;
#X obj 197 252 t b b b;
#X obj 238 128 t f f f;
#X obj 64 184 t f f;
#X obj 46 482 lop~ 512;
#X obj 64 365 *~ 24;
#X msg 466 363 0 0 \, normalize 1;
#X connect 0 0 26 0;
#X connect 1 0 28 0;
#X connect 2 0 27 0;
#X connect 3 0 2 1;
#X connect 4 0 2 0;
#X connect 5 0 13 0;
#X connect 6 0 10 0;
#X connect 8 0 1 0;
#X connect 12 0 17 0;
#X connect 13 0 24 0;
#X connect 13 1 25 0;
#X connect 13 2 28 1;
#X connect 13 3 7 0;
#X connect 14 0 13 0;
#X connect 15 0 16 0;
#X connect 16 0 13 0;
#X connect 17 0 19 0;
#X connect 17 1 29 0;
#X connect 20 0 21 0;
#X connect 21 0 22 0;
#X connect 22 0 1 1;
#X connect 23 0 6 0;
#X connect 23 1 18 0;
#X connect 24 0 0 0;
#X connect 24 1 10 0;
#X connect 24 2 12 0;
#X connect 25 0 8 1;
#X connect 25 1 23 0;
#X connect 25 2 12 1;
#X connect 26 0 8 0;
#X connect 26 1 20 0;
#X connect 27 0 9 0;
#X connect 28 0 3 0;
#X connect 29 0 7 0;
