#N canvas 522 50 513 381 12;
#X obj 65 138 samplerate~;
#X msg 106 160 0;
#X obj 65 182 phasor~;
#X obj 50 250 /~;
#X obj 65 226 exp~;
#X obj 50 19 sig~ 1;
#X obj 122 40 inlet;
#X obj 65 204 *~ 13;
#X msg 338 113 resize \$1;
#X msg 205 203 set \$1;
#X obj 266 164 array define \$1 \$2;
#X obj 65 160 / \$2;
#X obj 50 286 tabsend~ \$1;
#X obj 191 284 switch~ \$2;
#X text 213 29 see fd_windows.pd;
#X msg 230 135 normalize 1;
#X obj 230 113 del 1 1 samp;
#X obj 122 62 route bang float q;
#X msg 312 283 \$1 0;
#X msg 307 188 bang;
#X obj 307 213 array size \$1;
#X obj 323 244 - 2;
#X obj 386 248 - 1;
#X msg 383 284 0 \, 1;
#X connect 0 0 11 0;
#X connect 1 0 2 1;
#X connect 2 0 7 0;
#X connect 3 0 12 0;
#X connect 4 0 3 1;
#X connect 5 0 3 0;
#X connect 6 0 17 0;
#X connect 7 0 4 0;
#X connect 8 0 10 0;
#X connect 9 0 13 0;
#X connect 11 0 2 0;
#X connect 15 0 10 0;
#X connect 16 0 15 0;
#X connect 16 0 19 0;
#X connect 17 0 0 0;
#X connect 17 0 13 0;
#X connect 17 0 1 0;
#X connect 17 0 16 0;
#X connect 17 1 8 0;
#X connect 17 1 9 0;
#X connect 17 1 11 1;
#X connect 17 1 16 1;
#X connect 17 2 7 1;
#X connect 17 3 10 0;
#X connect 18 0 10 0;
#X connect 19 0 20 0;
#X connect 19 0 23 0;
#X connect 20 0 21 0;
#X connect 20 0 22 0;
#X connect 21 0 18 0;
#X connect 22 0 18 0;
#X connect 23 0 18 0;
