#N canvas 500 50 530 480 12;
#X declare -path fd_lib;
#X obj 4 4 cnv 15 522 30 empty empty "fd_write5" 20 15 0 15 -228856
-1 0;
#X obj 4 254 cnv 15 522 20 empty empty arguments: 10 10 0 14 -228856
-1 0;
#X obj 4 314 cnv 15 522 20 empty empty inlets: 10 10 0 14 -228856 -1
0;
#X obj 4 374 cnv 15 522 20 empty empty outlets: 10 10 0 14 -228856
-1 0;
#X obj 4 453 cnv 15 522 20 empty empty version 10 10 0 14 -228856 -1
0;
#X obj 380 8 declare -path fd_lib;
#N canvas 0 22 450 300 meta 0;
#X text 10 10 fd_lib - metadata file - Mon Sep 30 00:47:39 EDT 2019
;
#X text 10 25 patch_name : fd_write5;
#X text 10 40 inlet : 3;
#X text 10 55 outlet : 0;
#X text 10 70 inlet~ : 3;
#X text 10 85 outlet~ : 0;
#X text 10 100 arguments : 1;
#X text 10 115 classes used : 25;
#X text 10 130 total objects: 80;
#X text 10 145 connections : 78;
#X text 10 160 dependencies : 0 [0];
#X text 10 175 externals : 0 [0];
#X text 10 190 internals : 25/233 [0r:s:r~:s~:inlet~:t:bng:nbx:tgl:symbol:outlet~:outlet:line~:int:*~:/:%:writesf~:savepanel:route:print:metro:loadbang:f:+]
;
#X restore 438 423 pd meta;
#X text 440 452 fd_lib v0.1;
#X text 60 284 1 arguments;
#X text 60 340 0 inlets;
#X text 60 410 0 outlets;
#X text 275 184 reset: all counters back to 0;
#X text 277 207 stop: stop recording;
#X text 275 163 start: start file recording;
#X text 278 142 MESSAGES:;
#X text 277 108 OPEN FILE TO WRITE FIRST!;
#X text 54 76 ***********************************************************
;
#X text 54 46 ***********************************************************
;
#X text 179 58 FIVE-TRACK FILE RECORDER;
#X obj 101 123 fd_write5;
