#N canvas 345 46 918 566 12;
#X obj 10 10 cnv 15 100 100 empty empty dataMorphGui 8 8 0 10 -228856
-1 0;
#X obj 14 92 tgl 15 0 empty empty all 17 7 0 10 -262144 -1 -1 0 1;
#X obj 89 92 bng 15 250 50 0 empty empty graph -33 7 0 10 -262144 -1
-1;
#X obj 10 50 bng 15 250 50 0 empty empty empty 17 7 0 10 -262144 -1
-262144;
#X msg 354 113 1;
#X obj 27 50 bng 15 250 50 0 empty empty empty 17 7 0 10 -262144 -1
-262144;
#X obj 44 50 bng 15 250 50 0 empty empty empty 17 7 0 10 -262144 -1
-262144;
#X obj 61 50 bng 15 250 50 0 empty empty empty 17 7 0 10 -262144 -1
-262144;
#X obj 78 50 bng 15 250 50 0 empty empty empty 17 7 0 10 -262144 -1
-262144;
#X obj 95 50 bng 15 250 50 0 empty empty empty 17 7 0 10 -262144 -1
-262144;
#X msg 371 113 2;
#X msg 388 113 3;
#X msg 405 113 4;
#X msg 422 113 5;
#X msg 439 113 6;
#X obj 287 176 t f b;
#X msg 504 93 22;
#X msg 544 93 22;
#X msg 584 92 22;
#X msg 624 92 22;
#X msg 664 91 22;
#X msg 704 91 22;
#X obj 307 206 t f b;
#X obj 317 236 t f b;
#X obj 327 266 t f b;
#X obj 337 296 t f b;
#X obj 347 326 t f b;
#X obj 12 34 nbx 5 14 -1e+37 1e+37 0 0 empty empty t-time 60 8 0 10
-262144 -1 -1 100 256;
#X obj 152 346 list;
#X obj 132 262 list prepend 7, f 9;
#X obj 354 138 fd_spigot;
#X obj 374 158 fd_spigot;
#X obj 394 178 fd_spigot;
#X obj 414 198 fd_spigot;
#X obj 434 218 fd_spigot;
#X obj 454 238 fd_spigot;
#X msg 107 401;
#X obj 70 206 t b b;
#X obj 132 213 t f f;
#X obj 70 233 del;
#X obj 696 208 t b b;
#X msg 152 371 add2 \$1 \$2 \$3 \, addcomma;
#X obj 362 357 t b b;
#X msg 427 371 set;
#X msg 807 10 0;
#X msg 150 30 color \$1 22 0;
#X msg 260 30 color \$1 22 0;
#X msg 368 30 color \$1 22 0;
#X msg 477 30 color \$1 22 0;
#X msg 588 30 color \$1 22 0;
#X msg 694 30 color \$1 22 0;
#X msg 691 139 bang;
#X obj 145 113 t b f f;
#X obj 145 138 random;
#X obj 145 163 +;
#X obj 204 140 b;
#X obj 14 73 tgl 15 0 empty empty invert 17 7 0 10 -262144 -1 -1 0
1;
#X obj 187 175 sel;
#X msg 187 210 7;
#X msg 222 209 symbol invert;
#X msg 187 53 label data-7;
#X msg 296 53 label invert;
#X obj 24 133 list prepend, f 7;
#X obj 24 175 route 1 0;
#X obj 455 337 sel;
#X obj 24 206 t b b;
#X obj 24 233 del;
#X obj 24 295 list prepend 7, f 9;
#X obj 24 336 list prepend all, f 9;
#X obj 99 11 bng 10 250 50 0 empty empty empty 17 7 0 10 -262144 -1
-1;
#X obj 117 6 loadbang;
#X msg 117 31 100;
#X obj 24 268 f;
#X msg 88 112 0;
#X obj 69 80 hradio 8 1 0 5 empty empty empty 0 -8 0 10 -262144 -1
-1 4;
#X msg 712 237 Hann;
#X obj 713 393 makefilename data%s, f 12;
#X obj 713 369 symbol;
#X msg 728 259 Exp;
#X msg 739 280 Rand;
#X msg 750 304 Line;
#X msg 759 329 Walk;
#X msg 713 433 \; \$1 7 \;;
#X obj 565 329 sel 0 1 2 3 4;
#X obj 539 416 s pd-data-7;
#X msg 539 391 vis \$1;
#X obj 544 366 tgl 15 0 empty empty empty 17 7 0 10 -262144 -1 -1 0
1;
#X obj 69 68 bng 10 250 50 0 empty empty vis-7 12 5 0 8 -262144 -1
-1;
#X obj 84 21 tgl 15 0 random-morphing random-morphing-set randomizer
-50 8 0 8 -262144 -1 -1 0 1;
#X obj 10 10 bng 8 250 50 0 \$0 \$0- empty 17 7 0 8 -262144 -1 -1;
#X obj 478 8 fd_visera 1;
#X obj 302 8 symbol dataModifiers;
#X obj 10 21 bng 10 250 50 0 empty empty empty 17 7 0 10 -258113 -1
-1;
#X obj 271 133 s panic;
#X obj 108 460 s dataMorph;
#X obj 107 435 list trim;
#X obj 346 482 r toggle-1;
#X connect 1 0 62 1;
#X connect 1 0 64 0;
#X connect 2 0 62 0;
#X connect 3 0 4 0;
#X connect 4 0 30 0;
#X connect 5 0 10 0;
#X connect 6 0 11 0;
#X connect 7 0 12 0;
#X connect 8 0 13 0;
#X connect 9 0 14 0;
#X connect 10 0 31 0;
#X connect 11 0 32 0;
#X connect 12 0 33 0;
#X connect 13 0 34 0;
#X connect 14 0 35 0;
#X connect 15 0 28 0;
#X connect 15 0 55 0;
#X connect 15 1 16 0;
#X connect 16 0 45 0;
#X connect 17 0 46 0;
#X connect 18 0 47 0;
#X connect 19 0 48 0;
#X connect 20 0 49 0;
#X connect 21 0 50 0;
#X connect 22 0 28 0;
#X connect 22 0 55 0;
#X connect 22 1 17 0;
#X connect 23 0 28 0;
#X connect 23 0 55 0;
#X connect 23 1 18 0;
#X connect 24 0 28 0;
#X connect 24 0 55 0;
#X connect 24 1 19 0;
#X connect 25 0 28 0;
#X connect 25 0 55 0;
#X connect 25 1 20 0;
#X connect 26 0 28 0;
#X connect 26 0 55 0;
#X connect 26 1 21 0;
#X connect 27 0 52 0;
#X connect 28 0 41 0;
#X connect 29 0 28 1;
#X connect 30 0 15 0;
#X connect 31 0 22 0;
#X connect 32 0 23 0;
#X connect 33 0 24 0;
#X connect 34 0 25 0;
#X connect 35 0 26 0;
#X connect 36 0 95 0;
#X connect 37 0 39 0;
#X connect 37 1 36 0;
#X connect 38 0 29 0;
#X connect 38 1 39 1;
#X connect 38 1 66 1;
#X connect 38 1 72 1;
#X connect 39 0 42 0;
#X connect 40 0 30 1;
#X connect 40 0 31 1;
#X connect 40 0 32 1;
#X connect 40 0 33 1;
#X connect 40 0 35 1;
#X connect 40 0 34 1;
#X connect 40 1 44 0;
#X connect 41 0 36 0;
#X connect 42 0 40 0;
#X connect 42 1 43 0;
#X connect 43 0 36 0;
#X connect 44 0 45 0;
#X connect 44 0 46 0;
#X connect 44 0 47 0;
#X connect 44 0 48 0;
#X connect 44 0 49 0;
#X connect 44 0 50 0;
#X connect 45 0 3 0;
#X connect 46 0 5 0;
#X connect 47 0 6 0;
#X connect 48 0 7 0;
#X connect 49 0 8 0;
#X connect 50 0 9 0;
#X connect 51 0 40 0;
#X connect 52 0 53 0;
#X connect 52 1 53 1;
#X connect 52 2 54 1;
#X connect 53 0 54 0;
#X connect 54 0 38 0;
#X connect 55 0 53 0;
#X connect 56 0 57 0;
#X connect 57 0 58 0;
#X connect 57 0 60 0;
#X connect 57 1 59 0;
#X connect 57 1 61 0;
#X connect 58 0 29 1;
#X connect 58 0 67 1;
#X connect 59 0 29 1;
#X connect 59 0 67 1;
#X connect 60 0 56 0;
#X connect 61 0 56 0;
#X connect 62 0 63 0;
#X connect 63 0 65 0;
#X connect 63 1 37 0;
#X connect 64 1 42 0;
#X connect 65 0 66 0;
#X connect 65 1 72 0;
#X connect 66 0 73 0;
#X connect 67 0 68 0;
#X connect 68 0 95 0;
#X connect 69 0 42 0;
#X connect 70 0 71 0;
#X connect 71 0 27 0;
#X connect 72 0 67 0;
#X connect 73 0 1 0;
#X connect 74 0 83 0;
#X connect 75 0 77 0;
#X connect 76 0 82 0;
#X connect 77 0 76 0;
#X connect 78 0 77 0;
#X connect 79 0 77 0;
#X connect 80 0 77 0;
#X connect 81 0 77 0;
#X connect 83 0 75 0;
#X connect 83 1 78 0;
#X connect 83 2 79 0;
#X connect 83 3 80 0;
#X connect 83 4 81 0;
#X connect 85 0 84 0;
#X connect 86 0 85 0;
#X connect 87 0 86 0;
#X connect 89 0 91 0;
#X connect 91 0 90 0;
#X connect 92 0 93 0;
#X connect 95 0 94 0;
#X connect 96 0 88 0;
#X coords 0 -1 1 1 100 100 2 10 10;
