#N canvas 500 50 530 480 12;
#X declare -path fd_lib;
#X obj 4 4 cnv 15 522 30 empty empty "fd_salvo" 20 15 0 15 -228856
-1 0;
#X obj 4 254 cnv 15 522 20 empty empty arguments: 10 10 0 14 -228856
-1 0;
#X obj 4 314 cnv 15 522 20 empty empty inlets: 10 10 0 14 -228856 -1
0;
#X obj 4 374 cnv 15 522 20 empty empty outlets: 10 10 0 14 -228856
-1 0;
#X obj 4 453 cnv 15 522 20 empty empty version 10 10 0 14 -228856 -1
0;
#X obj 380 8 declare -path fd_lib;
#N canvas 0 22 450 300 meta 0;
#X text 10 10 fd_lib - metadata file - Sun Sep 29 01:02:23 EDT 2019
;
#X text 10 25 patch_name : fd_salvo;
#X text 10 40 inlet : 1;
#X text 10 55 outlet : 1;
#X text 10 70 inlet~ : 0;
#X text 10 85 outlet~ : 0;
#X text 10 100 arguments : 1;
#X text 10 115 classes used : 9;
#X text 10 130 total objects: 14;
#X text 10 145 connections : 19;
#X text 10 160 dependencies : 0 [0];
#X text 10 175 externals : 1 [0fd_iterate];
#X text 10 190 internals : 8/233 [0t:array:sel:route:outlet:mod:inlet:i]
;
#X restore 438 423 pd meta;
#X text 440 452 fd_lib v0.1;
#X text 45 57 Get a random number from 0 to N (\$1) except the number
sent to the first inlet, f 55;
#X text 446 372 fd_lib v0.1;
#X obj 91 181 print;
#X msg 91 114 3;
#X obj 91 155 fd_salvo 5;
#X text 60 284 1: float: range of random number;
#X text 60 410 1: float: random numbers without input number;
#N canvas 0 22 450 300 test 0;
#X obj 71 12 tgl 15 0 empty empty empty 17 7 0 10 -262144 -1 -1 0 1
;
#X obj 69 104 t f f;
#X obj 69 194 t f f;
#X obj 156 190 ==;
#X obj 156 215 sel 1;
#X obj 156 240 print ERROR;
#X obj 71 38 metro 1;
#X obj 234 176 bng 15 250 50 0 empty empty empty 17 7 0 10 -262144
-1 -1;
#X obj 69 138 fd_salvo 200;
#X msg 71 71 10;
#X text 199 126 send a resize message with a new N, f 14;
#X msg 178 62 143;
#X msg 185 100 resize 25;
#X floatatom 69 218 5 0 0 0 - - -;
#X connect 0 0 6 0;
#X connect 1 0 8 0;
#X connect 1 1 3 1;
#X connect 2 0 13 0;
#X connect 2 1 3 0;
#X connect 3 0 4 0;
#X connect 4 0 5 0;
#X connect 4 0 7 0;
#X connect 6 0 9 0;
#X connect 8 0 2 0;
#X connect 9 0 1 0;
#X connect 11 0 1 0;
#X connect 12 0 8 0;
#X restore 333 189 pd test;
#X text 60 340 1: float: number to exclude \; 1: 'resize': float to
change random range \;;
#X connect 11 0 12 0;
#X connect 12 0 10 0;
