#N canvas 237 27 607 417 10;
#X obj 184 154 random 4;
#X obj 136 259 -;
#X obj 163 223 t f f;
#X floatatom 18 239 5 0 0 0 - - -, f 5;
#X obj 132 117 f;
#X obj 184 176 + 2;
#X obj 130 51 spigot;
#X obj 130 73 t b f;
#X obj 125 151 t f b b;
#X obj 256 226 f;
#X obj 287 227 + 1;
#X obj 222 281 swap;
#X msg 256 42 0;
#X obj 201 62 tgl 15 0 empty empty empty 17 7 0 10 -262144 -1 -1 0
1;
#X obj 185 343 pack f f f;
#X obj 136 281 t f f f;
#X obj 303 171 spigot;
#X obj 342 117 == 0;
#X obj 129 189 f;
#X obj 397 155 tgl 15 0 empty empty empty 17 7 0 10 -262144 -1 -1 1
1;
#X msg 423 287 0;
#X msg 64 74 1;
#X obj 383 246 t b b f;
#X obj 341 193 sel 2 3 4;
#X msg 341 215 2;
#X msg 370 217 3;
#X msg 403 219 4;
#X obj 173 309 sel 0;
#X obj 307 92 > 5;
#X obj 26 50 t f b b;
#X obj 27 23 inlet;
#X obj 185 365 outlet;
#X connect 0 0 5 0;
#X connect 1 0 15 0;
#X connect 2 0 1 1;
#X connect 2 1 11 0;
#X connect 3 0 6 0;
#X connect 3 0 16 0;
#X connect 4 0 8 0;
#X connect 5 0 2 0;
#X connect 6 0 7 0;
#X connect 7 0 4 0;
#X connect 7 1 4 1;
#X connect 8 0 18 0;
#X connect 8 1 0 0;
#X connect 8 2 9 0;
#X connect 9 0 10 0;
#X connect 9 0 11 1;
#X connect 10 0 9 1;
#X connect 11 0 14 1;
#X connect 11 1 14 2;
#X connect 12 0 9 1;
#X connect 12 0 13 0;
#X connect 12 0 19 0;
#X connect 13 0 6 1;
#X connect 14 0 31 0;
#X connect 15 0 3 0;
#X connect 15 1 28 0;
#X connect 15 2 27 0;
#X connect 16 0 23 0;
#X connect 17 0 19 0;
#X connect 18 0 1 0;
#X connect 19 0 16 1;
#X connect 20 0 19 0;
#X connect 21 0 13 0;
#X connect 22 0 18 0;
#X connect 22 0 20 0;
#X connect 22 2 2 0;
#X connect 23 0 24 0;
#X connect 23 1 25 0;
#X connect 23 2 26 0;
#X connect 24 0 22 0;
#X connect 25 0 22 0;
#X connect 26 0 22 0;
#X connect 27 0 12 0;
#X connect 27 1 14 0;
#X connect 28 0 13 0;
#X connect 28 0 17 0;
#X connect 29 0 4 0;
#X connect 29 1 21 0;
#X connect 29 2 12 0;
#X connect 30 0 29 0;
