#N canvas 61 48 434 315 12;
#X obj 44 244 outlet~;
#N canvas 0 22 490 460 attack 0;
#X obj 251 224 abs~;
#X obj 251 201 -~ 0.5;
#X obj 251 249 *~ -2;
#X obj 251 274 +~ 1;
#X obj 64 371 *~;
#X obj 251 173 phasor~ 10;
#X msg 64 188 1 \, 0 \$1;
#X obj 43 162 sel;
#X obj 64 212 line~;
#X obj 230 96 sig~ 1;
#X obj 230 300 /~;
#X obj 207 351 *~;
#X obj 64 406 outlet~;
#X obj 64 275 *~ 61;
#X obj 64 300 +~ 1;
#X obj 64 325 tabread4~ \$0-rand-seq, f 11;
#N canvas 547 37 496 471 \$0-rand-seq 0;
#X obj 54 169 until;
#X obj 54 375 array set \$0-rand-seq;
#X obj 54 197 f;
#X obj 95 198 + 1;
#X msg 54 300 0;
#X obj 107 295 random 2000;
#X obj 107 318 - 1000;
#X obj 107 341 / 1000;
#X obj 107 272 b;
#X msg 106 169 0;
#X obj 40 19 loadbang;
#X obj 40 79 array size \$0-rand-seq;
#X obj 54 247 sel;
#X obj 86 247 sel;
#X obj 155 170 - 1;
#X obj 40 104 t f f;
#X obj 40 405 - 3;
#X obj 40 430 outlet;
#X obj 242 79 array define \$0-rand-seq 64;
#X obj 168 6 inlet;
#X obj 168 31 t b f;
#X obj 181 57 change;
#X obj 54 222 t f f f;
#X msg 224 10 64;
#X obj 54 132 t f b f;
#X connect 0 0 2 0;
#X connect 2 0 3 0;
#X connect 2 0 22 0;
#X connect 3 0 2 1;
#X connect 4 0 1 0;
#X connect 5 0 6 0;
#X connect 6 0 7 0;
#X connect 7 0 1 0;
#X connect 8 0 5 0;
#X connect 9 0 2 1;
#X connect 10 0 11 0;
#X connect 11 0 15 0;
#X connect 12 0 4 0;
#X connect 12 1 13 0;
#X connect 13 0 4 0;
#X connect 13 1 8 0;
#X connect 14 0 13 1;
#X connect 15 0 16 0;
#X connect 15 1 24 0;
#X connect 16 0 17 0;
#X connect 19 0 20 0;
#X connect 20 0 11 0;
#X connect 20 1 21 0;
#X connect 21 0 11 0;
#X connect 22 0 12 0;
#X connect 22 1 1 1;
#X connect 23 0 20 0;
#X connect 24 0 0 0;
#X connect 24 1 9 0;
#X connect 24 2 14 0;
#X restore 120 241 pd \$0-rand-seq;
#X obj 251 36 inlet pulse-freq;
#X obj 43 41 inlet attack-msec;
#X obj 43 91 f;
#X obj 230 325 cos~;
#X obj 43 116 t f b;
#X msg 328 136 0.5;
#X obj 43 66 route bang float resize;
#X connect 0 0 2 0;
#X connect 1 0 0 0;
#X connect 2 0 3 0;
#X connect 3 0 10 1;
#X connect 4 0 12 0;
#X connect 5 0 1 0;
#X connect 6 0 8 0;
#X connect 7 1 6 0;
#X connect 8 0 11 0;
#X connect 8 0 13 0;
#X connect 9 0 10 0;
#X connect 10 0 20 0;
#X connect 11 0 4 1;
#X connect 13 0 14 0;
#X connect 14 0 15 0;
#X connect 15 0 4 0;
#X connect 16 0 13 1;
#X connect 17 0 5 0;
#X connect 18 0 23 0;
#X connect 19 0 21 0;
#X connect 20 0 11 1;
#X connect 21 0 7 0;
#X connect 21 1 22 0;
#X connect 22 0 5 1;
#X connect 23 0 19 0;
#X connect 23 1 19 1;
#X connect 23 2 16 0;
#X restore 44 143 pd attack;
#N canvas 0 22 482 291 delay 0;
#X obj 65 186 +~;
#X obj 150 166 *~ 0.99;
#X obj 77 218 delwrite~ \$0-in 500;
#X obj 286 146 / 100;
#X obj 150 132 delread~ \$0-in;
#X obj 286 55 min 99;
#X obj 286 80 max;
#X obj 65 252 outlet~;
#X obj 65 19 inlet~;
#X obj 150 19 inlet amount-%;
#X obj 286 18 inlet amplitude-%;
#X obj 150 44 * 0.2;
#X connect 0 0 2 0;
#X connect 0 0 7 0;
#X connect 1 0 0 1;
#X connect 3 0 1 1;
#X connect 4 0 1 0;
#X connect 5 0 6 0;
#X connect 6 0 3 0;
#X connect 8 0 0 0;
#X connect 9 0 11 0;
#X connect 10 0 5 0;
#X connect 11 0 4 0;
#X restore 44 202 pd delay;
#X obj 44 22 inlet;
#X obj 209 23 inlet;
#X obj 269 21 inlet;
#X obj 317 21 inlet;
#N canvas 0 22 450 300 argv 0;
#X obj 96 22 loadbang;
#X obj 96 47 pack \$1 \$2 \$3 \$4;
#X obj 96 112 sel;
#X obj 136 112 sel;
#X obj 174 112 sel;
#X obj 96 72 unpack f f f f;
#X obj 214 112 sel;
#X msg 96 137 20;
#X msg 136 137 1;
#X msg 174 137 1;
#X msg 214 137 10;
#X obj 96 162 outlet;
#X obj 136 162 outlet;
#X obj 174 162 outlet;
#X obj 214 162 outlet;
#X obj 280 28 inlet;
#X connect 0 0 1 0;
#X connect 1 0 5 0;
#X connect 2 0 7 0;
#X connect 2 1 11 0;
#X connect 3 0 8 0;
#X connect 3 1 12 0;
#X connect 4 0 9 0;
#X connect 4 1 13 0;
#X connect 5 0 2 0;
#X connect 5 1 3 0;
#X connect 5 2 4 0;
#X connect 5 3 6 0;
#X connect 6 0 10 0;
#X connect 6 1 14 0;
#X connect 7 0 11 0;
#X connect 8 0 12 0;
#X connect 9 0 13 0;
#X connect 10 0 14 0;
#X connect 15 0 5 0;
#X restore 44 109 pd argv;
#X obj 44 81 route list;
#X connect 1 0 2 0;
#X connect 2 0 0 0;
#X connect 3 0 8 0;
#X connect 4 0 1 1;
#X connect 5 0 2 1;
#X connect 6 0 2 2;
#X connect 7 0 1 0;
#X connect 7 1 1 1;
#X connect 7 2 2 1;
#X connect 7 3 2 2;
#X connect 8 0 7 0;
#X connect 8 1 1 0;
