#N canvas 522 50 549 362 12;
#X obj 74 187 * 2.71828;
#X obj 47 84 f;
#X obj 59 116 *;
#X obj 59 138 * -1;
#X obj 61 243 pow;
#X obj 59 214 f;
#X obj 59 160 t b f;
#X obj 124 157 f;
#X obj 47 50 t b f b;
#X obj 164 84 f \$1;
#X obj 61 265 outlet;
#X obj 47 27 inlet;
#X obj 135 25 inlet;
#X obj 164 54 loadbang;
#X connect 0 0 5 1;
#X connect 1 0 2 0;
#X connect 2 0 3 0;
#X connect 3 0 6 0;
#X connect 4 0 10 0;
#X connect 5 0 4 0;
#X connect 6 0 5 0;
#X connect 6 1 4 1;
#X connect 7 0 1 1;
#X connect 7 0 0 0;
#X connect 8 0 1 0;
#X connect 8 1 2 1;
#X connect 8 2 7 0;
#X connect 9 0 7 1;
#X connect 11 0 8 0;
#X connect 12 0 7 0;
#X connect 13 0 9 0;
