#N canvas 430 23 718 751 12;
#X declare -lib Gem;
#X obj 43 518 translateXYZ;
#X obj 43 262 color 1 0 0;
#X obj 43 571 circle 0.5;
#X msg 234 571 draw line;
#X obj 279 297 color 0 0 1;
#X obj 279 516 translateXYZ;
#X obj 294 402 +;
#X obj 279 611 rectangle;
#X obj 357 402 +;
#X obj 426 402 -;
#X obj 484 402 -;
#X obj 248 216 list split 3;
#X obj 294 328 unpack f f f f;
#X obj 239 3 inlet;
#X obj 129 280 unpack f f f;
#X obj 294 362 t f f;
#X obj 357 362 t f f;
#X obj 410 362 t f f;
#X obj 468 362 t f f;
#X obj 43 231 t a a;
#X obj 279 271 separator;
#X obj 43 596 rectangle 0.02 0.2;
#X obj 43 623 rectangle 0.2 0.02;
#X obj 43 701 text2d;
#X msg 273 701 15;
#X obj 43 673 translate 0.4 1 1 0;
#X obj 43 648 separator;
#X obj 320 32 > \$1;
#X obj 318 5 inlet max;
#X obj 272 131 spigot;
#X obj 43 110 gemhead \$2;
#X obj 241 650 pack \$1 \$2;
#X msg 241 675 text \$1-\$2;
#X obj 320 57 t f f b;
#X obj 357 112 spigot 1;
#X obj 357 137 t b b;
#X msg 403 136 0;
#X obj 205 533 b;
#X obj 73 339 pack f \$3;
#X obj 154 342 pack f \$4;
#X obj 294 427 pack f \$3;
#X obj 374 427 pack f \$4;
#X obj 111 470 expr $f1*$f2*$f3;
#X obj 418 521 pack f \$3;
#X obj 498 521 pack f \$4;
#X obj 297 451 expr ($f1*0.5)*$f2-($f2*0.5);
#X obj 317 491 expr ($f1*0.5)*$f2-($f2*0.5);
#X obj 439 580 expr $f1*($f2*0.5);
#X obj 425 546 expr $f1*($f2*0.5);
#X obj 97 440 expr $f1*$f2-($f2*0.5);
#X obj 74 404 expr $f1*$f2-($f2*0.5);
#X obj 471 11 inlet;
#X obj 180 310 unpack;
#X obj 117 373 list append \$3 \$4;
#X obj 486 270 unpack;
#X obj 536 310 unpack;
#X obj 469 222 t a a a a;
#X obj 471 36 list split 4;
#X obj 432 67 list split 2;
#X obj 465 94 unpack;
#X obj 465 119 /;
#X obj 498 119 /;
#X obj 542 89 unpack;
#X obj 465 194 pack;
#X obj 465 144 * 4;
#X obj 498 144 * 4;
#X obj 45 23 loadbang;
#X msg 45 47 0;
#X obj 571 12 declare -lib Gem;
#X connect 0 0 2 0;
#X connect 1 0 0 0;
#X connect 2 0 21 0;
#X connect 3 0 2 0;
#X connect 3 0 7 0;
#X connect 4 0 5 0;
#X connect 5 0 7 0;
#X connect 6 0 40 0;
#X connect 8 0 41 0;
#X connect 9 0 43 0;
#X connect 10 0 44 0;
#X connect 11 0 14 0;
#X connect 11 1 12 0;
#X connect 12 0 15 0;
#X connect 12 1 16 0;
#X connect 12 2 17 0;
#X connect 12 3 18 0;
#X connect 13 0 29 0;
#X connect 14 0 38 0;
#X connect 14 1 39 0;
#X connect 14 2 53 0;
#X connect 15 0 6 0;
#X connect 15 1 9 0;
#X connect 16 0 8 0;
#X connect 16 1 10 0;
#X connect 17 0 6 1;
#X connect 17 1 9 1;
#X connect 18 0 8 1;
#X connect 18 1 10 1;
#X connect 19 0 1 0;
#X connect 19 1 20 0;
#X connect 20 0 4 0;
#X connect 21 0 22 0;
#X connect 22 0 26 0;
#X connect 24 0 23 1;
#X connect 25 0 23 0;
#X connect 26 0 25 0;
#X connect 27 0 33 0;
#X connect 28 0 27 0;
#X connect 29 0 11 0;
#X connect 30 0 19 0;
#X connect 31 0 32 0;
#X connect 32 0 23 0;
#X connect 33 0 30 0;
#X connect 33 1 29 1;
#X connect 33 2 34 0;
#X connect 34 0 35 0;
#X connect 35 0 37 0;
#X connect 35 1 36 0;
#X connect 36 0 34 1;
#X connect 37 0 3 0;
#X connect 37 0 24 0;
#X connect 37 0 31 0;
#X connect 38 0 50 0;
#X connect 39 0 49 0;
#X connect 40 0 45 0;
#X connect 41 0 46 0;
#X connect 42 0 2 1;
#X connect 42 0 21 2;
#X connect 42 0 22 1;
#X connect 43 0 48 0;
#X connect 44 0 47 0;
#X connect 45 0 5 1;
#X connect 46 0 5 2;
#X connect 47 0 7 2;
#X connect 48 0 7 1;
#X connect 49 0 0 2;
#X connect 50 0 0 1;
#X connect 51 0 57 0;
#X connect 52 0 38 1;
#X connect 52 1 39 1;
#X connect 53 0 42 0;
#X connect 54 0 40 1;
#X connect 54 1 41 1;
#X connect 55 0 43 1;
#X connect 55 1 44 1;
#X connect 56 0 52 0;
#X connect 56 1 53 1;
#X connect 56 2 54 0;
#X connect 56 3 55 0;
#X connect 57 0 58 0;
#X connect 57 1 62 0;
#X connect 58 1 59 0;
#X connect 59 0 60 0;
#X connect 59 1 61 0;
#X connect 60 0 64 0;
#X connect 61 0 65 0;
#X connect 62 0 60 1;
#X connect 62 1 61 1;
#X connect 63 0 56 0;
#X connect 64 0 63 0;
#X connect 65 0 63 1;
#X connect 66 0 67 0;
#X connect 67 0 30 0;
