#N canvas 0 22 552 404 12;
#X obj 370 217 iterate;
#X obj 370 246 t b f;
#X obj 370 276 mtwister;
#X obj 385 148 loadbang;
#X msg 41 181 \$2;
#X obj 41 206 t f f;
#X obj 41 99 f;
#X obj 370 109 t b;
#X obj 174 32 array define \$2 \$1;
#X obj 370 185 array size \$2;
#X obj 370 306 array set \$2;
#X text 193 130 <-- random based on probs;
#X text 216 147 in the array;
#X text 212 277 initialize probs -->;
#X text 13 333 output current state;
#X text 76 98 <-- feedback for next state;
#X text 57 68 (start with state=0);
#X text 84 183 <-- route instance (==state);
#X text 404 110 re-do probs;
#X text 144 9 array to hold probabilities;
#X text 63 241 ARGUMENTS:;
#X text 68 259 \$1 = states;
#X text 68 277 \$2 = arrayname;
#X obj 41 309 outlet float;
#X obj 41 37 inlet bang;
#X obj 370 34 inlet bang;
#X obj 41 131 clone fd_prob \$1 \$2;
#X connect 0 0 1 0;
#X connect 1 0 2 0;
#X connect 1 1 10 1;
#X connect 2 0 10 0;
#X connect 3 0 9 0;
#X connect 4 0 5 0;
#X connect 5 0 23 0;
#X connect 5 1 6 1;
#X connect 6 0 26 0;
#X connect 7 0 9 0;
#X connect 9 0 0 0;
#X connect 24 0 6 0;
#X connect 25 0 7 0;
#X connect 26 0 4 0;
