#N canvas 522 52 414 470 12;
#X obj 23 120 samplerate~;
#X msg 108 186 0;
#X obj 98 14 inlet;
#X msg 232 207 set \$1;
#X obj 242 397 array define \$1 \$2;
#X obj 23 144 / \$2;
#X obj 23 373 tabsend~ \$1;
#X obj 232 236 switch~ \$2;
#X obj 41 250 osc~;
#X obj 41 273 *~ -0.5;
#X obj 41 296 +~ 0.5;
#X text 262 82 see fd_windows.pd;
#X msg 199 358 normalize 1;
#X obj 41 220 / 1;
#X obj 98 40 route bang float q ph;
#X obj 107 231 +;
#X obj 41 320 lop~ 1024;
#X obj 23 192 fd_smooth;
#X obj 23 343 *~;
#X obj 98 69 t b b b;
#X obj 23 167 t f f b;
#X obj 209 125 t f f f;
#X obj 232 156 t f f;
#X obj 264 179 array size \$1;
#X obj 167 298 t b b;
#X obj 167 421 fd_smooth_brute \$1;
#X obj 167 274 del 1 \$2 samp;
#N canvas 0 22 450 300 open 0;
#X obj 118 71 route open;
#X msg 118 95 click 0 0 0 0 0;
#X obj 119 49 inlet;
#X obj 118 119 outlet;
#X connect 0 0 1 0;
#X connect 0 1 3 0;
#X connect 1 0 3 0;
#X connect 2 0 0 0;
#X restore 242 319 pd open;
#X connect 0 0 5 0;
#X connect 1 0 15 0;
#X connect 2 0 14 0;
#X connect 3 0 7 0;
#X connect 5 0 20 0;
#X connect 8 0 9 0;
#X connect 9 0 10 0;
#X connect 10 0 16 0;
#X connect 12 0 4 0;
#X connect 13 0 8 0;
#X connect 14 0 19 0;
#X connect 14 1 21 0;
#X connect 14 2 13 1;
#X connect 14 3 15 1;
#X connect 14 4 27 0;
#X connect 15 0 8 1;
#X connect 16 0 18 1;
#X connect 17 0 18 0;
#X connect 18 0 6 0;
#X connect 19 0 26 0;
#X connect 19 1 7 0;
#X connect 19 2 0 0;
#X connect 20 0 17 0;
#X connect 20 1 13 0;
#X connect 20 2 1 0;
#X connect 21 0 5 1;
#X connect 21 1 22 0;
#X connect 21 2 26 1;
#X connect 22 0 3 0;
#X connect 22 1 23 0;
#X connect 24 0 25 0;
#X connect 24 1 12 0;
#X connect 26 0 24 0;
#X connect 27 0 4 0;
