#N canvas 464 124 450 300 10;
#X obj 129 48 bng 15 250 50 0 empty empty empty 17 7 0 10 -262144 -1
-1;
#X floatatom 191 40 5 0 0 0 - - -, f 5;
#X obj 138 101 gausstwister;
#X obj 280 62 pow 5;
#X floatatom 277 20 5 0 0 0 - - -, f 5;
#X obj 157 214 pack;
#X obj 161 239 print;
#X connect 0 0 2 0;
#X connect 1 0 2 0;
#X connect 2 0 5 0;
#X connect 2 1 5 1;
#X connect 3 0 1 0;
#X connect 4 0 3 0;
#X connect 5 0 6 0;
