#N canvas 500 50 530 480 12;
#X declare -path fd_lib;
#X obj 4 4 cnv 15 522 30 empty empty "fd_emap2" 20 15 0 15 -228856
-1 0;
#X obj 4 224 cnv 15 522 20 empty empty arguments: 10 10 0 14 -228856
-1 0;
#X obj 4 314 cnv 15 522 20 empty empty inlets: 10 10 0 14 -228856 -1
0;
#X obj 4 394 cnv 15 522 20 empty empty outlets: 10 10 0 14 -228856
-1 0;
#X obj 4 453 cnv 15 522 20 empty empty version 10 10 0 14 -228856 -1
0;
#X obj 380 8 declare -path fd_lib;
#X text 440 452 fd_lib v0.1;
#X obj 38 97 hsl 128 15 0 127 0 0 empty empty empty -2 -8 0 10 -262144
-1 -1 0 1;
#X obj 38 147 hsl 128 15 0 127 0 0 empty empty empty -2 -8 0 10 -262144
-1 -1 0 1;
#X obj 35 116 fd_emap2 0 127 0.01 127;
#X text 29 47 Makes linear mapping an incoming range to a new range
;
#N canvas 0 22 450 300 more 0;
#X floatatom 49 161 0 0 0 0 - - -;
#X floatatom 46 77 0 0 0 0 - - -;
#X obj 49 32 hsl 128 15 0 127 0 0 empty empty empty -2 -8 0 10 -262144
-1 -1 0 1;
#X obj 49 136 fd_emap2 0 127 1 2;
#X obj 46 52 fd_emap2 0 127 0.01 1;
#X obj 47 228 hsl 128 15 1.27 127 1 0 empty empty empty -2 -8 0 10
-262144 -1 -1 0 1;
#X obj 47 248 hsl 128 15 0 127 0 0 empty empty empty -2 -8 0 10 -262144
-1 -1 0 1;
#X msg 51 201 log 1;
#X text 105 202 <-- built-in log map;
#X obj 52 110 hsl 128 15 0 127 0 0 empty empty empty -2 -8 0 10 -262144
-1 -1 0 1;
#X connect 2 0 4 0;
#X connect 3 0 0 0;
#X connect 4 0 1 0;
#X connect 5 0 6 0;
#X connect 7 0 5 0;
#X connect 9 0 3 0;
#X restore 353 173 pd more examples;
#X text 60 420 1: float : mapped output;
#X text 57 343 1: float : input to map \; 2: list : (float) min (float)
max (float) min2 (float) max2;
#X text 56 250 1: float : min \; 2: float : max \; 3: float : min2
\; 4: float : max2;
#N canvas 0 22 450 300 meta 0;
#X text 10 10 fd_lib - metadata file - Fri Sep 13 18:19:08 EDT 2019
;
#X text 10 25 patch_name : fd_emap2;
#X text 10 40 inlet : 2;
#X text 10 55 outlet : 1;
#X text 10 70 inlet~ : 0;
#X text 10 85 outlet~ : 0;
#X text 10 100 arguments : 4;
#X text 10 115 classes used : 13;
#X text 10 130 total objects: 21;
#X text 10 145 connections : 26;
#X text 10 160 dependencies : 0 [0];
#X text 10 175 externals : 0 [0];
#X text 10 190 internals : 13/233 [0t:list:inlet:*:/:-:sel:route:print:pow:pack:outlet:loadbang]
;
#X restore 438 423 pd meta;
#X connect 7 0 9 0;
#X connect 9 0 8 0;
