#N canvas 15 22 450 300 12;
#X obj 92 94 bang~;
#X msg 142 143 0;
#X obj 92 119 spigot 1;
#X obj 92 144 t b b;
#X obj 92 204 outlet;
#X obj 153 44 inlet;
#X obj 153 69 b;
#X msg 153 94 1;
#X connect 0 0 2 0;
#X connect 1 0 2 1;
#X connect 2 0 3 0;
#X connect 3 0 4 0;
#X connect 3 1 1 0;
#X connect 5 0 6 0;
#X connect 6 0 7 0;
#X connect 7 0 2 1;
