#N canvas 532 51 291 403 12;
#X obj 35 220 +;
#X obj 72 174 t f f;
#X obj 72 145 f;
#X obj 72 200 *;
#X obj 35 254 * 3.1417;
#X obj 35 280 pow -1;
#X obj 105 59 loadbang;
#X obj 35 309 *;
#X obj 35 345 outlet;
#X obj 35 117 t f b;
#X obj 35 33 inlet;
#X obj 35 63 t f f;
#X obj 35 91 *;
#X obj 105 86 f \$1;
#X obj 93 32 inlet;
#X obj 93 119 t f f;
#X text 97 343 see fd_cauchy-help.pd;
#X connect 0 0 4 0;
#X connect 1 0 3 0;
#X connect 1 1 3 1;
#X connect 2 0 1 0;
#X connect 3 0 0 1;
#X connect 4 0 5 0;
#X connect 5 0 7 0;
#X connect 6 0 13 0;
#X connect 7 0 8 0;
#X connect 9 0 0 0;
#X connect 9 1 2 0;
#X connect 10 0 11 0;
#X connect 11 0 12 0;
#X connect 11 1 12 1;
#X connect 12 0 9 0;
#X connect 13 0 15 0;
#X connect 14 0 15 0;
#X connect 15 0 2 1;
#X connect 15 1 7 1;
