#N canvas 373 213 415 371 10;
#X obj 38 205 +;
#X obj 65 159 t f f;
#X obj 65 135 f;
#X obj 65 181 *;
#X obj 38 233 * 3.1417;
#X obj 38 255 pow -1;
#X obj 321 36 loadbang;
#X obj 321 88 s \$0-t;
#X obj 80 113 r \$0-t;
#X obj 38 302 *;
#X obj 53 279 r \$0-t;
#X obj 38 324 outlet;
#X obj 38 80 t f b;
#X obj 38 10 inlet;
#X obj 38 35 t f f;
#X obj 38 58 *;
#X text 128 34 cauchy:;
#X text 146 57 t(PI(t^2+x^2)^-1;
#X obj 321 58 f \$1;
#X obj 303 12 inlet;
#X connect 0 0 4 0;
#X connect 1 0 3 0;
#X connect 1 1 3 1;
#X connect 2 0 1 0;
#X connect 3 0 0 1;
#X connect 4 0 5 0;
#X connect 5 0 9 0;
#X connect 6 0 18 0;
#X connect 8 0 2 1;
#X connect 9 0 11 0;
#X connect 10 0 9 1;
#X connect 12 0 0 0;
#X connect 12 1 2 0;
#X connect 13 0 14 0;
#X connect 14 0 15 0;
#X connect 14 1 15 1;
#X connect 15 0 12 0;
#X connect 18 0 7 0;
#X connect 19 0 7 0;
