#N canvas 731 268 477 489 12;
#X text 242 61 see fd_getfiles-help.pd;
#X obj 26 32 inlet;
#X obj 25 318 outlet;
#N canvas 350 50 823 674 s 0;
#X msg 294 223 getfiles;
#X obj 294 335 f;
#X obj 327 336 + 1;
#X obj 294 550 symbol;
#X obj 294 199 t b b;
#X obj 317 105 del 100;
#X obj 112 44 inlet;
#X obj 477 95 symbol \$1;
#X obj 294 253 mainpath;
#X obj 477 122 s \$0-newdir;
#X msg 334 308 0;
#X msg 462 298 1;
#X msg 429 298 0;
#X obj 294 278 t b a b;
#X obj 376 223 r \$0-newdir;
#X obj 315 80 t b b a;
#X obj 322 39 r \$0-recurse;
#X obj 294 525 t b p p, f 24;
#X obj 531 575 == 0;
#X obj 468 575 spigot;
#X obj 468 600 s \$0-first;
#X obj 113 155 s \$0-reset;
#X obj 477 43 r \$0-reset;
#X obj 477 68 symbol \$1;
#X obj 388 383 s \$0-number;
#X obj 520 546 r \$0-number;
#X obj 294 360 t f f f;
#X obj 294 455 list;
#X obj 339 392 != 0;
#X obj 337 429 fd_swap 0 999;
#X obj 294 389 * 15;
#X obj 112 69 route reset keys;
#X obj 174 100 s \$0-keys;
#X obj 113 99 t b b;
#X obj 294 175 t b b;
#X obj 337 454 list prepend 10 15;
#X obj 294 414 + 30;
#N canvas 0 22 450 300 s 0;
#X obj 221 60 change;
#X obj 221 101 sel;
#X obj 114 66 bang;
#X msg 175 130 stop;
#X obj 221 29 inlet;
#X obj 35 169 symbol;
#X msg 35 194 open \$1;
#X obj 35 219 mainpath /;
#X obj 92 168 r \$0-newdir;
#X obj 75 126 t b b;
#X msg 291 174 vis 1;
#X msg 227 170 vis 0;
#X obj 114 91 del 200;
#X obj 259 220 s \$1-files-template;
#X connect 0 0 1 0;
#X connect 1 0 3 0;
#X connect 1 0 10 0;
#X connect 1 1 2 0;
#X connect 2 0 12 0;
#X connect 3 0 12 0;
#X connect 4 0 0 0;
#X connect 5 0 6 0;
#X connect 6 0 7 0;
#X connect 8 0 5 1;
#X connect 9 0 5 0;
#X connect 9 1 11 0;
#X connect 10 0 13 0;
#X connect 11 0 13 0;
#X connect 12 0 9 0;
#X restore 429 340 pd s open;
#N canvas 453 76 445 377 s 0;
#X obj 229 32 inlet;
#X obj 255 133 loadbang;
#X obj 35 185 t b p;
#X obj 35 69 t b p;
#X text 35 13 Title;
#X msg 35 103 10 15 15 900 0;
#X msg 234 197 \; \$1-files-template clear \, send \$1-ptr \, vis 0
\, setbounds 20 50 250 530 \, background black \; pd-s vis 0 \;, f
23;
#X msg 35 219 symbol file_navigator;
#X obj 35 128 append \$1-files-template x y h color backgr, f 21;
#X obj 35 244 set -symbol \$1-files-template filename, f 17;
#X obj 234 170 pack \$1;
#X obj 34 44 r \$1-ptr;
#X connect 0 0 10 0;
#X connect 1 0 10 0;
#X connect 2 0 7 0;
#X connect 2 1 9 1;
#X connect 3 0 5 0;
#X connect 3 1 8 5;
#X connect 5 0 8 0;
#X connect 7 0 9 0;
#X connect 8 0 2 0;
#X connect 10 0 6 0;
#X connect 11 0 3 0;
#X restore 342 146 pd s init;
#X obj 294 486 append \$1-files-template y x h color backgr, f 24
;
#X obj 294 574 set -symbol \$1-files-template filename, f 17;
#X obj 508 452 r \$1-ptr;
#X connect 0 0 8 0;
#X connect 1 0 2 0;
#X connect 1 0 26 0;
#X connect 2 0 1 1;
#X connect 3 0 40 0;
#X connect 4 0 0 0;
#X connect 4 1 11 0;
#X connect 5 0 34 0;
#X connect 6 0 31 0;
#X connect 7 0 9 0;
#X connect 8 0 13 0;
#X connect 10 0 1 1;
#X connect 11 0 37 0;
#X connect 12 0 37 0;
#X connect 13 0 1 0;
#X connect 13 1 3 1;
#X connect 13 2 12 0;
#X connect 14 0 8 1;
#X connect 15 0 5 0;
#X connect 15 1 38 0;
#X connect 15 2 7 0;
#X connect 16 0 15 0;
#X connect 17 0 3 0;
#X connect 17 1 40 1;
#X connect 17 2 19 0;
#X connect 18 0 19 1;
#X connect 19 0 20 0;
#X connect 22 0 23 0;
#X connect 23 0 7 0;
#X connect 25 0 18 0;
#X connect 26 0 30 0;
#X connect 26 1 28 0;
#X connect 26 2 24 0;
#X connect 27 0 39 0;
#X connect 28 0 29 0;
#X connect 29 0 35 0;
#X connect 30 0 36 0;
#X connect 31 0 33 0;
#X connect 31 1 32 0;
#X connect 31 2 15 0;
#X connect 33 0 21 0;
#X connect 33 1 38 0;
#X connect 34 0 4 0;
#X connect 34 1 10 0;
#X connect 35 0 27 1;
#X connect 36 0 27 0;
#X connect 39 0 17 0;
#X connect 41 0 39 5;
#X restore 26 59 pd s drawer;
#N canvas 344 22 832 716 s 0;
#X obj 72 39 route click;
#X obj 72 12 inlet;
#X obj 507 462 t a b;
#X obj 576 432 symbol \$1;
#X obj 645 403 r \$0-newdir;
#X msg 576 482 set \$1;
#X obj 576 507 makefilename;
#X obj 576 457 makefilename %s/%%s;
#X obj 576 690 outlet;
#X obj 470 305 pointer;
#X obj 576 540 spigot;
#X msg 663 555 0;
#X msg 745 520 1;
#X obj 745 265 del 200;
#X obj 602 601 s \$0-recurse;
#X obj 72 67 unpack p f;
#X obj 278 250 t f f;
#X obj 277 280 -;
#X obj 277 305 t f f;
#X obj 419 174 sel;
#X obj 470 246 del 200;
#X obj 167 358 spigot 1;
#X obj 72 431 t p p b;
#X obj 166 387 t p p;
#X obj 127 479 pointer;
#X obj 72 501 t b p;
#X obj 358 87 spigot 1;
#X msg 453 174 0;
#X obj 139 432 r \$0-first;
#X obj 269 356 spigot;
#X obj 470 424 t b a;
#X obj 617 135 r \$0-reset;
#X msg 605 179 1;
#X obj 137 504 t b p;
#X obj 201 554 t p p;
#X msg 72 526 0;
#X msg 137 529 1;
#X obj 72 562 fd_swap 0 999;
#X obj 158 154 s \$0-gety;
#X obj 72 92 t p p p;
#X obj 531 23 inlet;
#X obj 576 565 t a a b;
#X obj 531 48 route bang;
#X obj 72 262 t p p b;
#X msg 311 217 -1;
#X msg 722 630 set symbol;
#X obj 161 112 get \$1-files-template y, f 21;
#X obj 72 594 set \$1-files-template color backgr, f 21;
#X obj 392 595 get \$1-files-template filename, f 21;
#X obj 470 382 get \$1-files-template filename, f 21;
#X connect 0 0 15 0;
#X connect 1 0 0 0;
#X connect 2 0 6 0;
#X connect 2 1 3 0;
#X connect 3 0 7 0;
#X connect 4 0 3 1;
#X connect 5 0 6 0;
#X connect 6 0 10 0;
#X connect 7 0 5 0;
#X connect 9 0 49 0;
#X connect 10 0 41 0;
#X connect 11 0 10 1;
#X connect 12 0 10 1;
#X connect 13 0 12 0;
#X connect 13 0 32 0;
#X connect 15 0 39 0;
#X connect 15 1 26 0;
#X connect 16 0 17 1;
#X connect 16 1 17 0;
#X connect 17 0 18 0;
#X connect 18 0 19 0;
#X connect 18 1 21 1;
#X connect 18 1 29 1;
#X connect 19 0 20 0;
#X connect 19 0 27 0;
#X connect 20 0 9 0;
#X connect 20 0 44 0;
#X connect 21 0 23 0;
#X connect 22 0 25 0;
#X connect 22 1 24 1;
#X connect 22 2 24 0;
#X connect 23 0 22 0;
#X connect 23 1 9 1;
#X connect 24 0 33 0;
#X connect 25 0 35 0;
#X connect 25 1 34 0;
#X connect 26 0 16 0;
#X connect 27 0 26 1;
#X connect 28 0 24 1;
#X connect 29 0 48 0;
#X connect 30 0 13 0;
#X connect 30 1 2 0;
#X connect 31 0 32 0;
#X connect 31 0 45 0;
#X connect 32 0 26 1;
#X connect 33 0 36 0;
#X connect 33 1 34 0;
#X connect 34 0 47 2;
#X connect 34 1 9 1;
#X connect 35 0 37 0;
#X connect 36 0 37 0;
#X connect 37 0 47 0;
#X connect 39 0 21 0;
#X connect 39 1 29 0;
#X connect 39 2 46 0;
#X connect 40 0 42 0;
#X connect 41 0 8 0;
#X connect 41 1 14 0;
#X connect 41 2 11 0;
#X connect 42 0 20 0;
#X connect 42 1 43 0;
#X connect 43 0 22 0;
#X connect 43 1 29 0;
#X connect 43 2 44 0;
#X connect 44 0 17 1;
#X connect 45 0 8 0;
#X connect 46 0 38 0;
#X connect 48 0 8 0;
#X connect 49 0 30 0;
#X restore 25 284 pd s touch;
#N canvas 652 55 569 687 s 0;
#X obj 55 67 sel 1;
#X obj 55 92 symbol;
#X obj 55 16 keyname;
#X obj 55 41 spigot;
#X obj 225 47 route vis;
#X obj 55 487 outlet;
#X msg 185 171 vis 0;
#X obj 65 455 fd_list-pointer;
#X obj 81 218 * 1;
#X obj 55 142 sel Return Down Up Escape;
#X msg 135 172 1;
#X msg 81 171 -1;
#X obj 81 362 mod;
#X msg 382 597 yaxis \$1;
#X obj 81 243 t f f;
#X obj 264 395 -;
#X obj 266 419 * -1;
#X obj 263 475 sel 0;
#X obj 263 450 mod 30;
#X msg 432 567 -10;
#X msg 379 568 10;
#X obj 263 500 list prepend;
#X obj 263 525 route 1 -1;
#X obj 55 117 spigot 1;
#X obj 116 93 r \$0-keys;
#X obj 299 114 sel 1;
#X obj 299 139 del 10;
#X obj 396 217 sel Prior Next, f 9;
#N canvas 0 22 450 300 s 0;
#X obj 145 49 r \$0-gety;
#X obj 145 176 -;
#X obj 145 151 swap;
#X obj 145 126 + 2;
#X obj 145 76 - 15;
#X obj 145 101 / 15;
#X obj 283 61 inlet;
#X obj 210 243 outlet;
#X obj 290 161 - 2;
#X obj 360 241 outlet;
#X connect 0 0 4 0;
#X connect 1 0 7 0;
#X connect 2 0 1 0;
#X connect 2 1 1 1;
#X connect 3 0 2 0;
#X connect 4 0 5 0;
#X connect 5 0 3 0;
#X connect 6 0 2 1;
#X connect 6 0 8 0;
#X connect 6 0 9 0;
#X connect 8 0 7 0;
#X restore 182 269 pd s range;
#N canvas 0 22 524 376 s 0;
#X msg 461 105 clear;
#X obj 261 202 t p b;
#X msg 70 118 \; \$1-files-template flush \$1-flushed, f 17;
#X obj 46 55 t b b b;
#X obj 312 237 f;
#X obj 345 238 + 1;
#X msg 409 108 0;
#X obj 54 274 f;
#X obj 50 22 inlet;
#X obj 414 331 outlet;
#X obj 49 342 outlet;
#X text 197 23 Output all pointers (and count them);
#X obj 70 93 pack \$1;
#X obj 261 177 r \$1-flushed;
#X connect 0 0 9 0;
#X connect 1 0 9 0;
#X connect 1 1 4 0;
#X connect 3 0 7 0;
#X connect 3 1 12 0;
#X connect 3 2 0 0;
#X connect 3 2 6 0;
#X connect 4 0 5 0;
#X connect 4 0 7 1;
#X connect 5 0 4 1;
#X connect 6 0 4 1;
#X connect 7 0 10 0;
#X connect 8 0 3 0;
#X connect 12 0 2 0;
#X connect 13 0 1 0;
#X restore 263 243 pd s flush;
#X obj 81 387 t f f;
#X text 311 392 scroll;
#X obj 225 22 r \$1-files-template;
#X obj 381 622 s \$1-files-template;
#X msg 81 268 i \$1 \, bang;
#X obj 81 294 counter -i 1;
#X obj 185 197 s \$1-files-template, f 17;
#X connect 0 0 1 0;
#X connect 1 0 23 0;
#X connect 2 0 3 0;
#X connect 2 1 1 1;
#X connect 3 0 0 0;
#X connect 4 0 3 1;
#X connect 4 0 25 0;
#X connect 6 0 36 0;
#X connect 7 0 5 0;
#X connect 8 0 14 0;
#X connect 9 0 5 0;
#X connect 9 1 11 0;
#X connect 9 2 10 0;
#X connect 9 3 6 0;
#X connect 9 4 27 0;
#X connect 10 0 8 0;
#X connect 11 0 8 0;
#X connect 12 0 30 0;
#X connect 13 0 33 0;
#X connect 14 0 34 0;
#X connect 14 1 21 1;
#X connect 15 0 16 0;
#X connect 16 0 18 0;
#X connect 17 0 21 0;
#X connect 18 0 17 0;
#X connect 19 0 13 0;
#X connect 20 0 13 0;
#X connect 21 0 22 0;
#X connect 22 0 20 0;
#X connect 22 1 19 0;
#X connect 23 0 9 0;
#X connect 24 0 23 1;
#X connect 25 0 26 0;
#X connect 26 0 29 0;
#X connect 27 0 20 0;
#X connect 27 1 19 0;
#X connect 28 0 35 0;
#X connect 28 1 12 1;
#X connect 28 1 15 1;
#X connect 29 0 28 0;
#X connect 29 1 7 0;
#X connect 30 0 7 0;
#X connect 30 1 15 0;
#X connect 32 0 4 0;
#X connect 34 0 35 0;
#X connect 35 0 12 0;
#X restore 102 243 pd s key;
#X obj 25 153 filledpolygon -x backgr color 1 0 0 0 h 200 h 200 0;
#X obj 25 99 drawsymbol filename h(0:100)(0:50) -1 color;
#X obj 25 190 struct \$1-files-template float y symbol filename float
x float color float backgr float h, f 48;
#X obj 20 360 back define \$1-files-template;
#X connect 1 0 3 0;
#X connect 4 0 2 0;
#X connect 5 0 4 1;
#X connect 8 0 4 0;
#X coords 0 489 1 488 216 -2 0;
