#N canvas 528 42 711 566 12;
#X text 388 89 Inlet/argument \$1:;
#X msg 43 121 ..;
#X msg 33 94 bang;
#X symbolatom 119 393 0 0 0 0 found_file - -;
#X msg 57 153 ../..;
#X msg 96 311 reset;
#X text 312 249 Up / Down Keys / Click : Selection;
#X text 359 336 TIP: Use ".." to go back one dir;
#X text 308 217 MENU NAVIGATION;
#X text 112 49 GET FILES FROM A DIRECTORY AND DISPLAY A MENU;
#X text 391 134 Outlet: (symbol) selected file or path/to/file, f
25;
#X text 312 268 Return Key / Double-click : Enter dir || Open;
#X text 311 287 Escape key : Close the canvas;
#X text 400 111 New (relative) directory.;
#X msg 85 256 keys \$1;
#X obj 85 220 tgl 15 0 empty empty empty 17 7 0 10 -262144 -1 -1 0
1;
#X text 107 215 enable/disable Key Input (def ault 1), f 18;
#X msg 70 179 ../lorenz;
#X text 79 121 <-- change directory;
#X text 77 94 <-- current directory;
#X obj 369 456 back;
#X obj 415 455 scroll;
#X text 371 427 see help for these:;
#X obj 476 454 fd_list-pointer;
#X text 310 309 Page Up/Down: Scroll Up / Down;
#X text 247 21 "fd_getfiles";
#X text 49 494 BUG: paths get stacked when entering dir or opening
files. It works \, but if path is too long \, it might end up breaking.
You can use "reset" to temporarily get away with this., f 70;
#X obj 33 347 fd_getfiles 0;
#X connect 1 0 27 0;
#X connect 2 0 27 0;
#X connect 4 0 27 0;
#X connect 5 0 27 0;
#X connect 14 0 27 0;
#X connect 15 0 14 0;
#X connect 17 0 27 0;
#X connect 27 0 3 0;
#X coords 0 0 1 1 85 60 0;
