#N canvas 521 52 503 385 12;
#X obj 158 119 ./fd_preset;
#X floatatom 158 164 5 0 0 0 - - -, f 5;
#X text 185 22 "fd_preset";
#X text 10 58 A set of controls to handle preset selection (non-storing)
;
#X connect 0 0 1 0;
#X obj 339 15 declare -path fd_lib;
#X text 403 355 fd_lib v0.1;
