#N canvas 500 50 530 480 12;
#X declare -path fd_lib;
#X obj 4 4 cnv 15 522 30 empty empty "fd_round" 20 15 0 15 -228856
-1 0;
#X obj 4 254 cnv 15 522 20 empty empty arguments: 10 10 0 14 -228856
-1 0;
#X obj 4 314 cnv 15 522 20 empty empty inlets: 10 10 0 14 -228856 -1
0;
#X obj 4 374 cnv 15 522 20 empty empty outlets: 10 10 0 14 -228856
-1 0;
#X obj 4 453 cnv 15 522 20 empty empty version 10 10 0 14 -228856 -1
0;
#X obj 380 8 declare -path fd_lib;
#N canvas 0 22 450 300 meta 0;
#X text 10 10 fd_lib - metadata file - Sat Sep 28 23:23:13 EDT 2019
;
#X text 10 25 patch_name : fd_round;
#X text 10 40 inlet : 1;
#X text 10 55 outlet : 1;
#X text 10 70 inlet~ : 0;
#X text 10 85 outlet~ : 0;
#X text 10 100 arguments : 2;
#X text 10 115 classes used : 12;
#X text 10 130 total objects: 17;
#X text 10 145 connections : 19;
#X text 10 160 dependencies : 0 [0];
#X text 10 175 externals : 0 [0];
#X text 10 190 internals : 12/233 [0i:*:b:wrap:t:outlet:moses:loadbang:inlet:f:/:+]
;
#X restore 438 423 pd meta;
#X text 440 452 fd_lib v0.1;
#X text 24 49 Rounding function;
#X obj 177 143 * 0.001;
#X obj 177 54 tgl 15 0 empty empty empty 17 7 0 10 -262144 -1 -1 0
1;
#X obj 177 121 counter;
#X msg 185 97 0;
#X floatatom 276 222 0 0 0 0 - - -;
#X floatatom 299 174 0 0 0 0 - - -;
#X floatatom 322 127 0 0 0 0 - - -;
#X obj 276 197 fd_round 0 10;
#X obj 299 149 fd_round 0 100;
#X obj 322 102 fd_round 0 1000;
#X obj 177 74 metro 10;
#X obj 276 79 t a a a;
#X text 60 279 1: float: minimum value \; 2: float: decimal point;
#X text 60 340 1: float: stream of floats to round;
#X text 60 410 1: float: rounded float;
#X connect 9 0 20 0;
#X connect 10 0 19 0;
#X connect 11 0 9 0;
#X connect 12 0 11 0;
#X connect 16 0 13 0;
#X connect 17 0 14 0;
#X connect 18 0 15 0;
#X connect 19 0 11 0;
#X connect 20 0 16 0;
#X connect 20 1 17 0;
#X connect 20 2 18 0;
