#N canvas 0 22 450 350 12;
#X obj 10 10 loadbang;
#X obj 10 40 tgl;
#X obj 10 70 t b b;
#X msg 10 100 my message comes after;
#X msg 10 130 my message comes first;
#X obj 10 160 print -n;
#X connect 0 0 1 0;
#X connect 1 0 2 0;
#X connect 2 0 3 0;
#X connect 3 0 4 0;
#X connect 4 0 5 0;
#X connect 5 0 6 0;
#X connect 6 0 7 0;
