#N canvas 0 22 450 350 12;
#X obj 10 10 loadbang;
#X obj 10 40 toggle;
#X obj 10 70 metro 100;
#X obj 10 100 toggle;
#X msg 10 130 my number is \$1;
#X obj 10 160 print;
#X connect 0 0 1 0;
#X connect 1 0 2 0;
#X connect 2 0 3 0;
#X connect 3 0 4 0;
#X connect 4 0 5 0;
