#N canvas 591 219 462 471 12;
#X obj 67 173 samplerate~;
#X msg 108 230 0;
#X obj 67 252 phasor~;
#X obj 49 392 /~;
#X obj 67 341 exp~;
#X obj 50 19 sig~ 1;
#X obj 109 40 inlet;
#X obj 67 319 *~ 13;
#X msg 173 155 set \$1;
#X obj 261 336 array define \$1 \$2;
#X obj 67 230 / \$2;
#X obj 49 417 tabsend~ \$1;
#X obj 173 214 switch~ \$2;
#X obj 67 274 -~ 1;
#X obj 67 296 abs~;
#X obj 109 65 route bang float q;
#X obj 65 105 t b b b;
#X obj 67 201 t f b;
#X obj 150 91 t f f f;
#X obj 173 127 t f f;
#X obj 205 185 array size \$1;
#X obj 205 281 t b b;
#X obj 205 369 fd_smooth_brute \$1;
#N canvas 0 22 450 300 open 0;
#X obj 118 71 route open;
#X msg 118 95 click 0 0 0 0 0;
#X obj 119 49 inlet;
#X obj 118 119 outlet;
#X connect 0 0 1 0;
#X connect 0 1 3 0;
#X connect 1 0 3 0;
#X connect 2 0 0 0;
#X restore 261 131 pd open;
#X obj 205 257 del 1 \$2 samp;
#X msg 237 309 normalize;
#X connect 0 0 17 0;
#X connect 1 0 2 1;
#X connect 2 0 13 0;
#X connect 3 0 11 0;
#X connect 4 0 3 1;
#X connect 5 0 3 0;
#X connect 6 0 15 0;
#X connect 7 0 4 0;
#X connect 8 0 12 0;
#X connect 10 0 2 0;
#X connect 13 0 14 0;
#X connect 14 0 7 0;
#X connect 15 0 16 0;
#X connect 15 1 18 0;
#X connect 15 2 7 1;
#X connect 15 3 23 0;
#X connect 16 0 24 0;
#X connect 16 1 12 0;
#X connect 16 2 0 0;
#X connect 17 0 10 0;
#X connect 17 1 1 0;
#X connect 18 0 10 1;
#X connect 18 1 19 0;
#X connect 18 2 24 1;
#X connect 19 0 8 0;
#X connect 19 1 20 0;
#X connect 21 0 22 0;
#X connect 21 1 25 0;
#X connect 23 0 9 0;
#X connect 24 0 21 0;
#X connect 25 0 9 0;
