#N canvas 78 462 348 217 12;
#N canvas 0 23 378 269 (subpatch) 0;
#X obj 12 12 cnv 15 320 190 empty empty empty 20 12 0 14 -1 -66577
0;
#X obj 17 16 cnv 15 300 45 empty canv-0 like 20 20 0 40 -228856 -1
0;
#X obj 17 66 cnv 15 300 45 empty canv-1 that 20 20 0 40 -228856 -1
0;
#X obj 17 116 cnv 15 300 45 empty canv-2 In 20 20 0 40 -228856 -1 0
;
#X obj 17 164 cnv 15 300 30 empty empty empty 20 20 0 40 -228856 -1
0;
#X obj 18 176 hradio 15 1 0 3 order order-set order 0 -8 0 10 -262144
-1 -1 0;
#X obj 78 176 tgl 15 0 metro-onoff metro-onoff-set metro 0 -7 0 10
-262144 -1 -1 0 1;
#X obj 166 176 bng 15 250 50 0 reload empty reload-text 17 7 0 10 -262144
-1 -1;
#X obj 113 177 nbx 4 14 1 5000 0 0 metro-speed metro-speed-set speed
0 -8 0 10 -262144 -1 -1 10 256;
#N canvas 241 109 622 517 guts 0;
#X obj 57 227 change;
#X obj 110 227 change;
#X obj 57 412 list prepend label;
#X obj 57 433 list trim;
#X obj 57 457 s;
#X obj 57 370 f;
#X msg 229 438 symbol canv-\$1;
#X obj 38 124 lorenz;
#X obj 38 173 siginfo;
#X obj 249 232 b;
#X obj 38 95 t b b;
#X obj 38 36 r metro-onoff;
#X obj 139 36 r metro-speed;
#X obj 38 64 metro 100;
#X obj 413 332 random;
#X obj 328 274 spigot;
#X obj 294 36 r order;
#X obj 227 294 fd_spigot3;
#X obj 57 290 t b f b;
#X msg 57 248 0;
#X msg 110 248 1;
#X msg 163 248 2;
#X obj 294 186 t f f;
#X obj 227 330 f;
#X obj 252 330 + 1;
#X obj 427 138 r reload;
#X obj 277 330 mod;
#X obj 419 37 loadbang;
#X obj 326 220 == 2;
#X obj 227 351 t f;
#X msg 419 161 read bataille.txt \, bang;
#X obj 419 259 text size -s text t, f 9;
#X obj 57 391 text get -s text t;
#X obj 419 186 text;
#X obj 419 235 t b p;
#X obj 419 294 t f f;
#X obj 419 213 t p p, f 10;
#X obj 486 372 t p;
#X msg 419 63 bang \; order-set 2 \; metro-onoff-set 0 \; metro-speed-set
100 \;;
#X obj 163 227 change;
#X obj 38 148 list prepend 0;
#X obj 57 202 unpack f f f;
#X connect 0 0 19 0;
#X connect 1 0 20 0;
#X connect 2 0 3 0;
#X connect 3 0 4 0;
#X connect 5 0 32 0;
#X connect 6 0 4 1;
#X connect 7 0 40 0;
#X connect 8 1 41 0;
#X connect 8 2 9 0;
#X connect 9 0 17 1;
#X connect 10 0 7 0;
#X connect 10 1 15 0;
#X connect 11 0 13 0;
#X connect 12 0 13 1;
#X connect 13 0 10 0;
#X connect 14 0 29 0;
#X connect 15 0 14 0;
#X connect 16 0 22 0;
#X connect 17 0 23 0;
#X connect 18 0 5 0;
#X connect 18 1 6 0;
#X connect 18 2 17 0;
#X connect 19 0 18 0;
#X connect 20 0 18 0;
#X connect 21 0 18 0;
#X connect 22 0 17 3;
#X connect 22 1 28 0;
#X connect 23 0 24 0;
#X connect 23 0 29 0;
#X connect 24 0 26 0;
#X connect 25 0 30 0;
#X connect 26 0 23 1;
#X connect 27 0 38 0;
#X connect 28 0 15 1;
#X connect 29 0 5 1;
#X connect 30 0 33 0;
#X connect 31 0 35 0;
#X connect 32 0 2 0;
#X connect 33 0 36 0;
#X connect 34 0 31 0;
#X connect 34 1 31 1;
#X connect 35 0 26 1;
#X connect 35 1 14 1;
#X connect 36 0 34 0;
#X connect 36 1 37 0;
#X connect 37 0 32 3;
#X connect 38 0 30 0;
#X connect 39 0 21 0;
#X connect 40 0 8 0;
#X connect 41 0 0 0;
#X connect 41 1 1 0;
#X connect 41 2 39 0;
#X restore 281 210 pd guts;
#X coords 0 1 100 -1 324 194 1 10 10;
#X restore 10 10 graph;
#X coords 0 -1 1 1 324 194 2 10 10;
