#N canvas 500 50 530 480 12;
#X declare -path fd_lib;
#X obj 4 4 cnv 15 522 30 empty empty "fd_untext" 20 15 0 15 -228856
-1 0;
#X obj 4 254 cnv 15 522 20 empty empty arguments: 10 10 0 14 -228856
-1 0;
#X obj 4 314 cnv 15 522 20 empty empty inlets: 10 10 0 14 -228856 -1
0;
#X obj 4 374 cnv 15 522 20 empty empty outlets: 10 10 0 14 -228856
-1 0;
#X obj 4 453 cnv 15 522 20 empty empty version 10 10 0 14 -228856 -1
0;
#X obj 380 8 declare -path fd_lib;
#N canvas 0 22 450 300 meta 0;
#X text 10 10 fd_lib - metadata file - Sun Sep 29 16:38:28 EDT 2019
;
#X text 10 25 patch_name : fd_untext;
#X text 10 40 inlet : 0;
#X text 10 55 outlet : 0;
#X text 10 70 inlet~ : 0;
#X text 10 85 outlet~ : 0;
#X text 10 100 arguments : 0;
#X text 10 115 classes used : 24;
#X text 10 130 total objects: 45;
#X text 10 145 connections : 52;
#X text 10 160 dependencies : 0 [0];
#X text 10 175 externals : 4 [0siginfo:lorenz:hradio:fd_spigot3];
#X text 10 190 internals : 20/233 [0t:cnv:r:text:list:change:f:unpack:tgl:spigot:s:random:nbx:mod:metro:loadbang:bng:b:==:+]
;
#X restore 438 423 pd meta;
#X text 440 452 fd_lib v0.1;
#X text 60 284 0 arguments;
#X text 60 340 1 inlets;
#X text 60 410 1 outlets;
#X obj 99 55 ./fd_untext;
#X text 9 34 Reading a textfile in a chaotic way;
