#N canvas 48 65 453 293 12;
#X msg 122 213 data-\$1;
#X obj 122 241 fd_visera 1;
#X obj 12 12 cnv 15 300 15 \$0-background \$0-background-set dataVis
2 7 0 10 -233017 -1 0;
#X obj 260 14 bng 10 250 50 0 \$0-all \$0-all-set all 14 5 0 14 -262144
-1 -1;
#N canvas 601 189 523 468 arrange 0;
#X obj 91 256 +;
#X obj 49 279 pack;
#X obj 47 229 t f a;
#X obj 170 259 +;
#X obj 133 284 pack;
#X obj 133 234 t f a;
#X obj 49 304 list;
#X msg 49 329 \$1 \$3 \$2 \$4;
#X obj 49 354 list prepend;
#X obj 133 159 * 40;
#X obj 133 184 + 10;
#X msg 49 384 \; pd-data-\$1 setbounds \$2 \$3 \$4 \$5 \, vis 1;
#X msg 250 130 \; pd-data-\$1 vis 0;
#X obj 47 204 pack f 250;
#X obj 47 176 - 50;
#X obj 47 151 * 70;
#X obj 133 209 pack f 250;
#X obj 47 123 t f f f f;
#X obj 47 29 inlet;
#X obj 47 54 sel 1 0;
#X text 177 29 displays [pd-data-\$1] from [fd_env];
#X msg 47 98 8 \, 7 \, 6 \, 5 \, 4 \, 3 \, 2 \, 1;
#X msg 250 102 8 \, 7 \, 6 \, 5 \, 4 \, 3 \, 2 \, 1;
#X connect 0 0 1 1;
#X connect 1 0 6 0;
#X connect 2 0 1 0;
#X connect 2 1 0 0;
#X connect 3 0 4 1;
#X connect 4 0 6 1;
#X connect 5 0 4 0;
#X connect 5 1 3 0;
#X connect 6 0 7 0;
#X connect 7 0 8 0;
#X connect 8 0 11 0;
#X connect 9 0 10 0;
#X connect 10 0 16 0;
#X connect 13 0 2 0;
#X connect 14 0 13 0;
#X connect 15 0 14 0;
#X connect 16 0 5 0;
#X connect 17 0 15 0;
#X connect 17 1 9 0;
#X connect 17 2 8 1;
#X connect 17 3 12 0;
#X connect 18 0 19 0;
#X connect 19 0 21 0;
#X connect 19 1 22 0;
#X connect 21 0 17 0;
#X connect 22 0 12 0;
#X restore 322 153 pd arrange;
#X obj 72 14 sradio 10 1 7 \$0-viser \$0-viser-set empty 14 5 0 14
-262144 -1 -1;
#X obj 54 112 r \$0-viser;
#X obj 54 137 fd_listout;
#X obj 54 162 t f b;
#X obj 105 163 counter -m 8;
#X obj 54 187 *;
#X obj 54 212 sel;
#X obj 88 212 + 1;
#X obj 165 129 s \$0-viser-set;
#X obj 226 245 fd_visera;
#X msg 226 216 data-\$1;
#X obj 152 14 bng 10 250 50 0 \$0-show \$0-show-set show 14 5 0 14
-262144 -1 -1;
#X obj 207 14 bng 10 250 50 0 \$0-hide \$0-hide-set hide 14 5 0 14
-262144 -1 -1;
#X obj 165 98 r \$0-show;
#X obj 225 161 r \$0-hide;
#X msg 225 186 0 \, 1 \, 2 \, 3 \, 4 \, 5 \, 6 \, 7;
#X obj 321 105 r \$0-all;
#X obj 321 130 tgl 15 0 empty empty empty 17 7 0 10 -262144 -1 -1 0
1;
#X connect 0 0 1 0;
#X connect 6 0 7 0;
#X connect 7 0 8 0;
#X connect 8 0 10 0;
#X connect 8 1 9 0;
#X connect 9 0 10 1;
#X connect 10 0 11 0;
#X connect 11 1 12 0;
#X connect 12 0 0 0;
#X connect 15 0 14 0;
#X connect 18 0 13 0;
#X connect 19 0 20 0;
#X connect 20 0 15 0;
#X connect 21 0 22 0;
#X connect 22 0 4 0;
#X coords 0 -1 1 1 304 19 2 10 10;
