#N canvas 0 23 749 420 12;
#X obj 176 23 inlet~;
#X obj 356 216 env~ 4096;
#X obj 356 238 - 100;
#X obj 483 362 outlet;
#X obj 105 105 vu 10 80 \$0-vu-set empty 20 -8 0 4 -66577 -262144 1
0;
#X obj 305 19 inlet~;
#X obj 157 384 outlet~;
#X obj 119 116 vsl 8 68 0.01 6 1 0 \$0-vol \$0-vol-set empty 0 -9 0
10 -262144 -1 -1 0 1;
#X obj 157 197 *~;
#X obj 357 178 line~;
#X msg 526 160 set \$1;
#X msg 519 207 0.977951;
#X obj 119 102 tgl 9 0 \$0-mute \$0-mute-set empty 17 7 0 10 -262144
-1 -1 1 1;
#X msg 473 207 0;
#X obj 473 160 sel 1;
#X msg 594 160 set 0;
#X obj 286 381 outlet~;
#X obj 287 197 *~;
#X obj 157 358 hip~ 3;
#X obj 286 358 hip~ 3;
#X obj 356 259 t f f;
#X obj 356 281 s \$0-vu-set;
#X obj 473 254 s \$0-vol-set;
#X obj 473 113 r \$0-mute;
#X obj 594 254 s \$0-mute-set;
#X obj 357 26 r \$0-vol;
#X obj 544 66 sel;
#X obj 357 47 t f f;
#X obj 357 155 pack f 10;
#X obj 612 315 fd_switch;
#X obj 672 342 switch~;
#X obj 562 113 t f b b;
#X msg 674 132 1;
#X msg 544 287 0;
#X obj 157 334 *~;
#X obj 287 334 *~;
#X connect 0 0 8 1;
#X connect 1 0 2 0;
#X connect 2 0 20 0;
#X connect 5 0 17 1;
#X connect 8 0 1 0;
#X connect 8 0 34 0;
#X connect 9 0 8 0;
#X connect 9 0 17 0;
#X connect 10 0 11 0;
#X connect 11 0 22 0;
#X connect 13 0 22 0;
#X connect 14 0 13 0;
#X connect 14 1 11 0;
#X connect 15 0 24 0;
#X connect 17 0 1 0;
#X connect 17 0 35 0;
#X connect 18 0 6 0;
#X connect 19 0 16 0;
#X connect 20 0 21 0;
#X connect 20 1 3 0;
#X connect 23 0 14 0;
#X connect 25 0 27 0;
#X connect 26 0 33 0;
#X connect 26 1 31 0;
#X connect 27 0 28 0;
#X connect 27 1 26 0;
#X connect 28 0 9 0;
#X connect 29 0 34 1;
#X connect 29 0 35 1;
#X connect 29 1 30 0;
#X connect 31 0 10 0;
#X connect 31 1 15 0;
#X connect 31 2 32 0;
#X connect 32 0 29 0;
#X connect 33 0 29 0;
#X connect 34 0 18 0;
#X connect 35 0 19 0;
#X coords 0 -1 1 1 30 90 2 100 100;
