#N canvas 500 50 530 480 12;
#X declare -path fd_lib;
#X obj 4 4 cnv 15 522 30 empty empty "fd_key" 20 15 0 15 -228856 -1
0;
#X obj 4 254 cnv 15 522 20 empty empty arguments: 10 10 0 14 -228856
-1 0;
#X obj 4 314 cnv 15 522 20 empty empty inlets: 10 10 0 14 -228856 -1
0;
#X obj 4 374 cnv 15 522 20 empty empty outlets: 10 10 0 14 -228856
-1 0;
#X obj 4 453 cnv 15 522 20 empty empty version 10 10 0 14 -228856 -1
0;
#X obj 380 8 declare -path fd_lib;
#N canvas 0 22 450 300 meta 0;
#X text 10 10 fd_lib - metadata file - Fri Sep 13 18:19:41 EDT 2019
;
#X text 10 25 patch_name : fd_key;
#X text 10 40 inlet : 0;
#X text 10 70 inlet~ : 0;
#X text 10 85 outlet~ : 0;
#X text 10 100 arguments : 0;
#X text 10 115 classes used : 13;
#X text 10 130 total objects: 58;
#X text 10 145 connections : 24;
#X text 10 160 dependencies : 0 [0];
#X text 10 175 externals : 1 [0_route];
#X text 10 190 internals : 12/233 [0bng:moses:sel:outlet:cnv:clone:tgl:t:spigot:s:r:key]
;
#X text 10 55 outlet : 1;
#X restore 438 423 pd meta;
#X text 440 452 fd_lib v0.1;
#X text 60 284 0 arguments;
#X text 60 340 0 inlets;
#X obj 77 114 fd_key;
#X text 23 45 A bang keyboard. Click on 'allow' to enable keys. Keys
are routed to equivalent 'key'-bng messages \, and they send a bang
everytime they get pressed.;
#X obj 77 221 print;
#N canvas 0 22 450 300 messages 0;
#X obj 54 101 bng 15 250 50 0 empty empty empty 17 7 0 10 -262144 -1
-1;
#X obj 54 75 r bar-bng;
#X obj 137 101 bng 15 250 50 0 empty empty empty 17 7 0 10 -262144
-1 -1;
#X obj 137 75 r ~-bng;
#X obj 207 101 bng 15 250 50 0 empty empty empty 17 7 0 10 -262144
-1 -1;
#X obj 207 75 r a-bng;
#X obj 277 101 bng 15 250 50 0 empty empty empty 17 7 0 10 -262144
-1 -1;
#X obj 277 75 r 1-bng;
#X text 53 52 For example \, here's how you get messages:;
#X msg 87 198 \; allow-set 1 \;;
#X msg 206 197 \; allow-set 0 \;;
#X text 42 152 also \, you can toggle allow keys with a messge:;
#X connect 1 0 0 0;
#X connect 3 0 2 0;
#X connect 5 0 4 0;
#X connect 7 0 6 0;
#X restore 417 220 pd messages;
#X text 125 222 <-- non-routed keys (e.g. capslock on);
#X text 60 410 1: float: non-routed keys;
#X connect 10 0 12 0;
