#N canvas 436 116 431 333 12;
#X obj 52 192 until;
#X obj 52 231 f;
#X obj 87 231 + 1;
#X msg 105 192 0;
#X obj 52 26 inlet;
#X obj 52 278 outlet;
#X obj 52 63 i \$1;
#X obj 52 91 sel;
#X obj 52 126 i 100;
#X obj 52 157 t f b;
#X text 183 271 see fd_iterate-help.pd;
#X connect 0 0 1 0;
#X connect 1 0 2 0;
#X connect 1 0 5 0;
#X connect 2 0 1 1;
#X connect 3 0 1 1;
#X connect 4 0 6 0;
#X connect 6 0 7 0;
#X connect 7 0 8 0;
#X connect 7 1 9 0;
#X connect 8 0 9 0;
#X connect 9 0 0 0;
#X connect 9 1 3 0;
