#N canvas 441 22 794 461 10;
#X declare -stdlib Gem;
#X obj 479 71 cnv 15 300 350 empty empty empty 20 12 0 14 -228992 -66577
0;
#X obj 25 71 cnv 15 450 100 empty empty empty 20 12 0 14 -233017 -66577
0;
#X obj 25 222 cnv 15 450 200 empty empty empty 20 12 0 14 -233017 -66577
0;
#X text 27 227 Inlets:;
#X obj 26 182 cnv 15 450 30 empty empty empty 20 12 0 14 -195568 -66577
0;
#X text 35 181 Arguments:;
#X text 45 239 Inlet 1: gemlist;
#X text 27 375 Outlets:;
#X text 39 388 Outlet 1: gemlist;
#X text 481 52 Example:;
#X obj 489 132 cnv 15 250 200 empty empty empty 20 12 0 14 -24198 -66577
0;
#X obj 493 84 gemhead;
#X obj 493 109 pix_video;
#X obj 512 151 tgl 15 0 empty empty empty 17 7 0 10 -262144 -1 -1 1
1;
#X floatatom 581 211 5 0 0 0 - - -, f 5;
#X msg 581 230 smooth \$1;
#X msg 519 188 16384;
#X obj 493 338 pix_texture;
#X obj 493 366 square 3;
#X floatatom 591 252 5 0 0 0 - - -, f 5;
#X msg 591 271 coef \$1;
#X msg 518 170 8192;
#X floatatom 569 127 5 0 0 0 - - -, f 5;
#X floatatom 603 127 5 0 0 0 - - -, f 5;
#X obj 603 147 t b f;
#X obj 570 147 pack;
#X msg 570 186 crop \$1 \$2;
#N canvas 0 22 410 198 dependencies 0;
#X text 20 82 Help>Find Externals> SEARCH:Gem >> DOWNLOAD;
#X obj 150 23 declare -stdlib Gem;
#X text 19 122 add the object [declare -stdlib Gem] to the parent patch
;
#X text 21 23 Needs Gem;
#X restore 491 431 pd dependencies;
#X msg 615 76 \; pd dsp 1;
#X msg 520 206 32768;
#X msg 507 258 size \$1;
#X text 51 20 Synopsis: [fd_vidfft];
#X text 25 75 Description: Renders an fft/ifft image of incoming pixes
;
#X text 34 92 The [fd_vidfft] abstraction calculates the fft of the
incoming pixes. The size of the fft blocksize can be changed with a
<size 2^n> message. The crop position can be adjusted with <crop x
y>. Different windows are supported \, you can add your own \, see
pd-windowing. NOTE: DSP MUST BE TURNED ON OTHERWISE NO FFT IS CALCULATED!
;
#X text 44 267 Inlet 1: message: size N. N must be 2^n;
#X text 41 333 Inlet 2: message: window (hann float| gauss float| triang
float| expo float| cosine | sine |;
#X obj 678 361 cnv 15 100 60 empty empty empty 20 12 0 14 -195568 -66577
0;
#N canvas 0 22 450 300 gemwin 0;
#X obj 132 136 gemwin;
#X obj 67 89 outlet;
#X obj 67 10 inlet;
#X obj 67 41 route create;
#X msg 67 70 set destroy;
#X msg 142 68 set create;
#X msg 198 112 destroy;
#X msg 132 112 create \, 1;
#X connect 2 0 3 0;
#X connect 3 0 4 0;
#X connect 3 0 7 0;
#X connect 3 1 5 0;
#X connect 3 1 6 0;
#X connect 4 0 1 0;
#X connect 5 0 1 0;
#X connect 6 0 0 0;
#X connect 7 0 0 0;
#X restore 683 400 pd gemwin;
#X msg 683 381 create;
#X text 679 365 Create window:;
#X text 604 51 TURN DSP ON!;
#X text 465 20 GEM abstraction part of fd_lib;
#X text 638 430 github.com/fdch/fd_lib;
#X obj 493 295 fd_vidfft 16384;
#X text 105 193 size N must be 2^n;
#X text 45 252 Inlet 1: float: 1|0 display fft or ifft (default 1)
;
#X text 44 280 Inlet 2: message: smooth float (-1..1) (default -1)
;
#X text 44 292 Inlet 2: message: coef float (default 2);
#X text 40 307 Inlet 2: message: crop float float (x \, y) pairs for
positioning (default 128 128 \, or sqrt(newblocksize));
#X msg 577 167 128 128;
#X obj 651 313 list prepend window;
#X obj 591 313 list trim;
#X msg 651 146 hann \$1;
#X msg 662 181 gauss \$1;
#X msg 674 252 expo \$1;
#X floatatom 674 235 5 0 0 0 - - -, f 5;
#X floatatom 670 200 5 0 0 0 - - -, f 5;
#X floatatom 662 165 5 0 0 0 - - -, f 5;
#X floatatom 651 130 5 0 0 0 - - -, f 5;
#X msg 670 216 triangle \$1;
#X msg 677 273 cosinesum;
#X msg 680 294 sinesum;
#X text 617 209 -1..1;
#X text 648 111 shift drag these:;
#X msg 526 225 65536;
#X connect 11 0 12 0;
#X connect 12 0 43 0;
#X connect 13 0 43 0;
#X connect 14 0 15 0;
#X connect 15 0 43 1;
#X connect 16 0 30 0;
#X connect 17 0 18 0;
#X connect 19 0 20 0;
#X connect 20 0 43 1;
#X connect 21 0 30 0;
#X connect 22 0 25 0;
#X connect 23 0 24 0;
#X connect 24 0 25 0;
#X connect 24 1 25 1;
#X connect 25 0 26 0;
#X connect 26 0 43 1;
#X connect 29 0 30 0;
#X connect 30 0 43 0;
#X connect 37 0 38 0;
#X connect 38 0 37 0;
#X connect 43 0 17 0;
#X connect 49 0 26 0;
#X connect 50 0 51 0;
#X connect 51 0 43 1;
#X connect 52 0 50 0;
#X connect 53 0 50 0;
#X connect 54 0 50 0;
#X connect 55 0 54 0;
#X connect 56 0 59 0;
#X connect 57 0 53 0;
#X connect 58 0 52 0;
#X connect 59 0 50 0;
#X connect 60 0 50 0;
#X connect 61 0 50 0;
#X connect 64 0 30 0;
