#N canvas 335 126 291 369 12;
#X obj 23 323 outlet;
#X obj 23 22 inlet;
#X obj 89 22 inlet;
#X obj 60 88 f \$1;
#N canvas 0 22 507 327 \$0-scales 0;
#X obj 39 43 inlet;
#X obj 261 110 array define -k \$0-maj 7;
#A 0 0 2 4 5 7 9 11;
#X obj 261 133 array define -k \$0-min 7;
#A 0 0 2 3 5 7 9 11;
#X obj 261 156 array define -k \$0-aug 6;
#A 0 2 4 6 8 10 12;
#X obj 261 180 array define -k \$0-dim 9;
#A 0 1 2 4 5 7 8 10 11 12;
#X obj 261 85 array define -k \$0-udf 7;
#A 0 0 2 0 2 2 3;
#X obj 65 202 array set \$0-udf;
#X obj 92 169 array size \$0-udf;
#X obj 92 118 list length;
#X obj 92 143 change;
#X obj 39 245 outlet;
#X obj 39 92 t b a a;
#X connect 0 0 11 0;
#X connect 8 0 9 0;
#X connect 9 0 7 0;
#X connect 11 0 10 0;
#X connect 11 1 6 0;
#X connect 11 2 8 0;
#X restore 153 63 pd \$0-scales;
#X obj 153 196 div 7;
#X obj 153 228 int;
#X obj 23 298 +;
#X obj 153 278 * 12;
#X obj 153 22 inlet;
#N canvas 0 22 445 374 \$0-choose 0;
#X obj 43 59 change;
#X obj 43 32 inlet;
#X obj 43 310 outlet;
#X obj 43 87 sel 0 1 2 3 -1;
#X obj 214 208 print fd_scales;
#X msg 214 185 no scale at \$1;
#X obj 43 238 t a b a, f 15;
#X obj 101 269 array size, f 5;
#X obj 101 310 outlet;
#X obj 43 119 symbol \$0-maj;
#X obj 53 139 symbol \$0-min;
#X obj 63 159 symbol \$0-aug;
#X obj 73 179 symbol \$0-dim;
#X obj 83 199 symbol \$0-udf;
#X obj 264 33 inlet;
#X connect 0 0 3 0;
#X connect 1 0 0 0;
#X connect 3 0 9 0;
#X connect 3 1 10 0;
#X connect 3 2 11 0;
#X connect 3 3 12 0;
#X connect 3 4 13 0;
#X connect 3 5 5 0;
#X connect 5 0 4 0;
#X connect 6 0 2 0;
#X connect 6 1 7 0;
#X connect 6 2 7 1;
#X connect 7 0 8 0;
#X connect 9 0 6 0;
#X connect 10 0 6 0;
#X connect 11 0 6 0;
#X connect 12 0 6 0;
#X connect 13 0 6 0;
#X connect 14 0 13 0;
#X restore 60 113 pd \$0-choose;
#X obj 153 151 t f f;
#X obj 23 195 mod 7;
#X obj 23 63 t f b;
#X obj 23 152 t f f;
#X obj 23 236 array get \$0-maj 0 1, f 12;
#X connect 1 0 13 0;
#X connect 2 0 3 1;
#X connect 3 0 10 0;
#X connect 4 0 10 1;
#X connect 5 0 6 0;
#X connect 6 0 8 0;
#X connect 7 0 0 0;
#X connect 8 0 7 1;
#X connect 9 0 4 0;
#X connect 10 0 15 2;
#X connect 10 1 11 0;
#X connect 11 0 12 1;
#X connect 11 1 5 1;
#X connect 12 0 15 0;
#X connect 13 0 14 0;
#X connect 13 1 3 0;
#X connect 14 0 12 0;
#X connect 14 1 5 0;
#X connect 15 0 7 0;
