#N canvas 0 22 450 350 12;
#X text 176 189 see fd_data.pd;
#X text 151 20 "fd_dataHann";
#X obj 151 103 fd_dataHann;
#X text 41 57 Hann window into a data structure array;
#X obj 286 15 declare -path fd_lib;
#X text 350 320 fd_lib v0.1;
