#N canvas 527 52 550 497 12;
#X text 30 61 The [tracks] object is designed to find the best continuity
between indexed information. Usually tracking objects output data in
order of appearance and need further logic to achieve continuity. Best
continuity is defined as the smallest euclidean distance between two
points in contiguous frames of time.;
#X obj 128 194 r tracks;
#N canvas 522 54 572 489 output 0;
#X text 32 100 outlet 1: outputs incoming list with new indexes;
#X text 32 120 outlet 2: outputs the indexes with best continuity \,
for example:;
#X text 66 152 if index 1 in frame 1 is closest to index 3 in frame
2:;
#X text 101 168 1 3;
#X text 95 209 -1 2;
#X text 67 182 if index 2 has no precedent ideal continuity a new track
is started and noted with -1:;
#X text 67 223 if index 4 has no subsequent ideal continuity a current
track is ended and noted with -2:;
#X text 95 250 -2 4;
#X text 31 283 order of outlets: 1 \, 2 \, 3;
#X text 31 263 outlet 3: outputs a 1 after spitting;
#X text 202 65 Outlets:;
#X restore 386 270 pd output;
#X text 222 25 "Tracks";
#X text 375 194 See here:;
#X text 32 427 This object is used in the MANO and Silent Drum Instruments
Jaime Oliver \, joliverl \, 2010;
#X text 32 459 jaime.oliver2@gmail.com - www.jaimeoliver.pe;
#N canvas 524 50 474 276 init 0;
#X obj 39 58 loadbang;
#X msg 40 87 \; tracks max_distance 40 \, weights 1 1 1 \, dimen 3
;
#X obj 37 168 s tracks;
#X msg 37 143 0 1 2 3 4 5 6 7 8 9 10 11 12 13 14 15 16 222;
#X connect 0 0 1 0;
#X connect 3 0 2 0;
#X restore 386 292 pd init;
#N canvas 354 22 958 690 messages 0;
#X text 347 379 The "max_distance" message tells the [tracks] object
what is the limit for a good continuity. If [tracks] finds that the
closest distance between to points is bigger than "max_distance" it
will start a new track.;
#X text 367 468 The "clear" message \, clears all previous information
from memory and terminates all current tracks (with a -2);
#X text 389 583 The spit (alias:bang) message is sent after all information
has been inputted. It asks the track object to output the corresponding
;
#X msg 292 481 clear;
#X msg 321 591 spit;
#X msg 295 520 print;
#X obj 94 664 s tracks;
#X msg 331 616 bang;
#X msg 188 381 max_distance 1.3;
#X text 308 558 Output indexed data:;
#X text 294 147 The "weights" message allows you to create weighted
distances between variables. For example "weight 1 1 1" gives equal
weight to 3 dimensions.;
#X msg 25 42 debug \$1;
#X obj 25 22 tgl 15 0 empty empty empty 17 7 0 10 -262144 -1 -1 0 1
;
#X text 113 38 Debugging on / off prints more info to console;
#X msg 134 162 weights 1 300 10 1;
#X text 174 79 The "dimen" message tells the [tracks] object how many
dimensions will be used to calculate the distance. Max number of dimensios
is 16 \, the current maximum number of elements.;
#X msg 95 79 dimen 4;
#X text 292 201 Another example: "weight 1 300 1 1 \, sets dimensions
to 4 \, gives more weight to dimension 2 and equal weights to the remaining.
See output with 'debug 1';
#X text 361 523 Prints information to console. More information if
debug = 1 \;;
#X msg 154 291 choose_dimen 2 2 0;
#X text 331 277 The "choose_dimen" message tells the [tracks] object
which dimensions will be used to calculate the distance \, i.e. \,
the first element = d0 \, the second element = d1... the 16th = d15.
Dimensions start internally at 0 \, so first dimension is 0 \, third
is 2 \, etc. This is useful when dimen < elements \;;
#X connect 3 0 6 0;
#X connect 4 0 6 0;
#X connect 5 0 6 0;
#X connect 7 0 6 0;
#X connect 8 0 6 0;
#X connect 11 0 6 0;
#X connect 12 0 11 0;
#X connect 14 0 6 0;
#X connect 16 0 6 0;
#X connect 19 0 6 0;
#X restore 386 247 pd messages;
#X obj 128 352 print OUT-1;
#X obj 154 325 print OUT-2;
#X obj 181 298 print OUT-3;
#N canvas 497 22 657 721 example 0;
#X msg 62 389 \; tracks 0 94 100 \, 1 194 28 \, bang;
#X msg 67 432 \; tracks 0 25 75 \, 1 86 101 \, 2 190 23 \, bang;
#X msg 72 475 \; tracks 0 24 76 \, 1 84 100 \, 2 190 23 \, bang;
#X msg 79 518 \; tracks 0 84 100 \, 1 24 76 \, 2 190 23 \, bang;
#X msg 85 561 \; tracks 0 25 75 \, bang;
#N canvas 0 22 333 527 random 0;
#X obj 52 315 list;
#X obj 69 269 list append;
#X obj 69 291 t a a;
#X obj 51 337 list prepend;
#X obj 70 201 until;
#X obj 52 156 t b b b f;
#X obj 69 223 random 4000;
#X obj 69 245 / 1000;
#X obj 53 109 until;
#X obj 53 132 f;
#X obj 88 132 + 1;
#X msg 100 108 0;
#X obj 53 89 t f b;
#X obj 70 181 f;
#X obj 51 60 unpack;
#X obj 51 33 inlet;
#X text 50 399 a list of random floats;
#X obj 50 367 s tracks;
#X connect 0 0 3 0;
#X connect 1 0 2 0;
#X connect 2 0 0 1;
#X connect 2 1 1 1;
#X connect 3 0 17 0;
#X connect 4 0 6 0;
#X connect 5 0 0 0;
#X connect 5 1 13 0;
#X connect 5 2 1 1;
#X connect 5 3 3 1;
#X connect 6 0 7 0;
#X connect 7 0 1 0;
#X connect 8 0 9 0;
#X connect 9 0 10 0;
#X connect 9 0 5 0;
#X connect 10 0 9 1;
#X connect 11 0 9 1;
#X connect 12 0 8 0;
#X connect 12 1 11 0;
#X connect 13 0 4 0;
#X connect 14 0 12 0;
#X connect 14 1 13 1;
#X connect 15 0 14 0;
#X restore 440 371 pd random;
#X msg 457 344 10 3;
#X text 99 95 For example: in two consecutive frames of video an analysis
object outputs:;
#X text 119 129 frame 1: 0 1 1 and 1 5 5;
#X text 119 149 frame 2: 0 5 4 and 1 6 8 and 2 1 2;
#X text 99 164 Tracks will find the closest distance between both frames:
;
#X text 120 182 0->2;
#X text 120 202 1->0;
#X text 120 222 and a new track for index 1: -1 1;
#X text 472 255 Or this:;
#X text 40 322 Bang these to test \, see console for prints:;
#X text 62 58 Lists (or messages prepended with "input") have the form
(index \, d1 \, d2 \, d3) where 'd' are dimensions.;
#X text 234 27 Input list:;
#X msg 56 346 \; tracks 0 23 78 \, 1 89 104 \, 2 190 23 \, bang;
#X msg 519 544 \; tracks clear;
#X text 500 512 Or start over:;
#X msg 440 293 2 3;
#X msg 523 355 \; tracks print;
#X msg 523 313 \; tracks bang \;;
#X msg 39 283 \; tracks dimen 2 \, max_distance 40;
#X msg 90 604 \; tracks 0 76 109 \, 1 14 74 \, 2 182 34 \, 3 210 198
\, bang;
#X msg 96 647 \; tracks 0 212 192 \, print \, bang;
#X text 335 665 <-- Note: 'print' before 'bang';
#X text 39 257 Click this first:;
#X obj 483 429 tgl 15 0 empty empty empty 17 7 0 10 -262144 -1 -1 0
1;
#X msg 483 449 \; tracks debug \$1;
#X msg 448 319 5 80;
#X connect 6 0 5 0;
#X connect 21 0 5 0;
#X connect 29 0 30 0;
#X connect 31 0 5 0;
#X restore 386 223 pd example;
#X obj 128 247 tracks2;
#X connect 1 0 13 0;
#X connect 13 0 9 0;
#X connect 13 1 10 0;
#X connect 13 2 11 0;
