#N canvas 436 75 469 533 10;
#X obj 27 195 grieta, f 17;
#X floatatom 25 246 5 0 0 0 - - -, f 5;
#X obj 59 334 hsl 128 15 0 127 0 0 empty empty empty -2 -8 0 10 -262144
-1 -1 1900 1;
#X floatatom 250 247 10 0 0 0 - - -, f 10;
#X floatatom 65 243 5 0 0 0 - - -, f 5;
#X floatatom 103 243 5 0 0 0 - - -, f 5;
#X obj 60 351 hsl 128 15 0 127 0 0 empty empty empty -2 -8 0 10 -262144
-1 -1 12700 1;
#X obj 32 326 vsl 15 128 0 127 0 0 empty empty empty 0 -9 0 10 -262144
-1 -1 10800 1;
#X msg 327 128 totalsize 1000;
#X obj 103 262 / 1000;
#X obj 103 284 * 127;
#X obj 58 270 / 1000;
#X obj 58 292 * 127;
#X obj 15 272 / 1000;
#X obj 15 294 * 127;
#X obj 245 36 hsl 128 15 0 127 0 0 empty fader-1 empty -2 -8 0 10 -262144
-1 -1 0 1;
#X obj 242 56 / 127;
#X obj 242 78 * 1000;
#X obj 243 11 hsl 128 15 0 127 0 0 empty fader-0 empty -2 -8 0 10 -262144
-1 -1 1900 1;
#X obj 244 106 / 127;
#X obj 244 128 * 1000;
#X msg 327 150 samplerate 48000;
#X obj 351 79 maudio-assign;
#X obj 136 117 t b f;
#X obj 27 143 t b f;
#X obj 27 116 f;
#X floatatom 27 18 5 0 0 0 - - -, f 5;
#X obj 27 87 / 1000;
#X obj 27 37 min 1000;
#X obj 27 59 max;
#X floatatom 137 18 5 0 0 0 - - -, f 5;
#X obj 137 87 / 1000;
#X obj 137 37 min 1000;
#X obj 137 59 max;
#X floatatom 77 96 5 0 0 0 - - -, f 5;
#X floatatom 194 96 5 0 0 0 - - -, f 5;
#X text 64 385 outlet1:size;
#X text 65 400 outlet2:min;
#X text 66 429 outlet4:speed;
#X text 237 387 inlet1: min;
#X text 237 405 inlet1: max;
#X text 65 414 outlet3:max (readjusted);
#X connect 0 0 1 0;
#X connect 0 1 4 0;
#X connect 0 2 5 0;
#X connect 0 3 3 0;
#X connect 1 0 13 0;
#X connect 4 0 11 0;
#X connect 5 0 9 0;
#X connect 8 0 0 0;
#X connect 9 0 10 0;
#X connect 10 0 6 0;
#X connect 11 0 12 0;
#X connect 12 0 2 0;
#X connect 13 0 14 0;
#X connect 14 0 7 0;
#X connect 15 0 16 0;
#X connect 16 0 17 0;
#X connect 17 0 35 0;
#X connect 18 0 19 0;
#X connect 19 0 20 0;
#X connect 20 0 34 0;
#X connect 21 0 0 0;
#X connect 23 0 25 0;
#X connect 23 1 0 1;
#X connect 24 0 0 0;
#X connect 24 1 0 0;
#X connect 25 0 24 0;
#X connect 26 0 28 0;
#X connect 27 0 25 0;
#X connect 28 0 29 0;
#X connect 29 0 27 0;
#X connect 30 0 32 0;
#X connect 31 0 23 0;
#X connect 32 0 33 0;
#X connect 33 0 31 0;
#X connect 34 0 25 0;
#X connect 35 0 23 0;
