#N canvas 500 50 530 480 12;
#X declare -path fd_lib;
#X obj 4 4 cnv 15 522 30 empty empty "fd_read-resize" 20 15 0 15 -228856
-1 0;
#X obj 4 254 cnv 15 522 20 empty empty arguments: 10 10 0 14 -228856
-1 0;
#X obj 4 314 cnv 15 522 20 empty empty inlets: 10 10 0 14 -228856 -1
0;
#X obj 4 374 cnv 15 522 20 empty empty outlets: 10 10 0 14 -228856
-1 0;
#X obj 4 453 cnv 15 522 20 empty empty version 10 10 0 14 -228856 -1
0;
#X obj 380 8 declare -path fd_lib;
#N canvas 0 22 450 300 meta 0;
#X text 10 10 fd_lib - metadata file - Sat Sep 28 23:07:56 EDT 2019
;
#X text 10 25 patch_name : fd_read-resize;
#X text 10 40 inlet : 1;
#X text 10 55 outlet : 1;
#X text 10 70 inlet~ : 0;
#X text 10 85 outlet~ : 0;
#X text 10 100 arguments : 0;
#X text 10 115 classes used : 7;
#X text 10 130 total objects: 14;
#X text 10 145 connections : 22;
#X text 10 160 dependencies : 0 [0];
#X text 10 175 externals : 1 [0ggee/getdir];
#X text 10 190 internals : 6/233 [0t:text:outlet:list:inlet:route]
;
#X restore 438 423 pd meta;
#X text 440 452 fd_lib v0.1;
#X text 60 284 0 arguments;
#X text 21 55 Read a text file into an array resizing it first.;
#X msg 230 147 read test.txt;
#X obj 230 184 fd_read-resize;
#X obj 230 217 array define tester;
#X msg 45 109 bang;
#X obj 45 134 array size tester;
#X obj 45 159 print;
#X text 81 109 <-- check size before and after 'reading';
#X text 60 340 1: 'read': message similar to [text] or [array] objects
;
#X text 60 410 1: connect this to the target [array] object;
#X connect 10 0 11 0;
#X connect 11 0 12 0;
#X connect 13 0 14 0;
#X connect 14 0 15 0;
