#N canvas 0 22 450 300 12;
#X obj 35 34 inlet;
#X obj 79 103 + 1;
#X obj 36 188 send;
#X obj 79 125 list prepend \$1;
#X msg 79 147 symbol \$1-\$2;
#X obj 35 56 t a b;
#X obj 79 81 f \$2;
#X connect 0 0 5 0;
#X connect 1 0 3 0;
#X connect 3 0 4 0;
#X connect 4 0 2 1;
#X connect 5 0 2 0;
#X connect 5 1 6 0;
#X connect 6 0 1 0;
