#N canvas 676 88 454 350 12;
#X declare -lib Gem;
#X obj 273 37 declare -lib Gem;
#X obj 300 102 gemwin;
#X obj 23 50 gemhead;
#X obj 23 75 pix_video;
#X obj 23 100 pix_grey;
#X obj 23 125 pix_crop 100 0 128 128;
#X obj 23 242 pix_texture;
#X msg 349 70 create \, 1;
#X msg 264 71 0 \, destroy;
#X obj 25 18 tgl 15 0 empty empty empty 17 7 0 10 -262144 -1 -1 1 1
;
#X obj 23 174 pix_shift;
#X obj 23 267 square 4;
#X connect 2 0 3 0;
#X connect 3 0 4 0;
#X connect 4 0 5 0;
#X connect 5 0 10 0;
#X connect 6 0 11 0;
#X connect 7 0 1 0;
#X connect 8 0 1 0;
#X connect 9 0 2 0;
#X connect 10 0 6 0;
