#N canvas 720 102 450 300 12;
#X declare -lib Gem;
#X declare -path fd_lib;
#X obj 290 42 declare -lib Gem;
#X obj 36 62 pix_grey;
#X obj 36 238 pix_texture;
#X obj 36 263 square 4;
#X msg 309 82 create \, 1;
#X obj 309 137 gemwin;
#X obj 36 125 t a a;
#X msg 330 106 0 \, destroy;
#X obj 36 37 pix_video;
#X obj 36 12 gemhead;
#X obj 146 178 pix_invert;
#X obj 36 150 pix_separator;
#X obj 146 153 pix_separator;
#X obj 180 129 tgl 15 0 empty empty empty 17 7 0 10 -262144 -1 -1 0
1;
#X obj 36 87 pix_crop 100 0 128 128;
#X obj 36 187 pix_mag 4;
#X obj 233 182 tgl 15 0 empty empty empty 17 7 0 10 -262144 -1 -1 0
1;
#X obj 146 203 spigot;
#X obj 286 15 declare -path fd_lib;
#X text 350 270 fd_lib v0.1;
#X connect 1 0 14 0;
#X connect 2 0 3 0;
#X connect 4 0 5 0;
#X connect 6 0 11 0;
#X connect 6 1 12 0;
#X connect 7 0 5 0;
#X connect 8 0 1 0;
#X connect 9 0 8 0;
#X connect 10 0 17 0;
#X connect 11 0 15 0;
#X connect 12 0 10 0;
#X connect 13 0 10 0;
#X connect 14 0 6 0;
#X connect 15 0 2 0;
#X connect 16 0 17 1;
#X connect 17 0 15 1;
