#N canvas 1010 25 237 359 10;
#X obj 70 186 fd_vu;
#X obj 155 203 tgl 15 0 empty empty empty 17 7 0 10 -262144 -1 -1 0
1;
#X obj 74 292 dac~;
#X obj 153 258 loadbang;
#X msg 153 280 \; pd dsp 1;
#N canvas 771 424 480 351 lor6 0;
#X obj 377 26 inlet;
#X obj 391 79 switch~;
#X obj 374 52 tgl 15 0 empty empty empty 17 7 0 10 -262144 -1 -1 0
1;
#X obj 358 231 metro 100;
#X obj 29 187 throw~ out1;
#X obj 118 183 throw~ out2;
#X obj 124 293 tabwrite~ sigout1;
#X obj 242 288 tabwrite~ sigout2;
#X floatatom 425 156 5 0 0 0 - - -, f 5;
#X obj 352 142 tgl 15 0 empty empty empty 17 7 0 10 -262144 -1 -1 0
1;
#N canvas 492 19 495 650 lor 1;
#X obj 118 186 +~ 10;
#X obj 168 189 +~ 28;
#X obj 217 189 +~ 2.6667;
#X floatatom 246 155 5 0 0 0 - - -, f 5;
#X floatatom 300 152 5 0 0 0 - - -, f 5;
#X floatatom 188 146 5 0 0 0 - - -, f 5;
#X obj 50 187 +~ 0.001;
#X floatatom 125 144 5 0 0 0 - - -, f 5;
#X obj 74 220 lor6~, f 16;
#X obj 107 537 outlet~;
#X obj 220 504 outlet~;
#X obj 98 414 +~;
#X obj 98 436 +~;
#X obj 98 480 *~ 0.33;
#X obj 329 71 block~ 1024 1;
#X floatatom 73 288 5 0 0 0 - - -, f 5;
#X obj 43 319 *~ 0.03;
#X obj 156 325 *~ 0.03;
#X obj 237 278 *~ 0.03;
#X obj 238 305 -~ 0.5;
#X floatatom 181 293 5 0 0 0 - - -, f 5;
#X floatatom 270 252 5 0 0 0 - - -, f 5;
#X connect 0 0 8 1;
#X connect 1 0 8 2;
#X connect 2 0 8 3;
#X connect 3 0 1 0;
#X connect 4 0 2 0;
#X connect 5 0 0 0;
#X connect 6 0 8 0;
#X connect 7 0 6 0;
#X connect 8 0 16 0;
#X connect 8 1 17 0;
#X connect 8 2 18 0;
#X connect 11 0 12 0;
#X connect 12 0 13 0;
#X connect 13 0 9 0;
#X connect 15 0 16 1;
#X connect 16 0 11 0;
#X connect 17 0 11 1;
#X connect 18 0 19 0;
#X connect 19 0 12 1;
#X connect 20 0 17 1;
#X connect 21 0 18 1;
#X restore 60 39 pd lor;
#X connect 0 0 2 0;
#X connect 2 0 1 0;
#X connect 3 0 6 0;
#X connect 3 0 7 0;
#X connect 8 0 3 1;
#X connect 9 0 3 0;
#X connect 10 0 4 0;
#X connect 10 0 6 0;
#X connect 10 1 5 0;
#X connect 10 1 7 0;
#X restore 155 227 pd lor6;
#X obj 74 120 catch~ out1;
#X obj 97 147 catch~ out2;
#X obj 37 37 array define sigout1 4410;
#X obj 37 57 array define sigout2 4410;
#X connect 0 0 2 0;
#X connect 0 1 2 1;
#X connect 1 0 5 0;
#X connect 3 0 4 0;
#X connect 6 0 0 0;
#X connect 7 0 0 1;
