#N canvas 1010 25 237 359 10;
#X obj 71 183 fd_vu;
#X obj 155 203 tgl 15 0 empty empty empty 17 7 0 10 -262144 -1 -1 0
1;
#X obj 74 292 dac~;
#X obj 153 258 loadbang;
#X msg 153 280 \; pd dsp 1;
#N canvas 521 28 480 351 lor6 0;
#X obj 377 26 inlet;
#X obj 391 79 switch~;
#X obj 374 52 tgl 15 0 empty empty empty 17 7 0 10 -262144 -1 -1 0
1;
#X obj 358 231 metro 100;
#X obj 27 246 throw~ out1;
#X obj 145 246 throw~ out2;
#X obj 48 56 cos~;
#X obj 48 78 *~ 0.5;
#X obj 48 99 +~ 0.5;
#X obj 44 128 *~ 0.001;
#X obj 48 34 phasor~ 1;
#X obj 152 293 tabwrite~ sigout1;
#X obj 267 272 tabwrite~ sigout2;
#X floatatom 425 156 5 0 0 0 - - -, f 5;
#X obj 352 142 tgl 15 0 empty empty empty 17 7 0 10 -262144 -1 -1 0
1;
#N canvas 492 19 495 650 lor 1;
#X obj 153 556 *~;
#X obj 36 560 *~;
#X obj 158 399 mtof~;
#X obj 191 467 phasor~;
#X obj 191 494 cos~;
#X obj 184 440 *~;
#X obj 227 361 cos~;
#X obj 227 339 phasor~ 100;
#X obj 232 405 *~;
#X obj 159 350 *~ 12;
#X obj 159 372 +~ 60;
#X obj 60 424 cos~;
#X obj 37 508 -~;
#X obj 10 464 sig~ 1;
#X obj 60 446 *~ 0.5;
#X obj 65 469 +~ 0.5;
#X floatatom 73 288 5 0 0 0 - - -, f 5;
#X obj 43 319 *~ 0.03;
#X obj 156 325 *~ 0.03;
#X obj 237 278 *~ 0.03;
#X obj 329 346 -~ 0.5;
#X obj 118 186 +~ 10;
#X obj 168 189 +~ 28;
#X obj 217 189 +~ 2.6667;
#X floatatom 246 155 5 0 0 0 - - -, f 5;
#X floatatom 300 152 5 0 0 0 - - -, f 5;
#X floatatom 188 146 5 0 0 0 - - -, f 5;
#X obj 50 187 +~ 0.001;
#X floatatom 125 144 5 0 0 0 - - -, f 5;
#X floatatom 181 293 5 0 0 0 - - -, f 5;
#X floatatom 270 252 5 0 0 0 - - -, f 5;
#X obj 74 220 lor6~, f 16;
#X obj 36 582 outlet~;
#X obj 153 578 outlet~;
#X obj 329 71 block~ 128 4;
#X connect 0 0 33 0;
#X connect 1 0 32 0;
#X connect 2 0 5 0;
#X connect 3 0 4 0;
#X connect 4 0 0 1;
#X connect 4 0 1 1;
#X connect 5 0 3 0;
#X connect 6 0 8 0;
#X connect 7 0 6 0;
#X connect 8 0 5 1;
#X connect 9 0 10 0;
#X connect 10 0 2 0;
#X connect 11 0 14 0;
#X connect 12 0 1 0;
#X connect 13 0 12 0;
#X connect 14 0 15 0;
#X connect 15 0 12 1;
#X connect 15 0 0 0;
#X connect 16 0 17 1;
#X connect 17 0 11 0;
#X connect 18 0 9 0;
#X connect 19 0 20 0;
#X connect 19 0 7 0;
#X connect 20 0 8 1;
#X connect 21 0 31 1;
#X connect 22 0 31 2;
#X connect 23 0 31 3;
#X connect 24 0 22 0;
#X connect 25 0 23 0;
#X connect 26 0 21 0;
#X connect 27 0 31 0;
#X connect 28 0 27 0;
#X connect 29 0 18 1;
#X connect 30 0 19 1;
#X connect 31 0 17 0;
#X connect 31 1 18 0;
#X connect 31 2 19 0;
#X restore 96 181 pd lor;
#X connect 0 0 2 0;
#X connect 2 0 1 0;
#X connect 3 0 11 0;
#X connect 3 0 12 0;
#X connect 6 0 7 0;
#X connect 7 0 8 0;
#X connect 10 0 6 0;
#X connect 13 0 3 1;
#X connect 14 0 3 0;
#X connect 15 0 4 0;
#X connect 15 0 11 0;
#X connect 15 1 5 0;
#X connect 15 1 12 0;
#X restore 155 227 pd lor6;
#X obj 74 120 catch~ out1;
#X obj 97 147 catch~ out2;
#X obj 37 37 array define sigout1 4410;
#X obj 37 57 array define sigout2 4410;
#X connect 0 0 2 0;
#X connect 0 1 2 1;
#X connect 1 0 5 0;
#X connect 3 0 4 0;
#X connect 6 0 0 0;
#X connect 7 0 0 1;
