#N canvas 1010 25 237 359 10;
#X obj 70 186 fd_vu;
#X obj 155 203 tgl 15 0 empty empty empty 17 7 0 10 -262144 -1 -1 0
1;
#X obj 74 292 dac~;
#X obj 153 258 loadbang;
#X msg 153 280 \; pd dsp 1;
#X obj 74 120 catch~ out1;
#X obj 97 147 catch~ out2;
#X obj 37 37 array define sigout1 4410;
#X obj 37 57 array define sigout2 4410;
#N canvas 963 337 646 487 lor7 0;
#X obj 475 16 inlet;
#X obj 489 69 switch~;
#X obj 472 42 tgl 15 0 empty empty empty 17 7 0 10 -262144 -1 -1 0
1;
#X obj 110 409 metro 100;
#X obj 130 365 throw~ out1;
#X obj 141 343 throw~ out2;
#X floatatom 155 394 5 0 0 0 - - -, f 5;
#X obj 112 385 tgl 15 0 empty empty empty 17 7 0 10 -262144 -1 -1 1
1;
#X floatatom 238 98 5 0 0 0 - - -, f 5;
#X obj 38 245 phasor~ 122;
#X obj 30 269 cos~;
#X obj 37 194 *~ 1000;
#X floatatom 98 215 5 0 0 0 - - -, f 5;
#X obj 37 216 +~ 1500;
#X floatatom 140 38 5 0 0 0 - - -, f 5;
#X obj 140 57 / 1000;
#X obj 40 166 cos~;
#X obj 92 430 tabwrite~ sigout1;
#X obj 242 76 r depth;
#X obj 89 162 r width;
#X obj 120 200 r base;
#X obj 163 18 r freq;
#N canvas 1268 89 194 306 lines 0;
#X obj 33 23 r freq-line;
#X obj 33 45 line;
#X obj 33 67 s freq;
#X obj 36 114 line;
#X obj 34 184 line;
#X obj 31 252 line;
#X obj 36 92 r depth-line;
#X obj 36 136 s depth;
#X obj 34 162 r width-line;
#X obj 34 206 s width;
#X obj 31 230 r base-line;
#X obj 30 274 s base;
#X connect 0 0 1 0;
#X connect 1 0 2 0;
#X connect 3 0 7 0;
#X connect 4 0 9 0;
#X connect 5 0 11 0;
#X connect 6 0 3 0;
#X connect 8 0 4 0;
#X connect 10 0 5 0;
#X restore 451 122 pd lines;
#X msg 424 165 \; freq 1 \; depth 29 \; width 3 \; base 283 \;;
#X msg 430 250 \; freq 1 \; depth 43 \; width 1000 \; base 1500 \;
;
#X msg 417 334 20000;
#X msg 468 345 2000;
#X msg 420 370 \; freq-line 0 \, 1 \$1 \; depth-line 0 \, 43 \$1 \;
width-line 0 \, 1000 \$1 \; base-line 500 \, 1500 \$1 \;;
#N canvas 1009 53 815 930 lor 0;
#X obj 216 552 outlet~;
#X obj 237 175 +~ 10;
#X obj 287 178 +~ 28;
#X obj 336 178 +~ 2.6667;
#X obj 169 176 +~ 0.001;
#X obj 340 306 *~ 0.03;
#X obj 341 333 -~ 0.5;
#X floatatom 373 280 5 0 0 0 - - -, f 5;
#X obj 211 229 lor7~, f 16;
#X floatatom 365 144 5 0 0 0 - - -, f 5;
#X floatatom 419 141 5 0 0 0 - - -, f 5;
#X floatatom 307 135 5 0 0 0 - - -, f 5;
#X obj 178 135 inlet;
#X connect 1 0 8 1;
#X connect 2 0 8 2;
#X connect 3 0 8 3;
#X connect 4 0 8 0;
#X connect 5 0 6 0;
#X connect 6 0 0 0;
#X connect 7 0 5 1;
#X connect 8 3 5 0;
#X connect 9 0 2 0;
#X connect 10 0 3 0;
#X connect 11 0 1 0;
#X connect 12 0 4 0;
#X restore 145 83 pd lor;
#N canvas 1009 53 815 930 lor 0;
#X obj 154 903 outlet~;
#X obj 242 910 outlet~;
#X obj 325 36 tgl 15 0 empty empty empty 17 7 0 10 -262144 -1 -1 0
1;
#X msg 291 41 bang;
#X obj 329 71 block~ 256;
#X floatatom 372 452 5 0 0 0 - - -, f 5;
#X obj 342 483 *~ 0.03;
#X obj 407 488 *~ 0.03;
#X obj 469 467 *~ 0.03;
#X obj 470 494 -~ 0.5;
#X floatatom 432 456 5 0 0 0 - - -, f 5;
#X floatatom 502 441 5 0 0 0 - - -, f 5;
#X obj 99 414 +~;
#X obj 99 436 +~;
#X obj 99 458 *~ 0.33;
#X obj 218 527 *~;
#X obj 379 531 +~;
#X obj 379 553 +~;
#X obj 379 575 *~ 0.33;
#X obj 561 460 *~ 0.03;
#X obj 562 487 -~ 0.5;
#X obj 387 616 *~;
#X obj 49 40 inlet~;
#X obj 53 616 rfft~;
#X obj 77 703 *~;
#X obj 106 704 *~;
#X obj 103 792 rifft~;
#X obj 46 550 *~;
#X obj 84 566 0-hann 256 1;
#X obj 195 849 0-hann 256 1;
#X obj 155 848 *~;
#X obj 218 549 *~;
#X obj 387 638 *~;
#X obj 221 579 sqrt~;
#X obj 221 601 cos~;
#X obj 221 623 *~ -1;
#X obj 237 175 +~ 10;
#X obj 287 178 +~ 28;
#X obj 336 178 +~ 2.6667;
#X obj 169 176 +~ 0.001;
#X floatatom 168 88 5 0 0 0 - - -, f 5;
#X floatatom 129 361 5 0 0 0 - - -, f 5;
#X obj 99 392 *~ 0.03;
#X obj 163 393 *~ 0.03;
#X obj 232 366 *~ 0.03;
#X obj 233 393 -~ 0.5;
#X floatatom 188 361 5 0 0 0 - - -, f 5;
#X floatatom 265 340 5 0 0 0 - - -, f 5;
#X obj 168 107 / 1000;
#X floatatom 168 129 5 0 0 0 - - -, f 5;
#X obj 221 101 + 0.001;
#X floatatom 221 123 5 0 0 0 - - -, f 5;
#X obj 211 229 lor7~, f 16;
#X floatatom 365 144 5 0 0 0 - - -, f 5;
#X floatatom 419 141 5 0 0 0 - - -, f 5;
#X floatatom 307 135 5 0 0 0 - - -, f 5;
#X obj 434 332 +~ 10;
#X obj 484 335 +~ 28;
#X obj 533 335 +~ 2.6667;
#X obj 366 333 +~ 0.001;
#X obj 348 252 *~ 0.03;
#X obj 349 279 -~ 0.5;
#X floatatom 381 226 5 0 0 0 - - -, f 5;
#X obj 408 386 lor7~, f 16;
#X obj 357 306 *~ 0.001;
#X floatatom 458 204 5 0 0 0 - - -, f 5;
#X obj 458 223 / 1000;
#X floatatom 458 245 5 0 0 0 - - -, f 5;
#X obj 511 217 + 0.001;
#X floatatom 511 239 5 0 0 0 - - -, f 5;
#X floatatom 455 291 5 0 0 0 - - -, f 5;
#X floatatom 501 302 5 0 0 0 - - -, f 5;
#X obj 76 71 *~ 0.0001;
#X obj 221 645 rfft~;
#X obj 178 700 *~;
#X obj 207 701 *~;
#X obj 82 743 *~;
#X obj 107 744 *~;
#X obj 142 747 *~;
#X obj 172 747 *~;
#X obj 82 765 +~;
#X obj 142 769 -~;
#X obj 121 38 inlet~;
#X obj 155 877 *~ 3e-06;
#X connect 2 0 4 0;
#X connect 3 0 4 0;
#X connect 5 0 6 1;
#X connect 6 0 16 0;
#X connect 7 0 16 1;
#X connect 8 0 9 0;
#X connect 9 0 17 1;
#X connect 10 0 7 1;
#X connect 11 0 8 1;
#X connect 12 0 13 0;
#X connect 13 0 14 0;
#X connect 14 0 15 0;
#X connect 15 0 24 1;
#X connect 15 0 31 0;
#X connect 15 0 31 1;
#X connect 16 0 17 0;
#X connect 17 0 18 0;
#X connect 18 0 21 0;
#X connect 19 0 20 0;
#X connect 20 0 21 1;
#X connect 21 0 25 1;
#X connect 21 0 32 0;
#X connect 21 0 32 1;
#X connect 22 0 27 0;
#X connect 23 0 24 0;
#X connect 23 0 74 0;
#X connect 23 1 25 0;
#X connect 23 1 75 0;
#X connect 24 0 76 0;
#X connect 24 0 77 0;
#X connect 25 0 78 0;
#X connect 25 0 79 0;
#X connect 26 0 30 0;
#X connect 27 0 23 0;
#X connect 28 0 27 1;
#X connect 29 0 30 1;
#X connect 30 0 83 0;
#X connect 31 0 33 0;
#X connect 32 0 33 0;
#X connect 33 0 34 0;
#X connect 34 0 35 0;
#X connect 35 0 73 0;
#X connect 36 0 52 1;
#X connect 37 0 52 2;
#X connect 38 0 52 3;
#X connect 39 0 52 0;
#X connect 40 0 48 0;
#X connect 41 0 42 1;
#X connect 42 0 12 0;
#X connect 43 0 12 1;
#X connect 44 0 45 0;
#X connect 45 0 13 1;
#X connect 46 0 43 1;
#X connect 47 0 44 1;
#X connect 48 0 49 0;
#X connect 49 0 39 0;
#X connect 49 0 50 0;
#X connect 50 0 51 0;
#X connect 52 0 42 0;
#X connect 52 1 43 0;
#X connect 52 2 44 0;
#X connect 52 3 60 0;
#X connect 53 0 37 0;
#X connect 54 0 38 0;
#X connect 55 0 36 0;
#X connect 56 0 63 1;
#X connect 57 0 63 2;
#X connect 58 0 63 3;
#X connect 59 0 63 0;
#X connect 60 0 61 0;
#X connect 61 0 64 0;
#X connect 61 0 15 1;
#X connect 62 0 60 1;
#X connect 63 0 6 0;
#X connect 63 1 7 0;
#X connect 63 2 8 0;
#X connect 63 3 19 0;
#X connect 64 0 59 0;
#X connect 65 0 66 0;
#X connect 66 0 67 0;
#X connect 67 0 68 0;
#X connect 67 0 64 1;
#X connect 68 0 69 0;
#X connect 70 0 56 0;
#X connect 71 0 57 0;
#X connect 72 0 39 0;
#X connect 73 0 74 1;
#X connect 73 1 75 1;
#X connect 74 0 76 1;
#X connect 74 0 78 1;
#X connect 75 0 77 1;
#X connect 75 0 79 1;
#X connect 76 0 80 0;
#X connect 77 0 80 1;
#X connect 78 0 81 0;
#X connect 79 0 81 1;
#X connect 80 0 26 0;
#X connect 81 0 26 1;
#X connect 82 0 72 0;
#X connect 83 0 0 0;
#X connect 83 0 1 0;
#X restore 110 318 pd lor;
#X obj 198 116 *~ 43;
#X floatatom 88 183 5 0 0 0 - - -, f 5;
#X msg 521 161 \; freq 4 \; depth 20 \; width 1 \; base 5300 \;;
#X msg 519 248 \; freq 10 \; depth 10 \; width 0.5 \; base 500 \;;
#X connect 0 0 2 0;
#X connect 2 0 1 0;
#X connect 3 0 17 0;
#X connect 6 0 3 1;
#X connect 7 0 3 0;
#X connect 8 0 30 1;
#X connect 9 0 10 0;
#X connect 10 0 29 0;
#X connect 11 0 13 0;
#X connect 12 0 13 1;
#X connect 13 0 9 0;
#X connect 14 0 15 0;
#X connect 15 0 28 0;
#X connect 16 0 11 0;
#X connect 18 0 8 0;
#X connect 19 0 31 0;
#X connect 20 0 12 0;
#X connect 21 0 14 0;
#X connect 25 0 27 0;
#X connect 26 0 27 0;
#X connect 28 0 30 0;
#X connect 29 0 4 0;
#X connect 29 0 17 0;
#X connect 29 1 5 0;
#X connect 30 0 16 0;
#X connect 30 0 29 1;
#X connect 31 0 11 1;
#X restore 156 226 pd lor7;
#X connect 0 0 2 0;
#X connect 0 1 2 1;
#X connect 1 0 9 0;
#X connect 3 0 4 0;
#X connect 5 0 0 0;
#X connect 6 0 0 1;
