#N canvas 1010 25 237 359 10;
#X obj 99 177 fd_vu;
#X obj 155 203 tgl 15 0 empty empty empty 17 7 0 10 -262144 -1 -1 0
1;
#X obj 107 292 dac~;
#X obj 153 258 loadbang;
#X msg 153 280 \; pd dsp 1;
#X obj 103 111 catch~ out1;
#X obj 126 138 catch~ out2;
#X obj 37 37 array define sigout1 4410;
#X obj 37 57 array define sigout2 4410;
#N canvas 963 337 646 487 lor8 0;
#X obj 475 16 inlet;
#X obj 489 69 switch~;
#X obj 472 42 tgl 15 0 empty empty empty 17 7 0 10 -262144 -1 -1 0
1;
#X obj 110 409 metro 100;
#X obj 130 365 throw~ out1;
#X obj 141 343 throw~ out2;
#X floatatom 155 394 5 0 0 0 - - -, f 5;
#X obj 112 385 tgl 15 0 empty empty empty 17 7 0 10 -262144 -1 -1 0
1;
#X floatatom 238 98 5 0 0 0 - - -, f 5;
#X obj 38 245 phasor~ 122;
#X obj 30 269 cos~;
#X obj 37 194 *~ 1000;
#X floatatom 98 215 5 0 0 0 - - -, f 5;
#X obj 37 216 +~ 1500;
#X obj 40 166 cos~;
#X obj 92 430 tabwrite~ sigout1;
#X obj 242 76 r depth;
#X obj 89 162 r width;
#X obj 120 200 r base;
#N canvas 1268 89 194 306 lines 0;
#X obj 33 23 r freq-line;
#X obj 33 45 line;
#X obj 33 67 s freq;
#X obj 36 114 line;
#X obj 34 184 line;
#X obj 31 252 line;
#X obj 36 92 r depth-line;
#X obj 36 136 s depth;
#X obj 34 162 r width-line;
#X obj 34 206 s width;
#X obj 31 230 r base-line;
#X obj 30 274 s base;
#X connect 0 0 1 0;
#X connect 1 0 2 0;
#X connect 3 0 7 0;
#X connect 4 0 9 0;
#X connect 5 0 11 0;
#X connect 6 0 3 0;
#X connect 8 0 4 0;
#X connect 10 0 5 0;
#X restore 451 122 pd lines;
#X msg 424 165 \; freq 1 \; depth 29 \; width 3 \; base 283 \;;
#X msg 430 250 \; freq 1 \; depth 43 \; width 1000 \; base 1500 \;
;
#X msg 417 334 20000;
#X msg 468 345 2000;
#X msg 420 370 \; freq-line 0 \, 1 \$1 \; depth-line 0 \, 43 \$1 \;
width-line 0 \, 1000 \$1 \; base-line 500 \, 1500 \$1 \;;
#N canvas 1009 53 815 930 lor 0;
#X obj 154 903 outlet~;
#X obj 242 910 outlet~;
#X obj 325 36 tgl 15 0 empty empty empty 17 7 0 10 -262144 -1 -1 0
1;
#X msg 291 41 bang;
#X obj 329 71 block~ 256;
#X floatatom 372 452 5 0 0 0 - - -, f 5;
#X obj 342 483 *~ 0.03;
#X obj 407 488 *~ 0.03;
#X obj 469 467 *~ 0.03;
#X obj 470 494 -~ 0.5;
#X floatatom 432 456 5 0 0 0 - - -, f 5;
#X floatatom 502 441 5 0 0 0 - - -, f 5;
#X obj 99 414 +~;
#X obj 99 436 +~;
#X obj 99 458 *~ 0.33;
#X obj 218 527 *~;
#X obj 379 531 +~;
#X obj 379 553 +~;
#X obj 379 575 *~ 0.33;
#X obj 561 460 *~ 0.03;
#X obj 562 487 -~ 0.5;
#X obj 387 616 *~;
#X obj 49 40 inlet~;
#X obj 53 616 rfft~;
#X obj 77 703 *~;
#X obj 106 704 *~;
#X obj 103 792 rifft~;
#X obj 46 550 *~;
#X obj 84 566 0-hann 256 1;
#X obj 195 849 0-hann 256 1;
#X obj 155 848 *~;
#X obj 218 549 *~;
#X obj 387 638 *~;
#X obj 221 579 sqrt~;
#X obj 221 601 cos~;
#X obj 221 623 *~ -1;
#X obj 237 175 +~ 10;
#X obj 287 178 +~ 28;
#X obj 336 178 +~ 2.6667;
#X obj 169 176 +~ 0.001;
#X floatatom 168 88 5 0 0 0 - - -, f 5;
#X floatatom 129 361 5 0 0 0 - - -, f 5;
#X obj 99 392 *~ 0.03;
#X obj 163 393 *~ 0.03;
#X obj 232 366 *~ 0.03;
#X obj 233 393 -~ 0.5;
#X floatatom 188 361 5 0 0 0 - - -, f 5;
#X floatatom 265 340 5 0 0 0 - - -, f 5;
#X obj 168 107 / 1000;
#X floatatom 168 129 5 0 0 0 - - -, f 5;
#X obj 221 101 + 0.001;
#X floatatom 221 123 5 0 0 0 - - -, f 5;
#X obj 211 229 lor7~, f 16;
#X floatatom 365 144 5 0 0 0 - - -, f 5;
#X floatatom 419 141 5 0 0 0 - - -, f 5;
#X floatatom 307 135 5 0 0 0 - - -, f 5;
#X obj 434 332 +~ 10;
#X obj 484 335 +~ 28;
#X obj 533 335 +~ 2.6667;
#X obj 366 333 +~ 0.001;
#X obj 348 252 *~ 0.03;
#X obj 349 279 -~ 0.5;
#X floatatom 381 226 5 0 0 0 - - -, f 5;
#X obj 408 386 lor7~, f 16;
#X obj 357 306 *~ 0.001;
#X floatatom 458 204 5 0 0 0 - - -, f 5;
#X obj 458 223 / 1000;
#X floatatom 458 245 5 0 0 0 - - -, f 5;
#X obj 511 217 + 0.001;
#X floatatom 511 239 5 0 0 0 - - -, f 5;
#X floatatom 455 291 5 0 0 0 - - -, f 5;
#X floatatom 501 302 5 0 0 0 - - -, f 5;
#X obj 76 71 *~ 0.0001;
#X obj 221 645 rfft~;
#X obj 178 700 *~;
#X obj 207 701 *~;
#X obj 82 743 *~;
#X obj 107 744 *~;
#X obj 142 747 *~;
#X obj 172 747 *~;
#X obj 82 765 +~;
#X obj 142 769 -~;
#X obj 121 38 inlet~;
#X obj 155 877 *~ 3e-06;
#X connect 2 0 4 0;
#X connect 3 0 4 0;
#X connect 5 0 6 1;
#X connect 6 0 16 0;
#X connect 7 0 16 1;
#X connect 8 0 9 0;
#X connect 9 0 17 1;
#X connect 10 0 7 1;
#X connect 11 0 8 1;
#X connect 12 0 13 0;
#X connect 13 0 14 0;
#X connect 14 0 15 0;
#X connect 15 0 24 1;
#X connect 15 0 31 0;
#X connect 15 0 31 1;
#X connect 16 0 17 0;
#X connect 17 0 18 0;
#X connect 18 0 21 0;
#X connect 19 0 20 0;
#X connect 20 0 21 1;
#X connect 21 0 25 1;
#X connect 21 0 32 0;
#X connect 21 0 32 1;
#X connect 22 0 27 0;
#X connect 23 0 24 0;
#X connect 23 0 74 0;
#X connect 23 1 25 0;
#X connect 23 1 75 0;
#X connect 24 0 76 0;
#X connect 24 0 77 0;
#X connect 25 0 78 0;
#X connect 25 0 79 0;
#X connect 26 0 30 0;
#X connect 27 0 23 0;
#X connect 28 0 27 1;
#X connect 29 0 30 1;
#X connect 30 0 83 0;
#X connect 31 0 33 0;
#X connect 32 0 33 0;
#X connect 33 0 34 0;
#X connect 34 0 35 0;
#X connect 35 0 73 0;
#X connect 36 0 52 1;
#X connect 37 0 52 2;
#X connect 38 0 52 3;
#X connect 39 0 52 0;
#X connect 40 0 48 0;
#X connect 41 0 42 1;
#X connect 42 0 12 0;
#X connect 43 0 12 1;
#X connect 44 0 45 0;
#X connect 45 0 13 1;
#X connect 46 0 43 1;
#X connect 47 0 44 1;
#X connect 48 0 49 0;
#X connect 49 0 39 0;
#X connect 49 0 50 0;
#X connect 50 0 51 0;
#X connect 52 0 42 0;
#X connect 52 1 43 0;
#X connect 52 2 44 0;
#X connect 52 3 60 0;
#X connect 53 0 37 0;
#X connect 54 0 38 0;
#X connect 55 0 36 0;
#X connect 56 0 63 1;
#X connect 57 0 63 2;
#X connect 58 0 63 3;
#X connect 59 0 63 0;
#X connect 60 0 61 0;
#X connect 61 0 64 0;
#X connect 61 0 15 1;
#X connect 62 0 60 1;
#X connect 63 0 6 0;
#X connect 63 1 7 0;
#X connect 63 2 8 0;
#X connect 63 3 19 0;
#X connect 64 0 59 0;
#X connect 65 0 66 0;
#X connect 66 0 67 0;
#X connect 67 0 68 0;
#X connect 67 0 64 1;
#X connect 68 0 69 0;
#X connect 70 0 56 0;
#X connect 71 0 57 0;
#X connect 72 0 39 0;
#X connect 73 0 74 1;
#X connect 73 1 75 1;
#X connect 74 0 76 1;
#X connect 74 0 78 1;
#X connect 75 0 77 1;
#X connect 75 0 79 1;
#X connect 76 0 80 0;
#X connect 77 0 80 1;
#X connect 78 0 81 0;
#X connect 79 0 81 1;
#X connect 80 0 26 0;
#X connect 81 0 26 1;
#X connect 82 0 72 0;
#X connect 83 0 0 0;
#X connect 83 0 1 0;
#X restore 110 318 pd lor;
#X obj 198 116 *~ 43;
#X floatatom 88 183 5 0 0 0 - - -, f 5;
#X msg 521 161 \; freq 4 \; depth 20 \; width 1 \; base 5300 \;;
#X msg 519 248 \; freq 10 \; depth 10 \; width 0.5 \; base 500 \;;
#X connect 0 0 2 0;
#X connect 2 0 1 0;
#X connect 3 0 15 0;
#X connect 6 0 3 1;
#X connect 7 0 3 0;
#X connect 8 0 26 1;
#X connect 9 0 10 0;
#X connect 10 0 25 0;
#X connect 11 0 13 0;
#X connect 12 0 13 1;
#X connect 13 0 9 0;
#X connect 14 0 11 0;
#X connect 16 0 8 0;
#X connect 17 0 27 0;
#X connect 18 0 12 0;
#X connect 22 0 24 0;
#X connect 23 0 24 0;
#X connect 25 0 4 0;
#X connect 25 0 15 0;
#X connect 25 1 5 0;
#X connect 26 0 14 0;
#X connect 26 0 25 1;
#X connect 27 0 11 1;
#X restore 156 226 pd lor8;
#N canvas 595 227 450 300 lor82 0;
#N canvas 1195 146 679 730 lor 0;
#X obj 124 580 outlet~;
#X obj 137 182 +~ 10;
#X obj 187 185 +~ 28;
#X obj 236 185 +~ 2.6667;
#X obj 69 183 +~ 0.001;
#X floatatom 265 151 5 0 0 0 - - -, f 5;
#X floatatom 319 148 5 0 0 0 - - -, f 5;
#X floatatom 207 142 5 0 0 0 - - -, f 5;
#X obj 456 45 inlet;
#X obj 456 67 switch~;
#X obj 418 525 t b b;
#X obj 418 547 timer;
#X obj 464 490 loadbang;
#X msg 464 512 tempo 1 samp;
#X obj 418 503 bang~;
#X obj 137 423 cos~;
#X obj 133 400 -~;
#X obj 180 341 cos~;
#X obj 97 512 cos~;
#X obj 92 485 -~;
#X floatatom 343 203 5 0 0 0 - - -, f 5;
#X obj 176 318 -~;
#X obj 300 308 cos~;
#X obj 300 330 *~ 0.5;
#X obj 300 352 +~ 0.5;
#X obj 188 394 *~;
#X obj 280 415 -~ 0.5;
#X obj 280 437 cos~;
#X obj 176 483 *~;
#X obj 414 427 pack f 10;
#X obj 414 449 line~;
#X obj 280 459 *~;
#X obj 414 405 * 1.5;
#X obj 391 347 t f f;
#X obj 352 402 pack f 10;
#X obj 352 424 line~;
#X obj 228 389 *~;
#X obj 343 222 t f f;
#X floatatom 486 344 5 0 0 0 - - -, f 5;
#X obj 486 363 t b f;
#X floatatom 435 348 5 0 0 0 - - -, f 5;
#X obj 435 367 t b f;
#X obj 391 369 * 1;
#X obj 418 569 change;
#X floatatom 418 591 5 0 0 0 - - -, f 5;
#X obj 513 24 r window;
#X obj 259 520 r window;
#X obj 259 545 unpack;
#X floatatom 252 589 5 0 0 0 - - -, f 5;
#X msg 53 81 \; window 64 1;
#X msg 53 36 \; window 128 2;
#X msg 513 46 set \$1 \$2;
#X obj 252 567 expr $f1/$f2;
#X obj 111 236 lor8~, f 16;
#X floatatom 168 528 5 0 0 0 - - -, f 5;
#X obj 106 552 *~ 0.25;
#X floatatom 157 84 5 0 0 0 - - -, f 5;
#X obj 157 103 / 1000;
#X obj 157 125 + 0.001;
#X floatatom 157 147 5 0 0 0 - - -, f 5;
#X obj 220 277 *~ 0.005;
#X obj 164 276 *~ 0.005;
#X obj 110 277 *~ 0.005;
#X obj 48 280 *~ 0.005;
#X floatatom 309 378 5 0 0 0 - - -, f 5;
#X obj 269 106 unpack f f f f f;
#X obj 272 80 r params;
#X msg 387 133 \; params 3.55 -1.52 15.03 0.06 0.07;
#X floatatom 400 179 5 0 0 0 - - -, f 5;
#X msg 402 200 \; params 3.55 -1.52 15.03 0.06 \$1;
#X floatatom 387 78 5 0 0 0 - - -, f 5;
#X msg 396 240 \; params 0.02 -1.52 15.03 0.06 0.07;
#X msg 388 98 \; params \$1 \$1 15.03 \$1 \$1;
#X floatatom 419 286 5 0 0 0 - - -, f 5;
#X obj 502 278 pack;
#X floatatom 536 281 5 0 0 0 - - -, f 5;
#X msg 420 306 \; params \$1 \$1 \$2 \$1 \$1;
#X obj 468 284 * 100;
#X msg 485 405 \; params 0.55 0.55 54 0.55 0.55;
#X connect 1 0 53 1;
#X connect 2 0 53 2;
#X connect 3 0 53 3;
#X connect 4 0 53 0;
#X connect 5 0 2 0;
#X connect 6 0 3 0;
#X connect 7 0 1 0;
#X connect 8 0 9 0;
#X connect 10 0 11 0;
#X connect 10 1 11 1;
#X connect 11 0 43 0;
#X connect 12 0 13 0;
#X connect 13 0 11 0;
#X connect 14 0 10 0;
#X connect 15 0 28 0;
#X connect 16 0 15 0;
#X connect 17 0 25 0;
#X connect 18 0 55 0;
#X connect 19 0 18 0;
#X connect 20 0 37 0;
#X connect 21 0 17 0;
#X connect 22 0 23 0;
#X connect 23 0 24 0;
#X connect 24 0 21 1;
#X connect 24 0 36 0;
#X connect 25 0 16 1;
#X connect 26 0 27 0;
#X connect 27 0 31 0;
#X connect 28 0 19 1;
#X connect 29 0 30 0;
#X connect 30 0 31 1;
#X connect 31 0 28 1;
#X connect 32 0 29 0;
#X connect 33 0 42 0;
#X connect 33 1 32 0;
#X connect 34 0 35 0;
#X connect 35 0 36 1;
#X connect 36 0 25 1;
#X connect 37 0 63 1;
#X connect 37 0 62 1;
#X connect 37 0 61 1;
#X connect 37 0 60 1;
#X connect 37 1 33 0;
#X connect 38 0 39 0;
#X connect 39 0 32 0;
#X connect 39 1 32 1;
#X connect 40 0 41 0;
#X connect 41 0 42 0;
#X connect 41 1 42 1;
#X connect 42 0 34 0;
#X connect 43 0 44 0;
#X connect 45 0 51 0;
#X connect 46 0 47 0;
#X connect 47 0 52 0;
#X connect 47 1 52 1;
#X connect 51 0 9 0;
#X connect 52 0 48 0;
#X connect 53 0 63 0;
#X connect 53 1 62 0;
#X connect 53 2 61 0;
#X connect 53 3 60 0;
#X connect 54 0 55 1;
#X connect 55 0 0 0;
#X connect 56 0 57 0;
#X connect 57 0 4 0;
#X connect 57 0 58 0;
#X connect 58 0 59 0;
#X connect 60 0 22 0;
#X connect 60 0 26 0;
#X connect 61 0 21 0;
#X connect 62 0 16 0;
#X connect 63 0 19 0;
#X connect 64 0 26 1;
#X connect 65 0 56 0;
#X connect 65 1 7 0;
#X connect 65 2 5 0;
#X connect 65 3 6 0;
#X connect 65 4 20 0;
#X connect 66 0 65 0;
#X connect 68 0 69 0;
#X connect 70 0 72 0;
#X connect 73 0 74 0;
#X connect 73 0 77 0;
#X connect 74 0 76 0;
#X connect 77 0 74 1;
#X connect 77 0 75 0;
#X restore 145 83 pd lor;
#X obj 220 146 tabwrite~ sigout1;
#X obj 263 56 tgl 15 0 empty empty empty 17 7 0 10 -262144 -1 -1 1
1;
#X obj 263 76 metro 100;
#X obj 151 181 throw~ out;
#X connect 0 0 1 0;
#X connect 0 0 4 0;
#X connect 2 0 3 0;
#X connect 2 0 0 0;
#X connect 3 0 1 0;
#X restore 167 330 pd lor82;
#X obj 34 95 catch~ out;
#X obj 44 177 fd_vu;
#X obj 46 286 dac~;
#X connect 0 0 2 0;
#X connect 0 1 2 1;
#X connect 1 0 9 0;
#X connect 3 0 4 0;
#X connect 5 0 0 0;
#X connect 6 0 0 1;
#X connect 11 0 12 0;
#X connect 12 0 13 0;
#X connect 12 0 13 1;
