#N canvas 576 156 671 462 10;
#X obj 308 14 array define lorarray 4410;
#X obj 551 323 catch~ out;
#X obj 551 352 fd_vu;
#X obj 551 447 dac~;
#N canvas 367 92 1125 939 one-lor 0;
#X obj 904 796 tabwrite~ lorarray;
#X obj 819 226 tgl 15 0 empty empty empty 17 7 0 10 -262144 -1 -1 0
1;
#X obj 895 569 metro 100;
#X obj 334 725 *~;
#X floatatom 683 452 5 0 0 0 - - -, f 5;
#X obj 651 612 pack f 10;
#X obj 651 634 line~;
#X obj 682 522 dbtorms;
#X obj 295 862 throw~ out;
#X msg 684 402 77;
#X obj 985 296 switch~;
#X obj 723 330 sel 1;
#X obj 48 342 lor~;
#X obj 199 484 lor~;
#X obj 199 506 cos~;
#X obj 47 366 cos~;
#X obj 254 32 phasor~;
#X obj 71 123 cos~;
#X obj 143 451 *~;
#X obj 335 324 pack f 10;
#X obj 335 346 line~;
#X obj 115 230 *~;
#X floatatom 102 283 5 0 0 0 - - -, f 5;
#X obj 194 362 *~;
#X obj 240 575 *~;
#X obj 193 301 -~;
#X obj 277 251 pack f 10;
#X obj 280 272 line~;
#X obj 470 372 +~ 1;
#X obj 929 26 hann 64;
#X obj 470 350 *~ 61;
#X obj 466 442 tabread4~ hann;
#X msg 89 319 inith 1e-05;
#X msg 238 434 inith 0.01;
#X floatatom 511 279 5 0 0 0 - - -, f 5;
#X obj 174 96 ctlin 1;
#X obj 861 160 pgmin;
#X obj 861 182 sel 1;
#X obj 429 27 notein;
#X obj 423 66 spigot;
#X obj 479 61 t f f;
#X obj 424 91 mtof;
#X obj 174 118 / 127;
#X obj 163 201 *~;
#X obj 936 76 ctlin;
#X floatatom 936 98 5 0 0 0 - - -, f 5;
#X floatatom 961 115 5 0 0 0 - - -, f 5;
#X floatatom 974 96 5 0 0 0 - - -, f 5;
#X obj 485 144 line~;
#X obj 284 76 ctlin 22;
#X obj 286 163 *~;
#X obj 484 167 cos~;
#X obj 488 90 sel 0;
#X obj 280 97 * 0.5;
#X obj 280 227 / 127;
#X obj 278 202 ctlin 23;
#X obj 174 140 pack f 10;
#X obj 174 162 line~;
#X obj 280 119 pack f 10;
#X obj 280 141 line~;
#X obj 348 242 ctlin 61;
#X obj 350 267 / 1.27;
#X obj 670 40 tgl 15 0 empty empty empty 17 7 0 10 -262144 -1 -1 1
1;
#X obj 670 62 metro 330;
#X obj 670 84 random 2;
#X obj 664 181 + 66;
#X obj 664 203 t f b;
#X obj 664 247 pack;
#X obj 491 27 unpack;
#X floatatom 720 195 5 0 0 0 - - -, f 5;
#X floatatom 788 29 5 0 0 0 - - -, f 5;
#X obj 664 225 makenote 127 100;
#X msg 491 120 0.5 \, 0.75 100;
#X obj 670 106 t b f;
#X obj 670 128 f;
#X obj 696 128 +;
#X obj 670 150 mod 5;
#X floatatom 742 78 5 0 0 0 - - -, f 5;
#X floatatom 551 377 5 0 0 0 - - -, f 5;
#X connect 1 0 2 0;
#X connect 1 0 11 0;
#X connect 1 0 10 0;
#X connect 2 0 0 0;
#X connect 3 0 0 0;
#X connect 3 0 8 0;
#X connect 4 0 7 0;
#X connect 5 0 6 0;
#X connect 6 0 3 1;
#X connect 7 0 5 0;
#X connect 9 0 4 0;
#X connect 11 0 9 0;
#X connect 11 1 7 0;
#X connect 12 0 15 0;
#X connect 13 0 14 0;
#X connect 14 0 24 0;
#X connect 15 0 18 0;
#X connect 16 0 17 0;
#X connect 16 0 30 0;
#X connect 17 0 21 0;
#X connect 18 0 13 0;
#X connect 19 0 20 0;
#X connect 20 0 23 1;
#X connect 21 0 12 0;
#X connect 21 0 25 0;
#X connect 22 0 32 0;
#X connect 23 0 18 1;
#X connect 24 0 3 0;
#X connect 25 0 23 0;
#X connect 26 0 27 0;
#X connect 27 0 25 1;
#X connect 28 0 31 0;
#X connect 30 0 28 0;
#X connect 31 0 24 1;
#X connect 32 0 12 0;
#X connect 33 0 13 0;
#X connect 34 0 30 1;
#X connect 35 0 42 0;
#X connect 36 0 37 0;
#X connect 37 0 1 0;
#X connect 38 0 39 0;
#X connect 38 1 40 0;
#X connect 39 0 41 0;
#X connect 40 0 39 1;
#X connect 40 1 52 0;
#X connect 41 0 16 0;
#X connect 42 0 56 0;
#X connect 43 0 21 1;
#X connect 44 0 45 0;
#X connect 44 1 46 0;
#X connect 44 2 47 0;
#X connect 48 0 51 0;
#X connect 49 0 53 0;
#X connect 50 0 43 1;
#X connect 51 0 50 1;
#X connect 52 1 72 0;
#X connect 53 0 58 0;
#X connect 54 0 26 0;
#X connect 55 0 54 0;
#X connect 56 0 57 0;
#X connect 57 0 43 0;
#X connect 58 0 59 0;
#X connect 59 0 50 0;
#X connect 60 0 61 0;
#X connect 61 0 19 0;
#X connect 62 0 63 0;
#X connect 63 0 64 0;
#X connect 64 0 73 0;
#X connect 65 0 66 0;
#X connect 66 0 71 0;
#X connect 67 0 68 0;
#X connect 68 0 39 0;
#X connect 68 1 40 0;
#X connect 69 0 71 1;
#X connect 70 0 63 1;
#X connect 71 0 67 0;
#X connect 71 1 67 1;
#X connect 72 0 48 0;
#X connect 73 0 74 0;
#X connect 73 1 75 1;
#X connect 74 0 75 0;
#X connect 74 0 76 0;
#X connect 75 0 74 1;
#X connect 76 0 65 0;
#X connect 77 0 64 1;
#X connect 78 0 28 1;
#X restore 28 52 pd one-lor;
#X obj 27 11 tgl 15 0 empty empty empty 17 7 0 10 -262144 -1 -1 1 1
;
#X obj 77 101 tgl 15 0 empty empty empty 17 7 0 10 -262144 -1 -1 0
1;
#N canvas 545 182 747 622 two-lor 0;
#X obj 33 67 lor~;
#X obj 62 248 *~;
#X floatatom 132 6 5 0 0 0 - - -, f 5;
#X obj 135 47 pack f 10;
#X obj 135 69 line~;
#X obj 134 26 dbtorms;
#X obj 33 210 -~;
#X obj 53 143 pack f 10;
#X obj 53 165 line~;
#X obj 32 117 *~;
#X obj 53 187 *~ 0.2;
#X obj 70 98 *~ 0.3;
#X obj 44 24 sig~;
#X obj 88 40 /;
#X obj 88 18 swap 1;
#X obj 630 30 inlet;
#X obj 630 52 switch~;
#X obj 244 72 sel 1;
#X obj 382 162 lor~;
#X obj 496 486 tabwrite~ lorarray;
#X obj 555 377 tgl 15 0 empty empty empty 17 7 0 10 -262144 -1 -1 0
1;
#X obj 555 397 metro 100;
#X obj 411 343 *~;
#X obj 484 142 pack f 10;
#X obj 484 164 line~;
#X obj 483 121 dbtorms;
#X obj 382 305 -~;
#X obj 402 238 pack f 10;
#X obj 402 260 line~;
#X obj 381 212 *~;
#X obj 419 193 *~ 0.3;
#X obj 384 518 throw~ out;
#X obj 484 85 inlet;
#X obj 402 282 *~ 0.5;
#X msg 178 7 95;
#X connect 0 0 9 0;
#X connect 1 0 18 0;
#X connect 2 0 5 0;
#X connect 2 0 7 0;
#X connect 2 0 14 0;
#X connect 3 0 4 0;
#X connect 4 0 1 1;
#X connect 4 0 11 0;
#X connect 5 0 3 0;
#X connect 6 0 1 0;
#X connect 7 0 8 0;
#X connect 8 0 10 0;
#X connect 9 0 6 0;
#X connect 10 0 6 1;
#X connect 11 0 9 1;
#X connect 12 0 0 0;
#X connect 13 0 12 0;
#X connect 14 0 13 0;
#X connect 14 1 13 1;
#X connect 15 0 16 0;
#X connect 15 0 17 0;
#X connect 15 0 20 0;
#X connect 17 0 34 0;
#X connect 17 1 5 0;
#X connect 18 0 29 0;
#X connect 20 0 21 0;
#X connect 21 0 19 0;
#X connect 22 0 19 0;
#X connect 22 0 31 0;
#X connect 23 0 24 0;
#X connect 24 0 22 1;
#X connect 24 0 30 0;
#X connect 25 0 23 0;
#X connect 26 0 22 0;
#X connect 27 0 28 0;
#X connect 28 0 33 0;
#X connect 29 0 26 0;
#X connect 30 0 29 1;
#X connect 32 0 25 0;
#X connect 32 0 27 0;
#X connect 33 0 26 1;
#X connect 34 0 2 0;
#X restore 29 142 pd two-lor;
#X floatatom 33 103 5 0 0 0 - - -, f 5;
#X obj 92 195 tgl 15 0 empty empty empty 17 7 0 10 -262144 -1 -1 0
1;
#X floatatom 58 204 5 0 0 0 - - -, f 5;
#N canvas 355 70 747 622 lor-osc 0;
#X obj 33 67 lor~;
#X obj 62 248 *~;
#X floatatom 132 6 5 0 0 0 - - -, f 5;
#X obj 135 47 pack f 10;
#X obj 135 69 line~;
#X obj 134 26 dbtorms;
#X obj 33 210 -~;
#X obj 53 143 pack f 10;
#X obj 53 165 line~;
#X obj 32 117 *~;
#X obj 53 187 *~ 0.2;
#X obj 70 98 *~ 0.3;
#X obj 44 24 sig~;
#X obj 88 40 /;
#X obj 88 18 swap 1;
#X obj 630 30 inlet;
#X obj 630 52 switch~;
#X obj 244 72 sel 1;
#X obj 496 486 tabwrite~ lorarray;
#X obj 555 377 tgl 15 0 empty empty empty 17 7 0 10 -262144 -1 -1 0
1;
#X obj 555 397 metro 100;
#X obj 218 531 throw~ out;
#X obj 225 336 mtof~;
#X obj 216 450 *~ 0.04;
#X msg 178 7 74;
#X obj 225 358 phasor~;
#X obj 225 380 -~;
#X obj 225 402 cos~;
#X obj 225 292 *~ 12;
#X obj 225 314 +~ 60;
#X floatatom 282 261 5 0 0 0 - - -, f 5;
#X floatatom 239 227 5 0 0 0 - - -, f 5;
#X obj 276 145 inlet;
#X obj 349 124 inlet;
#X connect 0 0 9 0;
#X connect 1 0 28 0;
#X connect 2 0 5 0;
#X connect 2 0 7 0;
#X connect 2 0 14 0;
#X connect 3 0 4 0;
#X connect 4 0 1 1;
#X connect 4 0 11 0;
#X connect 5 0 3 0;
#X connect 6 0 1 0;
#X connect 7 0 8 0;
#X connect 8 0 10 0;
#X connect 9 0 6 0;
#X connect 10 0 6 1;
#X connect 11 0 9 1;
#X connect 12 0 0 0;
#X connect 13 0 12 0;
#X connect 14 0 13 0;
#X connect 14 1 13 1;
#X connect 15 0 16 0;
#X connect 15 0 17 0;
#X connect 15 0 19 0;
#X connect 17 0 24 0;
#X connect 17 1 5 0;
#X connect 19 0 20 0;
#X connect 20 0 18 0;
#X connect 22 0 25 0;
#X connect 23 0 21 0;
#X connect 23 0 18 0;
#X connect 24 0 2 0;
#X connect 25 0 26 0;
#X connect 26 0 27 0;
#X connect 27 0 23 0;
#X connect 28 0 29 0;
#X connect 29 0 22 0;
#X connect 30 0 29 1;
#X connect 31 0 28 1;
#X connect 32 0 31 0;
#X connect 33 0 30 0;
#X restore 30 233 pd lor-osc;
#X floatatom 19 202 5 0 0 0 - - -, f 5;
#X obj 161 313 tgl 15 0 empty empty empty 17 7 0 10 -262144 -1 -1 0
1;
#X floatatom 127 322 5 0 0 0 - - -, f 5;
#N canvas 355 70 747 622 lor-osc 0;
#X obj 630 30 inlet;
#X obj 630 52 switch~;
#X obj 496 486 tabwrite~ lorarray;
#X obj 555 377 tgl 15 0 empty empty empty 17 7 0 10 -262144 -1 -1 0
1;
#X obj 555 397 metro 100;
#X obj 218 531 throw~ out;
#X obj 225 336 mtof~;
#X obj 216 450 *~ 0.04;
#X obj 225 358 phasor~;
#X obj 225 380 -~;
#X obj 225 402 cos~;
#X obj 225 292 *~ 12;
#X obj 225 314 +~ 60;
#X floatatom 419 161 5 0 0 0 - - -, f 5;
#X floatatom 376 127 5 0 0 0 - - -, f 5;
#X obj 413 45 inlet;
#X obj 486 24 inlet;
#N canvas 0 22 450 300 lor 0;
#X obj 33 67 lor~;
#X obj 62 248 *~;
#X floatatom 132 6 5 0 0 0 - - -, f 5;
#X obj 135 47 pack f 10;
#X obj 135 69 line~;
#X obj 134 26 dbtorms;
#X obj 33 210 -~;
#X obj 53 143 pack f 10;
#X obj 53 165 line~;
#X obj 32 117 *~;
#X obj 53 187 *~ 0.2;
#X obj 70 98 *~ 0.3;
#X obj 44 24 sig~;
#X obj 88 40 /;
#X obj 88 18 swap 1;
#X obj 244 72 sel 1;
#X msg 178 7 74;
#X obj 62 270 outlet~;
#X obj 401 34 inlet;
#X obj 256 5 inlet;
#X obj 231 158 bang~;
#X obj 231 180 t b b;
#X obj 231 202 timer;
#X floatatom 231 224 5 0 0 0 - - -, f 5;
#X obj 231 243 change;
#X msg 282 184 tempo 1 samp;
#X obj 231 265 s block-size;
#X obj 295 160 loadbang;
#X obj 255 27 block~ 128;
#X connect 0 0 9 0;
#X connect 1 0 17 0;
#X connect 2 0 5 0;
#X connect 2 0 7 0;
#X connect 2 0 14 0;
#X connect 3 0 4 0;
#X connect 4 0 1 1;
#X connect 4 0 11 0;
#X connect 5 0 3 0;
#X connect 6 0 1 0;
#X connect 7 0 8 0;
#X connect 8 0 10 0;
#X connect 9 0 6 0;
#X connect 10 0 6 1;
#X connect 11 0 9 1;
#X connect 12 0 0 0;
#X connect 13 0 12 0;
#X connect 14 0 13 0;
#X connect 14 1 13 1;
#X connect 15 0 16 0;
#X connect 15 1 5 0;
#X connect 16 0 2 0;
#X connect 18 0 15 0;
#X connect 19 0 28 0;
#X connect 20 0 21 0;
#X connect 21 0 22 0;
#X connect 21 1 22 1;
#X connect 22 0 23 0;
#X connect 23 0 24 0;
#X connect 24 0 26 0;
#X connect 25 0 22 0;
#X connect 27 0 25 0;
#X restore 250 101 pd lor;
#X obj 239 46 inlet;
#X connect 0 0 1 0;
#X connect 0 0 3 0;
#X connect 0 0 17 1;
#X connect 3 0 4 0;
#X connect 4 0 2 0;
#X connect 6 0 8 0;
#X connect 7 0 5 0;
#X connect 7 0 2 0;
#X connect 8 0 9 0;
#X connect 9 0 10 0;
#X connect 10 0 7 0;
#X connect 11 0 12 0;
#X connect 12 0 6 0;
#X connect 13 0 12 1;
#X connect 14 0 11 1;
#X connect 15 0 14 0;
#X connect 16 0 13 0;
#X connect 17 0 11 0;
#X connect 18 0 17 0;
#X restore 59 359 pd lor-osc;
#X floatatom 88 320 5 0 0 0 - - -, f 5;
#X msg 37 322 set \$1;
#X msg 23 283 64;
#X msg 52 282 128;
#X msg 81 281 1024;
#X obj 143 365 r block-size;
#X floatatom 143 387 5 0 0 0 - - -, f 5;
#X msg 117 279 4096;
#N canvas 373 215 885 425 lor 0;
#X obj 94 284 tabwrite~ lorarray;
#X obj 736 299 tgl 15 0 empty empty empty 17 7 0 10 -262144 -1 -1 0
1;
#X obj 736 321 metro 100;
#X obj 106 234 throw~ out;
#X msg 64 11 inita 13 \, initb 23 \, initc 2.4;
#X obj 159 80 lor~;
#X obj 94 101 *~;
#X obj 245 80 lor~;
#X obj 159 102 *~;
#X msg 247 55 inita 13 \, initb 23 \, initc 2.4;
#X msg 154 34 inita 10 \, initb 43 \, initc 2.666;
#X floatatom 672 53 5 0 0 0 - - -, f 5;
#X obj 672 94 line~;
#X obj 245 102 *~;
#X msg 300 130 inith 0.003;
#X obj 730 169 inlet;
#X obj 730 191 switch~;
#X obj 845 244 tgl 15 0 empty empty empty 17 7 0 10 -262144 -1 -1 0
1;
#X floatatom 336 258 5 0 0 0 - - -, f 5;
#X obj 336 277 / 100000;
#X floatatom 336 299 5 0 0 0 - - -, f 5;
#X msg 336 317 inith \$1;
#X floatatom 288 327 5 0 0 0 - - -, f 5;
#X obj 288 346 / 100000;
#X floatatom 288 368 5 0 0 0 - - -, f 5;
#X msg 295 394 inith \$1;
#X obj 94 79 lor~;
#X obj 85 188 cos~;
#X obj 583 61 phasor~;
#X obj 581 121 *~;
#X obj 137 215 delwrite~ sig 100;
#X obj 629 14 delread4~ sig;
#X floatatom 740 19 5 0 0 0 - - -, f 5;
#X floatatom 805 9 5 0 0 0 - - -, f 5;
#X obj 805 28 pack f 10;
#X obj 805 50 line~;
#X obj 584 39 -~;
#X msg 453 147 2;
#X msg 494 166 6;
#X msg 530 173 4;
#X obj 468 217 * -1;
#X obj 459 12 tgl 15 0 empty empty empty 17 7 0 10 -262144 -1 -1 0
1;
#X obj 457 68 random 100;
#X obj 459 94 moses 10;
#X obj 460 120 t b;
#X obj 499 120 moses 20;
#X floatatom 529 14 5 0 0 0 - - -, f 5;
#X obj 461 42 metro 500;
#X obj 593 173 random 24;
#X obj 593 195 - 12;
#X obj 593 217 + 60;
#X obj 593 239 mtof;
#X obj 672 72 pack f 500;
#X obj 592 148 t b;
#X obj 629 36 *~ 0.1;
#X floatatom 407 181 5 0 0 0 - - -, f 5;
#X floatatom 317 149 5 0 0 0 - - -, f 5;
#X obj 317 168 / 100000;
#X floatatom 317 190 5 0 0 0 - - -, f 5;
#X msg 317 208 inith \$1;
#X connect 1 0 2 0;
#X connect 2 0 0 0;
#X connect 4 0 26 0;
#X connect 5 0 8 0;
#X connect 6 0 27 0;
#X connect 7 0 13 0;
#X connect 8 0 6 1;
#X connect 9 0 7 0;
#X connect 10 0 5 0;
#X connect 11 0 52 0;
#X connect 12 0 29 1;
#X connect 13 0 8 1;
#X connect 14 0 7 0;
#X connect 15 0 16 0;
#X connect 15 0 1 0;
#X connect 15 0 41 0;
#X connect 17 0 16 0;
#X connect 17 0 1 0;
#X connect 18 0 19 0;
#X connect 19 0 20 0;
#X connect 20 0 21 0;
#X connect 21 0 5 0;
#X connect 22 0 23 0;
#X connect 23 0 24 0;
#X connect 24 0 25 0;
#X connect 25 0 26 0;
#X connect 26 0 6 0;
#X connect 27 0 0 0;
#X connect 27 0 3 0;
#X connect 27 0 30 0;
#X connect 28 0 29 0;
#X connect 29 0 13 1;
#X connect 31 0 54 0;
#X connect 32 0 54 1;
#X connect 33 0 34 0;
#X connect 34 0 35 0;
#X connect 35 0 31 0;
#X connect 36 0 28 0;
#X connect 37 0 40 0;
#X connect 38 0 40 0;
#X connect 39 0 40 0;
#X connect 40 0 36 1;
#X connect 41 0 47 0;
#X connect 41 0 28 1;
#X connect 42 0 43 0;
#X connect 43 0 44 0;
#X connect 43 1 45 0;
#X connect 44 0 39 0;
#X connect 44 0 48 0;
#X connect 45 0 38 0;
#X connect 45 0 53 0;
#X connect 45 1 37 0;
#X connect 46 0 47 1;
#X connect 47 0 42 0;
#X connect 48 0 49 0;
#X connect 49 0 50 0;
#X connect 50 0 51 0;
#X connect 51 0 52 0;
#X connect 52 0 12 0;
#X connect 53 0 48 0;
#X connect 54 0 36 0;
#X connect 55 0 40 1;
#X connect 56 0 57 0;
#X connect 57 0 58 0;
#X connect 58 0 59 0;
#X connect 59 0 7 0;
#X restore 244 87 pd lor;
#X obj 326 75 tgl 15 0 empty empty empty 17 7 0 10 -262144 -1 -1 0
1;
#N canvas 670 356 450 300 lor-1 0;
#X obj 312 43 inlet;
#X obj 286 133 tgl 15 0 empty empty empty 17 7 0 10 -262144 -1 -1 0
1;
#X obj 286 153 metro 100;
#X obj 286 175 tabwrite~ lorarray;
#X obj 312 65 switch~;
#X obj 125 115 lor~;
#X obj 115 49 phasor~ 100;
#X obj 115 71 *~ 100;
#X floatatom 206 57 5 0 0 0 - - -, f 5;
#X floatatom 126 19 5 0 0 0 - - -, f 5;
#X connect 0 0 4 0;
#X connect 0 0 1 0;
#X connect 1 0 2 0;
#X connect 2 0 3 0;
#X connect 5 0 3 0;
#X connect 6 0 7 0;
#X connect 7 0 5 0;
#X connect 8 0 7 1;
#X connect 9 0 6 0;
#X restore 323 97 pd lor-1;
#X obj 249 67 tgl 15 0 empty empty empty 17 7 0 10 -262144 -1 -1 0
1;
#X connect 1 0 2 0;
#X connect 1 0 2 1;
#X connect 2 0 3 0;
#X connect 2 1 3 1;
#X connect 6 0 7 1;
#X connect 8 0 7 0;
#X connect 9 0 11 2;
#X connect 10 0 11 1;
#X connect 12 0 11 0;
#X connect 13 0 15 3;
#X connect 14 0 15 2;
#X connect 16 0 15 1;
#X connect 17 0 15 0;
#X connect 18 0 17 0;
#X connect 19 0 17 0;
#X connect 20 0 17 0;
#X connect 21 0 22 0;
#X connect 23 0 17 0;
#X connect 25 0 26 0;
#X connect 27 0 24 0;
