#N canvas 538 59 450 300 12;
#X obj 34 238 vline~;
#X obj 34 263 dac~;
#X msg 327 12 \; pd dsp 1;
#X msg 327 54 \; pd dsp 0;
#X floatatom 203 15 5 0 0 0 - - -, f 5;
#X obj 34 38 tgl 15 0 empty empty empty 17 7 0 10 -262144 -1 -1 0 1
;
#X obj 34 213 / 100;
#X floatatom 96 89 5 0 0 0 - - -, f 5;
#X msg 54 13 1;
#X msg 54 61 tempo \$1 samp;
#X floatatom 68 38 5 0 0 0 - - -, f 5;
#X obj 34 115 metro 10;
#X obj 34 181 reflect 100;
#X msg 123 141 set \$1 \$2;
#X obj 203 87 pack;
#X floatatom 251 15 5 0 0 0 - - -, f 5;
#X obj 251 61 t b f;
#X obj 34 140 f;
#X obj 68 140 + 1;
#X obj 240 137 unpack;
#X obj 240 162 * 2;
#X obj 240 187 +;
#X obj 203 112 t a a;
#X obj 203 62 max 2;
#X obj 251 37 abs;
#X obj 203 37 int;
#X obj 240 212 + 1;
#X floatatom 240 239 5 0 0 0 - - -, f 5;
#X connect 0 0 1 0;
#X connect 0 0 1 1;
#X connect 4 0 25 0;
#X connect 5 0 11 0;
#X connect 6 0 0 0;
#X connect 7 0 11 1;
#X connect 8 0 9 0;
#X connect 9 0 11 0;
#X connect 10 0 9 0;
#X connect 11 0 17 0;
#X connect 12 0 6 0;
#X connect 13 0 12 0;
#X connect 14 0 22 0;
#X connect 15 0 24 0;
#X connect 16 0 23 0;
#X connect 16 1 14 1;
#X connect 17 0 18 0;
#X connect 17 0 12 0;
#X connect 18 0 17 1;
#X connect 19 0 20 0;
#X connect 19 1 21 1;
#X connect 20 0 21 0;
#X connect 21 0 26 0;
#X connect 22 0 13 0;
#X connect 22 1 19 0;
#X connect 23 0 14 0;
#X connect 24 0 16 0;
#X connect 25 0 23 0;
#X connect 26 0 27 0;
#X connect 27 0 6 1;
