#N canvas 656 313 309 196 10;
#X obj 18 166 writesf~ 1;
#N canvas 697 154 450 300 example 0;
#X msg 74 68 /Users/federicocamarahalac/Documents/fd_lib/fd_write;
#X obj 74 90 s full-path;
#X msg 85 194 file;
#X obj 85 216 s filename;
#X msg 80 125 0.1;
#X obj 80 147 s length;
#X obj 27 12 bng 15 250 50 0 empty empty empty 17 7 0 10 -262144 -1
-1;
#X obj 27 34 t b b b;
#X connect 0 0 1 0;
#X connect 2 0 3 0;
#X connect 4 0 5 0;
#X connect 6 0 7 0;
#X connect 7 0 2 0;
#X connect 7 1 4 0;
#X connect 7 2 0 0;
#X restore 217 113 pd example;
#N canvas 0 22 656 606 start 0;
#X msg 182 332 start;
#X obj 177 282 t b b;
#X msg 289 271 writing file in \$1;
#X obj 177 171 metro 1000;
#X obj 177 193 int 5;
#X obj 219 193 - 1;
#X obj 177 215 t f f;
#X obj 177 237 sel 0;
#X obj 177 259 t b b;
#X msg 247 173 0;
#X msg 220 214 5;
#X msg 183 131 1;
#X obj 263 388 s printer;
#X obj 184 74 inlet;
#X obj 169 399 outlet;
#X obj 436 385 s timelineonoff;
#X msg 436 363 1;
#X connect 0 0 12 0;
#X connect 0 0 14 0;
#X connect 1 0 0 0;
#X connect 1 1 16 0;
#X connect 2 0 12 0;
#X connect 3 0 4 0;
#X connect 4 0 5 0;
#X connect 4 0 6 0;
#X connect 5 0 4 1;
#X connect 6 0 7 0;
#X connect 6 1 2 0;
#X connect 7 0 8 0;
#X connect 8 0 1 0;
#X connect 8 1 9 0;
#X connect 8 1 10 0;
#X connect 9 0 3 0;
#X connect 10 0 4 1;
#X connect 11 0 3 0;
#X connect 13 0 11 0;
#X connect 16 0 15 0;
#X restore 34 77 pd start;
#N canvas 0 22 268 421 timeline 0;
#X obj 68 45 t f f;
#X obj 68 89 timer;
#X obj 68 67 sel 1 0;
#X obj 95 154 / 1000;
#X obj 95 194 / 60;
#X obj 95 174 t f f;
#X obj 68 109 t f f;
#X obj 125 194 mod 60;
#X obj 68 257 pack f f f;
#X obj 95 214 int;
#X obj 122 67 metro 33;
#X obj 68 346 s timeline;
#X obj 125 214 change;
#X obj 68 133 mod 1000;
#X obj 95 236 change;
#X msg 68 279 label \$2:\$3:\$1;
#X obj 67 22 r timelineonoff;
#X obj 15 211 s elapsedmin;
#X obj 78 300 loadbang;
#X msg 78 322 0 0 0;
#X connect 0 0 2 0;
#X connect 0 1 10 0;
#X connect 1 0 6 0;
#X connect 2 0 1 0;
#X connect 2 1 1 1;
#X connect 3 0 5 0;
#X connect 4 0 9 0;
#X connect 4 0 17 0;
#X connect 5 0 4 0;
#X connect 5 1 7 0;
#X connect 6 0 13 0;
#X connect 6 1 3 0;
#X connect 7 0 12 0;
#X connect 8 0 15 0;
#X connect 9 0 14 0;
#X connect 10 0 1 1;
#X connect 12 0 8 2;
#X connect 13 0 8 0;
#X connect 14 0 8 1;
#X connect 15 0 11 0;
#X connect 16 0 0 0;
#X connect 18 0 19 0;
#X connect 19 0 15 0;
#X restore 217 73 pd timeline;
#X obj 182 17 cnv 15 100 30 empty timeline 0:0:0 20 12 0 14 -233017
-66577 0;
#N canvas 0 22 423 640 stop 0;
#X obj 71 41 r length;
#X obj 50 67 >= 1;
#X obj 50 89 sel 1;
#X msg 91 68 length of file: \$1 min;
#X obj 50 128 spigot 1;
#X obj 50 150 t b b;
#X msg 89 150 0;
#X msg 312 250 stop;
#X obj 50 332 list;
#X obj 50 192 t b b b;
#X msg 50 244 list duration:;
#X obj 91 90 s printer;
#X obj 50 354 s printer;
#X obj 79 265 r timeline;
#X obj 79 287 route label;
#X obj 312 334 outlet;
#X obj 89 172 s timelineonoff;
#X obj 50 22 r elapsedmin;
#X obj 69 447 metro 1000;
#X obj 69 469 int 5;
#X obj 111 469 - 1;
#X obj 69 491 t f f;
#X obj 69 513 sel 0;
#X obj 69 535 t b b;
#X msg 110 536 0;
#X msg 139 535 5;
#X msg 69 418 1;
#X obj 69 557 del 10;
#X msg 69 579 quit;
#X obj 69 606 s pd;
#X msg 111 493 quitting in \$1 (press any key to cancel);
#X obj 109 397 key;
#X obj 109 419 == 1;
#X obj 111 513 s printer;
#X connect 0 0 1 1;
#X connect 0 0 3 0;
#X connect 1 0 2 0;
#X connect 2 0 4 0;
#X connect 3 0 11 0;
#X connect 4 0 5 0;
#X connect 5 0 9 0;
#X connect 5 1 6 0;
#X connect 6 0 4 1;
#X connect 6 0 16 0;
#X connect 7 0 15 0;
#X connect 8 0 12 0;
#X connect 9 0 10 0;
#X connect 9 1 26 0;
#X connect 9 2 7 0;
#X connect 10 0 8 0;
#X connect 13 0 14 0;
#X connect 14 0 8 1;
#X connect 17 0 1 0;
#X connect 18 0 19 0;
#X connect 19 0 20 0;
#X connect 19 0 21 0;
#X connect 20 0 19 1;
#X connect 21 0 22 0;
#X connect 21 1 30 0;
#X connect 22 0 23 0;
#X connect 23 0 27 0;
#X connect 23 1 24 0;
#X connect 23 1 25 0;
#X connect 24 0 18 0;
#X connect 25 0 19 1;
#X connect 26 0 18 0;
#X connect 27 0 28 0;
#X connect 28 0 29 0;
#X connect 30 0 33 0;
#X connect 31 0 32 0;
#X connect 32 0 18 0;
#X restore 142 76 pd stop;
#N canvas 602 122 426 486 filename 0;
#X msg 57 376 open \$1;
#X obj 74 189 r full-path;
#X obj 57 21 r filename;
#X obj 74 211 symbol;
#X msg 74 255 set \$1;
#X obj 57 280 makefilename;
#X msg 76 87 dsp 1;
#X obj 76 111 s pd;
#X obj 57 325 t a a;
#X obj 86 349 s printer;
#X obj 147 447 outlet;
#X obj 57 406 t b a;
#X obj 57 448 outlet;
#X obj 126 71 f;
#X obj 159 71 + 1;
#X msg 173 45 set \$1;
#X obj 146 23 loadbang;
#X obj 57 43 t a b b;
#X obj 126 101 makefilename %%s-%d.wav;
#X msg 126 123 set \$1;
#X obj 57 159 makefilename;
#X obj 57 136 symbol;
#X msg 141 47 0;
#X obj 74 233 makefilename %s/%%s;
#X connect 0 0 11 0;
#X connect 1 0 3 0;
#X connect 2 0 17 0;
#X connect 3 0 23 0;
#X connect 4 0 5 0;
#X connect 5 0 8 0;
#X connect 6 0 7 0;
#X connect 8 0 0 0;
#X connect 8 1 9 0;
#X connect 11 0 12 0;
#X connect 11 1 10 0;
#X connect 13 0 14 0;
#X connect 13 0 18 0;
#X connect 14 0 13 1;
#X connect 14 0 15 0;
#X connect 15 0 22 0;
#X connect 16 0 22 0;
#X connect 17 0 21 0;
#X connect 17 1 6 0;
#X connect 17 2 13 0;
#X connect 18 0 19 0;
#X connect 19 0 20 0;
#X connect 20 0 5 0;
#X connect 21 0 20 0;
#X connect 22 0 13 1;
#X connect 23 0 4 0;
#X restore 78 34 pd filename;
#N canvas 0 22 450 300 printer 0;
#X obj 25 54 print fd_write;
#X obj 26 31 r printer;
#X connect 1 0 0 0;
#X restore 216 93 pd printer;
#X obj 18 19 adc~ 1;
#X connect 2 0 0 0;
#X connect 5 0 0 0;
#X connect 6 0 2 0;
#X connect 6 1 0 0;
#X connect 8 0 0 0;
#X coords 0 196 1 195 150 100 0;
