#N canvas 559 145 536 385 12;
#X obj 76 62 lorenz;
#X obj 76 153 minimax;
#X obj 76 84 unpack f f f;
#X floatatom 76 296 10 0 0 0 - - -, f 10;
#X obj 76 36 bng 15 250 50 0 empty empty empty 17 7 0 10 -262144 -1
-1;
#X obj 181 42 metro 10;
#X obj 181 20 tgl 15 0 empty empty empty 17 7 0 10 -262144 -1 -1 0
1;
#X obj 184 259 print max;
#X obj 102 260 print min;
#X obj 184 211 change;
#X obj 102 216 change;
#X floatatom 102 238 5 0 0 0 - - -, f 5;
#X floatatom 184 233 5 0 0 0 - - -, f 5;
#X msg 104 31 reset;
#X floatatom 250 175 5 0 0 0 - - -, f 5;
#X msg 95 120 flush;
#X text 142 120 clean slate;
#N canvas 466 269 403 286 normalization 0;
#X obj 32 35 minimax, f 9;
#X obj 32 112 /;
#X obj 57 60 abs;
#X obj 32 167 t f f;
#X obj 32 198 + 1;
#X obj 32 230 * 0.5;
#X obj 68 92 +;
#X text 176 21 here:;
#X text 142 8 normalization example;
#X floatatom 32 255 5 0 0 0 - - -, f 5;
#X msg 84 9 flush;
#X floatatom 111 228 5 0 0 0 - - -, f 5;
#X obj 32 137 * 2;
#X floatatom 32 8 5 -100 100 0 - - -, f 5;
#X text 135 93 NOTE: meant to work for unkwnown ranges, f 25;
#X text 131 144 If you know the range beforehand \, this is useless
, f 27;
#X obj 183 55 fd_norm;
#X connect 0 0 1 0;
#X connect 0 1 2 0;
#X connect 0 2 6 1;
#X connect 1 0 12 0;
#X connect 2 0 6 0;
#X connect 3 0 4 0;
#X connect 3 1 11 0;
#X connect 4 0 5 0;
#X connect 5 0 9 0;
#X connect 6 0 1 1;
#X connect 10 0 0 0;
#X connect 12 0 3 0;
#X connect 13 0 0 0;
#X restore 307 105 pd normalization;
#X text 319 72 see here:;
#X text 81 329 NOTE: meant to work for unkwnown ranges;
#X text 81 349 if you know the range beforehand \, this is useless
;
#X connect 0 0 2 0;
#X connect 1 0 3 0;
#X connect 1 1 10 0;
#X connect 1 2 9 0;
#X connect 1 2 14 0;
#X connect 2 0 1 0;
#X connect 4 0 0 0;
#X connect 5 0 0 0;
#X connect 6 0 5 0;
#X connect 9 0 12 0;
#X connect 10 0 11 0;
#X connect 11 0 8 0;
#X connect 12 0 7 0;
#X connect 13 0 0 0;
#X connect 15 0 1 0;
