#N canvas 487 84 555 501 10;
#X obj 72 78 bng 15 250 50 0 empty empty empty 17 7 0 10 -262144 -1
-1;
#X obj 46 52 metro;
#X obj 47 18 tgl 15 0 empty empty empty 17 7 0 10 -262144 -1 -1 0 1
;
#X obj 72 98 random 100;
#X obj 72 120 minimax;
#X floatatom 72 142 5 0 0 0 - - -, f 5;
#X floatatom 119 143 5 0 0 0 - - -, f 5;
#X floatatom 184 139 5 0 0 0 - - -, f 5;
#X floatatom 195 62 5 0 0 0 - - -, f 5;
#X floatatom 193 112 5 0 0 0 - - -, f 5;
#X obj 119 162 print min;
#X obj 184 158 print max;
#X connect 0 0 3 0;
#X connect 1 0 0 0;
#X connect 2 0 1 0;
#X connect 3 0 4 0;
#X connect 3 0 9 0;
#X connect 4 0 5 0;
#X connect 4 1 6 0;
#X connect 4 2 7 0;
#X connect 6 0 10 0;
#X connect 7 0 11 0;
#X connect 8 0 4 0;
