#N canvas 299 52 873 589 12;
#X msg 355 102 size \$1;
#X floatatom 432 85 5 0 0 0 - - -, f 5;
#X msg 355 171 send \$1;
#X msg 442 151 symbol s-selector;
#X msg 355 194 receive \$1;
#X msg 454 174 symbol r-selector;
#X msg 355 217 label \$1;
#X floatatom 494 228 5 0 0 0 - - -, f 5;
#X msg 673 155 delta \$1 \$1;
#X msg 355 245 label_pos \$1 \$1;
#X msg 355 280 label_font \$1 \$2;
#X text 626 60 UNCREATABLE MESSAGES:;
#X text 11 464 Copy this message:;
#X text 202 519 And paste it here;
#X text 106 547 <--- sholud be;
#X msg 465 197 symbol label-name;
#X floatatom 565 243 5 0 0 0 - - -, f 5;
#X msg 506 260 0 \$1;
#X msg 745 117 10;
#X msg 779 117 -10;
#X msg 673 117 1;
#X msg 708 117 -1;
#X text 249 10 Toggle creation arguments and mesages explained;
#X text 134 30 ARGUMENT LIST == [1] [2] [3] [4] [5] [6] [7] [8] [9]
[10] [11] [12] [13], f 72;
#X floatatom 603 516 5 0 0 0 - - -, f 5;
#X obj 603 538 s r-selector;
#X obj 723 513 r s-selector;
#X text 685 436 [***];
#X text 585 150 [***];
#X text 599 171 [***];
#X text 595 464 send to the "receive selector";
#X text 596 481 receive from the send selector";
#X text 27 60 ARGUMENT LIST: [*];
#X text 346 60 EQUIVALENT MESSAGES: [*];
#X text 27 413 [*] All of this \, you can use right-click > properties
, f 29;
#X obj 345 385 cnv 30 138 30 s-selector r-selector label-name 8 8 0
17 -228992 -355 0;
#X obj 355 353 s r-selector;
#X obj 673 335 s r-selector;
#N canvas 228 423 562 390 canvas-creation-arguments 0;
#X msg 7 12 canvas: cnv selectableSize xSize ySize sendName recieveName
Label labelXOff labelYOff Font# fontSize bgColor lblColor 0;
#X text 9 169 For example \, a canvas called thusly:;
#X obj 9 248 cnv 15 200 100 myCanvas myCanvasR Canvas_Demo 20 12 2
14 -62784 -195568 0;
#X text 9 226 will result in this:;
#X text 8 59 Canvas can be called with 13 creation arguments. These
are not "optional" - all parameters must be filled or the canvas will
not instantiate correctly.;
#X text 10 114 The function of the final "0" is unknown to me (it is
found in the textual entry for a canvas object in a .pd file) but can
be safely left off without ill effects.;
#X msg 9 191 cnv 15 200 100 myCanvas myCanvasR Canvas_Demo 20 12 2
14 18 20;
#X restore 618 398 pd canvas-creation-arguments;
#X text 617 381 from: my_canvas-help.pd;
#X text 27 93 [0] cnv | my_canvas;
#N canvas 0 22 450 300 \$0-sub 0;
#X restore 450 551 pd \$0-sub;
#X obj 450 523 s pd-\$0-sub;
#X text 27 113 [1] (float) selectableSize;
#X text 27 133 [2] (float) vis_size: Xsize (\$1);
#X text 27 152 [3] (symbol) vis_size: Ysize (\$2);
#X floatatom 494 102 5 0 0 0 - - -, f 5;
#X obj 494 124 pack;
#X floatatom 545 100 5 0 0 0 - - -, f 5;
#X msg 355 127 vis_size \$1 \$2;
#X text 27 173 [4] (symbol) "send" selector;
#X text 27 213 [6] (symbol) "label" name;
#X text 27 193 [5] (symbol) "receive" selector;
#X obj 723 538 unpack;
#X floatatom 723 563 5 0 0 0 - - -, f 5;
#X floatatom 771 563 5 0 0 0 - - -, f 5;
#X text 27 233 [7] (float) label_pos: X-offset (\$1);
#X text 27 253 [8] (float) label_pos: Y-offset (\$2);
#X text 27 273 [9] (float) label_font: font (\$1);
#X text 27 293 [10] (float) label_font: height (\$2);
#X text 27 313 [11] (float) color: background (\$1);
#X text 27 333 [12] (float) color: front (\$2);
#X obj 545 122 t b f;
#X msg 13 491 cnv 20 50 20 send receive name 5 10 0 15 9 19 29;
#X obj 37 544 cnv 20 50 20 send receive name 5 10 0 15 -257472 -250685
1;
#X obj 237 545;
#X msg 682 232 345 385;
#X msg 673 257 pos \$1 \$2;
#X floatatom 760 235 5 0 0 0 - - -, f 5;
#X obj 760 257 pack;
#X floatatom 811 233 5 0 0 0 - - -, f 5;
#X obj 811 255 t b f;
#X msg 673 193 get_pos;
#X text 50 380 NOTE: color front == label;
#X text 27 353 [13] (float) color: label (\$2);
#X msg 355 313 color \$1 \$2;
#X msg 494 293 8 18;
#X msg 568 293 9 19;
#X text 409 446 alternate creation:;
#X msg 464 497 mycnv \, vis 1;
#X msg 450 469 clear \, vis 0;
#X connect 0 0 36 0;
#X connect 1 0 0 0;
#X connect 2 0 36 0;
#X connect 3 0 2 0;
#X connect 4 0 36 0;
#X connect 5 0 4 0;
#X connect 6 0 36 0;
#X connect 7 0 9 0;
#X connect 8 0 37 0;
#X connect 9 0 36 0;
#X connect 10 0 36 0;
#X connect 15 0 6 0;
#X connect 16 0 17 0;
#X connect 17 0 10 0;
#X connect 18 0 8 0;
#X connect 19 0 8 0;
#X connect 20 0 8 0;
#X connect 21 0 8 0;
#X connect 24 0 25 0;
#X connect 26 0 53 0;
#X connect 46 0 47 0;
#X connect 47 0 49 0;
#X connect 48 0 62 0;
#X connect 49 0 36 0;
#X connect 53 0 54 0;
#X connect 53 1 55 0;
#X connect 62 0 47 0;
#X connect 62 1 47 1;
#X connect 66 0 67 0;
#X connect 67 0 37 0;
#X connect 68 0 69 0;
#X connect 69 0 67 0;
#X connect 70 0 71 0;
#X connect 71 0 69 0;
#X connect 71 1 69 1;
#X connect 72 0 37 0;
#X connect 75 0 36 0;
#X connect 76 0 75 0;
#X connect 77 0 75 0;
#X connect 79 0 42 0;
#X connect 80 0 42 0;
