#N canvas 604 91 568 387 12;
#X obj 157 32 inlet;
#X msg 408 126 resize \$1;
#X msg 209 233 set \$1;
#X obj 334 262 array define \$1 \$2;
#X obj 60 305 tabsend~ \$1;
#X obj 209 266 switch~ \$2;
#X text 314 50 see fd_windows.pd;
#X obj 306 129 del 1 1 samp;
#X obj 157 54 route bang float;
#X obj 60 145 noise~;
#X obj 211 27 bng 15 250 50 0 empty empty empty 17 7 0 10 -262144 -1
-1;
#X obj 311 296 fd_smooth_brute \$1;
#X obj 306 152 t b b;
#X obj 60 241 lop~ 2048;
#X obj 60 186 cos~;
#X msg 337 203 normalize;
#X connect 0 0 8 0;
#X connect 1 0 3 0;
#X connect 2 0 5 0;
#X connect 7 0 12 0;
#X connect 8 0 5 0;
#X connect 8 0 7 0;
#X connect 8 1 1 0;
#X connect 8 1 2 0;
#X connect 8 1 7 1;
#X connect 8 2 3 0;
#X connect 9 0 14 0;
#X connect 10 0 8 0;
#X connect 12 0 11 0;
#X connect 12 1 15 0;
#X connect 13 0 4 0;
#X connect 14 0 13 0;
#X connect 15 0 3 0;
