#N canvas 525 50 551 637 12;
#X declare -path ~/Documents/fd_lib;
#X obj 24 21 inlet;
#X obj 37 253 until;
#X obj 37 277 f;
#X obj 68 279 + 1;
#X msg 86 253 0;
#X obj 36 230 t f b;
#X obj 24 200 sel 0;
#X obj 24 45 t b b;
#X obj 54 167 r \$0-size;
#X obj 24 168 f;
#X obj 24 592 print fd_critical;
#X obj 37 301 t f f, f 23;
#X obj 37 323 tabread \$1;
#X obj 105 535 tabwrite \$2;
#X obj 37 348 t b f;
#X msg 37 471 52548;
#X obj 37 495 /;
#X obj 74 394 *;
#X obj 74 370 t f f;
#X obj 74 418 - 52.56;
#X obj 74 442 + 690.39;
#X obj 106 80 loadbang;
#X obj 24 105 t b b;
#X obj 24 130 spigot 1;
#X obj 105 130 == 0;
#X obj 153 123 spigot;
#N canvas 0 22 285 332 get-sie 0;
#X obj 33 39 list append \$1 \$2;
#X obj 33 63 list split 1;
#X obj 33 87 symbol;
#X obj 33 111 t b a;
#X obj 33 135 array size;
#X obj 121 98 symbol;
#X obj 121 122 t b a;
#X obj 121 146 array size;
#X obj 33 160 t f f;
#X obj 33 190 ==;
#X obj 33 217 sel 1 0;
#X obj 33 277 s \$0-size;
#X obj 33 244 f;
#X obj 123 251 print fd_critical;
#X msg 123 197 WARNING: different array sizes!, f 12;
#X obj 35 13 inlet;
#X connect 0 0 1 0;
#X connect 1 0 2 0;
#X connect 1 1 5 0;
#X connect 2 0 3 0;
#X connect 3 0 4 0;
#X connect 3 1 4 1;
#X connect 4 0 8 0;
#X connect 5 0 6 0;
#X connect 6 0 7 0;
#X connect 6 1 7 1;
#X connect 7 0 9 1;
#X connect 8 0 9 0;
#X connect 8 1 12 1;
#X connect 9 0 10 0;
#X connect 10 0 12 0;
#X connect 10 1 14 0;
#X connect 10 1 12 0;
#X connect 12 0 11 0;
#X connect 14 0 13 0;
#X connect 15 0 0 0;
#X restore 86 40 pd get-sie;
#X obj 105 105 f \$3;
#X text 241 86 <bark-array> <critical-array> <1/0>;
#X msg 24 568 MISSING ARGUMENTS: <bark-array> <critical-array> <1/0>
;
#X obj 235 220 until;
#X obj 235 244 f;
#X obj 266 246 + 1;
#X msg 284 220 0;
#X obj 234 197 t f b;
#X obj 264 167 r \$0-size;
#X obj 234 168 f;
#X obj 235 279 t f f, f 23;
#X obj 235 304 tabread \$1;
#X obj 303 535 tabwrite \$2;
#X obj 254 34 declare -path ~/Documents/fd_lib;
#X obj 272 370 / 6;
#X obj 272 394 fd_sinh;
#X obj 272 418 * 600;
#X connect 0 0 7 0;
#X connect 1 0 2 0;
#X connect 2 0 3 0;
#X connect 2 0 11 0;
#X connect 3 0 2 1;
#X connect 4 0 2 1;
#X connect 5 0 1 0;
#X connect 5 1 4 0;
#X connect 6 0 29 0;
#X connect 6 1 5 0;
#X connect 7 0 22 0;
#X connect 7 1 26 0;
#X connect 8 0 9 1;
#X connect 9 0 6 0;
#X connect 11 0 12 0;
#X connect 11 1 13 1;
#X connect 12 0 14 0;
#X connect 14 0 15 0;
#X connect 14 1 18 0;
#X connect 15 0 16 0;
#X connect 16 0 13 0;
#X connect 17 0 19 0;
#X connect 18 0 17 0;
#X connect 18 1 17 1;
#X connect 19 0 20 0;
#X connect 20 0 16 1;
#X connect 21 0 27 0;
#X connect 22 0 23 0;
#X connect 22 0 25 0;
#X connect 22 1 27 0;
#X connect 23 0 9 0;
#X connect 24 0 23 1;
#X connect 25 0 36 0;
#X connect 27 0 24 0;
#X connect 27 0 25 1;
#X connect 29 0 10 0;
#X connect 30 0 31 0;
#X connect 31 0 32 0;
#X connect 31 0 37 0;
#X connect 32 0 31 1;
#X connect 33 0 31 1;
#X connect 34 0 30 0;
#X connect 34 1 33 0;
#X connect 35 0 36 1;
#X connect 36 0 34 0;
#X connect 37 0 38 0;
#X connect 37 1 39 1;
#X connect 38 0 41 0;
#X connect 41 0 42 0;
#X connect 42 0 43 0;
#X connect 43 0 39 0;
