#N canvas 500 50 530 480 12;
#X declare -path fd_lib;
#X obj 4 4 cnv 15 522 30 empty empty "fd_sum" 20 15 0 15 -228856 -1
0;
#X obj 4 254 cnv 15 522 20 empty empty arguments: 10 10 0 14 -228856
-1 0;
#X obj 4 314 cnv 15 522 20 empty empty inlets: 10 10 0 14 -228856 -1
0;
#X obj 4 374 cnv 15 522 20 empty empty outlets: 10 10 0 14 -228856
-1 0;
#X obj 4 453 cnv 15 522 20 empty empty version 10 10 0 14 -228856 -1
0;
#X obj 380 8 declare -path fd_lib;
#N canvas 0 22 450 300 meta 0;
#X text 10 10 fd_lib - metadata file - Sun Sep 29 15:22:27 EDT 2019
;
#X text 10 25 patch_name : fd_sum;
#X text 10 40 inlet : 2;
#X text 10 55 outlet : 1;
#X text 10 70 inlet~ : 0;
#X text 10 85 outlet~ : 0;
#X text 10 100 arguments : 0;
#X text 10 115 classes used : 5;
#X text 10 130 total objects: 6;
#X text 10 145 connections : 10;
#X text 10 160 dependencies : 0 [0];
#X text 10 175 externals : 0 [0];
#X text 10 190 internals : 5/233 [0inlet:t:outlet:f:+];
#X restore 438 423 pd meta;
#X text 440 452 fd_lib v0.1;
#X text 60 284 0 arguments;
#X msg 91 70 10;
#X obj 91 95 until;
#X obj 91 120 random 10;
#X obj 91 148 t f f;
#X obj 91 175 fd_sum;
#X obj 91 200 list prepend;
#X obj 91 225 print;
#X msg 254 114 bang;
#X text 30 40 Output the accumulated sum of incoming values;
#X text 228 90 Inlet 2 resets sum;
#X text 60 410 1: float: accumulated sum;
#X text 60 340 1: float: input stream to accumulate \; 2: bang: resets
sum (outputs a 0);
#X connect 9 0 10 0;
#X connect 10 0 11 0;
#X connect 11 0 12 0;
#X connect 12 0 13 0;
#X connect 12 1 14 1;
#X connect 13 0 14 0;
#X connect 14 0 15 0;
#X connect 16 0 13 1;
