#N canvas 471 200 450 350 36;
#X msg 232 42 \; pd dsp 1;
#X obj 19 40 PdCon16~;
#X obj 66 156 dac~;
#X connect 1 0 2 0;
#X connect 1 1 2 1;
#X connect 1 2 2 0;
#X connect 1 3 2 1;
#X obj 286 15 declare -path fd_lib;
#X text 350 320 fd_lib v0.1;
