#N canvas 442 121 622 449 10;
#X obj 304 409 camera;
#X obj 290 141 gemhead;
#X obj 120 123 tgl 15 0 empty empty empty 0 -6 0 8 -262144 -1 -1 1
1;
#X obj 150 123 tgl 15 0 empty empty empty 0 -6 0 8 -262144 -1 -1 1
1;
#X obj 105 123 tgl 15 0 empty empty empty 0 -6 0 8 -262144 -1 -1 0
1;
#X obj 165 123 tgl 15 0 empty empty empty 0 -6 0 8 -262144 -1 -1 1
1;
#X msg 345 220 left \$1;
#X msg 371 198 right \$1;
#X obj 135 131 tgl 15 0 empty empty empty 0 -6 0 8 -262144 -1 -1 1
1;
#X obj 135 116 tgl 15 0 empty empty empty 0 -6 0 8 -262144 -1 -1 0
1;
#X msg 212 210 up \$1;
#X msg 186 232 down \$1;
#X msg 296 176 forward \$1;
#X msg 273 194 reverse \$1;
#X msg 177 348 speed \$1;
#X floatatom 177 330 5 0 0 0 - - -, f 5;
#X floatatom 33 293 5 0 0 0 - - -, f 5;
#X msg 490 246 lookX \$1;
#X msg 490 283 lookY \$1;
#X msg 490 319 lookZ \$1;
#X floatatom 490 230 5 0 0 0 - - -, f 5;
#X floatatom 490 303 5 0 0 0 - - -, f 5;
#X floatatom 490 266 5 0 0 0 - - -, f 5;
#X msg 178 309 distance \$1;
#X obj 107 149 hsl 70 8 1.1 20 0 0 empty empty empty -2 -8 0 10 -262144
-1 -1 2900 1;
#X obj 107 159 hsl 70 8 0.01 10 0 0 empty empty empty -2 -8 0 10 -262144
-1 -1 0 1;
#X obj 107 169 hsl 70 8 -1 1 0 0 empty empty empty -2 -8 0 10 -262144
-1 -1 2250 1;
#X obj 107 179 hsl 70 8 -1 1 0 0 empty empty empty -2 -8 0 10 -262144
-1 -1 3450 1;
#X obj 107 189 hsl 70 8 -1 1 0 0 empty empty empty -2 -8 0 10 -262144
-1 -1 1100 1;
#X obj 170 112 bng 10 250 50 0 empty empty empty 17 7 0 10 -262144
-1 -1;
#X msg 82 41 0;
#X msg 209 89 1;
#X obj 288 36 loadbang;
#X msg 278 95 reset;
#X obj 369 57 t b b;
#X obj 369 109 del 100;
#X msg 369 131 1;
#X msg 420 131 0;
#X obj 426 88 del 10;
#X msg 177 44 6;
#X connect 1 0 0 0;
#X connect 2 0 13 0;
#X connect 3 0 12 0;
#X connect 4 0 6 0;
#X connect 5 0 7 0;
#X connect 6 0 0 0;
#X connect 7 0 0 0;
#X connect 8 0 11 0;
#X connect 9 0 10 0;
#X connect 10 0 0 0;
#X connect 11 0 0 0;
#X connect 12 0 0 0;
#X connect 13 0 0 0;
#X connect 14 0 0 0;
#X connect 15 0 14 0;
#X connect 16 0 23 0;
#X connect 17 0 0 0;
#X connect 18 0 0 0;
#X connect 19 0 0 0;
#X connect 20 0 17 0;
#X connect 21 0 19 0;
#X connect 22 0 18 0;
#X connect 23 0 0 0;
#X connect 24 0 16 0;
#X connect 25 0 15 0;
#X connect 26 0 20 0;
#X connect 27 0 22 0;
#X connect 28 0 21 0;
#X connect 29 0 30 0;
#X connect 29 0 39 0;
#X connect 29 0 31 0;
#X connect 29 0 33 0;
#X connect 29 0 34 0;
#X connect 30 0 4 0;
#X connect 30 0 2 0;
#X connect 30 0 9 0;
#X connect 30 0 8 0;
#X connect 30 0 3 0;
#X connect 30 0 5 0;
#X connect 30 0 26 0;
#X connect 30 0 27 0;
#X connect 30 0 28 0;
#X connect 31 0 25 0;
#X connect 32 0 29 0;
#X connect 33 0 0 0;
#X connect 34 0 35 0;
#X connect 34 1 38 0;
#X connect 35 0 36 0;
#X connect 36 0 1 0;
#X connect 37 0 1 0;
#X connect 38 0 37 0;
#X connect 39 0 24 0;
#X coords 0 -1 1 1 85 100 1 100 100;
