#N canvas 560 99 450 300 12;
#X obj 80 166 irsum;
#X msg 62 82 1 2 3 4 5 6;
#X obj 75 219 print;
#X msg 119 127 imag 7 8 9 10 11 12;
#X connect 0 0 2 0;
#X connect 1 0 0 0;
#X connect 3 0 0 1;
#X obj 286 15 declare -path fd_lib;
#X text 350 270 fd_lib v0.1;
