#N canvas 681 269 530 480 12;
#X declare -path fd_lib;
#X obj 4 254 cnv 15 522 20 empty empty arguments: 10 10 0 14 -228856
-1 0;
#X obj 4 314 cnv 15 522 20 empty empty inlets: 10 10 0 14 -228856 -1
0;
#X obj 4 374 cnv 15 522 20 empty empty outlets: 10 10 0 14 -228856
-1 0;
#X obj 4 453 cnv 15 522 20 empty empty version 10 10 0 14 -228856 -1
0;
#X text 320 102 Useful for debugging when connected to the last outlet
of a [route]., f 21;
#X obj 90 169 route one two three;
#X obj 90 195 bng 15 250 50 0 empty empty empty 17 7 0 10 -262144 -1
-1;
#X obj 139 195 bng 15 250 50 0 empty empty empty 17 7 0 10 -262144
-1 -1;
#X obj 189 195 bng 15 250 50 0 empty empty empty 17 7 0 10 -262144
-1 -1;
#X msg 90 106 one \, two \, three \, whatever;
#X obj 298 215 ./!msg abstraction-name;
#X text 30 282 Optional Argument:;
#X text 172 282 Name to reference where the abstraction is;
#X text 33 48 Outputs a 'wrong message' to the console.;
#X obj 4 4 cnv 15 522 30 empty empty "!msg" 20 15 0 15 -228856 -1 0
;
#X obj 4 254 cnv 15 522 20 empty empty arguments: 10 10 0 14 -228856
-1 0;
#X obj 4 314 cnv 15 522 20 empty empty inlets: 10 10 0 14 -228856 -1
0;
#X obj 4 374 cnv 15 522 20 empty empty outlets: 10 10 0 14 -228856
-1 0;
#X obj 4 453 cnv 15 522 20 empty empty version 10 10 0 14 -228856 -1
0;
#X text 440 452 fd_lib v0.1;
#X text 60 340 anything;
#X text 60 410 no outlets;
#X obj 378 8 declare -path fd_lib;
#X connect 5 0 6 0;
#X connect 5 1 7 0;
#X connect 5 2 8 0;
#X connect 5 3 10 0;
#X connect 9 0 5 0;
