#N canvas 526 51 280 260 12;
#X obj 25 86 list prepend wrong message:;
#X obj 25 111 list trim;
#X obj 25 38 inlet;
#X obj 25 136 print \$1;
#X text 81 188 See !msg-help.pd;
#X connect 0 0 1 0;
#X connect 1 0 3 0;
#X connect 2 0 0 0;
