#N struct 1004-grey1-tmp float x float y float w float l symbol dur
symbol onset;
#N canvas 322 48 915 634 12;
#X obj 230 189 cnv 15 250 60 empty empty empty 20 12 0 14 -233017 -66577
0;
#N canvas 0 22 450 278 (subpatch) 0;
#X array fd_range-help-array 62079 float 2;
#X coords 0 1 62079 -1 200 140 1 0 0;
#X restore 250 40 graph;
#X obj 42 102 soundfiler;
#X obj 254 402 / 44.1;
#X obj 254 498 *~;
#X obj 254 523 +~ 1;
#X msg 230 262 bang;
#X obj 253 301 f;
#X msg 254 429 0 \, 1 \$1;
#X obj 377 402 f;
#X obj 250 203 fd_range;
#X obj 334 301 unpack;
#X obj 254 348 t f f b b;
#X obj 310 374 samplerate~;
#X obj 310 401 * 0.001;
#X obj 254 473 vline~;
#X obj 253 326 max 4;
#X msg 42 44 read -resize ../doc/sound/voice.wav fd_range-help-array
, f 22;
#X obj 254 548 tabread4~ fd_range-help-array, f 19;
#X text 79 371 an example:;
#X text 255 600 connect to dac~;
#X obj 254 451 t a a;
#X obj 497 321 t a;
#X obj 580 219 dictate symbol;
#X obj 608 264 dictate s;
#X obj 572 163 dictate filename;
#X obj 552 125 dictate;
#X connect 2 0 10 0;
#X connect 3 0 8 0;
#X connect 4 0 5 0;
#X connect 5 0 18 0;
#X connect 6 0 7 0;
#X connect 7 0 16 0;
#X connect 8 0 21 0;
#X connect 9 0 18 1;
#X connect 10 1 11 0;
#X connect 11 0 7 1;
#X connect 11 1 9 1;
#X connect 12 0 3 0;
#X connect 12 1 4 1;
#X connect 12 2 13 0;
#X connect 12 3 9 0;
#X connect 13 0 14 0;
#X connect 14 0 3 1;
#X connect 15 0 4 0;
#X connect 16 0 12 0;
#X connect 17 0 2 0;
#X connect 21 0 15 0;
#X connect 21 1 22 0;
#X connect 22 0 10 1;
