#N canvas 580 131 450 296 10;
#X obj 292 73 array define \$0-val;
#X obj 292 94 array define \$0-ind;
#X obj 39 18 inlet;
#X obj 39 109 array size \$1;
#X obj 39 132 sel;
#N canvas 0 22 879 752 sorting 0;
#X obj 53 118 until;
#X obj 62 160 until;
#X obj 70 179 f;
#X obj 99 180 + 1;
#X obj 216 567 t b f;
#X obj 216 664 f;
#X obj 290 226 + 1;
#X obj 368 549 t b f;
#X obj 368 586 f;
#X text 374 641 list[j+1] = list[j];
#X obj 216 537 f;
#X text 119 669 list[j] = tmp;
#X obj 70 399 t f f;
#X obj 368 527 f;
#X obj 70 209 t f f f;
#X msg 105 156 0;
#X text 419 421 tmp;
#X obj 287 304 t f f;
#X obj 216 405 t b b b;
#X obj 314 422 pack 0 f f, f 15;
#X obj 290 248 t f f f, f 19;
#X obj 241 626 unpack f f f;
#X obj 226 108 until;
#X obj 226 130 f;
#X obj 256 129 + 1;
#X obj 230 161 t f f;
#X msg 270 104 0;
#X obj 326 671 f;
#X obj 472 529 t b f;
#X obj 472 590 f;
#X obj 472 507 f;
#X obj 127 179 mod 100;
#X text 602 609 tmp = list[j+1] \; tmp2 = index j+ list[j+1] = list[j]
\; j+1 = j list[j] = tmp \; index j = tmp2;
#X obj 487 561 tabread \$0-ind;
#X obj 472 616 tabwrite \$0-ind;
#X obj 368 612 tabwrite \$0-val;
#X obj 216 712 tabwrite \$0-val;
#X obj 349 711 tabwrite \$0-ind;
#X obj 287 282 tabread \$0-val;
#X obj 70 341 tabread \$0-val;
#X obj 237 196 tabwrite \$0-ind;
#X obj 53 139 f;
#X obj 55 87 t f f f b f;
#X obj 314 117 array get \$1;
#X obj 314 138 array set \$0-val;
#X obj 314 82 array size \$0-val;
#X obj 56 17 inlet;
#X obj 679 29 inlet;
#X obj 56 38 unpack;
#X obj 216 383 sel 1;
#X obj 216 361 >;
#X obj 154 23 != 0;
#X text 189 23 ascending/descending;
#X obj 332 60 array size \$0-ind;
#X obj 248 44 t f b b f f;
#X connect 0 0 41 0;
#X connect 1 0 2 0;
#X connect 2 0 3 0;
#X connect 2 0 14 0;
#X connect 3 0 31 0;
#X connect 4 0 5 0;
#X connect 4 0 27 0;
#X connect 4 1 36 1;
#X connect 4 1 37 1;
#X connect 5 0 36 0;
#X connect 6 0 20 0;
#X connect 7 0 8 0;
#X connect 7 1 35 1;
#X connect 8 0 35 0;
#X connect 10 0 4 0;
#X connect 12 0 50 0;
#X connect 12 1 8 1;
#X connect 13 0 7 0;
#X connect 14 0 39 0;
#X connect 14 1 10 1;
#X connect 14 1 33 0;
#X connect 14 2 6 0;
#X connect 15 0 2 1;
#X connect 17 0 50 1;
#X connect 17 1 19 1;
#X connect 18 0 10 0;
#X connect 18 1 13 0;
#X connect 18 1 30 0;
#X connect 18 2 19 0;
#X connect 19 0 21 0;
#X connect 20 0 38 0;
#X connect 20 1 13 1;
#X connect 20 1 30 1;
#X connect 20 2 19 2;
#X connect 21 1 5 1;
#X connect 21 2 27 1;
#X connect 22 0 23 0;
#X connect 23 0 24 0;
#X connect 23 0 25 0;
#X connect 24 0 23 1;
#X connect 25 0 40 0;
#X connect 25 1 40 1;
#X connect 26 0 23 1;
#X connect 27 0 37 0;
#X connect 28 0 29 0;
#X connect 28 1 34 1;
#X connect 29 0 34 0;
#X connect 30 0 28 0;
#X connect 31 0 2 1;
#X connect 33 0 29 1;
#X connect 38 0 17 0;
#X connect 39 0 12 0;
#X connect 41 0 1 0;
#X connect 42 0 0 0;
#X connect 42 1 41 1;
#X connect 42 2 31 1;
#X connect 42 3 15 0;
#X connect 42 4 54 0;
#X connect 43 0 44 0;
#X connect 46 0 48 0;
#X connect 47 0 43 2;
#X connect 48 0 42 0;
#X connect 48 1 51 0;
#X connect 49 0 18 0;
#X connect 50 0 49 0;
#X connect 51 0 49 1;
#X connect 54 0 22 0;
#X connect 54 1 26 0;
#X connect 54 2 43 0;
#X connect 54 3 45 0;
#X connect 54 4 53 0;
#X restore 121 200 pd sorting;
#X obj 151 18 inlet;
#X obj 151 76 t a a;
#X obj 236 18 inlet;
#X obj 120 178 pack f 0;
#X obj 143 245 array get \$0-val;
#N canvas 0 22 450 300 choose 0;
#X obj 178 48 sel 0 1;
#X msg 178 69 val;
#X obj 178 90 symbol;
#X msg 207 71 ind;
#X obj 178 111 pack s \$0;
#X msg 178 132 \$2-\$1;
#X obj 178 153 symbol;
#X obj 185 8 inlet;
#X obj 178 174 outlet;
#X msg 264 96 output set to: \$1;
#X obj 264 117 print fd_arraysort2;
#X connect 0 0 1 0;
#X connect 0 1 3 0;
#X connect 1 0 2 0;
#X connect 2 0 4 0;
#X connect 2 0 9 0;
#X connect 3 0 2 0;
#X connect 4 0 5 0;
#X connect 5 0 6 0;
#X connect 6 0 8 0;
#X connect 7 0 0 0;
#X connect 9 0 10 0;
#X restore 236 192 pd choose;
#X obj 39 49 route bang float;
#X obj 143 268 outlet;
#X obj 60 154 t b f;
#X obj 91 79 t b f;
#N canvas 0 22 450 300 error 0;
#X obj 39 235 print fd_arraysort2;
#X msg 41 192 no arrayname in argument 1;
#X obj 71 68 inlet;
#X connect 1 0 0 0;
#X connect 2 0 1 0;
#X restore 39 261 pd error;
#X connect 2 0 12 0;
#X connect 3 0 4 0;
#X connect 4 0 16 0;
#X connect 4 1 14 0;
#X connect 6 0 7 0;
#X connect 7 0 3 1;
#X connect 7 1 5 1;
#X connect 8 0 11 0;
#X connect 9 0 5 0;
#X connect 10 0 13 0;
#X connect 11 0 10 2;
#X connect 12 0 3 0;
#X connect 12 1 15 0;
#X connect 14 0 10 0;
#X connect 14 1 9 0;
#X connect 15 0 3 0;
#X connect 15 1 9 1;
