#N canvas 0 22 450 300 10;
#X obj 50 50 / 127;
#X obj 50 92 cos;
#X obj 50 72 * 3.1416;
#X obj 50 114 t f f;
#X obj 50 139 * 0.5;
#X obj 50 161 + 0.5;
#X obj 183 153 + 0.5;
#X obj 183 131 * -0.5;
#X obj 50 183 pack f 10;
#X obj 50 205 line~;
#X obj 183 175 pack f 10;
#X obj 183 197 line~;
#X obj 50 23 inlet;
#X obj 50 227 outlet~;
#X obj 183 219 outlet~;
#X connect 0 0 2 0;
#X connect 1 0 3 0;
#X connect 2 0 1 0;
#X connect 3 0 4 0;
#X connect 3 1 7 0;
#X connect 4 0 5 0;
#X connect 5 0 8 0;
#X connect 6 0 10 0;
#X connect 7 0 6 0;
#X connect 8 0 9 0;
#X connect 9 0 13 0;
#X connect 10 0 11 0;
#X connect 11 0 14 0;
#X connect 12 0 0 0;
