#N canvas 301 248 543 551 10;
#X obj 87 229 del 3000;
#X obj 163 234 samplerate~;
#X obj 163 256 * 3;
#X obj 163 125 bng 15 250 50 0 empty empty resize 17 7 0 10 -262144
-1 -1;
#X obj 105 143 bng 15 250 50 0 empty empty rec 17 7 0 10 -258699 -1
-1;
#X obj 105 125 nbx 5 14 0.1 10 0 0 empty empty seconds 0 -8 0 10 -262144
-1 -1 1 256;
#X obj 141 143 tgl 15 0 empty empty rec(flag) 17 7 0 10 -262144 -1
-1 0 1;
#X obj 135 203 * 1000;
#X obj 105 162 bng 15 250 50 0 empty empty play 17 7 0 10 -24198 -1
-1;
#X obj 33 498 outlet~;
#X obj 5 145 inlet~;
#X obj 2 229 tabwrite~ \$1;
#X obj 163 316 s \$1;
#X msg 163 285 resize \$1;
#X obj 268 155 array define \$1;
#X msg 16 49 color 0 22 22 \, 0;
#X obj 267 102 loadbang;
#X obj 267 124 symbol \$1;
#X symbolatom 154 162 10 0 0 0 - - -, f 10;
#X obj 267 52 inlet;
#X obj 267 74 bang;
#X obj 269 272 outlet;
#X msg 145 43 1;
#X obj 268 180 r \$1;
#X obj 268 200 print \$1;
#X msg 16 71 color 13 22 13 \, 1;
#X obj 145 65 t b f;
#X obj 194 54 inlet;
#X obj 182 103 tgl 15 0 empty empty dsp 17 7 0 10 -262144 -1 -1 1 1
;
#X msg 354 290 \; pd audio-properties;
#X obj 354 232 t f f;
#X obj 409 268 sel 1;
#X msg 355 255 \; pd dsp \$1;
#X msg 69 334 0;
#X msg 14 329 1;
#X obj 20 354 pack f 100;
#X obj 20 376 line~;
#X obj 20 398 *~;
#X obj 20 420 +~ 1;
#X obj 20 442 tabread4~ \$1;
#X obj 22 309 t b b;
#X obj 20 286 del 40;
#X obj 26 265 t b b;
#X obj 34 473 *~;
#X obj 81 378 - 3;
#X obj 180 369 t b b;
#X msg 179 413 1 20;
#X obj 167 441 line~;
#X obj 167 463 *~;
#X obj 167 483 *~;
#X obj 145 350 - 40;
#X msg 128 415 0 40;
#X obj 128 393 del 960;
#X msg 244 405 0 20;
#X obj 180 391 del 20;
#X obj 5 167 hip~ 3;
#X msg 87 286 normalize 0.5;
#X obj 72 188 del 500;
#X obj 373 85 r play;
#X connect 0 0 15 0;
#X connect 0 0 56 0;
#X connect 1 0 2 0;
#X connect 2 0 13 0;
#X connect 2 0 44 0;
#X connect 3 0 1 0;
#X connect 4 0 57 0;
#X connect 5 0 2 1;
#X connect 5 0 7 0;
#X connect 7 0 0 1;
#X connect 7 0 35 1;
#X connect 7 0 50 0;
#X connect 8 0 42 0;
#X connect 10 0 55 0;
#X connect 13 0 12 0;
#X connect 15 0 6 0;
#X connect 16 0 17 0;
#X connect 16 0 22 0;
#X connect 17 0 18 0;
#X connect 18 0 21 0;
#X connect 19 0 20 0;
#X connect 20 0 18 0;
#X connect 22 0 26 0;
#X connect 23 0 24 0;
#X connect 25 0 6 0;
#X connect 26 0 3 0;
#X connect 26 1 5 0;
#X connect 27 0 14 0;
#X connect 28 0 30 0;
#X connect 30 0 32 0;
#X connect 30 1 31 0;
#X connect 31 0 29 0;
#X connect 33 0 36 0;
#X connect 34 0 35 0;
#X connect 35 0 36 0;
#X connect 36 0 37 0;
#X connect 37 0 38 0;
#X connect 38 0 39 0;
#X connect 39 0 43 0;
#X connect 40 0 34 0;
#X connect 40 1 33 0;
#X connect 41 0 40 0;
#X connect 42 0 41 0;
#X connect 42 1 45 0;
#X connect 43 0 9 0;
#X connect 44 0 37 1;
#X connect 45 0 52 0;
#X connect 45 0 54 0;
#X connect 45 1 53 0;
#X connect 46 0 47 0;
#X connect 47 0 48 0;
#X connect 47 0 48 1;
#X connect 48 0 49 0;
#X connect 48 0 49 1;
#X connect 49 0 43 1;
#X connect 50 0 52 1;
#X connect 51 0 47 0;
#X connect 52 0 51 0;
#X connect 53 0 47 0;
#X connect 54 0 46 0;
#X connect 55 0 11 0;
#X connect 56 0 12 0;
#X connect 57 0 0 0;
#X connect 57 0 25 0;
#X connect 57 0 11 0;
#X connect 58 0 8 0;
#X coords 0 -1 1 1 120 80 1 100 100;
