#N canvas 0 22 450 300 12;
#X obj 90 150 fd/_distor;
#X obj 89 200 dac~;
#X floatatom 91 70 5 0 0 0 - - -, f 5;
#X obj 90 105 osc~;
#X msg 176 121 clear;
#X connect 0 0 1 0;
#X connect 0 0 1 1;
#X connect 2 0 3 0;
#X connect 3 0 0 0;
#X connect 4 0 0 1;
