#N canvas 0 22 450 300 12;
#X obj 17 49 inlet;
#X msg 17 71 1 \, 0 0 1;
#X obj 17 93 vline~;
#X obj 17 181 outlet~;
#X obj 17 115 biquad~ 1.99624 -0.996661 1.02718 -1.99624 0.969484;
#X obj 17 137 biquad~ 1.14722 -0.722595 0.813433 -1.37233 0.684054
;
#X obj 17 159 biquad~ 1.99651 -0.996729 0.00736951 0 -0.00736951;
#X connect 0 0 1 0;
#X connect 1 0 2 0;
#X connect 2 0 4 0;
#X connect 4 0 5 0;
#X connect 5 0 6 0;
#X connect 6 0 3 0;
