#N canvas 541 52 516 452 12;
#X obj 185 307 catch~ out;
#X obj 194 405 dac~;
#X obj 192 360 *~;
#X obj 244 339 tgl 15 0 empty empty empty 17 7 0 10 -262144 -1 -1 1
1;
#X obj 42 99 tgl 15 0 empty empty empty 17 7 0 10 -262144 -1 -1 0 1
;
#X obj 36 169 tgl 15 0 empty empty empty 17 7 0 10 -262144 -1 -1 0
1;
#X obj 125 173 tgl 15 0 empty empty empty 17 7 0 10 -262144 -1 -1 0
1;
#X obj 128 98 tgl 15 0 empty empty empty 17 7 0 10 -262144 -1 -1 0
1;
#X obj 214 102 tgl 15 0 empty empty empty 17 7 0 10 -262144 -1 -1 0
1;
#X obj 302 101 tgl 15 0 empty empty empty 17 7 0 10 -262144 -1 -1 0
1;
#X obj 234 170 tgl 15 0 empty empty empty 17 7 0 10 -262144 -1 -1 0
1;
#X obj 366 207 tgl 15 0 empty empty empty 17 7 0 10 -262144 -1 -1 0
1;
#X msg 439 197 clear;
#X floatatom 155 98 5 0 0 0 - - -, f 5;
#X floatatom 165 168 5 0 0 0 - - -, f 5;
#X text 108 34 overview of tiny soundlib;
#X obj 116 333 env~;
#X floatatom 116 358 5 0 0 0 - - -, f 5;
#X obj 125 194 __ note 223;
#X obj 42 129 __ tom;
#X obj 369 238 __ distor;
#X obj 128 128 __ bass;
#X obj 214 133 __ mbass;
#X obj 302 133 __ wood;
#X obj 36 193 __ stick;
#X obj 235 198 __ legato;
#X connect 0 0 2 0;
#X connect 0 0 16 0;
#X connect 2 0 1 0;
#X connect 2 0 1 1;
#X connect 3 0 2 1;
#X connect 4 0 19 0;
#X connect 5 0 24 0;
#X connect 6 0 18 0;
#X connect 7 0 21 0;
#X connect 8 0 22 0;
#X connect 9 0 23 0;
#X connect 10 0 25 0;
#X connect 11 0 20 0;
#X connect 12 0 20 1;
#X connect 13 0 21 1;
#X connect 14 0 18 1;
#X connect 16 0 17 0;
