#N canvas 37 142 353 537 10;
#X obj 27 199 lorenz;
#X obj 27 80 metro 10;
#X obj 27 51 inlet;
#X msg 27 129 print 1;
#X obj 43 273 siginfo;
#X obj 43 223 list prepend parse;
#X obj 43 245 list trim;
#X obj 62 299 list split 6;
#X text 159 302 distance only;
#X obj 96 326 fd_norm;
#X obj 96 392 int 1;
#X obj 96 414 -;
#X obj 96 439 pack f 10;
#X obj 196 439 pack f 10;
#N canvas 0 22 304 310 initial-conditions 0;
#X obj 48 25 loadbang;
#X msg 48 97 100;
#X obj 48 131 until;
#X obj 130 184 + 10;
#X obj 163 89 random 5000;
#X obj 130 142 - 2500;
#X obj 130 162 / 1000;
#X msg 130 206 inita \$1;
#X obj 216 182 / 5000;
#X msg 216 204 initx \$1;
#X msg 48 202 print 1;
#X obj 48 263 outlet;
#X obj 48 47 t b b;
#X connect 0 0 12 0;
#X connect 1 0 2 0;
#X connect 2 0 10 0;
#X connect 3 0 7 0;
#X connect 4 0 5 0;
#X connect 4 0 8 0;
#X connect 5 0 6 0;
#X connect 6 0 3 0;
#X connect 7 0 11 0;
#X connect 8 0 9 0;
#X connect 9 0 11 0;
#X connect 10 0 11 0;
#X connect 12 0 1 0;
#X connect 12 1 4 0;
#X restore 44 160 pd initial-conditions;
#X obj 96 348 t b f f;
#X obj 138 392 f;
#X obj 72 56 r \$2-ntmp;
#X obj 247 404 r \$2-ntmp;
#X text 190 32 \$2 == \$0 from parent;
#X text 190 7 \$1 == instance number;
#X obj 96 468 s \$2-sig-\$1;
#X obj 196 467 s \$2-ph-sig-\$1;
#X text 175 67 (to be used with fd_spat);
#X connect 0 1 5 0;
#X connect 1 0 3 0;
#X connect 2 0 1 0;
#X connect 3 0 0 0;
#X connect 4 1 7 0;
#X connect 5 0 6 0;
#X connect 6 0 4 0;
#X connect 7 1 9 0;
#X connect 9 0 15 0;
#X connect 10 0 11 0;
#X connect 11 0 12 0;
#X connect 12 0 21 0;
#X connect 13 0 22 0;
#X connect 14 0 0 0;
#X connect 15 0 16 0;
#X connect 15 0 10 0;
#X connect 15 1 11 1;
#X connect 15 2 16 1;
#X connect 16 0 13 0;
#X connect 17 0 1 1;
#X connect 18 0 12 1;
#X connect 18 0 13 1;
