#N canvas 530 50 450 300 12;
#X declare -lib timbreIDLib;
#X msg 14 58 \$1 click 1 1 1 1 1;
#X floatatom 14 28 5 0 0 0 - - -;
#X obj 160 30 bng 15 250 50 0 empty empty empty 17 7 0 10 -262144 -1
-1;
#N canvas 0 22 450 300 fill 0;
#X obj 37 37 inlet;
#X msg 176 82 100;
#X obj 176 104 fd_iterate;
#X obj 176 125 t f b;
#X obj 208 148 random 100;
#X obj 176 170 pack;
#X obj 176 194 list prepend;
#X obj 176 34 fd_iterate;
#X msg 176 10 10;
#X msg 176 215 \; arr-\$1 \$2 \$3;
#X obj 176 58 t b f;
#X obj 27 163 fd_iterate;
#X msg 28 186 \; arr-\$1 normalize;
#X msg 27 141 10;
#X obj 62 77 t b b;
#X connect 0 0 14 0;
#X connect 1 0 2 0;
#X connect 2 0 3 0;
#X connect 3 0 5 0;
#X connect 3 1 4 0;
#X connect 4 0 5 1;
#X connect 5 0 6 0;
#X connect 6 0 9 0;
#X connect 7 0 10 0;
#X connect 8 0 7 0;
#X connect 10 0 1 0;
#X connect 10 1 6 1;
#X connect 11 0 12 0;
#X connect 13 0 11 0;
#X connect 14 0 13 0;
#X connect 14 1 8 0;
#X restore 160 56 pd fill;
#X obj 244 31 bng 15 250 50 0 empty empty empty 17 7 0 10 -262144 -1
-1;
#N canvas 769 177 450 300 rearrange 0;
#X obj 37 37 inlet;
#X obj 37 61 fd_iterate 10;
#X obj 42 92 clone fd_arrayclone 10 get arr;
#X obj 106 33 bng 15 250 50 0 empty empty empty 17 7 0 10 -262144 -1
-1;
#N canvas 263 66 491 444 set 0;
#X obj 61 64 list split 1;
#X obj 100 114 until;
#X obj 152 227 list store;
#X obj 100 139 f;
#X obj 138 140 + 1;
#X msg 152 114 0, f 2;
#X obj 100 163 t f f;
#X obj 59 13 inlet;
#X obj 59 37 t a a;
#X obj 213 55 list split 1;
#X obj 64 213 list;
#X obj 69 286 clone fd_arrayclone 100 set rearr;
#X obj 124 88 t b b a b, f 25;
#X obj 64 237 list;
#X msg 135 196 bang;
#X obj 64 261 print;
#X connect 0 1 12 0;
#X connect 1 0 3 0;
#X connect 2 0 13 1;
#X connect 2 1 1 1;
#X connect 3 0 4 0;
#X connect 3 0 6 0;
#X connect 4 0 3 1;
#X connect 5 0 3 1;
#X connect 6 0 10 0;
#X connect 6 1 14 0;
#X connect 7 0 8 0;
#X connect 8 0 0 0;
#X connect 8 1 9 0;
#X connect 9 0 10 1;
#X connect 10 0 13 0;
#X connect 12 0 1 0;
#X connect 12 1 5 0;
#X connect 12 2 2 1;
#X connect 12 3 2 1;
#X connect 13 0 15 0;
#X connect 14 0 2 0;
#X restore 48 125 pd set arrays;
#X floatatom 125 186 5 0 0 0 - - -;
#X msg 125 209 \$1 click 1 1 1 1 1;
#X obj 253 48 bng 15 250 50 0 empty empty empty 17 7 0 10 -262144 -1
-1;
#N canvas 0 22 450 300 test 0;
#X obj 25 11 inlet;
#X obj 45 227 print;
#X obj 134 226 print;
#X msg 35 95 \$1 0;
#X msg 162 75 \$1 0;
#X obj 76 19 fd_iterate 3;
#X obj 67 49 t f f;
#X obj 32 119 clone fd_arrayclone 10 get arr;
#X obj 132 174 clone fd_arrayclone 100 get rearr;
#X connect 0 0 5 0;
#X connect 3 0 7 0;
#X connect 4 0 8 0;
#X connect 5 0 6 0;
#X connect 6 0 3 0;
#X connect 6 1 4 0;
#X connect 7 0 1 0;
#X connect 8 0 2 0;
#X restore 253 72 pd test;
#X obj 123 241 clone fd_arrayclone 100 define rearr;
#X connect 0 0 1 0;
#X connect 1 0 2 0;
#X connect 2 0 4 0;
#X connect 3 0 1 0;
#X connect 5 0 6 0;
#X connect 6 0 9 0;
#X connect 7 0 8 0;
#X restore 244 56 pd rearrange;
#X obj 14 84 clone fd_arrayclone 10 define arr;
#X obj 257 5 declare -lib timbreIDLib;
#X floatatom 26 121 5 0 0 0 - - -;
#X obj 26 188 clone _tt 10 arr;
#X obj 27 260 print 1::;
#X obj 139 261 print 2::;
#X obj 200 218 print 1::;
#X obj 312 219 print 2::;
#X obj 198 178 tabletool arr-0;
#X msg 197 115 euclid arr-1;
#X msg 26 144 all euclid arr-\$1;
#X connect 0 0 6 0;
#X connect 1 0 0 0;
#X connect 2 0 3 0;
#X connect 4 0 5 0;
#X connect 8 0 16 0;
#X connect 9 0 10 0;
#X connect 9 1 11 0;
#X connect 14 0 12 0;
#X connect 14 1 13 0;
#X connect 15 0 14 0;
#X connect 16 0 9 0;
