#N canvas 523 51 443 460 12;
#X obj 90 172 spigot 1;
#X obj 90 276 f;
#X obj 126 276 + 1;
#X msg 232 239 0;
#X obj 90 10 inlet;
#X obj 90 306 sel \$1;
#X obj 90 204 del \$2;
#X obj 195 406 outlet;
#X obj 131 406 outlet;
#X msg 164 135 1;
#X obj 220 100 unpack;
#X obj 274 75 !msg fd_delit;
#X obj 191 172 f \$1;
#X obj 94 359 t b f;
#X obj 15 218 t b;
#X obj 195 360 t b b;
#X obj 90 36 route bang float list;
#X obj 90 99 t b f b b;
#X msg 121 245 0;
#X obj 108 134 sel;
#X text 268 401 See fd_delit-help.pd;
#X connect 0 0 6 0;
#X connect 1 0 2 0;
#X connect 1 0 5 0;
#X connect 2 0 1 1;
#X connect 3 0 0 1;
#X connect 4 0 16 0;
#X connect 5 0 15 0;
#X connect 5 1 13 0;
#X connect 6 0 1 0;
#X connect 9 0 0 1;
#X connect 10 0 12 1;
#X connect 10 1 6 1;
#X connect 12 0 5 1;
#X connect 13 0 14 0;
#X connect 13 1 8 0;
#X connect 14 0 0 0;
#X connect 15 0 7 0;
#X connect 15 1 3 0;
#X connect 16 0 17 0;
#X connect 16 1 17 0;
#X connect 16 2 10 0;
#X connect 16 3 11 0;
#X connect 17 0 0 0;
#X connect 17 1 19 0;
#X connect 17 2 9 0;
#X connect 17 3 18 0;
#X connect 18 0 1 1;
#X connect 19 0 12 0;
#X connect 19 1 12 0;
