#N canvas 521 49 367 336 12;
#X obj 35 19 inlet;
#X obj 35 96 -;
#X obj 35 122 *;
#X obj 35 152 pow -0.5;
#X obj 35 175 t b f;
#X msg 35 200 3.1417;
#X obj 35 225 pow -1;
#X obj 35 249 *;
#X obj 35 273 outlet;
#X obj 266 20 inlet;
#X obj 123 58 loadbang;
#X obj 123 90 f \$1;
#X text 138 253 see fd_arcsin-help.pd;
#X obj 123 115 sel;
#X obj 35 45 t f f;
#X msg 35 71 1 \$1;
#X connect 0 0 14 0;
#X connect 1 0 2 0;
#X connect 2 0 3 0;
#X connect 3 0 4 0;
#X connect 4 0 5 0;
#X connect 4 1 7 1;
#X connect 5 0 6 0;
#X connect 6 0 7 0;
#X connect 7 0 8 0;
#X connect 9 0 13 0;
#X connect 10 0 11 0;
#X connect 11 0 13 0;
#X connect 13 1 3 1;
#X connect 14 0 15 0;
#X connect 14 1 2 1;
#X connect 15 0 1 0;
