#N canvas 0 22 423 341 12;
#X declare -stdpath mrpeach;
#X obj 40 294 outlet;
#X obj 311 293 outlet;
#N canvas 677 29 398 403 line 0;
#X msg 34 177 0 \, 1 \$1;
#X obj 34 208 line 0 1;
#X obj 161 232 t f f;
#X obj 177 129 /;
#X obj 34 323 bang;
#X obj 34 252 * 384;
#X obj 34 277 int;
#X obj 34 299 change;
#X obj 60 88 f;
#X obj 60 144 / 500;
#X msg 97 88 1000 \$1;
#X obj 97 117 /;
#X obj 177 99 / 1000;
#X obj 161 156 route ticks_per_quarternote microsec_per_quarternote
time_sig, f 24;
#X obj 233 268 list split 1;
#X obj 34 9 inlet;
#X obj 34 361 outlet;
#X obj 233 356 outlet;
#X obj 161 8 inlet;
#X obj 34 50 t f b f;
#X obj 101 278 route frames_per_sec ticks_per_frame, f 15;
#X obj 101 335 *;
#X connect 0 0 1 0;
#X connect 1 0 5 0;
#X connect 2 0 5 1;
#X connect 2 1 3 1;
#X connect 3 0 12 0;
#X connect 4 0 16 0;
#X connect 5 0 6 0;
#X connect 6 0 7 0;
#X connect 7 0 4 0;
#X connect 8 0 9 0;
#X connect 9 0 1 2;
#X connect 10 0 11 0;
#X connect 11 0 9 1;
#X connect 12 0 8 0;
#X connect 13 0 2 0;
#X connect 13 1 3 0;
#X connect 13 2 14 0;
#X connect 13 3 20 0;
#X connect 14 0 17 0;
#X connect 15 0 19 0;
#X connect 18 0 13 0;
#X connect 19 0 0 0;
#X connect 19 1 8 0;
#X connect 19 2 10 0;
#X connect 20 0 21 0;
#X connect 20 1 21 1;
#X connect 21 0 2 0;
#X restore 95 99 pd line;
#X obj 274 254 t a a;
#N canvas 0 22 404 291 tick 0;
#X text 185 87 Edit this if you need other time signatures. For now
it only works for n/4 time signatures., f 14;
#X obj 109 82 * 384;
#X obj 39 184 * 4;
#X obj 109 59 - 1;
#X obj 111 23 inlet;
#X obj 36 23 inlet;
#X obj 39 206 outlet;
#X connect 1 0 2 0;
#X connect 2 0 6 0;
#X connect 3 0 1 0;
#X connect 4 0 3 0;
#X connect 5 0 2 1;
#X restore 148 178 pd tick barnum;
#X obj 40 17 inlet;
#X obj 99 294 outlet;
#X obj 40 54 route bang float goto;
#X obj 204 17 declare -stdpath mrpeach;
#X obj 40 234 midifile, f 9;
#X connect 2 0 9 0;
#X connect 2 1 4 0;
#X connect 3 0 2 1;
#X connect 3 1 1 0;
#X connect 4 0 9 0;
#X connect 5 0 7 0;
#X connect 7 0 9 0;
#X connect 7 1 2 0;
#X connect 7 2 4 1;
#X connect 7 3 9 0;
#X connect 9 0 0 0;
#X connect 9 1 6 0;
#X connect 9 2 3 0;
