#N canvas 500 50 530 480 12;
#X declare -path fd_lib;
#X declare -path mrpeach;
#X obj 4 4 cnv 15 522 30 empty empty "fd_midiread" 20 15 0 15 -228856
-1 0;
#X obj 4 254 cnv 15 522 20 empty empty arguments: 10 10 0 14 -228856
-1 0;
#X obj 4 314 cnv 15 522 20 empty empty inlets: 10 10 0 14 -228856 -1
0;
#X obj 4 394 cnv 15 522 20 empty empty outlets: 10 10 0 14 -228856
-1 0;
#X obj 4 453 cnv 15 522 20 empty empty version 10 10 0 14 -228856 -1
0;
#X obj 380 8 declare -path fd_lib;
#N canvas 0 22 450 300 meta 0;
#X text 10 10 fd_lib - metadata file - Fri Sep 13 18:20:03 EDT 2019
;
#X text 10 25 patch_name : fd_midiread;
#X text 10 40 inlet : 1;
#X text 10 70 inlet~ : 0;
#X text 10 85 outlet~ : 0;
#X text 10 100 arguments : 0;
#X text 10 115 classes used : 15;
#X text 10 130 total objects: 34;
#X text 10 145 connections : 45;
#X text 10 160 dependencies : 0 [0];
#X text 10 175 externals : 1 [0midifile;
#X text 10 190 externals ];
#X text 10 205 internals : 14/233 [0outlet:inlet:*:/:t:route:list:line:int:f:declare:change:bang:-]
;
#X text 10 55 outlet : 3;
#X restore 438 423 pd meta;
#X text 440 452 fd_lib v0.1;
#X text 60 284 0 arguments;
#X msg 276 119 goto \$1;
#X obj 37 86 tgl 15 0 empty empty empty 17 7 0 10 -262144 -1 -1 0 1
;
#X obj 219 183 print midifile-info;
#X obj 182 207 print second;
#X obj 145 232 print FIRST;
#X floatatom 276 95 5 0 0 0 - - -;
#X msg 145 129 read \$1;
#X obj 145 159 fd_midiread;
#X obj 37 106 metro 250;
#X floatatom 97 82 5 0 0 0 - - -;
#X text 21 48 Load and play a midi file... still on the workings.;
#X obj 352 224 declare -path mrpeach;
#X msg 145 80 dir 0 test.midi;
#X obj 145 104 pdcontrol;
#X text 60 340 1: bang: next tick \; 1: 'read': load a specified midi
file \; 1: 'goto': go to specified tick;
#X text 60 420 3 outlets as in mrpeach/midifile;
#X text 153 9 wrapper for [mrpeach/midifile];
#X text 382 201 Dependency:;
#X connect 9 0 16 0;
#X connect 10 0 17 0;
#X connect 14 0 9 0;
#X connect 15 0 16 0;
#X connect 16 0 13 0;
#X connect 16 1 12 0;
#X connect 16 2 11 0;
#X connect 17 0 16 0;
#X connect 18 0 17 1;
#X connect 21 0 22 0;
#X connect 22 0 15 0;
