#N canvas 500 50 530 480 12;
#X declare -path fd_lib;
#X obj 4 4 cnv 15 522 30 empty empty "fd_cuacua" 20 15 0 15 -228856
-1 0;
#X obj 4 254 cnv 15 522 20 empty empty arguments: 10 10 0 14 -228856
-1 0;
#X obj 4 314 cnv 15 522 20 empty empty inlets: 10 10 0 14 -228856 -1
0;
#X obj 4 374 cnv 15 522 20 empty empty outlets: 10 10 0 14 -228856
-1 0;
#X obj 4 453 cnv 15 522 20 empty empty version 10 10 0 14 -228856 -1
0;
#X obj 380 8 declare -path fd_lib;
#X text 440 452 fd_lib v0.1;
#X text 60 284 no arguments;
#X obj 191 191 fd_cuacua;
#X text 27 48 Quarter-tone quantification of midi-note values;
#X floatatom 75 217 0 0 0 0 - - -;
#X obj 134 155 ftom;
#X obj 134 105 random 10000;
#X obj 134 130 + 40;
#X obj 134 84 bng 15 250 50 0 empty empty empty 17 7 0 10 -262144 -1
-1;
#X obj 423 216 fd_round;
#X text 328 217 similar to:;
#X text 60 340 1: float;
#X text 60 410 1: float;
#X floatatom 191 217 0 0 0 0 - - -;
#N canvas 0 22 450 300 meta 0;
#X text 10 10 fd_lib - metadata file - Fri Sep 13 18:18:46 EDT 2019
;
#X text 10 25 patch_name : fd_cuacua;
#X text 10 40 inlet : 1;
#X text 10 55 outlet : 1;
#X text 10 70 inlet~ : 0;
#X text 10 85 outlet~ : 0;
#X text 10 100 arguments : 0;
#X text 10 115 classes used : 8;
#X text 10 130 total objects: 10;
#X text 10 145 connections : 13;
#X text 10 160 dependencies : 0 [0];
#X text 10 175 externals : 0 [0];
#X text 10 190 internals : 8/233 [0t:wrap:outlet:moses:int:inlet:*:+]
;
#X restore 438 423 pd meta;
#X connect 8 0 19 0;
#X connect 11 0 10 0;
#X connect 11 0 8 0;
#X connect 12 0 13 0;
#X connect 13 0 11 0;
#X connect 14 0 12 0;
