#N canvas 500 50 530 480 12;
#X declare -path fd_lib;
#X obj 4 4 cnv 15 522 30 empty empty "fd_bang" 20 15 0 15 -228856 -1
0;
#X obj 4 254 cnv 15 522 20 empty empty arguments: 10 10 0 14 -228856
-1 0;
#X obj 4 314 cnv 15 522 20 empty empty inlets: 10 10 0 14 -228856 -1
0;
#X obj 4 374 cnv 15 522 20 empty empty outlets: 10 10 0 14 -228856
-1 0;
#X obj 4 453 cnv 15 522 20 empty empty version 10 10 0 14 -228856 -1
0;
#X obj 380 8 declare -path fd_lib;
#X text 440 452 fd_lib v0.1;
#X text 60 284 no arguments;
#X text 60 340 anything;
#X obj 38 171 fd_bang;
#X obj 38 203 print -n;
#X obj 205 170 clone fd_bang 120;
#X obj 205 205 print -n;
#X text 204 91 A prepended counter:;
#X msg 205 118 all cat dog;
#X msg 38 119 whatever \, 1 \, 2;
#X text 43 51 Just an inlet connected to an outlet:;
#X text 32 90 Anything:;
#X text 60 410 anything;
#N canvas 0 22 450 300 meta 1;
#X text 10 10 fd_lib - metadata file - Fri Sep 13 18:18:13 EDT 2019
;
#X text 10 25 patch_name : fd_bang;
#X text 10 40 inlet : 1;
#X text 10 55 outlet : 1;
#X text 10 70 inlet~ : 0;
#X text 10 85 outlet~ : 0;
#X text 10 100 arguments : 0;
#X text 10 115 classes used : 2;
#X text 10 130 total objects: 2;
#X text 10 145 connections : 1;
#X text 10 160 dependencies : 0 [0];
#X text 10 175 externals : 0 [0];
#X text 10 190 internals : 2/233 [0outlet:inlet];
#X restore 438 423 pd meta;
#X connect 9 0 10 0;
#X connect 11 0 12 0;
#X connect 14 0 11 0;
#X connect 15 0 9 0;
