#N canvas 665 566 306 339 12;
#X obj 95 106 cpole~;
#X obj 95 146 cpole~;
#X obj 95 194 czero_rev~;
#X obj 95 40 inlet~;
#X obj 95 271 outlet~;
#X obj 188 20 inlet~;
#X obj 95 229 rzero_rev~;
#X obj 226 111 -~ \$1;
#X obj 167 69 rfft~;
#X connect 0 0 1 0;
#X connect 0 1 1 1;
#X connect 1 0 2 0;
#X connect 1 1 2 1;
#X connect 2 0 6 0;
#X connect 3 0 0 0;
#X connect 5 0 8 0;
#X connect 5 0 7 0;
#X connect 5 0 2 2;
#X connect 6 0 4 0;
#X connect 7 0 6 1;
#X connect 7 0 2 3;
#X connect 8 0 0 2;
#X connect 8 0 1 2;
#X connect 8 1 0 3;
#X connect 8 1 1 3;
